%TF.GenerationSoftware,KiCad,Pcbnew,7.0.5-0*%
%TF.CreationDate,2023-06-05T20:29:51-04:00*%
%TF.ProjectId,7-segment-display-controller,372d7365-676d-4656-9e74-2d646973706c,B*%
%TF.SameCoordinates,Original*%
%TF.FileFunction,Legend,Bot*%
%TF.FilePolarity,Positive*%
%FSLAX46Y46*%
G04 Gerber Fmt 4.6, Leading zero omitted, Abs format (unit mm)*
G04 Created by KiCad (PCBNEW 7.0.5-0) date 2023-06-05 20:29:51*
%MOMM*%
%LPD*%
G01*
G04 APERTURE LIST*
G04 Aperture macros list*
%AMRoundRect*
0 Rectangle with rounded corners*
0 $1 Rounding radius*
0 $2 $3 $4 $5 $6 $7 $8 $9 X,Y pos of 4 corners*
0 Add a 4 corners polygon primitive as box body*
4,1,4,$2,$3,$4,$5,$6,$7,$8,$9,$2,$3,0*
0 Add four circle primitives for the rounded corners*
1,1,$1+$1,$2,$3*
1,1,$1+$1,$4,$5*
1,1,$1+$1,$6,$7*
1,1,$1+$1,$8,$9*
0 Add four rect primitives between the rounded corners*
20,1,$1+$1,$2,$3,$4,$5,0*
20,1,$1+$1,$4,$5,$6,$7,0*
20,1,$1+$1,$6,$7,$8,$9,0*
20,1,$1+$1,$8,$9,$2,$3,0*%
G04 Aperture macros list end*
%ADD10C,0.153000*%
%ADD11R,1.700000X1.700000*%
%ADD12O,1.700000X1.700000*%
%ADD13C,0.800000*%
%ADD14C,6.400000*%
%ADD15O,1.200000X1.900000*%
%ADD16C,1.450000*%
%ADD17RoundRect,0.250000X0.350000X0.625000X-0.350000X0.625000X-0.350000X-0.625000X0.350000X-0.625000X0*%
%ADD18O,1.200000X1.750000*%
%ADD19C,0.991000*%
%ADD20RoundRect,0.250000X-0.725000X0.600000X-0.725000X-0.600000X0.725000X-0.600000X0.725000X0.600000X0*%
%ADD21O,1.950000X1.700000*%
%ADD22RoundRect,0.250000X0.625000X-0.350000X0.625000X0.350000X-0.625000X0.350000X-0.625000X-0.350000X0*%
%ADD23O,1.750000X1.200000*%
%ADD24RoundRect,0.250000X-0.350000X-0.625000X0.350000X-0.625000X0.350000X0.625000X-0.350000X0.625000X0*%
%ADD25RoundRect,0.250000X-0.625000X0.350000X-0.625000X-0.350000X0.625000X-0.350000X0.625000X0.350000X0*%
G04 APERTURE END LIST*
D10*
X29745323Y-19931924D02*
X29745323Y-18831924D01*
X29745323Y-18831924D02*
X29345323Y-19931924D01*
X29345323Y-19931924D02*
X29345323Y-18831924D01*
X28611990Y-19931924D02*
X28845323Y-19408115D01*
X29011990Y-19931924D02*
X29011990Y-18831924D01*
X29011990Y-18831924D02*
X28745323Y-18831924D01*
X28745323Y-18831924D02*
X28678657Y-18884305D01*
X28678657Y-18884305D02*
X28645323Y-18936686D01*
X28645323Y-18936686D02*
X28611990Y-19041448D01*
X28611990Y-19041448D02*
X28611990Y-19198591D01*
X28611990Y-19198591D02*
X28645323Y-19303353D01*
X28645323Y-19303353D02*
X28678657Y-19355734D01*
X28678657Y-19355734D02*
X28745323Y-19408115D01*
X28745323Y-19408115D02*
X29011990Y-19408115D01*
X28345323Y-19879544D02*
X28245323Y-19931924D01*
X28245323Y-19931924D02*
X28078657Y-19931924D01*
X28078657Y-19931924D02*
X28011990Y-19879544D01*
X28011990Y-19879544D02*
X27978657Y-19827163D01*
X27978657Y-19827163D02*
X27945323Y-19722401D01*
X27945323Y-19722401D02*
X27945323Y-19617639D01*
X27945323Y-19617639D02*
X27978657Y-19512877D01*
X27978657Y-19512877D02*
X28011990Y-19460496D01*
X28011990Y-19460496D02*
X28078657Y-19408115D01*
X28078657Y-19408115D02*
X28211990Y-19355734D01*
X28211990Y-19355734D02*
X28278657Y-19303353D01*
X28278657Y-19303353D02*
X28311990Y-19250972D01*
X28311990Y-19250972D02*
X28345323Y-19146210D01*
X28345323Y-19146210D02*
X28345323Y-19041448D01*
X28345323Y-19041448D02*
X28311990Y-18936686D01*
X28311990Y-18936686D02*
X28278657Y-18884305D01*
X28278657Y-18884305D02*
X28211990Y-18831924D01*
X28211990Y-18831924D02*
X28045323Y-18831924D01*
X28045323Y-18831924D02*
X27945323Y-18884305D01*
X27745323Y-18831924D02*
X27345323Y-18831924D01*
X27545323Y-19931924D02*
X27545323Y-18831924D01*
X21598323Y-17466544D02*
X21498323Y-17518924D01*
X21498323Y-17518924D02*
X21331657Y-17518924D01*
X21331657Y-17518924D02*
X21264990Y-17466544D01*
X21264990Y-17466544D02*
X21231657Y-17414163D01*
X21231657Y-17414163D02*
X21198323Y-17309401D01*
X21198323Y-17309401D02*
X21198323Y-17204639D01*
X21198323Y-17204639D02*
X21231657Y-17099877D01*
X21231657Y-17099877D02*
X21264990Y-17047496D01*
X21264990Y-17047496D02*
X21331657Y-16995115D01*
X21331657Y-16995115D02*
X21464990Y-16942734D01*
X21464990Y-16942734D02*
X21531657Y-16890353D01*
X21531657Y-16890353D02*
X21564990Y-16837972D01*
X21564990Y-16837972D02*
X21598323Y-16733210D01*
X21598323Y-16733210D02*
X21598323Y-16628448D01*
X21598323Y-16628448D02*
X21564990Y-16523686D01*
X21564990Y-16523686D02*
X21531657Y-16471305D01*
X21531657Y-16471305D02*
X21464990Y-16418924D01*
X21464990Y-16418924D02*
X21298323Y-16418924D01*
X21298323Y-16418924D02*
X21198323Y-16471305D01*
X20964990Y-16418924D02*
X20798323Y-17518924D01*
X20798323Y-17518924D02*
X20664990Y-16733210D01*
X20664990Y-16733210D02*
X20531656Y-17518924D01*
X20531656Y-17518924D02*
X20364990Y-16418924D01*
X19964990Y-16418924D02*
X19831656Y-16418924D01*
X19831656Y-16418924D02*
X19764990Y-16471305D01*
X19764990Y-16471305D02*
X19698323Y-16576067D01*
X19698323Y-16576067D02*
X19664990Y-16785591D01*
X19664990Y-16785591D02*
X19664990Y-17152258D01*
X19664990Y-17152258D02*
X19698323Y-17361782D01*
X19698323Y-17361782D02*
X19764990Y-17466544D01*
X19764990Y-17466544D02*
X19831656Y-17518924D01*
X19831656Y-17518924D02*
X19964990Y-17518924D01*
X19964990Y-17518924D02*
X20031656Y-17466544D01*
X20031656Y-17466544D02*
X20098323Y-17361782D01*
X20098323Y-17361782D02*
X20131656Y-17152258D01*
X20131656Y-17152258D02*
X20131656Y-16785591D01*
X20131656Y-16785591D02*
X20098323Y-16576067D01*
X20098323Y-16576067D02*
X20031656Y-16471305D01*
X20031656Y-16471305D02*
X19964990Y-16418924D01*
X21598323Y-20514544D02*
X21498323Y-20566924D01*
X21498323Y-20566924D02*
X21331657Y-20566924D01*
X21331657Y-20566924D02*
X21264990Y-20514544D01*
X21264990Y-20514544D02*
X21231657Y-20462163D01*
X21231657Y-20462163D02*
X21198323Y-20357401D01*
X21198323Y-20357401D02*
X21198323Y-20252639D01*
X21198323Y-20252639D02*
X21231657Y-20147877D01*
X21231657Y-20147877D02*
X21264990Y-20095496D01*
X21264990Y-20095496D02*
X21331657Y-20043115D01*
X21331657Y-20043115D02*
X21464990Y-19990734D01*
X21464990Y-19990734D02*
X21531657Y-19938353D01*
X21531657Y-19938353D02*
X21564990Y-19885972D01*
X21564990Y-19885972D02*
X21598323Y-19781210D01*
X21598323Y-19781210D02*
X21598323Y-19676448D01*
X21598323Y-19676448D02*
X21564990Y-19571686D01*
X21564990Y-19571686D02*
X21531657Y-19519305D01*
X21531657Y-19519305D02*
X21464990Y-19466924D01*
X21464990Y-19466924D02*
X21298323Y-19466924D01*
X21298323Y-19466924D02*
X21198323Y-19519305D01*
X20964990Y-19466924D02*
X20798323Y-20566924D01*
X20798323Y-20566924D02*
X20664990Y-19781210D01*
X20664990Y-19781210D02*
X20531656Y-20566924D01*
X20531656Y-20566924D02*
X20364990Y-19466924D01*
X20098323Y-20566924D02*
X20098323Y-19466924D01*
X20098323Y-19466924D02*
X19931656Y-19466924D01*
X19931656Y-19466924D02*
X19831656Y-19519305D01*
X19831656Y-19519305D02*
X19764990Y-19624067D01*
X19764990Y-19624067D02*
X19731656Y-19728829D01*
X19731656Y-19728829D02*
X19698323Y-19938353D01*
X19698323Y-19938353D02*
X19698323Y-20095496D01*
X19698323Y-20095496D02*
X19731656Y-20305020D01*
X19731656Y-20305020D02*
X19764990Y-20409782D01*
X19764990Y-20409782D02*
X19831656Y-20514544D01*
X19831656Y-20514544D02*
X19931656Y-20566924D01*
X19931656Y-20566924D02*
X20098323Y-20566924D01*
X19398323Y-20566924D02*
X19398323Y-19466924D01*
X18931657Y-19466924D02*
X18798323Y-19466924D01*
X18798323Y-19466924D02*
X18731657Y-19519305D01*
X18731657Y-19519305D02*
X18664990Y-19624067D01*
X18664990Y-19624067D02*
X18631657Y-19833591D01*
X18631657Y-19833591D02*
X18631657Y-20200258D01*
X18631657Y-20200258D02*
X18664990Y-20409782D01*
X18664990Y-20409782D02*
X18731657Y-20514544D01*
X18731657Y-20514544D02*
X18798323Y-20566924D01*
X18798323Y-20566924D02*
X18931657Y-20566924D01*
X18931657Y-20566924D02*
X18998323Y-20514544D01*
X18998323Y-20514544D02*
X19064990Y-20409782D01*
X19064990Y-20409782D02*
X19098323Y-20200258D01*
X19098323Y-20200258D02*
X19098323Y-19833591D01*
X19098323Y-19833591D02*
X19064990Y-19624067D01*
X19064990Y-19624067D02*
X18998323Y-19519305D01*
X18998323Y-19519305D02*
X18931657Y-19466924D01*
X28878656Y-16725305D02*
X28945323Y-16672924D01*
X28945323Y-16672924D02*
X29045323Y-16672924D01*
X29045323Y-16672924D02*
X29145323Y-16725305D01*
X29145323Y-16725305D02*
X29211990Y-16830067D01*
X29211990Y-16830067D02*
X29245323Y-16934829D01*
X29245323Y-16934829D02*
X29278656Y-17144353D01*
X29278656Y-17144353D02*
X29278656Y-17301496D01*
X29278656Y-17301496D02*
X29245323Y-17511020D01*
X29245323Y-17511020D02*
X29211990Y-17615782D01*
X29211990Y-17615782D02*
X29145323Y-17720544D01*
X29145323Y-17720544D02*
X29045323Y-17772924D01*
X29045323Y-17772924D02*
X28978656Y-17772924D01*
X28978656Y-17772924D02*
X28878656Y-17720544D01*
X28878656Y-17720544D02*
X28845323Y-17668163D01*
X28845323Y-17668163D02*
X28845323Y-17301496D01*
X28845323Y-17301496D02*
X28978656Y-17301496D01*
X28545323Y-17772924D02*
X28545323Y-16672924D01*
X28545323Y-16672924D02*
X28145323Y-17772924D01*
X28145323Y-17772924D02*
X28145323Y-16672924D01*
X27811990Y-17772924D02*
X27811990Y-16672924D01*
X27811990Y-16672924D02*
X27645323Y-16672924D01*
X27645323Y-16672924D02*
X27545323Y-16725305D01*
X27545323Y-16725305D02*
X27478657Y-16830067D01*
X27478657Y-16830067D02*
X27445323Y-16934829D01*
X27445323Y-16934829D02*
X27411990Y-17144353D01*
X27411990Y-17144353D02*
X27411990Y-17301496D01*
X27411990Y-17301496D02*
X27445323Y-17511020D01*
X27445323Y-17511020D02*
X27478657Y-17615782D01*
X27478657Y-17615782D02*
X27545323Y-17720544D01*
X27545323Y-17720544D02*
X27645323Y-17772924D01*
X27645323Y-17772924D02*
X27811990Y-17772924D01*
X21598323Y-18990544D02*
X21498323Y-19042924D01*
X21498323Y-19042924D02*
X21331657Y-19042924D01*
X21331657Y-19042924D02*
X21264990Y-18990544D01*
X21264990Y-18990544D02*
X21231657Y-18938163D01*
X21231657Y-18938163D02*
X21198323Y-18833401D01*
X21198323Y-18833401D02*
X21198323Y-18728639D01*
X21198323Y-18728639D02*
X21231657Y-18623877D01*
X21231657Y-18623877D02*
X21264990Y-18571496D01*
X21264990Y-18571496D02*
X21331657Y-18519115D01*
X21331657Y-18519115D02*
X21464990Y-18466734D01*
X21464990Y-18466734D02*
X21531657Y-18414353D01*
X21531657Y-18414353D02*
X21564990Y-18361972D01*
X21564990Y-18361972D02*
X21598323Y-18257210D01*
X21598323Y-18257210D02*
X21598323Y-18152448D01*
X21598323Y-18152448D02*
X21564990Y-18047686D01*
X21564990Y-18047686D02*
X21531657Y-17995305D01*
X21531657Y-17995305D02*
X21464990Y-17942924D01*
X21464990Y-17942924D02*
X21298323Y-17942924D01*
X21298323Y-17942924D02*
X21198323Y-17995305D01*
X20964990Y-17942924D02*
X20798323Y-19042924D01*
X20798323Y-19042924D02*
X20664990Y-18257210D01*
X20664990Y-18257210D02*
X20531656Y-19042924D01*
X20531656Y-19042924D02*
X20364990Y-17942924D01*
X19698323Y-18938163D02*
X19731656Y-18990544D01*
X19731656Y-18990544D02*
X19831656Y-19042924D01*
X19831656Y-19042924D02*
X19898323Y-19042924D01*
X19898323Y-19042924D02*
X19998323Y-18990544D01*
X19998323Y-18990544D02*
X20064990Y-18885782D01*
X20064990Y-18885782D02*
X20098323Y-18781020D01*
X20098323Y-18781020D02*
X20131656Y-18571496D01*
X20131656Y-18571496D02*
X20131656Y-18414353D01*
X20131656Y-18414353D02*
X20098323Y-18204829D01*
X20098323Y-18204829D02*
X20064990Y-18100067D01*
X20064990Y-18100067D02*
X19998323Y-17995305D01*
X19998323Y-17995305D02*
X19898323Y-17942924D01*
X19898323Y-17942924D02*
X19831656Y-17942924D01*
X19831656Y-17942924D02*
X19731656Y-17995305D01*
X19731656Y-17995305D02*
X19698323Y-18047686D01*
X19064990Y-19042924D02*
X19398323Y-19042924D01*
X19398323Y-19042924D02*
X19398323Y-17942924D01*
X18831656Y-19042924D02*
X18831656Y-17942924D01*
X18431656Y-19042924D02*
X18731656Y-18414353D01*
X18431656Y-17942924D02*
X18831656Y-18571496D01*
X68744336Y-29141333D02*
X68030051Y-29141333D01*
X68030051Y-29141333D02*
X67887194Y-29174666D01*
X67887194Y-29174666D02*
X67791956Y-29241333D01*
X67791956Y-29241333D02*
X67744336Y-29341333D01*
X67744336Y-29341333D02*
X67744336Y-29408000D01*
X67744336Y-28474667D02*
X67744336Y-28808000D01*
X67744336Y-28808000D02*
X68744336Y-28808000D01*
X67839575Y-27841333D02*
X67791956Y-27874666D01*
X67791956Y-27874666D02*
X67744336Y-27974666D01*
X67744336Y-27974666D02*
X67744336Y-28041333D01*
X67744336Y-28041333D02*
X67791956Y-28141333D01*
X67791956Y-28141333D02*
X67887194Y-28208000D01*
X67887194Y-28208000D02*
X67982432Y-28241333D01*
X67982432Y-28241333D02*
X68172908Y-28274666D01*
X68172908Y-28274666D02*
X68315765Y-28274666D01*
X68315765Y-28274666D02*
X68506241Y-28241333D01*
X68506241Y-28241333D02*
X68601479Y-28208000D01*
X68601479Y-28208000D02*
X68696717Y-28141333D01*
X68696717Y-28141333D02*
X68744336Y-28041333D01*
X68744336Y-28041333D02*
X68744336Y-27974666D01*
X68744336Y-27974666D02*
X68696717Y-27874666D01*
X68696717Y-27874666D02*
X68649098Y-27841333D01*
X68744336Y-27341333D02*
X68030051Y-27341333D01*
X68030051Y-27341333D02*
X67887194Y-27374666D01*
X67887194Y-27374666D02*
X67791956Y-27441333D01*
X67791956Y-27441333D02*
X67744336Y-27541333D01*
X67744336Y-27541333D02*
X67744336Y-27608000D01*
X67744336Y-26674667D02*
X67744336Y-27008000D01*
X67744336Y-27008000D02*
X68744336Y-27008000D01*
X67839575Y-26041333D02*
X67791956Y-26074666D01*
X67791956Y-26074666D02*
X67744336Y-26174666D01*
X67744336Y-26174666D02*
X67744336Y-26241333D01*
X67744336Y-26241333D02*
X67791956Y-26341333D01*
X67791956Y-26341333D02*
X67887194Y-26408000D01*
X67887194Y-26408000D02*
X67982432Y-26441333D01*
X67982432Y-26441333D02*
X68172908Y-26474666D01*
X68172908Y-26474666D02*
X68315765Y-26474666D01*
X68315765Y-26474666D02*
X68506241Y-26441333D01*
X68506241Y-26441333D02*
X68601479Y-26408000D01*
X68601479Y-26408000D02*
X68696717Y-26341333D01*
X68696717Y-26341333D02*
X68744336Y-26241333D01*
X68744336Y-26241333D02*
X68744336Y-26174666D01*
X68744336Y-26174666D02*
X68696717Y-26074666D01*
X68696717Y-26074666D02*
X68649098Y-26041333D01*
X68744336Y-25541333D02*
X68030051Y-25541333D01*
X68030051Y-25541333D02*
X67887194Y-25574666D01*
X67887194Y-25574666D02*
X67791956Y-25641333D01*
X67791956Y-25641333D02*
X67744336Y-25741333D01*
X67744336Y-25741333D02*
X67744336Y-25808000D01*
X67744336Y-24874667D02*
X67744336Y-25208000D01*
X67744336Y-25208000D02*
X68744336Y-25208000D01*
X67839575Y-24241333D02*
X67791956Y-24274666D01*
X67791956Y-24274666D02*
X67744336Y-24374666D01*
X67744336Y-24374666D02*
X67744336Y-24441333D01*
X67744336Y-24441333D02*
X67791956Y-24541333D01*
X67791956Y-24541333D02*
X67887194Y-24608000D01*
X67887194Y-24608000D02*
X67982432Y-24641333D01*
X67982432Y-24641333D02*
X68172908Y-24674666D01*
X68172908Y-24674666D02*
X68315765Y-24674666D01*
X68315765Y-24674666D02*
X68506241Y-24641333D01*
X68506241Y-24641333D02*
X68601479Y-24608000D01*
X68601479Y-24608000D02*
X68696717Y-24541333D01*
X68696717Y-24541333D02*
X68744336Y-24441333D01*
X68744336Y-24441333D02*
X68744336Y-24374666D01*
X68744336Y-24374666D02*
X68696717Y-24274666D01*
X68696717Y-24274666D02*
X68649098Y-24241333D01*
X68744336Y-23741333D02*
X68030051Y-23741333D01*
X68030051Y-23741333D02*
X67887194Y-23774666D01*
X67887194Y-23774666D02*
X67791956Y-23841333D01*
X67791956Y-23841333D02*
X67744336Y-23941333D01*
X67744336Y-23941333D02*
X67744336Y-24008000D01*
X67744336Y-23074667D02*
X67744336Y-23408000D01*
X67744336Y-23408000D02*
X68744336Y-23408000D01*
X67839575Y-22441333D02*
X67791956Y-22474666D01*
X67791956Y-22474666D02*
X67744336Y-22574666D01*
X67744336Y-22574666D02*
X67744336Y-22641333D01*
X67744336Y-22641333D02*
X67791956Y-22741333D01*
X67791956Y-22741333D02*
X67887194Y-22808000D01*
X67887194Y-22808000D02*
X67982432Y-22841333D01*
X67982432Y-22841333D02*
X68172908Y-22874666D01*
X68172908Y-22874666D02*
X68315765Y-22874666D01*
X68315765Y-22874666D02*
X68506241Y-22841333D01*
X68506241Y-22841333D02*
X68601479Y-22808000D01*
X68601479Y-22808000D02*
X68696717Y-22741333D01*
X68696717Y-22741333D02*
X68744336Y-22641333D01*
X68744336Y-22641333D02*
X68744336Y-22574666D01*
X68744336Y-22574666D02*
X68696717Y-22474666D01*
X68696717Y-22474666D02*
X68649098Y-22441333D01*
%LPC*%
D11*
%TO.C,OLED101*%
X13388000Y-11079000D03*
D12*
X13388000Y-8539000D03*
X13388000Y-5999000D03*
X13388000Y-3459000D03*
%TD*%
D13*
%TO.C,H104*%
X2807000Y-48768000D03*
X3509944Y-47070944D03*
X3509944Y-50465056D03*
X5207000Y-46368000D03*
D14*
X5207000Y-48768000D03*
D13*
X5207000Y-51168000D03*
X6904056Y-47070944D03*
X6904056Y-50465056D03*
X7607000Y-48768000D03*
%TD*%
D15*
%TO.C,J102*%
X19690200Y-52494700D03*
D16*
X20690200Y-49794700D03*
X25690200Y-49794700D03*
D15*
X26690200Y-52494700D03*
%TD*%
D17*
%TO.C,J106*%
X57658000Y-6731000D03*
D18*
X55658000Y-6731000D03*
X53658000Y-6731000D03*
%TD*%
D19*
%TO.C,J101*%
X24257000Y-21082000D03*
X23242000Y-16002000D03*
X25272000Y-16002000D03*
%TD*%
D20*
%TO.C,J104*%
X6731000Y-24297000D03*
D21*
X6731000Y-26797000D03*
X6731000Y-29297000D03*
%TD*%
D13*
%TO.C,H103*%
X2807000Y-5080000D03*
X3509944Y-3382944D03*
X3509944Y-6777056D03*
X5207000Y-2680000D03*
D14*
X5207000Y-5080000D03*
D13*
X5207000Y-7480000D03*
X6904056Y-3382944D03*
X6904056Y-6777056D03*
X7607000Y-5080000D03*
%TD*%
D22*
%TO.C,J103*%
X64262000Y-25908000D03*
D23*
X64262000Y-23908000D03*
X64262000Y-21908000D03*
X64262000Y-19908000D03*
%TD*%
D13*
%TO.C,H101*%
X63513000Y-5080000D03*
X64215944Y-3382944D03*
X64215944Y-6777056D03*
X65913000Y-2680000D03*
D14*
X65913000Y-5080000D03*
D13*
X65913000Y-7480000D03*
X67610056Y-3382944D03*
X67610056Y-6777056D03*
X68313000Y-5080000D03*
%TD*%
%TO.C,H102*%
X63513000Y-48768000D03*
X64215944Y-47070944D03*
X64215944Y-50465056D03*
X65913000Y-46368000D03*
D14*
X65913000Y-48768000D03*
D13*
X65913000Y-51168000D03*
X67610056Y-47070944D03*
X67610056Y-50465056D03*
X68313000Y-48768000D03*
%TD*%
D24*
%TO.C,J107*%
X51455000Y-47608000D03*
D18*
X53455000Y-47608000D03*
%TD*%
D25*
%TO.C,J105*%
X6207000Y-12605000D03*
D23*
X6207000Y-14605000D03*
X6207000Y-16605000D03*
X6207000Y-18605000D03*
%TD*%
%LPD*%
M02*
