%TF.GenerationSoftware,KiCad,Pcbnew,7.0.2-0*%
%TF.CreationDate,2023-05-15T19:37:27-04:00*%
%TF.ProjectId,7-segment-display-controller,372d7365-676d-4656-9e74-2d646973706c,A*%
%TF.SameCoordinates,Original*%
%TF.FileFunction,Copper,L2,Inr*%
%TF.FilePolarity,Positive*%
%FSLAX46Y46*%
G04 Gerber Fmt 4.6, Leading zero omitted, Abs format (unit mm)*
G04 Created by KiCad (PCBNEW 7.0.2-0) date 2023-05-15 19:37:27*
%MOMM*%
%LPD*%
G01*
G04 APERTURE LIST*
G04 Aperture macros list*
%AMRoundRect*
0 Rectangle with rounded corners*
0 $1 Rounding radius*
0 $2 $3 $4 $5 $6 $7 $8 $9 X,Y pos of 4 corners*
0 Add a 4 corners polygon primitive as box body*
4,1,4,$2,$3,$4,$5,$6,$7,$8,$9,$2,$3,0*
0 Add four circle primitives for the rounded corners*
1,1,$1+$1,$2,$3*
1,1,$1+$1,$4,$5*
1,1,$1+$1,$6,$7*
1,1,$1+$1,$8,$9*
0 Add four rect primitives between the rounded corners*
20,1,$1+$1,$2,$3,$4,$5,0*
20,1,$1+$1,$4,$5,$6,$7,0*
20,1,$1+$1,$6,$7,$8,$9,0*
20,1,$1+$1,$8,$9,$2,$3,0*%
G04 Aperture macros list end*
%TA.AperFunction,ComponentPad*%
%ADD10C,7.500000*%
%TD*%
%TA.AperFunction,ComponentPad*%
%ADD11O,1.200000X1.900000*%
%TD*%
%TA.AperFunction,ComponentPad*%
%ADD12C,1.450000*%
%TD*%
%TA.AperFunction,ComponentPad*%
%ADD13C,2.000000*%
%TD*%
%TA.AperFunction,ComponentPad*%
%ADD14O,1.950000X1.700000*%
%TD*%
%TA.AperFunction,ComponentPad*%
%ADD15RoundRect,0.250000X-0.725000X0.600000X-0.725000X-0.600000X0.725000X-0.600000X0.725000X0.600000X0*%
%TD*%
%TA.AperFunction,ComponentPad*%
%ADD16C,1.500000*%
%TD*%
%TA.AperFunction,ComponentPad*%
%ADD17RoundRect,0.250000X0.725000X-0.600000X0.725000X0.600000X-0.725000X0.600000X-0.725000X-0.600000X0*%
%TD*%
%TA.AperFunction,ViaPad*%
%ADD18C,0.800000*%
%TD*%
G04 APERTURE END LIST*
D10*
%TO.N,N/C*%
%TO.C,H104*%
X5588000Y-48768000D03*
%TD*%
D11*
%TO.N,GND*%
%TO.C,J102*%
X27630000Y-52545500D03*
D12*
X26630000Y-49845500D03*
X21630000Y-49845500D03*
D11*
X20630000Y-52545500D03*
%TD*%
D13*
%TO.N,GND*%
%TO.C,SW104*%
X40676000Y-10870000D03*
X40676000Y-4370000D03*
%TO.N,/RGB_COLOR*%
X45176000Y-10870000D03*
X45176000Y-4370000D03*
%TD*%
%TO.N,GND*%
%TO.C,SW103*%
X23948000Y-10870000D03*
X23948000Y-4370000D03*
%TO.N,/CLK_UP*%
X28448000Y-10870000D03*
X28448000Y-4370000D03*
%TD*%
%TO.N,GND*%
%TO.C,SW102*%
X32294000Y-10870000D03*
X32294000Y-4370000D03*
%TO.N,/CLK_RST*%
X36794000Y-10870000D03*
X36794000Y-4370000D03*
%TD*%
D14*
%TO.N,+5V*%
%TO.C,J104*%
X5334000Y-29638000D03*
%TO.N,Net-(J104-Pin_2)*%
X5334000Y-27138000D03*
D15*
%TO.N,GND*%
X5334000Y-24638000D03*
%TD*%
D13*
%TO.N,GND*%
%TO.C,SW106*%
X49058000Y-10870000D03*
X49058000Y-4370000D03*
%TO.N,/NRST*%
X53558000Y-10870000D03*
X53558000Y-4370000D03*
%TD*%
D16*
%TO.N,*%
%TO.C,BT101*%
X63290000Y-36322000D03*
X55790000Y-36322000D03*
%TD*%
D10*
%TO.N,N/C*%
%TO.C,H103*%
X5588000Y-5588000D03*
%TD*%
D14*
%TO.N,GND*%
%TO.C,J103*%
X65151000Y-16423000D03*
%TO.N,/UART_RX*%
X65151000Y-18923000D03*
%TO.N,/UART_TX*%
X65151000Y-21423000D03*
D17*
%TO.N,VBUS*%
X65151000Y-23923000D03*
%TD*%
D10*
%TO.N,N/C*%
%TO.C,H101*%
X65024000Y-5588000D03*
%TD*%
%TO.N,N/C*%
%TO.C,H102*%
X65024000Y-48768000D03*
%TD*%
D13*
%TO.N,GND*%
%TO.C,SW105*%
X15693000Y-10870000D03*
X15693000Y-4370000D03*
%TO.N,/CLK_DN*%
X20193000Y-10870000D03*
X20193000Y-4370000D03*
%TD*%
D18*
%TO.N,GND*%
X44704000Y-26924000D03*
X44704000Y-29464000D03*
%TO.N,/UART_RX*%
X35627800Y-26483800D03*
%TO.N,+3V3*%
X38608000Y-28194000D03*
%TO.N,/UART_TX*%
X38626600Y-29508000D03*
%TO.N,GND*%
X68376800Y-38811200D03*
X9144000Y-34544000D03*
X30149800Y-34508000D03*
X58801000Y-24511000D03*
X34772600Y-30962600D03*
X29718000Y-22860000D03*
X40767000Y-2032000D03*
X35433000Y-39497000D03*
X28067000Y-38227000D03*
X15748000Y-2032000D03*
X25654000Y-47498000D03*
X32359600Y-2032000D03*
X26543000Y-43942000D03*
X40894000Y-46355000D03*
X27178000Y-47498000D03*
X44856400Y-35306000D03*
X22860000Y-29718000D03*
X22428200Y-37312600D03*
X44856400Y-36601400D03*
X34192699Y-38307499D03*
X27178000Y-45974000D03*
X24003000Y-2032000D03*
X38481000Y-42291000D03*
X58801000Y-19964400D03*
X49022000Y-2032000D03*
X9652000Y-43307000D03*
X8382000Y-43307000D03*
X58808200Y-22156000D03*
X39979600Y-32562800D03*
%TO.N,+3V3*%
X40386000Y-38481000D03*
X4191000Y-34671000D03*
X35426122Y-38044557D03*
X26352500Y-35369500D03*
X52552600Y-18389600D03*
X25228104Y-24422873D03*
X1651000Y-34671000D03*
X2921000Y-34671000D03*
X33020000Y-50165000D03*
%TO.N,/NRST*%
X33832800Y-32867600D03*
X24773300Y-42291000D03*
X22606000Y-38379400D03*
%TO.N,/SWO*%
X17526000Y-37338000D03*
X28638500Y-41973500D03*
%TO.N,/SWCLK*%
X27495500Y-39306500D03*
X17526000Y-38608000D03*
%TO.N,/SWDIO*%
X25527000Y-38989000D03*
X17780000Y-40513000D03*
%TO.N,VBUS*%
X20574000Y-46228000D03*
%TD*%
%TA.AperFunction,Conductor*%
%TO.N,GND*%
G36*
X69120042Y-88764D02*
G01*
X69199743Y-93988D01*
X69377590Y-106709D01*
X69392904Y-108772D01*
X69505441Y-131157D01*
X69646277Y-161794D01*
X69659690Y-165518D01*
X69773725Y-204228D01*
X69777074Y-205420D01*
X69904808Y-253062D01*
X69916300Y-258024D01*
X70026687Y-312461D01*
X70031187Y-314798D01*
X70148478Y-378844D01*
X70157942Y-384574D01*
X70261269Y-453615D01*
X70266688Y-457450D01*
X70372727Y-536830D01*
X70380145Y-542844D01*
X70473976Y-625131D01*
X70479898Y-630678D01*
X70573320Y-724100D01*
X70578867Y-730022D01*
X70661150Y-823848D01*
X70667173Y-831278D01*
X70704691Y-881396D01*
X70746548Y-937310D01*
X70750383Y-942729D01*
X70819424Y-1046056D01*
X70825154Y-1055520D01*
X70889183Y-1172779D01*
X70891564Y-1177363D01*
X70945969Y-1287687D01*
X70950938Y-1299196D01*
X70998556Y-1426863D01*
X70999793Y-1430338D01*
X71038470Y-1544276D01*
X71042217Y-1557777D01*
X71072847Y-1698580D01*
X71076556Y-1717225D01*
X71095230Y-1811107D01*
X71097290Y-1826414D01*
X71110017Y-2004350D01*
X71115235Y-2083955D01*
X71115500Y-2092051D01*
X71115500Y-52083947D01*
X71115234Y-52092058D01*
X71110017Y-52171648D01*
X71097291Y-52349574D01*
X71095225Y-52364916D01*
X71072851Y-52477402D01*
X71042212Y-52618244D01*
X71038473Y-52631714D01*
X70999793Y-52745660D01*
X70998556Y-52749135D01*
X70950938Y-52876802D01*
X70945969Y-52888311D01*
X70891564Y-52998635D01*
X70889183Y-53003219D01*
X70825154Y-53120478D01*
X70819424Y-53129942D01*
X70750383Y-53233269D01*
X70746548Y-53238688D01*
X70667181Y-53344711D01*
X70661142Y-53352160D01*
X70578867Y-53445976D01*
X70573320Y-53451898D01*
X70479898Y-53545320D01*
X70473976Y-53550867D01*
X70380160Y-53633142D01*
X70372711Y-53639181D01*
X70266688Y-53718548D01*
X70261269Y-53722383D01*
X70157942Y-53791424D01*
X70148478Y-53797154D01*
X70031219Y-53861183D01*
X70026635Y-53863564D01*
X69916311Y-53917969D01*
X69904802Y-53922938D01*
X69777135Y-53970556D01*
X69773660Y-53971793D01*
X69659722Y-54010470D01*
X69646221Y-54014217D01*
X69505419Y-54044847D01*
X69458048Y-54054270D01*
X69392896Y-54067229D01*
X69377584Y-54069290D01*
X69199649Y-54082017D01*
X69176221Y-54083552D01*
X69120030Y-54087235D01*
X69111948Y-54087500D01*
X28237860Y-54087500D01*
X28170821Y-54067815D01*
X28125066Y-54015011D01*
X28115122Y-53945853D01*
X28144147Y-53882297D01*
X28173541Y-53860292D01*
X28172857Y-53859331D01*
X28353621Y-53730607D01*
X28498592Y-53578566D01*
X28612166Y-53401844D01*
X28690244Y-53206814D01*
X28730000Y-53000537D01*
X28730000Y-52795500D01*
X27930000Y-52795500D01*
X27930000Y-52295500D01*
X28730000Y-52295500D01*
X28730000Y-52146049D01*
X28729718Y-52140140D01*
X28715035Y-51986379D01*
X28655850Y-51784812D01*
X28559587Y-51598087D01*
X28429730Y-51432961D01*
X28270963Y-51295388D01*
X28089036Y-51190353D01*
X27890511Y-51121643D01*
X27880000Y-51120131D01*
X27880000Y-52029389D01*
X27855543Y-51989890D01*
X27766038Y-51922299D01*
X27658160Y-51891605D01*
X27546479Y-51901954D01*
X27446078Y-51951948D01*
X27379999Y-52024431D01*
X27380000Y-51124240D01*
X27344822Y-51132775D01*
X27275032Y-51129450D01*
X27218117Y-51088922D01*
X27192149Y-51024057D01*
X27205372Y-50955450D01*
X27244463Y-50910696D01*
X27301620Y-50870673D01*
X26696252Y-50265304D01*
X26762969Y-50254738D01*
X26882923Y-50193618D01*
X26978118Y-50098423D01*
X27039238Y-49978469D01*
X27049804Y-49911751D01*
X27655173Y-50517119D01*
X27694934Y-50460337D01*
X27785518Y-50266078D01*
X27812602Y-50165000D01*
X32114540Y-50165000D01*
X32134326Y-50353257D01*
X32192820Y-50533284D01*
X32287466Y-50697216D01*
X32414129Y-50837889D01*
X32567269Y-50949151D01*
X32740197Y-51026144D01*
X32925352Y-51065500D01*
X32925354Y-51065500D01*
X33114648Y-51065500D01*
X33238083Y-51039262D01*
X33299803Y-51026144D01*
X33472730Y-50949151D01*
X33625871Y-50837888D01*
X33752533Y-50697216D01*
X33847179Y-50533284D01*
X33905674Y-50353256D01*
X33925460Y-50165000D01*
X33905674Y-49976744D01*
X33847179Y-49796716D01*
X33847179Y-49796715D01*
X33752533Y-49632783D01*
X33625870Y-49492110D01*
X33472730Y-49380848D01*
X33299802Y-49303855D01*
X33114648Y-49264500D01*
X33114646Y-49264500D01*
X32925354Y-49264500D01*
X32925352Y-49264500D01*
X32740197Y-49303855D01*
X32567269Y-49380848D01*
X32414129Y-49492110D01*
X32287466Y-49632783D01*
X32192820Y-49796715D01*
X32134326Y-49976742D01*
X32114540Y-50165000D01*
X27812602Y-50165000D01*
X27840997Y-50059029D01*
X27859679Y-49845500D01*
X27840997Y-49631970D01*
X27785519Y-49424923D01*
X27694932Y-49230659D01*
X27655173Y-49173878D01*
X27049804Y-49779247D01*
X27039238Y-49712531D01*
X26978118Y-49592577D01*
X26882923Y-49497382D01*
X26762969Y-49436262D01*
X26696250Y-49425694D01*
X27301620Y-48820325D01*
X27244837Y-48780566D01*
X27217889Y-48768000D01*
X60768680Y-48768000D01*
X60787948Y-49172494D01*
X60788364Y-49175391D01*
X60788366Y-49175406D01*
X60824242Y-49424923D01*
X60845579Y-49573325D01*
X60846273Y-49576186D01*
X60846275Y-49576196D01*
X60879350Y-49712531D01*
X60941050Y-49966862D01*
X60942015Y-49969652D01*
X60942018Y-49969660D01*
X61046140Y-50270500D01*
X61073497Y-50349543D01*
X61074718Y-50352217D01*
X61074723Y-50352229D01*
X61240494Y-50715215D01*
X61240500Y-50715228D01*
X61241721Y-50717900D01*
X61329924Y-50870673D01*
X61441399Y-51063755D01*
X61444197Y-51068600D01*
X61445908Y-51071003D01*
X61445914Y-51071012D01*
X61651982Y-51360392D01*
X61679093Y-51398464D01*
X61944280Y-51704507D01*
X62237358Y-51983956D01*
X62555672Y-52234281D01*
X62558149Y-52235872D01*
X62558152Y-52235875D01*
X62758944Y-52364916D01*
X62896340Y-52453215D01*
X63256276Y-52638775D01*
X63632221Y-52789281D01*
X64020770Y-52903369D01*
X64418405Y-52980007D01*
X64821524Y-53018500D01*
X64824478Y-53018500D01*
X65223522Y-53018500D01*
X65226476Y-53018500D01*
X65629595Y-52980007D01*
X66027230Y-52903369D01*
X66415779Y-52789281D01*
X66791724Y-52638775D01*
X67151660Y-52453215D01*
X67492328Y-52234281D01*
X67810642Y-51983956D01*
X68103720Y-51704507D01*
X68368907Y-51398464D01*
X68603803Y-51068600D01*
X68806279Y-50717900D01*
X68974503Y-50349543D01*
X69106950Y-49966862D01*
X69202421Y-49573325D01*
X69260052Y-49172494D01*
X69279320Y-48768000D01*
X69260052Y-48363506D01*
X69202421Y-47962675D01*
X69106950Y-47569138D01*
X68974503Y-47186457D01*
X68948035Y-47128500D01*
X68807505Y-46820784D01*
X68807502Y-46820779D01*
X68806279Y-46818100D01*
X68603803Y-46467400D01*
X68567383Y-46416256D01*
X68370619Y-46139940D01*
X68370617Y-46139938D01*
X68368907Y-46137536D01*
X68103720Y-45831493D01*
X67810642Y-45552044D01*
X67492328Y-45301719D01*
X67489855Y-45300129D01*
X67489847Y-45300124D01*
X67154141Y-45084379D01*
X67154134Y-45084375D01*
X67151660Y-45082785D01*
X67149052Y-45081440D01*
X67149046Y-45081437D01*
X66794348Y-44898578D01*
X66791724Y-44897225D01*
X66415779Y-44746719D01*
X66374767Y-44734676D01*
X66030066Y-44633463D01*
X66030051Y-44633459D01*
X66027230Y-44632631D01*
X66024332Y-44632072D01*
X66024326Y-44632071D01*
X65632496Y-44556552D01*
X65632493Y-44556551D01*
X65629595Y-44555993D01*
X65626675Y-44555714D01*
X65626660Y-44555712D01*
X65229411Y-44517780D01*
X65229405Y-44517779D01*
X65226476Y-44517500D01*
X64821524Y-44517500D01*
X64818595Y-44517779D01*
X64818588Y-44517780D01*
X64421339Y-44555712D01*
X64421321Y-44555714D01*
X64418405Y-44555993D01*
X64415509Y-44556551D01*
X64415503Y-44556552D01*
X64023673Y-44632071D01*
X64023663Y-44632073D01*
X64020770Y-44632631D01*
X64017952Y-44633458D01*
X64017933Y-44633463D01*
X63635047Y-44745889D01*
X63635042Y-44745890D01*
X63632221Y-44746719D01*
X63629496Y-44747809D01*
X63629490Y-44747812D01*
X63259018Y-44896127D01*
X63259013Y-44896129D01*
X63256276Y-44897225D01*
X63253655Y-44898575D01*
X63253651Y-44898578D01*
X62898953Y-45081437D01*
X62898938Y-45081445D01*
X62896340Y-45082785D01*
X62893874Y-45084369D01*
X62893858Y-45084379D01*
X62558152Y-45300124D01*
X62558134Y-45300136D01*
X62555672Y-45301719D01*
X62553374Y-45303526D01*
X62553363Y-45303534D01*
X62239670Y-45550225D01*
X62239659Y-45550233D01*
X62237358Y-45552044D01*
X62235235Y-45554067D01*
X62235226Y-45554076D01*
X61946404Y-45829467D01*
X61946395Y-45829475D01*
X61944280Y-45831493D01*
X61942359Y-45833709D01*
X61942358Y-45833711D01*
X61681022Y-46135309D01*
X61681015Y-46135317D01*
X61679093Y-46137536D01*
X61677391Y-46139925D01*
X61677380Y-46139940D01*
X61445914Y-46464987D01*
X61445902Y-46465005D01*
X61444197Y-46467400D01*
X61442725Y-46469949D01*
X61442717Y-46469962D01*
X61275140Y-46760216D01*
X61241721Y-46818100D01*
X61240504Y-46820762D01*
X61240494Y-46820784D01*
X61074723Y-47183770D01*
X61074715Y-47183789D01*
X61073497Y-47186457D01*
X61072535Y-47189236D01*
X61072530Y-47189249D01*
X60942018Y-47566339D01*
X60942013Y-47566353D01*
X60941050Y-47569138D01*
X60940354Y-47572004D01*
X60940353Y-47572010D01*
X60846275Y-47959803D01*
X60846272Y-47959817D01*
X60845579Y-47962675D01*
X60845159Y-47965594D01*
X60845158Y-47965601D01*
X60788366Y-48360593D01*
X60788364Y-48360610D01*
X60787948Y-48363506D01*
X60768680Y-48768000D01*
X27217889Y-48768000D01*
X27050576Y-48689980D01*
X26843529Y-48634502D01*
X26630000Y-48615820D01*
X26416470Y-48634502D01*
X26209422Y-48689980D01*
X26015161Y-48780566D01*
X25958378Y-48820324D01*
X25958378Y-48820325D01*
X26563747Y-49425695D01*
X26497031Y-49436262D01*
X26377077Y-49497382D01*
X26281882Y-49592577D01*
X26220762Y-49712531D01*
X26210195Y-49779249D01*
X25604824Y-49173878D01*
X25565066Y-49230661D01*
X25474480Y-49424922D01*
X25419002Y-49631970D01*
X25400320Y-49845500D01*
X25419002Y-50059029D01*
X25474480Y-50266076D01*
X25565066Y-50460337D01*
X25604825Y-50517119D01*
X26210194Y-49911750D01*
X26220762Y-49978469D01*
X26281882Y-50098423D01*
X26377077Y-50193618D01*
X26497031Y-50254738D01*
X26563747Y-50265304D01*
X25958378Y-50870673D01*
X26015162Y-50910433D01*
X26209423Y-51001019D01*
X26416470Y-51056497D01*
X26630000Y-51075179D01*
X26843527Y-51056497D01*
X26964643Y-51024044D01*
X27034493Y-51025707D01*
X27092356Y-51064869D01*
X27119861Y-51129097D01*
X27108275Y-51197999D01*
X27068666Y-51244826D01*
X26906376Y-51360394D01*
X26761407Y-51512433D01*
X26647833Y-51689155D01*
X26569755Y-51884185D01*
X26529999Y-52090462D01*
X26530000Y-52295500D01*
X27330000Y-52295500D01*
X27330000Y-52795500D01*
X26530000Y-52795500D01*
X26530000Y-52944950D01*
X26530281Y-52950859D01*
X26544964Y-53104620D01*
X26604149Y-53306187D01*
X26700412Y-53492912D01*
X26830269Y-53658038D01*
X26989036Y-53795611D01*
X27093830Y-53856113D01*
X27142045Y-53906680D01*
X27155269Y-53975286D01*
X27129301Y-54040151D01*
X27072387Y-54080680D01*
X27031830Y-54087500D01*
X21237860Y-54087500D01*
X21170821Y-54067815D01*
X21125066Y-54015011D01*
X21115122Y-53945853D01*
X21144147Y-53882297D01*
X21173541Y-53860292D01*
X21172857Y-53859331D01*
X21353621Y-53730607D01*
X21498592Y-53578566D01*
X21612166Y-53401844D01*
X21690244Y-53206814D01*
X21730000Y-53000537D01*
X21730000Y-52795500D01*
X20930000Y-52795500D01*
X20930000Y-52295500D01*
X21730000Y-52295500D01*
X21730000Y-52146049D01*
X21729718Y-52140140D01*
X21715035Y-51986379D01*
X21655850Y-51784812D01*
X21559587Y-51598087D01*
X21429730Y-51432961D01*
X21270963Y-51295388D01*
X21188527Y-51247794D01*
X21140311Y-51197227D01*
X21127089Y-51128620D01*
X21153057Y-51063755D01*
X21209971Y-51023227D01*
X21279761Y-51019902D01*
X21282621Y-51020632D01*
X21416470Y-51056497D01*
X21630000Y-51075179D01*
X21843529Y-51056497D01*
X22050578Y-51001018D01*
X22244837Y-50910434D01*
X22301620Y-50870673D01*
X21696252Y-50265304D01*
X21762969Y-50254738D01*
X21882923Y-50193618D01*
X21978118Y-50098423D01*
X22039238Y-49978469D01*
X22049804Y-49911751D01*
X22655173Y-50517119D01*
X22694934Y-50460337D01*
X22785518Y-50266078D01*
X22840997Y-50059029D01*
X22859679Y-49845500D01*
X22840997Y-49631970D01*
X22785519Y-49424923D01*
X22694932Y-49230659D01*
X22655173Y-49173878D01*
X22049804Y-49779247D01*
X22039238Y-49712531D01*
X21978118Y-49592577D01*
X21882923Y-49497382D01*
X21762969Y-49436262D01*
X21696251Y-49425695D01*
X22301620Y-48820325D01*
X22244837Y-48780566D01*
X22050576Y-48689980D01*
X21843529Y-48634502D01*
X21629999Y-48615820D01*
X21416470Y-48634502D01*
X21209422Y-48689980D01*
X21015161Y-48780566D01*
X20958378Y-48820324D01*
X21563748Y-49425694D01*
X21497031Y-49436262D01*
X21377077Y-49497382D01*
X21281882Y-49592577D01*
X21220762Y-49712531D01*
X21210195Y-49779249D01*
X20604824Y-49173878D01*
X20565066Y-49230661D01*
X20474480Y-49424922D01*
X20419002Y-49631970D01*
X20400320Y-49845499D01*
X20419002Y-50059029D01*
X20474480Y-50266076D01*
X20565066Y-50460337D01*
X20604825Y-50517119D01*
X21210194Y-49911750D01*
X21220762Y-49978469D01*
X21281882Y-50098423D01*
X21377077Y-50193618D01*
X21497031Y-50254738D01*
X21563747Y-50265304D01*
X20958378Y-50870673D01*
X21006529Y-50904389D01*
X21050154Y-50958966D01*
X21057348Y-51028464D01*
X21025825Y-51090819D01*
X20965595Y-51126233D01*
X20895780Y-51123462D01*
X20894853Y-51123145D01*
X20890515Y-51121644D01*
X20880000Y-51120131D01*
X20880000Y-52029389D01*
X20855543Y-51989890D01*
X20766038Y-51922299D01*
X20658160Y-51891605D01*
X20546479Y-51901954D01*
X20446078Y-51951948D01*
X20380000Y-52024430D01*
X20380000Y-51124240D01*
X20268593Y-51151268D01*
X20077494Y-51238539D01*
X19906378Y-51360392D01*
X19761407Y-51512433D01*
X19647833Y-51689155D01*
X19569755Y-51884185D01*
X19530000Y-52090462D01*
X19530000Y-52295500D01*
X20330000Y-52295500D01*
X20330000Y-52795500D01*
X19530000Y-52795500D01*
X19530000Y-52944950D01*
X19530281Y-52950859D01*
X19544964Y-53104620D01*
X19604149Y-53306187D01*
X19700412Y-53492912D01*
X19830269Y-53658038D01*
X19989036Y-53795611D01*
X20093830Y-53856113D01*
X20142045Y-53906680D01*
X20155269Y-53975286D01*
X20129301Y-54040151D01*
X20072387Y-54080680D01*
X20031830Y-54087500D01*
X2120053Y-54087500D01*
X2111943Y-54087234D01*
X2032352Y-54082017D01*
X1854424Y-54069291D01*
X1839082Y-54067225D01*
X1781195Y-54055710D01*
X1726600Y-54044851D01*
X1585746Y-54014210D01*
X1572284Y-54010473D01*
X1572275Y-54010470D01*
X1501362Y-53986398D01*
X1458338Y-53971793D01*
X1454863Y-53970556D01*
X1327196Y-53922938D01*
X1315687Y-53917969D01*
X1250947Y-53886043D01*
X1205348Y-53863556D01*
X1200779Y-53861183D01*
X1083520Y-53797154D01*
X1074056Y-53791424D01*
X970729Y-53722383D01*
X965310Y-53718548D01*
X909396Y-53676691D01*
X859278Y-53639173D01*
X851848Y-53633150D01*
X758022Y-53550867D01*
X752100Y-53545320D01*
X658678Y-53451898D01*
X653131Y-53445976D01*
X621450Y-53409851D01*
X570844Y-53352145D01*
X564830Y-53344727D01*
X485450Y-53238688D01*
X481615Y-53233269D01*
X412574Y-53129942D01*
X406844Y-53120478D01*
X398185Y-53104620D01*
X342798Y-53003187D01*
X340461Y-52998687D01*
X286024Y-52888300D01*
X281060Y-52876802D01*
X233420Y-52749074D01*
X232228Y-52745725D01*
X193522Y-52631703D01*
X189786Y-52618240D01*
X159157Y-52477441D01*
X136767Y-52364879D01*
X134709Y-52349593D01*
X121988Y-52171743D01*
X116765Y-52092041D01*
X116500Y-52083936D01*
X116500Y-48768000D01*
X1332680Y-48768000D01*
X1351948Y-49172494D01*
X1352364Y-49175391D01*
X1352366Y-49175406D01*
X1388242Y-49424923D01*
X1409579Y-49573325D01*
X1410273Y-49576186D01*
X1410275Y-49576196D01*
X1443350Y-49712531D01*
X1505050Y-49966862D01*
X1506015Y-49969652D01*
X1506018Y-49969660D01*
X1610140Y-50270500D01*
X1637497Y-50349543D01*
X1638718Y-50352217D01*
X1638723Y-50352229D01*
X1804494Y-50715215D01*
X1804500Y-50715228D01*
X1805721Y-50717900D01*
X1893924Y-50870673D01*
X2005399Y-51063755D01*
X2008197Y-51068600D01*
X2009908Y-51071003D01*
X2009914Y-51071012D01*
X2215982Y-51360392D01*
X2243093Y-51398464D01*
X2508280Y-51704507D01*
X2801358Y-51983956D01*
X3119672Y-52234281D01*
X3122149Y-52235872D01*
X3122152Y-52235875D01*
X3322944Y-52364916D01*
X3460340Y-52453215D01*
X3820276Y-52638775D01*
X4196221Y-52789281D01*
X4584770Y-52903369D01*
X4982405Y-52980007D01*
X5385524Y-53018500D01*
X5388478Y-53018500D01*
X5787522Y-53018500D01*
X5790476Y-53018500D01*
X6193595Y-52980007D01*
X6591230Y-52903369D01*
X6979779Y-52789281D01*
X7355724Y-52638775D01*
X7715660Y-52453215D01*
X8056328Y-52234281D01*
X8374642Y-51983956D01*
X8667720Y-51704507D01*
X8932907Y-51398464D01*
X9167803Y-51068600D01*
X9370279Y-50717900D01*
X9538503Y-50349543D01*
X9670950Y-49966862D01*
X9766421Y-49573325D01*
X9824052Y-49172494D01*
X9843320Y-48768000D01*
X9824052Y-48363506D01*
X9766421Y-47962675D01*
X9670950Y-47569138D01*
X9538503Y-47186457D01*
X9512035Y-47128500D01*
X9371505Y-46820784D01*
X9371502Y-46820779D01*
X9370279Y-46818100D01*
X9167803Y-46467400D01*
X9131383Y-46416256D01*
X8997326Y-46227999D01*
X19668540Y-46227999D01*
X19688326Y-46416257D01*
X19746820Y-46596284D01*
X19841466Y-46760216D01*
X19968129Y-46900889D01*
X20121269Y-47012151D01*
X20294197Y-47089144D01*
X20479352Y-47128500D01*
X20479354Y-47128500D01*
X20668648Y-47128500D01*
X20792083Y-47102262D01*
X20853803Y-47089144D01*
X21026730Y-47012151D01*
X21179871Y-46900888D01*
X21306533Y-46760216D01*
X21401179Y-46596284D01*
X21459674Y-46416256D01*
X21479460Y-46228000D01*
X21459674Y-46039744D01*
X21401179Y-45859716D01*
X21401179Y-45859715D01*
X21306533Y-45695783D01*
X21179870Y-45555110D01*
X21026730Y-45443848D01*
X20853802Y-45366855D01*
X20668648Y-45327500D01*
X20668646Y-45327500D01*
X20479354Y-45327500D01*
X20479352Y-45327500D01*
X20294197Y-45366855D01*
X20121269Y-45443848D01*
X19968129Y-45555110D01*
X19841466Y-45695783D01*
X19746820Y-45859715D01*
X19688326Y-46039742D01*
X19668540Y-46227999D01*
X8997326Y-46227999D01*
X8934619Y-46139940D01*
X8934617Y-46139938D01*
X8932907Y-46137536D01*
X8667720Y-45831493D01*
X8374642Y-45552044D01*
X8056328Y-45301719D01*
X8053855Y-45300129D01*
X8053847Y-45300124D01*
X7718141Y-45084379D01*
X7718134Y-45084375D01*
X7715660Y-45082785D01*
X7713052Y-45081440D01*
X7713046Y-45081437D01*
X7358348Y-44898578D01*
X7355724Y-44897225D01*
X6979779Y-44746719D01*
X6938767Y-44734676D01*
X6594066Y-44633463D01*
X6594051Y-44633459D01*
X6591230Y-44632631D01*
X6588332Y-44632072D01*
X6588326Y-44632071D01*
X6196496Y-44556552D01*
X6196493Y-44556551D01*
X6193595Y-44555993D01*
X6190675Y-44555714D01*
X6190660Y-44555712D01*
X5793411Y-44517780D01*
X5793405Y-44517779D01*
X5790476Y-44517500D01*
X5385524Y-44517500D01*
X5382595Y-44517779D01*
X5382588Y-44517780D01*
X4985339Y-44555712D01*
X4985321Y-44555714D01*
X4982405Y-44555993D01*
X4979509Y-44556551D01*
X4979503Y-44556552D01*
X4587673Y-44632071D01*
X4587663Y-44632073D01*
X4584770Y-44632631D01*
X4581952Y-44633458D01*
X4581933Y-44633463D01*
X4199047Y-44745889D01*
X4199042Y-44745890D01*
X4196221Y-44746719D01*
X4193496Y-44747809D01*
X4193490Y-44747812D01*
X3823018Y-44896127D01*
X3823013Y-44896129D01*
X3820276Y-44897225D01*
X3817655Y-44898575D01*
X3817651Y-44898578D01*
X3462953Y-45081437D01*
X3462938Y-45081445D01*
X3460340Y-45082785D01*
X3457874Y-45084369D01*
X3457858Y-45084379D01*
X3122152Y-45300124D01*
X3122134Y-45300136D01*
X3119672Y-45301719D01*
X3117374Y-45303526D01*
X3117363Y-45303534D01*
X2803670Y-45550225D01*
X2803659Y-45550233D01*
X2801358Y-45552044D01*
X2799235Y-45554067D01*
X2799226Y-45554076D01*
X2510404Y-45829467D01*
X2510395Y-45829475D01*
X2508280Y-45831493D01*
X2506359Y-45833709D01*
X2506358Y-45833711D01*
X2245022Y-46135309D01*
X2245015Y-46135317D01*
X2243093Y-46137536D01*
X2241391Y-46139925D01*
X2241380Y-46139940D01*
X2009914Y-46464987D01*
X2009902Y-46465005D01*
X2008197Y-46467400D01*
X2006725Y-46469949D01*
X2006717Y-46469962D01*
X1839140Y-46760216D01*
X1805721Y-46818100D01*
X1804504Y-46820762D01*
X1804494Y-46820784D01*
X1638723Y-47183770D01*
X1638715Y-47183789D01*
X1637497Y-47186457D01*
X1636535Y-47189236D01*
X1636530Y-47189249D01*
X1506018Y-47566339D01*
X1506013Y-47566353D01*
X1505050Y-47569138D01*
X1504354Y-47572004D01*
X1504353Y-47572010D01*
X1410275Y-47959803D01*
X1410272Y-47959817D01*
X1409579Y-47962675D01*
X1409159Y-47965594D01*
X1409158Y-47965601D01*
X1352366Y-48360593D01*
X1352364Y-48360610D01*
X1351948Y-48363506D01*
X1332680Y-48768000D01*
X116500Y-48768000D01*
X116500Y-42291000D01*
X23867840Y-42291000D01*
X23877732Y-42385128D01*
X23887626Y-42479257D01*
X23946120Y-42659284D01*
X24040766Y-42823216D01*
X24167429Y-42963889D01*
X24320569Y-43075151D01*
X24493497Y-43152144D01*
X24678652Y-43191500D01*
X24678654Y-43191500D01*
X24867948Y-43191500D01*
X24991384Y-43165262D01*
X25053103Y-43152144D01*
X25226030Y-43075151D01*
X25379171Y-42963888D01*
X25505833Y-42823216D01*
X25600479Y-42659284D01*
X25658974Y-42479256D01*
X25678760Y-42291000D01*
X25658974Y-42102744D01*
X25616980Y-41973500D01*
X25616980Y-41973499D01*
X27733040Y-41973499D01*
X27752826Y-42161757D01*
X27811320Y-42341784D01*
X27905966Y-42505716D01*
X28032629Y-42646389D01*
X28185769Y-42757651D01*
X28358697Y-42834644D01*
X28543852Y-42874000D01*
X28543854Y-42874000D01*
X28733148Y-42874000D01*
X28856584Y-42847762D01*
X28918303Y-42834644D01*
X29091230Y-42757651D01*
X29244371Y-42646388D01*
X29371033Y-42505716D01*
X29465679Y-42341784D01*
X29524174Y-42161756D01*
X29543960Y-41973500D01*
X29524174Y-41785244D01*
X29493832Y-41691863D01*
X29465679Y-41605215D01*
X29371033Y-41441283D01*
X29244370Y-41300610D01*
X29091230Y-41189348D01*
X28918302Y-41112355D01*
X28733148Y-41073000D01*
X28733146Y-41073000D01*
X28543854Y-41073000D01*
X28543852Y-41073000D01*
X28358697Y-41112355D01*
X28185769Y-41189348D01*
X28032629Y-41300610D01*
X27905966Y-41441283D01*
X27811320Y-41605215D01*
X27752826Y-41785242D01*
X27733040Y-41973499D01*
X25616980Y-41973499D01*
X25600479Y-41922715D01*
X25505833Y-41758783D01*
X25379170Y-41618110D01*
X25226030Y-41506848D01*
X25053102Y-41429855D01*
X24867948Y-41390500D01*
X24867946Y-41390500D01*
X24678654Y-41390500D01*
X24678652Y-41390500D01*
X24493497Y-41429855D01*
X24320569Y-41506848D01*
X24167429Y-41618110D01*
X24040766Y-41758783D01*
X23946120Y-41922715D01*
X23887626Y-42102742D01*
X23867840Y-42290999D01*
X23867840Y-42291000D01*
X116500Y-42291000D01*
X116500Y-38608000D01*
X16620540Y-38608000D01*
X16640326Y-38796257D01*
X16698820Y-38976284D01*
X16793466Y-39140216D01*
X16920129Y-39280889D01*
X17073269Y-39392151D01*
X17246197Y-39469144D01*
X17322594Y-39485383D01*
X17384076Y-39518575D01*
X17417853Y-39579738D01*
X17413201Y-39649452D01*
X17371597Y-39705585D01*
X17347251Y-39719952D01*
X17327268Y-39728849D01*
X17174129Y-39840110D01*
X17047466Y-39980783D01*
X16952820Y-40144715D01*
X16894326Y-40324742D01*
X16874540Y-40512999D01*
X16894326Y-40701257D01*
X16952820Y-40881284D01*
X17047466Y-41045216D01*
X17174129Y-41185889D01*
X17327269Y-41297151D01*
X17500197Y-41374144D01*
X17685352Y-41413500D01*
X17685354Y-41413500D01*
X17874648Y-41413500D01*
X17998083Y-41387262D01*
X18059803Y-41374144D01*
X18232730Y-41297151D01*
X18293470Y-41253021D01*
X18385870Y-41185889D01*
X18403534Y-41166271D01*
X19112991Y-41166271D01*
X19143273Y-41338010D01*
X19212347Y-41498139D01*
X19316483Y-41638020D01*
X19316484Y-41638021D01*
X19316485Y-41638022D01*
X19450075Y-41750117D01*
X19605916Y-41828383D01*
X19775605Y-41868600D01*
X19775607Y-41868600D01*
X19902656Y-41868600D01*
X19906255Y-41868600D01*
X20036011Y-41853434D01*
X20199884Y-41793789D01*
X20345584Y-41697960D01*
X20465258Y-41571113D01*
X20552453Y-41420087D01*
X20602468Y-41253023D01*
X20612608Y-41078929D01*
X20582326Y-40907188D01*
X20513253Y-40747061D01*
X20409115Y-40607178D01*
X20275525Y-40495083D01*
X20119684Y-40416817D01*
X19949995Y-40376600D01*
X19819345Y-40376600D01*
X19815778Y-40377016D01*
X19815776Y-40377017D01*
X19689586Y-40391766D01*
X19525716Y-40451410D01*
X19380015Y-40547240D01*
X19260342Y-40674086D01*
X19173147Y-40825112D01*
X19123132Y-40992178D01*
X19112991Y-41166271D01*
X18403534Y-41166271D01*
X18512533Y-41045216D01*
X18607179Y-40881284D01*
X18625430Y-40825113D01*
X18665674Y-40701256D01*
X18685460Y-40513000D01*
X18665674Y-40324744D01*
X18635332Y-40231363D01*
X18607179Y-40144715D01*
X18512533Y-39980783D01*
X18385870Y-39840110D01*
X18232730Y-39728848D01*
X18059802Y-39651855D01*
X17983404Y-39635616D01*
X17921922Y-39602423D01*
X17888146Y-39541260D01*
X17892798Y-39471546D01*
X17934403Y-39415414D01*
X17958749Y-39401046D01*
X17978730Y-39392151D01*
X17978730Y-39392150D01*
X17978732Y-39392150D01*
X18131870Y-39280889D01*
X18258533Y-39140216D01*
X18353179Y-38976284D01*
X18394444Y-38849284D01*
X18411674Y-38796256D01*
X18431460Y-38608000D01*
X18411674Y-38419744D01*
X18398565Y-38379399D01*
X21700540Y-38379399D01*
X21720326Y-38567657D01*
X21778820Y-38747684D01*
X21873466Y-38911616D01*
X22000129Y-39052289D01*
X22153269Y-39163551D01*
X22326197Y-39240544D01*
X22511352Y-39279900D01*
X22511354Y-39279900D01*
X22700648Y-39279900D01*
X22824083Y-39253662D01*
X22885803Y-39240544D01*
X23058730Y-39163551D01*
X23211871Y-39052288D01*
X23268856Y-38989000D01*
X24621540Y-38989000D01*
X24641326Y-39177257D01*
X24699820Y-39357284D01*
X24794466Y-39521216D01*
X24921129Y-39661889D01*
X25074269Y-39773151D01*
X25247197Y-39850144D01*
X25432352Y-39889500D01*
X25432354Y-39889500D01*
X25621648Y-39889500D01*
X25745084Y-39863262D01*
X25806803Y-39850144D01*
X25979730Y-39773151D01*
X26040708Y-39728848D01*
X26132870Y-39661889D01*
X26259533Y-39521216D01*
X26289597Y-39469144D01*
X26354179Y-39357284D01*
X26356151Y-39351212D01*
X26395585Y-39293538D01*
X26459942Y-39266337D01*
X26528789Y-39278248D01*
X26580267Y-39325490D01*
X26597404Y-39376566D01*
X26609826Y-39494757D01*
X26668320Y-39674784D01*
X26762966Y-39838716D01*
X26889629Y-39979389D01*
X27042769Y-40090651D01*
X27215697Y-40167644D01*
X27400852Y-40207000D01*
X27400854Y-40207000D01*
X27590148Y-40207000D01*
X27713584Y-40180762D01*
X27775303Y-40167644D01*
X27948230Y-40090651D01*
X28101371Y-39979388D01*
X28228033Y-39838716D01*
X28322679Y-39674784D01*
X28381174Y-39494756D01*
X28400960Y-39306500D01*
X28381174Y-39118244D01*
X28322679Y-38938216D01*
X28322679Y-38938215D01*
X28228033Y-38774283D01*
X28101370Y-38633610D01*
X27948230Y-38522348D01*
X27775302Y-38445355D01*
X27590148Y-38406000D01*
X27590146Y-38406000D01*
X27400854Y-38406000D01*
X27400852Y-38406000D01*
X27215697Y-38445355D01*
X27042769Y-38522348D01*
X26889629Y-38633610D01*
X26762966Y-38774283D01*
X26668319Y-38938218D01*
X26666346Y-38944291D01*
X26626908Y-39001966D01*
X26562549Y-39029163D01*
X26493702Y-39017247D01*
X26442228Y-38970002D01*
X26425096Y-38918935D01*
X26412674Y-38800744D01*
X26354179Y-38620716D01*
X26354179Y-38620715D01*
X26259533Y-38456783D01*
X26132870Y-38316110D01*
X25979730Y-38204848D01*
X25806802Y-38127855D01*
X25621648Y-38088500D01*
X25621646Y-38088500D01*
X25432354Y-38088500D01*
X25432352Y-38088500D01*
X25247197Y-38127855D01*
X25074269Y-38204848D01*
X24921129Y-38316110D01*
X24794466Y-38456783D01*
X24699820Y-38620715D01*
X24641326Y-38800742D01*
X24621540Y-38989000D01*
X23268856Y-38989000D01*
X23338533Y-38911616D01*
X23433179Y-38747684D01*
X23491674Y-38567656D01*
X23511460Y-38379400D01*
X23491674Y-38191144D01*
X23444045Y-38044557D01*
X34520662Y-38044557D01*
X34527826Y-38112715D01*
X34540448Y-38232814D01*
X34598942Y-38412841D01*
X34693588Y-38576773D01*
X34820251Y-38717446D01*
X34973391Y-38828708D01*
X35146319Y-38905701D01*
X35331474Y-38945057D01*
X35331476Y-38945057D01*
X35520770Y-38945057D01*
X35644206Y-38918819D01*
X35705925Y-38905701D01*
X35878852Y-38828708D01*
X35953762Y-38774283D01*
X36031992Y-38717446D01*
X36158655Y-38576773D01*
X36213950Y-38480999D01*
X39480540Y-38480999D01*
X39500326Y-38669257D01*
X39558820Y-38849284D01*
X39653466Y-39013216D01*
X39780129Y-39153889D01*
X39933269Y-39265151D01*
X40106197Y-39342144D01*
X40291352Y-39381500D01*
X40291354Y-39381500D01*
X40480648Y-39381500D01*
X40623127Y-39351215D01*
X40665803Y-39342144D01*
X40838730Y-39265151D01*
X40991871Y-39153888D01*
X41118533Y-39013216D01*
X41213179Y-38849284D01*
X41271674Y-38669256D01*
X41291460Y-38481000D01*
X41271674Y-38292744D01*
X41238661Y-38191142D01*
X41213179Y-38112715D01*
X41118533Y-37948783D01*
X40991870Y-37808110D01*
X40838730Y-37696848D01*
X40665802Y-37619855D01*
X40480648Y-37580500D01*
X40480646Y-37580500D01*
X40291354Y-37580500D01*
X40291352Y-37580500D01*
X40106197Y-37619855D01*
X39933269Y-37696848D01*
X39780129Y-37808110D01*
X39653466Y-37948783D01*
X39558820Y-38112715D01*
X39500326Y-38292742D01*
X39480540Y-38480999D01*
X36213950Y-38480999D01*
X36253301Y-38412841D01*
X36292323Y-38292744D01*
X36311796Y-38232813D01*
X36331582Y-38044557D01*
X36311796Y-37856301D01*
X36281454Y-37762920D01*
X36253301Y-37676272D01*
X36158655Y-37512340D01*
X36031992Y-37371667D01*
X35878852Y-37260405D01*
X35705924Y-37183412D01*
X35520770Y-37144057D01*
X35520768Y-37144057D01*
X35331476Y-37144057D01*
X35331474Y-37144057D01*
X35146319Y-37183412D01*
X34973391Y-37260405D01*
X34820251Y-37371667D01*
X34693588Y-37512340D01*
X34598942Y-37676272D01*
X34540448Y-37856299D01*
X34524177Y-38011115D01*
X34520662Y-38044557D01*
X23444045Y-38044557D01*
X23433179Y-38011115D01*
X23338533Y-37847183D01*
X23211870Y-37706510D01*
X23058730Y-37595248D01*
X22885802Y-37518255D01*
X22700648Y-37478900D01*
X22700646Y-37478900D01*
X22511354Y-37478900D01*
X22511352Y-37478900D01*
X22326197Y-37518255D01*
X22153269Y-37595248D01*
X22000129Y-37706510D01*
X21873466Y-37847183D01*
X21778820Y-38011115D01*
X21720326Y-38191142D01*
X21700540Y-38379399D01*
X18398565Y-38379399D01*
X18353179Y-38239716D01*
X18353179Y-38239715D01*
X18258535Y-38075787D01*
X18258534Y-38075786D01*
X18258533Y-38075784D01*
X18240694Y-38055972D01*
X18210465Y-37992982D01*
X18219089Y-37923647D01*
X18240694Y-37890028D01*
X18258533Y-37870216D01*
X18353179Y-37706284D01*
X18411674Y-37526256D01*
X18431460Y-37338000D01*
X18411674Y-37149744D01*
X18353179Y-36969716D01*
X18353179Y-36969715D01*
X18283221Y-36848544D01*
X18266748Y-36780644D01*
X18289601Y-36714617D01*
X18344522Y-36671426D01*
X18414075Y-36664785D01*
X18446254Y-36675731D01*
X18590916Y-36748383D01*
X18760605Y-36788600D01*
X18760607Y-36788600D01*
X18887656Y-36788600D01*
X18891255Y-36788600D01*
X19021011Y-36773434D01*
X19184884Y-36713789D01*
X19330584Y-36617960D01*
X19450258Y-36491113D01*
X19537453Y-36340087D01*
X19587468Y-36173023D01*
X19592521Y-36086271D01*
X20127991Y-36086271D01*
X20158273Y-36258010D01*
X20227347Y-36418139D01*
X20331483Y-36558020D01*
X20331484Y-36558021D01*
X20331485Y-36558022D01*
X20465075Y-36670117D01*
X20620916Y-36748383D01*
X20790605Y-36788600D01*
X20790607Y-36788600D01*
X20917656Y-36788600D01*
X20921255Y-36788600D01*
X21051011Y-36773434D01*
X21214884Y-36713789D01*
X21360584Y-36617960D01*
X21480258Y-36491113D01*
X21567453Y-36340087D01*
X21572868Y-36322000D01*
X54534722Y-36322000D01*
X54553792Y-36539974D01*
X54610425Y-36751331D01*
X54620732Y-36773434D01*
X54702898Y-36949639D01*
X54828402Y-37128877D01*
X54983123Y-37283598D01*
X55162361Y-37409102D01*
X55360670Y-37501575D01*
X55572023Y-37558207D01*
X55717340Y-37570920D01*
X55789999Y-37577277D01*
X55789999Y-37577276D01*
X55790000Y-37577277D01*
X56007977Y-37558207D01*
X56219330Y-37501575D01*
X56417639Y-37409102D01*
X56596877Y-37283598D01*
X56751598Y-37128877D01*
X56877102Y-36949639D01*
X56969575Y-36751330D01*
X57026207Y-36539977D01*
X57045277Y-36322000D01*
X62034722Y-36322000D01*
X62053792Y-36539974D01*
X62110425Y-36751331D01*
X62120732Y-36773434D01*
X62202898Y-36949639D01*
X62328402Y-37128877D01*
X62483123Y-37283598D01*
X62662361Y-37409102D01*
X62860670Y-37501575D01*
X63072023Y-37558207D01*
X63217340Y-37570920D01*
X63289999Y-37577277D01*
X63289999Y-37577276D01*
X63290000Y-37577277D01*
X63507977Y-37558207D01*
X63719330Y-37501575D01*
X63917639Y-37409102D01*
X64096877Y-37283598D01*
X64251598Y-37128877D01*
X64377102Y-36949639D01*
X64469575Y-36751330D01*
X64526207Y-36539977D01*
X64545277Y-36322000D01*
X64526207Y-36104023D01*
X64469575Y-35892670D01*
X64377102Y-35694362D01*
X64251598Y-35515123D01*
X64096877Y-35360402D01*
X63917639Y-35234898D01*
X63802578Y-35181244D01*
X63719331Y-35142425D01*
X63507974Y-35085792D01*
X63289999Y-35066722D01*
X63072025Y-35085792D01*
X62860668Y-35142425D01*
X62662361Y-35234898D01*
X62483122Y-35360402D01*
X62328402Y-35515122D01*
X62202898Y-35694361D01*
X62110425Y-35892668D01*
X62053792Y-36104025D01*
X62034722Y-36322000D01*
X57045277Y-36322000D01*
X57026207Y-36104023D01*
X56969575Y-35892670D01*
X56877102Y-35694362D01*
X56751598Y-35515123D01*
X56596877Y-35360402D01*
X56417639Y-35234898D01*
X56302578Y-35181244D01*
X56219331Y-35142425D01*
X56007974Y-35085792D01*
X55789999Y-35066722D01*
X55572025Y-35085792D01*
X55360668Y-35142425D01*
X55162361Y-35234898D01*
X54983122Y-35360402D01*
X54828402Y-35515122D01*
X54702898Y-35694361D01*
X54610425Y-35892668D01*
X54553792Y-36104025D01*
X54534722Y-36322000D01*
X21572868Y-36322000D01*
X21617468Y-36173023D01*
X21627608Y-35998929D01*
X21597326Y-35827188D01*
X21528253Y-35667061D01*
X21424115Y-35527178D01*
X21290525Y-35415083D01*
X21199761Y-35369500D01*
X25447040Y-35369500D01*
X25451831Y-35415083D01*
X25466826Y-35557757D01*
X25525320Y-35737784D01*
X25619966Y-35901716D01*
X25746629Y-36042389D01*
X25899769Y-36153651D01*
X26072697Y-36230644D01*
X26257852Y-36270000D01*
X26257854Y-36270000D01*
X26447148Y-36270000D01*
X26570584Y-36243762D01*
X26632303Y-36230644D01*
X26805230Y-36153651D01*
X26873535Y-36104025D01*
X26958370Y-36042389D01*
X27085033Y-35901716D01*
X27179679Y-35737784D01*
X27202658Y-35667061D01*
X27238174Y-35557756D01*
X27257960Y-35369500D01*
X27238174Y-35181244D01*
X27179679Y-35001216D01*
X27179679Y-35001215D01*
X27085033Y-34837283D01*
X26958370Y-34696610D01*
X26805230Y-34585348D01*
X26632302Y-34508355D01*
X26447148Y-34469000D01*
X26447146Y-34469000D01*
X26257854Y-34469000D01*
X26257852Y-34469000D01*
X26072697Y-34508355D01*
X25899769Y-34585348D01*
X25746629Y-34696610D01*
X25619966Y-34837283D01*
X25525320Y-35001215D01*
X25466826Y-35181242D01*
X25466825Y-35181244D01*
X25466826Y-35181244D01*
X25447040Y-35369500D01*
X21199761Y-35369500D01*
X21134684Y-35336817D01*
X20964995Y-35296600D01*
X20834345Y-35296600D01*
X20830778Y-35297016D01*
X20830776Y-35297017D01*
X20704586Y-35311766D01*
X20540716Y-35371410D01*
X20395015Y-35467240D01*
X20275342Y-35594086D01*
X20188147Y-35745112D01*
X20138132Y-35912178D01*
X20127991Y-36086271D01*
X19592521Y-36086271D01*
X19597608Y-35998929D01*
X19567326Y-35827188D01*
X19498253Y-35667061D01*
X19394115Y-35527178D01*
X19260525Y-35415083D01*
X19104684Y-35336817D01*
X18934995Y-35296600D01*
X18804345Y-35296600D01*
X18800778Y-35297016D01*
X18800776Y-35297017D01*
X18674586Y-35311766D01*
X18510716Y-35371410D01*
X18365015Y-35467240D01*
X18245342Y-35594086D01*
X18158147Y-35745112D01*
X18108132Y-35912178D01*
X18097991Y-36086271D01*
X18128273Y-36258010D01*
X18203088Y-36431447D01*
X18198841Y-36433278D01*
X18213423Y-36472772D01*
X18198345Y-36540995D01*
X18148776Y-36590237D01*
X18080454Y-36604862D01*
X18016824Y-36581526D01*
X17978727Y-36553846D01*
X17805802Y-36476855D01*
X17620648Y-36437500D01*
X17620646Y-36437500D01*
X17431354Y-36437500D01*
X17431352Y-36437500D01*
X17246197Y-36476855D01*
X17073269Y-36553848D01*
X16920129Y-36665110D01*
X16793466Y-36805783D01*
X16698820Y-36969715D01*
X16640326Y-37149742D01*
X16620540Y-37338000D01*
X16640326Y-37526257D01*
X16698820Y-37706284D01*
X16793466Y-37870216D01*
X16811305Y-37890028D01*
X16841535Y-37953020D01*
X16832909Y-38022355D01*
X16811305Y-38055972D01*
X16793466Y-38075783D01*
X16698820Y-38239715D01*
X16640326Y-38419742D01*
X16620540Y-38608000D01*
X116500Y-38608000D01*
X116500Y-34671000D01*
X745540Y-34671000D01*
X765326Y-34859257D01*
X823820Y-35039284D01*
X918466Y-35203216D01*
X1045129Y-35343889D01*
X1198269Y-35455151D01*
X1371197Y-35532144D01*
X1556352Y-35571500D01*
X1556354Y-35571500D01*
X1745648Y-35571500D01*
X1869084Y-35545262D01*
X1930803Y-35532144D01*
X2103730Y-35455151D01*
X2158879Y-35415083D01*
X2213115Y-35375679D01*
X2278921Y-35352199D01*
X2346975Y-35368024D01*
X2358885Y-35375679D01*
X2468269Y-35455151D01*
X2641197Y-35532144D01*
X2826352Y-35571500D01*
X2826354Y-35571500D01*
X3015648Y-35571500D01*
X3139083Y-35545262D01*
X3200803Y-35532144D01*
X3373730Y-35455151D01*
X3428879Y-35415083D01*
X3483115Y-35375679D01*
X3548921Y-35352199D01*
X3616975Y-35368024D01*
X3628885Y-35375679D01*
X3738269Y-35455151D01*
X3911197Y-35532144D01*
X4096352Y-35571500D01*
X4096354Y-35571500D01*
X4285648Y-35571500D01*
X4409084Y-35545262D01*
X4470803Y-35532144D01*
X4643730Y-35455151D01*
X4698879Y-35415083D01*
X4796870Y-35343889D01*
X4923533Y-35203216D01*
X5018179Y-35039284D01*
X5030548Y-35001215D01*
X5076674Y-34859256D01*
X5096460Y-34671000D01*
X5076674Y-34482744D01*
X5018179Y-34302716D01*
X5018179Y-34302715D01*
X4923533Y-34138783D01*
X4796870Y-33998110D01*
X4643730Y-33886848D01*
X4470802Y-33809855D01*
X4285648Y-33770500D01*
X4285646Y-33770500D01*
X4096354Y-33770500D01*
X4096352Y-33770500D01*
X3911197Y-33809855D01*
X3738269Y-33886848D01*
X3628885Y-33966321D01*
X3563079Y-33989801D01*
X3495025Y-33973976D01*
X3483115Y-33966321D01*
X3373730Y-33886848D01*
X3200802Y-33809855D01*
X3015648Y-33770500D01*
X3015646Y-33770500D01*
X2826354Y-33770500D01*
X2826352Y-33770500D01*
X2641197Y-33809855D01*
X2468269Y-33886848D01*
X2358885Y-33966321D01*
X2293079Y-33989801D01*
X2225025Y-33973976D01*
X2213115Y-33966321D01*
X2103730Y-33886848D01*
X1930802Y-33809855D01*
X1745648Y-33770500D01*
X1745646Y-33770500D01*
X1556354Y-33770500D01*
X1556352Y-33770500D01*
X1371197Y-33809855D01*
X1198269Y-33886848D01*
X1045129Y-33998110D01*
X918466Y-34138783D01*
X823820Y-34302715D01*
X765326Y-34482742D01*
X745540Y-34671000D01*
X116500Y-34671000D01*
X116500Y-32867600D01*
X32927340Y-32867600D01*
X32947126Y-33055857D01*
X33005620Y-33235884D01*
X33100266Y-33399816D01*
X33226929Y-33540489D01*
X33380069Y-33651751D01*
X33552997Y-33728744D01*
X33738152Y-33768100D01*
X33738154Y-33768100D01*
X33927448Y-33768100D01*
X34050884Y-33741862D01*
X34112603Y-33728744D01*
X34285530Y-33651751D01*
X34438671Y-33540488D01*
X34565333Y-33399816D01*
X34659979Y-33235884D01*
X34718474Y-33055856D01*
X34738260Y-32867600D01*
X34718474Y-32679344D01*
X34659979Y-32499316D01*
X34659979Y-32499315D01*
X34565333Y-32335383D01*
X34438670Y-32194710D01*
X34285530Y-32083448D01*
X34112602Y-32006455D01*
X33927448Y-31967100D01*
X33927446Y-31967100D01*
X33738154Y-31967100D01*
X33738152Y-31967100D01*
X33552997Y-32006455D01*
X33380069Y-32083448D01*
X33226929Y-32194710D01*
X33100266Y-32335383D01*
X33005620Y-32499315D01*
X32947126Y-32679342D01*
X32927340Y-32867600D01*
X116500Y-32867600D01*
X116500Y-29637999D01*
X3853340Y-29637999D01*
X3873936Y-29873407D01*
X3935097Y-30101662D01*
X3935097Y-30101663D01*
X4034965Y-30315829D01*
X4170505Y-30509401D01*
X4337599Y-30676495D01*
X4531171Y-30812035D01*
X4745337Y-30911903D01*
X4973592Y-30973063D01*
X5150034Y-30988500D01*
X5152742Y-30988500D01*
X5515258Y-30988500D01*
X5517966Y-30988500D01*
X5694408Y-30973063D01*
X5922663Y-30911903D01*
X6136829Y-30812035D01*
X6330401Y-30676495D01*
X6497495Y-30509401D01*
X6633035Y-30315830D01*
X6732903Y-30101663D01*
X6794063Y-29873408D01*
X6814659Y-29638000D01*
X6794063Y-29402592D01*
X6732903Y-29174337D01*
X6633035Y-28960171D01*
X6497495Y-28766599D01*
X6330401Y-28599505D01*
X6173403Y-28489574D01*
X6129779Y-28434998D01*
X6122585Y-28365500D01*
X6154108Y-28303145D01*
X6173404Y-28286425D01*
X6305403Y-28193999D01*
X37702540Y-28193999D01*
X37722326Y-28382257D01*
X37780820Y-28562284D01*
X37875464Y-28726213D01*
X37875467Y-28726216D01*
X37922414Y-28778356D01*
X37952644Y-28841347D01*
X37944019Y-28910682D01*
X37922415Y-28944299D01*
X37894066Y-28975783D01*
X37799420Y-29139715D01*
X37740926Y-29319742D01*
X37721140Y-29508000D01*
X37740926Y-29696257D01*
X37799420Y-29876284D01*
X37894066Y-30040216D01*
X38020729Y-30180889D01*
X38173869Y-30292151D01*
X38346797Y-30369144D01*
X38531952Y-30408500D01*
X38531954Y-30408500D01*
X38721248Y-30408500D01*
X38844684Y-30382262D01*
X38906403Y-30369144D01*
X39079330Y-30292151D01*
X39232471Y-30180888D01*
X39359133Y-30040216D01*
X39453779Y-29876284D01*
X39512274Y-29696256D01*
X39532060Y-29508000D01*
X39512274Y-29319744D01*
X39453779Y-29139716D01*
X39453779Y-29139715D01*
X39359133Y-28975783D01*
X39312186Y-28923644D01*
X39281955Y-28860652D01*
X39290580Y-28791317D01*
X39312183Y-28757701D01*
X39340533Y-28726216D01*
X39435179Y-28562284D01*
X39493674Y-28382256D01*
X39513460Y-28194000D01*
X39493674Y-28005744D01*
X39435179Y-27825716D01*
X39435179Y-27825715D01*
X39340533Y-27661783D01*
X39213870Y-27521110D01*
X39060730Y-27409848D01*
X38887802Y-27332855D01*
X38702648Y-27293500D01*
X38702646Y-27293500D01*
X38513354Y-27293500D01*
X38513352Y-27293500D01*
X38328197Y-27332855D01*
X38155269Y-27409848D01*
X38002129Y-27521110D01*
X37875466Y-27661783D01*
X37780820Y-27825715D01*
X37722326Y-28005742D01*
X37702540Y-28193999D01*
X6305403Y-28193999D01*
X6330401Y-28176495D01*
X6497495Y-28009401D01*
X6633035Y-27815830D01*
X6732903Y-27601663D01*
X6794063Y-27373408D01*
X6814659Y-27138000D01*
X6794063Y-26902592D01*
X6732903Y-26674337D01*
X6644053Y-26483799D01*
X34722340Y-26483799D01*
X34742126Y-26672057D01*
X34800620Y-26852084D01*
X34895266Y-27016016D01*
X35021929Y-27156689D01*
X35175069Y-27267951D01*
X35347997Y-27344944D01*
X35533152Y-27384300D01*
X35533154Y-27384300D01*
X35722448Y-27384300D01*
X35845884Y-27358062D01*
X35907603Y-27344944D01*
X36080530Y-27267951D01*
X36233671Y-27156688D01*
X36360333Y-27016016D01*
X36454979Y-26852084D01*
X36513474Y-26672056D01*
X36533260Y-26483800D01*
X36513474Y-26295544D01*
X36483132Y-26202163D01*
X36454979Y-26115515D01*
X36360333Y-25951583D01*
X36233670Y-25810910D01*
X36080530Y-25699648D01*
X35907602Y-25622655D01*
X35722448Y-25583300D01*
X35722446Y-25583300D01*
X35533154Y-25583300D01*
X35533152Y-25583300D01*
X35347997Y-25622655D01*
X35175069Y-25699648D01*
X35021929Y-25810910D01*
X34895266Y-25951583D01*
X34800620Y-26115515D01*
X34742126Y-26295542D01*
X34722340Y-26483799D01*
X6644053Y-26483799D01*
X6633035Y-26460171D01*
X6497495Y-26266599D01*
X6349931Y-26119035D01*
X6316446Y-26057712D01*
X6321430Y-25988020D01*
X6363302Y-25932087D01*
X6372516Y-25925815D01*
X6527345Y-25830316D01*
X6651316Y-25706345D01*
X6743357Y-25557122D01*
X6798506Y-25390696D01*
X6808680Y-25291109D01*
X6809000Y-25284831D01*
X6809000Y-24888000D01*
X5737969Y-24888000D01*
X5770519Y-24837351D01*
X5809000Y-24706295D01*
X5809000Y-24569705D01*
X5770519Y-24438649D01*
X5760380Y-24422872D01*
X24322644Y-24422872D01*
X24342430Y-24611130D01*
X24400924Y-24791157D01*
X24495570Y-24955089D01*
X24622233Y-25095762D01*
X24775373Y-25207024D01*
X24948301Y-25284017D01*
X25133456Y-25323373D01*
X25133458Y-25323373D01*
X25322752Y-25323373D01*
X25474541Y-25291109D01*
X25507907Y-25284017D01*
X25680834Y-25207024D01*
X25806516Y-25115711D01*
X25833974Y-25095762D01*
X25960637Y-24955089D01*
X26055283Y-24791157D01*
X26055283Y-24791156D01*
X26113778Y-24611129D01*
X26133564Y-24422873D01*
X26113778Y-24234617D01*
X26055283Y-24054589D01*
X26055283Y-24054588D01*
X25960637Y-23890656D01*
X25833974Y-23749983D01*
X25680834Y-23638721D01*
X25507906Y-23561728D01*
X25322752Y-23522373D01*
X25322750Y-23522373D01*
X25133458Y-23522373D01*
X25133456Y-23522373D01*
X24948301Y-23561728D01*
X24775373Y-23638721D01*
X24622233Y-23749983D01*
X24495570Y-23890656D01*
X24400924Y-24054588D01*
X24342430Y-24234615D01*
X24322644Y-24422872D01*
X5760380Y-24422872D01*
X5737969Y-24388000D01*
X6808999Y-24388000D01*
X6808999Y-23991170D01*
X6808678Y-23984888D01*
X6798506Y-23885304D01*
X6743357Y-23718877D01*
X6651316Y-23569654D01*
X6527345Y-23445683D01*
X6378122Y-23353642D01*
X6211696Y-23298493D01*
X6112109Y-23288319D01*
X6105832Y-23288000D01*
X5584000Y-23288000D01*
X5584000Y-24229981D01*
X5469199Y-24177554D01*
X5367975Y-24163000D01*
X5300025Y-24163000D01*
X5198801Y-24177554D01*
X5084000Y-24229981D01*
X5084000Y-23288000D01*
X4562171Y-23288000D01*
X4555888Y-23288321D01*
X4456304Y-23298493D01*
X4289877Y-23353642D01*
X4140654Y-23445683D01*
X4016683Y-23569654D01*
X3924642Y-23718877D01*
X3869493Y-23885303D01*
X3859319Y-23984890D01*
X3859000Y-23991168D01*
X3859000Y-24388000D01*
X4930031Y-24388000D01*
X4897481Y-24438649D01*
X4859000Y-24569705D01*
X4859000Y-24706295D01*
X4897481Y-24837351D01*
X4930031Y-24888000D01*
X3859001Y-24888000D01*
X3859001Y-25284829D01*
X3859321Y-25291111D01*
X3869493Y-25390695D01*
X3924642Y-25557122D01*
X4016683Y-25706345D01*
X4140653Y-25830315D01*
X4295484Y-25925815D01*
X4342208Y-25977763D01*
X4353431Y-26046725D01*
X4325587Y-26110808D01*
X4318069Y-26119034D01*
X4170505Y-26266599D01*
X4150238Y-26295544D01*
X4034964Y-26460172D01*
X3935097Y-26674337D01*
X3873936Y-26902592D01*
X3853340Y-27138000D01*
X3873936Y-27373407D01*
X3935097Y-27601662D01*
X3935097Y-27601663D01*
X4034965Y-27815829D01*
X4170505Y-28009401D01*
X4337599Y-28176495D01*
X4362599Y-28194000D01*
X4494596Y-28286425D01*
X4538221Y-28341002D01*
X4545415Y-28410500D01*
X4513892Y-28472855D01*
X4494596Y-28489575D01*
X4337598Y-28599505D01*
X4170508Y-28766595D01*
X4170505Y-28766598D01*
X4170505Y-28766599D01*
X4104649Y-28860652D01*
X4034964Y-28960172D01*
X3935097Y-29174337D01*
X3873936Y-29402592D01*
X3853340Y-29637999D01*
X116500Y-29637999D01*
X116500Y-21423000D01*
X63670340Y-21423000D01*
X63690936Y-21658407D01*
X63752097Y-21886663D01*
X63851965Y-22100829D01*
X63987505Y-22294401D01*
X64134705Y-22441601D01*
X64168190Y-22502924D01*
X64163206Y-22572616D01*
X64121334Y-22628549D01*
X64112121Y-22634821D01*
X63957341Y-22730289D01*
X63833288Y-22854342D01*
X63741186Y-23003665D01*
X63686000Y-23170202D01*
X63675819Y-23269858D01*
X63675817Y-23269878D01*
X63675500Y-23272991D01*
X63675500Y-23276138D01*
X63675500Y-23276139D01*
X63675500Y-24569859D01*
X63675500Y-24569878D01*
X63675501Y-24573008D01*
X63675820Y-24576140D01*
X63675821Y-24576141D01*
X63686000Y-24675796D01*
X63741186Y-24842334D01*
X63833288Y-24991657D01*
X63957342Y-25115711D01*
X63957344Y-25115712D01*
X64106666Y-25207814D01*
X64218016Y-25244712D01*
X64273202Y-25262999D01*
X64372858Y-25273180D01*
X64372859Y-25273180D01*
X64375991Y-25273500D01*
X65926008Y-25273499D01*
X66028797Y-25262999D01*
X66195334Y-25207814D01*
X66344656Y-25115712D01*
X66468712Y-24991656D01*
X66560814Y-24842334D01*
X66615999Y-24675797D01*
X66626500Y-24573009D01*
X66626499Y-23272992D01*
X66615999Y-23170203D01*
X66560814Y-23003666D01*
X66468712Y-22854344D01*
X66468711Y-22854342D01*
X66344657Y-22730288D01*
X66189879Y-22634821D01*
X66143154Y-22582873D01*
X66131931Y-22513911D01*
X66159775Y-22449828D01*
X66167272Y-22441623D01*
X66314495Y-22294401D01*
X66450035Y-22100830D01*
X66549903Y-21886663D01*
X66611063Y-21658408D01*
X66631659Y-21423000D01*
X66611063Y-21187592D01*
X66549903Y-20959337D01*
X66450035Y-20745171D01*
X66314495Y-20551599D01*
X66147401Y-20384505D01*
X65990401Y-20274573D01*
X65946778Y-20219997D01*
X65939585Y-20150498D01*
X65971107Y-20088144D01*
X65990392Y-20071432D01*
X66147401Y-19961495D01*
X66314495Y-19794401D01*
X66450035Y-19600830D01*
X66549903Y-19386663D01*
X66611063Y-19158408D01*
X66631659Y-18923000D01*
X66611063Y-18687592D01*
X66549903Y-18459337D01*
X66450035Y-18245171D01*
X66314495Y-18051599D01*
X66147401Y-17884505D01*
X65989966Y-17774268D01*
X65946343Y-17719692D01*
X65939150Y-17650193D01*
X65970672Y-17587839D01*
X65989968Y-17571119D01*
X66147078Y-17461109D01*
X66314106Y-17294081D01*
X66449600Y-17100576D01*
X66549430Y-16886492D01*
X66606636Y-16673000D01*
X65554969Y-16673000D01*
X65587519Y-16622351D01*
X65626000Y-16491295D01*
X65626000Y-16354705D01*
X65587519Y-16223649D01*
X65554969Y-16173000D01*
X66606636Y-16173000D01*
X66606635Y-16172999D01*
X66549430Y-15959507D01*
X66449599Y-15745421D01*
X66314109Y-15551921D01*
X66147078Y-15384890D01*
X65953578Y-15249400D01*
X65739492Y-15149569D01*
X65511318Y-15088430D01*
X65401000Y-15078778D01*
X65401000Y-16014981D01*
X65286199Y-15962554D01*
X65184975Y-15948000D01*
X65117025Y-15948000D01*
X65015801Y-15962554D01*
X64901000Y-16014981D01*
X64901000Y-15078778D01*
X64900999Y-15078778D01*
X64790681Y-15088430D01*
X64562507Y-15149569D01*
X64348421Y-15249400D01*
X64154921Y-15384890D01*
X63987893Y-15551918D01*
X63852399Y-15745423D01*
X63752569Y-15959507D01*
X63695364Y-16172999D01*
X63695364Y-16173000D01*
X64747031Y-16173000D01*
X64714481Y-16223649D01*
X64676000Y-16354705D01*
X64676000Y-16491295D01*
X64714481Y-16622351D01*
X64747031Y-16673000D01*
X63695364Y-16673000D01*
X63752569Y-16886492D01*
X63852400Y-17100578D01*
X63987890Y-17294078D01*
X64154921Y-17461109D01*
X64312032Y-17571119D01*
X64355657Y-17625696D01*
X64362851Y-17695194D01*
X64331328Y-17757549D01*
X64312033Y-17774268D01*
X64193334Y-17857383D01*
X64154595Y-17884508D01*
X63987508Y-18051595D01*
X63987505Y-18051598D01*
X63987505Y-18051599D01*
X63882653Y-18201344D01*
X63851964Y-18245172D01*
X63752097Y-18459337D01*
X63690936Y-18687592D01*
X63670340Y-18923000D01*
X63690936Y-19158407D01*
X63715678Y-19250744D01*
X63752097Y-19386663D01*
X63851965Y-19600829D01*
X63987505Y-19794401D01*
X64154599Y-19961495D01*
X64311597Y-20071426D01*
X64355221Y-20126000D01*
X64362415Y-20195499D01*
X64330892Y-20257854D01*
X64311597Y-20274574D01*
X64154595Y-20384508D01*
X63987508Y-20551595D01*
X63851964Y-20745172D01*
X63752097Y-20959337D01*
X63690936Y-21187592D01*
X63670340Y-21423000D01*
X116500Y-21423000D01*
X116500Y-18389599D01*
X51647140Y-18389599D01*
X51666926Y-18577857D01*
X51725420Y-18757884D01*
X51820066Y-18921816D01*
X51946729Y-19062489D01*
X52099869Y-19173751D01*
X52272797Y-19250744D01*
X52457952Y-19290100D01*
X52457954Y-19290100D01*
X52647248Y-19290100D01*
X52770684Y-19263862D01*
X52832403Y-19250744D01*
X53005330Y-19173751D01*
X53158471Y-19062488D01*
X53285133Y-18921816D01*
X53379779Y-18757884D01*
X53438274Y-18577856D01*
X53458060Y-18389600D01*
X53438274Y-18201344D01*
X53389618Y-18051598D01*
X53379779Y-18021315D01*
X53285133Y-17857383D01*
X53158470Y-17716710D01*
X53005330Y-17605448D01*
X52832402Y-17528455D01*
X52647248Y-17489100D01*
X52647246Y-17489100D01*
X52457954Y-17489100D01*
X52457952Y-17489100D01*
X52272797Y-17528455D01*
X52099869Y-17605448D01*
X51946729Y-17716710D01*
X51820066Y-17857383D01*
X51725420Y-18021315D01*
X51666926Y-18201342D01*
X51647140Y-18389599D01*
X116500Y-18389599D01*
X116500Y-10869999D01*
X14187858Y-10869999D01*
X14208386Y-11117732D01*
X14269413Y-11358721D01*
X14369268Y-11586370D01*
X14469563Y-11739882D01*
X14469564Y-11739882D01*
X15167070Y-11042376D01*
X15169884Y-11055915D01*
X15239442Y-11190156D01*
X15342638Y-11300652D01*
X15471819Y-11379209D01*
X15523002Y-11393549D01*
X14822942Y-12093609D01*
X14822942Y-12093610D01*
X14869766Y-12130055D01*
X15088393Y-12248368D01*
X15323506Y-12329083D01*
X15568707Y-12370000D01*
X15817293Y-12370000D01*
X16062493Y-12329083D01*
X16297606Y-12248368D01*
X16516233Y-12130053D01*
X16563056Y-12093609D01*
X15864568Y-11395121D01*
X15981458Y-11344349D01*
X16098739Y-11248934D01*
X16185928Y-11125415D01*
X16216354Y-11039802D01*
X16916434Y-11739882D01*
X17016730Y-11586369D01*
X17116586Y-11358721D01*
X17177613Y-11117732D01*
X17198141Y-10869999D01*
X18687356Y-10869999D01*
X18707891Y-11117816D01*
X18707891Y-11117819D01*
X18707892Y-11117821D01*
X18768937Y-11358881D01*
X18813960Y-11461523D01*
X18868825Y-11586604D01*
X18868827Y-11586607D01*
X19004836Y-11794785D01*
X19173256Y-11977738D01*
X19173259Y-11977740D01*
X19369485Y-12130470D01*
X19369487Y-12130471D01*
X19369491Y-12130474D01*
X19588190Y-12248828D01*
X19823386Y-12329571D01*
X20068665Y-12370500D01*
X20317335Y-12370500D01*
X20562614Y-12329571D01*
X20797810Y-12248828D01*
X21016509Y-12130474D01*
X21212744Y-11977738D01*
X21381164Y-11794785D01*
X21517173Y-11586607D01*
X21617063Y-11358881D01*
X21678108Y-11117821D01*
X21698643Y-10870000D01*
X21698643Y-10869999D01*
X22442858Y-10869999D01*
X22463386Y-11117732D01*
X22524413Y-11358721D01*
X22624268Y-11586370D01*
X22724563Y-11739882D01*
X22724564Y-11739882D01*
X23422070Y-11042374D01*
X23424884Y-11055915D01*
X23494442Y-11190156D01*
X23597638Y-11300652D01*
X23726819Y-11379209D01*
X23778002Y-11393549D01*
X23077942Y-12093609D01*
X23077942Y-12093610D01*
X23124766Y-12130055D01*
X23343393Y-12248368D01*
X23578506Y-12329083D01*
X23823707Y-12370000D01*
X24072293Y-12370000D01*
X24317493Y-12329083D01*
X24552606Y-12248368D01*
X24771233Y-12130053D01*
X24818056Y-12093609D01*
X24119568Y-11395121D01*
X24236458Y-11344349D01*
X24353739Y-11248934D01*
X24440928Y-11125415D01*
X24471354Y-11039802D01*
X25171434Y-11739882D01*
X25271730Y-11586369D01*
X25371586Y-11358721D01*
X25432613Y-11117732D01*
X25453141Y-10870000D01*
X26942356Y-10870000D01*
X26962891Y-11117816D01*
X26962891Y-11117819D01*
X26962892Y-11117821D01*
X27023937Y-11358881D01*
X27068960Y-11461523D01*
X27123825Y-11586604D01*
X27123827Y-11586607D01*
X27259836Y-11794785D01*
X27428256Y-11977738D01*
X27428259Y-11977740D01*
X27624485Y-12130470D01*
X27624487Y-12130471D01*
X27624491Y-12130474D01*
X27843190Y-12248828D01*
X28078386Y-12329571D01*
X28323665Y-12370500D01*
X28572335Y-12370500D01*
X28817614Y-12329571D01*
X29052810Y-12248828D01*
X29271509Y-12130474D01*
X29467744Y-11977738D01*
X29636164Y-11794785D01*
X29772173Y-11586607D01*
X29872063Y-11358881D01*
X29933108Y-11117821D01*
X29953643Y-10870000D01*
X29953643Y-10869999D01*
X30788858Y-10869999D01*
X30809386Y-11117732D01*
X30870413Y-11358721D01*
X30970268Y-11586370D01*
X31070563Y-11739882D01*
X31070564Y-11739882D01*
X31768070Y-11042376D01*
X31770884Y-11055915D01*
X31840442Y-11190156D01*
X31943638Y-11300652D01*
X32072819Y-11379209D01*
X32124002Y-11393549D01*
X31423942Y-12093609D01*
X31423942Y-12093610D01*
X31470766Y-12130055D01*
X31689393Y-12248368D01*
X31924506Y-12329083D01*
X32169707Y-12370000D01*
X32418293Y-12370000D01*
X32663493Y-12329083D01*
X32898606Y-12248368D01*
X33117233Y-12130053D01*
X33164056Y-12093609D01*
X32465568Y-11395121D01*
X32582458Y-11344349D01*
X32699739Y-11248934D01*
X32786928Y-11125415D01*
X32817354Y-11039802D01*
X33517434Y-11739882D01*
X33617730Y-11586369D01*
X33717586Y-11358721D01*
X33778613Y-11117732D01*
X33799141Y-10870000D01*
X35288356Y-10870000D01*
X35308891Y-11117816D01*
X35308891Y-11117819D01*
X35308892Y-11117821D01*
X35369937Y-11358881D01*
X35414960Y-11461523D01*
X35469825Y-11586604D01*
X35469827Y-11586607D01*
X35605836Y-11794785D01*
X35774256Y-11977738D01*
X35774259Y-11977740D01*
X35970485Y-12130470D01*
X35970487Y-12130471D01*
X35970491Y-12130474D01*
X36189190Y-12248828D01*
X36424386Y-12329571D01*
X36669665Y-12370500D01*
X36918335Y-12370500D01*
X37163614Y-12329571D01*
X37398810Y-12248828D01*
X37617509Y-12130474D01*
X37813744Y-11977738D01*
X37982164Y-11794785D01*
X38118173Y-11586607D01*
X38218063Y-11358881D01*
X38279108Y-11117821D01*
X38299643Y-10870000D01*
X38299643Y-10869999D01*
X39170858Y-10869999D01*
X39191386Y-11117732D01*
X39252413Y-11358721D01*
X39352268Y-11586370D01*
X39452563Y-11739882D01*
X39452564Y-11739882D01*
X40150070Y-11042376D01*
X40152884Y-11055915D01*
X40222442Y-11190156D01*
X40325638Y-11300652D01*
X40454819Y-11379209D01*
X40506002Y-11393549D01*
X39805942Y-12093609D01*
X39805942Y-12093610D01*
X39852766Y-12130055D01*
X40071393Y-12248368D01*
X40306506Y-12329083D01*
X40551707Y-12370000D01*
X40800293Y-12370000D01*
X41045493Y-12329083D01*
X41280606Y-12248368D01*
X41499233Y-12130053D01*
X41546056Y-12093609D01*
X40847568Y-11395121D01*
X40964458Y-11344349D01*
X41081739Y-11248934D01*
X41168928Y-11125415D01*
X41199354Y-11039802D01*
X41899434Y-11739882D01*
X41999730Y-11586369D01*
X42099586Y-11358721D01*
X42160613Y-11117732D01*
X42181141Y-10870000D01*
X42181141Y-10869999D01*
X43670356Y-10869999D01*
X43690891Y-11117816D01*
X43690891Y-11117819D01*
X43690892Y-11117821D01*
X43751937Y-11358881D01*
X43796960Y-11461523D01*
X43851825Y-11586604D01*
X43851827Y-11586607D01*
X43987836Y-11794785D01*
X44156256Y-11977738D01*
X44156259Y-11977740D01*
X44352485Y-12130470D01*
X44352487Y-12130471D01*
X44352491Y-12130474D01*
X44571190Y-12248828D01*
X44806386Y-12329571D01*
X45051665Y-12370500D01*
X45300335Y-12370500D01*
X45545614Y-12329571D01*
X45780810Y-12248828D01*
X45999509Y-12130474D01*
X46195744Y-11977738D01*
X46364164Y-11794785D01*
X46500173Y-11586607D01*
X46600063Y-11358881D01*
X46661108Y-11117821D01*
X46681643Y-10870000D01*
X46681643Y-10869999D01*
X47552858Y-10869999D01*
X47573386Y-11117732D01*
X47634413Y-11358721D01*
X47734268Y-11586370D01*
X47834563Y-11739882D01*
X47834564Y-11739882D01*
X48532070Y-11042376D01*
X48534884Y-11055915D01*
X48604442Y-11190156D01*
X48707638Y-11300652D01*
X48836819Y-11379209D01*
X48888002Y-11393549D01*
X48187942Y-12093609D01*
X48187942Y-12093610D01*
X48234766Y-12130055D01*
X48453393Y-12248368D01*
X48688506Y-12329083D01*
X48933707Y-12370000D01*
X49182293Y-12370000D01*
X49427493Y-12329083D01*
X49662606Y-12248368D01*
X49881233Y-12130053D01*
X49928056Y-12093609D01*
X49229568Y-11395121D01*
X49346458Y-11344349D01*
X49463739Y-11248934D01*
X49550928Y-11125415D01*
X49581354Y-11039802D01*
X50281434Y-11739882D01*
X50381730Y-11586369D01*
X50481586Y-11358721D01*
X50542613Y-11117732D01*
X50563141Y-10870000D01*
X52052356Y-10870000D01*
X52072891Y-11117816D01*
X52072891Y-11117819D01*
X52072892Y-11117821D01*
X52133937Y-11358881D01*
X52178960Y-11461523D01*
X52233825Y-11586604D01*
X52233827Y-11586607D01*
X52369836Y-11794785D01*
X52538256Y-11977738D01*
X52538259Y-11977740D01*
X52734485Y-12130470D01*
X52734487Y-12130471D01*
X52734491Y-12130474D01*
X52953190Y-12248828D01*
X53188386Y-12329571D01*
X53433665Y-12370500D01*
X53682335Y-12370500D01*
X53927614Y-12329571D01*
X54162810Y-12248828D01*
X54381509Y-12130474D01*
X54577744Y-11977738D01*
X54746164Y-11794785D01*
X54882173Y-11586607D01*
X54982063Y-11358881D01*
X55043108Y-11117821D01*
X55063643Y-10870000D01*
X55043108Y-10622179D01*
X54982063Y-10381119D01*
X54882173Y-10153393D01*
X54746164Y-9945215D01*
X54577744Y-9762262D01*
X54528493Y-9723928D01*
X54381514Y-9609529D01*
X54381510Y-9609526D01*
X54381509Y-9609526D01*
X54162810Y-9491172D01*
X54162806Y-9491170D01*
X54162805Y-9491170D01*
X53927615Y-9410429D01*
X53682335Y-9369500D01*
X53433665Y-9369500D01*
X53188384Y-9410429D01*
X52953194Y-9491170D01*
X52734485Y-9609529D01*
X52538259Y-9762259D01*
X52538256Y-9762261D01*
X52538256Y-9762262D01*
X52503252Y-9800287D01*
X52369837Y-9945214D01*
X52233825Y-10153395D01*
X52160746Y-10320000D01*
X52133937Y-10381119D01*
X52099667Y-10516447D01*
X52072891Y-10622183D01*
X52052356Y-10870000D01*
X50563141Y-10870000D01*
X50563141Y-10869999D01*
X50542613Y-10622267D01*
X50481586Y-10381278D01*
X50381730Y-10153630D01*
X50281434Y-10000116D01*
X49583929Y-10697622D01*
X49581116Y-10684085D01*
X49511558Y-10549844D01*
X49408362Y-10439348D01*
X49279181Y-10360791D01*
X49227995Y-10346449D01*
X49928056Y-9646389D01*
X49928056Y-9646387D01*
X49881235Y-9609947D01*
X49662606Y-9491631D01*
X49427493Y-9410916D01*
X49182293Y-9370000D01*
X48933707Y-9370000D01*
X48688506Y-9410916D01*
X48453393Y-9491631D01*
X48234764Y-9609946D01*
X48187942Y-9646388D01*
X48187941Y-9646389D01*
X48886431Y-10344878D01*
X48769542Y-10395651D01*
X48652261Y-10491066D01*
X48565072Y-10614585D01*
X48534645Y-10700197D01*
X47834564Y-10000116D01*
X47734266Y-10153634D01*
X47634413Y-10381278D01*
X47573386Y-10622267D01*
X47552858Y-10869999D01*
X46681643Y-10869999D01*
X46661108Y-10622179D01*
X46600063Y-10381119D01*
X46500173Y-10153393D01*
X46364164Y-9945215D01*
X46195744Y-9762262D01*
X46146493Y-9723928D01*
X45999514Y-9609529D01*
X45999510Y-9609526D01*
X45999509Y-9609526D01*
X45780810Y-9491172D01*
X45780806Y-9491170D01*
X45780805Y-9491170D01*
X45545615Y-9410429D01*
X45300335Y-9369500D01*
X45051665Y-9369500D01*
X44806384Y-9410429D01*
X44571194Y-9491170D01*
X44352485Y-9609529D01*
X44156259Y-9762259D01*
X44156256Y-9762261D01*
X44156256Y-9762262D01*
X44121252Y-9800287D01*
X43987837Y-9945214D01*
X43851825Y-10153395D01*
X43778746Y-10320000D01*
X43751937Y-10381119D01*
X43717667Y-10516447D01*
X43690891Y-10622183D01*
X43670356Y-10869999D01*
X42181141Y-10869999D01*
X42160613Y-10622267D01*
X42099586Y-10381278D01*
X41999730Y-10153630D01*
X41899434Y-10000116D01*
X41201929Y-10697622D01*
X41199116Y-10684085D01*
X41129558Y-10549844D01*
X41026362Y-10439348D01*
X40897181Y-10360791D01*
X40845997Y-10346450D01*
X41546057Y-9646390D01*
X41546056Y-9646388D01*
X41499235Y-9609947D01*
X41280606Y-9491631D01*
X41045493Y-9410916D01*
X40800293Y-9370000D01*
X40551707Y-9370000D01*
X40306506Y-9410916D01*
X40071393Y-9491631D01*
X39852764Y-9609946D01*
X39805942Y-9646388D01*
X39805942Y-9646390D01*
X40504431Y-10344878D01*
X40387542Y-10395651D01*
X40270261Y-10491066D01*
X40183072Y-10614585D01*
X40152645Y-10700197D01*
X39452564Y-10000116D01*
X39352266Y-10153634D01*
X39252413Y-10381278D01*
X39191386Y-10622267D01*
X39170858Y-10869999D01*
X38299643Y-10869999D01*
X38279108Y-10622179D01*
X38218063Y-10381119D01*
X38118173Y-10153393D01*
X37982164Y-9945215D01*
X37813744Y-9762262D01*
X37764493Y-9723928D01*
X37617514Y-9609529D01*
X37617510Y-9609526D01*
X37617509Y-9609526D01*
X37398810Y-9491172D01*
X37398806Y-9491170D01*
X37398805Y-9491170D01*
X37163615Y-9410429D01*
X36918335Y-9369500D01*
X36669665Y-9369500D01*
X36424384Y-9410429D01*
X36189194Y-9491170D01*
X35970485Y-9609529D01*
X35774259Y-9762259D01*
X35774256Y-9762261D01*
X35774256Y-9762262D01*
X35739252Y-9800287D01*
X35605837Y-9945214D01*
X35469825Y-10153395D01*
X35396746Y-10320000D01*
X35369937Y-10381119D01*
X35335667Y-10516447D01*
X35308891Y-10622183D01*
X35288356Y-10870000D01*
X33799141Y-10870000D01*
X33799141Y-10869999D01*
X33778613Y-10622267D01*
X33717586Y-10381278D01*
X33617730Y-10153630D01*
X33517434Y-10000116D01*
X32819929Y-10697622D01*
X32817116Y-10684085D01*
X32747558Y-10549844D01*
X32644362Y-10439348D01*
X32515181Y-10360791D01*
X32463997Y-10346450D01*
X33164057Y-9646390D01*
X33164056Y-9646388D01*
X33117235Y-9609947D01*
X32898606Y-9491631D01*
X32663493Y-9410916D01*
X32418293Y-9370000D01*
X32169707Y-9370000D01*
X31924506Y-9410916D01*
X31689393Y-9491631D01*
X31470764Y-9609946D01*
X31423942Y-9646388D01*
X31423942Y-9646390D01*
X32122431Y-10344878D01*
X32005542Y-10395651D01*
X31888261Y-10491066D01*
X31801072Y-10614585D01*
X31770645Y-10700197D01*
X31070564Y-10000116D01*
X30970266Y-10153634D01*
X30870413Y-10381278D01*
X30809386Y-10622267D01*
X30788858Y-10869999D01*
X29953643Y-10869999D01*
X29933108Y-10622179D01*
X29872063Y-10381119D01*
X29772173Y-10153393D01*
X29636164Y-9945215D01*
X29467744Y-9762262D01*
X29418493Y-9723928D01*
X29271514Y-9609529D01*
X29271510Y-9609526D01*
X29271509Y-9609526D01*
X29052810Y-9491172D01*
X29052806Y-9491170D01*
X29052805Y-9491170D01*
X28817615Y-9410429D01*
X28572335Y-9369500D01*
X28323665Y-9369500D01*
X28078384Y-9410429D01*
X27843194Y-9491170D01*
X27624485Y-9609529D01*
X27428259Y-9762259D01*
X27428256Y-9762261D01*
X27428256Y-9762262D01*
X27393252Y-9800287D01*
X27259837Y-9945214D01*
X27123825Y-10153395D01*
X27050746Y-10320000D01*
X27023937Y-10381119D01*
X26989667Y-10516447D01*
X26962891Y-10622183D01*
X26942356Y-10870000D01*
X25453141Y-10870000D01*
X25453141Y-10869999D01*
X25432613Y-10622267D01*
X25371586Y-10381278D01*
X25271730Y-10153630D01*
X25171434Y-10000116D01*
X24473929Y-10697622D01*
X24471116Y-10684085D01*
X24401558Y-10549844D01*
X24298362Y-10439348D01*
X24169181Y-10360791D01*
X24117995Y-10346449D01*
X24818056Y-9646389D01*
X24818056Y-9646387D01*
X24771235Y-9609947D01*
X24552606Y-9491631D01*
X24317493Y-9410916D01*
X24072293Y-9370000D01*
X23823707Y-9370000D01*
X23578506Y-9410916D01*
X23343393Y-9491631D01*
X23124764Y-9609946D01*
X23077942Y-9646388D01*
X23077941Y-9646389D01*
X23776431Y-10344878D01*
X23659542Y-10395651D01*
X23542261Y-10491066D01*
X23455072Y-10614585D01*
X23424645Y-10700197D01*
X22724564Y-10000116D01*
X22624266Y-10153634D01*
X22524413Y-10381278D01*
X22463386Y-10622267D01*
X22442858Y-10869999D01*
X21698643Y-10869999D01*
X21678108Y-10622179D01*
X21617063Y-10381119D01*
X21517173Y-10153393D01*
X21381164Y-9945215D01*
X21212744Y-9762262D01*
X21163493Y-9723928D01*
X21016514Y-9609529D01*
X21016510Y-9609526D01*
X21016509Y-9609526D01*
X20797810Y-9491172D01*
X20797806Y-9491170D01*
X20797805Y-9491170D01*
X20562615Y-9410429D01*
X20317335Y-9369500D01*
X20068665Y-9369500D01*
X19823384Y-9410429D01*
X19588194Y-9491170D01*
X19369485Y-9609529D01*
X19173259Y-9762259D01*
X19173256Y-9762261D01*
X19173256Y-9762262D01*
X19138252Y-9800287D01*
X19004837Y-9945214D01*
X18868825Y-10153395D01*
X18795746Y-10320000D01*
X18768937Y-10381119D01*
X18734667Y-10516447D01*
X18707891Y-10622183D01*
X18687356Y-10869999D01*
X17198141Y-10869999D01*
X17177613Y-10622267D01*
X17116586Y-10381278D01*
X17016730Y-10153630D01*
X16916434Y-10000116D01*
X16218929Y-10697622D01*
X16216116Y-10684085D01*
X16146558Y-10549844D01*
X16043362Y-10439348D01*
X15914181Y-10360791D01*
X15862997Y-10346450D01*
X16563057Y-9646390D01*
X16563056Y-9646388D01*
X16516235Y-9609947D01*
X16297606Y-9491631D01*
X16062493Y-9410916D01*
X15817293Y-9370000D01*
X15568707Y-9370000D01*
X15323506Y-9410916D01*
X15088393Y-9491631D01*
X14869764Y-9609946D01*
X14822942Y-9646388D01*
X14822942Y-9646390D01*
X15521431Y-10344878D01*
X15404542Y-10395651D01*
X15287261Y-10491066D01*
X15200072Y-10614585D01*
X15169645Y-10700197D01*
X14469564Y-10000116D01*
X14369266Y-10153634D01*
X14269413Y-10381278D01*
X14208386Y-10622267D01*
X14187858Y-10869999D01*
X116500Y-10869999D01*
X116500Y-5588000D01*
X1332680Y-5588000D01*
X1351948Y-5992494D01*
X1352364Y-5995391D01*
X1352366Y-5995406D01*
X1409158Y-6390398D01*
X1409579Y-6393325D01*
X1505050Y-6786862D01*
X1637497Y-7169543D01*
X1638718Y-7172217D01*
X1638723Y-7172229D01*
X1804494Y-7535215D01*
X1804500Y-7535228D01*
X1805721Y-7537900D01*
X2008197Y-7888600D01*
X2009908Y-7891003D01*
X2009914Y-7891012D01*
X2241380Y-8216059D01*
X2243093Y-8218464D01*
X2508280Y-8524507D01*
X2801358Y-8803956D01*
X3119672Y-9054281D01*
X3460340Y-9273215D01*
X3820276Y-9458775D01*
X4196221Y-9609281D01*
X4584770Y-9723369D01*
X4982405Y-9800007D01*
X5385524Y-9838500D01*
X5388478Y-9838500D01*
X5787522Y-9838500D01*
X5790476Y-9838500D01*
X6193595Y-9800007D01*
X6591230Y-9723369D01*
X6979779Y-9609281D01*
X7355724Y-9458775D01*
X7715660Y-9273215D01*
X8056328Y-9054281D01*
X8374642Y-8803956D01*
X8667720Y-8524507D01*
X8932907Y-8218464D01*
X9167803Y-7888600D01*
X9370279Y-7537900D01*
X9538503Y-7169543D01*
X9670950Y-6786862D01*
X9766421Y-6393325D01*
X9824052Y-5992494D01*
X9843320Y-5588000D01*
X9824052Y-5183506D01*
X9766421Y-4782675D01*
X9670950Y-4389138D01*
X9664326Y-4370000D01*
X14187858Y-4370000D01*
X14208386Y-4617732D01*
X14269413Y-4858721D01*
X14369268Y-5086370D01*
X14469563Y-5239882D01*
X14469564Y-5239882D01*
X15167070Y-4542376D01*
X15169884Y-4555915D01*
X15239442Y-4690156D01*
X15342638Y-4800652D01*
X15471819Y-4879209D01*
X15523002Y-4893549D01*
X14822942Y-5593609D01*
X14822942Y-5593610D01*
X14869766Y-5630055D01*
X15088393Y-5748368D01*
X15323506Y-5829083D01*
X15568707Y-5870000D01*
X15817293Y-5870000D01*
X16062493Y-5829083D01*
X16297606Y-5748368D01*
X16516233Y-5630053D01*
X16563056Y-5593609D01*
X15864568Y-4895121D01*
X15981458Y-4844349D01*
X16098739Y-4748934D01*
X16185928Y-4625415D01*
X16216354Y-4539802D01*
X16916434Y-5239882D01*
X17016730Y-5086369D01*
X17116586Y-4858721D01*
X17177613Y-4617732D01*
X17198141Y-4370000D01*
X18687356Y-4370000D01*
X18707891Y-4617816D01*
X18707891Y-4617819D01*
X18707892Y-4617821D01*
X18768937Y-4858881D01*
X18813960Y-4961523D01*
X18868825Y-5086604D01*
X18868827Y-5086607D01*
X19004836Y-5294785D01*
X19173256Y-5477738D01*
X19173259Y-5477740D01*
X19369485Y-5630470D01*
X19369487Y-5630471D01*
X19369491Y-5630474D01*
X19588190Y-5748828D01*
X19823386Y-5829571D01*
X20068665Y-5870500D01*
X20317335Y-5870500D01*
X20562614Y-5829571D01*
X20797810Y-5748828D01*
X21016509Y-5630474D01*
X21212744Y-5477738D01*
X21381164Y-5294785D01*
X21517173Y-5086607D01*
X21617063Y-4858881D01*
X21678108Y-4617821D01*
X21698643Y-4370000D01*
X22442858Y-4370000D01*
X22463386Y-4617732D01*
X22524413Y-4858721D01*
X22624268Y-5086370D01*
X22724563Y-5239882D01*
X22724564Y-5239882D01*
X23422070Y-4542376D01*
X23424884Y-4555915D01*
X23494442Y-4690156D01*
X23597638Y-4800652D01*
X23726819Y-4879209D01*
X23778002Y-4893549D01*
X23077942Y-5593609D01*
X23077942Y-5593610D01*
X23124766Y-5630055D01*
X23343393Y-5748368D01*
X23578506Y-5829083D01*
X23823707Y-5870000D01*
X24072293Y-5870000D01*
X24317493Y-5829083D01*
X24552606Y-5748368D01*
X24771233Y-5630053D01*
X24818056Y-5593609D01*
X24119568Y-4895121D01*
X24236458Y-4844349D01*
X24353739Y-4748934D01*
X24440928Y-4625415D01*
X24471354Y-4539802D01*
X25171434Y-5239882D01*
X25271730Y-5086369D01*
X25371586Y-4858721D01*
X25432613Y-4617732D01*
X25453141Y-4370000D01*
X26942356Y-4370000D01*
X26962891Y-4617816D01*
X26962891Y-4617819D01*
X26962892Y-4617821D01*
X27023937Y-4858881D01*
X27068960Y-4961523D01*
X27123825Y-5086604D01*
X27123827Y-5086607D01*
X27259836Y-5294785D01*
X27428256Y-5477738D01*
X27428259Y-5477740D01*
X27624485Y-5630470D01*
X27624487Y-5630471D01*
X27624491Y-5630474D01*
X27843190Y-5748828D01*
X28078386Y-5829571D01*
X28323665Y-5870500D01*
X28572335Y-5870500D01*
X28817614Y-5829571D01*
X29052810Y-5748828D01*
X29271509Y-5630474D01*
X29467744Y-5477738D01*
X29636164Y-5294785D01*
X29772173Y-5086607D01*
X29872063Y-4858881D01*
X29933108Y-4617821D01*
X29953643Y-4370000D01*
X30788858Y-4370000D01*
X30809386Y-4617732D01*
X30870413Y-4858721D01*
X30970268Y-5086370D01*
X31070563Y-5239882D01*
X31070564Y-5239882D01*
X31768070Y-4542376D01*
X31770884Y-4555915D01*
X31840442Y-4690156D01*
X31943638Y-4800652D01*
X32072819Y-4879209D01*
X32124002Y-4893549D01*
X31423942Y-5593609D01*
X31423942Y-5593610D01*
X31470766Y-5630055D01*
X31689393Y-5748368D01*
X31924506Y-5829083D01*
X32169707Y-5870000D01*
X32418293Y-5870000D01*
X32663493Y-5829083D01*
X32898606Y-5748368D01*
X33117233Y-5630053D01*
X33164056Y-5593609D01*
X32465568Y-4895121D01*
X32582458Y-4844349D01*
X32699739Y-4748934D01*
X32786928Y-4625415D01*
X32817355Y-4539801D01*
X33517434Y-5239882D01*
X33617730Y-5086369D01*
X33717586Y-4858721D01*
X33778613Y-4617732D01*
X33799141Y-4370000D01*
X35288356Y-4370000D01*
X35308891Y-4617816D01*
X35308891Y-4617819D01*
X35308892Y-4617821D01*
X35369937Y-4858881D01*
X35414960Y-4961523D01*
X35469825Y-5086604D01*
X35469827Y-5086607D01*
X35605836Y-5294785D01*
X35774256Y-5477738D01*
X35774259Y-5477740D01*
X35970485Y-5630470D01*
X35970487Y-5630471D01*
X35970491Y-5630474D01*
X36189190Y-5748828D01*
X36424386Y-5829571D01*
X36669665Y-5870500D01*
X36918335Y-5870500D01*
X37163614Y-5829571D01*
X37398810Y-5748828D01*
X37617509Y-5630474D01*
X37813744Y-5477738D01*
X37982164Y-5294785D01*
X38118173Y-5086607D01*
X38218063Y-4858881D01*
X38279108Y-4617821D01*
X38299643Y-4370000D01*
X39170858Y-4370000D01*
X39191386Y-4617732D01*
X39252413Y-4858721D01*
X39352268Y-5086370D01*
X39452563Y-5239882D01*
X39452564Y-5239882D01*
X40150070Y-4542376D01*
X40152884Y-4555915D01*
X40222442Y-4690156D01*
X40325638Y-4800652D01*
X40454819Y-4879209D01*
X40506002Y-4893549D01*
X39805942Y-5593609D01*
X39805942Y-5593610D01*
X39852766Y-5630055D01*
X40071393Y-5748368D01*
X40306506Y-5829083D01*
X40551707Y-5870000D01*
X40800293Y-5870000D01*
X41045493Y-5829083D01*
X41280606Y-5748368D01*
X41499233Y-5630053D01*
X41546056Y-5593609D01*
X40847568Y-4895121D01*
X40964458Y-4844349D01*
X41081739Y-4748934D01*
X41168928Y-4625415D01*
X41199354Y-4539802D01*
X41899434Y-5239882D01*
X41999730Y-5086369D01*
X42099586Y-4858721D01*
X42160613Y-4617732D01*
X42181141Y-4370000D01*
X43670356Y-4370000D01*
X43690891Y-4617816D01*
X43690891Y-4617819D01*
X43690892Y-4617821D01*
X43751937Y-4858881D01*
X43796960Y-4961523D01*
X43851825Y-5086604D01*
X43851827Y-5086607D01*
X43987836Y-5294785D01*
X44156256Y-5477738D01*
X44156259Y-5477740D01*
X44352485Y-5630470D01*
X44352487Y-5630471D01*
X44352491Y-5630474D01*
X44571190Y-5748828D01*
X44806386Y-5829571D01*
X45051665Y-5870500D01*
X45300335Y-5870500D01*
X45545614Y-5829571D01*
X45780810Y-5748828D01*
X45999509Y-5630474D01*
X46195744Y-5477738D01*
X46364164Y-5294785D01*
X46500173Y-5086607D01*
X46600063Y-4858881D01*
X46661108Y-4617821D01*
X46681643Y-4370000D01*
X47552858Y-4370000D01*
X47573386Y-4617732D01*
X47634413Y-4858721D01*
X47734268Y-5086370D01*
X47834563Y-5239882D01*
X47834564Y-5239882D01*
X48532070Y-4542376D01*
X48534884Y-4555915D01*
X48604442Y-4690156D01*
X48707638Y-4800652D01*
X48836819Y-4879209D01*
X48888002Y-4893549D01*
X48187942Y-5593609D01*
X48187942Y-5593610D01*
X48234766Y-5630055D01*
X48453393Y-5748368D01*
X48688506Y-5829083D01*
X48933707Y-5870000D01*
X49182293Y-5870000D01*
X49427493Y-5829083D01*
X49662606Y-5748368D01*
X49881233Y-5630053D01*
X49928056Y-5593609D01*
X49229568Y-4895121D01*
X49346458Y-4844349D01*
X49463739Y-4748934D01*
X49550928Y-4625415D01*
X49581354Y-4539802D01*
X50281434Y-5239882D01*
X50381730Y-5086369D01*
X50481586Y-4858721D01*
X50542613Y-4617732D01*
X50563141Y-4370000D01*
X52052356Y-4370000D01*
X52072891Y-4617816D01*
X52072891Y-4617819D01*
X52072892Y-4617821D01*
X52133937Y-4858881D01*
X52178960Y-4961523D01*
X52233825Y-5086604D01*
X52233827Y-5086607D01*
X52369836Y-5294785D01*
X52538256Y-5477738D01*
X52538259Y-5477740D01*
X52734485Y-5630470D01*
X52734487Y-5630471D01*
X52734491Y-5630474D01*
X52953190Y-5748828D01*
X53188386Y-5829571D01*
X53433665Y-5870500D01*
X53682335Y-5870500D01*
X53927614Y-5829571D01*
X54162810Y-5748828D01*
X54381509Y-5630474D01*
X54436080Y-5588000D01*
X60768680Y-5588000D01*
X60787948Y-5992494D01*
X60788364Y-5995391D01*
X60788366Y-5995406D01*
X60845158Y-6390398D01*
X60845579Y-6393325D01*
X60941050Y-6786862D01*
X61073497Y-7169543D01*
X61074718Y-7172217D01*
X61074723Y-7172229D01*
X61240494Y-7535215D01*
X61240500Y-7535228D01*
X61241721Y-7537900D01*
X61444197Y-7888600D01*
X61445908Y-7891003D01*
X61445914Y-7891012D01*
X61677380Y-8216059D01*
X61679093Y-8218464D01*
X61944280Y-8524507D01*
X62237358Y-8803956D01*
X62555672Y-9054281D01*
X62896340Y-9273215D01*
X63256276Y-9458775D01*
X63632221Y-9609281D01*
X64020770Y-9723369D01*
X64418405Y-9800007D01*
X64821524Y-9838500D01*
X64824478Y-9838500D01*
X65223522Y-9838500D01*
X65226476Y-9838500D01*
X65629595Y-9800007D01*
X66027230Y-9723369D01*
X66415779Y-9609281D01*
X66791724Y-9458775D01*
X67151660Y-9273215D01*
X67492328Y-9054281D01*
X67810642Y-8803956D01*
X68103720Y-8524507D01*
X68368907Y-8218464D01*
X68603803Y-7888600D01*
X68806279Y-7537900D01*
X68974503Y-7169543D01*
X69106950Y-6786862D01*
X69202421Y-6393325D01*
X69260052Y-5992494D01*
X69279320Y-5588000D01*
X69260052Y-5183506D01*
X69202421Y-4782675D01*
X69106950Y-4389138D01*
X68974503Y-4006457D01*
X68896391Y-3835416D01*
X68807505Y-3640784D01*
X68807502Y-3640779D01*
X68806279Y-3638100D01*
X68603803Y-3287400D01*
X68585902Y-3262262D01*
X68370619Y-2959940D01*
X68370617Y-2959938D01*
X68368907Y-2957536D01*
X68103720Y-2651493D01*
X67810642Y-2372044D01*
X67492328Y-2121719D01*
X67489855Y-2120129D01*
X67489847Y-2120124D01*
X67154141Y-1904379D01*
X67154134Y-1904375D01*
X67151660Y-1902785D01*
X67149052Y-1901440D01*
X67149046Y-1901437D01*
X66794348Y-1718578D01*
X66791724Y-1717225D01*
X66415779Y-1566719D01*
X66339345Y-1544276D01*
X66030066Y-1453463D01*
X66030051Y-1453459D01*
X66027230Y-1452631D01*
X66024332Y-1452072D01*
X66024326Y-1452071D01*
X65632496Y-1376552D01*
X65632493Y-1376551D01*
X65629595Y-1375993D01*
X65626675Y-1375714D01*
X65626660Y-1375712D01*
X65229411Y-1337780D01*
X65229405Y-1337779D01*
X65226476Y-1337500D01*
X64821524Y-1337500D01*
X64818595Y-1337779D01*
X64818588Y-1337780D01*
X64421339Y-1375712D01*
X64421321Y-1375714D01*
X64418405Y-1375993D01*
X64415509Y-1376551D01*
X64415503Y-1376552D01*
X64023673Y-1452071D01*
X64023663Y-1452073D01*
X64020770Y-1452631D01*
X64017952Y-1453458D01*
X64017933Y-1453463D01*
X63635047Y-1565889D01*
X63635042Y-1565890D01*
X63632221Y-1566719D01*
X63629496Y-1567809D01*
X63629490Y-1567812D01*
X63259018Y-1716127D01*
X63259013Y-1716129D01*
X63256276Y-1717225D01*
X63253655Y-1718575D01*
X63253651Y-1718578D01*
X62898953Y-1901437D01*
X62898938Y-1901445D01*
X62896340Y-1902785D01*
X62893874Y-1904369D01*
X62893858Y-1904379D01*
X62558152Y-2120124D01*
X62558134Y-2120136D01*
X62555672Y-2121719D01*
X62553374Y-2123526D01*
X62553363Y-2123534D01*
X62239670Y-2370225D01*
X62239659Y-2370233D01*
X62237358Y-2372044D01*
X62235235Y-2374067D01*
X62235226Y-2374076D01*
X61946404Y-2649467D01*
X61946395Y-2649475D01*
X61944280Y-2651493D01*
X61942359Y-2653709D01*
X61942358Y-2653711D01*
X61681022Y-2955309D01*
X61681015Y-2955317D01*
X61679093Y-2957536D01*
X61677391Y-2959925D01*
X61677380Y-2959940D01*
X61445914Y-3284987D01*
X61445902Y-3285005D01*
X61444197Y-3287400D01*
X61442725Y-3289949D01*
X61442717Y-3289962D01*
X61243197Y-3635543D01*
X61241721Y-3638100D01*
X61240504Y-3640762D01*
X61240494Y-3640784D01*
X61074723Y-4003770D01*
X61074715Y-4003789D01*
X61073497Y-4006457D01*
X61072535Y-4009236D01*
X61072530Y-4009249D01*
X60942018Y-4386339D01*
X60942013Y-4386353D01*
X60941050Y-4389138D01*
X60940354Y-4392004D01*
X60940353Y-4392010D01*
X60846275Y-4779803D01*
X60846272Y-4779817D01*
X60845579Y-4782675D01*
X60845159Y-4785594D01*
X60845158Y-4785601D01*
X60788366Y-5180593D01*
X60788364Y-5180610D01*
X60787948Y-5183506D01*
X60787808Y-5186438D01*
X60787808Y-5186442D01*
X60782647Y-5294785D01*
X60768680Y-5588000D01*
X54436080Y-5588000D01*
X54577744Y-5477738D01*
X54746164Y-5294785D01*
X54882173Y-5086607D01*
X54982063Y-4858881D01*
X55043108Y-4617821D01*
X55063643Y-4370000D01*
X55043108Y-4122179D01*
X54982063Y-3881119D01*
X54882173Y-3653393D01*
X54746164Y-3445215D01*
X54577744Y-3262262D01*
X54555612Y-3245036D01*
X54381514Y-3109529D01*
X54381510Y-3109526D01*
X54381509Y-3109526D01*
X54162810Y-2991172D01*
X54162806Y-2991170D01*
X54162805Y-2991170D01*
X53927615Y-2910429D01*
X53682335Y-2869500D01*
X53433665Y-2869500D01*
X53188384Y-2910429D01*
X52953194Y-2991170D01*
X52734485Y-3109529D01*
X52538259Y-3262259D01*
X52538256Y-3262261D01*
X52538256Y-3262262D01*
X52369837Y-3445214D01*
X52233825Y-3653395D01*
X52160746Y-3820000D01*
X52133937Y-3881119D01*
X52099667Y-4016447D01*
X52072891Y-4122183D01*
X52052356Y-4370000D01*
X50563141Y-4370000D01*
X50542613Y-4122267D01*
X50481586Y-3881278D01*
X50381730Y-3653630D01*
X50281434Y-3500116D01*
X49583929Y-4197622D01*
X49581116Y-4184085D01*
X49511558Y-4049844D01*
X49408362Y-3939348D01*
X49279181Y-3860791D01*
X49227997Y-3846450D01*
X49928057Y-3146390D01*
X49928056Y-3146388D01*
X49881235Y-3109947D01*
X49662606Y-2991631D01*
X49427493Y-2910916D01*
X49182293Y-2870000D01*
X48933707Y-2870000D01*
X48688506Y-2910916D01*
X48453393Y-2991631D01*
X48234764Y-3109946D01*
X48187942Y-3146388D01*
X48187942Y-3146390D01*
X48886431Y-3844878D01*
X48769542Y-3895651D01*
X48652261Y-3991066D01*
X48565072Y-4114585D01*
X48534645Y-4200197D01*
X47834564Y-3500116D01*
X47734266Y-3653634D01*
X47634413Y-3881278D01*
X47573386Y-4122267D01*
X47552858Y-4370000D01*
X46681643Y-4370000D01*
X46661108Y-4122179D01*
X46600063Y-3881119D01*
X46500173Y-3653393D01*
X46364164Y-3445215D01*
X46195744Y-3262262D01*
X46173612Y-3245036D01*
X45999514Y-3109529D01*
X45999510Y-3109526D01*
X45999509Y-3109526D01*
X45780810Y-2991172D01*
X45780806Y-2991170D01*
X45780805Y-2991170D01*
X45545615Y-2910429D01*
X45300335Y-2869500D01*
X45051665Y-2869500D01*
X44806384Y-2910429D01*
X44571194Y-2991170D01*
X44352485Y-3109529D01*
X44156259Y-3262259D01*
X44156256Y-3262261D01*
X44156256Y-3262262D01*
X43987837Y-3445214D01*
X43851825Y-3653395D01*
X43778746Y-3820000D01*
X43751937Y-3881119D01*
X43717667Y-4016447D01*
X43690891Y-4122183D01*
X43670356Y-4370000D01*
X42181141Y-4370000D01*
X42160613Y-4122267D01*
X42099586Y-3881278D01*
X41999730Y-3653630D01*
X41899434Y-3500116D01*
X41201929Y-4197622D01*
X41199116Y-4184085D01*
X41129558Y-4049844D01*
X41026362Y-3939348D01*
X40897181Y-3860791D01*
X40845997Y-3846450D01*
X41546057Y-3146390D01*
X41546056Y-3146388D01*
X41499235Y-3109947D01*
X41280606Y-2991631D01*
X41045493Y-2910916D01*
X40800293Y-2870000D01*
X40551707Y-2870000D01*
X40306506Y-2910916D01*
X40071393Y-2991631D01*
X39852764Y-3109946D01*
X39805942Y-3146388D01*
X39805942Y-3146390D01*
X40504431Y-3844878D01*
X40387542Y-3895651D01*
X40270261Y-3991066D01*
X40183072Y-4114585D01*
X40152645Y-4200197D01*
X39452564Y-3500116D01*
X39352266Y-3653634D01*
X39252413Y-3881278D01*
X39191386Y-4122267D01*
X39170858Y-4370000D01*
X38299643Y-4370000D01*
X38279108Y-4122179D01*
X38218063Y-3881119D01*
X38118173Y-3653393D01*
X37982164Y-3445215D01*
X37813744Y-3262262D01*
X37791612Y-3245036D01*
X37617514Y-3109529D01*
X37617510Y-3109526D01*
X37617509Y-3109526D01*
X37398810Y-2991172D01*
X37398806Y-2991170D01*
X37398805Y-2991170D01*
X37163615Y-2910429D01*
X36918335Y-2869500D01*
X36669665Y-2869500D01*
X36424384Y-2910429D01*
X36189194Y-2991170D01*
X35970485Y-3109529D01*
X35774259Y-3262259D01*
X35774256Y-3262261D01*
X35774256Y-3262262D01*
X35605837Y-3445214D01*
X35469825Y-3653395D01*
X35396746Y-3820000D01*
X35369937Y-3881119D01*
X35335667Y-4016447D01*
X35308891Y-4122183D01*
X35288356Y-4370000D01*
X33799141Y-4370000D01*
X33778613Y-4122267D01*
X33717586Y-3881278D01*
X33617730Y-3653630D01*
X33517434Y-3500116D01*
X32819928Y-4197621D01*
X32817116Y-4184085D01*
X32747558Y-4049844D01*
X32644362Y-3939348D01*
X32515181Y-3860791D01*
X32463995Y-3846449D01*
X33164056Y-3146389D01*
X33164056Y-3146387D01*
X33117235Y-3109947D01*
X32898606Y-2991631D01*
X32663493Y-2910916D01*
X32418293Y-2870000D01*
X32169707Y-2870000D01*
X31924506Y-2910916D01*
X31689393Y-2991631D01*
X31470764Y-3109946D01*
X31423942Y-3146388D01*
X31423942Y-3146390D01*
X32122431Y-3844878D01*
X32005542Y-3895651D01*
X31888261Y-3991066D01*
X31801072Y-4114585D01*
X31770645Y-4200197D01*
X31070564Y-3500116D01*
X30970266Y-3653634D01*
X30870413Y-3881278D01*
X30809386Y-4122267D01*
X30788858Y-4370000D01*
X29953643Y-4370000D01*
X29933108Y-4122179D01*
X29872063Y-3881119D01*
X29772173Y-3653393D01*
X29636164Y-3445215D01*
X29467744Y-3262262D01*
X29445612Y-3245036D01*
X29271514Y-3109529D01*
X29271510Y-3109526D01*
X29271509Y-3109526D01*
X29052810Y-2991172D01*
X29052806Y-2991170D01*
X29052805Y-2991170D01*
X28817615Y-2910429D01*
X28572335Y-2869500D01*
X28323665Y-2869500D01*
X28078384Y-2910429D01*
X27843194Y-2991170D01*
X27624485Y-3109529D01*
X27428259Y-3262259D01*
X27428256Y-3262261D01*
X27428256Y-3262262D01*
X27259837Y-3445214D01*
X27123825Y-3653395D01*
X27050746Y-3820000D01*
X27023937Y-3881119D01*
X26989667Y-4016447D01*
X26962891Y-4122183D01*
X26942356Y-4370000D01*
X25453141Y-4370000D01*
X25432613Y-4122267D01*
X25371586Y-3881278D01*
X25271730Y-3653630D01*
X25171434Y-3500116D01*
X24473929Y-4197622D01*
X24471116Y-4184085D01*
X24401558Y-4049844D01*
X24298362Y-3939348D01*
X24169181Y-3860791D01*
X24117997Y-3846450D01*
X24818057Y-3146390D01*
X24818056Y-3146388D01*
X24771235Y-3109947D01*
X24552606Y-2991631D01*
X24317493Y-2910916D01*
X24072293Y-2870000D01*
X23823707Y-2870000D01*
X23578506Y-2910916D01*
X23343393Y-2991631D01*
X23124764Y-3109946D01*
X23077942Y-3146388D01*
X23077942Y-3146390D01*
X23776431Y-3844878D01*
X23659542Y-3895651D01*
X23542261Y-3991066D01*
X23455072Y-4114585D01*
X23424645Y-4200197D01*
X22724564Y-3500116D01*
X22624266Y-3653634D01*
X22524413Y-3881278D01*
X22463386Y-4122267D01*
X22442858Y-4370000D01*
X21698643Y-4370000D01*
X21678108Y-4122179D01*
X21617063Y-3881119D01*
X21517173Y-3653393D01*
X21381164Y-3445215D01*
X21212744Y-3262262D01*
X21190612Y-3245036D01*
X21016514Y-3109529D01*
X21016510Y-3109526D01*
X21016509Y-3109526D01*
X20797810Y-2991172D01*
X20797806Y-2991170D01*
X20797805Y-2991170D01*
X20562615Y-2910429D01*
X20317335Y-2869500D01*
X20068665Y-2869500D01*
X19823384Y-2910429D01*
X19588194Y-2991170D01*
X19369485Y-3109529D01*
X19173259Y-3262259D01*
X19173256Y-3262261D01*
X19173256Y-3262262D01*
X19004837Y-3445214D01*
X18868825Y-3653395D01*
X18795746Y-3820000D01*
X18768937Y-3881119D01*
X18734667Y-4016447D01*
X18707891Y-4122183D01*
X18687356Y-4370000D01*
X17198141Y-4370000D01*
X17177613Y-4122267D01*
X17116586Y-3881278D01*
X17016730Y-3653630D01*
X16916434Y-3500116D01*
X16218929Y-4197622D01*
X16216116Y-4184085D01*
X16146558Y-4049844D01*
X16043362Y-3939348D01*
X15914181Y-3860791D01*
X15862995Y-3846449D01*
X16563056Y-3146389D01*
X16563056Y-3146387D01*
X16516235Y-3109947D01*
X16297606Y-2991631D01*
X16062493Y-2910916D01*
X15817293Y-2870000D01*
X15568707Y-2870000D01*
X15323506Y-2910916D01*
X15088393Y-2991631D01*
X14869764Y-3109946D01*
X14822942Y-3146388D01*
X14822941Y-3146389D01*
X15521431Y-3844878D01*
X15404542Y-3895651D01*
X15287261Y-3991066D01*
X15200072Y-4114585D01*
X15169645Y-4200197D01*
X14469564Y-3500116D01*
X14369266Y-3653634D01*
X14269413Y-3881278D01*
X14208386Y-4122267D01*
X14187858Y-4370000D01*
X9664326Y-4370000D01*
X9538503Y-4006457D01*
X9460391Y-3835416D01*
X9371505Y-3640784D01*
X9371502Y-3640779D01*
X9370279Y-3638100D01*
X9167803Y-3287400D01*
X9149902Y-3262262D01*
X8934619Y-2959940D01*
X8934617Y-2959938D01*
X8932907Y-2957536D01*
X8667720Y-2651493D01*
X8374642Y-2372044D01*
X8056328Y-2121719D01*
X8053855Y-2120129D01*
X8053847Y-2120124D01*
X7718141Y-1904379D01*
X7718134Y-1904375D01*
X7715660Y-1902785D01*
X7713052Y-1901440D01*
X7713046Y-1901437D01*
X7358348Y-1718578D01*
X7355724Y-1717225D01*
X6979779Y-1566719D01*
X6903345Y-1544276D01*
X6594066Y-1453463D01*
X6594051Y-1453459D01*
X6591230Y-1452631D01*
X6588332Y-1452072D01*
X6588326Y-1452071D01*
X6196496Y-1376552D01*
X6196493Y-1376551D01*
X6193595Y-1375993D01*
X6190675Y-1375714D01*
X6190660Y-1375712D01*
X5793411Y-1337780D01*
X5793405Y-1337779D01*
X5790476Y-1337500D01*
X5385524Y-1337500D01*
X5382595Y-1337779D01*
X5382588Y-1337780D01*
X4985339Y-1375712D01*
X4985321Y-1375714D01*
X4982405Y-1375993D01*
X4979509Y-1376551D01*
X4979503Y-1376552D01*
X4587673Y-1452071D01*
X4587663Y-1452073D01*
X4584770Y-1452631D01*
X4581952Y-1453458D01*
X4581933Y-1453463D01*
X4199047Y-1565889D01*
X4199042Y-1565890D01*
X4196221Y-1566719D01*
X4193496Y-1567809D01*
X4193490Y-1567812D01*
X3823018Y-1716127D01*
X3823013Y-1716129D01*
X3820276Y-1717225D01*
X3817655Y-1718575D01*
X3817651Y-1718578D01*
X3462953Y-1901437D01*
X3462938Y-1901445D01*
X3460340Y-1902785D01*
X3457874Y-1904369D01*
X3457858Y-1904379D01*
X3122152Y-2120124D01*
X3122134Y-2120136D01*
X3119672Y-2121719D01*
X3117374Y-2123526D01*
X3117363Y-2123534D01*
X2803670Y-2370225D01*
X2803659Y-2370233D01*
X2801358Y-2372044D01*
X2799235Y-2374067D01*
X2799226Y-2374076D01*
X2510404Y-2649467D01*
X2510395Y-2649475D01*
X2508280Y-2651493D01*
X2506359Y-2653709D01*
X2506358Y-2653711D01*
X2245022Y-2955309D01*
X2245015Y-2955317D01*
X2243093Y-2957536D01*
X2241391Y-2959925D01*
X2241380Y-2959940D01*
X2009914Y-3284987D01*
X2009902Y-3285005D01*
X2008197Y-3287400D01*
X2006725Y-3289949D01*
X2006717Y-3289962D01*
X1807197Y-3635543D01*
X1805721Y-3638100D01*
X1804504Y-3640762D01*
X1804494Y-3640784D01*
X1638723Y-4003770D01*
X1638715Y-4003789D01*
X1637497Y-4006457D01*
X1636535Y-4009236D01*
X1636530Y-4009249D01*
X1506018Y-4386339D01*
X1506013Y-4386353D01*
X1505050Y-4389138D01*
X1504354Y-4392004D01*
X1504353Y-4392010D01*
X1410275Y-4779803D01*
X1410272Y-4779817D01*
X1409579Y-4782675D01*
X1409159Y-4785594D01*
X1409158Y-4785601D01*
X1352366Y-5180593D01*
X1352364Y-5180610D01*
X1351948Y-5183506D01*
X1351808Y-5186438D01*
X1351808Y-5186442D01*
X1346647Y-5294785D01*
X1332680Y-5588000D01*
X116500Y-5588000D01*
X116500Y-2092065D01*
X116765Y-2083955D01*
X121982Y-2004359D01*
X121983Y-2004350D01*
X134709Y-1826407D01*
X136770Y-1811101D01*
X159163Y-1698523D01*
X189795Y-1557717D01*
X193515Y-1544318D01*
X232243Y-1430230D01*
X233404Y-1426967D01*
X281068Y-1299177D01*
X286017Y-1287713D01*
X340481Y-1177272D01*
X342777Y-1172851D01*
X406855Y-1055501D01*
X412562Y-1046075D01*
X481639Y-942694D01*
X485425Y-937344D01*
X564850Y-831246D01*
X570823Y-823878D01*
X653161Y-729989D01*
X658648Y-724131D01*
X752131Y-630648D01*
X757989Y-625161D01*
X851878Y-542823D01*
X859246Y-536850D01*
X965344Y-457425D01*
X970694Y-453639D01*
X1074075Y-384562D01*
X1083501Y-378855D01*
X1200851Y-314777D01*
X1205272Y-312481D01*
X1315713Y-258017D01*
X1327177Y-253068D01*
X1454967Y-205404D01*
X1458230Y-204243D01*
X1572305Y-165519D01*
X1585754Y-161787D01*
X1726546Y-131159D01*
X1839125Y-108766D01*
X1854402Y-106709D01*
X2032208Y-93991D01*
X2108267Y-89006D01*
X2111958Y-88765D01*
X2120063Y-88500D01*
X69111935Y-88500D01*
X69120042Y-88764D01*
G37*
%TD.AperFunction*%
%TD*%
M02*
