%TF.GenerationSoftware,KiCad,Pcbnew,7.0.5-0*%
%TF.CreationDate,2023-06-05T19:49:20-04:00*%
%TF.ProjectId,7-segment-display-controller,372d7365-676d-4656-9e74-2d646973706c,B*%
%TF.SameCoordinates,Original*%
%TF.FileFunction,Copper,L3,Inr*%
%TF.FilePolarity,Positive*%
%FSLAX46Y46*%
G04 Gerber Fmt 4.6, Leading zero omitted, Abs format (unit mm)*
G04 Created by KiCad (PCBNEW 7.0.5-0) date 2023-06-05 19:49:20*
%MOMM*%
%LPD*%
G01*
G04 APERTURE LIST*
G04 Aperture macros list*
%AMRoundRect*
0 Rectangle with rounded corners*
0 $1 Rounding radius*
0 $2 $3 $4 $5 $6 $7 $8 $9 X,Y pos of 4 corners*
0 Add a 4 corners polygon primitive as box body*
4,1,4,$2,$3,$4,$5,$6,$7,$8,$9,$2,$3,0*
0 Add four circle primitives for the rounded corners*
1,1,$1+$1,$2,$3*
1,1,$1+$1,$4,$5*
1,1,$1+$1,$6,$7*
1,1,$1+$1,$8,$9*
0 Add four rect primitives between the rounded corners*
20,1,$1+$1,$2,$3,$4,$5,0*
20,1,$1+$1,$4,$5,$6,$7,0*
20,1,$1+$1,$6,$7,$8,$9,0*
20,1,$1+$1,$8,$9,$2,$3,0*%
G04 Aperture macros list end*
%TA.AperFunction,ComponentPad*%
%ADD10R,1.700000X1.700000*%
%TD*%
%TA.AperFunction,ComponentPad*%
%ADD11O,1.700000X1.700000*%
%TD*%
%TA.AperFunction,ComponentPad*%
%ADD12C,0.800000*%
%TD*%
%TA.AperFunction,ComponentPad*%
%ADD13C,6.400000*%
%TD*%
%TA.AperFunction,ComponentPad*%
%ADD14O,1.200000X1.900000*%
%TD*%
%TA.AperFunction,ComponentPad*%
%ADD15C,1.450000*%
%TD*%
%TA.AperFunction,ComponentPad*%
%ADD16RoundRect,0.250000X0.350000X0.625000X-0.350000X0.625000X-0.350000X-0.625000X0.350000X-0.625000X0*%
%TD*%
%TA.AperFunction,ComponentPad*%
%ADD17O,1.200000X1.750000*%
%TD*%
%TA.AperFunction,ComponentPad*%
%ADD18RoundRect,0.250000X-0.725000X0.600000X-0.725000X-0.600000X0.725000X-0.600000X0.725000X0.600000X0*%
%TD*%
%TA.AperFunction,ComponentPad*%
%ADD19O,1.950000X1.700000*%
%TD*%
%TA.AperFunction,ComponentPad*%
%ADD20C,1.500000*%
%TD*%
%TA.AperFunction,ComponentPad*%
%ADD21RoundRect,0.250000X0.625000X-0.350000X0.625000X0.350000X-0.625000X0.350000X-0.625000X-0.350000X0*%
%TD*%
%TA.AperFunction,ComponentPad*%
%ADD22O,1.750000X1.200000*%
%TD*%
%TA.AperFunction,ComponentPad*%
%ADD23RoundRect,0.250000X-0.350000X-0.625000X0.350000X-0.625000X0.350000X0.625000X-0.350000X0.625000X0*%
%TD*%
%TA.AperFunction,ComponentPad*%
%ADD24RoundRect,0.250000X-0.625000X0.350000X-0.625000X-0.350000X0.625000X-0.350000X0.625000X0.350000X0*%
%TD*%
%TA.AperFunction,ViaPad*%
%ADD25C,0.800000*%
%TD*%
G04 APERTURE END LIST*
D10*
%TO.N,GND*%
%TO.C,OLED101*%
X13388000Y-11079000D03*
D11*
%TO.N,+3V3*%
X13388000Y-8539000D03*
%TO.N,/SCL*%
X13388000Y-5999000D03*
%TO.N,/SDA*%
X13388000Y-3459000D03*
%TD*%
D12*
%TO.N,GND*%
%TO.C,H104*%
X2807000Y-48768000D03*
X3509944Y-47070944D03*
X3509944Y-50465056D03*
X5207000Y-46368000D03*
D13*
X5207000Y-48768000D03*
D12*
X5207000Y-51168000D03*
X6904056Y-47070944D03*
X6904056Y-50465056D03*
X7607000Y-48768000D03*
%TD*%
D14*
%TO.N,GND*%
%TO.C,J102*%
X19690200Y-52494700D03*
D15*
X20690200Y-49794700D03*
X25690200Y-49794700D03*
D14*
X26690200Y-52494700D03*
%TD*%
D16*
%TO.N,+3V3*%
%TO.C,J106*%
X57658000Y-6731000D03*
D17*
%TO.N,/IR_RECV*%
X55658000Y-6731000D03*
%TO.N,GND*%
X53658000Y-6731000D03*
%TD*%
D18*
%TO.N,GND*%
%TO.C,J104*%
X6731000Y-24297000D03*
D19*
%TO.N,Net-(J104-Pin_2)*%
X6731000Y-26797000D03*
%TO.N,+5V*%
X6731000Y-29297000D03*
%TD*%
D20*
%TO.N,*%
%TO.C,BT101*%
X56602800Y-36322000D03*
X64102800Y-36322000D03*
%TD*%
D12*
%TO.N,GND*%
%TO.C,H103*%
X2807000Y-5080000D03*
X3509944Y-3382944D03*
X3509944Y-6777056D03*
X5207000Y-2680000D03*
D13*
X5207000Y-5080000D03*
D12*
X5207000Y-7480000D03*
X6904056Y-3382944D03*
X6904056Y-6777056D03*
X7607000Y-5080000D03*
%TD*%
D21*
%TO.N,VBUS*%
%TO.C,J103*%
X64262000Y-25908000D03*
D22*
%TO.N,/UART_TX*%
X64262000Y-23908000D03*
%TO.N,/UART_RX*%
X64262000Y-21908000D03*
%TO.N,GND*%
X64262000Y-19908000D03*
%TD*%
D12*
%TO.N,GND*%
%TO.C,H101*%
X63513000Y-5080000D03*
X64215944Y-3382944D03*
X64215944Y-6777056D03*
X65913000Y-2680000D03*
D13*
X65913000Y-5080000D03*
D12*
X65913000Y-7480000D03*
X67610056Y-3382944D03*
X67610056Y-6777056D03*
X68313000Y-5080000D03*
%TD*%
%TO.N,GND*%
%TO.C,H102*%
X63513000Y-48768000D03*
X64215944Y-47070944D03*
X64215944Y-50465056D03*
X65913000Y-46368000D03*
D13*
X65913000Y-48768000D03*
D12*
X65913000Y-51168000D03*
X67610056Y-47070944D03*
X67610056Y-50465056D03*
X68313000Y-48768000D03*
%TD*%
D23*
%TO.N,GND*%
%TO.C,J107*%
X51455000Y-47608000D03*
D17*
%TO.N,VBUS*%
X53455000Y-47608000D03*
%TD*%
D24*
%TO.N,+3V3*%
%TO.C,J105*%
X6207000Y-12605000D03*
D22*
%TO.N,/SCL*%
X6207000Y-14605000D03*
%TO.N,/SDA*%
X6207000Y-16605000D03*
%TO.N,GND*%
X6207000Y-18605000D03*
%TD*%
D25*
%TO.N,GND*%
X49657000Y-35941000D03*
X19685000Y-31115000D03*
X13843000Y-24003000D03*
X58801000Y-24511000D03*
X41275000Y-39116000D03*
X24511000Y-48499900D03*
X38735000Y-38481000D03*
X10033000Y-34163000D03*
X42875200Y-28651200D03*
X35687000Y-38862000D03*
X38354000Y-35052000D03*
X29591000Y-18288000D03*
X40335200Y-46736000D03*
X23876000Y-32639000D03*
X17526000Y-16002000D03*
X37732000Y-19253200D03*
X43611800Y-37236400D03*
X47599600Y-30632400D03*
X31115000Y-18288000D03*
X26919701Y-23245299D03*
X41198800Y-28600400D03*
X41986200Y-30403800D03*
X59182000Y-15621000D03*
X26670000Y-17272000D03*
X64516000Y-38404800D03*
X37338000Y-42164000D03*
X9779000Y-38100000D03*
X49403000Y-29591000D03*
X58801000Y-19964400D03*
X44932600Y-36449000D03*
X2971800Y-43129200D03*
X17272000Y-29718000D03*
X20066000Y-16002000D03*
X1701800Y-43129200D03*
X58808200Y-22156000D03*
X25146000Y-44323000D03*
X12065000Y-15240000D03*
X48425600Y-32258000D03*
%TO.N,+3V3*%
X43942000Y-41148000D03*
X6477000Y-33020000D03*
X23876000Y-34163000D03*
X46126400Y-27686000D03*
X52552600Y-18389600D03*
X28067000Y-18288000D03*
X20701000Y-24511000D03*
X37592000Y-38862000D03*
X22225000Y-26416000D03*
X2413000Y-33020000D03*
X4445000Y-33020000D03*
X36182000Y-19253200D03*
X32893000Y-50292000D03*
%TO.N,/NRST*%
X50038000Y-19177000D03*
X26416000Y-21971000D03*
X36449000Y-27305000D03*
%TO.N,/LED_HB*%
X33274000Y-20193000D03*
X45847000Y-22352000D03*
%TO.N,/SWO*%
X26924000Y-24384000D03*
X22225000Y-17272000D03*
X32258000Y-30861000D03*
%TO.N,/SWCLK*%
X30861000Y-30734000D03*
X21971000Y-22606000D03*
%TO.N,/SWDIO*%
X21971000Y-24384000D03*
X29337000Y-29210000D03*
%TO.N,VBUS*%
X17783000Y-44326000D03*
X18415000Y-45974000D03*
X15367000Y-45974000D03*
X16891000Y-45974000D03*
%TO.N,/VBAT*%
X36897000Y-32960000D03*
X37338000Y-41021000D03*
%TO.N,/LED_UI*%
X34798000Y-25908000D03*
X46228000Y-24384000D03*
%TO.N,/SCL*%
X33147000Y-32258000D03*
X24892000Y-29083000D03*
X18161000Y-24638000D03*
%TO.N,/SDA*%
X34290000Y-33274000D03*
X23368000Y-29210000D03*
X16891000Y-24638000D03*
%TD*%
%TA.AperFunction,Conductor*%
%TO.N,+3V3*%
G36*
X69118019Y-88633D02*
G01*
X69156149Y-91131D01*
X69199793Y-93992D01*
X69381459Y-106985D01*
X69389102Y-108015D01*
X69505451Y-131158D01*
X69649666Y-162531D01*
X69656383Y-164395D01*
X69774618Y-204531D01*
X69776224Y-205103D01*
X69907740Y-254156D01*
X69913483Y-256635D01*
X70027830Y-313024D01*
X70030042Y-314173D01*
X70150913Y-380173D01*
X70155641Y-383037D01*
X70262649Y-454537D01*
X70265358Y-456454D01*
X70374652Y-538271D01*
X70378345Y-541265D01*
X70475502Y-626469D01*
X70478448Y-629228D01*
X70574769Y-725549D01*
X70577526Y-728492D01*
X70662729Y-825648D01*
X70665732Y-829353D01*
X70717564Y-898592D01*
X70747543Y-938639D01*
X70749461Y-941349D01*
X70820961Y-1048357D01*
X70823828Y-1053091D01*
X70889802Y-1173912D01*
X70890992Y-1176204D01*
X70947356Y-1290499D01*
X70949842Y-1296258D01*
X70998878Y-1427727D01*
X70999497Y-1429465D01*
X71039597Y-1547596D01*
X71041472Y-1554352D01*
X71072848Y-1698590D01*
X71095980Y-1814880D01*
X71097015Y-1822560D01*
X71110021Y-2004413D01*
X71115367Y-2085966D01*
X71115500Y-2090023D01*
X71115500Y-52085976D01*
X71115367Y-52090025D01*
X71113690Y-52115608D01*
X71110021Y-52171585D01*
X71097015Y-52353438D01*
X71095980Y-52361118D01*
X71072848Y-52477408D01*
X71041472Y-52621646D01*
X71039597Y-52628402D01*
X70999497Y-52746533D01*
X70998878Y-52748271D01*
X70949842Y-52879740D01*
X70947356Y-52885499D01*
X70890992Y-52999794D01*
X70889802Y-53002086D01*
X70823828Y-53122907D01*
X70820961Y-53127641D01*
X70749461Y-53234649D01*
X70747543Y-53237359D01*
X70665744Y-53346631D01*
X70662723Y-53350357D01*
X70577529Y-53447502D01*
X70574755Y-53450464D01*
X70478464Y-53546755D01*
X70475502Y-53549529D01*
X70378357Y-53634723D01*
X70374631Y-53637744D01*
X70265359Y-53719543D01*
X70262649Y-53721461D01*
X70155641Y-53792961D01*
X70150907Y-53795828D01*
X70030086Y-53861802D01*
X70027794Y-53862992D01*
X69913499Y-53919356D01*
X69907740Y-53921842D01*
X69776271Y-53970878D01*
X69774533Y-53971497D01*
X69656402Y-54011597D01*
X69649646Y-54013472D01*
X69505408Y-54044848D01*
X69389118Y-54067980D01*
X69381438Y-54069015D01*
X69199585Y-54082021D01*
X69143608Y-54085690D01*
X69118025Y-54087367D01*
X69113976Y-54087500D01*
X27188025Y-54087500D01*
X27120986Y-54067815D01*
X27075231Y-54015011D01*
X27065287Y-53945853D01*
X27094312Y-53882297D01*
X27136514Y-53850706D01*
X27242943Y-53802101D01*
X27242946Y-53802099D01*
X27242953Y-53802096D01*
X27414152Y-53680186D01*
X27483379Y-53607583D01*
X27559185Y-53528079D01*
X27576035Y-53501860D01*
X27672813Y-53351272D01*
X27750925Y-53156157D01*
X27790700Y-52949785D01*
X27790700Y-52092275D01*
X27775728Y-51935482D01*
X27716516Y-51733825D01*
X27620211Y-51547018D01*
X27620209Y-51547016D01*
X27620208Y-51547013D01*
X27490294Y-51381816D01*
X27490290Y-51381812D01*
X27331453Y-51244178D01*
X27149449Y-51139098D01*
X27149445Y-51139096D01*
X27149444Y-51139096D01*
X26950833Y-51070356D01*
X26742802Y-51040446D01*
X26742798Y-51040446D01*
X26532872Y-51050445D01*
X26448068Y-51071019D01*
X26407478Y-51080865D01*
X26337689Y-51077541D01*
X26280774Y-51037013D01*
X26254806Y-50972148D01*
X26268029Y-50903541D01*
X26307119Y-50858787D01*
X26480945Y-50737073D01*
X26632573Y-50585445D01*
X26755568Y-50409791D01*
X26846192Y-50215447D01*
X26901692Y-50008319D01*
X26920381Y-49794700D01*
X26901692Y-49581081D01*
X26859550Y-49423809D01*
X26846194Y-49373960D01*
X26846193Y-49373959D01*
X26846192Y-49373953D01*
X26755568Y-49179610D01*
X26750791Y-49172788D01*
X26632576Y-49003959D01*
X26632571Y-49003953D01*
X26480945Y-48852327D01*
X26305290Y-48729331D01*
X26208118Y-48684019D01*
X26110947Y-48638708D01*
X26110943Y-48638707D01*
X26110939Y-48638705D01*
X25903824Y-48583209D01*
X25903820Y-48583208D01*
X25903819Y-48583208D01*
X25903818Y-48583207D01*
X25903813Y-48583207D01*
X25690202Y-48564519D01*
X25690198Y-48564519D01*
X25547074Y-48577040D01*
X25478574Y-48563273D01*
X25428391Y-48514658D01*
X25412947Y-48466476D01*
X25396674Y-48311644D01*
X25387367Y-48283001D01*
X50354500Y-48283001D01*
X50354501Y-48283018D01*
X50365000Y-48385796D01*
X50365001Y-48385799D01*
X50420185Y-48552331D01*
X50420187Y-48552336D01*
X50439229Y-48583208D01*
X50512288Y-48701656D01*
X50636344Y-48825712D01*
X50785666Y-48917814D01*
X50952203Y-48972999D01*
X51054991Y-48983500D01*
X51855008Y-48983499D01*
X51855016Y-48983498D01*
X51855019Y-48983498D01*
X51916143Y-48977254D01*
X51957797Y-48972999D01*
X52124334Y-48917814D01*
X52273656Y-48825712D01*
X52397712Y-48701656D01*
X52436815Y-48638258D01*
X52488761Y-48591535D01*
X52557723Y-48580312D01*
X52621806Y-48608155D01*
X52639824Y-48626705D01*
X52654907Y-48645885D01*
X52654909Y-48645887D01*
X52813746Y-48783521D01*
X52995750Y-48888601D01*
X52995752Y-48888601D01*
X52995756Y-48888604D01*
X53194367Y-48957344D01*
X53402398Y-48987254D01*
X53612330Y-48977254D01*
X53816576Y-48927704D01*
X53902199Y-48888601D01*
X54007743Y-48840401D01*
X54007746Y-48840399D01*
X54007753Y-48840396D01*
X54109419Y-48768000D01*
X62207422Y-48768000D01*
X62227722Y-49155339D01*
X62248108Y-49284051D01*
X62288398Y-49538433D01*
X62299825Y-49581081D01*
X62388788Y-49913094D01*
X62527787Y-50275197D01*
X62703877Y-50620793D01*
X62915122Y-50946082D01*
X63039761Y-51099998D01*
X63159219Y-51247516D01*
X63433484Y-51521781D01*
X63601375Y-51657737D01*
X63734917Y-51765877D01*
X63996080Y-51935478D01*
X64060211Y-51977125D01*
X64405806Y-52153214D01*
X64767913Y-52292214D01*
X65142567Y-52392602D01*
X65525662Y-52453278D01*
X65891576Y-52472455D01*
X65912999Y-52473578D01*
X65913000Y-52473578D01*
X65913001Y-52473578D01*
X65933300Y-52472514D01*
X66300338Y-52453278D01*
X66683433Y-52392602D01*
X67058087Y-52292214D01*
X67420194Y-52153214D01*
X67765789Y-51977125D01*
X68091084Y-51765876D01*
X68392516Y-51521781D01*
X68666781Y-51247516D01*
X68910876Y-50946084D01*
X69122125Y-50620789D01*
X69298214Y-50275194D01*
X69437214Y-49913087D01*
X69537602Y-49538433D01*
X69598278Y-49155338D01*
X69618578Y-48768000D01*
X69598278Y-48380662D01*
X69537602Y-47997567D01*
X69437214Y-47622913D01*
X69298214Y-47260806D01*
X69122125Y-46915211D01*
X69020127Y-46758148D01*
X68910877Y-46589917D01*
X68737327Y-46375601D01*
X68666781Y-46288484D01*
X68392516Y-46014219D01*
X68315494Y-45951848D01*
X68091082Y-45770122D01*
X67765793Y-45558877D01*
X67420197Y-45382787D01*
X67058094Y-45243788D01*
X67058087Y-45243786D01*
X66683433Y-45143398D01*
X66683429Y-45143397D01*
X66683428Y-45143397D01*
X66300339Y-45082722D01*
X65913001Y-45062422D01*
X65912999Y-45062422D01*
X65525660Y-45082722D01*
X65142572Y-45143397D01*
X65142570Y-45143397D01*
X64767905Y-45243788D01*
X64405802Y-45382787D01*
X64060206Y-45558877D01*
X63734917Y-45770122D01*
X63433488Y-46014215D01*
X63433480Y-46014222D01*
X63159222Y-46288480D01*
X63159215Y-46288488D01*
X62915122Y-46589917D01*
X62703877Y-46915206D01*
X62527787Y-47260802D01*
X62388788Y-47622905D01*
X62288397Y-47997570D01*
X62288397Y-47997572D01*
X62227722Y-48380660D01*
X62207422Y-48767999D01*
X62207422Y-48768000D01*
X54109419Y-48768000D01*
X54178952Y-48718486D01*
X54194999Y-48701657D01*
X54323985Y-48566379D01*
X54323986Y-48566378D01*
X54437613Y-48389572D01*
X54515725Y-48194457D01*
X54555500Y-47988085D01*
X54555500Y-47280575D01*
X54540528Y-47123782D01*
X54481316Y-46922125D01*
X54385011Y-46735318D01*
X54385009Y-46735316D01*
X54385008Y-46735313D01*
X54255094Y-46570116D01*
X54255090Y-46570112D01*
X54096253Y-46432478D01*
X53914249Y-46327398D01*
X53914245Y-46327396D01*
X53914244Y-46327396D01*
X53715633Y-46258656D01*
X53507602Y-46228746D01*
X53507598Y-46228746D01*
X53297672Y-46238745D01*
X53093421Y-46288296D01*
X53093417Y-46288298D01*
X52902256Y-46375598D01*
X52902251Y-46375601D01*
X52731046Y-46497515D01*
X52731045Y-46497515D01*
X52633249Y-46600082D01*
X52572740Y-46635017D01*
X52502949Y-46631692D01*
X52446035Y-46591164D01*
X52437967Y-46579608D01*
X52418313Y-46547744D01*
X52397712Y-46514344D01*
X52273656Y-46390288D01*
X52180888Y-46333069D01*
X52124336Y-46298187D01*
X52124331Y-46298185D01*
X52094488Y-46288296D01*
X51957797Y-46243001D01*
X51957795Y-46243000D01*
X51855010Y-46232500D01*
X51054998Y-46232500D01*
X51054980Y-46232501D01*
X50952203Y-46243000D01*
X50952200Y-46243001D01*
X50785668Y-46298185D01*
X50785663Y-46298187D01*
X50636342Y-46390289D01*
X50512289Y-46514342D01*
X50420187Y-46663663D01*
X50420185Y-46663666D01*
X50420186Y-46663666D01*
X50365001Y-46830203D01*
X50365001Y-46830204D01*
X50365000Y-46830204D01*
X50354500Y-46932983D01*
X50354500Y-48283001D01*
X25387367Y-48283001D01*
X25338179Y-48131616D01*
X25243533Y-47967684D01*
X25116871Y-47827012D01*
X25116870Y-47827011D01*
X24963734Y-47715751D01*
X24963729Y-47715748D01*
X24790807Y-47638757D01*
X24790802Y-47638755D01*
X24645001Y-47607765D01*
X24605646Y-47599400D01*
X24416354Y-47599400D01*
X24383897Y-47606298D01*
X24231197Y-47638755D01*
X24231192Y-47638757D01*
X24058270Y-47715748D01*
X24058265Y-47715751D01*
X23905129Y-47827011D01*
X23778466Y-47967685D01*
X23683821Y-48131615D01*
X23683818Y-48131622D01*
X23634630Y-48283008D01*
X23625326Y-48311644D01*
X23605540Y-48499900D01*
X23625326Y-48688156D01*
X23625327Y-48688159D01*
X23683818Y-48868177D01*
X23683821Y-48868184D01*
X23778467Y-49032116D01*
X23889417Y-49155338D01*
X23905129Y-49172788D01*
X24058265Y-49284048D01*
X24058270Y-49284051D01*
X24231192Y-49361042D01*
X24231197Y-49361044D01*
X24393339Y-49395508D01*
X24454821Y-49428700D01*
X24488597Y-49489863D01*
X24487333Y-49548890D01*
X24478710Y-49581072D01*
X24478707Y-49581086D01*
X24460019Y-49794698D01*
X24460019Y-49794701D01*
X24478707Y-50008313D01*
X24478709Y-50008324D01*
X24534205Y-50215439D01*
X24534207Y-50215443D01*
X24534208Y-50215447D01*
X24562070Y-50275197D01*
X24624831Y-50409790D01*
X24624832Y-50409791D01*
X24747827Y-50585445D01*
X24899455Y-50737073D01*
X25075109Y-50860068D01*
X25269453Y-50950692D01*
X25476581Y-51006192D01*
X25629166Y-51019541D01*
X25690198Y-51024881D01*
X25690200Y-51024881D01*
X25690202Y-51024881D01*
X25743604Y-51020208D01*
X25903819Y-51006192D01*
X26022299Y-50974445D01*
X26092148Y-50976108D01*
X26150011Y-51015270D01*
X26177515Y-51079499D01*
X26165929Y-51148401D01*
X26126319Y-51195227D01*
X25966252Y-51309209D01*
X25966240Y-51309220D01*
X25821214Y-51461320D01*
X25707588Y-51638125D01*
X25629474Y-51833244D01*
X25601744Y-51977125D01*
X25589700Y-52039615D01*
X25589700Y-52897125D01*
X25599723Y-53002086D01*
X25604672Y-53053917D01*
X25604673Y-53053921D01*
X25657739Y-53234649D01*
X25663884Y-53255575D01*
X25710837Y-53346652D01*
X25760191Y-53442386D01*
X25890105Y-53607583D01*
X25890109Y-53607587D01*
X26048946Y-53745221D01*
X26230947Y-53850299D01*
X26230956Y-53850304D01*
X26230963Y-53850306D01*
X26231826Y-53850701D01*
X26232193Y-53851019D01*
X26236071Y-53853258D01*
X26235639Y-53854005D01*
X26284634Y-53896452D01*
X26304324Y-53963489D01*
X26284645Y-54030530D01*
X26231845Y-54076290D01*
X26180324Y-54087500D01*
X20188025Y-54087500D01*
X20120986Y-54067815D01*
X20075231Y-54015011D01*
X20065287Y-53945853D01*
X20094312Y-53882297D01*
X20136514Y-53850706D01*
X20242943Y-53802101D01*
X20242946Y-53802099D01*
X20242953Y-53802096D01*
X20414152Y-53680186D01*
X20483379Y-53607583D01*
X20559185Y-53528079D01*
X20576035Y-53501860D01*
X20672813Y-53351272D01*
X20750925Y-53156157D01*
X20790700Y-52949785D01*
X20790700Y-52092275D01*
X20775728Y-51935482D01*
X20716516Y-51733825D01*
X20620211Y-51547018D01*
X20620209Y-51547016D01*
X20620208Y-51547013D01*
X20490294Y-51381816D01*
X20490290Y-51381812D01*
X20331453Y-51244178D01*
X20252270Y-51198462D01*
X20204054Y-51147895D01*
X20190832Y-51079288D01*
X20216800Y-51014423D01*
X20273714Y-50973895D01*
X20343504Y-50970570D01*
X20346338Y-50971293D01*
X20476581Y-51006192D01*
X20629165Y-51019541D01*
X20690198Y-51024881D01*
X20690200Y-51024881D01*
X20690202Y-51024881D01*
X20743604Y-51020208D01*
X20903819Y-51006192D01*
X21110947Y-50950692D01*
X21305291Y-50860068D01*
X21480945Y-50737073D01*
X21632573Y-50585445D01*
X21755568Y-50409791D01*
X21846192Y-50215447D01*
X21901692Y-50008319D01*
X21920381Y-49794700D01*
X21901692Y-49581081D01*
X21859550Y-49423809D01*
X21846194Y-49373960D01*
X21846193Y-49373959D01*
X21846192Y-49373953D01*
X21755568Y-49179610D01*
X21750791Y-49172788D01*
X21632576Y-49003959D01*
X21632571Y-49003953D01*
X21480945Y-48852327D01*
X21305290Y-48729331D01*
X21208118Y-48684019D01*
X21110947Y-48638708D01*
X21110943Y-48638707D01*
X21110939Y-48638705D01*
X20903824Y-48583209D01*
X20903820Y-48583208D01*
X20903819Y-48583208D01*
X20903818Y-48583207D01*
X20903813Y-48583207D01*
X20690202Y-48564519D01*
X20690198Y-48564519D01*
X20476586Y-48583207D01*
X20476575Y-48583209D01*
X20269460Y-48638705D01*
X20269451Y-48638709D01*
X20075110Y-48729331D01*
X20075108Y-48729332D01*
X19899459Y-48852323D01*
X19899453Y-48852328D01*
X19747828Y-49003953D01*
X19747823Y-49003959D01*
X19624832Y-49179608D01*
X19624831Y-49179610D01*
X19534209Y-49373951D01*
X19534205Y-49373960D01*
X19478709Y-49581075D01*
X19478707Y-49581086D01*
X19460019Y-49794698D01*
X19460019Y-49794701D01*
X19478707Y-50008313D01*
X19478709Y-50008324D01*
X19534205Y-50215439D01*
X19534207Y-50215443D01*
X19534208Y-50215447D01*
X19562070Y-50275197D01*
X19624831Y-50409790D01*
X19747827Y-50585445D01*
X19899454Y-50737072D01*
X20063510Y-50851946D01*
X20107135Y-50906524D01*
X20114327Y-50976022D01*
X20082805Y-51038377D01*
X20022575Y-51073790D01*
X19956712Y-51071175D01*
X19956573Y-51071749D01*
X19953721Y-51071057D01*
X19952760Y-51071019D01*
X19951830Y-51070701D01*
X19950838Y-51070357D01*
X19950834Y-51070356D01*
X19950833Y-51070356D01*
X19742802Y-51040446D01*
X19742798Y-51040446D01*
X19532872Y-51050445D01*
X19328621Y-51099996D01*
X19328617Y-51099998D01*
X19137456Y-51187298D01*
X19137451Y-51187301D01*
X18966246Y-51309215D01*
X18966240Y-51309220D01*
X18821214Y-51461320D01*
X18707588Y-51638125D01*
X18629474Y-51833244D01*
X18601744Y-51977125D01*
X18589700Y-52039615D01*
X18589700Y-52897125D01*
X18599723Y-53002086D01*
X18604672Y-53053917D01*
X18604673Y-53053921D01*
X18657739Y-53234649D01*
X18663884Y-53255575D01*
X18710837Y-53346652D01*
X18760191Y-53442386D01*
X18890105Y-53607583D01*
X18890109Y-53607587D01*
X19048946Y-53745221D01*
X19230947Y-53850299D01*
X19230956Y-53850304D01*
X19230963Y-53850306D01*
X19231826Y-53850701D01*
X19232193Y-53851019D01*
X19236071Y-53853258D01*
X19235639Y-53854005D01*
X19284634Y-53896452D01*
X19304324Y-53963489D01*
X19284645Y-54030530D01*
X19231845Y-54076290D01*
X19180324Y-54087500D01*
X2118024Y-54087500D01*
X2113974Y-54087367D01*
X2083355Y-54085360D01*
X2032413Y-54082021D01*
X1850560Y-54069015D01*
X1842880Y-54067980D01*
X1726590Y-54044848D01*
X1582352Y-54013472D01*
X1575596Y-54011597D01*
X1457465Y-53971497D01*
X1455727Y-53970878D01*
X1324258Y-53921842D01*
X1318499Y-53919356D01*
X1204204Y-53862992D01*
X1201912Y-53861802D01*
X1181591Y-53850706D01*
X1162890Y-53840494D01*
X1081091Y-53795828D01*
X1076357Y-53792961D01*
X969349Y-53721461D01*
X966639Y-53719543D01*
X914054Y-53680179D01*
X857353Y-53637732D01*
X853648Y-53634729D01*
X756492Y-53549526D01*
X753549Y-53546769D01*
X657228Y-53450448D01*
X654469Y-53447502D01*
X569265Y-53350345D01*
X566271Y-53346652D01*
X484454Y-53237358D01*
X482537Y-53234649D01*
X411037Y-53127641D01*
X408170Y-53122907D01*
X342173Y-53002042D01*
X341024Y-52999830D01*
X284635Y-52885483D01*
X282156Y-52879740D01*
X233103Y-52748224D01*
X232531Y-52746618D01*
X192395Y-52628383D01*
X190531Y-52621666D01*
X159150Y-52477408D01*
X136015Y-52361102D01*
X134985Y-52353459D01*
X121992Y-52171793D01*
X116781Y-52092280D01*
X116633Y-52090018D01*
X116500Y-52085963D01*
X116500Y-48768000D01*
X1501422Y-48768000D01*
X1521722Y-49155339D01*
X1542108Y-49284051D01*
X1582398Y-49538433D01*
X1593825Y-49581081D01*
X1682788Y-49913094D01*
X1821787Y-50275197D01*
X1997877Y-50620793D01*
X2209122Y-50946082D01*
X2333761Y-51099998D01*
X2453219Y-51247516D01*
X2727484Y-51521781D01*
X2895375Y-51657737D01*
X3028917Y-51765877D01*
X3290080Y-51935478D01*
X3354211Y-51977125D01*
X3699806Y-52153214D01*
X4061913Y-52292214D01*
X4436567Y-52392602D01*
X4819662Y-52453278D01*
X5185576Y-52472455D01*
X5206999Y-52473578D01*
X5207000Y-52473578D01*
X5207001Y-52473578D01*
X5227300Y-52472514D01*
X5594338Y-52453278D01*
X5977433Y-52392602D01*
X6352087Y-52292214D01*
X6714194Y-52153214D01*
X7059789Y-51977125D01*
X7385084Y-51765876D01*
X7686516Y-51521781D01*
X7960781Y-51247516D01*
X8204876Y-50946084D01*
X8416125Y-50620789D01*
X8592214Y-50275194D01*
X8731214Y-49913087D01*
X8831602Y-49538433D01*
X8892278Y-49155338D01*
X8912578Y-48768000D01*
X8892278Y-48380662D01*
X8831602Y-47997567D01*
X8731214Y-47622913D01*
X8592214Y-47260806D01*
X8416125Y-46915211D01*
X8314127Y-46758148D01*
X8204877Y-46589917D01*
X8031327Y-46375601D01*
X7960781Y-46288484D01*
X7686516Y-46014219D01*
X7636850Y-45974000D01*
X14461540Y-45974000D01*
X14481326Y-46162256D01*
X14481327Y-46162259D01*
X14539818Y-46342277D01*
X14539821Y-46342284D01*
X14634467Y-46506216D01*
X14750440Y-46635017D01*
X14761129Y-46646888D01*
X14914265Y-46758148D01*
X14914270Y-46758151D01*
X15087192Y-46835142D01*
X15087197Y-46835144D01*
X15272354Y-46874500D01*
X15272355Y-46874500D01*
X15461644Y-46874500D01*
X15461646Y-46874500D01*
X15646803Y-46835144D01*
X15819730Y-46758151D01*
X15972871Y-46646888D01*
X16036850Y-46575831D01*
X16096337Y-46539183D01*
X16166194Y-46540514D01*
X16221150Y-46575832D01*
X16285129Y-46646888D01*
X16438265Y-46758148D01*
X16438270Y-46758151D01*
X16611192Y-46835142D01*
X16611197Y-46835144D01*
X16796354Y-46874500D01*
X16796355Y-46874500D01*
X16985644Y-46874500D01*
X16985646Y-46874500D01*
X17170803Y-46835144D01*
X17343730Y-46758151D01*
X17496871Y-46646888D01*
X17560850Y-46575831D01*
X17620337Y-46539183D01*
X17690194Y-46540514D01*
X17745150Y-46575832D01*
X17809129Y-46646888D01*
X17962265Y-46758148D01*
X17962270Y-46758151D01*
X18135192Y-46835142D01*
X18135197Y-46835144D01*
X18320354Y-46874500D01*
X18320355Y-46874500D01*
X18509644Y-46874500D01*
X18509646Y-46874500D01*
X18694803Y-46835144D01*
X18867730Y-46758151D01*
X18898218Y-46736000D01*
X39429740Y-46736000D01*
X39449526Y-46924256D01*
X39449527Y-46924259D01*
X39508018Y-47104277D01*
X39508021Y-47104284D01*
X39602667Y-47268216D01*
X39613800Y-47280580D01*
X39729329Y-47408888D01*
X39882465Y-47520148D01*
X39882470Y-47520151D01*
X40055392Y-47597142D01*
X40055397Y-47597144D01*
X40240554Y-47636500D01*
X40240555Y-47636500D01*
X40429844Y-47636500D01*
X40429846Y-47636500D01*
X40615003Y-47597144D01*
X40787930Y-47520151D01*
X40941071Y-47408888D01*
X41067733Y-47268216D01*
X41162379Y-47104284D01*
X41220874Y-46924256D01*
X41240660Y-46736000D01*
X41220874Y-46547744D01*
X41162379Y-46367716D01*
X41067733Y-46203784D01*
X40941071Y-46063112D01*
X40941070Y-46063111D01*
X40787934Y-45951851D01*
X40787929Y-45951848D01*
X40615007Y-45874857D01*
X40615002Y-45874855D01*
X40469200Y-45843865D01*
X40429846Y-45835500D01*
X40240554Y-45835500D01*
X40208097Y-45842398D01*
X40055397Y-45874855D01*
X40055392Y-45874857D01*
X39882470Y-45951848D01*
X39882465Y-45951851D01*
X39729329Y-46063111D01*
X39602666Y-46203785D01*
X39508021Y-46367715D01*
X39508018Y-46367722D01*
X39451875Y-46540514D01*
X39449526Y-46547744D01*
X39429740Y-46736000D01*
X18898218Y-46736000D01*
X19020871Y-46646888D01*
X19147533Y-46506216D01*
X19242179Y-46342284D01*
X19300674Y-46162256D01*
X19320460Y-45974000D01*
X19300674Y-45785744D01*
X19242179Y-45605716D01*
X19147533Y-45441784D01*
X19020871Y-45301112D01*
X19020870Y-45301111D01*
X18867734Y-45189851D01*
X18867729Y-45189848D01*
X18694807Y-45112857D01*
X18694802Y-45112855D01*
X18561964Y-45084620D01*
X18500482Y-45051428D01*
X18466706Y-44990265D01*
X18471358Y-44920550D01*
X18495594Y-44880359D01*
X18515533Y-44858216D01*
X18610179Y-44694284D01*
X18668674Y-44514256D01*
X18688460Y-44326000D01*
X18688145Y-44323000D01*
X24240540Y-44323000D01*
X24260326Y-44511256D01*
X24260327Y-44511259D01*
X24318818Y-44691277D01*
X24318821Y-44691284D01*
X24413467Y-44855216D01*
X24480371Y-44929520D01*
X24540129Y-44995888D01*
X24693265Y-45107148D01*
X24693270Y-45107151D01*
X24866192Y-45184142D01*
X24866197Y-45184144D01*
X25051354Y-45223500D01*
X25051355Y-45223500D01*
X25240644Y-45223500D01*
X25240646Y-45223500D01*
X25425803Y-45184144D01*
X25598730Y-45107151D01*
X25751871Y-44995888D01*
X25878533Y-44855216D01*
X25973179Y-44691284D01*
X26031674Y-44511256D01*
X26051460Y-44323000D01*
X26031674Y-44134744D01*
X25973179Y-43954716D01*
X25878533Y-43790784D01*
X25751871Y-43650112D01*
X25751870Y-43650111D01*
X25598734Y-43538851D01*
X25598729Y-43538848D01*
X25425807Y-43461857D01*
X25425802Y-43461855D01*
X25280000Y-43430865D01*
X25240646Y-43422500D01*
X25051354Y-43422500D01*
X25018897Y-43429398D01*
X24866197Y-43461855D01*
X24866192Y-43461857D01*
X24693270Y-43538848D01*
X24693265Y-43538851D01*
X24540129Y-43650111D01*
X24413466Y-43790785D01*
X24318821Y-43954715D01*
X24318818Y-43954722D01*
X24260327Y-44134740D01*
X24260326Y-44134744D01*
X24240540Y-44323000D01*
X18688145Y-44323000D01*
X18668674Y-44137744D01*
X18610179Y-43957716D01*
X18515533Y-43793784D01*
X18388871Y-43653112D01*
X18384742Y-43650112D01*
X18235734Y-43541851D01*
X18235729Y-43541848D01*
X18062807Y-43464857D01*
X18062802Y-43464855D01*
X17917001Y-43433865D01*
X17877646Y-43425500D01*
X17688354Y-43425500D01*
X17655897Y-43432398D01*
X17503197Y-43464855D01*
X17503192Y-43464857D01*
X17330270Y-43541848D01*
X17330265Y-43541851D01*
X17177129Y-43653111D01*
X17050466Y-43793785D01*
X16955821Y-43957715D01*
X16955818Y-43957722D01*
X16897327Y-44137740D01*
X16897326Y-44137744D01*
X16877540Y-44326000D01*
X16897326Y-44514256D01*
X16897327Y-44514259D01*
X16955818Y-44694277D01*
X16955821Y-44694284D01*
X17050467Y-44858216D01*
X17057270Y-44865771D01*
X17057952Y-44866529D01*
X17088181Y-44929520D01*
X17079555Y-44998856D01*
X17034813Y-45052521D01*
X16968161Y-45073478D01*
X16965801Y-45073500D01*
X16796354Y-45073500D01*
X16763897Y-45080398D01*
X16611197Y-45112855D01*
X16611192Y-45112857D01*
X16438270Y-45189848D01*
X16438265Y-45189851D01*
X16285129Y-45301111D01*
X16285128Y-45301112D01*
X16221149Y-45372168D01*
X16161663Y-45408816D01*
X16091806Y-45407485D01*
X16036851Y-45372168D01*
X15972871Y-45301112D01*
X15972870Y-45301111D01*
X15819734Y-45189851D01*
X15819729Y-45189848D01*
X15646807Y-45112857D01*
X15646802Y-45112855D01*
X15501001Y-45081865D01*
X15461646Y-45073500D01*
X15272354Y-45073500D01*
X15239897Y-45080398D01*
X15087197Y-45112855D01*
X15087192Y-45112857D01*
X14914270Y-45189848D01*
X14914265Y-45189851D01*
X14761129Y-45301111D01*
X14634466Y-45441785D01*
X14539821Y-45605715D01*
X14539818Y-45605722D01*
X14486402Y-45770122D01*
X14481326Y-45785744D01*
X14461540Y-45974000D01*
X7636850Y-45974000D01*
X7609494Y-45951848D01*
X7385082Y-45770122D01*
X7059793Y-45558877D01*
X6714197Y-45382787D01*
X6352094Y-45243788D01*
X6352087Y-45243786D01*
X5977433Y-45143398D01*
X5977429Y-45143397D01*
X5977428Y-45143397D01*
X5594339Y-45082722D01*
X5207001Y-45062422D01*
X5206999Y-45062422D01*
X4819660Y-45082722D01*
X4436572Y-45143397D01*
X4436570Y-45143397D01*
X4061905Y-45243788D01*
X3699802Y-45382787D01*
X3354206Y-45558877D01*
X3028917Y-45770122D01*
X2727488Y-46014215D01*
X2727480Y-46014222D01*
X2453222Y-46288480D01*
X2453215Y-46288488D01*
X2209122Y-46589917D01*
X1997877Y-46915206D01*
X1821787Y-47260802D01*
X1682788Y-47622905D01*
X1582397Y-47997570D01*
X1582397Y-47997572D01*
X1521722Y-48380660D01*
X1501422Y-48767999D01*
X1501422Y-48768000D01*
X116500Y-48768000D01*
X116500Y-43129200D01*
X796340Y-43129200D01*
X816126Y-43317456D01*
X816127Y-43317459D01*
X874618Y-43497477D01*
X874621Y-43497484D01*
X969267Y-43661416D01*
X1066800Y-43769737D01*
X1095929Y-43802088D01*
X1249065Y-43913348D01*
X1249070Y-43913351D01*
X1421992Y-43990342D01*
X1421997Y-43990344D01*
X1607154Y-44029700D01*
X1607155Y-44029700D01*
X1796444Y-44029700D01*
X1796446Y-44029700D01*
X1981603Y-43990344D01*
X2154530Y-43913351D01*
X2263917Y-43833876D01*
X2329720Y-43810398D01*
X2397774Y-43826223D01*
X2409671Y-43833868D01*
X2519066Y-43913348D01*
X2519070Y-43913351D01*
X2691992Y-43990342D01*
X2691997Y-43990344D01*
X2877154Y-44029700D01*
X2877155Y-44029700D01*
X3066444Y-44029700D01*
X3066446Y-44029700D01*
X3251603Y-43990344D01*
X3424530Y-43913351D01*
X3577671Y-43802088D01*
X3704333Y-43661416D01*
X3798979Y-43497484D01*
X3857474Y-43317456D01*
X3877260Y-43129200D01*
X3857474Y-42940944D01*
X3798979Y-42760916D01*
X3704333Y-42596984D01*
X3577671Y-42456312D01*
X3566232Y-42448001D01*
X3424534Y-42345051D01*
X3424529Y-42345048D01*
X3251607Y-42268057D01*
X3251602Y-42268055D01*
X3105801Y-42237065D01*
X3066446Y-42228700D01*
X2877154Y-42228700D01*
X2844697Y-42235598D01*
X2691997Y-42268055D01*
X2691992Y-42268057D01*
X2519070Y-42345048D01*
X2519065Y-42345051D01*
X2409685Y-42424521D01*
X2343879Y-42448001D01*
X2275825Y-42432175D01*
X2263915Y-42424521D01*
X2154534Y-42345051D01*
X2154529Y-42345048D01*
X1981607Y-42268057D01*
X1981602Y-42268055D01*
X1835800Y-42237065D01*
X1796446Y-42228700D01*
X1607154Y-42228700D01*
X1574697Y-42235598D01*
X1421997Y-42268055D01*
X1421992Y-42268057D01*
X1249070Y-42345048D01*
X1249065Y-42345051D01*
X1095929Y-42456311D01*
X969266Y-42596985D01*
X874621Y-42760915D01*
X874618Y-42760922D01*
X816127Y-42940940D01*
X816126Y-42940944D01*
X796340Y-43129200D01*
X116500Y-43129200D01*
X116500Y-42164000D01*
X36432540Y-42164000D01*
X36452326Y-42352256D01*
X36452327Y-42352259D01*
X36510818Y-42532277D01*
X36510821Y-42532284D01*
X36605467Y-42696216D01*
X36663729Y-42760922D01*
X36732129Y-42836888D01*
X36885265Y-42948148D01*
X36885270Y-42948151D01*
X37058192Y-43025142D01*
X37058197Y-43025144D01*
X37243354Y-43064500D01*
X37243355Y-43064500D01*
X37432644Y-43064500D01*
X37432646Y-43064500D01*
X37617803Y-43025144D01*
X37790730Y-42948151D01*
X37943871Y-42836888D01*
X38070533Y-42696216D01*
X38165179Y-42532284D01*
X38223674Y-42352256D01*
X38243460Y-42164000D01*
X38223674Y-41975744D01*
X38165179Y-41795716D01*
X38083647Y-41654499D01*
X38067175Y-41586600D01*
X38083648Y-41530500D01*
X38083649Y-41530499D01*
X38165179Y-41389284D01*
X38223674Y-41209256D01*
X38243460Y-41021000D01*
X38223674Y-40832744D01*
X38165179Y-40652716D01*
X38070533Y-40488784D01*
X37943871Y-40348112D01*
X37943870Y-40348111D01*
X37790734Y-40236851D01*
X37790729Y-40236848D01*
X37617807Y-40159857D01*
X37617802Y-40159855D01*
X37472000Y-40128865D01*
X37432646Y-40120500D01*
X37243354Y-40120500D01*
X37210897Y-40127398D01*
X37058197Y-40159855D01*
X37058192Y-40159857D01*
X36885270Y-40236848D01*
X36885265Y-40236851D01*
X36732129Y-40348111D01*
X36605466Y-40488785D01*
X36510821Y-40652715D01*
X36510818Y-40652722D01*
X36452327Y-40832740D01*
X36452326Y-40832744D01*
X36432540Y-41021000D01*
X36452326Y-41209256D01*
X36452327Y-41209259D01*
X36510818Y-41389277D01*
X36510821Y-41389284D01*
X36592351Y-41530499D01*
X36608824Y-41598400D01*
X36592352Y-41654498D01*
X36510820Y-41795718D01*
X36510818Y-41795722D01*
X36452327Y-41975740D01*
X36452326Y-41975744D01*
X36432540Y-42164000D01*
X116500Y-42164000D01*
X116500Y-38100000D01*
X8873540Y-38100000D01*
X8893326Y-38288256D01*
X8893327Y-38288259D01*
X8951818Y-38468277D01*
X8951821Y-38468284D01*
X9046467Y-38632216D01*
X9173128Y-38772888D01*
X9173129Y-38772888D01*
X9326265Y-38884148D01*
X9326270Y-38884151D01*
X9499192Y-38961142D01*
X9499197Y-38961144D01*
X9684354Y-39000500D01*
X9684355Y-39000500D01*
X9873644Y-39000500D01*
X9873646Y-39000500D01*
X10058803Y-38961144D01*
X10231730Y-38884151D01*
X10262218Y-38862000D01*
X34781540Y-38862000D01*
X34801326Y-39050256D01*
X34801327Y-39050259D01*
X34859818Y-39230277D01*
X34859821Y-39230284D01*
X34954467Y-39394216D01*
X35081129Y-39534887D01*
X35081129Y-39534888D01*
X35234265Y-39646148D01*
X35234270Y-39646151D01*
X35407192Y-39723142D01*
X35407197Y-39723144D01*
X35592354Y-39762500D01*
X35592355Y-39762500D01*
X35781644Y-39762500D01*
X35781646Y-39762500D01*
X35966803Y-39723144D01*
X36139730Y-39646151D01*
X36292871Y-39534888D01*
X36419533Y-39394216D01*
X36514179Y-39230284D01*
X36572674Y-39050256D01*
X36592460Y-38862000D01*
X36572674Y-38673744D01*
X36514179Y-38493716D01*
X36419533Y-38329784D01*
X36292871Y-38189112D01*
X36292870Y-38189111D01*
X36139734Y-38077851D01*
X36139729Y-38077848D01*
X35966807Y-38000857D01*
X35966802Y-38000855D01*
X35821001Y-37969865D01*
X35781646Y-37961500D01*
X35592354Y-37961500D01*
X35559897Y-37968398D01*
X35407197Y-38000855D01*
X35407192Y-38000857D01*
X35234270Y-38077848D01*
X35234265Y-38077851D01*
X35081129Y-38189111D01*
X34954466Y-38329785D01*
X34859821Y-38493715D01*
X34859818Y-38493722D01*
X34827543Y-38593056D01*
X34801326Y-38673744D01*
X34781540Y-38862000D01*
X10262218Y-38862000D01*
X10384871Y-38772888D01*
X10511533Y-38632216D01*
X10606179Y-38468284D01*
X10664674Y-38288256D01*
X10684460Y-38100000D01*
X10664674Y-37911744D01*
X10606179Y-37731716D01*
X10511533Y-37567784D01*
X10384871Y-37427112D01*
X10384870Y-37427111D01*
X10231734Y-37315851D01*
X10231729Y-37315848D01*
X10058807Y-37238857D01*
X10058802Y-37238855D01*
X9913000Y-37207865D01*
X9873646Y-37199500D01*
X9684354Y-37199500D01*
X9651897Y-37206398D01*
X9499197Y-37238855D01*
X9499192Y-37238857D01*
X9326270Y-37315848D01*
X9326265Y-37315851D01*
X9173129Y-37427111D01*
X9046466Y-37567785D01*
X8951821Y-37731715D01*
X8951818Y-37731722D01*
X8893327Y-37911740D01*
X8893326Y-37911744D01*
X8873540Y-38100000D01*
X116500Y-38100000D01*
X116500Y-34163000D01*
X9127540Y-34163000D01*
X9147326Y-34351256D01*
X9147327Y-34351259D01*
X9205818Y-34531277D01*
X9205821Y-34531284D01*
X9300467Y-34695216D01*
X9427128Y-34835888D01*
X9427129Y-34835888D01*
X9580265Y-34947148D01*
X9580270Y-34947151D01*
X9753192Y-35024142D01*
X9753197Y-35024144D01*
X9938354Y-35063500D01*
X9938355Y-35063500D01*
X10127644Y-35063500D01*
X10127646Y-35063500D01*
X10312803Y-35024144D01*
X10485730Y-34947151D01*
X10638871Y-34835888D01*
X10765533Y-34695216D01*
X10860179Y-34531284D01*
X10918674Y-34351256D01*
X10938460Y-34163000D01*
X10918674Y-33974744D01*
X10860179Y-33794716D01*
X10765533Y-33630784D01*
X10638871Y-33490112D01*
X10638870Y-33490111D01*
X10485734Y-33378851D01*
X10485729Y-33378848D01*
X10312807Y-33301857D01*
X10312802Y-33301855D01*
X10167000Y-33270865D01*
X10127646Y-33262500D01*
X9938354Y-33262500D01*
X9905897Y-33269398D01*
X9753197Y-33301855D01*
X9753192Y-33301857D01*
X9580270Y-33378848D01*
X9580265Y-33378851D01*
X9427129Y-33490111D01*
X9300466Y-33630785D01*
X9205821Y-33794715D01*
X9205818Y-33794722D01*
X9184446Y-33860500D01*
X9147326Y-33974744D01*
X9127540Y-34163000D01*
X116500Y-34163000D01*
X116500Y-32639000D01*
X22970540Y-32639000D01*
X22990326Y-32827256D01*
X22990327Y-32827259D01*
X23048818Y-33007277D01*
X23048821Y-33007284D01*
X23143467Y-33171216D01*
X23261095Y-33301855D01*
X23270129Y-33311888D01*
X23423265Y-33423148D01*
X23423270Y-33423151D01*
X23596192Y-33500142D01*
X23596197Y-33500144D01*
X23781354Y-33539500D01*
X23781355Y-33539500D01*
X23970644Y-33539500D01*
X23970646Y-33539500D01*
X24155803Y-33500144D01*
X24328730Y-33423151D01*
X24481871Y-33311888D01*
X24608533Y-33171216D01*
X24703179Y-33007284D01*
X24761674Y-32827256D01*
X24781460Y-32639000D01*
X24761674Y-32450744D01*
X24703179Y-32270716D01*
X24608533Y-32106784D01*
X24481871Y-31966112D01*
X24481870Y-31966111D01*
X24328734Y-31854851D01*
X24328729Y-31854848D01*
X24155807Y-31777857D01*
X24155802Y-31777855D01*
X24010001Y-31746865D01*
X23970646Y-31738500D01*
X23781354Y-31738500D01*
X23748897Y-31745398D01*
X23596197Y-31777855D01*
X23596192Y-31777857D01*
X23423270Y-31854848D01*
X23423265Y-31854851D01*
X23270129Y-31966111D01*
X23143466Y-32106785D01*
X23048821Y-32270715D01*
X23048818Y-32270722D01*
X22991784Y-32446256D01*
X22990326Y-32450744D01*
X22970540Y-32639000D01*
X116500Y-32639000D01*
X116500Y-31115000D01*
X18779540Y-31115000D01*
X18799326Y-31303256D01*
X18799327Y-31303259D01*
X18857818Y-31483277D01*
X18857821Y-31483284D01*
X18952467Y-31647216D01*
X19055369Y-31761500D01*
X19079129Y-31787888D01*
X19232265Y-31899148D01*
X19232270Y-31899151D01*
X19405192Y-31976142D01*
X19405197Y-31976144D01*
X19590354Y-32015500D01*
X19590355Y-32015500D01*
X19779644Y-32015500D01*
X19779646Y-32015500D01*
X19964803Y-31976144D01*
X20137730Y-31899151D01*
X20290871Y-31787888D01*
X20417533Y-31647216D01*
X20512179Y-31483284D01*
X20570674Y-31303256D01*
X20590460Y-31115000D01*
X20570674Y-30926744D01*
X20512179Y-30746716D01*
X20504837Y-30734000D01*
X29955540Y-30734000D01*
X29975326Y-30922256D01*
X29975327Y-30922259D01*
X30033818Y-31102277D01*
X30033821Y-31102284D01*
X30128467Y-31266216D01*
X30210660Y-31357500D01*
X30255129Y-31406888D01*
X30408265Y-31518148D01*
X30408270Y-31518151D01*
X30581192Y-31595142D01*
X30581197Y-31595144D01*
X30766354Y-31634500D01*
X30766355Y-31634500D01*
X30955644Y-31634500D01*
X30955646Y-31634500D01*
X31140803Y-31595144D01*
X31313730Y-31518151D01*
X31419412Y-31441368D01*
X31485214Y-31417890D01*
X31553268Y-31433715D01*
X31584442Y-31458714D01*
X31606559Y-31483277D01*
X31652129Y-31533888D01*
X31805265Y-31645148D01*
X31805270Y-31645151D01*
X31978192Y-31722142D01*
X31978197Y-31722144D01*
X32163354Y-31761500D01*
X32163355Y-31761500D01*
X32190809Y-31761500D01*
X32257848Y-31781185D01*
X32303603Y-31833989D01*
X32313547Y-31903147D01*
X32308740Y-31923818D01*
X32278951Y-32015500D01*
X32261326Y-32069744D01*
X32241540Y-32258000D01*
X32261326Y-32446256D01*
X32261327Y-32446259D01*
X32319818Y-32626277D01*
X32319821Y-32626284D01*
X32414467Y-32790216D01*
X32541128Y-32930887D01*
X32541129Y-32930888D01*
X32694265Y-33042148D01*
X32694270Y-33042151D01*
X32867192Y-33119142D01*
X32867197Y-33119144D01*
X33052354Y-33158500D01*
X33052355Y-33158500D01*
X33241643Y-33158500D01*
X33241646Y-33158500D01*
X33241648Y-33158499D01*
X33247644Y-33157869D01*
X33316374Y-33170435D01*
X33367401Y-33218164D01*
X33383933Y-33268227D01*
X33384540Y-33273999D01*
X33384540Y-33274000D01*
X33404326Y-33462256D01*
X33404327Y-33462259D01*
X33462818Y-33642277D01*
X33462821Y-33642284D01*
X33557467Y-33806216D01*
X33606345Y-33860500D01*
X33684129Y-33946888D01*
X33837265Y-34058148D01*
X33837270Y-34058151D01*
X34010192Y-34135142D01*
X34010197Y-34135144D01*
X34195354Y-34174500D01*
X34195355Y-34174500D01*
X34384644Y-34174500D01*
X34384646Y-34174500D01*
X34569803Y-34135144D01*
X34742730Y-34058151D01*
X34895871Y-33946888D01*
X35022533Y-33806216D01*
X35117179Y-33642284D01*
X35175674Y-33462256D01*
X35195460Y-33274000D01*
X35175674Y-33085744D01*
X35134817Y-32960000D01*
X35991540Y-32960000D01*
X36011326Y-33148256D01*
X36011327Y-33148259D01*
X36069818Y-33328277D01*
X36069821Y-33328284D01*
X36164467Y-33492216D01*
X36202000Y-33533900D01*
X36291129Y-33632888D01*
X36444265Y-33744148D01*
X36444270Y-33744151D01*
X36617192Y-33821142D01*
X36617197Y-33821144D01*
X36802354Y-33860500D01*
X36802355Y-33860500D01*
X36991644Y-33860500D01*
X36991646Y-33860500D01*
X37176803Y-33821144D01*
X37349730Y-33744151D01*
X37395115Y-33711176D01*
X37460920Y-33687697D01*
X37528974Y-33703522D01*
X37577669Y-33753628D01*
X37592000Y-33811495D01*
X37592000Y-34537596D01*
X37575387Y-34599596D01*
X37526821Y-34683714D01*
X37523084Y-34695216D01*
X37468326Y-34863744D01*
X37448540Y-35052000D01*
X37468326Y-35240256D01*
X37468327Y-35240259D01*
X37526818Y-35420277D01*
X37526821Y-35420284D01*
X37575387Y-35504402D01*
X37592000Y-35566402D01*
X37592000Y-39878000D01*
X40713621Y-39851262D01*
X40780827Y-39870371D01*
X40787561Y-39874933D01*
X40791782Y-39878000D01*
X40822270Y-39900151D01*
X40995192Y-39977142D01*
X40995197Y-39977144D01*
X41180354Y-40016500D01*
X41180355Y-40016500D01*
X41369644Y-40016500D01*
X41369646Y-40016500D01*
X41554803Y-39977144D01*
X41727730Y-39900151D01*
X41775801Y-39865224D01*
X41841603Y-39841745D01*
X41847584Y-39841549D01*
X49453800Y-39776400D01*
X49453800Y-36965499D01*
X49473485Y-36898461D01*
X49526289Y-36852706D01*
X49577800Y-36841500D01*
X49751644Y-36841500D01*
X49751646Y-36841500D01*
X49936803Y-36802144D01*
X50109730Y-36725151D01*
X50262871Y-36613888D01*
X50389533Y-36473216D01*
X50476836Y-36322002D01*
X55347523Y-36322002D01*
X55366593Y-36539975D01*
X55366593Y-36539979D01*
X55423222Y-36751322D01*
X55423224Y-36751326D01*
X55423225Y-36751330D01*
X55465272Y-36841500D01*
X55515697Y-36949638D01*
X55515698Y-36949639D01*
X55641202Y-37128877D01*
X55795923Y-37283598D01*
X55975161Y-37409102D01*
X56173470Y-37501575D01*
X56384823Y-37558207D01*
X56567726Y-37574208D01*
X56602798Y-37577277D01*
X56602800Y-37577277D01*
X56602802Y-37577277D01*
X56631054Y-37574805D01*
X56820777Y-37558207D01*
X57032130Y-37501575D01*
X57230439Y-37409102D01*
X57409677Y-37283598D01*
X57564398Y-37128877D01*
X57689902Y-36949639D01*
X57782375Y-36751330D01*
X57839007Y-36539977D01*
X57858077Y-36322002D01*
X62847523Y-36322002D01*
X62866593Y-36539975D01*
X62866593Y-36539979D01*
X62923222Y-36751322D01*
X62923224Y-36751326D01*
X62923225Y-36751330D01*
X62965272Y-36841500D01*
X63015697Y-36949638D01*
X63015698Y-36949639D01*
X63141202Y-37128877D01*
X63295923Y-37283598D01*
X63475161Y-37409102D01*
X63673470Y-37501575D01*
X63673476Y-37501576D01*
X63673477Y-37501577D01*
X63719975Y-37514036D01*
X63835759Y-37545060D01*
X63895420Y-37581425D01*
X63925949Y-37644272D01*
X63917654Y-37713647D01*
X63895816Y-37747807D01*
X63783466Y-37872584D01*
X63688821Y-38036515D01*
X63688818Y-38036522D01*
X63639239Y-38189112D01*
X63630326Y-38216544D01*
X63610540Y-38404800D01*
X63630326Y-38593056D01*
X63630327Y-38593059D01*
X63688818Y-38773077D01*
X63688821Y-38773084D01*
X63783467Y-38937016D01*
X63885429Y-39050256D01*
X63910129Y-39077688D01*
X64063265Y-39188948D01*
X64063270Y-39188951D01*
X64236192Y-39265942D01*
X64236197Y-39265944D01*
X64421354Y-39305300D01*
X64421355Y-39305300D01*
X64610644Y-39305300D01*
X64610646Y-39305300D01*
X64795803Y-39265944D01*
X64968730Y-39188951D01*
X65121871Y-39077688D01*
X65248533Y-38937016D01*
X65343179Y-38773084D01*
X65401674Y-38593056D01*
X65421460Y-38404800D01*
X65401674Y-38216544D01*
X65343179Y-38036516D01*
X65248533Y-37872584D01*
X65121871Y-37731912D01*
X65121870Y-37731911D01*
X64968734Y-37620651D01*
X64968732Y-37620650D01*
X64838595Y-37562708D01*
X64785359Y-37517457D01*
X64765038Y-37450608D01*
X64784084Y-37383385D01*
X64817906Y-37347856D01*
X64909677Y-37283598D01*
X65064398Y-37128877D01*
X65189902Y-36949639D01*
X65282375Y-36751330D01*
X65339007Y-36539977D01*
X65358077Y-36322000D01*
X65339007Y-36104023D01*
X65282375Y-35892670D01*
X65189902Y-35694362D01*
X65189900Y-35694359D01*
X65189899Y-35694357D01*
X65064399Y-35515124D01*
X65053677Y-35504402D01*
X64909677Y-35360402D01*
X64771778Y-35263844D01*
X64730438Y-35234897D01*
X64631284Y-35188661D01*
X64532130Y-35142425D01*
X64532126Y-35142424D01*
X64532122Y-35142422D01*
X64320777Y-35085793D01*
X64102802Y-35066723D01*
X64102798Y-35066723D01*
X63957481Y-35079436D01*
X63884823Y-35085793D01*
X63884820Y-35085793D01*
X63673477Y-35142422D01*
X63673468Y-35142426D01*
X63475161Y-35234898D01*
X63475157Y-35234900D01*
X63295921Y-35360402D01*
X63141202Y-35515121D01*
X63015700Y-35694357D01*
X63015698Y-35694361D01*
X62923226Y-35892668D01*
X62923222Y-35892677D01*
X62866593Y-36104020D01*
X62866593Y-36104023D01*
X62864385Y-36129259D01*
X62847523Y-36321997D01*
X62847523Y-36322002D01*
X57858077Y-36322002D01*
X57858077Y-36322000D01*
X57839007Y-36104023D01*
X57782375Y-35892670D01*
X57689902Y-35694362D01*
X57689900Y-35694359D01*
X57689899Y-35694357D01*
X57564399Y-35515124D01*
X57553677Y-35504402D01*
X57409677Y-35360402D01*
X57271778Y-35263844D01*
X57230438Y-35234897D01*
X57131284Y-35188661D01*
X57032130Y-35142425D01*
X57032126Y-35142424D01*
X57032122Y-35142422D01*
X56820777Y-35085793D01*
X56602802Y-35066723D01*
X56602798Y-35066723D01*
X56457482Y-35079436D01*
X56384823Y-35085793D01*
X56384820Y-35085793D01*
X56173477Y-35142422D01*
X56173468Y-35142426D01*
X55975161Y-35234898D01*
X55975157Y-35234900D01*
X55795921Y-35360402D01*
X55641202Y-35515121D01*
X55515700Y-35694357D01*
X55515698Y-35694361D01*
X55423226Y-35892668D01*
X55423222Y-35892677D01*
X55366593Y-36104020D01*
X55366593Y-36104023D01*
X55364385Y-36129259D01*
X55347523Y-36321997D01*
X55347523Y-36322002D01*
X50476836Y-36322002D01*
X50484179Y-36309284D01*
X50542674Y-36129256D01*
X50562460Y-35941000D01*
X50542674Y-35752744D01*
X50484179Y-35572716D01*
X50389533Y-35408784D01*
X50262871Y-35268112D01*
X50262870Y-35268111D01*
X50109734Y-35156851D01*
X50109729Y-35156848D01*
X49936807Y-35079857D01*
X49936802Y-35079855D01*
X49791001Y-35048865D01*
X49751646Y-35040500D01*
X49577800Y-35040500D01*
X49510761Y-35020815D01*
X49465006Y-34968011D01*
X49453800Y-34916500D01*
X49453800Y-30601232D01*
X49473485Y-30534193D01*
X49526289Y-30488438D01*
X49552006Y-30479945D01*
X49682803Y-30452144D01*
X49682807Y-30452142D01*
X49682808Y-30452142D01*
X49741058Y-30426206D01*
X49855730Y-30375151D01*
X50008871Y-30263888D01*
X50135533Y-30123216D01*
X50230179Y-29959284D01*
X50288674Y-29779256D01*
X50308460Y-29591000D01*
X50288674Y-29402744D01*
X50230179Y-29222716D01*
X50135533Y-29058784D01*
X50008871Y-28918112D01*
X49976708Y-28894744D01*
X49855734Y-28806851D01*
X49855729Y-28806848D01*
X49682807Y-28729857D01*
X49682802Y-28729855D01*
X49537001Y-28698865D01*
X49497646Y-28690500D01*
X49308354Y-28690500D01*
X49275897Y-28697398D01*
X49123197Y-28729855D01*
X49123192Y-28729857D01*
X48950270Y-28806848D01*
X48950265Y-28806851D01*
X48797129Y-28918111D01*
X48670466Y-29058785D01*
X48575821Y-29222715D01*
X48575818Y-29222722D01*
X48526456Y-29374645D01*
X48517326Y-29402744D01*
X48506686Y-29503979D01*
X48505577Y-29514535D01*
X48478992Y-29579149D01*
X48421695Y-29619134D01*
X48383318Y-29625568D01*
X43388184Y-29668353D01*
X43320978Y-29649244D01*
X43274773Y-29596834D01*
X43264237Y-29527763D01*
X43292717Y-29463961D01*
X43325137Y-29436962D01*
X43327913Y-29435358D01*
X43327930Y-29435351D01*
X43481071Y-29324088D01*
X43607733Y-29183416D01*
X43702379Y-29019484D01*
X43760874Y-28839456D01*
X43780660Y-28651200D01*
X43760874Y-28462944D01*
X43702379Y-28282916D01*
X43607733Y-28118984D01*
X43481071Y-27978312D01*
X43481070Y-27978311D01*
X43327934Y-27867051D01*
X43327929Y-27867048D01*
X43155007Y-27790057D01*
X43155002Y-27790055D01*
X43009201Y-27759065D01*
X42969846Y-27750700D01*
X42780554Y-27750700D01*
X42748097Y-27757598D01*
X42595397Y-27790055D01*
X42595392Y-27790057D01*
X42422470Y-27867048D01*
X42422465Y-27867051D01*
X42269329Y-27978311D01*
X42145972Y-28115313D01*
X42086485Y-28151962D01*
X42016628Y-28150631D01*
X41958580Y-28111745D01*
X41946435Y-28094341D01*
X41941521Y-28085831D01*
X41931333Y-28068184D01*
X41804671Y-27927512D01*
X41804670Y-27927511D01*
X41651534Y-27816251D01*
X41651529Y-27816248D01*
X41478607Y-27739257D01*
X41478602Y-27739255D01*
X41332800Y-27708265D01*
X41293446Y-27699900D01*
X41104154Y-27699900D01*
X41071697Y-27706798D01*
X40918997Y-27739255D01*
X40918992Y-27739257D01*
X40746070Y-27816248D01*
X40746065Y-27816251D01*
X40592929Y-27927511D01*
X40466266Y-28068185D01*
X40371621Y-28232115D01*
X40371618Y-28232122D01*
X40313786Y-28410112D01*
X40313126Y-28412144D01*
X40293340Y-28600400D01*
X40313126Y-28788656D01*
X40313127Y-28788659D01*
X40371618Y-28968677D01*
X40371621Y-28968684D01*
X40466267Y-29132616D01*
X40535944Y-29210000D01*
X40592929Y-29273288D01*
X40746065Y-29384548D01*
X40746070Y-29384551D01*
X40899400Y-29452819D01*
X40952637Y-29498069D01*
X40972958Y-29564918D01*
X40953912Y-29632142D01*
X40901546Y-29678397D01*
X40850026Y-29690093D01*
X37592000Y-29717999D01*
X37591999Y-29718000D01*
X37591999Y-32108504D01*
X37572314Y-32175544D01*
X37519510Y-32221298D01*
X37450352Y-32231242D01*
X37395114Y-32208822D01*
X37349730Y-32175849D01*
X37349729Y-32175848D01*
X37176807Y-32098857D01*
X37176802Y-32098855D01*
X37031000Y-32067865D01*
X36991646Y-32059500D01*
X36802354Y-32059500D01*
X36769897Y-32066398D01*
X36617197Y-32098855D01*
X36617192Y-32098857D01*
X36444270Y-32175848D01*
X36444265Y-32175851D01*
X36291129Y-32287111D01*
X36164466Y-32427785D01*
X36069821Y-32591715D01*
X36069818Y-32591722D01*
X36021060Y-32741785D01*
X36011326Y-32771744D01*
X35991540Y-32960000D01*
X35134817Y-32960000D01*
X35117179Y-32905716D01*
X35022533Y-32741784D01*
X34895871Y-32601112D01*
X34882947Y-32591722D01*
X34742734Y-32489851D01*
X34742729Y-32489848D01*
X34569807Y-32412857D01*
X34569802Y-32412855D01*
X34424001Y-32381865D01*
X34384646Y-32373500D01*
X34195354Y-32373500D01*
X34195349Y-32373500D01*
X34189343Y-32374131D01*
X34120614Y-32361559D01*
X34069592Y-32313825D01*
X34053066Y-32263771D01*
X34052459Y-32258002D01*
X34052460Y-32258000D01*
X34032674Y-32069744D01*
X33974179Y-31889716D01*
X33879533Y-31725784D01*
X33752871Y-31585112D01*
X33752870Y-31585111D01*
X33599734Y-31473851D01*
X33599729Y-31473848D01*
X33426807Y-31396857D01*
X33426802Y-31396855D01*
X33262318Y-31361894D01*
X33241646Y-31357500D01*
X33214191Y-31357500D01*
X33147152Y-31337815D01*
X33101397Y-31285011D01*
X33091453Y-31215853D01*
X33096260Y-31195182D01*
X33122312Y-31115000D01*
X33143674Y-31049256D01*
X33163460Y-30861000D01*
X33143674Y-30672744D01*
X33085179Y-30492716D01*
X32990533Y-30328784D01*
X32863871Y-30188112D01*
X32863870Y-30188111D01*
X32710734Y-30076851D01*
X32710729Y-30076848D01*
X32537807Y-29999857D01*
X32537802Y-29999855D01*
X32392001Y-29968865D01*
X32352646Y-29960500D01*
X32163354Y-29960500D01*
X32130897Y-29967398D01*
X31978197Y-29999855D01*
X31978192Y-29999857D01*
X31805271Y-30076848D01*
X31699590Y-30153629D01*
X31633783Y-30177108D01*
X31565729Y-30161282D01*
X31534555Y-30136283D01*
X31466871Y-30061112D01*
X31466867Y-30061109D01*
X31313734Y-29949851D01*
X31313729Y-29949848D01*
X31140807Y-29872857D01*
X31140802Y-29872855D01*
X30995001Y-29841865D01*
X30955646Y-29833500D01*
X30766354Y-29833500D01*
X30733897Y-29840398D01*
X30581197Y-29872855D01*
X30581192Y-29872857D01*
X30408270Y-29949848D01*
X30408265Y-29949851D01*
X30255129Y-30061111D01*
X30128466Y-30201785D01*
X30033821Y-30365715D01*
X30033818Y-30365722D01*
X29989491Y-30502148D01*
X29975326Y-30545744D01*
X29955540Y-30734000D01*
X20504837Y-30734000D01*
X20417533Y-30582784D01*
X20290871Y-30442112D01*
X20290870Y-30442111D01*
X20137734Y-30330851D01*
X20137729Y-30330848D01*
X19964807Y-30253857D01*
X19964802Y-30253855D01*
X19819001Y-30222865D01*
X19779646Y-30214500D01*
X19590354Y-30214500D01*
X19557897Y-30221398D01*
X19405197Y-30253855D01*
X19405192Y-30253857D01*
X19232270Y-30330848D01*
X19232265Y-30330851D01*
X19079129Y-30442111D01*
X18952466Y-30582785D01*
X18857821Y-30746715D01*
X18857818Y-30746722D01*
X18800784Y-30922256D01*
X18799326Y-30926744D01*
X18779540Y-31115000D01*
X116500Y-31115000D01*
X116500Y-29297000D01*
X5250341Y-29297000D01*
X5270936Y-29532403D01*
X5270938Y-29532413D01*
X5332094Y-29760655D01*
X5332096Y-29760659D01*
X5332097Y-29760663D01*
X5340769Y-29779259D01*
X5431964Y-29974828D01*
X5431965Y-29974830D01*
X5567505Y-30168402D01*
X5734597Y-30335494D01*
X5928169Y-30471034D01*
X5928171Y-30471035D01*
X6142337Y-30570903D01*
X6370592Y-30632063D01*
X6547032Y-30647499D01*
X6547033Y-30647500D01*
X6547034Y-30647500D01*
X6914967Y-30647500D01*
X6914967Y-30647499D01*
X7091408Y-30632063D01*
X7319663Y-30570903D01*
X7533829Y-30471035D01*
X7727401Y-30335495D01*
X7894495Y-30168401D01*
X8030035Y-29974830D01*
X8129903Y-29760663D01*
X8141334Y-29718000D01*
X16366540Y-29718000D01*
X16386326Y-29906256D01*
X16386327Y-29906259D01*
X16444818Y-30086277D01*
X16444821Y-30086284D01*
X16539467Y-30250216D01*
X16651957Y-30375148D01*
X16666129Y-30390888D01*
X16819265Y-30502148D01*
X16819270Y-30502151D01*
X16992192Y-30579142D01*
X16992197Y-30579144D01*
X17177354Y-30618500D01*
X17177355Y-30618500D01*
X17366644Y-30618500D01*
X17366646Y-30618500D01*
X17551803Y-30579144D01*
X17724730Y-30502151D01*
X17877871Y-30390888D01*
X18004533Y-30250216D01*
X18099179Y-30086284D01*
X18157674Y-29906256D01*
X18177460Y-29718000D01*
X18157674Y-29529744D01*
X18099179Y-29349716D01*
X18018514Y-29210000D01*
X22462540Y-29210000D01*
X22482326Y-29398256D01*
X22482327Y-29398259D01*
X22540818Y-29578277D01*
X22540821Y-29578284D01*
X22635467Y-29742216D01*
X22668821Y-29779259D01*
X22762129Y-29882888D01*
X22915265Y-29994148D01*
X22915270Y-29994151D01*
X23088192Y-30071142D01*
X23088197Y-30071144D01*
X23273354Y-30110500D01*
X23273355Y-30110500D01*
X23462644Y-30110500D01*
X23462646Y-30110500D01*
X23647803Y-30071144D01*
X23820730Y-29994151D01*
X23973871Y-29882888D01*
X24095027Y-29748330D01*
X24154511Y-29711683D01*
X24224368Y-29713013D01*
X24279323Y-29748329D01*
X24286131Y-29755890D01*
X24286135Y-29755893D01*
X24439265Y-29867148D01*
X24439270Y-29867151D01*
X24612192Y-29944142D01*
X24612197Y-29944144D01*
X24797354Y-29983500D01*
X24797355Y-29983500D01*
X24986644Y-29983500D01*
X24986646Y-29983500D01*
X25171803Y-29944144D01*
X25344730Y-29867151D01*
X25497871Y-29755888D01*
X25624533Y-29615216D01*
X25719179Y-29451284D01*
X25777674Y-29271256D01*
X25784112Y-29210000D01*
X28431540Y-29210000D01*
X28451326Y-29398256D01*
X28451327Y-29398259D01*
X28509818Y-29578277D01*
X28509821Y-29578284D01*
X28604467Y-29742216D01*
X28637821Y-29779259D01*
X28731129Y-29882888D01*
X28884265Y-29994148D01*
X28884270Y-29994151D01*
X29057192Y-30071142D01*
X29057197Y-30071144D01*
X29242354Y-30110500D01*
X29242355Y-30110500D01*
X29431644Y-30110500D01*
X29431646Y-30110500D01*
X29616803Y-30071144D01*
X29789730Y-29994151D01*
X29942871Y-29882888D01*
X30069533Y-29742216D01*
X30164179Y-29578284D01*
X30222674Y-29398256D01*
X30242460Y-29210000D01*
X30222674Y-29021744D01*
X30164179Y-28841716D01*
X30069533Y-28677784D01*
X29942871Y-28537112D01*
X29942863Y-28537106D01*
X29789734Y-28425851D01*
X29789729Y-28425848D01*
X29616807Y-28348857D01*
X29616802Y-28348855D01*
X29471000Y-28317865D01*
X29431646Y-28309500D01*
X29242354Y-28309500D01*
X29209897Y-28316398D01*
X29057197Y-28348855D01*
X29057192Y-28348857D01*
X28884270Y-28425848D01*
X28884265Y-28425851D01*
X28731129Y-28537111D01*
X28604466Y-28677785D01*
X28509821Y-28841715D01*
X28509818Y-28841722D01*
X28452060Y-29019484D01*
X28451326Y-29021744D01*
X28431540Y-29210000D01*
X25784112Y-29210000D01*
X25797460Y-29083000D01*
X25777674Y-28894744D01*
X25719179Y-28714716D01*
X25624533Y-28550784D01*
X25497871Y-28410112D01*
X25497867Y-28410109D01*
X25344734Y-28298851D01*
X25344729Y-28298848D01*
X25171807Y-28221857D01*
X25171802Y-28221855D01*
X25026000Y-28190865D01*
X24986646Y-28182500D01*
X24797354Y-28182500D01*
X24764897Y-28189398D01*
X24612197Y-28221855D01*
X24612192Y-28221857D01*
X24439270Y-28298848D01*
X24439265Y-28298851D01*
X24286132Y-28410109D01*
X24286129Y-28410111D01*
X24286129Y-28410112D01*
X24164974Y-28544668D01*
X24105487Y-28581316D01*
X24035630Y-28579985D01*
X23980676Y-28544669D01*
X23973872Y-28537113D01*
X23973864Y-28537106D01*
X23820734Y-28425851D01*
X23820729Y-28425848D01*
X23647807Y-28348857D01*
X23647802Y-28348855D01*
X23502000Y-28317865D01*
X23462646Y-28309500D01*
X23273354Y-28309500D01*
X23240897Y-28316398D01*
X23088197Y-28348855D01*
X23088192Y-28348857D01*
X22915270Y-28425848D01*
X22915265Y-28425851D01*
X22762129Y-28537111D01*
X22635466Y-28677785D01*
X22540821Y-28841715D01*
X22540818Y-28841722D01*
X22483060Y-29019484D01*
X22482326Y-29021744D01*
X22462540Y-29210000D01*
X18018514Y-29210000D01*
X18004533Y-29185784D01*
X17877871Y-29045112D01*
X17845708Y-29021744D01*
X17724734Y-28933851D01*
X17724729Y-28933848D01*
X17551807Y-28856857D01*
X17551802Y-28856855D01*
X17406001Y-28825865D01*
X17366646Y-28817500D01*
X17177354Y-28817500D01*
X17144897Y-28824398D01*
X16992197Y-28856855D01*
X16992192Y-28856857D01*
X16819270Y-28933848D01*
X16819265Y-28933851D01*
X16666129Y-29045111D01*
X16539466Y-29185785D01*
X16444821Y-29349715D01*
X16444818Y-29349722D01*
X16386327Y-29529740D01*
X16386326Y-29529744D01*
X16366540Y-29718000D01*
X8141334Y-29718000D01*
X8191063Y-29532408D01*
X8211659Y-29297000D01*
X8191063Y-29061592D01*
X8129903Y-28833337D01*
X8030035Y-28619171D01*
X8030034Y-28619169D01*
X7894494Y-28425597D01*
X7727403Y-28258506D01*
X7671187Y-28219144D01*
X7570401Y-28148573D01*
X7526778Y-28093999D01*
X7519584Y-28024500D01*
X7551106Y-27962145D01*
X7570398Y-27945428D01*
X7727401Y-27835495D01*
X7894495Y-27668401D01*
X8030035Y-27474830D01*
X8109228Y-27305000D01*
X35543540Y-27305000D01*
X35563326Y-27493256D01*
X35563327Y-27493259D01*
X35621818Y-27673277D01*
X35621821Y-27673284D01*
X35716467Y-27837216D01*
X35797770Y-27927512D01*
X35843129Y-27977888D01*
X35996265Y-28089148D01*
X35996270Y-28089151D01*
X36169192Y-28166142D01*
X36169197Y-28166144D01*
X36354354Y-28205500D01*
X36354355Y-28205500D01*
X36543644Y-28205500D01*
X36543646Y-28205500D01*
X36728803Y-28166144D01*
X36901730Y-28089151D01*
X37054871Y-27977888D01*
X37181533Y-27837216D01*
X37276179Y-27673284D01*
X37334674Y-27493256D01*
X37354460Y-27305000D01*
X37334674Y-27116744D01*
X37276179Y-26936716D01*
X37181533Y-26772784D01*
X37054871Y-26632112D01*
X37054870Y-26632111D01*
X36901734Y-26520851D01*
X36901729Y-26520848D01*
X36728807Y-26443857D01*
X36728802Y-26443855D01*
X36583000Y-26412865D01*
X36543646Y-26404500D01*
X36354354Y-26404500D01*
X36324738Y-26410795D01*
X36169197Y-26443855D01*
X36169192Y-26443857D01*
X35996270Y-26520848D01*
X35996265Y-26520851D01*
X35843129Y-26632111D01*
X35716466Y-26772785D01*
X35621821Y-26936715D01*
X35621818Y-26936722D01*
X35563327Y-27116740D01*
X35563326Y-27116744D01*
X35543540Y-27305000D01*
X8109228Y-27305000D01*
X8129903Y-27260663D01*
X8191063Y-27032408D01*
X8211659Y-26797000D01*
X8191063Y-26561592D01*
X8129903Y-26333337D01*
X8030035Y-26119171D01*
X8030034Y-26119169D01*
X7894494Y-25925597D01*
X7876897Y-25908000D01*
X33892540Y-25908000D01*
X33912326Y-26096256D01*
X33912327Y-26096259D01*
X33970818Y-26276277D01*
X33970821Y-26276284D01*
X34065467Y-26440216D01*
X34174749Y-26561586D01*
X34192129Y-26580888D01*
X34345265Y-26692148D01*
X34345270Y-26692151D01*
X34518192Y-26769142D01*
X34518197Y-26769144D01*
X34703354Y-26808500D01*
X34703355Y-26808500D01*
X34892644Y-26808500D01*
X34892646Y-26808500D01*
X35077803Y-26769144D01*
X35250730Y-26692151D01*
X35403871Y-26580888D01*
X35530533Y-26440216D01*
X35625179Y-26276284D01*
X35683674Y-26096256D01*
X35703460Y-25908000D01*
X35683674Y-25719744D01*
X35625179Y-25539716D01*
X35530533Y-25375784D01*
X35403871Y-25235112D01*
X35378028Y-25216336D01*
X35250734Y-25123851D01*
X35250729Y-25123848D01*
X35077807Y-25046857D01*
X35077802Y-25046855D01*
X34932001Y-25015865D01*
X34892646Y-25007500D01*
X34703354Y-25007500D01*
X34670897Y-25014398D01*
X34518197Y-25046855D01*
X34518192Y-25046857D01*
X34345270Y-25123848D01*
X34345265Y-25123851D01*
X34192129Y-25235111D01*
X34065466Y-25375785D01*
X33970821Y-25539715D01*
X33970818Y-25539722D01*
X33916763Y-25706088D01*
X33912326Y-25719744D01*
X33892540Y-25908000D01*
X7876897Y-25908000D01*
X7747295Y-25778398D01*
X7713810Y-25717075D01*
X7718794Y-25647383D01*
X7760666Y-25591450D01*
X7769880Y-25585178D01*
X7843586Y-25539716D01*
X7924656Y-25489712D01*
X8048712Y-25365656D01*
X8140814Y-25216334D01*
X8195999Y-25049797D01*
X8206500Y-24947009D01*
X8206499Y-24003000D01*
X12937540Y-24003000D01*
X12957326Y-24191256D01*
X12957327Y-24191259D01*
X13015818Y-24371277D01*
X13015821Y-24371284D01*
X13110467Y-24535216D01*
X13237128Y-24675888D01*
X13237129Y-24675888D01*
X13390265Y-24787148D01*
X13390270Y-24787151D01*
X13563192Y-24864142D01*
X13563197Y-24864144D01*
X13748354Y-24903500D01*
X13748355Y-24903500D01*
X13937644Y-24903500D01*
X13937646Y-24903500D01*
X14122803Y-24864144D01*
X14295730Y-24787151D01*
X14448871Y-24675888D01*
X14482986Y-24638000D01*
X15985540Y-24638000D01*
X16005326Y-24826256D01*
X16005327Y-24826259D01*
X16063818Y-25006277D01*
X16063821Y-25006284D01*
X16158467Y-25170216D01*
X16220100Y-25238666D01*
X16285129Y-25310888D01*
X16438265Y-25422148D01*
X16438270Y-25422151D01*
X16611192Y-25499142D01*
X16611197Y-25499144D01*
X16796354Y-25538500D01*
X16796355Y-25538500D01*
X16985644Y-25538500D01*
X16985646Y-25538500D01*
X17170803Y-25499144D01*
X17343730Y-25422151D01*
X17453117Y-25342676D01*
X17518920Y-25319198D01*
X17586974Y-25335023D01*
X17598871Y-25342668D01*
X17693610Y-25411500D01*
X17708270Y-25422151D01*
X17881192Y-25499142D01*
X17881197Y-25499144D01*
X18066354Y-25538500D01*
X18066355Y-25538500D01*
X18255644Y-25538500D01*
X18255646Y-25538500D01*
X18440803Y-25499144D01*
X18613730Y-25422151D01*
X18766871Y-25310888D01*
X18893533Y-25170216D01*
X18988179Y-25006284D01*
X19046674Y-24826256D01*
X19066460Y-24638000D01*
X19046674Y-24449744D01*
X19025312Y-24384000D01*
X21065540Y-24384000D01*
X21085326Y-24572256D01*
X21085327Y-24572259D01*
X21143818Y-24752277D01*
X21143821Y-24752284D01*
X21238467Y-24916216D01*
X21282651Y-24965287D01*
X21365129Y-25056888D01*
X21518265Y-25168148D01*
X21518270Y-25168151D01*
X21691192Y-25245142D01*
X21691197Y-25245144D01*
X21876354Y-25284500D01*
X21876355Y-25284500D01*
X22065644Y-25284500D01*
X22065646Y-25284500D01*
X22250803Y-25245144D01*
X22423730Y-25168151D01*
X22576871Y-25056888D01*
X22703533Y-24916216D01*
X22798179Y-24752284D01*
X22856674Y-24572256D01*
X22876460Y-24384000D01*
X22856674Y-24195744D01*
X22798179Y-24015716D01*
X22703533Y-23851784D01*
X22576871Y-23711112D01*
X22576870Y-23711111D01*
X22418473Y-23596029D01*
X22420028Y-23593888D01*
X22379921Y-23551840D01*
X22366685Y-23483235D01*
X22392642Y-23418366D01*
X22419370Y-23395205D01*
X22418473Y-23393971D01*
X22506368Y-23330111D01*
X22576871Y-23278888D01*
X22703533Y-23138216D01*
X22798179Y-22974284D01*
X22856674Y-22794256D01*
X22876460Y-22606000D01*
X22856674Y-22417744D01*
X22798179Y-22237716D01*
X22703533Y-22073784D01*
X22610986Y-21971000D01*
X25510540Y-21971000D01*
X25530326Y-22159256D01*
X25530327Y-22159259D01*
X25588818Y-22339277D01*
X25588821Y-22339284D01*
X25683467Y-22503216D01*
X25799382Y-22631952D01*
X25810129Y-22643888D01*
X25963265Y-22755148D01*
X25963267Y-22755149D01*
X25963270Y-22755151D01*
X26008783Y-22775415D01*
X26062018Y-22820663D01*
X26082340Y-22887512D01*
X26076277Y-22927011D01*
X26046992Y-23017142D01*
X26034027Y-23057043D01*
X26014241Y-23245299D01*
X26034027Y-23433555D01*
X26034028Y-23433558D01*
X26092519Y-23613576D01*
X26092522Y-23613583D01*
X26174961Y-23756372D01*
X26191434Y-23824273D01*
X26174962Y-23880371D01*
X26096820Y-24015718D01*
X26096818Y-24015722D01*
X26039784Y-24191256D01*
X26038326Y-24195744D01*
X26018540Y-24384000D01*
X26038326Y-24572256D01*
X26038327Y-24572259D01*
X26096818Y-24752277D01*
X26096821Y-24752284D01*
X26191467Y-24916216D01*
X26235651Y-24965287D01*
X26318129Y-25056888D01*
X26471265Y-25168148D01*
X26471270Y-25168151D01*
X26644192Y-25245142D01*
X26644197Y-25245144D01*
X26829354Y-25284500D01*
X26829355Y-25284500D01*
X27018644Y-25284500D01*
X27018646Y-25284500D01*
X27203803Y-25245144D01*
X27376730Y-25168151D01*
X27529871Y-25056888D01*
X27656533Y-24916216D01*
X27751179Y-24752284D01*
X27809674Y-24572256D01*
X27829460Y-24384000D01*
X45322540Y-24384000D01*
X45342326Y-24572256D01*
X45342327Y-24572259D01*
X45400818Y-24752277D01*
X45400821Y-24752284D01*
X45495467Y-24916216D01*
X45539651Y-24965287D01*
X45622129Y-25056888D01*
X45775265Y-25168148D01*
X45775270Y-25168151D01*
X45948192Y-25245142D01*
X45948197Y-25245144D01*
X46133354Y-25284500D01*
X46133355Y-25284500D01*
X46322644Y-25284500D01*
X46322646Y-25284500D01*
X46507803Y-25245144D01*
X46680730Y-25168151D01*
X46833871Y-25056888D01*
X46960533Y-24916216D01*
X47055179Y-24752284D01*
X47113674Y-24572256D01*
X47120112Y-24511000D01*
X57895540Y-24511000D01*
X57915326Y-24699256D01*
X57915327Y-24699259D01*
X57973818Y-24879277D01*
X57973821Y-24879284D01*
X58068467Y-25043216D01*
X58180957Y-25168148D01*
X58195129Y-25183888D01*
X58348265Y-25295148D01*
X58348270Y-25295151D01*
X58521192Y-25372142D01*
X58521197Y-25372144D01*
X58706354Y-25411500D01*
X58706355Y-25411500D01*
X58895644Y-25411500D01*
X58895646Y-25411500D01*
X59080803Y-25372144D01*
X59253730Y-25295151D01*
X59406871Y-25183888D01*
X59533533Y-25043216D01*
X59628179Y-24879284D01*
X59686674Y-24699256D01*
X59706460Y-24511000D01*
X59686674Y-24322744D01*
X59628179Y-24142716D01*
X59533533Y-23978784D01*
X59422438Y-23855401D01*
X62882746Y-23855401D01*
X62892745Y-24065327D01*
X62942296Y-24269578D01*
X62942298Y-24269582D01*
X63029598Y-24460743D01*
X63029601Y-24460748D01*
X63029602Y-24460750D01*
X63029604Y-24460753D01*
X63092627Y-24549256D01*
X63151515Y-24631953D01*
X63254082Y-24729750D01*
X63289017Y-24790259D01*
X63285692Y-24860049D01*
X63245164Y-24916963D01*
X63233610Y-24925031D01*
X63168344Y-24965287D01*
X63044289Y-25089342D01*
X62952187Y-25238663D01*
X62952185Y-25238666D01*
X62952186Y-25238666D01*
X62897001Y-25405203D01*
X62897001Y-25405204D01*
X62897000Y-25405204D01*
X62886500Y-25507983D01*
X62886500Y-26308001D01*
X62886501Y-26308019D01*
X62897000Y-26410796D01*
X62897001Y-26410799D01*
X62933469Y-26520851D01*
X62952186Y-26577334D01*
X63044288Y-26726656D01*
X63168344Y-26850712D01*
X63317666Y-26942814D01*
X63484203Y-26997999D01*
X63586991Y-27008500D01*
X64937008Y-27008499D01*
X65039797Y-26997999D01*
X65206334Y-26942814D01*
X65355656Y-26850712D01*
X65479712Y-26726656D01*
X65571814Y-26577334D01*
X65626999Y-26410797D01*
X65637500Y-26308009D01*
X65637499Y-25507992D01*
X65626999Y-25405203D01*
X65571814Y-25238666D01*
X65479712Y-25089344D01*
X65355656Y-24965288D01*
X65292258Y-24926184D01*
X65245535Y-24874237D01*
X65234312Y-24805274D01*
X65262156Y-24741192D01*
X65280697Y-24723181D01*
X65299886Y-24708092D01*
X65437519Y-24549256D01*
X65494973Y-24449744D01*
X65540271Y-24371284D01*
X65542604Y-24367244D01*
X65611344Y-24168633D01*
X65641254Y-23960602D01*
X65631254Y-23750670D01*
X65581704Y-23546424D01*
X65580690Y-23544203D01*
X65494401Y-23355256D01*
X65494398Y-23355251D01*
X65494397Y-23355250D01*
X65494396Y-23355247D01*
X65372486Y-23184048D01*
X65372484Y-23184046D01*
X65372479Y-23184040D01*
X65220379Y-23039014D01*
X65179057Y-23012458D01*
X65133302Y-22959654D01*
X65123359Y-22890496D01*
X65152384Y-22826940D01*
X65169445Y-22810673D01*
X65240050Y-22755148D01*
X65299886Y-22708092D01*
X65437519Y-22549256D01*
X65442714Y-22540259D01*
X65542601Y-22367249D01*
X65542600Y-22367249D01*
X65542604Y-22367244D01*
X65611344Y-22168633D01*
X65641254Y-21960602D01*
X65631254Y-21750670D01*
X65581704Y-21546424D01*
X65574436Y-21530509D01*
X65494401Y-21355256D01*
X65494398Y-21355251D01*
X65494397Y-21355250D01*
X65494396Y-21355247D01*
X65372486Y-21184048D01*
X65372484Y-21184046D01*
X65372479Y-21184040D01*
X65220379Y-21039014D01*
X65179057Y-21012458D01*
X65133302Y-20959654D01*
X65123359Y-20890496D01*
X65152384Y-20826940D01*
X65169445Y-20810673D01*
X65212283Y-20776984D01*
X65299886Y-20708092D01*
X65437519Y-20549256D01*
X65462124Y-20506640D01*
X65517450Y-20410812D01*
X65542604Y-20367244D01*
X65611344Y-20168633D01*
X65641254Y-19960602D01*
X65631254Y-19750670D01*
X65581704Y-19546424D01*
X65581701Y-19546417D01*
X65494401Y-19355256D01*
X65494398Y-19355251D01*
X65494397Y-19355250D01*
X65494396Y-19355247D01*
X65372486Y-19184048D01*
X65372484Y-19184046D01*
X65372479Y-19184040D01*
X65220379Y-19039014D01*
X65043574Y-18925388D01*
X64848455Y-18847274D01*
X64642086Y-18807500D01*
X64642085Y-18807500D01*
X63934575Y-18807500D01*
X63777781Y-18822472D01*
X63777782Y-18822472D01*
X63777778Y-18822473D01*
X63576127Y-18881683D01*
X63389313Y-18977991D01*
X63224116Y-19107905D01*
X63224112Y-19107909D01*
X63086478Y-19266746D01*
X62981398Y-19448750D01*
X62912656Y-19647365D01*
X62912656Y-19647367D01*
X62883539Y-19849888D01*
X62882746Y-19855401D01*
X62892745Y-20065327D01*
X62942296Y-20269578D01*
X62942298Y-20269582D01*
X63029598Y-20460743D01*
X63029601Y-20460748D01*
X63029602Y-20460750D01*
X63029604Y-20460753D01*
X63104963Y-20566580D01*
X63151515Y-20631953D01*
X63151520Y-20631959D01*
X63303619Y-20776984D01*
X63344941Y-20803540D01*
X63390696Y-20856344D01*
X63400640Y-20925503D01*
X63371615Y-20989059D01*
X63354555Y-21005326D01*
X63224112Y-21107909D01*
X63086478Y-21266746D01*
X62981398Y-21448750D01*
X62912656Y-21647365D01*
X62912656Y-21647367D01*
X62886686Y-21828000D01*
X62882746Y-21855401D01*
X62892745Y-22065327D01*
X62942296Y-22269578D01*
X62942298Y-22269582D01*
X63029598Y-22460743D01*
X63029601Y-22460748D01*
X63029602Y-22460750D01*
X63029604Y-22460753D01*
X63133033Y-22605999D01*
X63151515Y-22631953D01*
X63151520Y-22631959D01*
X63303619Y-22776984D01*
X63303621Y-22776985D01*
X63303622Y-22776986D01*
X63330494Y-22794256D01*
X63344941Y-22803540D01*
X63390696Y-22856344D01*
X63400640Y-22925503D01*
X63371615Y-22989059D01*
X63354555Y-23005326D01*
X63224112Y-23107909D01*
X63086478Y-23266746D01*
X62981398Y-23448750D01*
X62912656Y-23647365D01*
X62912656Y-23647367D01*
X62882969Y-23853851D01*
X62882746Y-23855401D01*
X59422438Y-23855401D01*
X59406871Y-23838112D01*
X59406870Y-23838111D01*
X59253734Y-23726851D01*
X59253729Y-23726848D01*
X59080807Y-23649857D01*
X59080802Y-23649855D01*
X58910150Y-23613583D01*
X58895646Y-23610500D01*
X58706354Y-23610500D01*
X58691850Y-23613583D01*
X58521197Y-23649855D01*
X58521192Y-23649857D01*
X58348270Y-23726848D01*
X58348265Y-23726851D01*
X58195129Y-23838111D01*
X58068466Y-23978785D01*
X57973821Y-24142715D01*
X57973818Y-24142722D01*
X57915327Y-24322740D01*
X57915326Y-24322744D01*
X57895540Y-24511000D01*
X47120112Y-24511000D01*
X47133460Y-24384000D01*
X47113674Y-24195744D01*
X47055179Y-24015716D01*
X46960533Y-23851784D01*
X46833871Y-23711112D01*
X46833870Y-23711111D01*
X46680734Y-23599851D01*
X46680729Y-23599848D01*
X46507807Y-23522857D01*
X46507802Y-23522855D01*
X46362001Y-23491865D01*
X46322646Y-23483500D01*
X46133354Y-23483500D01*
X46100897Y-23490398D01*
X45948197Y-23522855D01*
X45948192Y-23522857D01*
X45775270Y-23599848D01*
X45775265Y-23599851D01*
X45622129Y-23711111D01*
X45495466Y-23851785D01*
X45400821Y-24015715D01*
X45400818Y-24015722D01*
X45343784Y-24191256D01*
X45342326Y-24195744D01*
X45322540Y-24384000D01*
X27829460Y-24384000D01*
X27809674Y-24195744D01*
X27751179Y-24015716D01*
X27668738Y-23872925D01*
X27652266Y-23805026D01*
X27668738Y-23748928D01*
X27746880Y-23613583D01*
X27805375Y-23433555D01*
X27825161Y-23245299D01*
X27805375Y-23057043D01*
X27746880Y-22877015D01*
X27652234Y-22713083D01*
X27525572Y-22572411D01*
X27493698Y-22549253D01*
X27372431Y-22461147D01*
X27326919Y-22440884D01*
X27273682Y-22395634D01*
X27260418Y-22352000D01*
X44941540Y-22352000D01*
X44961326Y-22540256D01*
X44961327Y-22540259D01*
X45019818Y-22720277D01*
X45019821Y-22720284D01*
X45114467Y-22884216D01*
X45223515Y-23005326D01*
X45241129Y-23024888D01*
X45394265Y-23136148D01*
X45394270Y-23136151D01*
X45567192Y-23213142D01*
X45567197Y-23213144D01*
X45752354Y-23252500D01*
X45752355Y-23252500D01*
X45941644Y-23252500D01*
X45941646Y-23252500D01*
X46126803Y-23213144D01*
X46299730Y-23136151D01*
X46452871Y-23024888D01*
X46579533Y-22884216D01*
X46674179Y-22720284D01*
X46732674Y-22540256D01*
X46752460Y-22352000D01*
X46732674Y-22163744D01*
X46730158Y-22156000D01*
X57902740Y-22156000D01*
X57922526Y-22344256D01*
X57922527Y-22344259D01*
X57981018Y-22524277D01*
X57981021Y-22524284D01*
X58075667Y-22688216D01*
X58185928Y-22810673D01*
X58202329Y-22828888D01*
X58355465Y-22940148D01*
X58355470Y-22940151D01*
X58528392Y-23017142D01*
X58528397Y-23017144D01*
X58713554Y-23056500D01*
X58713555Y-23056500D01*
X58902844Y-23056500D01*
X58902846Y-23056500D01*
X59088003Y-23017144D01*
X59260930Y-22940151D01*
X59414071Y-22828888D01*
X59540733Y-22688216D01*
X59635379Y-22524284D01*
X59693874Y-22344256D01*
X59713660Y-22156000D01*
X59693874Y-21967744D01*
X59635379Y-21787716D01*
X59540733Y-21623784D01*
X59414071Y-21483112D01*
X59366776Y-21448750D01*
X59260934Y-21371851D01*
X59260929Y-21371848D01*
X59088007Y-21294857D01*
X59088002Y-21294855D01*
X58942201Y-21263865D01*
X58902846Y-21255500D01*
X58713554Y-21255500D01*
X58681097Y-21262398D01*
X58528397Y-21294855D01*
X58528392Y-21294857D01*
X58355470Y-21371848D01*
X58355465Y-21371851D01*
X58202329Y-21483111D01*
X58075666Y-21623785D01*
X57981021Y-21787715D01*
X57981018Y-21787722D01*
X57922527Y-21967740D01*
X57922526Y-21967744D01*
X57902740Y-22156000D01*
X46730158Y-22156000D01*
X46674179Y-21983716D01*
X46579533Y-21819784D01*
X46452871Y-21679112D01*
X46422935Y-21657362D01*
X46299734Y-21567851D01*
X46299729Y-21567848D01*
X46126807Y-21490857D01*
X46126802Y-21490855D01*
X45981001Y-21459865D01*
X45941646Y-21451500D01*
X45752354Y-21451500D01*
X45719897Y-21458398D01*
X45567197Y-21490855D01*
X45567192Y-21490857D01*
X45394270Y-21567848D01*
X45394265Y-21567851D01*
X45241129Y-21679111D01*
X45114466Y-21819785D01*
X45019821Y-21983715D01*
X45019818Y-21983722D01*
X44963842Y-22156000D01*
X44961326Y-22163744D01*
X44941540Y-22352000D01*
X27260418Y-22352000D01*
X27253361Y-22328785D01*
X27259424Y-22289287D01*
X27301674Y-22159256D01*
X27321460Y-21971000D01*
X27301674Y-21782744D01*
X27243179Y-21602716D01*
X27148533Y-21438784D01*
X27021871Y-21298112D01*
X27020908Y-21297412D01*
X26868734Y-21186851D01*
X26868729Y-21186848D01*
X26695807Y-21109857D01*
X26695802Y-21109855D01*
X26550001Y-21078865D01*
X26510646Y-21070500D01*
X26321354Y-21070500D01*
X26288897Y-21077398D01*
X26136197Y-21109855D01*
X26136192Y-21109857D01*
X25963270Y-21186848D01*
X25963265Y-21186851D01*
X25810129Y-21298111D01*
X25683466Y-21438785D01*
X25588821Y-21602715D01*
X25588818Y-21602722D01*
X25539929Y-21753189D01*
X25530326Y-21782744D01*
X25510540Y-21971000D01*
X22610986Y-21971000D01*
X22576871Y-21933112D01*
X22576870Y-21933111D01*
X22423734Y-21821851D01*
X22423729Y-21821848D01*
X22250807Y-21744857D01*
X22250802Y-21744855D01*
X22105000Y-21713865D01*
X22065646Y-21705500D01*
X21876354Y-21705500D01*
X21843897Y-21712398D01*
X21691197Y-21744855D01*
X21691192Y-21744857D01*
X21518270Y-21821848D01*
X21518265Y-21821851D01*
X21365129Y-21933111D01*
X21238466Y-22073785D01*
X21143821Y-22237715D01*
X21143818Y-22237722D01*
X21094195Y-22390448D01*
X21085326Y-22417744D01*
X21065540Y-22606000D01*
X21085326Y-22794256D01*
X21085327Y-22794259D01*
X21143818Y-22974277D01*
X21143821Y-22974284D01*
X21238467Y-23138216D01*
X21354196Y-23266746D01*
X21365129Y-23278888D01*
X21523527Y-23393971D01*
X21521976Y-23396105D01*
X21562098Y-23438199D01*
X21575309Y-23506808D01*
X21549330Y-23571668D01*
X21522634Y-23594800D01*
X21523527Y-23596029D01*
X21365129Y-23711111D01*
X21238466Y-23851785D01*
X21143821Y-24015715D01*
X21143818Y-24015722D01*
X21086784Y-24191256D01*
X21085326Y-24195744D01*
X21065540Y-24384000D01*
X19025312Y-24384000D01*
X18988179Y-24269716D01*
X18893533Y-24105784D01*
X18766871Y-23965112D01*
X18766870Y-23965111D01*
X18613734Y-23853851D01*
X18613729Y-23853848D01*
X18440807Y-23776857D01*
X18440802Y-23776855D01*
X18295001Y-23745865D01*
X18255646Y-23737500D01*
X18066354Y-23737500D01*
X18033897Y-23744398D01*
X17881197Y-23776855D01*
X17881192Y-23776857D01*
X17708270Y-23853848D01*
X17708265Y-23853851D01*
X17598885Y-23933321D01*
X17533079Y-23956801D01*
X17465025Y-23940975D01*
X17453115Y-23933321D01*
X17343734Y-23853851D01*
X17343729Y-23853848D01*
X17170807Y-23776857D01*
X17170802Y-23776855D01*
X17025000Y-23745865D01*
X16985646Y-23737500D01*
X16796354Y-23737500D01*
X16763897Y-23744398D01*
X16611197Y-23776855D01*
X16611192Y-23776857D01*
X16438270Y-23853848D01*
X16438265Y-23853851D01*
X16285129Y-23965111D01*
X16158466Y-24105785D01*
X16063821Y-24269715D01*
X16063818Y-24269722D01*
X16005327Y-24449740D01*
X16005326Y-24449744D01*
X15988577Y-24609101D01*
X15986176Y-24631953D01*
X15985540Y-24638000D01*
X14482986Y-24638000D01*
X14575533Y-24535216D01*
X14670179Y-24371284D01*
X14728674Y-24191256D01*
X14748460Y-24003000D01*
X14728674Y-23814744D01*
X14670179Y-23634716D01*
X14575533Y-23470784D01*
X14448871Y-23330112D01*
X14448870Y-23330111D01*
X14295734Y-23218851D01*
X14295729Y-23218848D01*
X14122807Y-23141857D01*
X14122802Y-23141855D01*
X13977000Y-23110865D01*
X13937646Y-23102500D01*
X13748354Y-23102500D01*
X13715897Y-23109398D01*
X13563197Y-23141855D01*
X13563192Y-23141857D01*
X13390270Y-23218848D01*
X13390265Y-23218851D01*
X13237129Y-23330111D01*
X13110466Y-23470785D01*
X13015821Y-23634715D01*
X13015818Y-23634722D01*
X12958132Y-23812262D01*
X12957326Y-23814744D01*
X12937540Y-24003000D01*
X8206499Y-24003000D01*
X8206499Y-23646992D01*
X8201683Y-23599851D01*
X8195999Y-23544203D01*
X8195998Y-23544200D01*
X8188925Y-23522855D01*
X8140814Y-23377666D01*
X8048712Y-23228344D01*
X7924656Y-23104288D01*
X7818829Y-23039014D01*
X7775336Y-23012187D01*
X7775331Y-23012185D01*
X7705541Y-22989059D01*
X7608797Y-22957001D01*
X7608795Y-22957000D01*
X7506010Y-22946500D01*
X5955998Y-22946500D01*
X5955981Y-22946501D01*
X5853203Y-22957000D01*
X5853200Y-22957001D01*
X5686668Y-23012185D01*
X5686663Y-23012187D01*
X5537342Y-23104289D01*
X5413289Y-23228342D01*
X5321187Y-23377663D01*
X5321185Y-23377666D01*
X5321186Y-23377666D01*
X5266001Y-23544203D01*
X5266001Y-23544204D01*
X5266000Y-23544204D01*
X5255500Y-23646983D01*
X5255500Y-24947001D01*
X5255501Y-24947018D01*
X5266000Y-25049796D01*
X5266001Y-25049799D01*
X5321185Y-25216331D01*
X5321187Y-25216336D01*
X5338955Y-25245142D01*
X5369800Y-25295151D01*
X5413289Y-25365657D01*
X5537344Y-25489712D01*
X5692120Y-25585178D01*
X5738845Y-25637126D01*
X5750068Y-25706088D01*
X5722224Y-25770171D01*
X5714706Y-25778398D01*
X5567501Y-25925603D01*
X5567501Y-25925604D01*
X5431967Y-26119165D01*
X5431965Y-26119169D01*
X5332098Y-26333335D01*
X5332094Y-26333344D01*
X5270938Y-26561586D01*
X5270936Y-26561596D01*
X5250341Y-26796999D01*
X5250341Y-26797000D01*
X5270936Y-27032403D01*
X5270938Y-27032413D01*
X5332094Y-27260655D01*
X5332096Y-27260659D01*
X5332097Y-27260663D01*
X5352772Y-27305000D01*
X5431964Y-27474828D01*
X5431965Y-27474830D01*
X5567505Y-27668402D01*
X5734597Y-27835494D01*
X5891595Y-27945425D01*
X5935220Y-28000002D01*
X5942414Y-28069500D01*
X5910891Y-28131855D01*
X5891595Y-28148575D01*
X5734597Y-28258505D01*
X5567506Y-28425597D01*
X5567501Y-28425604D01*
X5431967Y-28619165D01*
X5431965Y-28619169D01*
X5332098Y-28833335D01*
X5332094Y-28833344D01*
X5270938Y-29061586D01*
X5270936Y-29061596D01*
X5250341Y-29296999D01*
X5250341Y-29297000D01*
X116500Y-29297000D01*
X116500Y-21125671D01*
X23507192Y-21125671D01*
X23532066Y-21266746D01*
X23537474Y-21297412D01*
X23606547Y-21457539D01*
X23710685Y-21597422D01*
X23710686Y-21597423D01*
X23710688Y-21597425D01*
X23782118Y-21657361D01*
X23844275Y-21709517D01*
X24000116Y-21787783D01*
X24169805Y-21828000D01*
X24169807Y-21828000D01*
X24300448Y-21828000D01*
X24300455Y-21828000D01*
X24430211Y-21812834D01*
X24594084Y-21753189D01*
X24739784Y-21657360D01*
X24859458Y-21530513D01*
X24946653Y-21379487D01*
X24996668Y-21212423D01*
X25006808Y-21038329D01*
X24976526Y-20866588D01*
X24907453Y-20706461D01*
X24803315Y-20566578D01*
X24803312Y-20566576D01*
X24803311Y-20566574D01*
X24669725Y-20454483D01*
X24669723Y-20454482D01*
X24513887Y-20376218D01*
X24513885Y-20376217D01*
X24513884Y-20376217D01*
X24344195Y-20336000D01*
X24213545Y-20336000D01*
X24112623Y-20347795D01*
X24083787Y-20351166D01*
X24083785Y-20351167D01*
X23919917Y-20410810D01*
X23919913Y-20410812D01*
X23774218Y-20506637D01*
X23774217Y-20506638D01*
X23654543Y-20633485D01*
X23654539Y-20633490D01*
X23567347Y-20784511D01*
X23517333Y-20951573D01*
X23517331Y-20951581D01*
X23507192Y-21125670D01*
X23507192Y-21125671D01*
X116500Y-21125671D01*
X116500Y-20193000D01*
X32368540Y-20193000D01*
X32388326Y-20381256D01*
X32388327Y-20381259D01*
X32446818Y-20561277D01*
X32446821Y-20561284D01*
X32541467Y-20725216D01*
X32659536Y-20856344D01*
X32668129Y-20865888D01*
X32821265Y-20977148D01*
X32821270Y-20977151D01*
X32994192Y-21054142D01*
X32994197Y-21054144D01*
X33179354Y-21093500D01*
X33179355Y-21093500D01*
X33368644Y-21093500D01*
X33368646Y-21093500D01*
X33553803Y-21054144D01*
X33726730Y-20977151D01*
X33879871Y-20865888D01*
X34006533Y-20725216D01*
X34101179Y-20561284D01*
X34159674Y-20381256D01*
X34179460Y-20193000D01*
X34159674Y-20004744D01*
X34101179Y-19824716D01*
X34006533Y-19660784D01*
X33879871Y-19520112D01*
X33816384Y-19473986D01*
X33726734Y-19408851D01*
X33726729Y-19408848D01*
X33553807Y-19331857D01*
X33553802Y-19331855D01*
X33408000Y-19300865D01*
X33368646Y-19292500D01*
X33179354Y-19292500D01*
X33146897Y-19299398D01*
X32994197Y-19331855D01*
X32994192Y-19331857D01*
X32821270Y-19408848D01*
X32821265Y-19408851D01*
X32668129Y-19520111D01*
X32541466Y-19660785D01*
X32446821Y-19824715D01*
X32446818Y-19824722D01*
X32388327Y-20004740D01*
X32388326Y-20004744D01*
X32368540Y-20193000D01*
X116500Y-20193000D01*
X116500Y-18552401D01*
X4827746Y-18552401D01*
X4837745Y-18762327D01*
X4887296Y-18966578D01*
X4887298Y-18966582D01*
X4974598Y-19157743D01*
X4974601Y-19157748D01*
X4974602Y-19157750D01*
X4974604Y-19157753D01*
X5070557Y-19292500D01*
X5096515Y-19328953D01*
X5096520Y-19328959D01*
X5248620Y-19473985D01*
X5343578Y-19535011D01*
X5425428Y-19587613D01*
X5620543Y-19665725D01*
X5723729Y-19685612D01*
X5826914Y-19705500D01*
X5826915Y-19705500D01*
X6534419Y-19705500D01*
X6534425Y-19705500D01*
X6691218Y-19690528D01*
X6892875Y-19631316D01*
X7079682Y-19535011D01*
X7098628Y-19520112D01*
X7198646Y-19441456D01*
X7244886Y-19405092D01*
X7376502Y-19253200D01*
X36826540Y-19253200D01*
X36846326Y-19441456D01*
X36846327Y-19441459D01*
X36904818Y-19621477D01*
X36904821Y-19621484D01*
X36999467Y-19785416D01*
X37062482Y-19855401D01*
X37126129Y-19926088D01*
X37279265Y-20037348D01*
X37279270Y-20037351D01*
X37452192Y-20114342D01*
X37452197Y-20114344D01*
X37637354Y-20153700D01*
X37637355Y-20153700D01*
X37826644Y-20153700D01*
X37826646Y-20153700D01*
X38011803Y-20114344D01*
X38184730Y-20037351D01*
X38337871Y-19926088D01*
X38464533Y-19785416D01*
X38559179Y-19621484D01*
X38617674Y-19441456D01*
X38637460Y-19253200D01*
X38629451Y-19177000D01*
X49132540Y-19177000D01*
X49152326Y-19365256D01*
X49152327Y-19365259D01*
X49210818Y-19545277D01*
X49210821Y-19545284D01*
X49305467Y-19709216D01*
X49432129Y-19849888D01*
X49585265Y-19961148D01*
X49585270Y-19961151D01*
X49758192Y-20038142D01*
X49758197Y-20038144D01*
X49943354Y-20077500D01*
X49943355Y-20077500D01*
X50132644Y-20077500D01*
X50132646Y-20077500D01*
X50317803Y-20038144D01*
X50483433Y-19964400D01*
X57895540Y-19964400D01*
X57915326Y-20152656D01*
X57915327Y-20152659D01*
X57973818Y-20332677D01*
X57973821Y-20332684D01*
X58068467Y-20496616D01*
X58131463Y-20566580D01*
X58195129Y-20637288D01*
X58348265Y-20748548D01*
X58348270Y-20748551D01*
X58521192Y-20825542D01*
X58521197Y-20825544D01*
X58706354Y-20864900D01*
X58706355Y-20864900D01*
X58895644Y-20864900D01*
X58895646Y-20864900D01*
X59080803Y-20825544D01*
X59253730Y-20748551D01*
X59406871Y-20637288D01*
X59533533Y-20496616D01*
X59628179Y-20332684D01*
X59686674Y-20152656D01*
X59706460Y-19964400D01*
X59686674Y-19776144D01*
X59628179Y-19596116D01*
X59533533Y-19432184D01*
X59406871Y-19291512D01*
X59406870Y-19291511D01*
X59253734Y-19180251D01*
X59253729Y-19180248D01*
X59080807Y-19103257D01*
X59080802Y-19103255D01*
X58934450Y-19072148D01*
X58895646Y-19063900D01*
X58706354Y-19063900D01*
X58673897Y-19070798D01*
X58521197Y-19103255D01*
X58521192Y-19103257D01*
X58348270Y-19180248D01*
X58348265Y-19180251D01*
X58195129Y-19291511D01*
X58068466Y-19432185D01*
X57973821Y-19596115D01*
X57973818Y-19596122D01*
X57937072Y-19709216D01*
X57915326Y-19776144D01*
X57895540Y-19964400D01*
X50483433Y-19964400D01*
X50490730Y-19961151D01*
X50643871Y-19849888D01*
X50770533Y-19709216D01*
X50865179Y-19545284D01*
X50923674Y-19365256D01*
X50943460Y-19177000D01*
X50923674Y-18988744D01*
X50865179Y-18808716D01*
X50770533Y-18644784D01*
X50643871Y-18504112D01*
X50643870Y-18504111D01*
X50490734Y-18392851D01*
X50490729Y-18392848D01*
X50317807Y-18315857D01*
X50317802Y-18315855D01*
X50172001Y-18284865D01*
X50132646Y-18276500D01*
X49943354Y-18276500D01*
X49910897Y-18283398D01*
X49758197Y-18315855D01*
X49758192Y-18315857D01*
X49585270Y-18392848D01*
X49585265Y-18392851D01*
X49432129Y-18504111D01*
X49305466Y-18644785D01*
X49210821Y-18808715D01*
X49210818Y-18808722D01*
X49155820Y-18977991D01*
X49152326Y-18988744D01*
X49132540Y-19177000D01*
X38629451Y-19177000D01*
X38617674Y-19064944D01*
X38559179Y-18884916D01*
X38464533Y-18720984D01*
X38337871Y-18580312D01*
X38299451Y-18552398D01*
X38184734Y-18469051D01*
X38184729Y-18469048D01*
X38011807Y-18392057D01*
X38011802Y-18392055D01*
X37866001Y-18361065D01*
X37826646Y-18352700D01*
X37637354Y-18352700D01*
X37604897Y-18359598D01*
X37452197Y-18392055D01*
X37452192Y-18392057D01*
X37279270Y-18469048D01*
X37279265Y-18469051D01*
X37126129Y-18580311D01*
X36999466Y-18720985D01*
X36904821Y-18884915D01*
X36904818Y-18884922D01*
X36854751Y-19039014D01*
X36846326Y-19064944D01*
X36826540Y-19253200D01*
X7376502Y-19253200D01*
X7382519Y-19246256D01*
X7487604Y-19064244D01*
X7556344Y-18865633D01*
X7586254Y-18657602D01*
X7576254Y-18447670D01*
X7537518Y-18288000D01*
X28685540Y-18288000D01*
X28705326Y-18476256D01*
X28705327Y-18476259D01*
X28763818Y-18656277D01*
X28763821Y-18656284D01*
X28858467Y-18820216D01*
X28916729Y-18884922D01*
X28985129Y-18960888D01*
X29138265Y-19072148D01*
X29138270Y-19072151D01*
X29311192Y-19149142D01*
X29311197Y-19149144D01*
X29496354Y-19188500D01*
X29496355Y-19188500D01*
X29685644Y-19188500D01*
X29685646Y-19188500D01*
X29870803Y-19149144D01*
X30043730Y-19072151D01*
X30196871Y-18960888D01*
X30260850Y-18889831D01*
X30320337Y-18853183D01*
X30390194Y-18854514D01*
X30445150Y-18889832D01*
X30509129Y-18960888D01*
X30662265Y-19072148D01*
X30662270Y-19072151D01*
X30835192Y-19149142D01*
X30835197Y-19149144D01*
X31020354Y-19188500D01*
X31020355Y-19188500D01*
X31209644Y-19188500D01*
X31209646Y-19188500D01*
X31394803Y-19149144D01*
X31567730Y-19072151D01*
X31720871Y-18960888D01*
X31847533Y-18820216D01*
X31942179Y-18656284D01*
X32000674Y-18476256D01*
X32020460Y-18288000D01*
X32000674Y-18099744D01*
X31942179Y-17919716D01*
X31847533Y-17755784D01*
X31720871Y-17615112D01*
X31720870Y-17615111D01*
X31567734Y-17503851D01*
X31567729Y-17503848D01*
X31394807Y-17426857D01*
X31394802Y-17426855D01*
X31249000Y-17395865D01*
X31209646Y-17387500D01*
X31020354Y-17387500D01*
X30987897Y-17394398D01*
X30835197Y-17426855D01*
X30835192Y-17426857D01*
X30662270Y-17503848D01*
X30662265Y-17503851D01*
X30509129Y-17615111D01*
X30509128Y-17615112D01*
X30445149Y-17686168D01*
X30385663Y-17722816D01*
X30315806Y-17721485D01*
X30260851Y-17686168D01*
X30196871Y-17615112D01*
X30196870Y-17615111D01*
X30043734Y-17503851D01*
X30043729Y-17503848D01*
X29870807Y-17426857D01*
X29870802Y-17426855D01*
X29725001Y-17395865D01*
X29685646Y-17387500D01*
X29496354Y-17387500D01*
X29463897Y-17394398D01*
X29311197Y-17426855D01*
X29311192Y-17426857D01*
X29138270Y-17503848D01*
X29138265Y-17503851D01*
X28985129Y-17615111D01*
X28858466Y-17755785D01*
X28763821Y-17919715D01*
X28763818Y-17919722D01*
X28719491Y-18056148D01*
X28705326Y-18099744D01*
X28685540Y-18288000D01*
X7537518Y-18288000D01*
X7526704Y-18243424D01*
X7494314Y-18172500D01*
X7439401Y-18052256D01*
X7439398Y-18052251D01*
X7439397Y-18052250D01*
X7439396Y-18052247D01*
X7317486Y-17881048D01*
X7317484Y-17881046D01*
X7317479Y-17881040D01*
X7165379Y-17736014D01*
X7124057Y-17709458D01*
X7078302Y-17656654D01*
X7068359Y-17587496D01*
X7097384Y-17523940D01*
X7114445Y-17507673D01*
X7174740Y-17460256D01*
X7244886Y-17405092D01*
X7360212Y-17272000D01*
X21319540Y-17272000D01*
X21339326Y-17460256D01*
X21339327Y-17460259D01*
X21397818Y-17640277D01*
X21397821Y-17640284D01*
X21492467Y-17804216D01*
X21619128Y-17944888D01*
X21619129Y-17944888D01*
X21772265Y-18056148D01*
X21772270Y-18056151D01*
X21945192Y-18133142D01*
X21945197Y-18133144D01*
X22130354Y-18172500D01*
X22130355Y-18172500D01*
X22319644Y-18172500D01*
X22319646Y-18172500D01*
X22504803Y-18133144D01*
X22677730Y-18056151D01*
X22830871Y-17944888D01*
X22957533Y-17804216D01*
X23052179Y-17640284D01*
X23110674Y-17460256D01*
X23130460Y-17272000D01*
X25764540Y-17272000D01*
X25784326Y-17460256D01*
X25784327Y-17460259D01*
X25842818Y-17640277D01*
X25842821Y-17640284D01*
X25937467Y-17804216D01*
X26064129Y-17944888D01*
X26217265Y-18056148D01*
X26217270Y-18056151D01*
X26390192Y-18133142D01*
X26390197Y-18133144D01*
X26575354Y-18172500D01*
X26575355Y-18172500D01*
X26764644Y-18172500D01*
X26764646Y-18172500D01*
X26949803Y-18133144D01*
X27122730Y-18056151D01*
X27275871Y-17944888D01*
X27402533Y-17804216D01*
X27497179Y-17640284D01*
X27555674Y-17460256D01*
X27575460Y-17272000D01*
X27555674Y-17083744D01*
X27497179Y-16903716D01*
X27402533Y-16739784D01*
X27275871Y-16599112D01*
X27245935Y-16577362D01*
X27122734Y-16487851D01*
X27122729Y-16487848D01*
X26949807Y-16410857D01*
X26949802Y-16410855D01*
X26804001Y-16379865D01*
X26764646Y-16371500D01*
X26575354Y-16371500D01*
X26542897Y-16378398D01*
X26390197Y-16410855D01*
X26390192Y-16410857D01*
X26217270Y-16487848D01*
X26217265Y-16487851D01*
X26061583Y-16600961D01*
X25995777Y-16624441D01*
X25937916Y-16610985D01*
X25956006Y-16676364D01*
X25939409Y-16736419D01*
X25842820Y-16903718D01*
X25842818Y-16903722D01*
X25822394Y-16966582D01*
X25784326Y-17083744D01*
X25764540Y-17272000D01*
X23130460Y-17272000D01*
X23110674Y-17083744D01*
X23054323Y-16910317D01*
X23052329Y-16840477D01*
X23088409Y-16780644D01*
X23151110Y-16749816D01*
X23172255Y-16748000D01*
X23285448Y-16748000D01*
X23285455Y-16748000D01*
X23415211Y-16732834D01*
X23579084Y-16673189D01*
X23724784Y-16577360D01*
X23844458Y-16450513D01*
X23931653Y-16299487D01*
X23981668Y-16132423D01*
X23986721Y-16045671D01*
X24522192Y-16045671D01*
X24547685Y-16190256D01*
X24552474Y-16217412D01*
X24621547Y-16377539D01*
X24725685Y-16517422D01*
X24725686Y-16517423D01*
X24725688Y-16517425D01*
X24797118Y-16577361D01*
X24859275Y-16629517D01*
X25015116Y-16707783D01*
X25184805Y-16748000D01*
X25184807Y-16748000D01*
X25315448Y-16748000D01*
X25315455Y-16748000D01*
X25445211Y-16732834D01*
X25609084Y-16673189D01*
X25721712Y-16599112D01*
X25760818Y-16573392D01*
X25762004Y-16575195D01*
X25816300Y-16551421D01*
X25882406Y-16561985D01*
X25879028Y-16558509D01*
X25865153Y-16490031D01*
X25881311Y-16438643D01*
X25897354Y-16410856D01*
X25961653Y-16299487D01*
X26011668Y-16132423D01*
X26021808Y-15958329D01*
X25991526Y-15786588D01*
X25922453Y-15626461D01*
X25918387Y-15621000D01*
X58276540Y-15621000D01*
X58296326Y-15809256D01*
X58296327Y-15809259D01*
X58354818Y-15989277D01*
X58354821Y-15989284D01*
X58449467Y-16153216D01*
X58482821Y-16190259D01*
X58576129Y-16293888D01*
X58729265Y-16405148D01*
X58729270Y-16405151D01*
X58902192Y-16482142D01*
X58902197Y-16482144D01*
X59087354Y-16521500D01*
X59087355Y-16521500D01*
X59276644Y-16521500D01*
X59276646Y-16521500D01*
X59461803Y-16482144D01*
X59634730Y-16405151D01*
X59787871Y-16293888D01*
X59914533Y-16153216D01*
X60009179Y-15989284D01*
X60067674Y-15809256D01*
X60087460Y-15621000D01*
X60067674Y-15432744D01*
X60009179Y-15252716D01*
X59914533Y-15088784D01*
X59787871Y-14948112D01*
X59787870Y-14948111D01*
X59634734Y-14836851D01*
X59634729Y-14836848D01*
X59461807Y-14759857D01*
X59461802Y-14759855D01*
X59316001Y-14728865D01*
X59276646Y-14720500D01*
X59087354Y-14720500D01*
X59054897Y-14727398D01*
X58902197Y-14759855D01*
X58902192Y-14759857D01*
X58729270Y-14836848D01*
X58729265Y-14836851D01*
X58576129Y-14948111D01*
X58449466Y-15088785D01*
X58354821Y-15252715D01*
X58354818Y-15252722D01*
X58305310Y-15405094D01*
X58296326Y-15432744D01*
X58280061Y-15587496D01*
X58278251Y-15604725D01*
X58276540Y-15621000D01*
X25918387Y-15621000D01*
X25818315Y-15486578D01*
X25818312Y-15486576D01*
X25818311Y-15486574D01*
X25684725Y-15374483D01*
X25684723Y-15374482D01*
X25528887Y-15296218D01*
X25528885Y-15296217D01*
X25528884Y-15296217D01*
X25359195Y-15256000D01*
X25228545Y-15256000D01*
X25127623Y-15267795D01*
X25098787Y-15271166D01*
X25098785Y-15271167D01*
X24934917Y-15330810D01*
X24934913Y-15330812D01*
X24789218Y-15426637D01*
X24789217Y-15426638D01*
X24669543Y-15553485D01*
X24669539Y-15553490D01*
X24582347Y-15704511D01*
X24532333Y-15871573D01*
X24532331Y-15871581D01*
X24522192Y-16045670D01*
X24522192Y-16045671D01*
X23986721Y-16045671D01*
X23991808Y-15958329D01*
X23961526Y-15786588D01*
X23892453Y-15626461D01*
X23788315Y-15486578D01*
X23788312Y-15486576D01*
X23788311Y-15486574D01*
X23654725Y-15374483D01*
X23654723Y-15374482D01*
X23498887Y-15296218D01*
X23498885Y-15296217D01*
X23498884Y-15296217D01*
X23329195Y-15256000D01*
X23198545Y-15256000D01*
X23097623Y-15267795D01*
X23068787Y-15271166D01*
X23068785Y-15271167D01*
X22904917Y-15330810D01*
X22904913Y-15330812D01*
X22759218Y-15426637D01*
X22759217Y-15426638D01*
X22639543Y-15553485D01*
X22639539Y-15553490D01*
X22552347Y-15704511D01*
X22502333Y-15871573D01*
X22502331Y-15871581D01*
X22492192Y-16045670D01*
X22492192Y-16045671D01*
X22522473Y-16217412D01*
X22524545Y-16224330D01*
X22522415Y-16224967D01*
X22529583Y-16283586D01*
X22499221Y-16346514D01*
X22439658Y-16383038D01*
X22381466Y-16384640D01*
X22370684Y-16382348D01*
X22319646Y-16371500D01*
X22130354Y-16371500D01*
X22097897Y-16378398D01*
X21945197Y-16410855D01*
X21945192Y-16410857D01*
X21772270Y-16487848D01*
X21772265Y-16487851D01*
X21619129Y-16599111D01*
X21492466Y-16739785D01*
X21397821Y-16903715D01*
X21397818Y-16903722D01*
X21377394Y-16966582D01*
X21339326Y-17083744D01*
X21319540Y-17272000D01*
X7360212Y-17272000D01*
X7382519Y-17246256D01*
X7487604Y-17064244D01*
X7556344Y-16865633D01*
X7586254Y-16657602D01*
X7576254Y-16447670D01*
X7526704Y-16243424D01*
X7514825Y-16217412D01*
X7439401Y-16052256D01*
X7439398Y-16052251D01*
X7439397Y-16052250D01*
X7439396Y-16052247D01*
X7317486Y-15881048D01*
X7317484Y-15881046D01*
X7317479Y-15881040D01*
X7165379Y-15736014D01*
X7124057Y-15709458D01*
X7078302Y-15656654D01*
X7068359Y-15587496D01*
X7097384Y-15523940D01*
X7114445Y-15507673D01*
X7215431Y-15428256D01*
X7244886Y-15405092D01*
X7382519Y-15246256D01*
X7386131Y-15240000D01*
X11159540Y-15240000D01*
X11179326Y-15428256D01*
X11179327Y-15428259D01*
X11237818Y-15608277D01*
X11237821Y-15608284D01*
X11332467Y-15772216D01*
X11421936Y-15871581D01*
X11459129Y-15912888D01*
X11612265Y-16024148D01*
X11612270Y-16024151D01*
X11785192Y-16101142D01*
X11785197Y-16101144D01*
X11970354Y-16140500D01*
X11970355Y-16140500D01*
X12159644Y-16140500D01*
X12159646Y-16140500D01*
X12344803Y-16101144D01*
X12517730Y-16024151D01*
X12548218Y-16002000D01*
X16620540Y-16002000D01*
X16640326Y-16190256D01*
X16640327Y-16190259D01*
X16698818Y-16370277D01*
X16698821Y-16370284D01*
X16793467Y-16534216D01*
X16874706Y-16624441D01*
X16920129Y-16674888D01*
X17073265Y-16786148D01*
X17073270Y-16786151D01*
X17246192Y-16863142D01*
X17246197Y-16863144D01*
X17431354Y-16902500D01*
X17431355Y-16902500D01*
X17620644Y-16902500D01*
X17620646Y-16902500D01*
X17805803Y-16863144D01*
X17978730Y-16786151D01*
X18131871Y-16674888D01*
X18258533Y-16534216D01*
X18353179Y-16370284D01*
X18411674Y-16190256D01*
X18431460Y-16002000D01*
X19160540Y-16002000D01*
X19180326Y-16190256D01*
X19180327Y-16190259D01*
X19238818Y-16370277D01*
X19238821Y-16370284D01*
X19333467Y-16534216D01*
X19414706Y-16624441D01*
X19460129Y-16674888D01*
X19613265Y-16786148D01*
X19613270Y-16786151D01*
X19786192Y-16863142D01*
X19786197Y-16863144D01*
X19971354Y-16902500D01*
X19971355Y-16902500D01*
X20160644Y-16902500D01*
X20160646Y-16902500D01*
X20345803Y-16863144D01*
X20518730Y-16786151D01*
X20671871Y-16674888D01*
X20798533Y-16534216D01*
X20893179Y-16370284D01*
X20951674Y-16190256D01*
X20971460Y-16002000D01*
X20951674Y-15813744D01*
X20893179Y-15633716D01*
X20798533Y-15469784D01*
X20671871Y-15329112D01*
X20671870Y-15329111D01*
X20518734Y-15217851D01*
X20518729Y-15217848D01*
X20345807Y-15140857D01*
X20345802Y-15140855D01*
X20200001Y-15109865D01*
X20160646Y-15101500D01*
X19971354Y-15101500D01*
X19938897Y-15108398D01*
X19786197Y-15140855D01*
X19786192Y-15140857D01*
X19613270Y-15217848D01*
X19613265Y-15217851D01*
X19460129Y-15329111D01*
X19333466Y-15469785D01*
X19238821Y-15633715D01*
X19238818Y-15633722D01*
X19181784Y-15809256D01*
X19180326Y-15813744D01*
X19160540Y-16002000D01*
X18431460Y-16002000D01*
X18411674Y-15813744D01*
X18353179Y-15633716D01*
X18258533Y-15469784D01*
X18131871Y-15329112D01*
X18131870Y-15329111D01*
X17978734Y-15217851D01*
X17978729Y-15217848D01*
X17805807Y-15140857D01*
X17805802Y-15140855D01*
X17660001Y-15109865D01*
X17620646Y-15101500D01*
X17431354Y-15101500D01*
X17398897Y-15108398D01*
X17246197Y-15140855D01*
X17246192Y-15140857D01*
X17073270Y-15217848D01*
X17073265Y-15217851D01*
X16920129Y-15329111D01*
X16793466Y-15469785D01*
X16698821Y-15633715D01*
X16698818Y-15633722D01*
X16641784Y-15809256D01*
X16640326Y-15813744D01*
X16620540Y-16002000D01*
X12548218Y-16002000D01*
X12670871Y-15912888D01*
X12797533Y-15772216D01*
X12892179Y-15608284D01*
X12950674Y-15428256D01*
X12970460Y-15240000D01*
X12950674Y-15051744D01*
X12892179Y-14871716D01*
X12797533Y-14707784D01*
X12670871Y-14567112D01*
X12650619Y-14552398D01*
X12517734Y-14455851D01*
X12517729Y-14455848D01*
X12344807Y-14378857D01*
X12344802Y-14378855D01*
X12182548Y-14344368D01*
X12159646Y-14339500D01*
X11970354Y-14339500D01*
X11947452Y-14344368D01*
X11785197Y-14378855D01*
X11785192Y-14378857D01*
X11612270Y-14455848D01*
X11612265Y-14455851D01*
X11459129Y-14567111D01*
X11332466Y-14707785D01*
X11237821Y-14871715D01*
X11237818Y-14871722D01*
X11179327Y-15051740D01*
X11179326Y-15051744D01*
X11159540Y-15240000D01*
X7386131Y-15240000D01*
X7386132Y-15239999D01*
X7487601Y-15064249D01*
X7487600Y-15064249D01*
X7487604Y-15064244D01*
X7556344Y-14865633D01*
X7586254Y-14657602D01*
X7576254Y-14447670D01*
X7526704Y-14243424D01*
X7526701Y-14243417D01*
X7439401Y-14052256D01*
X7439398Y-14052251D01*
X7439397Y-14052250D01*
X7439396Y-14052247D01*
X7317486Y-13881048D01*
X7317484Y-13881046D01*
X7214543Y-13782892D01*
X7179608Y-13722383D01*
X7182933Y-13652593D01*
X7223461Y-13595678D01*
X7235017Y-13587610D01*
X7300343Y-13547317D01*
X7424315Y-13423345D01*
X7516356Y-13274124D01*
X7516358Y-13274119D01*
X7571505Y-13107697D01*
X7571506Y-13107690D01*
X7581999Y-13004986D01*
X7582000Y-13004973D01*
X7582000Y-12855000D01*
X6486560Y-12855000D01*
X6525278Y-12812941D01*
X6575551Y-12698330D01*
X6585886Y-12573605D01*
X6555163Y-12452281D01*
X6491606Y-12355000D01*
X7581999Y-12355000D01*
X7581999Y-12205028D01*
X7581998Y-12205013D01*
X7571505Y-12102302D01*
X7516358Y-11935880D01*
X7516356Y-11935875D01*
X7424315Y-11786654D01*
X7300345Y-11662684D01*
X7151124Y-11570643D01*
X7151119Y-11570641D01*
X6984697Y-11515494D01*
X6984690Y-11515493D01*
X6881986Y-11505000D01*
X6457000Y-11505000D01*
X6457000Y-12324382D01*
X6387948Y-12270637D01*
X6269576Y-12230000D01*
X6175927Y-12230000D01*
X6083554Y-12245414D01*
X5973486Y-12304981D01*
X5957000Y-12322889D01*
X5957000Y-11505000D01*
X5532028Y-11505000D01*
X5532012Y-11505001D01*
X5429302Y-11515494D01*
X5262880Y-11570641D01*
X5262875Y-11570643D01*
X5113654Y-11662684D01*
X4989684Y-11786654D01*
X4897643Y-11935875D01*
X4897641Y-11935880D01*
X4842494Y-12102302D01*
X4842493Y-12102309D01*
X4832000Y-12205013D01*
X4832000Y-12355000D01*
X5927440Y-12355000D01*
X5888722Y-12397059D01*
X5838449Y-12511670D01*
X5828114Y-12636395D01*
X5858837Y-12757719D01*
X5922394Y-12855000D01*
X4832001Y-12855000D01*
X4832001Y-13004986D01*
X4842494Y-13107697D01*
X4897641Y-13274119D01*
X4897643Y-13274124D01*
X4989684Y-13423345D01*
X5113654Y-13547315D01*
X5177158Y-13586485D01*
X5223882Y-13638433D01*
X5235105Y-13707396D01*
X5207261Y-13771478D01*
X5188715Y-13789493D01*
X5169113Y-13804908D01*
X5169112Y-13804909D01*
X5031478Y-13963746D01*
X4926398Y-14145750D01*
X4857656Y-14344365D01*
X4857656Y-14344367D01*
X4841628Y-14455851D01*
X4827746Y-14552401D01*
X4837745Y-14762327D01*
X4887296Y-14966578D01*
X4887298Y-14966582D01*
X4974598Y-15157743D01*
X4974601Y-15157748D01*
X4974602Y-15157750D01*
X4974604Y-15157753D01*
X5096514Y-15328952D01*
X5096515Y-15328953D01*
X5096520Y-15328959D01*
X5248619Y-15473984D01*
X5248621Y-15473985D01*
X5248622Y-15473986D01*
X5268215Y-15486578D01*
X5289941Y-15500540D01*
X5335696Y-15553344D01*
X5345640Y-15622503D01*
X5316615Y-15686059D01*
X5299555Y-15702326D01*
X5169112Y-15804909D01*
X5031478Y-15963746D01*
X4926398Y-16145750D01*
X4857656Y-16344365D01*
X4857656Y-16344367D01*
X4827887Y-16551421D01*
X4827746Y-16552401D01*
X4837745Y-16762327D01*
X4887296Y-16966578D01*
X4887298Y-16966582D01*
X4974598Y-17157743D01*
X4974601Y-17157748D01*
X4974602Y-17157750D01*
X4974604Y-17157753D01*
X5037627Y-17246256D01*
X5096515Y-17328953D01*
X5096520Y-17328959D01*
X5248619Y-17473984D01*
X5289941Y-17500540D01*
X5335696Y-17553344D01*
X5345640Y-17622503D01*
X5316615Y-17686059D01*
X5299555Y-17702326D01*
X5169112Y-17804909D01*
X5031478Y-17963746D01*
X4926398Y-18145750D01*
X4857656Y-18344365D01*
X4857656Y-18344367D01*
X4834689Y-18504112D01*
X4827746Y-18552401D01*
X116500Y-18552401D01*
X116500Y-5080000D01*
X1501422Y-5080000D01*
X1521722Y-5467339D01*
X1558755Y-5701159D01*
X1582398Y-5850433D01*
X1634565Y-6045125D01*
X1682788Y-6225094D01*
X1821787Y-6587197D01*
X1997877Y-6932793D01*
X2209122Y-7258082D01*
X2379478Y-7468454D01*
X2453219Y-7559516D01*
X2727484Y-7833781D01*
X2761618Y-7861422D01*
X3028917Y-8077877D01*
X3354206Y-8289122D01*
X3354211Y-8289125D01*
X3699806Y-8465214D01*
X4061913Y-8604214D01*
X4436567Y-8704602D01*
X4819662Y-8765278D01*
X5185576Y-8784455D01*
X5206999Y-8785578D01*
X5207000Y-8785578D01*
X5207001Y-8785578D01*
X5227300Y-8784514D01*
X5594338Y-8765278D01*
X5977433Y-8704602D01*
X6352087Y-8604214D01*
X6714194Y-8465214D01*
X7059789Y-8289125D01*
X7385084Y-8077876D01*
X7686516Y-7833781D01*
X7960781Y-7559516D01*
X8204876Y-7258084D01*
X8416125Y-6932789D01*
X8592214Y-6587194D01*
X8731214Y-6225087D01*
X8791794Y-5999000D01*
X12032341Y-5999000D01*
X12052936Y-6234403D01*
X12052938Y-6234413D01*
X12114094Y-6462655D01*
X12114096Y-6462659D01*
X12114097Y-6462663D01*
X12195704Y-6637670D01*
X12213965Y-6676830D01*
X12213967Y-6676834D01*
X12349501Y-6870395D01*
X12349506Y-6870402D01*
X12516597Y-7037493D01*
X12516603Y-7037498D01*
X12702594Y-7167730D01*
X12746219Y-7222307D01*
X12753413Y-7291805D01*
X12721890Y-7354160D01*
X12702595Y-7370880D01*
X12516922Y-7500890D01*
X12516920Y-7500891D01*
X12349891Y-7667920D01*
X12349886Y-7667926D01*
X12214400Y-7861420D01*
X12214399Y-7861422D01*
X12114570Y-8075507D01*
X12114567Y-8075513D01*
X12057364Y-8288999D01*
X12057364Y-8289000D01*
X12954314Y-8289000D01*
X12928507Y-8329156D01*
X12888000Y-8467111D01*
X12888000Y-8610889D01*
X12928507Y-8748844D01*
X12954314Y-8789000D01*
X12057364Y-8789000D01*
X12114567Y-9002486D01*
X12114570Y-9002492D01*
X12214399Y-9216578D01*
X12349894Y-9410082D01*
X12471946Y-9532134D01*
X12505431Y-9593457D01*
X12500447Y-9663149D01*
X12458575Y-9719082D01*
X12427598Y-9735997D01*
X12295671Y-9785202D01*
X12295664Y-9785206D01*
X12180455Y-9871452D01*
X12180452Y-9871455D01*
X12094206Y-9986664D01*
X12094202Y-9986671D01*
X12043908Y-10121517D01*
X12037501Y-10181116D01*
X12037501Y-10181123D01*
X12037500Y-10181135D01*
X12037500Y-11976870D01*
X12037501Y-11976876D01*
X12043908Y-12036483D01*
X12094202Y-12171328D01*
X12094206Y-12171335D01*
X12180452Y-12286544D01*
X12180455Y-12286547D01*
X12295664Y-12372793D01*
X12295671Y-12372797D01*
X12430517Y-12423091D01*
X12430516Y-12423091D01*
X12437444Y-12423835D01*
X12490127Y-12429500D01*
X14285872Y-12429499D01*
X14345483Y-12423091D01*
X14480331Y-12372796D01*
X14595546Y-12286546D01*
X14681796Y-12171331D01*
X14732091Y-12036483D01*
X14738500Y-11976873D01*
X14738499Y-10181128D01*
X14732091Y-10121517D01*
X14681796Y-9986669D01*
X14681795Y-9986668D01*
X14681793Y-9986664D01*
X14595547Y-9871455D01*
X14595544Y-9871452D01*
X14480335Y-9785206D01*
X14480328Y-9785202D01*
X14348401Y-9735997D01*
X14292467Y-9694126D01*
X14268050Y-9628662D01*
X14282902Y-9560389D01*
X14304053Y-9532133D01*
X14426108Y-9410078D01*
X14561600Y-9216578D01*
X14661429Y-9002492D01*
X14661432Y-9002486D01*
X14718636Y-8789000D01*
X13821686Y-8789000D01*
X13847493Y-8748844D01*
X13888000Y-8610889D01*
X13888000Y-8467111D01*
X13847493Y-8329156D01*
X13821686Y-8289000D01*
X14718636Y-8289000D01*
X14718635Y-8288999D01*
X14661432Y-8075513D01*
X14661429Y-8075507D01*
X14561600Y-7861422D01*
X14561599Y-7861420D01*
X14426113Y-7667926D01*
X14426108Y-7667920D01*
X14259078Y-7500890D01*
X14073405Y-7370879D01*
X14029780Y-7316302D01*
X14022588Y-7246804D01*
X14054110Y-7184449D01*
X14073406Y-7167730D01*
X14229510Y-7058425D01*
X52557500Y-7058425D01*
X52572472Y-7215218D01*
X52631684Y-7416875D01*
X52705220Y-7559516D01*
X52727991Y-7603686D01*
X52857905Y-7768883D01*
X52857909Y-7768887D01*
X53016746Y-7906521D01*
X53198750Y-8011601D01*
X53198752Y-8011601D01*
X53198756Y-8011604D01*
X53397367Y-8080344D01*
X53605398Y-8110254D01*
X53815330Y-8100254D01*
X54019576Y-8050704D01*
X54105199Y-8011601D01*
X54210743Y-7963401D01*
X54210746Y-7963399D01*
X54210753Y-7963396D01*
X54381952Y-7841486D01*
X54389303Y-7833777D01*
X54526986Y-7689378D01*
X54526986Y-7689377D01*
X54553540Y-7648058D01*
X54606343Y-7602303D01*
X54675502Y-7592359D01*
X54739058Y-7621383D01*
X54755326Y-7638444D01*
X54857909Y-7768887D01*
X55016746Y-7906521D01*
X55198750Y-8011601D01*
X55198752Y-8011601D01*
X55198756Y-8011604D01*
X55397367Y-8080344D01*
X55605398Y-8110254D01*
X55815330Y-8100254D01*
X56019576Y-8050704D01*
X56105199Y-8011601D01*
X56210743Y-7963401D01*
X56210746Y-7963399D01*
X56210753Y-7963396D01*
X56381952Y-7841486D01*
X56480107Y-7738543D01*
X56540615Y-7703609D01*
X56610406Y-7706933D01*
X56667320Y-7747461D01*
X56675389Y-7759016D01*
X56715684Y-7824345D01*
X56839654Y-7948315D01*
X56988875Y-8040356D01*
X56988880Y-8040358D01*
X57155302Y-8095505D01*
X57155309Y-8095506D01*
X57258019Y-8105999D01*
X57407999Y-8105999D01*
X57408000Y-8105998D01*
X57408000Y-7011617D01*
X57477052Y-7065363D01*
X57595424Y-7106000D01*
X57689073Y-7106000D01*
X57781446Y-7090586D01*
X57891514Y-7031019D01*
X57908000Y-7013110D01*
X57908000Y-8105999D01*
X58057972Y-8105999D01*
X58057986Y-8105998D01*
X58160697Y-8095505D01*
X58327119Y-8040358D01*
X58327124Y-8040356D01*
X58476345Y-7948315D01*
X58600315Y-7824345D01*
X58692356Y-7675124D01*
X58692358Y-7675119D01*
X58747505Y-7508697D01*
X58747506Y-7508690D01*
X58757999Y-7405986D01*
X58758000Y-7405973D01*
X58758000Y-6981000D01*
X57937560Y-6981000D01*
X57976278Y-6938941D01*
X58026551Y-6824330D01*
X58036886Y-6699605D01*
X58006163Y-6578281D01*
X57942606Y-6481000D01*
X58757999Y-6481000D01*
X58757999Y-6056028D01*
X58757998Y-6056013D01*
X58747505Y-5953302D01*
X58692358Y-5786880D01*
X58692356Y-5786875D01*
X58600315Y-5637654D01*
X58476345Y-5513684D01*
X58327124Y-5421643D01*
X58327119Y-5421641D01*
X58160697Y-5366494D01*
X58160690Y-5366493D01*
X58057986Y-5356000D01*
X57908000Y-5356000D01*
X57908000Y-6450382D01*
X57838948Y-6396637D01*
X57720576Y-6356000D01*
X57626927Y-6356000D01*
X57534554Y-6371414D01*
X57424486Y-6430981D01*
X57408000Y-6448889D01*
X57408000Y-5356000D01*
X57258027Y-5356000D01*
X57258012Y-5356001D01*
X57155302Y-5366494D01*
X56988880Y-5421641D01*
X56988875Y-5421643D01*
X56839654Y-5513684D01*
X56715682Y-5637656D01*
X56676513Y-5701159D01*
X56624564Y-5747883D01*
X56555602Y-5759104D01*
X56491520Y-5731260D01*
X56473504Y-5712712D01*
X56458092Y-5693114D01*
X56458090Y-5693112D01*
X56299253Y-5555478D01*
X56117249Y-5450398D01*
X56117245Y-5450396D01*
X56117244Y-5450396D01*
X55918633Y-5381656D01*
X55710602Y-5351746D01*
X55710598Y-5351746D01*
X55500672Y-5361745D01*
X55296421Y-5411296D01*
X55296417Y-5411298D01*
X55105256Y-5498598D01*
X55105251Y-5498601D01*
X54934046Y-5620515D01*
X54934040Y-5620520D01*
X54789016Y-5772618D01*
X54762458Y-5813943D01*
X54709653Y-5859697D01*
X54640494Y-5869640D01*
X54576939Y-5840614D01*
X54560673Y-5823554D01*
X54458094Y-5693116D01*
X54458090Y-5693112D01*
X54299253Y-5555478D01*
X54117249Y-5450398D01*
X54117245Y-5450396D01*
X54117244Y-5450396D01*
X53918633Y-5381656D01*
X53710602Y-5351746D01*
X53710598Y-5351746D01*
X53500672Y-5361745D01*
X53296421Y-5411296D01*
X53296417Y-5411298D01*
X53105256Y-5498598D01*
X53105251Y-5498601D01*
X52934046Y-5620515D01*
X52934040Y-5620520D01*
X52789014Y-5772620D01*
X52675388Y-5949425D01*
X52597274Y-6144544D01*
X52577570Y-6246782D01*
X52557500Y-6350915D01*
X52557500Y-7058425D01*
X14229510Y-7058425D01*
X14259401Y-7037495D01*
X14426495Y-6870401D01*
X14562035Y-6676830D01*
X14661903Y-6462663D01*
X14723063Y-6234408D01*
X14743659Y-5999000D01*
X14723063Y-5763592D01*
X14661903Y-5535337D01*
X14562035Y-5321171D01*
X14426495Y-5127599D01*
X14426494Y-5127597D01*
X14378897Y-5080000D01*
X62207422Y-5080000D01*
X62227722Y-5467339D01*
X62264755Y-5701159D01*
X62288398Y-5850433D01*
X62340565Y-6045125D01*
X62388788Y-6225094D01*
X62527787Y-6587197D01*
X62703877Y-6932793D01*
X62915122Y-7258082D01*
X63085478Y-7468454D01*
X63159219Y-7559516D01*
X63433484Y-7833781D01*
X63467618Y-7861422D01*
X63734917Y-8077877D01*
X64060206Y-8289122D01*
X64060211Y-8289125D01*
X64405806Y-8465214D01*
X64767913Y-8604214D01*
X65142567Y-8704602D01*
X65525662Y-8765278D01*
X65891576Y-8784455D01*
X65912999Y-8785578D01*
X65913000Y-8785578D01*
X65913001Y-8785578D01*
X65933300Y-8784514D01*
X66300338Y-8765278D01*
X66683433Y-8704602D01*
X67058087Y-8604214D01*
X67420194Y-8465214D01*
X67765789Y-8289125D01*
X68091084Y-8077876D01*
X68392516Y-7833781D01*
X68666781Y-7559516D01*
X68910876Y-7258084D01*
X69122125Y-6932789D01*
X69298214Y-6587194D01*
X69437214Y-6225087D01*
X69537602Y-5850433D01*
X69598278Y-5467338D01*
X69618578Y-5080000D01*
X69598278Y-4692662D01*
X69537602Y-4309567D01*
X69437214Y-3934913D01*
X69298214Y-3572806D01*
X69122125Y-3227211D01*
X69122122Y-3227206D01*
X68910877Y-2901917D01*
X68666784Y-2600488D01*
X68666781Y-2600484D01*
X68392516Y-2326219D01*
X68218245Y-2185097D01*
X68091082Y-2082122D01*
X67765793Y-1870877D01*
X67420197Y-1694787D01*
X67058094Y-1555788D01*
X67027521Y-1547596D01*
X66683433Y-1455398D01*
X66683429Y-1455397D01*
X66683428Y-1455397D01*
X66300339Y-1394722D01*
X65913001Y-1374422D01*
X65912999Y-1374422D01*
X65525660Y-1394722D01*
X65142572Y-1455397D01*
X65142570Y-1455397D01*
X64767905Y-1555788D01*
X64405802Y-1694787D01*
X64060206Y-1870877D01*
X63734917Y-2082122D01*
X63433488Y-2326215D01*
X63433480Y-2326222D01*
X63159222Y-2600480D01*
X63159215Y-2600488D01*
X62915122Y-2901917D01*
X62703877Y-3227206D01*
X62527787Y-3572802D01*
X62388788Y-3934905D01*
X62288397Y-4309570D01*
X62288397Y-4309572D01*
X62227722Y-4692660D01*
X62207422Y-5079999D01*
X62207422Y-5080000D01*
X14378897Y-5080000D01*
X14259402Y-4960506D01*
X14259401Y-4960505D01*
X14073842Y-4830575D01*
X14073841Y-4830574D01*
X14030216Y-4775997D01*
X14023024Y-4706498D01*
X14054546Y-4644144D01*
X14073836Y-4627428D01*
X14259401Y-4497495D01*
X14426495Y-4330401D01*
X14562035Y-4136830D01*
X14661903Y-3922663D01*
X14723063Y-3694408D01*
X14743659Y-3459000D01*
X14723063Y-3223592D01*
X14661903Y-2995337D01*
X14562035Y-2781171D01*
X14435518Y-2600484D01*
X14426494Y-2587597D01*
X14259402Y-2420506D01*
X14259395Y-2420501D01*
X14065834Y-2284967D01*
X14065830Y-2284965D01*
X14065828Y-2284964D01*
X13851663Y-2185097D01*
X13851659Y-2185096D01*
X13851655Y-2185094D01*
X13623413Y-2123938D01*
X13623403Y-2123936D01*
X13388001Y-2103341D01*
X13387999Y-2103341D01*
X13152596Y-2123936D01*
X13152586Y-2123938D01*
X12924344Y-2185094D01*
X12924335Y-2185098D01*
X12710171Y-2284964D01*
X12710169Y-2284965D01*
X12516597Y-2420505D01*
X12349505Y-2587597D01*
X12213965Y-2781169D01*
X12213964Y-2781171D01*
X12114098Y-2995335D01*
X12114094Y-2995344D01*
X12052938Y-3223586D01*
X12052936Y-3223596D01*
X12032341Y-3458999D01*
X12032341Y-3459000D01*
X12052936Y-3694403D01*
X12052938Y-3694413D01*
X12114094Y-3922655D01*
X12114096Y-3922659D01*
X12114097Y-3922663D01*
X12213965Y-4136830D01*
X12213967Y-4136834D01*
X12349501Y-4330395D01*
X12349506Y-4330402D01*
X12516597Y-4497493D01*
X12516603Y-4497498D01*
X12702158Y-4627425D01*
X12745783Y-4682002D01*
X12752977Y-4751500D01*
X12721454Y-4813855D01*
X12702158Y-4830575D01*
X12516597Y-4960505D01*
X12349505Y-5127597D01*
X12213965Y-5321169D01*
X12213964Y-5321171D01*
X12114098Y-5535335D01*
X12114094Y-5535344D01*
X12052938Y-5763586D01*
X12052936Y-5763596D01*
X12032341Y-5998999D01*
X12032341Y-5999000D01*
X8791794Y-5999000D01*
X8831602Y-5850433D01*
X8892278Y-5467338D01*
X8912578Y-5080000D01*
X8892278Y-4692662D01*
X8831602Y-4309567D01*
X8731214Y-3934913D01*
X8592214Y-3572806D01*
X8416125Y-3227211D01*
X8416122Y-3227206D01*
X8204877Y-2901917D01*
X7960784Y-2600488D01*
X7960781Y-2600484D01*
X7686516Y-2326219D01*
X7512245Y-2185097D01*
X7385082Y-2082122D01*
X7059793Y-1870877D01*
X6714197Y-1694787D01*
X6352094Y-1555788D01*
X6321521Y-1547596D01*
X5977433Y-1455398D01*
X5977429Y-1455397D01*
X5977428Y-1455397D01*
X5594339Y-1394722D01*
X5207001Y-1374422D01*
X5206999Y-1374422D01*
X4819660Y-1394722D01*
X4436572Y-1455397D01*
X4436570Y-1455397D01*
X4061905Y-1555788D01*
X3699802Y-1694787D01*
X3354206Y-1870877D01*
X3028917Y-2082122D01*
X2727488Y-2326215D01*
X2727480Y-2326222D01*
X2453222Y-2600480D01*
X2453215Y-2600488D01*
X2209122Y-2901917D01*
X1997877Y-3227206D01*
X1821787Y-3572802D01*
X1682788Y-3934905D01*
X1582397Y-4309570D01*
X1582397Y-4309572D01*
X1521722Y-4692660D01*
X1501422Y-5079999D01*
X1501422Y-5080000D01*
X116500Y-5080000D01*
X116500Y-2090036D01*
X116633Y-2085980D01*
X121989Y-2004265D01*
X123541Y-1982561D01*
X134986Y-1822538D01*
X136015Y-1814901D01*
X159155Y-1698567D01*
X190533Y-1554323D01*
X192392Y-1547625D01*
X232547Y-1429335D01*
X233087Y-1427817D01*
X282162Y-1296242D01*
X284628Y-1290530D01*
X341044Y-1176129D01*
X342152Y-1173996D01*
X408184Y-1053066D01*
X411029Y-1048368D01*
X482563Y-941311D01*
X484428Y-938676D01*
X566291Y-829321D01*
X569244Y-825678D01*
X654503Y-728459D01*
X657198Y-725581D01*
X753581Y-629198D01*
X756459Y-626503D01*
X853678Y-541244D01*
X857321Y-538291D01*
X966676Y-456428D01*
X969311Y-454563D01*
X1076368Y-383029D01*
X1081066Y-380184D01*
X1201996Y-314152D01*
X1204129Y-313044D01*
X1318530Y-256628D01*
X1324242Y-254162D01*
X1455817Y-205087D01*
X1457335Y-204547D01*
X1575625Y-164392D01*
X1582323Y-162533D01*
X1726567Y-131155D01*
X1842901Y-108015D01*
X1850536Y-106986D01*
X2032290Y-93986D01*
X2062237Y-92023D01*
X2113981Y-88633D01*
X2118036Y-88500D01*
X69113964Y-88500D01*
X69118019Y-88633D01*
G37*
%TD.AperFunction*%
%TD*%
M02*
