%TF.GenerationSoftware,KiCad,Pcbnew,7.0.5-0*%
%TF.CreationDate,2023-06-05T21:18:08-04:00*%
%TF.ProjectId,7-segment-display-controller,372d7365-676d-4656-9e74-2d646973706c,B*%
%TF.SameCoordinates,Original*%
%TF.FileFunction,Soldermask,Top*%
%TF.FilePolarity,Negative*%
%FSLAX46Y46*%
G04 Gerber Fmt 4.6, Leading zero omitted, Abs format (unit mm)*
G04 Created by KiCad (PCBNEW 7.0.5-0) date 2023-06-05 21:18:08*
%MOMM*%
%LPD*%
G01*
G04 APERTURE LIST*
G04 Aperture macros list*
%AMRoundRect*
0 Rectangle with rounded corners*
0 $1 Rounding radius*
0 $2 $3 $4 $5 $6 $7 $8 $9 X,Y pos of 4 corners*
0 Add a 4 corners polygon primitive as box body*
4,1,4,$2,$3,$4,$5,$6,$7,$8,$9,$2,$3,0*
0 Add four circle primitives for the rounded corners*
1,1,$1+$1,$2,$3*
1,1,$1+$1,$4,$5*
1,1,$1+$1,$6,$7*
1,1,$1+$1,$8,$9*
0 Add four rect primitives between the rounded corners*
20,1,$1+$1,$2,$3,$4,$5,0*
20,1,$1+$1,$4,$5,$6,$7,0*
20,1,$1+$1,$6,$7,$8,$9,0*
20,1,$1+$1,$8,$9,$2,$3,0*%
%AMFreePoly0*
4,1,19,0.550000,-0.750000,0.000000,-0.750000,0.000000,-0.744911,-0.071157,-0.744911,-0.207708,-0.704816,-0.327430,-0.627875,-0.420627,-0.520320,-0.479746,-0.390866,-0.500000,-0.250000,-0.500000,0.250000,-0.479746,0.390866,-0.420627,0.520320,-0.327430,0.627875,-0.207708,0.704816,-0.071157,0.744911,0.000000,0.744911,0.000000,0.750000,0.550000,0.750000,0.550000,-0.750000,0.550000,-0.750000,
$1*%
%AMFreePoly1*
4,1,19,0.000000,0.744911,0.071157,0.744911,0.207708,0.704816,0.327430,0.627875,0.420627,0.520320,0.479746,0.390866,0.500000,0.250000,0.500000,-0.250000,0.479746,-0.390866,0.420627,-0.520320,0.327430,-0.627875,0.207708,-0.704816,0.071157,-0.744911,0.000000,-0.744911,0.000000,-0.750000,-0.550000,-0.750000,-0.550000,0.750000,0.000000,0.750000,0.000000,0.744911,0.000000,0.744911,
$1*%
G04 Aperture macros list end*
%ADD10RoundRect,0.150000X-0.587500X-0.150000X0.587500X-0.150000X0.587500X0.150000X-0.587500X0.150000X0*%
%ADD11RoundRect,0.200000X0.275000X-0.200000X0.275000X0.200000X-0.275000X0.200000X-0.275000X-0.200000X0*%
%ADD12RoundRect,0.200000X-0.200000X-0.275000X0.200000X-0.275000X0.200000X0.275000X-0.200000X0.275000X0*%
%ADD13R,1.700000X1.700000*%
%ADD14O,1.700000X1.700000*%
%ADD15RoundRect,0.225000X-0.250000X0.225000X-0.250000X-0.225000X0.250000X-0.225000X0.250000X0.225000X0*%
%ADD16R,1.500000X2.000000*%
%ADD17R,3.800000X2.000000*%
%ADD18R,1.000000X1.800000*%
%ADD19RoundRect,0.218750X0.218750X0.256250X-0.218750X0.256250X-0.218750X-0.256250X0.218750X-0.256250X0*%
%ADD20RoundRect,0.225000X-0.225000X-0.250000X0.225000X-0.250000X0.225000X0.250000X-0.225000X0.250000X0*%
%ADD21C,0.800000*%
%ADD22C,6.400000*%
%ADD23R,0.400000X1.350000*%
%ADD24O,1.200000X1.900000*%
%ADD25R,1.200000X1.900000*%
%ADD26C,1.450000*%
%ADD27R,1.500000X1.900000*%
%ADD28RoundRect,0.250000X0.350000X0.625000X-0.350000X0.625000X-0.350000X-0.625000X0.350000X-0.625000X0*%
%ADD29O,1.200000X1.750000*%
%ADD30RoundRect,0.225000X0.250000X-0.225000X0.250000X0.225000X-0.250000X0.225000X-0.250000X-0.225000X0*%
%ADD31FreePoly0,180.000000*%
%ADD32R,1.000000X1.500000*%
%ADD33FreePoly1,180.000000*%
%ADD34RoundRect,0.150000X0.150000X-0.512500X0.150000X0.512500X-0.150000X0.512500X-0.150000X-0.512500X0*%
%ADD35RoundRect,0.150000X-0.150000X0.512500X-0.150000X-0.512500X0.150000X-0.512500X0.150000X0.512500X0*%
%ADD36C,0.991000*%
%ADD37C,0.787000*%
%ADD38RoundRect,0.250000X0.650000X-1.000000X0.650000X1.000000X-0.650000X1.000000X-0.650000X-1.000000X0*%
%ADD39RoundRect,0.075000X0.700000X0.075000X-0.700000X0.075000X-0.700000X-0.075000X0.700000X-0.075000X0*%
%ADD40RoundRect,0.075000X0.075000X0.700000X-0.075000X0.700000X-0.075000X-0.700000X0.075000X-0.700000X0*%
%ADD41RoundRect,0.250000X-0.725000X0.600000X-0.725000X-0.600000X0.725000X-0.600000X0.725000X0.600000X0*%
%ADD42O,1.950000X1.700000*%
%ADD43R,1.000000X0.750000*%
%ADD44RoundRect,0.575000X-1.625000X-0.575000X1.625000X-0.575000X1.625000X0.575000X-1.625000X0.575000X0*%
%ADD45RoundRect,0.575000X-1.425000X-0.575000X1.425000X-0.575000X1.425000X0.575000X-1.425000X0.575000X0*%
%ADD46RoundRect,0.250000X-1.500000X-0.550000X1.500000X-0.550000X1.500000X0.550000X-1.500000X0.550000X0*%
%ADD47R,1.200000X1.400000*%
%ADD48RoundRect,0.150000X-0.150000X0.825000X-0.150000X-0.825000X0.150000X-0.825000X0.150000X0.825000X0*%
%ADD49RoundRect,0.250000X0.625000X-0.350000X0.625000X0.350000X-0.625000X0.350000X-0.625000X-0.350000X0*%
%ADD50O,1.750000X1.200000*%
%ADD51R,0.800000X0.500000*%
%ADD52R,0.800000X0.400000*%
%ADD53RoundRect,0.250000X-0.450000X0.325000X-0.450000X-0.325000X0.450000X-0.325000X0.450000X0.325000X0*%
%ADD54RoundRect,0.250000X-0.350000X-0.625000X0.350000X-0.625000X0.350000X0.625000X-0.350000X0.625000X0*%
%ADD55RoundRect,0.225000X0.225000X0.250000X-0.225000X0.250000X-0.225000X-0.250000X0.225000X-0.250000X0*%
%ADD56R,0.650000X0.400000*%
%ADD57R,0.760000X1.270000*%
%ADD58RoundRect,0.250000X0.625000X-0.375000X0.625000X0.375000X-0.625000X0.375000X-0.625000X-0.375000X0*%
%ADD59RoundRect,0.250000X-0.625000X0.350000X-0.625000X-0.350000X0.625000X-0.350000X0.625000X0.350000X0*%
G04 APERTURE END LIST*
D10*
%TO.C,Q101*%
X47449500Y-41468000D03*
X47449500Y-43368000D03*
X49324500Y-42418000D03*
%TD*%
D11*
%TO.C,R110*%
X24892000Y-28003000D03*
X24892000Y-26353000D03*
%TD*%
D12*
%TO.C,R102*%
X55819200Y-19920800D03*
X57469200Y-19920800D03*
%TD*%
D13*
%TO.C,OLED101*%
X13388000Y-11079000D03*
D14*
X13388000Y-8539000D03*
X13388000Y-5999000D03*
X13388000Y-3459000D03*
%TD*%
D15*
%TO.C,C107*%
X42926000Y-25996600D03*
X42926000Y-27546600D03*
%TD*%
D16*
%TO.C,U201*%
X3045700Y-41402400D03*
X5345700Y-41402400D03*
D17*
X5345700Y-35102400D03*
D16*
X7645700Y-41402400D03*
%TD*%
D12*
%TO.C,R101*%
X55880000Y-22156000D03*
X57530000Y-22156000D03*
%TD*%
D18*
%TO.C,Y103*%
X42652000Y-35687000D03*
X40152000Y-35687000D03*
%TD*%
D19*
%TO.C,D101*%
X54165100Y-22181400D03*
X52590100Y-22181400D03*
%TD*%
D20*
%TO.C,C109*%
X44894200Y-30632400D03*
X46444200Y-30632400D03*
%TD*%
D21*
%TO.C,H104*%
X2807000Y-48768000D03*
X3509944Y-47070944D03*
X3509944Y-50465056D03*
X5207000Y-46368000D03*
D22*
X5207000Y-48768000D03*
D21*
X5207000Y-51168000D03*
X6904056Y-47070944D03*
X6904056Y-50465056D03*
X7607000Y-48768000D03*
%TD*%
D15*
%TO.C,C116*%
X38557200Y-40931800D03*
X38557200Y-42481800D03*
%TD*%
D23*
%TO.C,J102*%
X21890200Y-49794700D03*
X22540200Y-49794700D03*
X23190200Y-49794700D03*
X23840200Y-49794700D03*
X24490200Y-49794700D03*
D24*
X19690200Y-52494700D03*
D25*
X20290200Y-52494700D03*
D26*
X20690200Y-49794700D03*
D27*
X22190200Y-52494700D03*
X24190200Y-52494700D03*
D26*
X25690200Y-49794700D03*
D25*
X26090200Y-52494700D03*
D24*
X26690200Y-52494700D03*
%TD*%
D28*
%TO.C,J106*%
X57658000Y-6731000D03*
D29*
X55658000Y-6731000D03*
X53658000Y-6731000D03*
%TD*%
D15*
%TO.C,C201*%
X9779000Y-39179200D03*
X9779000Y-40729200D03*
%TD*%
D30*
%TO.C,C104*%
X25019000Y-34049000D03*
X25019000Y-32499000D03*
%TD*%
D31*
%TO.C,SW107*%
X13873000Y-21717000D03*
D32*
X12573000Y-21717000D03*
D33*
X11273000Y-21717000D03*
%TD*%
D30*
%TO.C,C112*%
X40132000Y-39129000D03*
X40132000Y-37579000D03*
%TD*%
D15*
%TO.C,C106*%
X41198800Y-25996600D03*
X41198800Y-27546600D03*
%TD*%
D20*
%TO.C,C111*%
X36156600Y-20370800D03*
X37706600Y-20370800D03*
%TD*%
D34*
%TO.C,U102*%
X21935400Y-45485900D03*
X22885400Y-45485900D03*
X23835400Y-45485900D03*
X23835400Y-43210900D03*
X22885400Y-43210900D03*
X21935400Y-43210900D03*
%TD*%
D35*
%TO.C,U103*%
X14031000Y-16769500D03*
X13081000Y-16769500D03*
X12131000Y-16769500D03*
X12131000Y-19044500D03*
X14031000Y-19044500D03*
%TD*%
D36*
%TO.C,J101*%
X24257000Y-21082000D03*
X23242000Y-16002000D03*
X25272000Y-16002000D03*
D37*
X24892000Y-19812000D03*
X23622000Y-19812000D03*
X24892000Y-18542000D03*
X23622000Y-18542000D03*
X24892000Y-17272000D03*
X23622000Y-17272000D03*
%TD*%
D38*
%TO.C,D106*%
X43942000Y-47339000D03*
X43942000Y-43339000D03*
%TD*%
D39*
%TO.C,U101*%
X38695000Y-32960000D03*
X38695000Y-32460000D03*
X38695000Y-31960000D03*
X38695000Y-31460000D03*
X38695000Y-30960000D03*
X38695000Y-30460000D03*
X38695000Y-29960000D03*
X38695000Y-29460000D03*
X38695000Y-28960000D03*
X38695000Y-28460000D03*
X38695000Y-27960000D03*
X38695000Y-27460000D03*
X38695000Y-26960000D03*
X38695000Y-26460000D03*
X38695000Y-25960000D03*
X38695000Y-25460000D03*
D40*
X36770000Y-23535000D03*
X36270000Y-23535000D03*
X35770000Y-23535000D03*
X35270000Y-23535000D03*
X34770000Y-23535000D03*
X34270000Y-23535000D03*
X33770000Y-23535000D03*
X33270000Y-23535000D03*
X32770000Y-23535000D03*
X32270000Y-23535000D03*
X31770000Y-23535000D03*
X31270000Y-23535000D03*
X30770000Y-23535000D03*
X30270000Y-23535000D03*
X29770000Y-23535000D03*
X29270000Y-23535000D03*
D39*
X27345000Y-25460000D03*
X27345000Y-25960000D03*
X27345000Y-26460000D03*
X27345000Y-26960000D03*
X27345000Y-27460000D03*
X27345000Y-27960000D03*
X27345000Y-28460000D03*
X27345000Y-28960000D03*
X27345000Y-29460000D03*
X27345000Y-29960000D03*
X27345000Y-30460000D03*
X27345000Y-30960000D03*
X27345000Y-31460000D03*
X27345000Y-31960000D03*
X27345000Y-32460000D03*
X27345000Y-32960000D03*
D40*
X29270000Y-34885000D03*
X29770000Y-34885000D03*
X30270000Y-34885000D03*
X30770000Y-34885000D03*
X31270000Y-34885000D03*
X31770000Y-34885000D03*
X32270000Y-34885000D03*
X32770000Y-34885000D03*
X33270000Y-34885000D03*
X33770000Y-34885000D03*
X34270000Y-34885000D03*
X34770000Y-34885000D03*
X35270000Y-34885000D03*
X35770000Y-34885000D03*
X36270000Y-34885000D03*
X36770000Y-34885000D03*
%TD*%
D11*
%TO.C,R103*%
X43383200Y-32219400D03*
X43383200Y-30569400D03*
%TD*%
D41*
%TO.C,J104*%
X6731000Y-24297000D03*
D42*
X6731000Y-26797000D03*
X6731000Y-29297000D03*
%TD*%
D19*
%TO.C,D102*%
X54129700Y-19920800D03*
X52554700Y-19920800D03*
%TD*%
D43*
%TO.C,SW106*%
X60881000Y-11841000D03*
X66881000Y-11841000D03*
X60881000Y-15591000D03*
X66881000Y-15591000D03*
%TD*%
D44*
%TO.C,BT101*%
X52502800Y-36322000D03*
D45*
X68502800Y-36322000D03*
%TD*%
D46*
%TO.C,C115*%
X14318000Y-29718000D03*
X19718000Y-29718000D03*
%TD*%
D11*
%TO.C,R104*%
X12446000Y-26733000D03*
X12446000Y-25083000D03*
%TD*%
D21*
%TO.C,H103*%
X2807000Y-5080000D03*
X3509944Y-3382944D03*
X3509944Y-6777056D03*
X5207000Y-2680000D03*
D22*
X5207000Y-5080000D03*
D21*
X5207000Y-7480000D03*
X6904056Y-3382944D03*
X6904056Y-6777056D03*
X7607000Y-5080000D03*
%TD*%
D47*
%TO.C,Y101*%
X46671600Y-34755000D03*
X46671600Y-32555000D03*
X44971600Y-32555000D03*
X44971600Y-34755000D03*
%TD*%
D30*
%TO.C,C117*%
X31115000Y-20968000D03*
X31115000Y-19418000D03*
%TD*%
D48*
%TO.C,U104*%
X20701000Y-17845000D03*
X19431000Y-17845000D03*
X18161000Y-17845000D03*
X16891000Y-17845000D03*
X16891000Y-22795000D03*
X18161000Y-22795000D03*
X19431000Y-22795000D03*
X20701000Y-22795000D03*
%TD*%
D11*
%TO.C,R109*%
X23368000Y-28003000D03*
X23368000Y-26353000D03*
%TD*%
D49*
%TO.C,J103*%
X64262000Y-25908000D03*
D50*
X64262000Y-23908000D03*
X64262000Y-21908000D03*
X64262000Y-19908000D03*
%TD*%
D20*
%TO.C,C103*%
X28054000Y-20955000D03*
X29604000Y-20955000D03*
%TD*%
D12*
%TO.C,R105*%
X55829600Y-24467400D03*
X57479600Y-24467400D03*
%TD*%
D21*
%TO.C,H101*%
X63513000Y-5080000D03*
X64215944Y-3382944D03*
X64215944Y-6777056D03*
X65913000Y-2680000D03*
D22*
X65913000Y-5080000D03*
D21*
X65913000Y-7480000D03*
X67610056Y-3382944D03*
X67610056Y-6777056D03*
X68313000Y-5080000D03*
%TD*%
%TO.C,H102*%
X63513000Y-48768000D03*
X64215944Y-47070944D03*
X64215944Y-50465056D03*
X65913000Y-46368000D03*
D22*
X65913000Y-48768000D03*
D21*
X65913000Y-51168000D03*
X67610056Y-47070944D03*
X67610056Y-50465056D03*
X68313000Y-48768000D03*
%TD*%
D51*
%TO.C,RN101*%
X39254000Y-46716800D03*
D52*
X39254000Y-45916800D03*
X39254000Y-45116800D03*
D51*
X39254000Y-44316800D03*
X37454000Y-44316800D03*
D52*
X37454000Y-45116800D03*
X37454000Y-45916800D03*
D51*
X37454000Y-46716800D03*
%TD*%
D38*
%TO.C,D103*%
X12319000Y-44545000D03*
X12319000Y-40545000D03*
%TD*%
D53*
%TO.C,FB101*%
X44704000Y-25645000D03*
X44704000Y-27695000D03*
%TD*%
D54*
%TO.C,J107*%
X51455000Y-47608000D03*
D29*
X53455000Y-47608000D03*
%TD*%
D55*
%TO.C,C118*%
X15507000Y-25273000D03*
X13957000Y-25273000D03*
%TD*%
D56*
%TO.C,D104*%
X24953000Y-24399000D03*
X24953000Y-23749000D03*
X24953000Y-23099000D03*
X23053000Y-23099000D03*
X23053000Y-23749000D03*
X23053000Y-24399000D03*
%TD*%
D19*
%TO.C,D107*%
X54140100Y-24467400D03*
X52565100Y-24467400D03*
%TD*%
D55*
%TO.C,C105*%
X37249400Y-37795200D03*
X35699400Y-37795200D03*
%TD*%
D15*
%TO.C,C114*%
X59182000Y-12941000D03*
X59182000Y-14491000D03*
%TD*%
D57*
%TO.C,SW101*%
X31115000Y-48768000D03*
X32385000Y-48768000D03*
X33655000Y-48768000D03*
X34925000Y-48768000D03*
X34925000Y-41148000D03*
X33655000Y-41148000D03*
X32385000Y-41148000D03*
X31115000Y-41148000D03*
%TD*%
D55*
%TO.C,C202*%
X10046000Y-33020000D03*
X8496000Y-33020000D03*
%TD*%
D30*
%TO.C,C113*%
X42545000Y-39129000D03*
X42545000Y-37579000D03*
%TD*%
D15*
%TO.C,C101*%
X40081200Y-40931800D03*
X40081200Y-42481800D03*
%TD*%
D58*
%TO.C,F101*%
X15240000Y-44326000D03*
X15240000Y-41526000D03*
%TD*%
D59*
%TO.C,J105*%
X6207000Y-12605000D03*
D50*
X6207000Y-14605000D03*
X6207000Y-16605000D03*
X6207000Y-18605000D03*
%TD*%
D20*
%TO.C,C102*%
X28054000Y-19431000D03*
X29604000Y-19431000D03*
%TD*%
D30*
%TO.C,C108*%
X48425600Y-34963400D03*
X48425600Y-33413400D03*
%TD*%
M02*
