%TF.GenerationSoftware,KiCad,Pcbnew,7.0.2-0*%
%TF.CreationDate,2023-05-23T14:33:50-04:00*%
%TF.ProjectId,7-segment-display-controller,372d7365-676d-4656-9e74-2d646973706c,A*%
%TF.SameCoordinates,Original*%
%TF.FileFunction,Paste,Top*%
%TF.FilePolarity,Positive*%
%FSLAX46Y46*%
G04 Gerber Fmt 4.6, Leading zero omitted, Abs format (unit mm)*
G04 Created by KiCad (PCBNEW 7.0.2-0) date 2023-05-23 14:33:50*
%MOMM*%
%LPD*%
G01*
G04 APERTURE LIST*
G04 Aperture macros list*
%AMRoundRect*
0 Rectangle with rounded corners*
0 $1 Rounding radius*
0 $2 $3 $4 $5 $6 $7 $8 $9 X,Y pos of 4 corners*
0 Add a 4 corners polygon primitive as box body*
4,1,4,$2,$3,$4,$5,$6,$7,$8,$9,$2,$3,0*
0 Add four circle primitives for the rounded corners*
1,1,$1+$1,$2,$3*
1,1,$1+$1,$4,$5*
1,1,$1+$1,$6,$7*
1,1,$1+$1,$8,$9*
0 Add four rect primitives between the rounded corners*
20,1,$1+$1,$2,$3,$4,$5,0*
20,1,$1+$1,$4,$5,$6,$7,0*
20,1,$1+$1,$6,$7,$8,$9,0*
20,1,$1+$1,$8,$9,$2,$3,0*%
G04 Aperture macros list end*
%ADD10R,0.960000X0.710000*%
%ADD11RoundRect,0.130000X-0.587500X-0.150000X0.587500X-0.150000X0.587500X0.150000X-0.587500X0.150000X0*%
%ADD12RoundRect,0.180000X0.275000X-0.200000X0.275000X0.200000X-0.275000X0.200000X-0.275000X-0.200000X0*%
%ADD13RoundRect,0.180000X-0.200000X-0.275000X0.200000X-0.275000X0.200000X0.275000X-0.200000X0.275000X0*%
%ADD14RoundRect,0.205000X-0.225000X-0.250000X0.225000X-0.250000X0.225000X0.250000X-0.225000X0.250000X0*%
%ADD15R,1.460000X1.960000*%
%ADD16R,3.760000X1.960000*%
%ADD17RoundRect,0.198750X0.218750X0.256250X-0.218750X0.256250X-0.218750X-0.256250X0.218750X-0.256250X0*%
%ADD18RoundRect,0.205000X-0.250000X0.225000X-0.250000X-0.225000X0.250000X-0.225000X0.250000X0.225000X0*%
%ADD19R,1.460000X1.860000*%
%ADD20R,0.360000X1.310000*%
%ADD21RoundRect,0.130000X0.150000X-0.512500X0.150000X0.512500X-0.150000X0.512500X-0.150000X-0.512500X0*%
%ADD22RoundRect,0.130000X0.512500X0.150000X-0.512500X0.150000X-0.512500X-0.150000X0.512500X-0.150000X0*%
%ADD23RoundRect,0.230000X0.650000X-1.000000X0.650000X1.000000X-0.650000X1.000000X-0.650000X-1.000000X0*%
%ADD24RoundRect,0.555000X-1.425000X-0.575000X1.425000X-0.575000X1.425000X0.575000X-1.425000X0.575000X0*%
%ADD25RoundRect,0.555000X-1.625000X-0.575000X1.625000X-0.575000X1.625000X0.575000X-1.625000X0.575000X0*%
%ADD26RoundRect,0.230000X-1.500000X-0.550000X1.500000X-0.550000X1.500000X0.550000X-1.500000X0.550000X0*%
%ADD27R,1.160000X1.360000*%
%ADD28RoundRect,0.205000X0.250000X-0.225000X0.250000X0.225000X-0.250000X0.225000X-0.250000X-0.225000X0*%
%ADD29R,0.760000X0.460000*%
%ADD30R,0.760000X0.360000*%
%ADD31RoundRect,0.127500X-0.172500X0.147500X-0.172500X-0.147500X0.172500X-0.147500X0.172500X0.147500X0*%
%ADD32R,0.360000X0.610000*%
%ADD33RoundRect,0.180000X-0.275000X0.200000X-0.275000X-0.200000X0.275000X-0.200000X0.275000X0.200000X0*%
%ADD34R,0.720000X1.230000*%
%ADD35RoundRect,0.205000X0.225000X0.250000X-0.225000X0.250000X-0.225000X-0.250000X0.225000X-0.250000X0*%
%ADD36RoundRect,0.055000X0.075000X0.662500X-0.075000X0.662500X-0.075000X-0.662500X0.075000X-0.662500X0*%
%ADD37RoundRect,0.055000X0.662500X0.075000X-0.662500X0.075000X-0.662500X-0.075000X0.662500X-0.075000X0*%
%ADD38RoundRect,0.230000X0.625000X-0.375000X0.625000X0.375000X-0.625000X0.375000X-0.625000X-0.375000X0*%
G04 APERTURE END LIST*
D10*
%TO.C,SW106*%
X66881000Y-15591000D03*
X60881000Y-15591000D03*
X60881000Y-11841000D03*
X66881000Y-11841000D03*
%TD*%
D11*
%TO.C,Q101*%
X48181500Y-40132000D03*
X46306500Y-41082000D03*
X46306500Y-39182000D03*
%TD*%
D12*
%TO.C,R110*%
X26035000Y-28004000D03*
X26035000Y-29654000D03*
%TD*%
D13*
%TO.C,R102*%
X57469200Y-19920800D03*
X55819200Y-19920800D03*
%TD*%
D14*
%TO.C,C107*%
X42812000Y-27482800D03*
X41262000Y-27482800D03*
%TD*%
D15*
%TO.C,U201*%
X7645700Y-41402400D03*
D16*
X5345700Y-35102400D03*
D15*
X5345700Y-41402400D03*
X3045700Y-41402400D03*
%TD*%
D13*
%TO.C,R101*%
X57530000Y-22156000D03*
X55880000Y-22156000D03*
%TD*%
D17*
%TO.C,D101*%
X52590100Y-22181400D03*
X54165100Y-22181400D03*
%TD*%
D14*
%TO.C,C109*%
X43929600Y-31242000D03*
X42379600Y-31242000D03*
%TD*%
D18*
%TO.C,C116*%
X38481000Y-40907000D03*
X38481000Y-39357000D03*
%TD*%
D19*
%TO.C,J102*%
X24190200Y-52494700D03*
X22190200Y-52494700D03*
D20*
X24490200Y-49794700D03*
X23840200Y-49794700D03*
X23190200Y-49794700D03*
X22540200Y-49794700D03*
X21890200Y-49794700D03*
%TD*%
D18*
%TO.C,C201*%
X9779000Y-40729200D03*
X9779000Y-39179200D03*
%TD*%
D14*
%TO.C,C104*%
X27572000Y-36830000D03*
X26022000Y-36830000D03*
%TD*%
%TO.C,C106*%
X42812000Y-29032200D03*
X41262000Y-29032200D03*
%TD*%
D21*
%TO.C,U102*%
X21935400Y-43210900D03*
X22885400Y-43210900D03*
X23835400Y-43210900D03*
X23835400Y-45485900D03*
X22885400Y-45485900D03*
X21935400Y-45485900D03*
%TD*%
D22*
%TO.C,U103*%
X15499500Y-20127000D03*
X15499500Y-18227000D03*
X17774500Y-18227000D03*
X17774500Y-19177000D03*
X17774500Y-20127000D03*
%TD*%
D23*
%TO.C,D106*%
X42799000Y-39148000D03*
X42799000Y-43148000D03*
%TD*%
D13*
%TO.C,R103*%
X40931600Y-31140400D03*
X39281600Y-31140400D03*
%TD*%
D17*
%TO.C,D102*%
X52554700Y-19920800D03*
X54129700Y-19920800D03*
%TD*%
D24*
%TO.C,BT101*%
X67690000Y-36322000D03*
D25*
X51690000Y-36322000D03*
%TD*%
D26*
%TO.C,C115*%
X14445000Y-29337000D03*
X19845000Y-29337000D03*
%TD*%
D12*
%TO.C,R104*%
X12446000Y-25083000D03*
X12446000Y-26733000D03*
%TD*%
D27*
%TO.C,Y101*%
X42734600Y-33037600D03*
X42734600Y-35237600D03*
X41034600Y-35237600D03*
X41034600Y-33037600D03*
%TD*%
D12*
%TO.C,R109*%
X24511000Y-28004000D03*
X24511000Y-29654000D03*
%TD*%
D28*
%TO.C,C103*%
X28403104Y-24421800D03*
X28403104Y-25971800D03*
%TD*%
D13*
%TO.C,R105*%
X57479600Y-24467400D03*
X55829600Y-24467400D03*
%TD*%
D29*
%TO.C,RN101*%
X37454000Y-46304000D03*
D30*
X37454000Y-45504000D03*
X37454000Y-44704000D03*
D29*
X37454000Y-43904000D03*
X39254000Y-43904000D03*
D30*
X39254000Y-44704000D03*
X39254000Y-45504000D03*
D29*
X39254000Y-46304000D03*
%TD*%
D23*
%TO.C,D103*%
X12319000Y-40545000D03*
X12319000Y-44545000D03*
%TD*%
D31*
%TO.C,L101*%
X39954200Y-28196400D03*
X39954200Y-27226400D03*
%TD*%
D14*
%TO.C,C118*%
X17412000Y-21717000D03*
X15862000Y-21717000D03*
%TD*%
D32*
%TO.C,D104*%
X25994600Y-40807600D03*
X26644600Y-40807600D03*
X27294600Y-40807600D03*
X27294600Y-42707600D03*
X26644600Y-42707600D03*
X25994600Y-42707600D03*
%TD*%
D33*
%TO.C,R108*%
X24053800Y-38290000D03*
X24053800Y-36640000D03*
%TD*%
D17*
%TO.C,D107*%
X52565100Y-24467400D03*
X54140100Y-24467400D03*
%TD*%
D18*
%TO.C,C105*%
X36830000Y-39560800D03*
X36830000Y-38010800D03*
%TD*%
%TO.C,C114*%
X59182000Y-14491000D03*
X59182000Y-12941000D03*
%TD*%
D34*
%TO.C,SW101*%
X31115000Y-41148000D03*
X32385000Y-41148000D03*
X33655000Y-41148000D03*
X34925000Y-41148000D03*
X34925000Y-48768000D03*
X33655000Y-48768000D03*
X32385000Y-48768000D03*
X31115000Y-48768000D03*
%TD*%
D35*
%TO.C,C202*%
X8496000Y-33020000D03*
X10046000Y-33020000D03*
%TD*%
D36*
%TO.C,U101*%
X35262000Y-36420500D03*
X34762000Y-36420500D03*
X34262000Y-36420500D03*
X33762000Y-36420500D03*
X33262000Y-36420500D03*
X32762000Y-36420500D03*
X32262000Y-36420500D03*
X31762000Y-36420500D03*
X31262000Y-36420500D03*
X30762000Y-36420500D03*
X30262000Y-36420500D03*
X29762000Y-36420500D03*
D37*
X28349500Y-35008000D03*
X28349500Y-34508000D03*
X28349500Y-34008000D03*
X28349500Y-33508000D03*
X28349500Y-33008000D03*
X28349500Y-32508000D03*
X28349500Y-32008000D03*
X28349500Y-31508000D03*
X28349500Y-31008000D03*
X28349500Y-30508000D03*
X28349500Y-30008000D03*
X28349500Y-29508000D03*
D36*
X29762000Y-28095500D03*
X30262000Y-28095500D03*
X30762000Y-28095500D03*
X31262000Y-28095500D03*
X31762000Y-28095500D03*
X32262000Y-28095500D03*
X32762000Y-28095500D03*
X33262000Y-28095500D03*
X33762000Y-28095500D03*
X34262000Y-28095500D03*
X34762000Y-28095500D03*
X35262000Y-28095500D03*
D37*
X36674500Y-29508000D03*
X36674500Y-30008000D03*
X36674500Y-30508000D03*
X36674500Y-31008000D03*
X36674500Y-31508000D03*
X36674500Y-32008000D03*
X36674500Y-32508000D03*
X36674500Y-33008000D03*
X36674500Y-33508000D03*
X36674500Y-34008000D03*
X36674500Y-34508000D03*
X36674500Y-35008000D03*
%TD*%
D18*
%TO.C,C101*%
X40005000Y-42177000D03*
X40005000Y-40627000D03*
%TD*%
D38*
%TO.C,F101*%
X15240000Y-41526000D03*
X15240000Y-44326000D03*
%TD*%
D28*
%TO.C,C102*%
X26752104Y-24421800D03*
X26752104Y-25971800D03*
%TD*%
%TO.C,C108*%
X39395400Y-32651400D03*
X39395400Y-34201400D03*
%TD*%
M02*
