%TF.GenerationSoftware,KiCad,Pcbnew,7.0.2-0*%
%TF.CreationDate,2023-05-15T19:37:27-04:00*%
%TF.ProjectId,7-segment-display-controller,372d7365-676d-4656-9e74-2d646973706c,A*%
%TF.SameCoordinates,Original*%
%TF.FileFunction,Copper,L3,Inr*%
%TF.FilePolarity,Positive*%
%FSLAX46Y46*%
G04 Gerber Fmt 4.6, Leading zero omitted, Abs format (unit mm)*
G04 Created by KiCad (PCBNEW 7.0.2-0) date 2023-05-15 19:37:27*
%MOMM*%
%LPD*%
G01*
G04 APERTURE LIST*
G04 Aperture macros list*
%AMRoundRect*
0 Rectangle with rounded corners*
0 $1 Rounding radius*
0 $2 $3 $4 $5 $6 $7 $8 $9 X,Y pos of 4 corners*
0 Add a 4 corners polygon primitive as box body*
4,1,4,$2,$3,$4,$5,$6,$7,$8,$9,$2,$3,0*
0 Add four circle primitives for the rounded corners*
1,1,$1+$1,$2,$3*
1,1,$1+$1,$4,$5*
1,1,$1+$1,$6,$7*
1,1,$1+$1,$8,$9*
0 Add four rect primitives between the rounded corners*
20,1,$1+$1,$2,$3,$4,$5,0*
20,1,$1+$1,$4,$5,$6,$7,0*
20,1,$1+$1,$6,$7,$8,$9,0*
20,1,$1+$1,$8,$9,$2,$3,0*%
G04 Aperture macros list end*
%TA.AperFunction,ComponentPad*%
%ADD10C,7.500000*%
%TD*%
%TA.AperFunction,ComponentPad*%
%ADD11O,1.200000X1.900000*%
%TD*%
%TA.AperFunction,ComponentPad*%
%ADD12C,1.450000*%
%TD*%
%TA.AperFunction,ComponentPad*%
%ADD13C,2.000000*%
%TD*%
%TA.AperFunction,ComponentPad*%
%ADD14O,1.950000X1.700000*%
%TD*%
%TA.AperFunction,ComponentPad*%
%ADD15RoundRect,0.250000X-0.725000X0.600000X-0.725000X-0.600000X0.725000X-0.600000X0.725000X0.600000X0*%
%TD*%
%TA.AperFunction,ComponentPad*%
%ADD16C,1.500000*%
%TD*%
%TA.AperFunction,ComponentPad*%
%ADD17RoundRect,0.250000X0.725000X-0.600000X0.725000X0.600000X-0.725000X0.600000X-0.725000X-0.600000X0*%
%TD*%
%TA.AperFunction,ViaPad*%
%ADD18C,0.800000*%
%TD*%
G04 APERTURE END LIST*
D10*
%TO.N,N/C*%
%TO.C,H104*%
X5588000Y-48768000D03*
%TD*%
D11*
%TO.N,GND*%
%TO.C,J102*%
X27630000Y-52545500D03*
D12*
X26630000Y-49845500D03*
X21630000Y-49845500D03*
D11*
X20630000Y-52545500D03*
%TD*%
D13*
%TO.N,GND*%
%TO.C,SW104*%
X40676000Y-10870000D03*
X40676000Y-4370000D03*
%TO.N,/RGB_COLOR*%
X45176000Y-10870000D03*
X45176000Y-4370000D03*
%TD*%
%TO.N,GND*%
%TO.C,SW103*%
X23948000Y-10870000D03*
X23948000Y-4370000D03*
%TO.N,/CLK_UP*%
X28448000Y-10870000D03*
X28448000Y-4370000D03*
%TD*%
%TO.N,GND*%
%TO.C,SW102*%
X32294000Y-10870000D03*
X32294000Y-4370000D03*
%TO.N,/CLK_RST*%
X36794000Y-10870000D03*
X36794000Y-4370000D03*
%TD*%
D14*
%TO.N,+5V*%
%TO.C,J104*%
X5334000Y-29638000D03*
%TO.N,Net-(J104-Pin_2)*%
X5334000Y-27138000D03*
D15*
%TO.N,GND*%
X5334000Y-24638000D03*
%TD*%
D13*
%TO.N,GND*%
%TO.C,SW106*%
X49058000Y-10870000D03*
X49058000Y-4370000D03*
%TO.N,/NRST*%
X53558000Y-10870000D03*
X53558000Y-4370000D03*
%TD*%
D16*
%TO.N,*%
%TO.C,BT101*%
X63290000Y-36322000D03*
X55790000Y-36322000D03*
%TD*%
D10*
%TO.N,N/C*%
%TO.C,H103*%
X5588000Y-5588000D03*
%TD*%
D14*
%TO.N,GND*%
%TO.C,J103*%
X65151000Y-16423000D03*
%TO.N,/UART_RX*%
X65151000Y-18923000D03*
%TO.N,/UART_TX*%
X65151000Y-21423000D03*
D17*
%TO.N,VBUS*%
X65151000Y-23923000D03*
%TD*%
D10*
%TO.N,N/C*%
%TO.C,H101*%
X65024000Y-5588000D03*
%TD*%
%TO.N,N/C*%
%TO.C,H102*%
X65024000Y-48768000D03*
%TD*%
D13*
%TO.N,GND*%
%TO.C,SW105*%
X15693000Y-10870000D03*
X15693000Y-4370000D03*
%TO.N,/CLK_DN*%
X20193000Y-10870000D03*
X20193000Y-4370000D03*
%TD*%
D18*
%TO.N,GND*%
X44704000Y-26924000D03*
X44704000Y-29464000D03*
%TO.N,/UART_RX*%
X35627800Y-26483800D03*
%TO.N,+3V3*%
X38608000Y-28194000D03*
%TO.N,/UART_TX*%
X38626600Y-29508000D03*
%TO.N,GND*%
X68376800Y-38811200D03*
X9144000Y-34544000D03*
X30149800Y-34508000D03*
X58801000Y-24511000D03*
X34772600Y-30962600D03*
X29718000Y-22860000D03*
X40767000Y-2032000D03*
X35433000Y-39497000D03*
X28067000Y-38227000D03*
X15748000Y-2032000D03*
X25654000Y-47498000D03*
X32359600Y-2032000D03*
X26543000Y-43942000D03*
X40894000Y-46355000D03*
X27178000Y-47498000D03*
X44856400Y-35306000D03*
X22860000Y-29718000D03*
X22428200Y-37312600D03*
X44856400Y-36601400D03*
X34192699Y-38307499D03*
X27178000Y-45974000D03*
X24003000Y-2032000D03*
X38481000Y-42291000D03*
X58801000Y-19964400D03*
X49022000Y-2032000D03*
X9652000Y-43307000D03*
X8382000Y-43307000D03*
X58808200Y-22156000D03*
X39979600Y-32562800D03*
%TO.N,+3V3*%
X40386000Y-38481000D03*
X4191000Y-34671000D03*
X35426122Y-38044557D03*
X26352500Y-35369500D03*
X52552600Y-18389600D03*
X25228104Y-24422873D03*
X1651000Y-34671000D03*
X2921000Y-34671000D03*
X33020000Y-50165000D03*
%TO.N,/NRST*%
X33832800Y-32867600D03*
X24773300Y-42291000D03*
X22606000Y-38379400D03*
%TO.N,/SWO*%
X17526000Y-37338000D03*
X28638500Y-41973500D03*
%TO.N,/SWCLK*%
X27495500Y-39306500D03*
X17526000Y-38608000D03*
%TO.N,/SWDIO*%
X25527000Y-38989000D03*
X17780000Y-40513000D03*
%TO.N,VBUS*%
X20574000Y-46228000D03*
%TD*%
%TA.AperFunction,Conductor*%
%TO.N,+3V3*%
G36*
X69120042Y-88764D02*
G01*
X69199743Y-93988D01*
X69377590Y-106709D01*
X69392904Y-108772D01*
X69505441Y-131157D01*
X69646277Y-161794D01*
X69659690Y-165518D01*
X69773725Y-204228D01*
X69777074Y-205420D01*
X69904808Y-253062D01*
X69916300Y-258024D01*
X70026687Y-312461D01*
X70031187Y-314798D01*
X70148478Y-378844D01*
X70157942Y-384574D01*
X70261269Y-453615D01*
X70266688Y-457450D01*
X70372727Y-536830D01*
X70380145Y-542844D01*
X70473976Y-625131D01*
X70479898Y-630678D01*
X70573320Y-724100D01*
X70578867Y-730022D01*
X70661150Y-823848D01*
X70667173Y-831278D01*
X70704691Y-881396D01*
X70746548Y-937310D01*
X70750383Y-942729D01*
X70819424Y-1046056D01*
X70825154Y-1055520D01*
X70889183Y-1172779D01*
X70891564Y-1177363D01*
X70945969Y-1287687D01*
X70950938Y-1299196D01*
X70998556Y-1426863D01*
X70999793Y-1430338D01*
X71038470Y-1544276D01*
X71042217Y-1557777D01*
X71072847Y-1698580D01*
X71076556Y-1717225D01*
X71095230Y-1811107D01*
X71097290Y-1826414D01*
X71110017Y-2004350D01*
X71115235Y-2083955D01*
X71115500Y-2092051D01*
X71115500Y-52083947D01*
X71115234Y-52092058D01*
X71110017Y-52171648D01*
X71097291Y-52349574D01*
X71095225Y-52364916D01*
X71072851Y-52477402D01*
X71042212Y-52618244D01*
X71038473Y-52631714D01*
X70999793Y-52745660D01*
X70998556Y-52749135D01*
X70950938Y-52876802D01*
X70945969Y-52888311D01*
X70891564Y-52998635D01*
X70889183Y-53003219D01*
X70825154Y-53120478D01*
X70819424Y-53129942D01*
X70750383Y-53233269D01*
X70746548Y-53238688D01*
X70667181Y-53344711D01*
X70661142Y-53352160D01*
X70578867Y-53445976D01*
X70573320Y-53451898D01*
X70479898Y-53545320D01*
X70473976Y-53550867D01*
X70380160Y-53633142D01*
X70372711Y-53639181D01*
X70266688Y-53718548D01*
X70261269Y-53722383D01*
X70157942Y-53791424D01*
X70148478Y-53797154D01*
X70031219Y-53861183D01*
X70026635Y-53863564D01*
X69916311Y-53917969D01*
X69904802Y-53922938D01*
X69777135Y-53970556D01*
X69773660Y-53971793D01*
X69659722Y-54010470D01*
X69646221Y-54014217D01*
X69505419Y-54044847D01*
X69458048Y-54054270D01*
X69392896Y-54067229D01*
X69377584Y-54069290D01*
X69199649Y-54082017D01*
X69176221Y-54083552D01*
X69120030Y-54087235D01*
X69111948Y-54087500D01*
X28239062Y-54087500D01*
X28172023Y-54067815D01*
X28126268Y-54015011D01*
X28116324Y-53945853D01*
X28145349Y-53882297D01*
X28173921Y-53860907D01*
X28173108Y-53859765D01*
X28262626Y-53796019D01*
X28353952Y-53730986D01*
X28498986Y-53578878D01*
X28612613Y-53402072D01*
X28690725Y-53206957D01*
X28727101Y-53018219D01*
X28730500Y-53000586D01*
X28730500Y-52605509D01*
X28730500Y-52143075D01*
X28725628Y-52092058D01*
X28715528Y-51986284D01*
X28715528Y-51986282D01*
X28656316Y-51784625D01*
X28560011Y-51597818D01*
X28492618Y-51512122D01*
X28430093Y-51432615D01*
X28271254Y-51294979D01*
X28089245Y-51189896D01*
X27890633Y-51121155D01*
X27682603Y-51091246D01*
X27682602Y-51091246D01*
X27577636Y-51096246D01*
X27472669Y-51101246D01*
X27347277Y-51131666D01*
X27277486Y-51128341D01*
X27220572Y-51087812D01*
X27194604Y-51022947D01*
X27207828Y-50954340D01*
X27246917Y-50909589D01*
X27420745Y-50787873D01*
X27572373Y-50636245D01*
X27695368Y-50460591D01*
X27785992Y-50266247D01*
X27841492Y-50059119D01*
X27860181Y-49845500D01*
X27841492Y-49631881D01*
X27785992Y-49424753D01*
X27695368Y-49230410D01*
X27572373Y-49054755D01*
X27420745Y-48903127D01*
X27245091Y-48780132D01*
X27219074Y-48768000D01*
X60768680Y-48768000D01*
X60768820Y-48770939D01*
X60782339Y-49054755D01*
X60787948Y-49172494D01*
X60788364Y-49175391D01*
X60788366Y-49175406D01*
X60796275Y-49230412D01*
X60845579Y-49573325D01*
X60846273Y-49576186D01*
X60846275Y-49576196D01*
X60859785Y-49631883D01*
X60941050Y-49966862D01*
X61073497Y-50349543D01*
X61074718Y-50352217D01*
X61074723Y-50352229D01*
X61240494Y-50715215D01*
X61240500Y-50715228D01*
X61241721Y-50717900D01*
X61282119Y-50787872D01*
X61442246Y-51065222D01*
X61444197Y-51068600D01*
X61445908Y-51071003D01*
X61445914Y-51071012D01*
X61677380Y-51396059D01*
X61679093Y-51398464D01*
X61944280Y-51704507D01*
X62237358Y-51983956D01*
X62555672Y-52234281D01*
X62558149Y-52235872D01*
X62558152Y-52235875D01*
X62758944Y-52364916D01*
X62896340Y-52453215D01*
X63256276Y-52638775D01*
X63632221Y-52789281D01*
X64020770Y-52903369D01*
X64418405Y-52980007D01*
X64821524Y-53018500D01*
X64824478Y-53018500D01*
X65223522Y-53018500D01*
X65226476Y-53018500D01*
X65629595Y-52980007D01*
X66027230Y-52903369D01*
X66415779Y-52789281D01*
X66791724Y-52638775D01*
X67151660Y-52453215D01*
X67492328Y-52234281D01*
X67810642Y-51983956D01*
X68103720Y-51704507D01*
X68368907Y-51398464D01*
X68603803Y-51068600D01*
X68806279Y-50717900D01*
X68974503Y-50349543D01*
X69106950Y-49966862D01*
X69202421Y-49573325D01*
X69260052Y-49172494D01*
X69279320Y-48768000D01*
X69260052Y-48363506D01*
X69202421Y-47962675D01*
X69106950Y-47569138D01*
X68974503Y-47186457D01*
X68948035Y-47128500D01*
X68807505Y-46820784D01*
X68807502Y-46820779D01*
X68806279Y-46818100D01*
X68603803Y-46467400D01*
X68567383Y-46416256D01*
X68370619Y-46139940D01*
X68370617Y-46139938D01*
X68368907Y-46137536D01*
X68103720Y-45831493D01*
X67810642Y-45552044D01*
X67492328Y-45301719D01*
X67489855Y-45300129D01*
X67489847Y-45300124D01*
X67154141Y-45084379D01*
X67154134Y-45084375D01*
X67151660Y-45082785D01*
X67149052Y-45081440D01*
X67149046Y-45081437D01*
X66794348Y-44898578D01*
X66791724Y-44897225D01*
X66415779Y-44746719D01*
X66345731Y-44726151D01*
X66030066Y-44633463D01*
X66030051Y-44633459D01*
X66027230Y-44632631D01*
X66024332Y-44632072D01*
X66024326Y-44632071D01*
X65632496Y-44556552D01*
X65632493Y-44556551D01*
X65629595Y-44555993D01*
X65626675Y-44555714D01*
X65626660Y-44555712D01*
X65229411Y-44517780D01*
X65229405Y-44517779D01*
X65226476Y-44517500D01*
X64821524Y-44517500D01*
X64818595Y-44517779D01*
X64818588Y-44517780D01*
X64421339Y-44555712D01*
X64421321Y-44555714D01*
X64418405Y-44555993D01*
X64415509Y-44556551D01*
X64415503Y-44556552D01*
X64023673Y-44632071D01*
X64023663Y-44632073D01*
X64020770Y-44632631D01*
X64017952Y-44633458D01*
X64017933Y-44633463D01*
X63635047Y-44745889D01*
X63635042Y-44745890D01*
X63632221Y-44746719D01*
X63629496Y-44747809D01*
X63629490Y-44747812D01*
X63259018Y-44896127D01*
X63259013Y-44896129D01*
X63256276Y-44897225D01*
X63253655Y-44898575D01*
X63253651Y-44898578D01*
X62898953Y-45081437D01*
X62898938Y-45081445D01*
X62896340Y-45082785D01*
X62893874Y-45084369D01*
X62893858Y-45084379D01*
X62558152Y-45300124D01*
X62558134Y-45300136D01*
X62555672Y-45301719D01*
X62553374Y-45303526D01*
X62553363Y-45303534D01*
X62239670Y-45550225D01*
X62239659Y-45550233D01*
X62237358Y-45552044D01*
X62235235Y-45554067D01*
X62235226Y-45554076D01*
X61946404Y-45829467D01*
X61946395Y-45829475D01*
X61944280Y-45831493D01*
X61942359Y-45833709D01*
X61942358Y-45833711D01*
X61681022Y-46135309D01*
X61681015Y-46135317D01*
X61679093Y-46137536D01*
X61677391Y-46139925D01*
X61677380Y-46139940D01*
X61445914Y-46464987D01*
X61445902Y-46465005D01*
X61444197Y-46467400D01*
X61442725Y-46469949D01*
X61442717Y-46469962D01*
X61289121Y-46736000D01*
X61241721Y-46818100D01*
X61240504Y-46820762D01*
X61240494Y-46820784D01*
X61074723Y-47183770D01*
X61074715Y-47183789D01*
X61073497Y-47186457D01*
X61072535Y-47189236D01*
X61072530Y-47189249D01*
X60942018Y-47566339D01*
X60942013Y-47566353D01*
X60941050Y-47569138D01*
X60940354Y-47572004D01*
X60940353Y-47572010D01*
X60846275Y-47959803D01*
X60846272Y-47959817D01*
X60845579Y-47962675D01*
X60845159Y-47965594D01*
X60845158Y-47965601D01*
X60788366Y-48360593D01*
X60788364Y-48360610D01*
X60787948Y-48363506D01*
X60768680Y-48768000D01*
X27219074Y-48768000D01*
X27155485Y-48738348D01*
X27050748Y-48689508D01*
X26843616Y-48634007D01*
X26630000Y-48615318D01*
X26416383Y-48634007D01*
X26209251Y-48689508D01*
X26040927Y-48768000D01*
X26014910Y-48780132D01*
X25839255Y-48903127D01*
X25839251Y-48903130D01*
X25687630Y-49054751D01*
X25687627Y-49054754D01*
X25687627Y-49054755D01*
X25603147Y-49175406D01*
X25564631Y-49230412D01*
X25474008Y-49424751D01*
X25418507Y-49631883D01*
X25399818Y-49845499D01*
X25418507Y-50059116D01*
X25474008Y-50266248D01*
X25514102Y-50352229D01*
X25564632Y-50460591D01*
X25687627Y-50636245D01*
X25839255Y-50787873D01*
X26014909Y-50910868D01*
X26209253Y-51001492D01*
X26416381Y-51056992D01*
X26549063Y-51068600D01*
X26629999Y-51075681D01*
X26629999Y-51075680D01*
X26630000Y-51075681D01*
X26843619Y-51056992D01*
X26962099Y-51025245D01*
X27031946Y-51026908D01*
X27089809Y-51066070D01*
X27117314Y-51130298D01*
X27105728Y-51199200D01*
X27066119Y-51246027D01*
X26906048Y-51360014D01*
X26761013Y-51512123D01*
X26647387Y-51688925D01*
X26569274Y-51884045D01*
X26529965Y-52088000D01*
X26529500Y-52090415D01*
X26529500Y-52947925D01*
X26529779Y-52950855D01*
X26529781Y-52950880D01*
X26544471Y-53104715D01*
X26603683Y-53306373D01*
X26699990Y-53493184D01*
X26829906Y-53658384D01*
X26988745Y-53796020D01*
X27092830Y-53856113D01*
X27141046Y-53906680D01*
X27154269Y-53975287D01*
X27128301Y-54040152D01*
X27071387Y-54080680D01*
X27030830Y-54087500D01*
X21239062Y-54087500D01*
X21172023Y-54067815D01*
X21126268Y-54015011D01*
X21116324Y-53945853D01*
X21145349Y-53882297D01*
X21173921Y-53860907D01*
X21173108Y-53859765D01*
X21262626Y-53796019D01*
X21353952Y-53730986D01*
X21498986Y-53578878D01*
X21612613Y-53402072D01*
X21690725Y-53206957D01*
X21727101Y-53018219D01*
X21730500Y-53000586D01*
X21730500Y-52605509D01*
X21730500Y-52143075D01*
X21725628Y-52092058D01*
X21715528Y-51986284D01*
X21715528Y-51986282D01*
X21656316Y-51784625D01*
X21560011Y-51597818D01*
X21492618Y-51512122D01*
X21430093Y-51432615D01*
X21390681Y-51398464D01*
X21271256Y-51294981D01*
X21192067Y-51249261D01*
X21143852Y-51198693D01*
X21130630Y-51130086D01*
X21156598Y-51065222D01*
X21213512Y-51024694D01*
X21283303Y-51021370D01*
X21286101Y-51022083D01*
X21416381Y-51056992D01*
X21630000Y-51075681D01*
X21843619Y-51056992D01*
X22050747Y-51001492D01*
X22245091Y-50910868D01*
X22420745Y-50787873D01*
X22572373Y-50636245D01*
X22695368Y-50460591D01*
X22785992Y-50266247D01*
X22841492Y-50059119D01*
X22860181Y-49845500D01*
X22841492Y-49631881D01*
X22785992Y-49424753D01*
X22695368Y-49230410D01*
X22572373Y-49054755D01*
X22420745Y-48903127D01*
X22245091Y-48780132D01*
X22155485Y-48738348D01*
X22050748Y-48689508D01*
X21843616Y-48634007D01*
X21630000Y-48615318D01*
X21416383Y-48634007D01*
X21209251Y-48689508D01*
X21040927Y-48768000D01*
X21014910Y-48780132D01*
X20839255Y-48903127D01*
X20839251Y-48903130D01*
X20687630Y-49054751D01*
X20687627Y-49054754D01*
X20687627Y-49054755D01*
X20603147Y-49175406D01*
X20564631Y-49230412D01*
X20474008Y-49424751D01*
X20418507Y-49631883D01*
X20399818Y-49845499D01*
X20418507Y-50059116D01*
X20474008Y-50266248D01*
X20514102Y-50352229D01*
X20564632Y-50460591D01*
X20687627Y-50636245D01*
X20839255Y-50787873D01*
X21003312Y-50902747D01*
X21046934Y-50957322D01*
X21054127Y-51026821D01*
X21022605Y-51089175D01*
X20962375Y-51124589D01*
X20902443Y-51122210D01*
X20902353Y-51122841D01*
X20896258Y-51121964D01*
X20892560Y-51121818D01*
X20891635Y-51121502D01*
X20890636Y-51121156D01*
X20682603Y-51091246D01*
X20682602Y-51091246D01*
X20577636Y-51096246D01*
X20472669Y-51101246D01*
X20268419Y-51150797D01*
X20077247Y-51238102D01*
X19906050Y-51360012D01*
X19761013Y-51512123D01*
X19647387Y-51688925D01*
X19569274Y-51884045D01*
X19529965Y-52088000D01*
X19529500Y-52090415D01*
X19529500Y-52947925D01*
X19529779Y-52950855D01*
X19529781Y-52950880D01*
X19544471Y-53104715D01*
X19603683Y-53306373D01*
X19699990Y-53493184D01*
X19829906Y-53658384D01*
X19988745Y-53796020D01*
X20092830Y-53856113D01*
X20141046Y-53906680D01*
X20154269Y-53975287D01*
X20128301Y-54040152D01*
X20071387Y-54080680D01*
X20030830Y-54087500D01*
X2120053Y-54087500D01*
X2111943Y-54087234D01*
X2032352Y-54082017D01*
X1854424Y-54069291D01*
X1839082Y-54067225D01*
X1781195Y-54055710D01*
X1726600Y-54044851D01*
X1585746Y-54014210D01*
X1572284Y-54010473D01*
X1572275Y-54010470D01*
X1535810Y-53998091D01*
X1458338Y-53971793D01*
X1454863Y-53970556D01*
X1327196Y-53922938D01*
X1315687Y-53917969D01*
X1250947Y-53886043D01*
X1205348Y-53863556D01*
X1200779Y-53861183D01*
X1083520Y-53797154D01*
X1074056Y-53791424D01*
X970729Y-53722383D01*
X965310Y-53718548D01*
X909396Y-53676691D01*
X859278Y-53639173D01*
X851848Y-53633150D01*
X758022Y-53550867D01*
X752100Y-53545320D01*
X658678Y-53451898D01*
X653131Y-53445976D01*
X614628Y-53402072D01*
X570844Y-53352145D01*
X564830Y-53344727D01*
X485450Y-53238688D01*
X481615Y-53233269D01*
X412574Y-53129942D01*
X406844Y-53120478D01*
X398237Y-53104715D01*
X342798Y-53003187D01*
X340461Y-52998687D01*
X286024Y-52888300D01*
X281060Y-52876802D01*
X233420Y-52749074D01*
X232228Y-52745725D01*
X193522Y-52631703D01*
X189786Y-52618240D01*
X159157Y-52477441D01*
X136767Y-52364879D01*
X134709Y-52349593D01*
X121988Y-52171743D01*
X116765Y-52092041D01*
X116500Y-52083936D01*
X116500Y-48768000D01*
X1332680Y-48768000D01*
X1332820Y-48770939D01*
X1346339Y-49054755D01*
X1351948Y-49172494D01*
X1352364Y-49175391D01*
X1352366Y-49175406D01*
X1360275Y-49230412D01*
X1409579Y-49573325D01*
X1410273Y-49576186D01*
X1410275Y-49576196D01*
X1423785Y-49631883D01*
X1505050Y-49966862D01*
X1637497Y-50349543D01*
X1638718Y-50352217D01*
X1638723Y-50352229D01*
X1804494Y-50715215D01*
X1804500Y-50715228D01*
X1805721Y-50717900D01*
X1846119Y-50787872D01*
X2006246Y-51065222D01*
X2008197Y-51068600D01*
X2009908Y-51071003D01*
X2009914Y-51071012D01*
X2241380Y-51396059D01*
X2243093Y-51398464D01*
X2508280Y-51704507D01*
X2801358Y-51983956D01*
X3119672Y-52234281D01*
X3122149Y-52235872D01*
X3122152Y-52235875D01*
X3322944Y-52364916D01*
X3460340Y-52453215D01*
X3820276Y-52638775D01*
X4196221Y-52789281D01*
X4584770Y-52903369D01*
X4982405Y-52980007D01*
X5385524Y-53018500D01*
X5388478Y-53018500D01*
X5787522Y-53018500D01*
X5790476Y-53018500D01*
X6193595Y-52980007D01*
X6591230Y-52903369D01*
X6979779Y-52789281D01*
X7355724Y-52638775D01*
X7715660Y-52453215D01*
X8056328Y-52234281D01*
X8374642Y-51983956D01*
X8667720Y-51704507D01*
X8932907Y-51398464D01*
X9167803Y-51068600D01*
X9370279Y-50717900D01*
X9538503Y-50349543D01*
X9670950Y-49966862D01*
X9766421Y-49573325D01*
X9824052Y-49172494D01*
X9843320Y-48768000D01*
X9824052Y-48363506D01*
X9766421Y-47962675D01*
X9670950Y-47569138D01*
X9646329Y-47497999D01*
X24748540Y-47497999D01*
X24768326Y-47686257D01*
X24826820Y-47866284D01*
X24921466Y-48030216D01*
X25048129Y-48170889D01*
X25201269Y-48282151D01*
X25374197Y-48359144D01*
X25559352Y-48398500D01*
X25559354Y-48398500D01*
X25748648Y-48398500D01*
X25913281Y-48363506D01*
X25933803Y-48359144D01*
X26106730Y-48282151D01*
X26259871Y-48170888D01*
X26323850Y-48099831D01*
X26383336Y-48063183D01*
X26453193Y-48064513D01*
X26508150Y-48099832D01*
X26572129Y-48170889D01*
X26725269Y-48282151D01*
X26898197Y-48359144D01*
X27083352Y-48398500D01*
X27083354Y-48398500D01*
X27272648Y-48398500D01*
X27437281Y-48363506D01*
X27457803Y-48359144D01*
X27630730Y-48282151D01*
X27783871Y-48170888D01*
X27910533Y-48030216D01*
X28005179Y-47866284D01*
X28063674Y-47686256D01*
X28083460Y-47498000D01*
X28063674Y-47309744D01*
X28005179Y-47129716D01*
X28005179Y-47129715D01*
X27910535Y-46965786D01*
X27847849Y-46896167D01*
X27783871Y-46825112D01*
X27783867Y-46825109D01*
X27778342Y-46818973D01*
X27748112Y-46755981D01*
X27756737Y-46686646D01*
X27778342Y-46653027D01*
X27783867Y-46646890D01*
X27783871Y-46646888D01*
X27910533Y-46506216D01*
X27932944Y-46467400D01*
X27997837Y-46355000D01*
X39988540Y-46355000D01*
X40008326Y-46543257D01*
X40066820Y-46723284D01*
X40161466Y-46887216D01*
X40288129Y-47027889D01*
X40441269Y-47139151D01*
X40614197Y-47216144D01*
X40799352Y-47255500D01*
X40799354Y-47255500D01*
X40988648Y-47255500D01*
X41112083Y-47229262D01*
X41173803Y-47216144D01*
X41346730Y-47139151D01*
X41499871Y-47027888D01*
X41626533Y-46887216D01*
X41721179Y-46723284D01*
X41779674Y-46543256D01*
X41799460Y-46355000D01*
X41779674Y-46166744D01*
X41721179Y-45986716D01*
X41721179Y-45986715D01*
X41626533Y-45822783D01*
X41499870Y-45682110D01*
X41346730Y-45570848D01*
X41173802Y-45493855D01*
X40988648Y-45454500D01*
X40988646Y-45454500D01*
X40799354Y-45454500D01*
X40799352Y-45454500D01*
X40614197Y-45493855D01*
X40441269Y-45570848D01*
X40288129Y-45682110D01*
X40161466Y-45822783D01*
X40066820Y-45986715D01*
X40008326Y-46166742D01*
X39988540Y-46355000D01*
X27997837Y-46355000D01*
X28005179Y-46342284D01*
X28042312Y-46228000D01*
X28063674Y-46162256D01*
X28083460Y-45974000D01*
X28063674Y-45785744D01*
X28005179Y-45605716D01*
X28005179Y-45605715D01*
X27910533Y-45441783D01*
X27783870Y-45301110D01*
X27630730Y-45189848D01*
X27457802Y-45112855D01*
X27272648Y-45073500D01*
X27272646Y-45073500D01*
X27083354Y-45073500D01*
X27083352Y-45073500D01*
X26898197Y-45112855D01*
X26725269Y-45189848D01*
X26572129Y-45301110D01*
X26445466Y-45441783D01*
X26350820Y-45605715D01*
X26292326Y-45785742D01*
X26272540Y-45974000D01*
X26292326Y-46162257D01*
X26350820Y-46342284D01*
X26445466Y-46506216D01*
X26577657Y-46653028D01*
X26607887Y-46716019D01*
X26599262Y-46785354D01*
X26577656Y-46818973D01*
X26508148Y-46896168D01*
X26448661Y-46932816D01*
X26378804Y-46931485D01*
X26323849Y-46896167D01*
X26259870Y-46825110D01*
X26106730Y-46713848D01*
X25933802Y-46636855D01*
X25748648Y-46597500D01*
X25748646Y-46597500D01*
X25559354Y-46597500D01*
X25559352Y-46597500D01*
X25374197Y-46636855D01*
X25201269Y-46713848D01*
X25048129Y-46825110D01*
X24921466Y-46965783D01*
X24826820Y-47129715D01*
X24768326Y-47309742D01*
X24748540Y-47497999D01*
X9646329Y-47497999D01*
X9538503Y-47186457D01*
X9512035Y-47128500D01*
X9371505Y-46820784D01*
X9371502Y-46820779D01*
X9370279Y-46818100D01*
X9167803Y-46467400D01*
X9131383Y-46416256D01*
X8997326Y-46227999D01*
X19668540Y-46227999D01*
X19688326Y-46416257D01*
X19746820Y-46596284D01*
X19841466Y-46760216D01*
X19968129Y-46900889D01*
X20121269Y-47012151D01*
X20294197Y-47089144D01*
X20479352Y-47128500D01*
X20479354Y-47128500D01*
X20668648Y-47128500D01*
X20792083Y-47102262D01*
X20853803Y-47089144D01*
X21026730Y-47012151D01*
X21179871Y-46900888D01*
X21306533Y-46760216D01*
X21401179Y-46596284D01*
X21459674Y-46416256D01*
X21479460Y-46228000D01*
X21459674Y-46039744D01*
X21401179Y-45859716D01*
X21401179Y-45859715D01*
X21306533Y-45695783D01*
X21179870Y-45555110D01*
X21026730Y-45443848D01*
X20853802Y-45366855D01*
X20668648Y-45327500D01*
X20668646Y-45327500D01*
X20479354Y-45327500D01*
X20479352Y-45327500D01*
X20294197Y-45366855D01*
X20121269Y-45443848D01*
X19968129Y-45555110D01*
X19841466Y-45695783D01*
X19746820Y-45859715D01*
X19688326Y-46039742D01*
X19668540Y-46227999D01*
X8997326Y-46227999D01*
X8934619Y-46139940D01*
X8934617Y-46139938D01*
X8932907Y-46137536D01*
X8667720Y-45831493D01*
X8374642Y-45552044D01*
X8056328Y-45301719D01*
X8053855Y-45300129D01*
X8053847Y-45300124D01*
X7718141Y-45084379D01*
X7718134Y-45084375D01*
X7715660Y-45082785D01*
X7713052Y-45081440D01*
X7713046Y-45081437D01*
X7358348Y-44898578D01*
X7355724Y-44897225D01*
X6979779Y-44746719D01*
X6909731Y-44726151D01*
X6594066Y-44633463D01*
X6594051Y-44633459D01*
X6591230Y-44632631D01*
X6588332Y-44632072D01*
X6588326Y-44632071D01*
X6196496Y-44556552D01*
X6196493Y-44556551D01*
X6193595Y-44555993D01*
X6190675Y-44555714D01*
X6190660Y-44555712D01*
X5793411Y-44517780D01*
X5793405Y-44517779D01*
X5790476Y-44517500D01*
X5385524Y-44517500D01*
X5382595Y-44517779D01*
X5382588Y-44517780D01*
X4985339Y-44555712D01*
X4985321Y-44555714D01*
X4982405Y-44555993D01*
X4979509Y-44556551D01*
X4979503Y-44556552D01*
X4587673Y-44632071D01*
X4587663Y-44632073D01*
X4584770Y-44632631D01*
X4581952Y-44633458D01*
X4581933Y-44633463D01*
X4199047Y-44745889D01*
X4199042Y-44745890D01*
X4196221Y-44746719D01*
X4193496Y-44747809D01*
X4193490Y-44747812D01*
X3823018Y-44896127D01*
X3823013Y-44896129D01*
X3820276Y-44897225D01*
X3817655Y-44898575D01*
X3817651Y-44898578D01*
X3462953Y-45081437D01*
X3462938Y-45081445D01*
X3460340Y-45082785D01*
X3457874Y-45084369D01*
X3457858Y-45084379D01*
X3122152Y-45300124D01*
X3122134Y-45300136D01*
X3119672Y-45301719D01*
X3117374Y-45303526D01*
X3117363Y-45303534D01*
X2803670Y-45550225D01*
X2803659Y-45550233D01*
X2801358Y-45552044D01*
X2799235Y-45554067D01*
X2799226Y-45554076D01*
X2510404Y-45829467D01*
X2510395Y-45829475D01*
X2508280Y-45831493D01*
X2506359Y-45833709D01*
X2506358Y-45833711D01*
X2245022Y-46135309D01*
X2245015Y-46135317D01*
X2243093Y-46137536D01*
X2241391Y-46139925D01*
X2241380Y-46139940D01*
X2009914Y-46464987D01*
X2009902Y-46465005D01*
X2008197Y-46467400D01*
X2006725Y-46469949D01*
X2006717Y-46469962D01*
X1853121Y-46736000D01*
X1805721Y-46818100D01*
X1804504Y-46820762D01*
X1804494Y-46820784D01*
X1638723Y-47183770D01*
X1638715Y-47183789D01*
X1637497Y-47186457D01*
X1636535Y-47189236D01*
X1636530Y-47189249D01*
X1506018Y-47566339D01*
X1506013Y-47566353D01*
X1505050Y-47569138D01*
X1504354Y-47572004D01*
X1504353Y-47572010D01*
X1410275Y-47959803D01*
X1410272Y-47959817D01*
X1409579Y-47962675D01*
X1409159Y-47965594D01*
X1409158Y-47965601D01*
X1352366Y-48360593D01*
X1352364Y-48360610D01*
X1351948Y-48363506D01*
X1332680Y-48768000D01*
X116500Y-48768000D01*
X116500Y-43306999D01*
X7476540Y-43306999D01*
X7496326Y-43495257D01*
X7554820Y-43675284D01*
X7649466Y-43839216D01*
X7776129Y-43979889D01*
X7929269Y-44091151D01*
X8102197Y-44168144D01*
X8287352Y-44207500D01*
X8287354Y-44207500D01*
X8476648Y-44207500D01*
X8600083Y-44181262D01*
X8661803Y-44168144D01*
X8834730Y-44091151D01*
X8834730Y-44091150D01*
X8944115Y-44011679D01*
X9009921Y-43988199D01*
X9077975Y-44004024D01*
X9089885Y-44011679D01*
X9199269Y-44091151D01*
X9372197Y-44168144D01*
X9557352Y-44207500D01*
X9557354Y-44207500D01*
X9746648Y-44207500D01*
X9870084Y-44181262D01*
X9931803Y-44168144D01*
X10104730Y-44091151D01*
X10104730Y-44091150D01*
X10257870Y-43979889D01*
X10291986Y-43942000D01*
X25637540Y-43942000D01*
X25657326Y-44130257D01*
X25715820Y-44310284D01*
X25810466Y-44474216D01*
X25937129Y-44614889D01*
X26090269Y-44726151D01*
X26263197Y-44803144D01*
X26448352Y-44842500D01*
X26448354Y-44842500D01*
X26637648Y-44842500D01*
X26761083Y-44816262D01*
X26822803Y-44803144D01*
X26995730Y-44726151D01*
X27148871Y-44614888D01*
X27275533Y-44474216D01*
X27370179Y-44310284D01*
X27428674Y-44130256D01*
X27448460Y-43942000D01*
X27428674Y-43753744D01*
X27370179Y-43573716D01*
X27370179Y-43573715D01*
X27275533Y-43409783D01*
X27148870Y-43269110D01*
X26995730Y-43157848D01*
X26822802Y-43080855D01*
X26637648Y-43041500D01*
X26637646Y-43041500D01*
X26448354Y-43041500D01*
X26448352Y-43041500D01*
X26263197Y-43080855D01*
X26090269Y-43157848D01*
X25937129Y-43269110D01*
X25810466Y-43409783D01*
X25715820Y-43573715D01*
X25657326Y-43753742D01*
X25637540Y-43942000D01*
X10291986Y-43942000D01*
X10384533Y-43839216D01*
X10479179Y-43675284D01*
X10479179Y-43675283D01*
X10537674Y-43495256D01*
X10557460Y-43307000D01*
X10537674Y-43118744D01*
X10479179Y-42938716D01*
X10479179Y-42938715D01*
X10384533Y-42774783D01*
X10257870Y-42634110D01*
X10104730Y-42522848D01*
X9931802Y-42445855D01*
X9746648Y-42406500D01*
X9746646Y-42406500D01*
X9557354Y-42406500D01*
X9557352Y-42406500D01*
X9372197Y-42445855D01*
X9199269Y-42522848D01*
X9089885Y-42602321D01*
X9024079Y-42625801D01*
X8956025Y-42609976D01*
X8944115Y-42602321D01*
X8834730Y-42522848D01*
X8661802Y-42445855D01*
X8476648Y-42406500D01*
X8476646Y-42406500D01*
X8287354Y-42406500D01*
X8287352Y-42406500D01*
X8102197Y-42445855D01*
X7929269Y-42522848D01*
X7776129Y-42634110D01*
X7649466Y-42774783D01*
X7554820Y-42938715D01*
X7496326Y-43118742D01*
X7476540Y-43306999D01*
X116500Y-43306999D01*
X116500Y-42291000D01*
X23867840Y-42291000D01*
X23877732Y-42385128D01*
X23887626Y-42479257D01*
X23946120Y-42659284D01*
X24040766Y-42823216D01*
X24167429Y-42963889D01*
X24320569Y-43075151D01*
X24493497Y-43152144D01*
X24678652Y-43191500D01*
X24678654Y-43191500D01*
X24867948Y-43191500D01*
X24991384Y-43165262D01*
X25053103Y-43152144D01*
X25226030Y-43075151D01*
X25379171Y-42963888D01*
X25505833Y-42823216D01*
X25600479Y-42659284D01*
X25658974Y-42479256D01*
X25678760Y-42291000D01*
X25658974Y-42102744D01*
X25616980Y-41973500D01*
X25616980Y-41973499D01*
X27733040Y-41973499D01*
X27752826Y-42161757D01*
X27811320Y-42341784D01*
X27905966Y-42505716D01*
X28032629Y-42646389D01*
X28185769Y-42757651D01*
X28358697Y-42834644D01*
X28543852Y-42874000D01*
X28543854Y-42874000D01*
X28733148Y-42874000D01*
X28856584Y-42847762D01*
X28918303Y-42834644D01*
X29091230Y-42757651D01*
X29091229Y-42757651D01*
X29244370Y-42646389D01*
X29371033Y-42505716D01*
X29465679Y-42341784D01*
X29482180Y-42291000D01*
X37575540Y-42291000D01*
X37595326Y-42479257D01*
X37653820Y-42659284D01*
X37748466Y-42823216D01*
X37875129Y-42963889D01*
X38028269Y-43075151D01*
X38201197Y-43152144D01*
X38386352Y-43191500D01*
X38386354Y-43191500D01*
X38575648Y-43191500D01*
X38699084Y-43165262D01*
X38760803Y-43152144D01*
X38933730Y-43075151D01*
X39086871Y-42963888D01*
X39213533Y-42823216D01*
X39308179Y-42659284D01*
X39366674Y-42479256D01*
X39386460Y-42291000D01*
X39366674Y-42102744D01*
X39324680Y-41973500D01*
X39308179Y-41922715D01*
X39213533Y-41758783D01*
X39086870Y-41618110D01*
X38933730Y-41506848D01*
X38760802Y-41429855D01*
X38575648Y-41390500D01*
X38575646Y-41390500D01*
X38386354Y-41390500D01*
X38386352Y-41390500D01*
X38201197Y-41429855D01*
X38028269Y-41506848D01*
X37875129Y-41618110D01*
X37748466Y-41758783D01*
X37653820Y-41922715D01*
X37595326Y-42102742D01*
X37575540Y-42291000D01*
X29482180Y-42291000D01*
X29482180Y-42290999D01*
X29524174Y-42161756D01*
X29543960Y-41973500D01*
X29524174Y-41785244D01*
X29493832Y-41691863D01*
X29465679Y-41605215D01*
X29371033Y-41441283D01*
X29244370Y-41300610D01*
X29091230Y-41189348D01*
X28918302Y-41112355D01*
X28733148Y-41073000D01*
X28733146Y-41073000D01*
X28543854Y-41073000D01*
X28543852Y-41073000D01*
X28358697Y-41112355D01*
X28185769Y-41189348D01*
X28032629Y-41300610D01*
X27905966Y-41441283D01*
X27811320Y-41605215D01*
X27752826Y-41785242D01*
X27733040Y-41973499D01*
X25616980Y-41973499D01*
X25600479Y-41922715D01*
X25505833Y-41758783D01*
X25379170Y-41618110D01*
X25226030Y-41506848D01*
X25053102Y-41429855D01*
X24867948Y-41390500D01*
X24867946Y-41390500D01*
X24678654Y-41390500D01*
X24678652Y-41390500D01*
X24493497Y-41429855D01*
X24320569Y-41506848D01*
X24167429Y-41618110D01*
X24040766Y-41758783D01*
X23946120Y-41922715D01*
X23887626Y-42102742D01*
X23867840Y-42290999D01*
X23867840Y-42291000D01*
X116500Y-42291000D01*
X116500Y-38608000D01*
X16620540Y-38608000D01*
X16640326Y-38796257D01*
X16698820Y-38976284D01*
X16793466Y-39140216D01*
X16920129Y-39280889D01*
X17073269Y-39392151D01*
X17246197Y-39469144D01*
X17322594Y-39485383D01*
X17384076Y-39518575D01*
X17417853Y-39579738D01*
X17413201Y-39649452D01*
X17371597Y-39705585D01*
X17347251Y-39719952D01*
X17327268Y-39728849D01*
X17174129Y-39840110D01*
X17047466Y-39980783D01*
X16952820Y-40144715D01*
X16894326Y-40324742D01*
X16874540Y-40512999D01*
X16894326Y-40701257D01*
X16952820Y-40881284D01*
X17047466Y-41045216D01*
X17174129Y-41185889D01*
X17327269Y-41297151D01*
X17500197Y-41374144D01*
X17685352Y-41413500D01*
X17685354Y-41413500D01*
X17874648Y-41413500D01*
X17998083Y-41387262D01*
X18059803Y-41374144D01*
X18232730Y-41297151D01*
X18293470Y-41253021D01*
X18385870Y-41185889D01*
X18403534Y-41166271D01*
X19112991Y-41166271D01*
X19143273Y-41338010D01*
X19212347Y-41498139D01*
X19316483Y-41638020D01*
X19316484Y-41638021D01*
X19316485Y-41638022D01*
X19450075Y-41750117D01*
X19605916Y-41828383D01*
X19775605Y-41868600D01*
X19775607Y-41868600D01*
X19902656Y-41868600D01*
X19906255Y-41868600D01*
X20036011Y-41853434D01*
X20199884Y-41793789D01*
X20345584Y-41697960D01*
X20465258Y-41571113D01*
X20552453Y-41420087D01*
X20602468Y-41253023D01*
X20612608Y-41078929D01*
X20582326Y-40907188D01*
X20513253Y-40747061D01*
X20409115Y-40607178D01*
X20275525Y-40495083D01*
X20119684Y-40416817D01*
X19949995Y-40376600D01*
X19819345Y-40376600D01*
X19815778Y-40377016D01*
X19815776Y-40377017D01*
X19689586Y-40391766D01*
X19525716Y-40451410D01*
X19380015Y-40547240D01*
X19260342Y-40674086D01*
X19173147Y-40825112D01*
X19123132Y-40992178D01*
X19112991Y-41166271D01*
X18403534Y-41166271D01*
X18512533Y-41045216D01*
X18607179Y-40881284D01*
X18625430Y-40825113D01*
X18665674Y-40701256D01*
X18685460Y-40513000D01*
X18665674Y-40324744D01*
X18635332Y-40231363D01*
X18607179Y-40144715D01*
X18512533Y-39980783D01*
X18385870Y-39840110D01*
X18232730Y-39728848D01*
X18059802Y-39651855D01*
X17983404Y-39635616D01*
X17921922Y-39602423D01*
X17888146Y-39541260D01*
X17892798Y-39471546D01*
X17934403Y-39415414D01*
X17958749Y-39401046D01*
X17978730Y-39392151D01*
X17978730Y-39392150D01*
X17978732Y-39392150D01*
X18131870Y-39280889D01*
X18258533Y-39140216D01*
X18353179Y-38976284D01*
X18378001Y-38899889D01*
X18411674Y-38796256D01*
X18431460Y-38608000D01*
X18411674Y-38419744D01*
X18353179Y-38239716D01*
X18353179Y-38239715D01*
X18258535Y-38075787D01*
X18258534Y-38075786D01*
X18258533Y-38075784D01*
X18240694Y-38055972D01*
X18210465Y-37992982D01*
X18219089Y-37923647D01*
X18240694Y-37890028D01*
X18258533Y-37870216D01*
X18353179Y-37706284D01*
X18411674Y-37526256D01*
X18431460Y-37338000D01*
X18428790Y-37312600D01*
X21522740Y-37312600D01*
X21525410Y-37338000D01*
X21542526Y-37500857D01*
X21601020Y-37680884D01*
X21695666Y-37844816D01*
X21748572Y-37903574D01*
X21778802Y-37966566D01*
X21774353Y-38024863D01*
X21720326Y-38191140D01*
X21700540Y-38379399D01*
X21720326Y-38567657D01*
X21778820Y-38747684D01*
X21873466Y-38911616D01*
X22000129Y-39052289D01*
X22153269Y-39163551D01*
X22326197Y-39240544D01*
X22511352Y-39279900D01*
X22511354Y-39279900D01*
X22700648Y-39279900D01*
X22824083Y-39253662D01*
X22885803Y-39240544D01*
X23058730Y-39163551D01*
X23090848Y-39140216D01*
X23211870Y-39052289D01*
X23224533Y-39038226D01*
X23268856Y-38989000D01*
X24621540Y-38989000D01*
X24641326Y-39177257D01*
X24699820Y-39357284D01*
X24794466Y-39521216D01*
X24921129Y-39661889D01*
X25074269Y-39773151D01*
X25247197Y-39850144D01*
X25432352Y-39889500D01*
X25432354Y-39889500D01*
X25621648Y-39889500D01*
X25745084Y-39863262D01*
X25806803Y-39850144D01*
X25979730Y-39773151D01*
X26040708Y-39728848D01*
X26132870Y-39661889D01*
X26259533Y-39521216D01*
X26289597Y-39469144D01*
X26354179Y-39357284D01*
X26356151Y-39351212D01*
X26395585Y-39293538D01*
X26459942Y-39266337D01*
X26528789Y-39278248D01*
X26580267Y-39325490D01*
X26597404Y-39376566D01*
X26609826Y-39494757D01*
X26668320Y-39674784D01*
X26762966Y-39838716D01*
X26889629Y-39979389D01*
X27042769Y-40090651D01*
X27215697Y-40167644D01*
X27400852Y-40207000D01*
X27400854Y-40207000D01*
X27590148Y-40207000D01*
X27713584Y-40180762D01*
X27775303Y-40167644D01*
X27948230Y-40090651D01*
X28101370Y-39979389D01*
X28228033Y-39838716D01*
X28322679Y-39674784D01*
X28330910Y-39649452D01*
X28381174Y-39494756D01*
X28400960Y-39306500D01*
X28386031Y-39164463D01*
X28398600Y-39095738D01*
X28446332Y-39044714D01*
X28458905Y-39038232D01*
X28519730Y-39011151D01*
X28672871Y-38899888D01*
X28799533Y-38759216D01*
X28894179Y-38595284D01*
X28952674Y-38415256D01*
X28963999Y-38307499D01*
X33287239Y-38307499D01*
X33307025Y-38495756D01*
X33365519Y-38675783D01*
X33460165Y-38839715D01*
X33586828Y-38980388D01*
X33739968Y-39091650D01*
X33912896Y-39168643D01*
X34098051Y-39207999D01*
X34098053Y-39207999D01*
X34287346Y-39207999D01*
X34351678Y-39194324D01*
X34397156Y-39184658D01*
X34466823Y-39189974D01*
X34522557Y-39232111D01*
X34546662Y-39297691D01*
X34546258Y-39318904D01*
X34542224Y-39357288D01*
X34527540Y-39496999D01*
X34547326Y-39685257D01*
X34605820Y-39865284D01*
X34700466Y-40029216D01*
X34827129Y-40169889D01*
X34980269Y-40281151D01*
X35153197Y-40358144D01*
X35338352Y-40397500D01*
X35338354Y-40397500D01*
X35527648Y-40397500D01*
X35651083Y-40371262D01*
X35712803Y-40358144D01*
X35885730Y-40281151D01*
X36038871Y-40169888D01*
X36165533Y-40029216D01*
X36260179Y-39865284D01*
X36318674Y-39685256D01*
X36338460Y-39497000D01*
X36318674Y-39308744D01*
X36260179Y-39128716D01*
X36260179Y-39128715D01*
X36165533Y-38964783D01*
X36038870Y-38824110D01*
X36021099Y-38811199D01*
X67471340Y-38811199D01*
X67491126Y-38999457D01*
X67549620Y-39179484D01*
X67644266Y-39343416D01*
X67770929Y-39484089D01*
X67924069Y-39595351D01*
X68096997Y-39672344D01*
X68282152Y-39711700D01*
X68282154Y-39711700D01*
X68471448Y-39711700D01*
X68595856Y-39685256D01*
X68656603Y-39672344D01*
X68829530Y-39595351D01*
X68903980Y-39541260D01*
X68982670Y-39484089D01*
X69044506Y-39415414D01*
X69109333Y-39343416D01*
X69203979Y-39179484D01*
X69262474Y-38999456D01*
X69282260Y-38811200D01*
X69262474Y-38622944D01*
X69208485Y-38456783D01*
X69203979Y-38442915D01*
X69109333Y-38278983D01*
X68982670Y-38138310D01*
X68829530Y-38027048D01*
X68656602Y-37950055D01*
X68471448Y-37910700D01*
X68471446Y-37910700D01*
X68282154Y-37910700D01*
X68282152Y-37910700D01*
X68096997Y-37950055D01*
X67924069Y-38027048D01*
X67770929Y-38138310D01*
X67644266Y-38278983D01*
X67549620Y-38442915D01*
X67491126Y-38622942D01*
X67471340Y-38811199D01*
X36021099Y-38811199D01*
X35885730Y-38712848D01*
X35712802Y-38635855D01*
X35527648Y-38596500D01*
X35527646Y-38596500D01*
X35338354Y-38596500D01*
X35338351Y-38596500D01*
X35228541Y-38619840D01*
X35158874Y-38614524D01*
X35103141Y-38572386D01*
X35079036Y-38506806D01*
X35079439Y-38485606D01*
X35098159Y-38307499D01*
X35078373Y-38119243D01*
X35037348Y-37992982D01*
X35019878Y-37939214D01*
X34925232Y-37775282D01*
X34798569Y-37634609D01*
X34645429Y-37523347D01*
X34472501Y-37446354D01*
X34287347Y-37406999D01*
X34287345Y-37406999D01*
X34098053Y-37406999D01*
X34098051Y-37406999D01*
X33912896Y-37446354D01*
X33739968Y-37523347D01*
X33586828Y-37634609D01*
X33460165Y-37775282D01*
X33365519Y-37939214D01*
X33307025Y-38119241D01*
X33287239Y-38307499D01*
X28963999Y-38307499D01*
X28972460Y-38227000D01*
X28952674Y-38038744D01*
X28920335Y-37939214D01*
X28894179Y-37858715D01*
X28799533Y-37694783D01*
X28672870Y-37554110D01*
X28519730Y-37442848D01*
X28346802Y-37365855D01*
X28161648Y-37326500D01*
X28161646Y-37326500D01*
X27972354Y-37326500D01*
X27972352Y-37326500D01*
X27787197Y-37365855D01*
X27614269Y-37442848D01*
X27461129Y-37554110D01*
X27334466Y-37694783D01*
X27239820Y-37858715D01*
X27181326Y-38038742D01*
X27163868Y-38204848D01*
X27161540Y-38227000D01*
X27170000Y-38307498D01*
X27176468Y-38369032D01*
X27163898Y-38437762D01*
X27116166Y-38488785D01*
X27103584Y-38495272D01*
X27042768Y-38522350D01*
X26889629Y-38633611D01*
X26762966Y-38774283D01*
X26668319Y-38938218D01*
X26666346Y-38944291D01*
X26626908Y-39001966D01*
X26562549Y-39029163D01*
X26493702Y-39017247D01*
X26442228Y-38970002D01*
X26425096Y-38918935D01*
X26412674Y-38800744D01*
X26380569Y-38701937D01*
X26354179Y-38620715D01*
X26259533Y-38456783D01*
X26132870Y-38316110D01*
X25979730Y-38204848D01*
X25806802Y-38127855D01*
X25621648Y-38088500D01*
X25621646Y-38088500D01*
X25432354Y-38088500D01*
X25432352Y-38088500D01*
X25247197Y-38127855D01*
X25074269Y-38204848D01*
X24921129Y-38316110D01*
X24794466Y-38456783D01*
X24699820Y-38620715D01*
X24641326Y-38800742D01*
X24621540Y-38989000D01*
X23268856Y-38989000D01*
X23338533Y-38911616D01*
X23433179Y-38747684D01*
X23491674Y-38567656D01*
X23511460Y-38379400D01*
X23491674Y-38191144D01*
X23442156Y-38038744D01*
X23433179Y-38011115D01*
X23338533Y-37847183D01*
X23285627Y-37788426D01*
X23255396Y-37725434D01*
X23259844Y-37667140D01*
X23313874Y-37500856D01*
X23333660Y-37312600D01*
X23313874Y-37124344D01*
X23255379Y-36944316D01*
X23255379Y-36944315D01*
X23160733Y-36780383D01*
X23034070Y-36639710D01*
X22981340Y-36601400D01*
X43950940Y-36601400D01*
X43970726Y-36789657D01*
X44029220Y-36969684D01*
X44123866Y-37133616D01*
X44250529Y-37274289D01*
X44403669Y-37385551D01*
X44576597Y-37462544D01*
X44761752Y-37501900D01*
X44761754Y-37501900D01*
X44951048Y-37501900D01*
X45074483Y-37475662D01*
X45136203Y-37462544D01*
X45309130Y-37385551D01*
X45449457Y-37283598D01*
X45462270Y-37274289D01*
X45588933Y-37133616D01*
X45683579Y-36969684D01*
X45722940Y-36848544D01*
X45742074Y-36789656D01*
X45761860Y-36601400D01*
X45742074Y-36413144D01*
X45712459Y-36322000D01*
X54534722Y-36322000D01*
X54553792Y-36539974D01*
X54610425Y-36751331D01*
X54628297Y-36789657D01*
X54702898Y-36949639D01*
X54828402Y-37128877D01*
X54983123Y-37283598D01*
X55162361Y-37409102D01*
X55360670Y-37501575D01*
X55572023Y-37558207D01*
X55717340Y-37570920D01*
X55789999Y-37577277D01*
X55789999Y-37577276D01*
X55790000Y-37577277D01*
X56007977Y-37558207D01*
X56219330Y-37501575D01*
X56417639Y-37409102D01*
X56596877Y-37283598D01*
X56751598Y-37128877D01*
X56877102Y-36949639D01*
X56969575Y-36751330D01*
X57026207Y-36539977D01*
X57045277Y-36322000D01*
X62034722Y-36322000D01*
X62053792Y-36539974D01*
X62110425Y-36751331D01*
X62128297Y-36789657D01*
X62202898Y-36949639D01*
X62328402Y-37128877D01*
X62483123Y-37283598D01*
X62662361Y-37409102D01*
X62860670Y-37501575D01*
X63072023Y-37558207D01*
X63217340Y-37570920D01*
X63289999Y-37577277D01*
X63289999Y-37577276D01*
X63290000Y-37577277D01*
X63507977Y-37558207D01*
X63719330Y-37501575D01*
X63917639Y-37409102D01*
X64096877Y-37283598D01*
X64251598Y-37128877D01*
X64377102Y-36949639D01*
X64469575Y-36751330D01*
X64526207Y-36539977D01*
X64545277Y-36322000D01*
X64526207Y-36104023D01*
X64469575Y-35892670D01*
X64377102Y-35694362D01*
X64251598Y-35515123D01*
X64096877Y-35360402D01*
X63917639Y-35234898D01*
X63826205Y-35192261D01*
X63719331Y-35142425D01*
X63507974Y-35085792D01*
X63289999Y-35066722D01*
X63072025Y-35085792D01*
X62860668Y-35142425D01*
X62662361Y-35234898D01*
X62483122Y-35360402D01*
X62328402Y-35515122D01*
X62202898Y-35694361D01*
X62110425Y-35892668D01*
X62053792Y-36104025D01*
X62034722Y-36322000D01*
X57045277Y-36322000D01*
X57026207Y-36104023D01*
X56969575Y-35892670D01*
X56877102Y-35694362D01*
X56751598Y-35515123D01*
X56596877Y-35360402D01*
X56417639Y-35234898D01*
X56326205Y-35192261D01*
X56219331Y-35142425D01*
X56007974Y-35085792D01*
X55789999Y-35066722D01*
X55572025Y-35085792D01*
X55360668Y-35142425D01*
X55162361Y-35234898D01*
X54983122Y-35360402D01*
X54828402Y-35515122D01*
X54702898Y-35694361D01*
X54610425Y-35892668D01*
X54553792Y-36104025D01*
X54534722Y-36322000D01*
X45712459Y-36322000D01*
X45683579Y-36233116D01*
X45683579Y-36233115D01*
X45588933Y-36069183D01*
X45559660Y-36036673D01*
X45529430Y-35973682D01*
X45538054Y-35904346D01*
X45559660Y-35870727D01*
X45588933Y-35838216D01*
X45683579Y-35674284D01*
X45685926Y-35667060D01*
X45742074Y-35494256D01*
X45761860Y-35306000D01*
X45742074Y-35117744D01*
X45683579Y-34937716D01*
X45683579Y-34937715D01*
X45588933Y-34773783D01*
X45462270Y-34633110D01*
X45309130Y-34521848D01*
X45136202Y-34444855D01*
X44951048Y-34405500D01*
X44951046Y-34405500D01*
X44761754Y-34405500D01*
X44761752Y-34405500D01*
X44576597Y-34444855D01*
X44403669Y-34521848D01*
X44250529Y-34633110D01*
X44123866Y-34773783D01*
X44029220Y-34937715D01*
X43970726Y-35117742D01*
X43950940Y-35305999D01*
X43970726Y-35494257D01*
X44029220Y-35674284D01*
X44123866Y-35838216D01*
X44153140Y-35870728D01*
X44183370Y-35933720D01*
X44174744Y-36003055D01*
X44153140Y-36036672D01*
X44123866Y-36069183D01*
X44029220Y-36233115D01*
X43970726Y-36413142D01*
X43950940Y-36601400D01*
X22981340Y-36601400D01*
X22880930Y-36528448D01*
X22708002Y-36451455D01*
X22522848Y-36412100D01*
X22522846Y-36412100D01*
X22333554Y-36412100D01*
X22333552Y-36412100D01*
X22148397Y-36451455D01*
X21975469Y-36528448D01*
X21822329Y-36639710D01*
X21695666Y-36780383D01*
X21601020Y-36944315D01*
X21542526Y-37124342D01*
X21525788Y-37283598D01*
X21522740Y-37312600D01*
X18428790Y-37312600D01*
X18411674Y-37149744D01*
X18353179Y-36969716D01*
X18353179Y-36969715D01*
X18283221Y-36848544D01*
X18266748Y-36780644D01*
X18289601Y-36714617D01*
X18344522Y-36671426D01*
X18414075Y-36664785D01*
X18446254Y-36675731D01*
X18590916Y-36748383D01*
X18760605Y-36788600D01*
X18760607Y-36788600D01*
X18887656Y-36788600D01*
X18891255Y-36788600D01*
X19021011Y-36773434D01*
X19184884Y-36713789D01*
X19330584Y-36617960D01*
X19450258Y-36491113D01*
X19537453Y-36340087D01*
X19587468Y-36173023D01*
X19592521Y-36086271D01*
X20127991Y-36086271D01*
X20158273Y-36258010D01*
X20227347Y-36418139D01*
X20331483Y-36558020D01*
X20331484Y-36558021D01*
X20331485Y-36558022D01*
X20465075Y-36670117D01*
X20620916Y-36748383D01*
X20790605Y-36788600D01*
X20790607Y-36788600D01*
X20917656Y-36788600D01*
X20921255Y-36788600D01*
X21051011Y-36773434D01*
X21214884Y-36713789D01*
X21360584Y-36617960D01*
X21480258Y-36491113D01*
X21567453Y-36340087D01*
X21617468Y-36173023D01*
X21627608Y-35998929D01*
X21597326Y-35827188D01*
X21528253Y-35667061D01*
X21424115Y-35527178D01*
X21290525Y-35415083D01*
X21134684Y-35336817D01*
X20964995Y-35296600D01*
X20834345Y-35296600D01*
X20830778Y-35297016D01*
X20830776Y-35297017D01*
X20704586Y-35311766D01*
X20540716Y-35371410D01*
X20395015Y-35467240D01*
X20275342Y-35594086D01*
X20188147Y-35745112D01*
X20188147Y-35745113D01*
X20140477Y-35904346D01*
X20138132Y-35912178D01*
X20127991Y-36086271D01*
X19592521Y-36086271D01*
X19597608Y-35998929D01*
X19567326Y-35827188D01*
X19498253Y-35667061D01*
X19394115Y-35527178D01*
X19260525Y-35415083D01*
X19104684Y-35336817D01*
X18934995Y-35296600D01*
X18804345Y-35296600D01*
X18800778Y-35297016D01*
X18800776Y-35297017D01*
X18674586Y-35311766D01*
X18510716Y-35371410D01*
X18365015Y-35467240D01*
X18245342Y-35594086D01*
X18158147Y-35745112D01*
X18158147Y-35745113D01*
X18110477Y-35904346D01*
X18108132Y-35912178D01*
X18097991Y-36086271D01*
X18128273Y-36258010D01*
X18128274Y-36258012D01*
X18195192Y-36413144D01*
X18203088Y-36431447D01*
X18198841Y-36433278D01*
X18213423Y-36472772D01*
X18198345Y-36540995D01*
X18148776Y-36590237D01*
X18080454Y-36604862D01*
X18016824Y-36581526D01*
X17978727Y-36553846D01*
X17805802Y-36476855D01*
X17620648Y-36437500D01*
X17620646Y-36437500D01*
X17431354Y-36437500D01*
X17431352Y-36437500D01*
X17246197Y-36476855D01*
X17073269Y-36553848D01*
X16920129Y-36665110D01*
X16793466Y-36805783D01*
X16698820Y-36969715D01*
X16640326Y-37149742D01*
X16620540Y-37338000D01*
X16640326Y-37526257D01*
X16698820Y-37706284D01*
X16793466Y-37870216D01*
X16811305Y-37890028D01*
X16841535Y-37953020D01*
X16832909Y-38022355D01*
X16811305Y-38055972D01*
X16793466Y-38075783D01*
X16698820Y-38239715D01*
X16640326Y-38419742D01*
X16620540Y-38608000D01*
X116500Y-38608000D01*
X116500Y-34543999D01*
X8238540Y-34543999D01*
X8258326Y-34732257D01*
X8316820Y-34912284D01*
X8411466Y-35076216D01*
X8538129Y-35216889D01*
X8691269Y-35328151D01*
X8864197Y-35405144D01*
X9049352Y-35444500D01*
X9049354Y-35444500D01*
X9238648Y-35444500D01*
X9377043Y-35415083D01*
X9423803Y-35405144D01*
X9596730Y-35328151D01*
X9627220Y-35305999D01*
X9749870Y-35216889D01*
X9876533Y-35076216D01*
X9971179Y-34912284D01*
X9982876Y-34876284D01*
X10029674Y-34732256D01*
X10049460Y-34544000D01*
X10045676Y-34508000D01*
X29244340Y-34508000D01*
X29245796Y-34521849D01*
X29264126Y-34696257D01*
X29322620Y-34876284D01*
X29417266Y-35040216D01*
X29543929Y-35180889D01*
X29697069Y-35292151D01*
X29869997Y-35369144D01*
X30055152Y-35408500D01*
X30055154Y-35408500D01*
X30244448Y-35408500D01*
X30367883Y-35382262D01*
X30429603Y-35369144D01*
X30602530Y-35292151D01*
X30755670Y-35180889D01*
X30882333Y-35040216D01*
X30976979Y-34876284D01*
X31010283Y-34773784D01*
X31035474Y-34696256D01*
X31055260Y-34508000D01*
X31035474Y-34319744D01*
X30976979Y-34139716D01*
X30976979Y-34139715D01*
X30882333Y-33975783D01*
X30755670Y-33835110D01*
X30602530Y-33723848D01*
X30429602Y-33646855D01*
X30244448Y-33607500D01*
X30244446Y-33607500D01*
X30055154Y-33607500D01*
X30055152Y-33607500D01*
X29869997Y-33646855D01*
X29697069Y-33723848D01*
X29543929Y-33835110D01*
X29417266Y-33975783D01*
X29322620Y-34139715D01*
X29264126Y-34319742D01*
X29244340Y-34507999D01*
X29244340Y-34508000D01*
X10045676Y-34508000D01*
X10029674Y-34355744D01*
X9971179Y-34175716D01*
X9971179Y-34175715D01*
X9876533Y-34011783D01*
X9749870Y-33871110D01*
X9596730Y-33759848D01*
X9423802Y-33682855D01*
X9238648Y-33643500D01*
X9238646Y-33643500D01*
X9049354Y-33643500D01*
X9049352Y-33643500D01*
X8864197Y-33682855D01*
X8691269Y-33759848D01*
X8538129Y-33871110D01*
X8411466Y-34011783D01*
X8316820Y-34175715D01*
X8258326Y-34355742D01*
X8238540Y-34543999D01*
X116500Y-34543999D01*
X116500Y-32867600D01*
X32927340Y-32867600D01*
X32947126Y-33055857D01*
X33005620Y-33235884D01*
X33100266Y-33399816D01*
X33226929Y-33540489D01*
X33380069Y-33651751D01*
X33552997Y-33728744D01*
X33738152Y-33768100D01*
X33738154Y-33768100D01*
X33927448Y-33768100D01*
X34050884Y-33741862D01*
X34112603Y-33728744D01*
X34285530Y-33651751D01*
X34438671Y-33540488D01*
X34565333Y-33399816D01*
X34659979Y-33235884D01*
X34718474Y-33055856D01*
X34738260Y-32867600D01*
X34718474Y-32679344D01*
X34680606Y-32562800D01*
X39074140Y-32562800D01*
X39093926Y-32751057D01*
X39152420Y-32931084D01*
X39247066Y-33095016D01*
X39373729Y-33235689D01*
X39526869Y-33346951D01*
X39699797Y-33423944D01*
X39884952Y-33463300D01*
X39884954Y-33463300D01*
X40074248Y-33463300D01*
X40197683Y-33437062D01*
X40259403Y-33423944D01*
X40432330Y-33346951D01*
X40432330Y-33346950D01*
X40585470Y-33235689D01*
X40712133Y-33095016D01*
X40806779Y-32931084D01*
X40827406Y-32867600D01*
X40865274Y-32751056D01*
X40885060Y-32562800D01*
X40865274Y-32374544D01*
X40806779Y-32194516D01*
X40806779Y-32194515D01*
X40712133Y-32030583D01*
X40585470Y-31889910D01*
X40432330Y-31778648D01*
X40259402Y-31701655D01*
X40074248Y-31662300D01*
X40074246Y-31662300D01*
X39884954Y-31662300D01*
X39884952Y-31662300D01*
X39699797Y-31701655D01*
X39526869Y-31778648D01*
X39373729Y-31889910D01*
X39247066Y-32030583D01*
X39152420Y-32194515D01*
X39093926Y-32374542D01*
X39074140Y-32562800D01*
X34680606Y-32562800D01*
X34659979Y-32499316D01*
X34659979Y-32499315D01*
X34565333Y-32335383D01*
X34438670Y-32194710D01*
X34285530Y-32083448D01*
X34112602Y-32006455D01*
X33927448Y-31967100D01*
X33927446Y-31967100D01*
X33738154Y-31967100D01*
X33738152Y-31967100D01*
X33552997Y-32006455D01*
X33380069Y-32083448D01*
X33226929Y-32194710D01*
X33100266Y-32335383D01*
X33005620Y-32499315D01*
X32947126Y-32679342D01*
X32927340Y-32867600D01*
X116500Y-32867600D01*
X116500Y-29637999D01*
X3853340Y-29637999D01*
X3873936Y-29873407D01*
X3924496Y-30062100D01*
X3935097Y-30101663D01*
X4034965Y-30315829D01*
X4170505Y-30509401D01*
X4337599Y-30676495D01*
X4531171Y-30812035D01*
X4745337Y-30911903D01*
X4973592Y-30973063D01*
X5150034Y-30988500D01*
X5152742Y-30988500D01*
X5515258Y-30988500D01*
X5517966Y-30988500D01*
X5694408Y-30973063D01*
X5733461Y-30962599D01*
X33867140Y-30962599D01*
X33886926Y-31150857D01*
X33945420Y-31330884D01*
X34040066Y-31494816D01*
X34166729Y-31635489D01*
X34319869Y-31746751D01*
X34492797Y-31823744D01*
X34677952Y-31863100D01*
X34677954Y-31863100D01*
X34867248Y-31863100D01*
X34990684Y-31836862D01*
X35052403Y-31823744D01*
X35225330Y-31746751D01*
X35287400Y-31701655D01*
X35378470Y-31635489D01*
X35505133Y-31494816D01*
X35599779Y-31330884D01*
X35599779Y-31330883D01*
X35658274Y-31150856D01*
X35678060Y-30962600D01*
X35658274Y-30774344D01*
X35599779Y-30594316D01*
X35599779Y-30594315D01*
X35505133Y-30430383D01*
X35378470Y-30289710D01*
X35225330Y-30178448D01*
X35052402Y-30101455D01*
X34867248Y-30062100D01*
X34867246Y-30062100D01*
X34677954Y-30062100D01*
X34677952Y-30062100D01*
X34492797Y-30101455D01*
X34319869Y-30178448D01*
X34166729Y-30289710D01*
X34040066Y-30430383D01*
X33945420Y-30594315D01*
X33886926Y-30774342D01*
X33867140Y-30962599D01*
X5733461Y-30962599D01*
X5922663Y-30911903D01*
X6136829Y-30812035D01*
X6330401Y-30676495D01*
X6497495Y-30509401D01*
X6633035Y-30315830D01*
X6732903Y-30101663D01*
X6794063Y-29873408D01*
X6807660Y-29717999D01*
X21954540Y-29717999D01*
X21974326Y-29906257D01*
X22032820Y-30086284D01*
X22127466Y-30250216D01*
X22254129Y-30390889D01*
X22407269Y-30502151D01*
X22580197Y-30579144D01*
X22765352Y-30618500D01*
X22765354Y-30618500D01*
X22954648Y-30618500D01*
X23078084Y-30592262D01*
X23139803Y-30579144D01*
X23312730Y-30502151D01*
X23465871Y-30390888D01*
X23592533Y-30250216D01*
X23687179Y-30086284D01*
X23745674Y-29906256D01*
X23765460Y-29718000D01*
X23745674Y-29529744D01*
X23738609Y-29508000D01*
X37721140Y-29508000D01*
X37740926Y-29696257D01*
X37799420Y-29876284D01*
X37894066Y-30040216D01*
X38020729Y-30180889D01*
X38173869Y-30292151D01*
X38346797Y-30369144D01*
X38531952Y-30408500D01*
X38531954Y-30408500D01*
X38721248Y-30408500D01*
X38844684Y-30382262D01*
X38906403Y-30369144D01*
X39079330Y-30292151D01*
X39232471Y-30180888D01*
X39359133Y-30040216D01*
X39453779Y-29876284D01*
X39512274Y-29696256D01*
X39532060Y-29508000D01*
X39527436Y-29464000D01*
X43798540Y-29464000D01*
X43805450Y-29529742D01*
X43818326Y-29652257D01*
X43876820Y-29832284D01*
X43971466Y-29996216D01*
X44098129Y-30136889D01*
X44251269Y-30248151D01*
X44424197Y-30325144D01*
X44609352Y-30364500D01*
X44609354Y-30364500D01*
X44798648Y-30364500D01*
X44922083Y-30338262D01*
X44983803Y-30325144D01*
X45156730Y-30248151D01*
X45252667Y-30178449D01*
X45309870Y-30136889D01*
X45436533Y-29996216D01*
X45531179Y-29832284D01*
X45568312Y-29718000D01*
X45589674Y-29652256D01*
X45609460Y-29464000D01*
X45589674Y-29275744D01*
X45531179Y-29095716D01*
X45531179Y-29095715D01*
X45436533Y-28931783D01*
X45309870Y-28791110D01*
X45156730Y-28679848D01*
X44983802Y-28602855D01*
X44798648Y-28563500D01*
X44798646Y-28563500D01*
X44609354Y-28563500D01*
X44609352Y-28563500D01*
X44424197Y-28602855D01*
X44251269Y-28679848D01*
X44098129Y-28791110D01*
X43971466Y-28931783D01*
X43876820Y-29095715D01*
X43818326Y-29275742D01*
X43810551Y-29349716D01*
X43798540Y-29464000D01*
X39527436Y-29464000D01*
X39512274Y-29319744D01*
X39481932Y-29226363D01*
X39453779Y-29139715D01*
X39359133Y-28975783D01*
X39232470Y-28835110D01*
X39079330Y-28723848D01*
X38906402Y-28646855D01*
X38721248Y-28607500D01*
X38721246Y-28607500D01*
X38531954Y-28607500D01*
X38531952Y-28607500D01*
X38346797Y-28646855D01*
X38173869Y-28723848D01*
X38020729Y-28835110D01*
X37894066Y-28975783D01*
X37799420Y-29139715D01*
X37740926Y-29319742D01*
X37721140Y-29508000D01*
X23738609Y-29508000D01*
X23687179Y-29349716D01*
X23687179Y-29349715D01*
X23592533Y-29185783D01*
X23465870Y-29045110D01*
X23312730Y-28933848D01*
X23139802Y-28856855D01*
X22954648Y-28817500D01*
X22954646Y-28817500D01*
X22765354Y-28817500D01*
X22765352Y-28817500D01*
X22580197Y-28856855D01*
X22407269Y-28933848D01*
X22254129Y-29045110D01*
X22127466Y-29185783D01*
X22032820Y-29349715D01*
X21974326Y-29529742D01*
X21954540Y-29717999D01*
X6807660Y-29717999D01*
X6814659Y-29638000D01*
X6794063Y-29402592D01*
X6732903Y-29174337D01*
X6633035Y-28960171D01*
X6497495Y-28766599D01*
X6330401Y-28599505D01*
X6173403Y-28489574D01*
X6129779Y-28434998D01*
X6122585Y-28365500D01*
X6154108Y-28303145D01*
X6173404Y-28286425D01*
X6330401Y-28176495D01*
X6497495Y-28009401D01*
X6633035Y-27815830D01*
X6732903Y-27601663D01*
X6794063Y-27373408D01*
X6814659Y-27138000D01*
X6794063Y-26902592D01*
X6732903Y-26674337D01*
X6644053Y-26483800D01*
X34722340Y-26483800D01*
X34732232Y-26577927D01*
X34742126Y-26672057D01*
X34800620Y-26852084D01*
X34895266Y-27016016D01*
X35021929Y-27156689D01*
X35175069Y-27267951D01*
X35347997Y-27344944D01*
X35533152Y-27384300D01*
X35533154Y-27384300D01*
X35722448Y-27384300D01*
X35845884Y-27358062D01*
X35907603Y-27344944D01*
X36080530Y-27267951D01*
X36233671Y-27156688D01*
X36360333Y-27016016D01*
X36413459Y-26923999D01*
X43798540Y-26923999D01*
X43818326Y-27112257D01*
X43876820Y-27292284D01*
X43971466Y-27456216D01*
X44098129Y-27596889D01*
X44251269Y-27708151D01*
X44424197Y-27785144D01*
X44609352Y-27824500D01*
X44609354Y-27824500D01*
X44798648Y-27824500D01*
X44922083Y-27798262D01*
X44983803Y-27785144D01*
X45156730Y-27708151D01*
X45309871Y-27596888D01*
X45436533Y-27456216D01*
X45531179Y-27292284D01*
X45589674Y-27112256D01*
X45609460Y-26924000D01*
X45589674Y-26735744D01*
X45531179Y-26555716D01*
X45531179Y-26555715D01*
X45436533Y-26391783D01*
X45309870Y-26251110D01*
X45156730Y-26139848D01*
X44983802Y-26062855D01*
X44798648Y-26023500D01*
X44798646Y-26023500D01*
X44609354Y-26023500D01*
X44609352Y-26023500D01*
X44424197Y-26062855D01*
X44251269Y-26139848D01*
X44098129Y-26251110D01*
X43971466Y-26391783D01*
X43876820Y-26555715D01*
X43818326Y-26735742D01*
X43798540Y-26923999D01*
X36413459Y-26923999D01*
X36454979Y-26852084D01*
X36513474Y-26672056D01*
X36533260Y-26483800D01*
X36513474Y-26295544D01*
X36483132Y-26202163D01*
X36454979Y-26115515D01*
X36360333Y-25951583D01*
X36233670Y-25810910D01*
X36080530Y-25699648D01*
X35907602Y-25622655D01*
X35722448Y-25583300D01*
X35722446Y-25583300D01*
X35533154Y-25583300D01*
X35533152Y-25583300D01*
X35347997Y-25622655D01*
X35175069Y-25699648D01*
X35021929Y-25810910D01*
X34895266Y-25951583D01*
X34800620Y-26115515D01*
X34742126Y-26295542D01*
X34724823Y-26460171D01*
X34722340Y-26483800D01*
X6644053Y-26483800D01*
X6633035Y-26460171D01*
X6497495Y-26266599D01*
X6350294Y-26119398D01*
X6316809Y-26058075D01*
X6321793Y-25988383D01*
X6363665Y-25932450D01*
X6372879Y-25926178D01*
X6378331Y-25922814D01*
X6378334Y-25922814D01*
X6527656Y-25830712D01*
X6651712Y-25706656D01*
X6743814Y-25557334D01*
X6798999Y-25390797D01*
X6809500Y-25288009D01*
X6809499Y-24510999D01*
X57895540Y-24510999D01*
X57915326Y-24699257D01*
X57973820Y-24879284D01*
X58068466Y-25043216D01*
X58195129Y-25183889D01*
X58348269Y-25295151D01*
X58521197Y-25372144D01*
X58706352Y-25411500D01*
X58706354Y-25411500D01*
X58895648Y-25411500D01*
X59019083Y-25385262D01*
X59080803Y-25372144D01*
X59253730Y-25295151D01*
X59406871Y-25183888D01*
X59533533Y-25043216D01*
X59628179Y-24879284D01*
X59686674Y-24699256D01*
X59706460Y-24511000D01*
X59686674Y-24322744D01*
X59628179Y-24142716D01*
X59628179Y-24142715D01*
X59533533Y-23978783D01*
X59406870Y-23838110D01*
X59253730Y-23726848D01*
X59080802Y-23649855D01*
X58895648Y-23610500D01*
X58895646Y-23610500D01*
X58706354Y-23610500D01*
X58706352Y-23610500D01*
X58521197Y-23649855D01*
X58348269Y-23726848D01*
X58195129Y-23838110D01*
X58068466Y-23978783D01*
X57973820Y-24142715D01*
X57915326Y-24322742D01*
X57895540Y-24510999D01*
X6809499Y-24510999D01*
X6809499Y-23987992D01*
X6798999Y-23885203D01*
X6743814Y-23718666D01*
X6651712Y-23569344D01*
X6651711Y-23569342D01*
X6527657Y-23445288D01*
X6378334Y-23353186D01*
X6211797Y-23298000D01*
X6112141Y-23287819D01*
X6112122Y-23287818D01*
X6109009Y-23287500D01*
X6105860Y-23287500D01*
X4562140Y-23287500D01*
X4562120Y-23287500D01*
X4558992Y-23287501D01*
X4555860Y-23287820D01*
X4555858Y-23287821D01*
X4456203Y-23298000D01*
X4289665Y-23353186D01*
X4140342Y-23445288D01*
X4016288Y-23569342D01*
X3924186Y-23718665D01*
X3869000Y-23885202D01*
X3858819Y-23984858D01*
X3858817Y-23984878D01*
X3858500Y-23987991D01*
X3858500Y-23991138D01*
X3858500Y-23991139D01*
X3858500Y-25284859D01*
X3858500Y-25284878D01*
X3858501Y-25288008D01*
X3858820Y-25291140D01*
X3858821Y-25291141D01*
X3869000Y-25390796D01*
X3924186Y-25557334D01*
X4016288Y-25706657D01*
X4140342Y-25830711D01*
X4295120Y-25926178D01*
X4341845Y-25978126D01*
X4353068Y-26047088D01*
X4325225Y-26111170D01*
X4317706Y-26119398D01*
X4170505Y-26266599D01*
X4082850Y-26391784D01*
X4034964Y-26460172D01*
X3935097Y-26674337D01*
X3873936Y-26902592D01*
X3853340Y-27138000D01*
X3873936Y-27373407D01*
X3935097Y-27601663D01*
X4034965Y-27815829D01*
X4170505Y-28009401D01*
X4337598Y-28176494D01*
X4494596Y-28286425D01*
X4538221Y-28341002D01*
X4545415Y-28410500D01*
X4513892Y-28472855D01*
X4494596Y-28489575D01*
X4337598Y-28599505D01*
X4170508Y-28766595D01*
X4170505Y-28766598D01*
X4170505Y-28766599D01*
X4053396Y-28933849D01*
X4034964Y-28960172D01*
X3935097Y-29174337D01*
X3873936Y-29402592D01*
X3853340Y-29637999D01*
X116500Y-29637999D01*
X116500Y-22859999D01*
X28812540Y-22859999D01*
X28832326Y-23048257D01*
X28890820Y-23228284D01*
X28985466Y-23392216D01*
X29112129Y-23532889D01*
X29265269Y-23644151D01*
X29438197Y-23721144D01*
X29623352Y-23760500D01*
X29623354Y-23760500D01*
X29812648Y-23760500D01*
X29936084Y-23734262D01*
X29997803Y-23721144D01*
X30170730Y-23644151D01*
X30217047Y-23610500D01*
X30323870Y-23532889D01*
X30450533Y-23392216D01*
X30545179Y-23228284D01*
X30600995Y-23056500D01*
X30603674Y-23048256D01*
X30623460Y-22860000D01*
X30603674Y-22671744D01*
X30545179Y-22491716D01*
X30545179Y-22491715D01*
X30450533Y-22327783D01*
X30323870Y-22187110D01*
X30281050Y-22156000D01*
X57902740Y-22156000D01*
X57922526Y-22344257D01*
X57981020Y-22524284D01*
X58075666Y-22688216D01*
X58202329Y-22828889D01*
X58355469Y-22940151D01*
X58528397Y-23017144D01*
X58713552Y-23056500D01*
X58713554Y-23056500D01*
X58902848Y-23056500D01*
X59026283Y-23030262D01*
X59088003Y-23017144D01*
X59260930Y-22940151D01*
X59379034Y-22854344D01*
X59414070Y-22828889D01*
X59540733Y-22688216D01*
X59635379Y-22524284D01*
X59645961Y-22491715D01*
X59693874Y-22344256D01*
X59713660Y-22156000D01*
X59693874Y-21967744D01*
X59635379Y-21787716D01*
X59635379Y-21787715D01*
X59540733Y-21623783D01*
X59414070Y-21483110D01*
X59331335Y-21423000D01*
X63670340Y-21423000D01*
X63690936Y-21658407D01*
X63752097Y-21886663D01*
X63851965Y-22100829D01*
X63987505Y-22294401D01*
X64134705Y-22441601D01*
X64168190Y-22502924D01*
X64163206Y-22572616D01*
X64121334Y-22628549D01*
X64112121Y-22634821D01*
X63957341Y-22730289D01*
X63833288Y-22854342D01*
X63741186Y-23003665D01*
X63686000Y-23170202D01*
X63675819Y-23269858D01*
X63675817Y-23269878D01*
X63675500Y-23272991D01*
X63675500Y-23276138D01*
X63675500Y-23276139D01*
X63675500Y-24569859D01*
X63675500Y-24569878D01*
X63675501Y-24573008D01*
X63675820Y-24576140D01*
X63675821Y-24576141D01*
X63686000Y-24675796D01*
X63741186Y-24842334D01*
X63833288Y-24991657D01*
X63957342Y-25115711D01*
X63957344Y-25115712D01*
X64106666Y-25207814D01*
X64218016Y-25244712D01*
X64273202Y-25262999D01*
X64372858Y-25273180D01*
X64372859Y-25273180D01*
X64375991Y-25273500D01*
X65926008Y-25273499D01*
X66028797Y-25262999D01*
X66195334Y-25207814D01*
X66344656Y-25115712D01*
X66468712Y-24991656D01*
X66560814Y-24842334D01*
X66615999Y-24675797D01*
X66626500Y-24573009D01*
X66626499Y-23272992D01*
X66615999Y-23170203D01*
X66560814Y-23003666D01*
X66468712Y-22854344D01*
X66468711Y-22854342D01*
X66344657Y-22730288D01*
X66189879Y-22634821D01*
X66143154Y-22582873D01*
X66131931Y-22513911D01*
X66159775Y-22449828D01*
X66167272Y-22441623D01*
X66314495Y-22294401D01*
X66450035Y-22100830D01*
X66549903Y-21886663D01*
X66611063Y-21658408D01*
X66631659Y-21423000D01*
X66611063Y-21187592D01*
X66549903Y-20959337D01*
X66450035Y-20745171D01*
X66314495Y-20551599D01*
X66147401Y-20384505D01*
X65990401Y-20274573D01*
X65946778Y-20219997D01*
X65939585Y-20150498D01*
X65971107Y-20088144D01*
X65990392Y-20071432D01*
X66147401Y-19961495D01*
X66314495Y-19794401D01*
X66450035Y-19600830D01*
X66549903Y-19386663D01*
X66611063Y-19158408D01*
X66631659Y-18923000D01*
X66611063Y-18687592D01*
X66549903Y-18459337D01*
X66450035Y-18245171D01*
X66314495Y-18051599D01*
X66147401Y-17884505D01*
X65990401Y-17774573D01*
X65946778Y-17719998D01*
X65939584Y-17650500D01*
X65971107Y-17588145D01*
X65990398Y-17571428D01*
X66147401Y-17461495D01*
X66314495Y-17294401D01*
X66450035Y-17100830D01*
X66549903Y-16886663D01*
X66611063Y-16658408D01*
X66631659Y-16423000D01*
X66611063Y-16187592D01*
X66549903Y-15959337D01*
X66450035Y-15745171D01*
X66314495Y-15551599D01*
X66147401Y-15384505D01*
X65953829Y-15248965D01*
X65739663Y-15149097D01*
X65511407Y-15087936D01*
X65337667Y-15072736D01*
X65337659Y-15072735D01*
X65334966Y-15072500D01*
X64967034Y-15072500D01*
X64964341Y-15072735D01*
X64964332Y-15072736D01*
X64790592Y-15087936D01*
X64562336Y-15149097D01*
X64348170Y-15248965D01*
X64154598Y-15384505D01*
X63987508Y-15551595D01*
X63851964Y-15745172D01*
X63752097Y-15959337D01*
X63690936Y-16187592D01*
X63670340Y-16423000D01*
X63690936Y-16658407D01*
X63752097Y-16886663D01*
X63851965Y-17100829D01*
X63987505Y-17294401D01*
X64154598Y-17461494D01*
X64311596Y-17571425D01*
X64355221Y-17626002D01*
X64362415Y-17695500D01*
X64330892Y-17757855D01*
X64311596Y-17774575D01*
X64154598Y-17884505D01*
X63987508Y-18051595D01*
X63851964Y-18245172D01*
X63752097Y-18459337D01*
X63690936Y-18687592D01*
X63670340Y-18923000D01*
X63690936Y-19158407D01*
X63752097Y-19386662D01*
X63752097Y-19386663D01*
X63851965Y-19600829D01*
X63987505Y-19794401D01*
X64154599Y-19961495D01*
X64311597Y-20071426D01*
X64355221Y-20126000D01*
X64362415Y-20195499D01*
X64330892Y-20257854D01*
X64311597Y-20274574D01*
X64154595Y-20384508D01*
X63987508Y-20551595D01*
X63851964Y-20745172D01*
X63752097Y-20959337D01*
X63690936Y-21187592D01*
X63670340Y-21423000D01*
X59331335Y-21423000D01*
X59260930Y-21371848D01*
X59088002Y-21294855D01*
X58902848Y-21255500D01*
X58902846Y-21255500D01*
X58713554Y-21255500D01*
X58713552Y-21255500D01*
X58528397Y-21294855D01*
X58355469Y-21371848D01*
X58202329Y-21483110D01*
X58075666Y-21623783D01*
X57981020Y-21787715D01*
X57922526Y-21967742D01*
X57902740Y-22156000D01*
X30281050Y-22156000D01*
X30170730Y-22075848D01*
X29997802Y-21998855D01*
X29812648Y-21959500D01*
X29812646Y-21959500D01*
X29623354Y-21959500D01*
X29623352Y-21959500D01*
X29438197Y-21998855D01*
X29265269Y-22075848D01*
X29112129Y-22187110D01*
X28985466Y-22327783D01*
X28890820Y-22491715D01*
X28832326Y-22671742D01*
X28812540Y-22859999D01*
X116500Y-22859999D01*
X116500Y-19964399D01*
X57895540Y-19964399D01*
X57915326Y-20152657D01*
X57973820Y-20332684D01*
X58068466Y-20496616D01*
X58195129Y-20637289D01*
X58348269Y-20748551D01*
X58521197Y-20825544D01*
X58706352Y-20864900D01*
X58706354Y-20864900D01*
X58895648Y-20864900D01*
X59019084Y-20838662D01*
X59080803Y-20825544D01*
X59253730Y-20748551D01*
X59406871Y-20637288D01*
X59533533Y-20496616D01*
X59628179Y-20332684D01*
X59686674Y-20152656D01*
X59706460Y-19964400D01*
X59686674Y-19776144D01*
X59629711Y-19600830D01*
X59628179Y-19596115D01*
X59533533Y-19432183D01*
X59406870Y-19291510D01*
X59253730Y-19180248D01*
X59080802Y-19103255D01*
X58895648Y-19063900D01*
X58895646Y-19063900D01*
X58706354Y-19063900D01*
X58706352Y-19063900D01*
X58521197Y-19103255D01*
X58348269Y-19180248D01*
X58195129Y-19291510D01*
X58068466Y-19432183D01*
X57973820Y-19596115D01*
X57915326Y-19776142D01*
X57895540Y-19964399D01*
X116500Y-19964399D01*
X116500Y-10870000D01*
X14187356Y-10870000D01*
X14207891Y-11117816D01*
X14207891Y-11117819D01*
X14207892Y-11117821D01*
X14268937Y-11358881D01*
X14313960Y-11461523D01*
X14368825Y-11586604D01*
X14368827Y-11586607D01*
X14504836Y-11794785D01*
X14673256Y-11977738D01*
X14673259Y-11977740D01*
X14869485Y-12130470D01*
X14869487Y-12130471D01*
X14869491Y-12130474D01*
X15088190Y-12248828D01*
X15323386Y-12329571D01*
X15568665Y-12370500D01*
X15817335Y-12370500D01*
X16062614Y-12329571D01*
X16297810Y-12248828D01*
X16516509Y-12130474D01*
X16712744Y-11977738D01*
X16881164Y-11794785D01*
X17017173Y-11586607D01*
X17117063Y-11358881D01*
X17178108Y-11117821D01*
X17198643Y-10870000D01*
X17198643Y-10869999D01*
X18687356Y-10869999D01*
X18707891Y-11117816D01*
X18707891Y-11117819D01*
X18707892Y-11117821D01*
X18768937Y-11358881D01*
X18813960Y-11461523D01*
X18868825Y-11586604D01*
X18868827Y-11586607D01*
X19004836Y-11794785D01*
X19173256Y-11977738D01*
X19173259Y-11977740D01*
X19369485Y-12130470D01*
X19369487Y-12130471D01*
X19369491Y-12130474D01*
X19588190Y-12248828D01*
X19823386Y-12329571D01*
X20068665Y-12370500D01*
X20317335Y-12370500D01*
X20562614Y-12329571D01*
X20797810Y-12248828D01*
X21016509Y-12130474D01*
X21212744Y-11977738D01*
X21381164Y-11794785D01*
X21517173Y-11586607D01*
X21617063Y-11358881D01*
X21678108Y-11117821D01*
X21698643Y-10870000D01*
X21698643Y-10869999D01*
X22442356Y-10869999D01*
X22462891Y-11117816D01*
X22462891Y-11117819D01*
X22462892Y-11117821D01*
X22523937Y-11358881D01*
X22568960Y-11461523D01*
X22623825Y-11586604D01*
X22623827Y-11586607D01*
X22759836Y-11794785D01*
X22928256Y-11977738D01*
X22928259Y-11977740D01*
X23124485Y-12130470D01*
X23124487Y-12130471D01*
X23124491Y-12130474D01*
X23343190Y-12248828D01*
X23578386Y-12329571D01*
X23823665Y-12370500D01*
X24072335Y-12370500D01*
X24317614Y-12329571D01*
X24552810Y-12248828D01*
X24771509Y-12130474D01*
X24967744Y-11977738D01*
X25136164Y-11794785D01*
X25272173Y-11586607D01*
X25372063Y-11358881D01*
X25433108Y-11117821D01*
X25453643Y-10870000D01*
X26942356Y-10870000D01*
X26962891Y-11117816D01*
X26962891Y-11117819D01*
X26962892Y-11117821D01*
X27023937Y-11358881D01*
X27068960Y-11461523D01*
X27123825Y-11586604D01*
X27123827Y-11586607D01*
X27259836Y-11794785D01*
X27428256Y-11977738D01*
X27428259Y-11977740D01*
X27624485Y-12130470D01*
X27624487Y-12130471D01*
X27624491Y-12130474D01*
X27843190Y-12248828D01*
X28078386Y-12329571D01*
X28323665Y-12370500D01*
X28572335Y-12370500D01*
X28817614Y-12329571D01*
X29052810Y-12248828D01*
X29271509Y-12130474D01*
X29467744Y-11977738D01*
X29636164Y-11794785D01*
X29772173Y-11586607D01*
X29872063Y-11358881D01*
X29933108Y-11117821D01*
X29953643Y-10870000D01*
X29953643Y-10869999D01*
X30788356Y-10869999D01*
X30808891Y-11117816D01*
X30808891Y-11117819D01*
X30808892Y-11117821D01*
X30869937Y-11358881D01*
X30914960Y-11461523D01*
X30969825Y-11586604D01*
X30969827Y-11586607D01*
X31105836Y-11794785D01*
X31274256Y-11977738D01*
X31274259Y-11977740D01*
X31470485Y-12130470D01*
X31470487Y-12130471D01*
X31470491Y-12130474D01*
X31689190Y-12248828D01*
X31924386Y-12329571D01*
X32169665Y-12370500D01*
X32418335Y-12370500D01*
X32663614Y-12329571D01*
X32898810Y-12248828D01*
X33117509Y-12130474D01*
X33313744Y-11977738D01*
X33482164Y-11794785D01*
X33618173Y-11586607D01*
X33718063Y-11358881D01*
X33779108Y-11117821D01*
X33799643Y-10870000D01*
X35288356Y-10870000D01*
X35308891Y-11117816D01*
X35308891Y-11117819D01*
X35308892Y-11117821D01*
X35369937Y-11358881D01*
X35414960Y-11461523D01*
X35469825Y-11586604D01*
X35469827Y-11586607D01*
X35605836Y-11794785D01*
X35774256Y-11977738D01*
X35774259Y-11977740D01*
X35970485Y-12130470D01*
X35970487Y-12130471D01*
X35970491Y-12130474D01*
X36189190Y-12248828D01*
X36424386Y-12329571D01*
X36669665Y-12370500D01*
X36918335Y-12370500D01*
X37163614Y-12329571D01*
X37398810Y-12248828D01*
X37617509Y-12130474D01*
X37813744Y-11977738D01*
X37982164Y-11794785D01*
X38118173Y-11586607D01*
X38218063Y-11358881D01*
X38279108Y-11117821D01*
X38299643Y-10870000D01*
X38299643Y-10869999D01*
X39170356Y-10869999D01*
X39190891Y-11117816D01*
X39190891Y-11117819D01*
X39190892Y-11117821D01*
X39251937Y-11358881D01*
X39296960Y-11461523D01*
X39351825Y-11586604D01*
X39351827Y-11586607D01*
X39487836Y-11794785D01*
X39656256Y-11977738D01*
X39656259Y-11977740D01*
X39852485Y-12130470D01*
X39852487Y-12130471D01*
X39852491Y-12130474D01*
X40071190Y-12248828D01*
X40306386Y-12329571D01*
X40551665Y-12370500D01*
X40800335Y-12370500D01*
X41045614Y-12329571D01*
X41280810Y-12248828D01*
X41499509Y-12130474D01*
X41695744Y-11977738D01*
X41864164Y-11794785D01*
X42000173Y-11586607D01*
X42100063Y-11358881D01*
X42161108Y-11117821D01*
X42181643Y-10870000D01*
X42181643Y-10869999D01*
X43670356Y-10869999D01*
X43690891Y-11117816D01*
X43690891Y-11117819D01*
X43690892Y-11117821D01*
X43751937Y-11358881D01*
X43796960Y-11461523D01*
X43851825Y-11586604D01*
X43851827Y-11586607D01*
X43987836Y-11794785D01*
X44156256Y-11977738D01*
X44156259Y-11977740D01*
X44352485Y-12130470D01*
X44352487Y-12130471D01*
X44352491Y-12130474D01*
X44571190Y-12248828D01*
X44806386Y-12329571D01*
X45051665Y-12370500D01*
X45300335Y-12370500D01*
X45545614Y-12329571D01*
X45780810Y-12248828D01*
X45999509Y-12130474D01*
X46195744Y-11977738D01*
X46364164Y-11794785D01*
X46500173Y-11586607D01*
X46600063Y-11358881D01*
X46661108Y-11117821D01*
X46681643Y-10870000D01*
X47552356Y-10870000D01*
X47572891Y-11117816D01*
X47572891Y-11117819D01*
X47572892Y-11117821D01*
X47633937Y-11358881D01*
X47678960Y-11461523D01*
X47733825Y-11586604D01*
X47733827Y-11586607D01*
X47869836Y-11794785D01*
X48038256Y-11977738D01*
X48038259Y-11977740D01*
X48234485Y-12130470D01*
X48234487Y-12130471D01*
X48234491Y-12130474D01*
X48453190Y-12248828D01*
X48688386Y-12329571D01*
X48933665Y-12370500D01*
X49182335Y-12370500D01*
X49427614Y-12329571D01*
X49662810Y-12248828D01*
X49881509Y-12130474D01*
X50077744Y-11977738D01*
X50246164Y-11794785D01*
X50382173Y-11586607D01*
X50482063Y-11358881D01*
X50543108Y-11117821D01*
X50563643Y-10870000D01*
X52052356Y-10870000D01*
X52072891Y-11117816D01*
X52072891Y-11117819D01*
X52072892Y-11117821D01*
X52133937Y-11358881D01*
X52178960Y-11461523D01*
X52233825Y-11586604D01*
X52233827Y-11586607D01*
X52369836Y-11794785D01*
X52538256Y-11977738D01*
X52538259Y-11977740D01*
X52734485Y-12130470D01*
X52734487Y-12130471D01*
X52734491Y-12130474D01*
X52953190Y-12248828D01*
X53188386Y-12329571D01*
X53433665Y-12370500D01*
X53682335Y-12370500D01*
X53927614Y-12329571D01*
X54162810Y-12248828D01*
X54381509Y-12130474D01*
X54577744Y-11977738D01*
X54746164Y-11794785D01*
X54882173Y-11586607D01*
X54982063Y-11358881D01*
X55043108Y-11117821D01*
X55063643Y-10870000D01*
X55043108Y-10622179D01*
X54982063Y-10381119D01*
X54882173Y-10153393D01*
X54746164Y-9945215D01*
X54577744Y-9762262D01*
X54528493Y-9723928D01*
X54381514Y-9609529D01*
X54381510Y-9609526D01*
X54381509Y-9609526D01*
X54162810Y-9491172D01*
X54162806Y-9491170D01*
X54162805Y-9491170D01*
X53927615Y-9410429D01*
X53682335Y-9369500D01*
X53433665Y-9369500D01*
X53188384Y-9410429D01*
X52953194Y-9491170D01*
X52734485Y-9609529D01*
X52538259Y-9762259D01*
X52538256Y-9762261D01*
X52538256Y-9762262D01*
X52503252Y-9800287D01*
X52369837Y-9945214D01*
X52233825Y-10153395D01*
X52133938Y-10381117D01*
X52072891Y-10622183D01*
X52052356Y-10870000D01*
X50563643Y-10870000D01*
X50543108Y-10622179D01*
X50482063Y-10381119D01*
X50382173Y-10153393D01*
X50246164Y-9945215D01*
X50077744Y-9762262D01*
X50028493Y-9723928D01*
X49881514Y-9609529D01*
X49881510Y-9609526D01*
X49881509Y-9609526D01*
X49662810Y-9491172D01*
X49662806Y-9491170D01*
X49662805Y-9491170D01*
X49427615Y-9410429D01*
X49182335Y-9369500D01*
X48933665Y-9369500D01*
X48688384Y-9410429D01*
X48453194Y-9491170D01*
X48234485Y-9609529D01*
X48038259Y-9762259D01*
X48038256Y-9762261D01*
X48038256Y-9762262D01*
X48003252Y-9800287D01*
X47869837Y-9945214D01*
X47733825Y-10153395D01*
X47633938Y-10381117D01*
X47572891Y-10622183D01*
X47552356Y-10870000D01*
X46681643Y-10870000D01*
X46661108Y-10622179D01*
X46600063Y-10381119D01*
X46500173Y-10153393D01*
X46364164Y-9945215D01*
X46195744Y-9762262D01*
X46146493Y-9723928D01*
X45999514Y-9609529D01*
X45999510Y-9609526D01*
X45999509Y-9609526D01*
X45780810Y-9491172D01*
X45780806Y-9491170D01*
X45780805Y-9491170D01*
X45545615Y-9410429D01*
X45300335Y-9369500D01*
X45051665Y-9369500D01*
X44806384Y-9410429D01*
X44571194Y-9491170D01*
X44352485Y-9609529D01*
X44156259Y-9762259D01*
X44156256Y-9762261D01*
X44156256Y-9762262D01*
X44121252Y-9800287D01*
X43987837Y-9945214D01*
X43851825Y-10153395D01*
X43751938Y-10381117D01*
X43690891Y-10622183D01*
X43670356Y-10869999D01*
X42181643Y-10869999D01*
X42161108Y-10622179D01*
X42100063Y-10381119D01*
X42000173Y-10153393D01*
X41864164Y-9945215D01*
X41695744Y-9762262D01*
X41646493Y-9723928D01*
X41499514Y-9609529D01*
X41499510Y-9609526D01*
X41499509Y-9609526D01*
X41280810Y-9491172D01*
X41280806Y-9491170D01*
X41280805Y-9491170D01*
X41045615Y-9410429D01*
X40800335Y-9369500D01*
X40551665Y-9369500D01*
X40306384Y-9410429D01*
X40071194Y-9491170D01*
X39852485Y-9609529D01*
X39656259Y-9762259D01*
X39656256Y-9762261D01*
X39656256Y-9762262D01*
X39621252Y-9800287D01*
X39487837Y-9945214D01*
X39351825Y-10153395D01*
X39251938Y-10381117D01*
X39190891Y-10622183D01*
X39170356Y-10869999D01*
X38299643Y-10869999D01*
X38279108Y-10622179D01*
X38218063Y-10381119D01*
X38118173Y-10153393D01*
X37982164Y-9945215D01*
X37813744Y-9762262D01*
X37764493Y-9723928D01*
X37617514Y-9609529D01*
X37617510Y-9609526D01*
X37617509Y-9609526D01*
X37398810Y-9491172D01*
X37398806Y-9491170D01*
X37398805Y-9491170D01*
X37163615Y-9410429D01*
X36918335Y-9369500D01*
X36669665Y-9369500D01*
X36424384Y-9410429D01*
X36189194Y-9491170D01*
X35970485Y-9609529D01*
X35774259Y-9762259D01*
X35774256Y-9762261D01*
X35774256Y-9762262D01*
X35739252Y-9800287D01*
X35605837Y-9945214D01*
X35469825Y-10153395D01*
X35369938Y-10381117D01*
X35308891Y-10622183D01*
X35288356Y-10870000D01*
X33799643Y-10870000D01*
X33779108Y-10622179D01*
X33718063Y-10381119D01*
X33618173Y-10153393D01*
X33482164Y-9945215D01*
X33313744Y-9762262D01*
X33264493Y-9723928D01*
X33117514Y-9609529D01*
X33117510Y-9609526D01*
X33117509Y-9609526D01*
X32898810Y-9491172D01*
X32898806Y-9491170D01*
X32898805Y-9491170D01*
X32663615Y-9410429D01*
X32418335Y-9369500D01*
X32169665Y-9369500D01*
X31924384Y-9410429D01*
X31689194Y-9491170D01*
X31470485Y-9609529D01*
X31274259Y-9762259D01*
X31274256Y-9762261D01*
X31274256Y-9762262D01*
X31239252Y-9800287D01*
X31105837Y-9945214D01*
X30969825Y-10153395D01*
X30869938Y-10381117D01*
X30808891Y-10622183D01*
X30788356Y-10869999D01*
X29953643Y-10869999D01*
X29933108Y-10622179D01*
X29872063Y-10381119D01*
X29772173Y-10153393D01*
X29636164Y-9945215D01*
X29467744Y-9762262D01*
X29418493Y-9723928D01*
X29271514Y-9609529D01*
X29271510Y-9609526D01*
X29271509Y-9609526D01*
X29052810Y-9491172D01*
X29052806Y-9491170D01*
X29052805Y-9491170D01*
X28817615Y-9410429D01*
X28572335Y-9369500D01*
X28323665Y-9369500D01*
X28078384Y-9410429D01*
X27843194Y-9491170D01*
X27624485Y-9609529D01*
X27428259Y-9762259D01*
X27428256Y-9762261D01*
X27428256Y-9762262D01*
X27393252Y-9800287D01*
X27259837Y-9945214D01*
X27123825Y-10153395D01*
X27023938Y-10381117D01*
X26962891Y-10622183D01*
X26942356Y-10870000D01*
X25453643Y-10870000D01*
X25433108Y-10622179D01*
X25372063Y-10381119D01*
X25272173Y-10153393D01*
X25136164Y-9945215D01*
X24967744Y-9762262D01*
X24918493Y-9723928D01*
X24771514Y-9609529D01*
X24771510Y-9609526D01*
X24771509Y-9609526D01*
X24552810Y-9491172D01*
X24552806Y-9491170D01*
X24552805Y-9491170D01*
X24317615Y-9410429D01*
X24072335Y-9369500D01*
X23823665Y-9369500D01*
X23578384Y-9410429D01*
X23343194Y-9491170D01*
X23124485Y-9609529D01*
X22928259Y-9762259D01*
X22928256Y-9762261D01*
X22928256Y-9762262D01*
X22893252Y-9800287D01*
X22759837Y-9945214D01*
X22623825Y-10153395D01*
X22523938Y-10381117D01*
X22462891Y-10622183D01*
X22442356Y-10869999D01*
X21698643Y-10869999D01*
X21678108Y-10622179D01*
X21617063Y-10381119D01*
X21517173Y-10153393D01*
X21381164Y-9945215D01*
X21212744Y-9762262D01*
X21163493Y-9723928D01*
X21016514Y-9609529D01*
X21016510Y-9609526D01*
X21016509Y-9609526D01*
X20797810Y-9491172D01*
X20797806Y-9491170D01*
X20797805Y-9491170D01*
X20562615Y-9410429D01*
X20317335Y-9369500D01*
X20068665Y-9369500D01*
X19823384Y-9410429D01*
X19588194Y-9491170D01*
X19369485Y-9609529D01*
X19173259Y-9762259D01*
X19173256Y-9762261D01*
X19173256Y-9762262D01*
X19138252Y-9800287D01*
X19004837Y-9945214D01*
X18868825Y-10153395D01*
X18768938Y-10381117D01*
X18707891Y-10622183D01*
X18687356Y-10869999D01*
X17198643Y-10869999D01*
X17178108Y-10622179D01*
X17117063Y-10381119D01*
X17017173Y-10153393D01*
X16881164Y-9945215D01*
X16712744Y-9762262D01*
X16663493Y-9723928D01*
X16516514Y-9609529D01*
X16516510Y-9609526D01*
X16516509Y-9609526D01*
X16297810Y-9491172D01*
X16297806Y-9491170D01*
X16297805Y-9491170D01*
X16062615Y-9410429D01*
X15817335Y-9369500D01*
X15568665Y-9369500D01*
X15323384Y-9410429D01*
X15088194Y-9491170D01*
X14869485Y-9609529D01*
X14673259Y-9762259D01*
X14673256Y-9762261D01*
X14673256Y-9762262D01*
X14638252Y-9800287D01*
X14504837Y-9945214D01*
X14368825Y-10153395D01*
X14268938Y-10381117D01*
X14207891Y-10622183D01*
X14187356Y-10870000D01*
X116500Y-10870000D01*
X116500Y-5588000D01*
X1332680Y-5588000D01*
X1351948Y-5992494D01*
X1352364Y-5995391D01*
X1352366Y-5995406D01*
X1409158Y-6390398D01*
X1409579Y-6393325D01*
X1505050Y-6786862D01*
X1637497Y-7169543D01*
X1638718Y-7172217D01*
X1638723Y-7172229D01*
X1804494Y-7535215D01*
X1804500Y-7535228D01*
X1805721Y-7537900D01*
X2008197Y-7888600D01*
X2009908Y-7891003D01*
X2009914Y-7891012D01*
X2241380Y-8216059D01*
X2243093Y-8218464D01*
X2508280Y-8524507D01*
X2801358Y-8803956D01*
X3119672Y-9054281D01*
X3460340Y-9273215D01*
X3820276Y-9458775D01*
X4196221Y-9609281D01*
X4584770Y-9723369D01*
X4982405Y-9800007D01*
X5385524Y-9838500D01*
X5388478Y-9838500D01*
X5787522Y-9838500D01*
X5790476Y-9838500D01*
X6193595Y-9800007D01*
X6591230Y-9723369D01*
X6979779Y-9609281D01*
X7355724Y-9458775D01*
X7715660Y-9273215D01*
X8056328Y-9054281D01*
X8374642Y-8803956D01*
X8667720Y-8524507D01*
X8932907Y-8218464D01*
X9167803Y-7888600D01*
X9370279Y-7537900D01*
X9538503Y-7169543D01*
X9670950Y-6786862D01*
X9766421Y-6393325D01*
X9824052Y-5992494D01*
X9843320Y-5588000D01*
X9824052Y-5183506D01*
X9766421Y-4782675D01*
X9670950Y-4389138D01*
X9664326Y-4370000D01*
X14187356Y-4370000D01*
X14207891Y-4617816D01*
X14207891Y-4617819D01*
X14207892Y-4617821D01*
X14268937Y-4858881D01*
X14313960Y-4961523D01*
X14368825Y-5086604D01*
X14368827Y-5086607D01*
X14504836Y-5294785D01*
X14673256Y-5477738D01*
X14673259Y-5477740D01*
X14869485Y-5630470D01*
X14869487Y-5630471D01*
X14869491Y-5630474D01*
X15088190Y-5748828D01*
X15323386Y-5829571D01*
X15568665Y-5870500D01*
X15817335Y-5870500D01*
X16062614Y-5829571D01*
X16297810Y-5748828D01*
X16516509Y-5630474D01*
X16712744Y-5477738D01*
X16881164Y-5294785D01*
X17017173Y-5086607D01*
X17117063Y-4858881D01*
X17178108Y-4617821D01*
X17198643Y-4370000D01*
X18687356Y-4370000D01*
X18707891Y-4617816D01*
X18707891Y-4617819D01*
X18707892Y-4617821D01*
X18768937Y-4858881D01*
X18813960Y-4961523D01*
X18868825Y-5086604D01*
X18868827Y-5086607D01*
X19004836Y-5294785D01*
X19173256Y-5477738D01*
X19173259Y-5477740D01*
X19369485Y-5630470D01*
X19369487Y-5630471D01*
X19369491Y-5630474D01*
X19588190Y-5748828D01*
X19823386Y-5829571D01*
X20068665Y-5870500D01*
X20317335Y-5870500D01*
X20562614Y-5829571D01*
X20797810Y-5748828D01*
X21016509Y-5630474D01*
X21212744Y-5477738D01*
X21381164Y-5294785D01*
X21517173Y-5086607D01*
X21617063Y-4858881D01*
X21678108Y-4617821D01*
X21698643Y-4370000D01*
X22442356Y-4370000D01*
X22462891Y-4617816D01*
X22462891Y-4617819D01*
X22462892Y-4617821D01*
X22523937Y-4858881D01*
X22568960Y-4961523D01*
X22623825Y-5086604D01*
X22623827Y-5086607D01*
X22759836Y-5294785D01*
X22928256Y-5477738D01*
X22928259Y-5477740D01*
X23124485Y-5630470D01*
X23124487Y-5630471D01*
X23124491Y-5630474D01*
X23343190Y-5748828D01*
X23578386Y-5829571D01*
X23823665Y-5870500D01*
X24072335Y-5870500D01*
X24317614Y-5829571D01*
X24552810Y-5748828D01*
X24771509Y-5630474D01*
X24967744Y-5477738D01*
X25136164Y-5294785D01*
X25272173Y-5086607D01*
X25372063Y-4858881D01*
X25433108Y-4617821D01*
X25453643Y-4370000D01*
X26942356Y-4370000D01*
X26962891Y-4617816D01*
X26962891Y-4617819D01*
X26962892Y-4617821D01*
X27023937Y-4858881D01*
X27068960Y-4961523D01*
X27123825Y-5086604D01*
X27123827Y-5086607D01*
X27259836Y-5294785D01*
X27428256Y-5477738D01*
X27428259Y-5477740D01*
X27624485Y-5630470D01*
X27624487Y-5630471D01*
X27624491Y-5630474D01*
X27843190Y-5748828D01*
X28078386Y-5829571D01*
X28323665Y-5870500D01*
X28572335Y-5870500D01*
X28817614Y-5829571D01*
X29052810Y-5748828D01*
X29271509Y-5630474D01*
X29467744Y-5477738D01*
X29636164Y-5294785D01*
X29772173Y-5086607D01*
X29872063Y-4858881D01*
X29933108Y-4617821D01*
X29953643Y-4370000D01*
X30788356Y-4370000D01*
X30808891Y-4617816D01*
X30808891Y-4617819D01*
X30808892Y-4617821D01*
X30869937Y-4858881D01*
X30914960Y-4961523D01*
X30969825Y-5086604D01*
X30969827Y-5086607D01*
X31105836Y-5294785D01*
X31274256Y-5477738D01*
X31274259Y-5477740D01*
X31470485Y-5630470D01*
X31470487Y-5630471D01*
X31470491Y-5630474D01*
X31689190Y-5748828D01*
X31924386Y-5829571D01*
X32169665Y-5870500D01*
X32418335Y-5870500D01*
X32663614Y-5829571D01*
X32898810Y-5748828D01*
X33117509Y-5630474D01*
X33313744Y-5477738D01*
X33482164Y-5294785D01*
X33618173Y-5086607D01*
X33718063Y-4858881D01*
X33779108Y-4617821D01*
X33799643Y-4370000D01*
X35288356Y-4370000D01*
X35308891Y-4617816D01*
X35308891Y-4617819D01*
X35308892Y-4617821D01*
X35369937Y-4858881D01*
X35414960Y-4961523D01*
X35469825Y-5086604D01*
X35469827Y-5086607D01*
X35605836Y-5294785D01*
X35774256Y-5477738D01*
X35774259Y-5477740D01*
X35970485Y-5630470D01*
X35970487Y-5630471D01*
X35970491Y-5630474D01*
X36189190Y-5748828D01*
X36424386Y-5829571D01*
X36669665Y-5870500D01*
X36918335Y-5870500D01*
X37163614Y-5829571D01*
X37398810Y-5748828D01*
X37617509Y-5630474D01*
X37813744Y-5477738D01*
X37982164Y-5294785D01*
X38118173Y-5086607D01*
X38218063Y-4858881D01*
X38279108Y-4617821D01*
X38299643Y-4370000D01*
X39170356Y-4370000D01*
X39190891Y-4617816D01*
X39190891Y-4617819D01*
X39190892Y-4617821D01*
X39251937Y-4858881D01*
X39296960Y-4961523D01*
X39351825Y-5086604D01*
X39351827Y-5086607D01*
X39487836Y-5294785D01*
X39656256Y-5477738D01*
X39656259Y-5477740D01*
X39852485Y-5630470D01*
X39852487Y-5630471D01*
X39852491Y-5630474D01*
X40071190Y-5748828D01*
X40306386Y-5829571D01*
X40551665Y-5870500D01*
X40800335Y-5870500D01*
X41045614Y-5829571D01*
X41280810Y-5748828D01*
X41499509Y-5630474D01*
X41695744Y-5477738D01*
X41864164Y-5294785D01*
X42000173Y-5086607D01*
X42100063Y-4858881D01*
X42161108Y-4617821D01*
X42181643Y-4370000D01*
X43670356Y-4370000D01*
X43690891Y-4617816D01*
X43690891Y-4617819D01*
X43690892Y-4617821D01*
X43751937Y-4858881D01*
X43796960Y-4961523D01*
X43851825Y-5086604D01*
X43851827Y-5086607D01*
X43987836Y-5294785D01*
X44156256Y-5477738D01*
X44156259Y-5477740D01*
X44352485Y-5630470D01*
X44352487Y-5630471D01*
X44352491Y-5630474D01*
X44571190Y-5748828D01*
X44806386Y-5829571D01*
X45051665Y-5870500D01*
X45300335Y-5870500D01*
X45545614Y-5829571D01*
X45780810Y-5748828D01*
X45999509Y-5630474D01*
X46195744Y-5477738D01*
X46364164Y-5294785D01*
X46500173Y-5086607D01*
X46600063Y-4858881D01*
X46661108Y-4617821D01*
X46681643Y-4370000D01*
X47552356Y-4370000D01*
X47572891Y-4617816D01*
X47572891Y-4617819D01*
X47572892Y-4617821D01*
X47633937Y-4858881D01*
X47678960Y-4961523D01*
X47733825Y-5086604D01*
X47733827Y-5086607D01*
X47869836Y-5294785D01*
X48038256Y-5477738D01*
X48038259Y-5477740D01*
X48234485Y-5630470D01*
X48234487Y-5630471D01*
X48234491Y-5630474D01*
X48453190Y-5748828D01*
X48688386Y-5829571D01*
X48933665Y-5870500D01*
X49182335Y-5870500D01*
X49427614Y-5829571D01*
X49662810Y-5748828D01*
X49881509Y-5630474D01*
X50077744Y-5477738D01*
X50246164Y-5294785D01*
X50382173Y-5086607D01*
X50482063Y-4858881D01*
X50543108Y-4617821D01*
X50563643Y-4370000D01*
X52052356Y-4370000D01*
X52072891Y-4617816D01*
X52072891Y-4617819D01*
X52072892Y-4617821D01*
X52133937Y-4858881D01*
X52178960Y-4961523D01*
X52233825Y-5086604D01*
X52233827Y-5086607D01*
X52369836Y-5294785D01*
X52538256Y-5477738D01*
X52538259Y-5477740D01*
X52734485Y-5630470D01*
X52734487Y-5630471D01*
X52734491Y-5630474D01*
X52953190Y-5748828D01*
X53188386Y-5829571D01*
X53433665Y-5870500D01*
X53682335Y-5870500D01*
X53927614Y-5829571D01*
X54162810Y-5748828D01*
X54381509Y-5630474D01*
X54436080Y-5588000D01*
X60768680Y-5588000D01*
X60787948Y-5992494D01*
X60788364Y-5995391D01*
X60788366Y-5995406D01*
X60845158Y-6390398D01*
X60845579Y-6393325D01*
X60941050Y-6786862D01*
X61073497Y-7169543D01*
X61074718Y-7172217D01*
X61074723Y-7172229D01*
X61240494Y-7535215D01*
X61240500Y-7535228D01*
X61241721Y-7537900D01*
X61444197Y-7888600D01*
X61445908Y-7891003D01*
X61445914Y-7891012D01*
X61677380Y-8216059D01*
X61679093Y-8218464D01*
X61944280Y-8524507D01*
X62237358Y-8803956D01*
X62555672Y-9054281D01*
X62896340Y-9273215D01*
X63256276Y-9458775D01*
X63632221Y-9609281D01*
X64020770Y-9723369D01*
X64418405Y-9800007D01*
X64821524Y-9838500D01*
X64824478Y-9838500D01*
X65223522Y-9838500D01*
X65226476Y-9838500D01*
X65629595Y-9800007D01*
X66027230Y-9723369D01*
X66415779Y-9609281D01*
X66791724Y-9458775D01*
X67151660Y-9273215D01*
X67492328Y-9054281D01*
X67810642Y-8803956D01*
X68103720Y-8524507D01*
X68368907Y-8218464D01*
X68603803Y-7888600D01*
X68806279Y-7537900D01*
X68974503Y-7169543D01*
X69106950Y-6786862D01*
X69202421Y-6393325D01*
X69260052Y-5992494D01*
X69279320Y-5588000D01*
X69260052Y-5183506D01*
X69202421Y-4782675D01*
X69106950Y-4389138D01*
X68974503Y-4006457D01*
X68806279Y-3638100D01*
X68603803Y-3287400D01*
X68585902Y-3262262D01*
X68370619Y-2959940D01*
X68370617Y-2959938D01*
X68368907Y-2957536D01*
X68103720Y-2651493D01*
X67810642Y-2372044D01*
X67492328Y-2121719D01*
X67489855Y-2120129D01*
X67489847Y-2120124D01*
X67154141Y-1904379D01*
X67154134Y-1904375D01*
X67151660Y-1902785D01*
X67149052Y-1901440D01*
X67149046Y-1901437D01*
X66794348Y-1718578D01*
X66791724Y-1717225D01*
X66415779Y-1566719D01*
X66339345Y-1544276D01*
X66030066Y-1453463D01*
X66030051Y-1453459D01*
X66027230Y-1452631D01*
X66024332Y-1452072D01*
X66024326Y-1452071D01*
X65632496Y-1376552D01*
X65632493Y-1376551D01*
X65629595Y-1375993D01*
X65626675Y-1375714D01*
X65626660Y-1375712D01*
X65229411Y-1337780D01*
X65229405Y-1337779D01*
X65226476Y-1337500D01*
X64821524Y-1337500D01*
X64818595Y-1337779D01*
X64818588Y-1337780D01*
X64421339Y-1375712D01*
X64421321Y-1375714D01*
X64418405Y-1375993D01*
X64415509Y-1376551D01*
X64415503Y-1376552D01*
X64023673Y-1452071D01*
X64023663Y-1452073D01*
X64020770Y-1452631D01*
X64017952Y-1453458D01*
X64017933Y-1453463D01*
X63635047Y-1565889D01*
X63635042Y-1565890D01*
X63632221Y-1566719D01*
X63629496Y-1567809D01*
X63629490Y-1567812D01*
X63259018Y-1716127D01*
X63259013Y-1716129D01*
X63256276Y-1717225D01*
X63253655Y-1718575D01*
X63253651Y-1718578D01*
X62898953Y-1901437D01*
X62898938Y-1901445D01*
X62896340Y-1902785D01*
X62893874Y-1904369D01*
X62893858Y-1904379D01*
X62558152Y-2120124D01*
X62558134Y-2120136D01*
X62555672Y-2121719D01*
X62553374Y-2123526D01*
X62553363Y-2123534D01*
X62239670Y-2370225D01*
X62239659Y-2370233D01*
X62237358Y-2372044D01*
X62235235Y-2374067D01*
X62235226Y-2374076D01*
X61946404Y-2649467D01*
X61946395Y-2649475D01*
X61944280Y-2651493D01*
X61942359Y-2653709D01*
X61942358Y-2653711D01*
X61681022Y-2955309D01*
X61681015Y-2955317D01*
X61679093Y-2957536D01*
X61677391Y-2959925D01*
X61677380Y-2959940D01*
X61445914Y-3284987D01*
X61445902Y-3285005D01*
X61444197Y-3287400D01*
X61442725Y-3289949D01*
X61442717Y-3289962D01*
X61243197Y-3635543D01*
X61241721Y-3638100D01*
X61240504Y-3640762D01*
X61240494Y-3640784D01*
X61074723Y-4003770D01*
X61074715Y-4003789D01*
X61073497Y-4006457D01*
X61072535Y-4009236D01*
X61072530Y-4009249D01*
X60942018Y-4386339D01*
X60942013Y-4386353D01*
X60941050Y-4389138D01*
X60940354Y-4392004D01*
X60940353Y-4392010D01*
X60846275Y-4779803D01*
X60846272Y-4779817D01*
X60845579Y-4782675D01*
X60845159Y-4785594D01*
X60845158Y-4785601D01*
X60788366Y-5180593D01*
X60788364Y-5180610D01*
X60787948Y-5183506D01*
X60768680Y-5588000D01*
X54436080Y-5588000D01*
X54577744Y-5477738D01*
X54746164Y-5294785D01*
X54882173Y-5086607D01*
X54982063Y-4858881D01*
X55043108Y-4617821D01*
X55063643Y-4370000D01*
X55043108Y-4122179D01*
X54982063Y-3881119D01*
X54882173Y-3653393D01*
X54746164Y-3445215D01*
X54577744Y-3262262D01*
X54555612Y-3245036D01*
X54381514Y-3109529D01*
X54381510Y-3109526D01*
X54381509Y-3109526D01*
X54162810Y-2991172D01*
X54162806Y-2991170D01*
X54162805Y-2991170D01*
X53927615Y-2910429D01*
X53682335Y-2869500D01*
X53433665Y-2869500D01*
X53188384Y-2910429D01*
X52953194Y-2991170D01*
X52953190Y-2991171D01*
X52953190Y-2991172D01*
X52865710Y-3038513D01*
X52734485Y-3109529D01*
X52538259Y-3262259D01*
X52538256Y-3262261D01*
X52538256Y-3262262D01*
X52369837Y-3445214D01*
X52233825Y-3653395D01*
X52143780Y-3858678D01*
X52133937Y-3881119D01*
X52102197Y-4006457D01*
X52072891Y-4122183D01*
X52052356Y-4370000D01*
X50563643Y-4370000D01*
X50543108Y-4122179D01*
X50482063Y-3881119D01*
X50382173Y-3653393D01*
X50246164Y-3445215D01*
X50077744Y-3262262D01*
X50055612Y-3245036D01*
X49881514Y-3109529D01*
X49881510Y-3109526D01*
X49881509Y-3109526D01*
X49662810Y-2991172D01*
X49642906Y-2984339D01*
X49597035Y-2968591D01*
X49540020Y-2928205D01*
X49513890Y-2863405D01*
X49526942Y-2794765D01*
X49564411Y-2750993D01*
X49627871Y-2704888D01*
X49754533Y-2564216D01*
X49849179Y-2400284D01*
X49907674Y-2220256D01*
X49927460Y-2032000D01*
X49907674Y-1843744D01*
X49866565Y-1717225D01*
X49849179Y-1663715D01*
X49754533Y-1499783D01*
X49627870Y-1359110D01*
X49474730Y-1247848D01*
X49301802Y-1170855D01*
X49116648Y-1131500D01*
X49116646Y-1131500D01*
X48927354Y-1131500D01*
X48927352Y-1131500D01*
X48742197Y-1170855D01*
X48569269Y-1247848D01*
X48416129Y-1359110D01*
X48289466Y-1499783D01*
X48194820Y-1663715D01*
X48136326Y-1843742D01*
X48116540Y-2031999D01*
X48136326Y-2220257D01*
X48194820Y-2400284D01*
X48289466Y-2564216D01*
X48416129Y-2704889D01*
X48502689Y-2767778D01*
X48545355Y-2823108D01*
X48551334Y-2892721D01*
X48518728Y-2954516D01*
X48470070Y-2985376D01*
X48453195Y-2991169D01*
X48234485Y-3109529D01*
X48038259Y-3262259D01*
X48038256Y-3262261D01*
X48038256Y-3262262D01*
X47869837Y-3445214D01*
X47733825Y-3653395D01*
X47643780Y-3858678D01*
X47633937Y-3881119D01*
X47602197Y-4006457D01*
X47572891Y-4122183D01*
X47552356Y-4370000D01*
X46681643Y-4370000D01*
X46661108Y-4122179D01*
X46600063Y-3881119D01*
X46500173Y-3653393D01*
X46364164Y-3445215D01*
X46195744Y-3262262D01*
X46173612Y-3245036D01*
X45999514Y-3109529D01*
X45999510Y-3109526D01*
X45999509Y-3109526D01*
X45780810Y-2991172D01*
X45780806Y-2991170D01*
X45780805Y-2991170D01*
X45545615Y-2910429D01*
X45300335Y-2869500D01*
X45051665Y-2869500D01*
X44806384Y-2910429D01*
X44571194Y-2991170D01*
X44571190Y-2991171D01*
X44571190Y-2991172D01*
X44483710Y-3038513D01*
X44352485Y-3109529D01*
X44156259Y-3262259D01*
X44156256Y-3262261D01*
X44156256Y-3262262D01*
X43987837Y-3445214D01*
X43851825Y-3653395D01*
X43761780Y-3858678D01*
X43751937Y-3881119D01*
X43720197Y-4006457D01*
X43690891Y-4122183D01*
X43670356Y-4370000D01*
X42181643Y-4370000D01*
X42161108Y-4122179D01*
X42100063Y-3881119D01*
X42000173Y-3653393D01*
X41864164Y-3445215D01*
X41695744Y-3262262D01*
X41673612Y-3245036D01*
X41499514Y-3109529D01*
X41499510Y-3109526D01*
X41499509Y-3109526D01*
X41280847Y-2991192D01*
X41231259Y-2941974D01*
X41216151Y-2873758D01*
X41240321Y-2808202D01*
X41266982Y-2781821D01*
X41372870Y-2704889D01*
X41499533Y-2564216D01*
X41594179Y-2400284D01*
X41652674Y-2220256D01*
X41672460Y-2032000D01*
X41652674Y-1843744D01*
X41611565Y-1717225D01*
X41594179Y-1663715D01*
X41499533Y-1499783D01*
X41372870Y-1359110D01*
X41219730Y-1247848D01*
X41046802Y-1170855D01*
X40861648Y-1131500D01*
X40861646Y-1131500D01*
X40672354Y-1131500D01*
X40672352Y-1131500D01*
X40487197Y-1170855D01*
X40314269Y-1247848D01*
X40161129Y-1359110D01*
X40034466Y-1499783D01*
X39939820Y-1663715D01*
X39881326Y-1843742D01*
X39861540Y-2031999D01*
X39881326Y-2220257D01*
X39939820Y-2400284D01*
X40034466Y-2564216D01*
X40161129Y-2704888D01*
X40206936Y-2738169D01*
X40249602Y-2793498D01*
X40255581Y-2863112D01*
X40222976Y-2924907D01*
X40174315Y-2955768D01*
X40071192Y-2991171D01*
X39852485Y-3109529D01*
X39656259Y-3262259D01*
X39656256Y-3262261D01*
X39656256Y-3262262D01*
X39487837Y-3445214D01*
X39351825Y-3653395D01*
X39261780Y-3858678D01*
X39251937Y-3881119D01*
X39220197Y-4006457D01*
X39190891Y-4122183D01*
X39170356Y-4370000D01*
X38299643Y-4370000D01*
X38279108Y-4122179D01*
X38218063Y-3881119D01*
X38118173Y-3653393D01*
X37982164Y-3445215D01*
X37813744Y-3262262D01*
X37791612Y-3245036D01*
X37617514Y-3109529D01*
X37617510Y-3109526D01*
X37617509Y-3109526D01*
X37398810Y-2991172D01*
X37398806Y-2991170D01*
X37398805Y-2991170D01*
X37163615Y-2910429D01*
X36918335Y-2869500D01*
X36669665Y-2869500D01*
X36424384Y-2910429D01*
X36189194Y-2991170D01*
X36189190Y-2991171D01*
X36189190Y-2991172D01*
X36101710Y-3038513D01*
X35970485Y-3109529D01*
X35774259Y-3262259D01*
X35774256Y-3262261D01*
X35774256Y-3262262D01*
X35605837Y-3445214D01*
X35469825Y-3653395D01*
X35379780Y-3858678D01*
X35369937Y-3881119D01*
X35338197Y-4006457D01*
X35308891Y-4122183D01*
X35288356Y-4370000D01*
X33799643Y-4370000D01*
X33779108Y-4122179D01*
X33718063Y-3881119D01*
X33618173Y-3653393D01*
X33482164Y-3445215D01*
X33313744Y-3262262D01*
X33291612Y-3245036D01*
X33117514Y-3109529D01*
X33117510Y-3109526D01*
X33117509Y-3109526D01*
X32898810Y-2991172D01*
X32898807Y-2991171D01*
X32889773Y-2986282D01*
X32890824Y-2984339D01*
X32845015Y-2951889D01*
X32818887Y-2887089D01*
X32831940Y-2818449D01*
X32869407Y-2774681D01*
X32965471Y-2704888D01*
X33092133Y-2564216D01*
X33186779Y-2400284D01*
X33245274Y-2220256D01*
X33265060Y-2032000D01*
X33245274Y-1843744D01*
X33204165Y-1717225D01*
X33186779Y-1663715D01*
X33092133Y-1499783D01*
X32965470Y-1359110D01*
X32812330Y-1247848D01*
X32639402Y-1170855D01*
X32454248Y-1131500D01*
X32454246Y-1131500D01*
X32264954Y-1131500D01*
X32264952Y-1131500D01*
X32079797Y-1170855D01*
X31906869Y-1247848D01*
X31753729Y-1359110D01*
X31627066Y-1499783D01*
X31532420Y-1663715D01*
X31473926Y-1843742D01*
X31454140Y-2032000D01*
X31473926Y-2220257D01*
X31532420Y-2400284D01*
X31627066Y-2564216D01*
X31753729Y-2704888D01*
X31807687Y-2744091D01*
X31850353Y-2799420D01*
X31856332Y-2869034D01*
X31823727Y-2930829D01*
X31775066Y-2961690D01*
X31689192Y-2991171D01*
X31470485Y-3109529D01*
X31274259Y-3262259D01*
X31274256Y-3262261D01*
X31274256Y-3262262D01*
X31105837Y-3445214D01*
X30969825Y-3653395D01*
X30879780Y-3858678D01*
X30869937Y-3881119D01*
X30838197Y-4006457D01*
X30808891Y-4122183D01*
X30788356Y-4370000D01*
X29953643Y-4370000D01*
X29933108Y-4122179D01*
X29872063Y-3881119D01*
X29772173Y-3653393D01*
X29636164Y-3445215D01*
X29467744Y-3262262D01*
X29445612Y-3245036D01*
X29271514Y-3109529D01*
X29271510Y-3109526D01*
X29271509Y-3109526D01*
X29052810Y-2991172D01*
X29052806Y-2991170D01*
X29052805Y-2991170D01*
X28817615Y-2910429D01*
X28572335Y-2869500D01*
X28323665Y-2869500D01*
X28078384Y-2910429D01*
X27843194Y-2991170D01*
X27843190Y-2991171D01*
X27843190Y-2991172D01*
X27755710Y-3038513D01*
X27624485Y-3109529D01*
X27428259Y-3262259D01*
X27428256Y-3262261D01*
X27428256Y-3262262D01*
X27259837Y-3445214D01*
X27123825Y-3653395D01*
X27033780Y-3858678D01*
X27023937Y-3881119D01*
X26992197Y-4006457D01*
X26962891Y-4122183D01*
X26942356Y-4370000D01*
X25453643Y-4370000D01*
X25433108Y-4122179D01*
X25372063Y-3881119D01*
X25272173Y-3653393D01*
X25136164Y-3445215D01*
X24967744Y-3262262D01*
X24945612Y-3245036D01*
X24771514Y-3109529D01*
X24771510Y-3109526D01*
X24771509Y-3109526D01*
X24552810Y-2991172D01*
X24548834Y-2989807D01*
X24544131Y-2986476D01*
X24543773Y-2986282D01*
X24543796Y-2986238D01*
X24491819Y-2949420D01*
X24465689Y-2884621D01*
X24478741Y-2815981D01*
X24516213Y-2772208D01*
X24563063Y-2738169D01*
X24608871Y-2704888D01*
X24735533Y-2564216D01*
X24830179Y-2400284D01*
X24888674Y-2220256D01*
X24908460Y-2032000D01*
X24888674Y-1843744D01*
X24847565Y-1717225D01*
X24830179Y-1663715D01*
X24735533Y-1499783D01*
X24608870Y-1359110D01*
X24455730Y-1247848D01*
X24282802Y-1170855D01*
X24097648Y-1131500D01*
X24097646Y-1131500D01*
X23908354Y-1131500D01*
X23908352Y-1131500D01*
X23723197Y-1170855D01*
X23550269Y-1247848D01*
X23397129Y-1359110D01*
X23270466Y-1499783D01*
X23175820Y-1663715D01*
X23117326Y-1843742D01*
X23097540Y-2032000D01*
X23117326Y-2220257D01*
X23175820Y-2400284D01*
X23270466Y-2564216D01*
X23397129Y-2704888D01*
X23454488Y-2746562D01*
X23497154Y-2801891D01*
X23503133Y-2871505D01*
X23470528Y-2933300D01*
X23421867Y-2964161D01*
X23343192Y-2991170D01*
X23124485Y-3109529D01*
X22928259Y-3262259D01*
X22928256Y-3262261D01*
X22928256Y-3262262D01*
X22759837Y-3445214D01*
X22623825Y-3653395D01*
X22533780Y-3858678D01*
X22523937Y-3881119D01*
X22492197Y-4006457D01*
X22462891Y-4122183D01*
X22442356Y-4370000D01*
X21698643Y-4370000D01*
X21678108Y-4122179D01*
X21617063Y-3881119D01*
X21517173Y-3653393D01*
X21381164Y-3445215D01*
X21212744Y-3262262D01*
X21190612Y-3245036D01*
X21016514Y-3109529D01*
X21016510Y-3109526D01*
X21016509Y-3109526D01*
X20797810Y-2991172D01*
X20797806Y-2991170D01*
X20797805Y-2991170D01*
X20562615Y-2910429D01*
X20317335Y-2869500D01*
X20068665Y-2869500D01*
X19823384Y-2910429D01*
X19588194Y-2991170D01*
X19588190Y-2991171D01*
X19588190Y-2991172D01*
X19500710Y-3038513D01*
X19369485Y-3109529D01*
X19173259Y-3262259D01*
X19173256Y-3262261D01*
X19173256Y-3262262D01*
X19004837Y-3445214D01*
X18868825Y-3653395D01*
X18778780Y-3858678D01*
X18768937Y-3881119D01*
X18737197Y-4006457D01*
X18707891Y-4122183D01*
X18687356Y-4370000D01*
X17198643Y-4370000D01*
X17178108Y-4122179D01*
X17117063Y-3881119D01*
X17017173Y-3653393D01*
X16881164Y-3445215D01*
X16712744Y-3262262D01*
X16690612Y-3245036D01*
X16516514Y-3109529D01*
X16516510Y-3109526D01*
X16516509Y-3109526D01*
X16297810Y-2991172D01*
X16293834Y-2989807D01*
X16289131Y-2986476D01*
X16288773Y-2986282D01*
X16288796Y-2986238D01*
X16236819Y-2949420D01*
X16210689Y-2884621D01*
X16223741Y-2815981D01*
X16261213Y-2772208D01*
X16308063Y-2738169D01*
X16353871Y-2704888D01*
X16480533Y-2564216D01*
X16575179Y-2400284D01*
X16633674Y-2220256D01*
X16653460Y-2032000D01*
X16633674Y-1843744D01*
X16592565Y-1717225D01*
X16575179Y-1663715D01*
X16480533Y-1499783D01*
X16353870Y-1359110D01*
X16200730Y-1247848D01*
X16027802Y-1170855D01*
X15842648Y-1131500D01*
X15842646Y-1131500D01*
X15653354Y-1131500D01*
X15653352Y-1131500D01*
X15468197Y-1170855D01*
X15295269Y-1247848D01*
X15142129Y-1359110D01*
X15015466Y-1499783D01*
X14920820Y-1663715D01*
X14862326Y-1843742D01*
X14842540Y-2031999D01*
X14862326Y-2220257D01*
X14920820Y-2400284D01*
X15015466Y-2564216D01*
X15142129Y-2704888D01*
X15199488Y-2746562D01*
X15242154Y-2801891D01*
X15248133Y-2871505D01*
X15215528Y-2933300D01*
X15166867Y-2964161D01*
X15088192Y-2991170D01*
X14869485Y-3109529D01*
X14673259Y-3262259D01*
X14673256Y-3262261D01*
X14673256Y-3262262D01*
X14504837Y-3445214D01*
X14368825Y-3653395D01*
X14278780Y-3858678D01*
X14268937Y-3881119D01*
X14237197Y-4006457D01*
X14207891Y-4122183D01*
X14187356Y-4370000D01*
X9664326Y-4370000D01*
X9538503Y-4006457D01*
X9370279Y-3638100D01*
X9167803Y-3287400D01*
X9149902Y-3262262D01*
X8934619Y-2959940D01*
X8934617Y-2959938D01*
X8932907Y-2957536D01*
X8667720Y-2651493D01*
X8374642Y-2372044D01*
X8056328Y-2121719D01*
X8053855Y-2120129D01*
X8053847Y-2120124D01*
X7718141Y-1904379D01*
X7718134Y-1904375D01*
X7715660Y-1902785D01*
X7713052Y-1901440D01*
X7713046Y-1901437D01*
X7358348Y-1718578D01*
X7355724Y-1717225D01*
X6979779Y-1566719D01*
X6903345Y-1544276D01*
X6594066Y-1453463D01*
X6594051Y-1453459D01*
X6591230Y-1452631D01*
X6588332Y-1452072D01*
X6588326Y-1452071D01*
X6196496Y-1376552D01*
X6196493Y-1376551D01*
X6193595Y-1375993D01*
X6190675Y-1375714D01*
X6190660Y-1375712D01*
X5793411Y-1337780D01*
X5793405Y-1337779D01*
X5790476Y-1337500D01*
X5385524Y-1337500D01*
X5382595Y-1337779D01*
X5382588Y-1337780D01*
X4985339Y-1375712D01*
X4985321Y-1375714D01*
X4982405Y-1375993D01*
X4979509Y-1376551D01*
X4979503Y-1376552D01*
X4587673Y-1452071D01*
X4587663Y-1452073D01*
X4584770Y-1452631D01*
X4581952Y-1453458D01*
X4581933Y-1453463D01*
X4199047Y-1565889D01*
X4199042Y-1565890D01*
X4196221Y-1566719D01*
X4193496Y-1567809D01*
X4193490Y-1567812D01*
X3823018Y-1716127D01*
X3823013Y-1716129D01*
X3820276Y-1717225D01*
X3817655Y-1718575D01*
X3817651Y-1718578D01*
X3462953Y-1901437D01*
X3462938Y-1901445D01*
X3460340Y-1902785D01*
X3457874Y-1904369D01*
X3457858Y-1904379D01*
X3122152Y-2120124D01*
X3122134Y-2120136D01*
X3119672Y-2121719D01*
X3117374Y-2123526D01*
X3117363Y-2123534D01*
X2803670Y-2370225D01*
X2803659Y-2370233D01*
X2801358Y-2372044D01*
X2799235Y-2374067D01*
X2799226Y-2374076D01*
X2510404Y-2649467D01*
X2510395Y-2649475D01*
X2508280Y-2651493D01*
X2506359Y-2653709D01*
X2506358Y-2653711D01*
X2245022Y-2955309D01*
X2245015Y-2955317D01*
X2243093Y-2957536D01*
X2241391Y-2959925D01*
X2241380Y-2959940D01*
X2009914Y-3284987D01*
X2009902Y-3285005D01*
X2008197Y-3287400D01*
X2006725Y-3289949D01*
X2006717Y-3289962D01*
X1807197Y-3635543D01*
X1805721Y-3638100D01*
X1804504Y-3640762D01*
X1804494Y-3640784D01*
X1638723Y-4003770D01*
X1638715Y-4003789D01*
X1637497Y-4006457D01*
X1636535Y-4009236D01*
X1636530Y-4009249D01*
X1506018Y-4386339D01*
X1506013Y-4386353D01*
X1505050Y-4389138D01*
X1504354Y-4392004D01*
X1504353Y-4392010D01*
X1410275Y-4779803D01*
X1410272Y-4779817D01*
X1409579Y-4782675D01*
X1409159Y-4785594D01*
X1409158Y-4785601D01*
X1352366Y-5180593D01*
X1352364Y-5180610D01*
X1351948Y-5183506D01*
X1332680Y-5588000D01*
X116500Y-5588000D01*
X116500Y-2092065D01*
X116765Y-2083955D01*
X121982Y-2004359D01*
X121983Y-2004350D01*
X134709Y-1826407D01*
X136770Y-1811101D01*
X159163Y-1698523D01*
X189795Y-1557717D01*
X193515Y-1544318D01*
X232243Y-1430230D01*
X233404Y-1426967D01*
X281068Y-1299177D01*
X286017Y-1287713D01*
X340481Y-1177272D01*
X342777Y-1172851D01*
X406855Y-1055501D01*
X412562Y-1046075D01*
X481639Y-942694D01*
X485425Y-937344D01*
X564850Y-831246D01*
X570823Y-823878D01*
X653161Y-729989D01*
X658648Y-724131D01*
X752131Y-630648D01*
X757989Y-625161D01*
X851878Y-542823D01*
X859246Y-536850D01*
X965344Y-457425D01*
X970694Y-453639D01*
X1074075Y-384562D01*
X1083501Y-378855D01*
X1200851Y-314777D01*
X1205272Y-312481D01*
X1315713Y-258017D01*
X1327177Y-253068D01*
X1454967Y-205404D01*
X1458230Y-204243D01*
X1572305Y-165519D01*
X1585754Y-161787D01*
X1726546Y-131159D01*
X1839125Y-108766D01*
X1854402Y-106709D01*
X2032208Y-93991D01*
X2108267Y-89006D01*
X2111958Y-88765D01*
X2120063Y-88500D01*
X69111935Y-88500D01*
X69120042Y-88764D01*
G37*
%TD.AperFunction*%
%TD*%
M02*
