%TF.GenerationSoftware,KiCad,Pcbnew,7.0.5-0*%
%TF.CreationDate,2023-06-02T13:54:40-04:00*%
%TF.ProjectId,7-segment-display-controller,372d7365-676d-4656-9e74-2d646973706c,B*%
%TF.SameCoordinates,Original*%
%TF.FileFunction,Copper,L3,Inr*%
%TF.FilePolarity,Positive*%
%FSLAX46Y46*%
G04 Gerber Fmt 4.6, Leading zero omitted, Abs format (unit mm)*
G04 Created by KiCad (PCBNEW 7.0.5-0) date 2023-06-02 13:54:40*
%MOMM*%
%LPD*%
G01*
G04 APERTURE LIST*
G04 Aperture macros list*
%AMRoundRect*
0 Rectangle with rounded corners*
0 $1 Rounding radius*
0 $2 $3 $4 $5 $6 $7 $8 $9 X,Y pos of 4 corners*
0 Add a 4 corners polygon primitive as box body*
4,1,4,$2,$3,$4,$5,$6,$7,$8,$9,$2,$3,0*
0 Add four circle primitives for the rounded corners*
1,1,$1+$1,$2,$3*
1,1,$1+$1,$4,$5*
1,1,$1+$1,$6,$7*
1,1,$1+$1,$8,$9*
0 Add four rect primitives between the rounded corners*
20,1,$1+$1,$2,$3,$4,$5,0*
20,1,$1+$1,$4,$5,$6,$7,0*
20,1,$1+$1,$6,$7,$8,$9,0*
20,1,$1+$1,$8,$9,$2,$3,0*%
G04 Aperture macros list end*
%TA.AperFunction,ComponentPad*%
%ADD10C,0.800000*%
%TD*%
%TA.AperFunction,ComponentPad*%
%ADD11C,6.400000*%
%TD*%
%TA.AperFunction,ComponentPad*%
%ADD12R,1.700000X1.700000*%
%TD*%
%TA.AperFunction,ComponentPad*%
%ADD13O,1.700000X1.700000*%
%TD*%
%TA.AperFunction,ComponentPad*%
%ADD14O,1.200000X1.900000*%
%TD*%
%TA.AperFunction,ComponentPad*%
%ADD15C,1.450000*%
%TD*%
%TA.AperFunction,ComponentPad*%
%ADD16RoundRect,0.250000X0.350000X0.625000X-0.350000X0.625000X-0.350000X-0.625000X0.350000X-0.625000X0*%
%TD*%
%TA.AperFunction,ComponentPad*%
%ADD17O,1.200000X1.750000*%
%TD*%
%TA.AperFunction,ComponentPad*%
%ADD18RoundRect,0.250000X-0.725000X0.600000X-0.725000X-0.600000X0.725000X-0.600000X0.725000X0.600000X0*%
%TD*%
%TA.AperFunction,ComponentPad*%
%ADD19O,1.950000X1.700000*%
%TD*%
%TA.AperFunction,ComponentPad*%
%ADD20C,1.500000*%
%TD*%
%TA.AperFunction,ComponentPad*%
%ADD21RoundRect,0.250000X0.625000X-0.350000X0.625000X0.350000X-0.625000X0.350000X-0.625000X-0.350000X0*%
%TD*%
%TA.AperFunction,ComponentPad*%
%ADD22O,1.750000X1.200000*%
%TD*%
%TA.AperFunction,ComponentPad*%
%ADD23RoundRect,0.250000X-0.600000X-0.750000X0.600000X-0.750000X0.600000X0.750000X-0.600000X0.750000X0*%
%TD*%
%TA.AperFunction,ComponentPad*%
%ADD24O,1.700000X2.000000*%
%TD*%
%TA.AperFunction,ComponentPad*%
%ADD25RoundRect,0.250000X-0.625000X0.350000X-0.625000X-0.350000X0.625000X-0.350000X0.625000X0.350000X0*%
%TD*%
%TA.AperFunction,ViaPad*%
%ADD26C,0.800000*%
%TD*%
G04 APERTURE END LIST*
D10*
%TO.N,GND*%
%TO.C,H104*%
X5207000Y-46368000D03*
X6904056Y-50465056D03*
X6904056Y-47070944D03*
X7607000Y-48768000D03*
D11*
X5207000Y-48768000D03*
D10*
X5207000Y-51168000D03*
X3509944Y-47070944D03*
X3509944Y-50465056D03*
X2807000Y-48768000D03*
%TD*%
%TO.N,GND*%
%TO.C,H103*%
X5207000Y-2680000D03*
X6904056Y-6777056D03*
X6904056Y-3382944D03*
X7607000Y-5080000D03*
D11*
X5207000Y-5080000D03*
D10*
X5207000Y-7480000D03*
X3509944Y-3382944D03*
X3509944Y-6777056D03*
X2807000Y-5080000D03*
%TD*%
%TO.N,GND*%
%TO.C,H102*%
X65913000Y-46368000D03*
X67610056Y-50465056D03*
X67610056Y-47070944D03*
X68313000Y-48768000D03*
D11*
X65913000Y-48768000D03*
D10*
X65913000Y-51168000D03*
X64215944Y-47070944D03*
X64215944Y-50465056D03*
X63513000Y-48768000D03*
%TD*%
%TO.N,GND*%
%TO.C,H101*%
X65913000Y-2680000D03*
X67610056Y-6777056D03*
X67610056Y-3382944D03*
X68313000Y-5080000D03*
D11*
X65913000Y-5080000D03*
D10*
X65913000Y-7480000D03*
X64215944Y-3382944D03*
X64215944Y-6777056D03*
X63513000Y-5080000D03*
%TD*%
D12*
%TO.N,GND*%
%TO.C,OLED101*%
X13388000Y-11079000D03*
D13*
%TO.N,+3V3*%
X13388000Y-8539000D03*
%TO.N,/SCL*%
X13388000Y-5999000D03*
%TO.N,/SDA*%
X13388000Y-3459000D03*
%TD*%
D14*
%TO.N,GND*%
%TO.C,J102*%
X19690200Y-52494700D03*
D15*
X20690200Y-49794700D03*
X25690200Y-49794700D03*
D14*
X26690200Y-52494700D03*
%TD*%
D16*
%TO.N,+3V3*%
%TO.C,J106*%
X57658000Y-6731000D03*
D17*
%TO.N,/IR_RECV*%
X55658000Y-6731000D03*
%TO.N,GND*%
X53658000Y-6731000D03*
%TD*%
D18*
%TO.N,GND*%
%TO.C,J104*%
X6731000Y-24297000D03*
D19*
%TO.N,Net-(J104-Pin_2)*%
X6731000Y-26797000D03*
%TO.N,+5V*%
X6731000Y-29297000D03*
%TD*%
D20*
%TO.N,*%
%TO.C,BT101*%
X55790000Y-36322000D03*
X63290000Y-36322000D03*
%TD*%
D21*
%TO.N,VBUS*%
%TO.C,J103*%
X64516000Y-26035000D03*
D22*
%TO.N,/UART_TX*%
X64516000Y-24035000D03*
%TO.N,/UART_RX*%
X64516000Y-22035000D03*
%TO.N,GND*%
X64516000Y-20035000D03*
%TD*%
D23*
%TO.N,GND*%
%TO.C,J107*%
X50947000Y-47481000D03*
D24*
%TO.N,VBUS*%
X53447000Y-47481000D03*
%TD*%
D25*
%TO.N,+3V3*%
%TO.C,J105*%
X6207000Y-12605000D03*
D22*
%TO.N,/SCL*%
X6207000Y-14605000D03*
%TO.N,/SDA*%
X6207000Y-16605000D03*
%TO.N,GND*%
X6207000Y-18605000D03*
%TD*%
D26*
%TO.N,+3V3*%
X45339000Y-24511000D03*
%TO.N,GND*%
X43815000Y-38989000D03*
X44704000Y-36322000D03*
X42926000Y-37592000D03*
X48197000Y-32258000D03*
X18669000Y-21717000D03*
X30149800Y-34508000D03*
X58801000Y-24511000D03*
X34874200Y-31496000D03*
X24511000Y-48499900D03*
X35737800Y-39560800D03*
X29718000Y-25273000D03*
X10033000Y-34163000D03*
X28448000Y-38100000D03*
X27355800Y-44043600D03*
X25628600Y-24434800D03*
X40309800Y-46304000D03*
X22352000Y-29337000D03*
X21209000Y-37312600D03*
X34192699Y-38307499D03*
X47371000Y-30632400D03*
X59182000Y-15621000D03*
X43967400Y-29032200D03*
X67741800Y-38811200D03*
X38481000Y-42291000D03*
X9779000Y-38100000D03*
X58801000Y-19964400D03*
X2971800Y-43129200D03*
X44118900Y-27191000D03*
X1701800Y-43129200D03*
X58808200Y-22156000D03*
X25146000Y-44323000D03*
X19050000Y-18161000D03*
%TO.N,+3V3*%
X43942000Y-41148000D03*
X6477000Y-33020000D03*
X35426122Y-38044557D03*
X25019000Y-36322000D03*
X26797000Y-35052000D03*
X52552600Y-18389600D03*
X25628600Y-25971800D03*
X24511000Y-26924000D03*
X2413000Y-33020000D03*
X4445000Y-33020000D03*
X32893000Y-50292000D03*
%TO.N,/NRST*%
X59182000Y-11811000D03*
X33832800Y-32867600D03*
X25019000Y-42557100D03*
X21209000Y-38557200D03*
%TO.N,/SWO*%
X17297400Y-37287200D03*
X28371800Y-42722800D03*
%TO.N,/SWCLK*%
X27294600Y-39674800D03*
X17361500Y-38608000D03*
%TO.N,/SWDIO*%
X25994600Y-39725600D03*
X17246600Y-39827200D03*
%TO.N,VBUS*%
X17783000Y-44326000D03*
X18415000Y-45974000D03*
X15367000Y-45974000D03*
X16891000Y-45974000D03*
%TO.N,/UART_TX*%
X38176200Y-29508000D03*
%TO.N,/UART_RX*%
X35627800Y-26483800D03*
%TO.N,/RGB_LED*%
X19050000Y-19177000D03*
X32131000Y-30480000D03*
%TO.N,/SCL*%
X26035000Y-30988000D03*
%TO.N,/SDA*%
X24511000Y-30988000D03*
%TD*%
%TA.AperFunction,Conductor*%
%TO.N,+3V3*%
G36*
X69118019Y-88633D02*
G01*
X69156149Y-91131D01*
X69199793Y-93992D01*
X69381459Y-106985D01*
X69389102Y-108015D01*
X69505451Y-131158D01*
X69649666Y-162531D01*
X69656383Y-164395D01*
X69774618Y-204531D01*
X69776224Y-205103D01*
X69907740Y-254156D01*
X69913483Y-256635D01*
X70027830Y-313024D01*
X70030042Y-314173D01*
X70150913Y-380173D01*
X70155641Y-383037D01*
X70262649Y-454537D01*
X70265358Y-456454D01*
X70374652Y-538271D01*
X70378345Y-541265D01*
X70475502Y-626469D01*
X70478448Y-629228D01*
X70574769Y-725549D01*
X70577526Y-728492D01*
X70662729Y-825648D01*
X70665732Y-829353D01*
X70717564Y-898592D01*
X70747543Y-938639D01*
X70749461Y-941349D01*
X70820961Y-1048357D01*
X70823828Y-1053091D01*
X70889802Y-1173912D01*
X70890992Y-1176204D01*
X70947356Y-1290499D01*
X70949842Y-1296258D01*
X70998878Y-1427727D01*
X70999497Y-1429465D01*
X71039597Y-1547596D01*
X71041472Y-1554352D01*
X71072848Y-1698590D01*
X71095980Y-1814880D01*
X71097015Y-1822560D01*
X71110021Y-2004413D01*
X71115367Y-2085966D01*
X71115500Y-2090023D01*
X71115500Y-52085976D01*
X71115367Y-52090025D01*
X71113690Y-52115608D01*
X71110021Y-52171585D01*
X71097015Y-52353438D01*
X71095980Y-52361118D01*
X71072848Y-52477408D01*
X71041472Y-52621646D01*
X71039597Y-52628402D01*
X70999497Y-52746533D01*
X70998878Y-52748271D01*
X70949842Y-52879740D01*
X70947356Y-52885499D01*
X70890992Y-52999794D01*
X70889802Y-53002086D01*
X70823828Y-53122907D01*
X70820961Y-53127641D01*
X70749461Y-53234649D01*
X70747543Y-53237359D01*
X70665744Y-53346631D01*
X70662723Y-53350357D01*
X70577529Y-53447502D01*
X70574755Y-53450464D01*
X70478464Y-53546755D01*
X70475502Y-53549529D01*
X70378357Y-53634723D01*
X70374631Y-53637744D01*
X70265359Y-53719543D01*
X70262649Y-53721461D01*
X70155641Y-53792961D01*
X70150907Y-53795828D01*
X70030086Y-53861802D01*
X70027794Y-53862992D01*
X69913499Y-53919356D01*
X69907740Y-53921842D01*
X69776271Y-53970878D01*
X69774533Y-53971497D01*
X69656402Y-54011597D01*
X69649646Y-54013472D01*
X69505408Y-54044848D01*
X69389118Y-54067980D01*
X69381438Y-54069015D01*
X69199585Y-54082021D01*
X69143608Y-54085690D01*
X69118025Y-54087367D01*
X69113976Y-54087500D01*
X27188025Y-54087500D01*
X27120986Y-54067815D01*
X27075231Y-54015011D01*
X27065287Y-53945853D01*
X27094312Y-53882297D01*
X27136514Y-53850706D01*
X27242943Y-53802101D01*
X27242946Y-53802099D01*
X27242953Y-53802096D01*
X27414152Y-53680186D01*
X27483379Y-53607583D01*
X27559185Y-53528079D01*
X27576035Y-53501860D01*
X27672813Y-53351272D01*
X27750925Y-53156157D01*
X27790700Y-52949785D01*
X27790700Y-52092275D01*
X27775728Y-51935482D01*
X27716516Y-51733825D01*
X27620211Y-51547018D01*
X27620209Y-51547016D01*
X27620208Y-51547013D01*
X27490294Y-51381816D01*
X27490290Y-51381812D01*
X27331453Y-51244178D01*
X27149449Y-51139098D01*
X27149445Y-51139096D01*
X27149444Y-51139096D01*
X26950833Y-51070356D01*
X26742802Y-51040446D01*
X26742798Y-51040446D01*
X26532872Y-51050445D01*
X26448068Y-51071019D01*
X26407478Y-51080865D01*
X26337689Y-51077541D01*
X26280774Y-51037013D01*
X26254806Y-50972148D01*
X26268029Y-50903541D01*
X26307119Y-50858787D01*
X26480945Y-50737073D01*
X26632573Y-50585445D01*
X26755568Y-50409791D01*
X26846192Y-50215447D01*
X26901692Y-50008319D01*
X26920381Y-49794700D01*
X26901692Y-49581081D01*
X26859550Y-49423809D01*
X26846194Y-49373960D01*
X26846193Y-49373959D01*
X26846192Y-49373953D01*
X26755568Y-49179610D01*
X26750791Y-49172788D01*
X26632576Y-49003959D01*
X26632571Y-49003953D01*
X26480945Y-48852327D01*
X26305290Y-48729331D01*
X26176970Y-48669495D01*
X26110947Y-48638708D01*
X26110943Y-48638707D01*
X26110939Y-48638705D01*
X25903824Y-48583209D01*
X25903820Y-48583208D01*
X25903819Y-48583208D01*
X25903818Y-48583207D01*
X25903813Y-48583207D01*
X25690202Y-48564519D01*
X25690198Y-48564519D01*
X25547074Y-48577040D01*
X25478574Y-48563273D01*
X25428391Y-48514658D01*
X25412947Y-48466476D01*
X25396674Y-48311644D01*
X25386717Y-48281001D01*
X49596500Y-48281001D01*
X49596501Y-48281018D01*
X49607000Y-48383796D01*
X49607001Y-48383799D01*
X49652894Y-48522294D01*
X49662186Y-48550334D01*
X49754288Y-48699656D01*
X49878344Y-48823712D01*
X50027666Y-48915814D01*
X50194203Y-48970999D01*
X50296991Y-48981500D01*
X51597008Y-48981499D01*
X51699797Y-48970999D01*
X51866334Y-48915814D01*
X52015656Y-48823712D01*
X52139712Y-48699656D01*
X52231814Y-48550334D01*
X52231814Y-48550331D01*
X52235178Y-48544879D01*
X52287126Y-48498154D01*
X52356088Y-48486931D01*
X52420170Y-48514774D01*
X52428398Y-48522294D01*
X52575599Y-48669495D01*
X52618675Y-48699657D01*
X52769165Y-48805032D01*
X52769167Y-48805033D01*
X52769170Y-48805035D01*
X52983337Y-48904903D01*
X53211592Y-48966063D01*
X53388034Y-48981500D01*
X53446999Y-48986659D01*
X53447000Y-48986659D01*
X53447001Y-48986659D01*
X53505966Y-48981500D01*
X53682408Y-48966063D01*
X53910663Y-48904903D01*
X54124829Y-48805035D01*
X54177721Y-48768000D01*
X62207422Y-48768000D01*
X62227722Y-49155339D01*
X62248108Y-49284051D01*
X62288398Y-49538433D01*
X62299825Y-49581081D01*
X62388788Y-49913094D01*
X62527787Y-50275197D01*
X62703877Y-50620793D01*
X62915122Y-50946082D01*
X63039761Y-51099998D01*
X63159219Y-51247516D01*
X63433484Y-51521781D01*
X63601375Y-51657737D01*
X63734917Y-51765877D01*
X63996080Y-51935478D01*
X64060211Y-51977125D01*
X64405806Y-52153214D01*
X64767913Y-52292214D01*
X65142567Y-52392602D01*
X65525662Y-52453278D01*
X65891576Y-52472455D01*
X65912999Y-52473578D01*
X65913000Y-52473578D01*
X65913001Y-52473578D01*
X65933300Y-52472514D01*
X66300338Y-52453278D01*
X66683433Y-52392602D01*
X67058087Y-52292214D01*
X67420194Y-52153214D01*
X67765789Y-51977125D01*
X68091084Y-51765876D01*
X68392516Y-51521781D01*
X68666781Y-51247516D01*
X68910876Y-50946084D01*
X69122125Y-50620789D01*
X69298214Y-50275194D01*
X69437214Y-49913087D01*
X69537602Y-49538433D01*
X69598278Y-49155338D01*
X69618578Y-48768000D01*
X69598278Y-48380662D01*
X69537602Y-47997567D01*
X69437214Y-47622913D01*
X69298214Y-47260806D01*
X69122125Y-46915211D01*
X69091040Y-46867344D01*
X68910877Y-46589917D01*
X68770948Y-46417120D01*
X68666781Y-46288484D01*
X68392516Y-46014219D01*
X68295572Y-45935715D01*
X68091082Y-45770122D01*
X67765793Y-45558877D01*
X67420197Y-45382787D01*
X67058094Y-45243788D01*
X67058087Y-45243786D01*
X66683433Y-45143398D01*
X66683429Y-45143397D01*
X66683428Y-45143397D01*
X66300339Y-45082722D01*
X65913001Y-45062422D01*
X65912999Y-45062422D01*
X65525660Y-45082722D01*
X65142572Y-45143397D01*
X65142570Y-45143397D01*
X64767905Y-45243788D01*
X64405802Y-45382787D01*
X64060206Y-45558877D01*
X63734917Y-45770122D01*
X63433488Y-46014215D01*
X63433480Y-46014222D01*
X63159222Y-46288480D01*
X63159215Y-46288488D01*
X62915122Y-46589917D01*
X62703877Y-46915206D01*
X62527787Y-47260802D01*
X62388788Y-47622905D01*
X62288397Y-47997570D01*
X62288397Y-47997572D01*
X62227722Y-48380660D01*
X62207422Y-48767999D01*
X62207422Y-48768000D01*
X54177721Y-48768000D01*
X54318401Y-48669495D01*
X54485495Y-48502401D01*
X54621035Y-48308829D01*
X54720903Y-48094663D01*
X54782063Y-47866408D01*
X54797500Y-47689966D01*
X54797500Y-47272034D01*
X54782063Y-47095592D01*
X54720903Y-46867337D01*
X54621035Y-46653171D01*
X54602105Y-46626135D01*
X54485494Y-46459597D01*
X54318402Y-46292506D01*
X54318395Y-46292501D01*
X54312652Y-46288480D01*
X54275324Y-46262342D01*
X54124834Y-46156967D01*
X54124830Y-46156965D01*
X54084777Y-46138288D01*
X53910663Y-46057097D01*
X53910659Y-46057096D01*
X53910655Y-46057094D01*
X53682413Y-45995938D01*
X53682403Y-45995936D01*
X53447001Y-45975341D01*
X53446999Y-45975341D01*
X53211596Y-45995936D01*
X53211586Y-45995938D01*
X52983344Y-46057094D01*
X52983335Y-46057098D01*
X52769171Y-46156964D01*
X52769169Y-46156965D01*
X52575597Y-46292505D01*
X52428398Y-46439705D01*
X52367075Y-46473190D01*
X52297383Y-46468206D01*
X52241450Y-46426334D01*
X52235178Y-46417120D01*
X52139712Y-46262344D01*
X52015657Y-46138289D01*
X52015656Y-46138289D01*
X52015656Y-46138288D01*
X51922888Y-46081069D01*
X51866336Y-46046187D01*
X51866331Y-46046185D01*
X51864862Y-46045698D01*
X51699797Y-45991001D01*
X51699795Y-45991000D01*
X51597010Y-45980500D01*
X50296998Y-45980500D01*
X50296981Y-45980501D01*
X50194203Y-45991000D01*
X50194200Y-45991001D01*
X50027668Y-46046185D01*
X50027663Y-46046187D01*
X49878342Y-46138289D01*
X49754289Y-46262342D01*
X49662187Y-46411663D01*
X49662185Y-46411668D01*
X49643450Y-46468206D01*
X49607001Y-46578203D01*
X49607001Y-46578204D01*
X49607000Y-46578204D01*
X49596500Y-46680983D01*
X49596500Y-48281001D01*
X25386717Y-48281001D01*
X25338179Y-48131616D01*
X25243533Y-47967684D01*
X25116871Y-47827012D01*
X25116870Y-47827011D01*
X24963734Y-47715751D01*
X24963729Y-47715748D01*
X24790807Y-47638757D01*
X24790802Y-47638755D01*
X24645001Y-47607765D01*
X24605646Y-47599400D01*
X24416354Y-47599400D01*
X24383897Y-47606298D01*
X24231197Y-47638755D01*
X24231192Y-47638757D01*
X24058270Y-47715748D01*
X24058265Y-47715751D01*
X23905129Y-47827011D01*
X23778466Y-47967685D01*
X23683821Y-48131615D01*
X23683818Y-48131622D01*
X23626240Y-48308830D01*
X23625326Y-48311644D01*
X23609053Y-48466473D01*
X23605724Y-48498154D01*
X23605540Y-48499900D01*
X23625326Y-48688156D01*
X23625327Y-48688159D01*
X23683818Y-48868177D01*
X23683821Y-48868184D01*
X23778467Y-49032116D01*
X23889417Y-49155338D01*
X23905129Y-49172788D01*
X24058265Y-49284048D01*
X24058270Y-49284051D01*
X24231192Y-49361042D01*
X24231197Y-49361044D01*
X24393339Y-49395508D01*
X24454821Y-49428700D01*
X24488597Y-49489863D01*
X24487333Y-49548890D01*
X24478710Y-49581072D01*
X24478707Y-49581086D01*
X24460019Y-49794698D01*
X24460019Y-49794701D01*
X24478707Y-50008313D01*
X24478709Y-50008324D01*
X24534205Y-50215439D01*
X24534207Y-50215443D01*
X24534208Y-50215447D01*
X24562070Y-50275197D01*
X24624831Y-50409790D01*
X24624832Y-50409791D01*
X24747827Y-50585445D01*
X24899455Y-50737073D01*
X25075109Y-50860068D01*
X25269453Y-50950692D01*
X25476581Y-51006192D01*
X25629166Y-51019541D01*
X25690198Y-51024881D01*
X25690200Y-51024881D01*
X25690202Y-51024881D01*
X25743604Y-51020208D01*
X25903819Y-51006192D01*
X26022299Y-50974445D01*
X26092148Y-50976108D01*
X26150011Y-51015270D01*
X26177515Y-51079499D01*
X26165929Y-51148401D01*
X26126319Y-51195227D01*
X25966252Y-51309209D01*
X25966240Y-51309220D01*
X25821214Y-51461320D01*
X25707588Y-51638125D01*
X25629474Y-51833244D01*
X25601744Y-51977125D01*
X25589700Y-52039615D01*
X25589700Y-52897125D01*
X25599723Y-53002086D01*
X25604672Y-53053917D01*
X25604673Y-53053921D01*
X25657739Y-53234649D01*
X25663884Y-53255575D01*
X25710837Y-53346652D01*
X25760191Y-53442386D01*
X25890105Y-53607583D01*
X25890109Y-53607587D01*
X26048946Y-53745221D01*
X26230947Y-53850299D01*
X26230956Y-53850304D01*
X26230963Y-53850306D01*
X26231826Y-53850701D01*
X26232193Y-53851019D01*
X26236071Y-53853258D01*
X26235639Y-53854005D01*
X26284634Y-53896452D01*
X26304324Y-53963489D01*
X26284645Y-54030530D01*
X26231845Y-54076290D01*
X26180324Y-54087500D01*
X20188025Y-54087500D01*
X20120986Y-54067815D01*
X20075231Y-54015011D01*
X20065287Y-53945853D01*
X20094312Y-53882297D01*
X20136514Y-53850706D01*
X20242943Y-53802101D01*
X20242946Y-53802099D01*
X20242953Y-53802096D01*
X20414152Y-53680186D01*
X20483379Y-53607583D01*
X20559185Y-53528079D01*
X20576035Y-53501860D01*
X20672813Y-53351272D01*
X20750925Y-53156157D01*
X20790700Y-52949785D01*
X20790700Y-52092275D01*
X20775728Y-51935482D01*
X20716516Y-51733825D01*
X20620211Y-51547018D01*
X20620209Y-51547016D01*
X20620208Y-51547013D01*
X20490294Y-51381816D01*
X20490290Y-51381812D01*
X20331453Y-51244178D01*
X20252270Y-51198462D01*
X20204054Y-51147895D01*
X20190832Y-51079288D01*
X20216800Y-51014423D01*
X20273714Y-50973895D01*
X20343504Y-50970570D01*
X20346338Y-50971293D01*
X20476581Y-51006192D01*
X20629165Y-51019541D01*
X20690198Y-51024881D01*
X20690200Y-51024881D01*
X20690202Y-51024881D01*
X20743604Y-51020208D01*
X20903819Y-51006192D01*
X21110947Y-50950692D01*
X21305291Y-50860068D01*
X21480945Y-50737073D01*
X21632573Y-50585445D01*
X21755568Y-50409791D01*
X21846192Y-50215447D01*
X21901692Y-50008319D01*
X21920381Y-49794700D01*
X21901692Y-49581081D01*
X21859550Y-49423809D01*
X21846194Y-49373960D01*
X21846193Y-49373959D01*
X21846192Y-49373953D01*
X21755568Y-49179610D01*
X21750791Y-49172788D01*
X21632576Y-49003959D01*
X21632571Y-49003953D01*
X21480945Y-48852327D01*
X21305290Y-48729331D01*
X21176970Y-48669495D01*
X21110947Y-48638708D01*
X21110943Y-48638707D01*
X21110939Y-48638705D01*
X20903824Y-48583209D01*
X20903820Y-48583208D01*
X20903819Y-48583208D01*
X20903818Y-48583207D01*
X20903813Y-48583207D01*
X20690202Y-48564519D01*
X20690198Y-48564519D01*
X20476586Y-48583207D01*
X20476575Y-48583209D01*
X20269460Y-48638705D01*
X20269451Y-48638709D01*
X20075110Y-48729331D01*
X20075108Y-48729332D01*
X19899459Y-48852323D01*
X19899453Y-48852328D01*
X19747828Y-49003953D01*
X19747823Y-49003959D01*
X19624832Y-49179608D01*
X19624831Y-49179610D01*
X19534209Y-49373951D01*
X19534205Y-49373960D01*
X19478709Y-49581075D01*
X19478707Y-49581086D01*
X19460019Y-49794698D01*
X19460019Y-49794701D01*
X19478707Y-50008313D01*
X19478709Y-50008324D01*
X19534205Y-50215439D01*
X19534207Y-50215443D01*
X19534208Y-50215447D01*
X19562070Y-50275197D01*
X19624831Y-50409790D01*
X19747827Y-50585445D01*
X19899454Y-50737072D01*
X20063510Y-50851946D01*
X20107135Y-50906524D01*
X20114327Y-50976022D01*
X20082805Y-51038377D01*
X20022575Y-51073790D01*
X19956712Y-51071175D01*
X19956573Y-51071749D01*
X19953721Y-51071057D01*
X19952760Y-51071019D01*
X19951830Y-51070701D01*
X19950838Y-51070357D01*
X19950834Y-51070356D01*
X19950833Y-51070356D01*
X19742802Y-51040446D01*
X19742798Y-51040446D01*
X19532872Y-51050445D01*
X19328621Y-51099996D01*
X19328617Y-51099998D01*
X19137456Y-51187298D01*
X19137451Y-51187301D01*
X18966246Y-51309215D01*
X18966240Y-51309220D01*
X18821214Y-51461320D01*
X18707588Y-51638125D01*
X18629474Y-51833244D01*
X18601744Y-51977125D01*
X18589700Y-52039615D01*
X18589700Y-52897125D01*
X18599723Y-53002086D01*
X18604672Y-53053917D01*
X18604673Y-53053921D01*
X18657739Y-53234649D01*
X18663884Y-53255575D01*
X18710837Y-53346652D01*
X18760191Y-53442386D01*
X18890105Y-53607583D01*
X18890109Y-53607587D01*
X19048946Y-53745221D01*
X19230947Y-53850299D01*
X19230956Y-53850304D01*
X19230963Y-53850306D01*
X19231826Y-53850701D01*
X19232193Y-53851019D01*
X19236071Y-53853258D01*
X19235639Y-53854005D01*
X19284634Y-53896452D01*
X19304324Y-53963489D01*
X19284645Y-54030530D01*
X19231845Y-54076290D01*
X19180324Y-54087500D01*
X2118024Y-54087500D01*
X2113974Y-54087367D01*
X2083355Y-54085360D01*
X2032413Y-54082021D01*
X1850560Y-54069015D01*
X1842880Y-54067980D01*
X1726590Y-54044848D01*
X1582352Y-54013472D01*
X1575596Y-54011597D01*
X1457465Y-53971497D01*
X1455727Y-53970878D01*
X1324258Y-53921842D01*
X1318499Y-53919356D01*
X1204204Y-53862992D01*
X1201912Y-53861802D01*
X1181591Y-53850706D01*
X1162890Y-53840494D01*
X1081091Y-53795828D01*
X1076357Y-53792961D01*
X969349Y-53721461D01*
X966639Y-53719543D01*
X914054Y-53680179D01*
X857353Y-53637732D01*
X853648Y-53634729D01*
X756492Y-53549526D01*
X753549Y-53546769D01*
X657228Y-53450448D01*
X654469Y-53447502D01*
X569265Y-53350345D01*
X566271Y-53346652D01*
X484454Y-53237358D01*
X482537Y-53234649D01*
X411037Y-53127641D01*
X408170Y-53122907D01*
X342173Y-53002042D01*
X341024Y-52999830D01*
X284635Y-52885483D01*
X282156Y-52879740D01*
X233103Y-52748224D01*
X232531Y-52746618D01*
X192395Y-52628383D01*
X190531Y-52621666D01*
X159150Y-52477408D01*
X136015Y-52361102D01*
X134985Y-52353459D01*
X121992Y-52171793D01*
X116781Y-52092280D01*
X116633Y-52090018D01*
X116500Y-52085963D01*
X116500Y-48768000D01*
X1501422Y-48768000D01*
X1521722Y-49155339D01*
X1542108Y-49284051D01*
X1582398Y-49538433D01*
X1593825Y-49581081D01*
X1682788Y-49913094D01*
X1821787Y-50275197D01*
X1997877Y-50620793D01*
X2209122Y-50946082D01*
X2333761Y-51099998D01*
X2453219Y-51247516D01*
X2727484Y-51521781D01*
X2895375Y-51657737D01*
X3028917Y-51765877D01*
X3290080Y-51935478D01*
X3354211Y-51977125D01*
X3699806Y-52153214D01*
X4061913Y-52292214D01*
X4436567Y-52392602D01*
X4819662Y-52453278D01*
X5185576Y-52472455D01*
X5206999Y-52473578D01*
X5207000Y-52473578D01*
X5207001Y-52473578D01*
X5227300Y-52472514D01*
X5594338Y-52453278D01*
X5977433Y-52392602D01*
X6352087Y-52292214D01*
X6714194Y-52153214D01*
X7059789Y-51977125D01*
X7385084Y-51765876D01*
X7686516Y-51521781D01*
X7960781Y-51247516D01*
X8204876Y-50946084D01*
X8416125Y-50620789D01*
X8592214Y-50275194D01*
X8731214Y-49913087D01*
X8831602Y-49538433D01*
X8892278Y-49155338D01*
X8912578Y-48768000D01*
X8892278Y-48380662D01*
X8831602Y-47997567D01*
X8731214Y-47622913D01*
X8592214Y-47260806D01*
X8416125Y-46915211D01*
X8385040Y-46867344D01*
X8204877Y-46589917D01*
X8064948Y-46417120D01*
X7960781Y-46288484D01*
X7686516Y-46014219D01*
X7636850Y-45974000D01*
X14461540Y-45974000D01*
X14481326Y-46162256D01*
X14481327Y-46162259D01*
X14539818Y-46342277D01*
X14539821Y-46342284D01*
X14634467Y-46506216D01*
X14709831Y-46589916D01*
X14761129Y-46646888D01*
X14914265Y-46758148D01*
X14914270Y-46758151D01*
X15087192Y-46835142D01*
X15087197Y-46835144D01*
X15272354Y-46874500D01*
X15272355Y-46874500D01*
X15461644Y-46874500D01*
X15461646Y-46874500D01*
X15646803Y-46835144D01*
X15819730Y-46758151D01*
X15972871Y-46646888D01*
X16036850Y-46575831D01*
X16096337Y-46539183D01*
X16166194Y-46540514D01*
X16221149Y-46575831D01*
X16233831Y-46589916D01*
X16285129Y-46646888D01*
X16438265Y-46758148D01*
X16438270Y-46758151D01*
X16611192Y-46835142D01*
X16611197Y-46835144D01*
X16796354Y-46874500D01*
X16796355Y-46874500D01*
X16985644Y-46874500D01*
X16985646Y-46874500D01*
X17170803Y-46835144D01*
X17343730Y-46758151D01*
X17496871Y-46646888D01*
X17560850Y-46575831D01*
X17620337Y-46539183D01*
X17690194Y-46540514D01*
X17745149Y-46575831D01*
X17757831Y-46589916D01*
X17809129Y-46646888D01*
X17962265Y-46758148D01*
X17962270Y-46758151D01*
X18135192Y-46835142D01*
X18135197Y-46835144D01*
X18320354Y-46874500D01*
X18320355Y-46874500D01*
X18509644Y-46874500D01*
X18509646Y-46874500D01*
X18694803Y-46835144D01*
X18867730Y-46758151D01*
X19020871Y-46646888D01*
X19147533Y-46506216D01*
X19242179Y-46342284D01*
X19254618Y-46304000D01*
X39404340Y-46304000D01*
X39424126Y-46492256D01*
X39424127Y-46492259D01*
X39482618Y-46672277D01*
X39482621Y-46672284D01*
X39577267Y-46836216D01*
X39648390Y-46915206D01*
X39703929Y-46976888D01*
X39857065Y-47088148D01*
X39857070Y-47088151D01*
X40029992Y-47165142D01*
X40029997Y-47165144D01*
X40215154Y-47204500D01*
X40215155Y-47204500D01*
X40404444Y-47204500D01*
X40404446Y-47204500D01*
X40589603Y-47165144D01*
X40762530Y-47088151D01*
X40915671Y-46976888D01*
X41042333Y-46836216D01*
X41136979Y-46672284D01*
X41195474Y-46492256D01*
X41215260Y-46304000D01*
X41195474Y-46115744D01*
X41136979Y-45935716D01*
X41042333Y-45771784D01*
X40915671Y-45631112D01*
X40880725Y-45605722D01*
X40762534Y-45519851D01*
X40762529Y-45519848D01*
X40589607Y-45442857D01*
X40589602Y-45442855D01*
X40423194Y-45407485D01*
X40404446Y-45403500D01*
X40215154Y-45403500D01*
X40196406Y-45407485D01*
X40029997Y-45442855D01*
X40029992Y-45442857D01*
X39857070Y-45519848D01*
X39857065Y-45519851D01*
X39703929Y-45631111D01*
X39577266Y-45771785D01*
X39482621Y-45935715D01*
X39482618Y-45935722D01*
X39443181Y-46057098D01*
X39424126Y-46115744D01*
X39408718Y-46262342D01*
X39405549Y-46292501D01*
X39404340Y-46304000D01*
X19254618Y-46304000D01*
X19300674Y-46162256D01*
X19320460Y-45974000D01*
X19300674Y-45785744D01*
X19242179Y-45605716D01*
X19147533Y-45441784D01*
X19020871Y-45301112D01*
X19020870Y-45301111D01*
X18867734Y-45189851D01*
X18867729Y-45189848D01*
X18694807Y-45112857D01*
X18694802Y-45112855D01*
X18561964Y-45084620D01*
X18500482Y-45051428D01*
X18466706Y-44990265D01*
X18471358Y-44920550D01*
X18495594Y-44880359D01*
X18515533Y-44858216D01*
X18610179Y-44694284D01*
X18668674Y-44514256D01*
X18688460Y-44326000D01*
X18668674Y-44137744D01*
X18610179Y-43957716D01*
X18515533Y-43793784D01*
X18388871Y-43653112D01*
X18388870Y-43653111D01*
X18235734Y-43541851D01*
X18235729Y-43541848D01*
X18062807Y-43464857D01*
X18062802Y-43464855D01*
X17917001Y-43433865D01*
X17877646Y-43425500D01*
X17688354Y-43425500D01*
X17655897Y-43432398D01*
X17503197Y-43464855D01*
X17503192Y-43464857D01*
X17330270Y-43541848D01*
X17330265Y-43541851D01*
X17177129Y-43653111D01*
X17050466Y-43793785D01*
X16955821Y-43957715D01*
X16955818Y-43957722D01*
X16897327Y-44137740D01*
X16897326Y-44137744D01*
X16877540Y-44326000D01*
X16897326Y-44514256D01*
X16897327Y-44514259D01*
X16955818Y-44694277D01*
X16955821Y-44694284D01*
X17050467Y-44858216D01*
X17057270Y-44865771D01*
X17057952Y-44866529D01*
X17088181Y-44929520D01*
X17079555Y-44998856D01*
X17034813Y-45052521D01*
X16968161Y-45073478D01*
X16965801Y-45073500D01*
X16796354Y-45073500D01*
X16763897Y-45080398D01*
X16611197Y-45112855D01*
X16611192Y-45112857D01*
X16438270Y-45189848D01*
X16438265Y-45189851D01*
X16285129Y-45301111D01*
X16285128Y-45301112D01*
X16221149Y-45372168D01*
X16161663Y-45408816D01*
X16091806Y-45407485D01*
X16036851Y-45372168D01*
X15972871Y-45301112D01*
X15972870Y-45301111D01*
X15819734Y-45189851D01*
X15819729Y-45189848D01*
X15646807Y-45112857D01*
X15646802Y-45112855D01*
X15501001Y-45081865D01*
X15461646Y-45073500D01*
X15272354Y-45073500D01*
X15239897Y-45080398D01*
X15087197Y-45112855D01*
X15087192Y-45112857D01*
X14914270Y-45189848D01*
X14914265Y-45189851D01*
X14761129Y-45301111D01*
X14634466Y-45441785D01*
X14539821Y-45605715D01*
X14539818Y-45605722D01*
X14481327Y-45785740D01*
X14481326Y-45785744D01*
X14461540Y-45974000D01*
X7636850Y-45974000D01*
X7589572Y-45935715D01*
X7385082Y-45770122D01*
X7059793Y-45558877D01*
X6714197Y-45382787D01*
X6352094Y-45243788D01*
X6352087Y-45243786D01*
X5977433Y-45143398D01*
X5977429Y-45143397D01*
X5977428Y-45143397D01*
X5594339Y-45082722D01*
X5207001Y-45062422D01*
X5206999Y-45062422D01*
X4819660Y-45082722D01*
X4436572Y-45143397D01*
X4436570Y-45143397D01*
X4061905Y-45243788D01*
X3699802Y-45382787D01*
X3354206Y-45558877D01*
X3028917Y-45770122D01*
X2727488Y-46014215D01*
X2727480Y-46014222D01*
X2453222Y-46288480D01*
X2453215Y-46288488D01*
X2209122Y-46589917D01*
X1997877Y-46915206D01*
X1821787Y-47260802D01*
X1682788Y-47622905D01*
X1582397Y-47997570D01*
X1582397Y-47997572D01*
X1521722Y-48380660D01*
X1501422Y-48767999D01*
X1501422Y-48768000D01*
X116500Y-48768000D01*
X116500Y-43129200D01*
X796340Y-43129200D01*
X816126Y-43317456D01*
X816127Y-43317459D01*
X874618Y-43497477D01*
X874621Y-43497484D01*
X969267Y-43661416D01*
X1066800Y-43769737D01*
X1095929Y-43802088D01*
X1249065Y-43913348D01*
X1249070Y-43913351D01*
X1421992Y-43990342D01*
X1421997Y-43990344D01*
X1607154Y-44029700D01*
X1607155Y-44029700D01*
X1796444Y-44029700D01*
X1796446Y-44029700D01*
X1981603Y-43990344D01*
X2154530Y-43913351D01*
X2263917Y-43833876D01*
X2329720Y-43810398D01*
X2397774Y-43826223D01*
X2409671Y-43833868D01*
X2519066Y-43913348D01*
X2519070Y-43913351D01*
X2691992Y-43990342D01*
X2691997Y-43990344D01*
X2877154Y-44029700D01*
X2877155Y-44029700D01*
X3066444Y-44029700D01*
X3066446Y-44029700D01*
X3251603Y-43990344D01*
X3424530Y-43913351D01*
X3577671Y-43802088D01*
X3704333Y-43661416D01*
X3798979Y-43497484D01*
X3857474Y-43317456D01*
X3877260Y-43129200D01*
X3857474Y-42940944D01*
X3798979Y-42760916D01*
X3704333Y-42596984D01*
X3668421Y-42557100D01*
X24113540Y-42557100D01*
X24133326Y-42745356D01*
X24133327Y-42745359D01*
X24191818Y-42925377D01*
X24191821Y-42925384D01*
X24286467Y-43089316D01*
X24370330Y-43182455D01*
X24413129Y-43229988D01*
X24566265Y-43341248D01*
X24566266Y-43341248D01*
X24566270Y-43341251D01*
X24617441Y-43364034D01*
X24670678Y-43409284D01*
X24690999Y-43476133D01*
X24671954Y-43543357D01*
X24639891Y-43577631D01*
X24540127Y-43650113D01*
X24413466Y-43790785D01*
X24318821Y-43954715D01*
X24318818Y-43954722D01*
X24260327Y-44134740D01*
X24260326Y-44134744D01*
X24240540Y-44323000D01*
X24260326Y-44511256D01*
X24260327Y-44511259D01*
X24318818Y-44691277D01*
X24318821Y-44691284D01*
X24413467Y-44855216D01*
X24480371Y-44929520D01*
X24540129Y-44995888D01*
X24693265Y-45107148D01*
X24693270Y-45107151D01*
X24866192Y-45184142D01*
X24866197Y-45184144D01*
X25051354Y-45223500D01*
X25051355Y-45223500D01*
X25240644Y-45223500D01*
X25240646Y-45223500D01*
X25425803Y-45184144D01*
X25598730Y-45107151D01*
X25751871Y-44995888D01*
X25878533Y-44855216D01*
X25973179Y-44691284D01*
X26031674Y-44511256D01*
X26051460Y-44323000D01*
X26031674Y-44134744D01*
X26002059Y-44043600D01*
X26450340Y-44043600D01*
X26470126Y-44231856D01*
X26470127Y-44231859D01*
X26528618Y-44411877D01*
X26528621Y-44411884D01*
X26623267Y-44575816D01*
X26727229Y-44691277D01*
X26749929Y-44716488D01*
X26903065Y-44827748D01*
X26903070Y-44827751D01*
X27075992Y-44904742D01*
X27075997Y-44904744D01*
X27261154Y-44944100D01*
X27261155Y-44944100D01*
X27450444Y-44944100D01*
X27450446Y-44944100D01*
X27635603Y-44904744D01*
X27808530Y-44827751D01*
X27961671Y-44716488D01*
X28088333Y-44575816D01*
X28182979Y-44411884D01*
X28241474Y-44231856D01*
X28261260Y-44043600D01*
X28241474Y-43855344D01*
X28221472Y-43793784D01*
X28218819Y-43785618D01*
X28216824Y-43715776D01*
X28252905Y-43655944D01*
X28315606Y-43625116D01*
X28336750Y-43623300D01*
X28466444Y-43623300D01*
X28466446Y-43623300D01*
X28651603Y-43583944D01*
X28824530Y-43506951D01*
X28977671Y-43395688D01*
X29104333Y-43255016D01*
X29198979Y-43091084D01*
X29257474Y-42911056D01*
X29277260Y-42722800D01*
X29257474Y-42534544D01*
X29198979Y-42354516D01*
X29162308Y-42291000D01*
X37575540Y-42291000D01*
X37595326Y-42479256D01*
X37595327Y-42479259D01*
X37653818Y-42659277D01*
X37653821Y-42659284D01*
X37748467Y-42823216D01*
X37854470Y-42940944D01*
X37875129Y-42963888D01*
X38028265Y-43075148D01*
X38028270Y-43075151D01*
X38201192Y-43152142D01*
X38201197Y-43152144D01*
X38386354Y-43191500D01*
X38386355Y-43191500D01*
X38575644Y-43191500D01*
X38575646Y-43191500D01*
X38760803Y-43152144D01*
X38933730Y-43075151D01*
X39086871Y-42963888D01*
X39213533Y-42823216D01*
X39308179Y-42659284D01*
X39366674Y-42479256D01*
X39386460Y-42291000D01*
X39366674Y-42102744D01*
X39308179Y-41922716D01*
X39213533Y-41758784D01*
X39086871Y-41618112D01*
X39079311Y-41612619D01*
X38933734Y-41506851D01*
X38933729Y-41506848D01*
X38760807Y-41429857D01*
X38760802Y-41429855D01*
X38595344Y-41394687D01*
X38575646Y-41390500D01*
X38386354Y-41390500D01*
X38366656Y-41394687D01*
X38201197Y-41429855D01*
X38201192Y-41429857D01*
X38028270Y-41506848D01*
X38028265Y-41506851D01*
X37875129Y-41618111D01*
X37748466Y-41758785D01*
X37653821Y-41922715D01*
X37653818Y-41922722D01*
X37612492Y-42049912D01*
X37595326Y-42102744D01*
X37575540Y-42291000D01*
X29162308Y-42291000D01*
X29104333Y-42190584D01*
X28977671Y-42049912D01*
X28977670Y-42049911D01*
X28824534Y-41938651D01*
X28824529Y-41938648D01*
X28651607Y-41861657D01*
X28651602Y-41861655D01*
X28505801Y-41830665D01*
X28466446Y-41822300D01*
X28277154Y-41822300D01*
X28244697Y-41829198D01*
X28091997Y-41861655D01*
X28091992Y-41861657D01*
X27919070Y-41938648D01*
X27919065Y-41938651D01*
X27765929Y-42049911D01*
X27639266Y-42190585D01*
X27544621Y-42354515D01*
X27544618Y-42354522D01*
X27511545Y-42456312D01*
X27486126Y-42534544D01*
X27466340Y-42722800D01*
X27486126Y-42911056D01*
X27486127Y-42911059D01*
X27508781Y-42980782D01*
X27510776Y-43050624D01*
X27474695Y-43110456D01*
X27411994Y-43141284D01*
X27390850Y-43143100D01*
X27261154Y-43143100D01*
X27228697Y-43149998D01*
X27075997Y-43182455D01*
X27075992Y-43182457D01*
X26903070Y-43259448D01*
X26903065Y-43259451D01*
X26749929Y-43370711D01*
X26623266Y-43511385D01*
X26528621Y-43675315D01*
X26528618Y-43675322D01*
X26470127Y-43855340D01*
X26470126Y-43855344D01*
X26450340Y-44043600D01*
X26002059Y-44043600D01*
X25973179Y-43954716D01*
X25878533Y-43790784D01*
X25751871Y-43650112D01*
X25717467Y-43625116D01*
X25598734Y-43538851D01*
X25598732Y-43538850D01*
X25547557Y-43516065D01*
X25494321Y-43470814D01*
X25474000Y-43403965D01*
X25493046Y-43336741D01*
X25525106Y-43302471D01*
X25624871Y-43229988D01*
X25751533Y-43089316D01*
X25846179Y-42925384D01*
X25904674Y-42745356D01*
X25924460Y-42557100D01*
X25904674Y-42368844D01*
X25846754Y-42190585D01*
X25846181Y-42188822D01*
X25846180Y-42188821D01*
X25846179Y-42188816D01*
X25751533Y-42024884D01*
X25624871Y-41884212D01*
X25593827Y-41861657D01*
X25471734Y-41772951D01*
X25471729Y-41772948D01*
X25298807Y-41695957D01*
X25298802Y-41695955D01*
X25153000Y-41664965D01*
X25113646Y-41656600D01*
X24924354Y-41656600D01*
X24891897Y-41663498D01*
X24739197Y-41695955D01*
X24739192Y-41695957D01*
X24566270Y-41772948D01*
X24566265Y-41772951D01*
X24413129Y-41884211D01*
X24286466Y-42024885D01*
X24191821Y-42188815D01*
X24191818Y-42188822D01*
X24133327Y-42368840D01*
X24133326Y-42368844D01*
X24113540Y-42557100D01*
X3668421Y-42557100D01*
X3577671Y-42456312D01*
X3566232Y-42448001D01*
X3424534Y-42345051D01*
X3424529Y-42345048D01*
X3251607Y-42268057D01*
X3251602Y-42268055D01*
X3105801Y-42237065D01*
X3066446Y-42228700D01*
X2877154Y-42228700D01*
X2844697Y-42235598D01*
X2691997Y-42268055D01*
X2691992Y-42268057D01*
X2519070Y-42345048D01*
X2519065Y-42345051D01*
X2409685Y-42424521D01*
X2343879Y-42448001D01*
X2275825Y-42432175D01*
X2263915Y-42424521D01*
X2154534Y-42345051D01*
X2154529Y-42345048D01*
X1981607Y-42268057D01*
X1981602Y-42268055D01*
X1835800Y-42237065D01*
X1796446Y-42228700D01*
X1607154Y-42228700D01*
X1574697Y-42235598D01*
X1421997Y-42268055D01*
X1421992Y-42268057D01*
X1249070Y-42345048D01*
X1249065Y-42345051D01*
X1095929Y-42456311D01*
X969266Y-42596985D01*
X874621Y-42760915D01*
X874618Y-42760922D01*
X816127Y-42940940D01*
X816126Y-42940944D01*
X796340Y-43129200D01*
X116500Y-43129200D01*
X116500Y-41140871D01*
X18579592Y-41140871D01*
X18594887Y-41227618D01*
X18609874Y-41312612D01*
X18678947Y-41472739D01*
X18783085Y-41612622D01*
X18783086Y-41612623D01*
X18783088Y-41612625D01*
X18854518Y-41672561D01*
X18916675Y-41724717D01*
X19072516Y-41802983D01*
X19242205Y-41843200D01*
X19242207Y-41843200D01*
X19372848Y-41843200D01*
X19372855Y-41843200D01*
X19502611Y-41828034D01*
X19666484Y-41768389D01*
X19812184Y-41672560D01*
X19931858Y-41545713D01*
X20019053Y-41394687D01*
X20069068Y-41227623D01*
X20079208Y-41053529D01*
X20048926Y-40881788D01*
X19979853Y-40721661D01*
X19875715Y-40581778D01*
X19875712Y-40581776D01*
X19875711Y-40581774D01*
X19742125Y-40469683D01*
X19742123Y-40469682D01*
X19586287Y-40391418D01*
X19586285Y-40391417D01*
X19586284Y-40391417D01*
X19416595Y-40351200D01*
X19285945Y-40351200D01*
X19185023Y-40362995D01*
X19156187Y-40366366D01*
X19156185Y-40366367D01*
X18992317Y-40426010D01*
X18992313Y-40426012D01*
X18846618Y-40521837D01*
X18846617Y-40521838D01*
X18726943Y-40648685D01*
X18726939Y-40648690D01*
X18639747Y-40799711D01*
X18589733Y-40966773D01*
X18589731Y-40966781D01*
X18579592Y-41140870D01*
X18579592Y-41140871D01*
X116500Y-41140871D01*
X116500Y-39827200D01*
X16341140Y-39827200D01*
X16360926Y-40015456D01*
X16360927Y-40015459D01*
X16419418Y-40195477D01*
X16419421Y-40195484D01*
X16514067Y-40359416D01*
X16603689Y-40458951D01*
X16640729Y-40500088D01*
X16793865Y-40611348D01*
X16793870Y-40611351D01*
X16966792Y-40688342D01*
X16966797Y-40688344D01*
X17151954Y-40727700D01*
X17151955Y-40727700D01*
X17341244Y-40727700D01*
X17341246Y-40727700D01*
X17526403Y-40688344D01*
X17699330Y-40611351D01*
X17852471Y-40500088D01*
X17979133Y-40359416D01*
X18073779Y-40195484D01*
X18132274Y-40015456D01*
X18152060Y-39827200D01*
X18141382Y-39725600D01*
X25089140Y-39725600D01*
X25108926Y-39913856D01*
X25108927Y-39913859D01*
X25167418Y-40093877D01*
X25167421Y-40093884D01*
X25262067Y-40257816D01*
X25359806Y-40366366D01*
X25388729Y-40398488D01*
X25541865Y-40509748D01*
X25541870Y-40509751D01*
X25714792Y-40586742D01*
X25714797Y-40586744D01*
X25899954Y-40626100D01*
X25899955Y-40626100D01*
X26089244Y-40626100D01*
X26089246Y-40626100D01*
X26274403Y-40586744D01*
X26447330Y-40509751D01*
X26562590Y-40426010D01*
X26605729Y-40394668D01*
X26607331Y-40396873D01*
X26659466Y-40371847D01*
X26728802Y-40380465D01*
X26752344Y-40393907D01*
X26841865Y-40458948D01*
X26841870Y-40458951D01*
X27014792Y-40535942D01*
X27014797Y-40535944D01*
X27199954Y-40575300D01*
X27199955Y-40575300D01*
X27389244Y-40575300D01*
X27389246Y-40575300D01*
X27574403Y-40535944D01*
X27747330Y-40458951D01*
X27900471Y-40347688D01*
X28027133Y-40207016D01*
X28121779Y-40043084D01*
X28180274Y-39863056D01*
X28200060Y-39674800D01*
X28180274Y-39486544D01*
X28121779Y-39306516D01*
X28033668Y-39153903D01*
X28027132Y-39142582D01*
X28010659Y-39074681D01*
X28033512Y-39008655D01*
X28088433Y-38965464D01*
X28157987Y-38958823D01*
X28161835Y-38959815D01*
X28161840Y-38959793D01*
X28239393Y-38976277D01*
X28353354Y-39000500D01*
X28353355Y-39000500D01*
X28542644Y-39000500D01*
X28542646Y-39000500D01*
X28727803Y-38961144D01*
X28900730Y-38884151D01*
X29053871Y-38772888D01*
X29180533Y-38632216D01*
X29275179Y-38468284D01*
X29327422Y-38307499D01*
X33287239Y-38307499D01*
X33307025Y-38495755D01*
X33307026Y-38495758D01*
X33365517Y-38675776D01*
X33365520Y-38675783D01*
X33460166Y-38839715D01*
X33573391Y-38965464D01*
X33586828Y-38980387D01*
X33739964Y-39091647D01*
X33739969Y-39091650D01*
X33912891Y-39168641D01*
X33912896Y-39168643D01*
X34098053Y-39207999D01*
X34098054Y-39207999D01*
X34287343Y-39207999D01*
X34287345Y-39207999D01*
X34472502Y-39168643D01*
X34645429Y-39091650D01*
X34730593Y-39029774D01*
X34796398Y-39006294D01*
X34864452Y-39022119D01*
X34913147Y-39072224D01*
X34927023Y-39140702D01*
X34912681Y-39186327D01*
X34913262Y-39186586D01*
X34911011Y-39191640D01*
X34910874Y-39192077D01*
X34910623Y-39192510D01*
X34910618Y-39192522D01*
X34857084Y-39357284D01*
X34852126Y-39372544D01*
X34832340Y-39560800D01*
X34852126Y-39749056D01*
X34852127Y-39749059D01*
X34910618Y-39929077D01*
X34910621Y-39929084D01*
X35005267Y-40093016D01*
X35131928Y-40233688D01*
X35131929Y-40233688D01*
X35285065Y-40344948D01*
X35285070Y-40344951D01*
X35457992Y-40421942D01*
X35457997Y-40421944D01*
X35643154Y-40461300D01*
X35643155Y-40461300D01*
X35832444Y-40461300D01*
X35832446Y-40461300D01*
X36017603Y-40421944D01*
X36190530Y-40344951D01*
X36343671Y-40233688D01*
X36470333Y-40093016D01*
X36564979Y-39929084D01*
X36623474Y-39749056D01*
X36643260Y-39560800D01*
X36623474Y-39372544D01*
X36564979Y-39192516D01*
X36470333Y-39028584D01*
X36343671Y-38887912D01*
X36343670Y-38887911D01*
X36190534Y-38776651D01*
X36190529Y-38776648D01*
X36017607Y-38699657D01*
X36017602Y-38699655D01*
X35871800Y-38668665D01*
X35832446Y-38660300D01*
X35643154Y-38660300D01*
X35610697Y-38667198D01*
X35457997Y-38699655D01*
X35457992Y-38699657D01*
X35285070Y-38776648D01*
X35285065Y-38776651D01*
X35199905Y-38838524D01*
X35134099Y-38862004D01*
X35066045Y-38846178D01*
X35017350Y-38796072D01*
X35003475Y-38727594D01*
X35017820Y-38681972D01*
X35017237Y-38681713D01*
X35019501Y-38676627D01*
X35019634Y-38676204D01*
X35019878Y-38675783D01*
X35078373Y-38495755D01*
X35098159Y-38307499D01*
X35078373Y-38119243D01*
X35019878Y-37939215D01*
X34925232Y-37775283D01*
X34798570Y-37634611D01*
X34739921Y-37592000D01*
X42020540Y-37592000D01*
X42040326Y-37780256D01*
X42040327Y-37780259D01*
X42098818Y-37960277D01*
X42098821Y-37960284D01*
X42193467Y-38124216D01*
X42320129Y-38264888D01*
X42473265Y-38376148D01*
X42473270Y-38376151D01*
X42646192Y-38453142D01*
X42646197Y-38453144D01*
X42831354Y-38492500D01*
X42831355Y-38492500D01*
X42858809Y-38492500D01*
X42925848Y-38512185D01*
X42971603Y-38564989D01*
X42981547Y-38634147D01*
X42976740Y-38654818D01*
X42953094Y-38727594D01*
X42929326Y-38800744D01*
X42909540Y-38989000D01*
X42929326Y-39177256D01*
X42929327Y-39177259D01*
X42987818Y-39357277D01*
X42987821Y-39357284D01*
X43082467Y-39521216D01*
X43188470Y-39638944D01*
X43209129Y-39661888D01*
X43362265Y-39773148D01*
X43362270Y-39773151D01*
X43535192Y-39850142D01*
X43535197Y-39850144D01*
X43720354Y-39889500D01*
X43720355Y-39889500D01*
X43909644Y-39889500D01*
X43909646Y-39889500D01*
X44094803Y-39850144D01*
X44267730Y-39773151D01*
X44420871Y-39661888D01*
X44547533Y-39521216D01*
X44642179Y-39357284D01*
X44700674Y-39177256D01*
X44720460Y-38989000D01*
X44701773Y-38811200D01*
X66836340Y-38811200D01*
X66856126Y-38999456D01*
X66856127Y-38999459D01*
X66914618Y-39179477D01*
X66914621Y-39179484D01*
X67009267Y-39343416D01*
X67135929Y-39484088D01*
X67289065Y-39595348D01*
X67289070Y-39595351D01*
X67461992Y-39672342D01*
X67461997Y-39672344D01*
X67647154Y-39711700D01*
X67647155Y-39711700D01*
X67836444Y-39711700D01*
X67836446Y-39711700D01*
X68021603Y-39672344D01*
X68194530Y-39595351D01*
X68347671Y-39484088D01*
X68474333Y-39343416D01*
X68568979Y-39179484D01*
X68627474Y-38999456D01*
X68647260Y-38811200D01*
X68627474Y-38622944D01*
X68568979Y-38442916D01*
X68474333Y-38278984D01*
X68347671Y-38138312D01*
X68333281Y-38127857D01*
X68194534Y-38027051D01*
X68194529Y-38027048D01*
X68021607Y-37950057D01*
X68021602Y-37950055D01*
X67865309Y-37916835D01*
X67836446Y-37910700D01*
X67647154Y-37910700D01*
X67618291Y-37916835D01*
X67461997Y-37950055D01*
X67461992Y-37950057D01*
X67289070Y-38027048D01*
X67289065Y-38027051D01*
X67135929Y-38138311D01*
X67009266Y-38278985D01*
X66914621Y-38442915D01*
X66914618Y-38442922D01*
X66856850Y-38620715D01*
X66856126Y-38622944D01*
X66836340Y-38811200D01*
X44701773Y-38811200D01*
X44700674Y-38800744D01*
X44642179Y-38620716D01*
X44547533Y-38456784D01*
X44420871Y-38316112D01*
X44420870Y-38316111D01*
X44267734Y-38204851D01*
X44267729Y-38204848D01*
X44094807Y-38127857D01*
X44094802Y-38127855D01*
X43949001Y-38096865D01*
X43909646Y-38088500D01*
X43882191Y-38088500D01*
X43815152Y-38068815D01*
X43769397Y-38016011D01*
X43759453Y-37946853D01*
X43764260Y-37926182D01*
X43784903Y-37862649D01*
X43811674Y-37780256D01*
X43831460Y-37592000D01*
X43811674Y-37403744D01*
X43753179Y-37223716D01*
X43658533Y-37059784D01*
X43531871Y-36919112D01*
X43531870Y-36919111D01*
X43378734Y-36807851D01*
X43378729Y-36807848D01*
X43205807Y-36730857D01*
X43205802Y-36730855D01*
X43060001Y-36699865D01*
X43020646Y-36691500D01*
X42831354Y-36691500D01*
X42798897Y-36698398D01*
X42646197Y-36730855D01*
X42646192Y-36730857D01*
X42473270Y-36807848D01*
X42473265Y-36807851D01*
X42320129Y-36919111D01*
X42193466Y-37059785D01*
X42098821Y-37223715D01*
X42098818Y-37223722D01*
X42068884Y-37315851D01*
X42040326Y-37403744D01*
X42020540Y-37592000D01*
X34739921Y-37592000D01*
X34645433Y-37523350D01*
X34645428Y-37523347D01*
X34472506Y-37446356D01*
X34472501Y-37446354D01*
X34326699Y-37415364D01*
X34287345Y-37406999D01*
X34098053Y-37406999D01*
X34065596Y-37413897D01*
X33912896Y-37446354D01*
X33912891Y-37446356D01*
X33739969Y-37523347D01*
X33739964Y-37523350D01*
X33586828Y-37634610D01*
X33460165Y-37775284D01*
X33365520Y-37939214D01*
X33365517Y-37939221D01*
X33313277Y-38100000D01*
X33307025Y-38119243D01*
X33287239Y-38307499D01*
X29327422Y-38307499D01*
X29333674Y-38288256D01*
X29353460Y-38100000D01*
X29333674Y-37911744D01*
X29275179Y-37731716D01*
X29180533Y-37567784D01*
X29053871Y-37427112D01*
X29053870Y-37427111D01*
X28900734Y-37315851D01*
X28900729Y-37315848D01*
X28727807Y-37238857D01*
X28727802Y-37238855D01*
X28582000Y-37207865D01*
X28542646Y-37199500D01*
X28353354Y-37199500D01*
X28320897Y-37206398D01*
X28168197Y-37238855D01*
X28168192Y-37238857D01*
X27995270Y-37315848D01*
X27995265Y-37315851D01*
X27842129Y-37427111D01*
X27715466Y-37567785D01*
X27620821Y-37731715D01*
X27620818Y-37731722D01*
X27578278Y-37862649D01*
X27562326Y-37911744D01*
X27550207Y-38027049D01*
X27542700Y-38098482D01*
X27542540Y-38100000D01*
X27562326Y-38288256D01*
X27562327Y-38288259D01*
X27620818Y-38468277D01*
X27620823Y-38468289D01*
X27715467Y-38632218D01*
X27731940Y-38700118D01*
X27709087Y-38766145D01*
X27654166Y-38809335D01*
X27584612Y-38815976D01*
X27580764Y-38814984D01*
X27580760Y-38815007D01*
X27485455Y-38794749D01*
X27389246Y-38774300D01*
X27199954Y-38774300D01*
X27167497Y-38781198D01*
X27014797Y-38813655D01*
X27014792Y-38813657D01*
X26841870Y-38890648D01*
X26841865Y-38890651D01*
X26683471Y-39005731D01*
X26681876Y-39003536D01*
X26629661Y-39028563D01*
X26560330Y-39019905D01*
X26536855Y-39006492D01*
X26447334Y-38941451D01*
X26447329Y-38941448D01*
X26274407Y-38864457D01*
X26274402Y-38864455D01*
X26128600Y-38833465D01*
X26089246Y-38825100D01*
X25899954Y-38825100D01*
X25867497Y-38831998D01*
X25714797Y-38864455D01*
X25714792Y-38864457D01*
X25541870Y-38941448D01*
X25541865Y-38941451D01*
X25388729Y-39052711D01*
X25262066Y-39193385D01*
X25167421Y-39357315D01*
X25167418Y-39357322D01*
X25126230Y-39484088D01*
X25108926Y-39537344D01*
X25089140Y-39725600D01*
X18141382Y-39725600D01*
X18132274Y-39638944D01*
X18073779Y-39458916D01*
X18014623Y-39356455D01*
X17998151Y-39288557D01*
X18021004Y-39222530D01*
X18029855Y-39211492D01*
X18094033Y-39140216D01*
X18188679Y-38976284D01*
X18247174Y-38796256D01*
X18266960Y-38608000D01*
X18247174Y-38419744D01*
X18188679Y-38239716D01*
X18094033Y-38075784D01*
X18021273Y-37994976D01*
X17991043Y-37931985D01*
X17999668Y-37862649D01*
X18021273Y-37829033D01*
X18029933Y-37819416D01*
X18124579Y-37655484D01*
X18183074Y-37475456D01*
X18202860Y-37287200D01*
X18183074Y-37098944D01*
X18126723Y-36925517D01*
X18124729Y-36855677D01*
X18160809Y-36795844D01*
X18223510Y-36765016D01*
X18244655Y-36763200D01*
X18357848Y-36763200D01*
X18357855Y-36763200D01*
X18487611Y-36748034D01*
X18651484Y-36688389D01*
X18797184Y-36592560D01*
X18916858Y-36465713D01*
X19004053Y-36314687D01*
X19054068Y-36147623D01*
X19059121Y-36060871D01*
X19594592Y-36060871D01*
X19609887Y-36147618D01*
X19624874Y-36232612D01*
X19693947Y-36392739D01*
X19798085Y-36532622D01*
X19798086Y-36532623D01*
X19798088Y-36532625D01*
X19869518Y-36592561D01*
X19931675Y-36644717D01*
X20087516Y-36722983D01*
X20257205Y-36763200D01*
X20257207Y-36763200D01*
X20271615Y-36763200D01*
X20338654Y-36782885D01*
X20384409Y-36835689D01*
X20394353Y-36904847D01*
X20382967Y-36937720D01*
X20384462Y-36938386D01*
X20381818Y-36944322D01*
X20331580Y-37098940D01*
X20323326Y-37124344D01*
X20303540Y-37312600D01*
X20323326Y-37500856D01*
X20323327Y-37500859D01*
X20381818Y-37680877D01*
X20381821Y-37680884D01*
X20476466Y-37844815D01*
X20482869Y-37851926D01*
X20513099Y-37914917D01*
X20504475Y-37984253D01*
X20482876Y-38017864D01*
X20476469Y-38024979D01*
X20476466Y-38024984D01*
X20381821Y-38188915D01*
X20381818Y-38188922D01*
X20340492Y-38316112D01*
X20323326Y-38368944D01*
X20303540Y-38557200D01*
X20323326Y-38745456D01*
X20323327Y-38745459D01*
X20381818Y-38925477D01*
X20381821Y-38925484D01*
X20476467Y-39089416D01*
X20583240Y-39207999D01*
X20603129Y-39230088D01*
X20756265Y-39341348D01*
X20756270Y-39341351D01*
X20929192Y-39418342D01*
X20929197Y-39418344D01*
X21114354Y-39457700D01*
X21114355Y-39457700D01*
X21303644Y-39457700D01*
X21303646Y-39457700D01*
X21488803Y-39418344D01*
X21661730Y-39341351D01*
X21814871Y-39230088D01*
X21941533Y-39089416D01*
X22036179Y-38925484D01*
X22094674Y-38745456D01*
X22114460Y-38557200D01*
X22094674Y-38368944D01*
X22036179Y-38188916D01*
X21941533Y-38024984D01*
X21935129Y-38017872D01*
X21904900Y-37954882D01*
X21913524Y-37885547D01*
X21935130Y-37851927D01*
X21935131Y-37851926D01*
X21941533Y-37844816D01*
X22036179Y-37680884D01*
X22094674Y-37500856D01*
X22114460Y-37312600D01*
X22094674Y-37124344D01*
X22036179Y-36944316D01*
X21941533Y-36780384D01*
X21814871Y-36639712D01*
X21779911Y-36614312D01*
X21661734Y-36528451D01*
X21661729Y-36528448D01*
X21488807Y-36451457D01*
X21488802Y-36451455D01*
X21343001Y-36420465D01*
X21303646Y-36412100D01*
X21171450Y-36412100D01*
X21104411Y-36392415D01*
X21058656Y-36339611D01*
X21056124Y-36322000D01*
X43798540Y-36322000D01*
X43818326Y-36510256D01*
X43818327Y-36510259D01*
X43876818Y-36690277D01*
X43876821Y-36690284D01*
X43971467Y-36854216D01*
X44052593Y-36944315D01*
X44098129Y-36994888D01*
X44251265Y-37106148D01*
X44251270Y-37106151D01*
X44424192Y-37183142D01*
X44424197Y-37183144D01*
X44609354Y-37222500D01*
X44609355Y-37222500D01*
X44798644Y-37222500D01*
X44798646Y-37222500D01*
X44983803Y-37183144D01*
X45156730Y-37106151D01*
X45309871Y-36994888D01*
X45436533Y-36854216D01*
X45531179Y-36690284D01*
X45589674Y-36510256D01*
X45609460Y-36322002D01*
X54534723Y-36322002D01*
X54543826Y-36426055D01*
X54552784Y-36528449D01*
X54553793Y-36539975D01*
X54553793Y-36539979D01*
X54610422Y-36751322D01*
X54610424Y-36751326D01*
X54610425Y-36751330D01*
X54636780Y-36807848D01*
X54702897Y-36949638D01*
X54702898Y-36949639D01*
X54828402Y-37128877D01*
X54983123Y-37283598D01*
X55162361Y-37409102D01*
X55360670Y-37501575D01*
X55572023Y-37558207D01*
X55754926Y-37574208D01*
X55789998Y-37577277D01*
X55790000Y-37577277D01*
X55790002Y-37577277D01*
X55818254Y-37574805D01*
X56007977Y-37558207D01*
X56219330Y-37501575D01*
X56417639Y-37409102D01*
X56596877Y-37283598D01*
X56751598Y-37128877D01*
X56877102Y-36949639D01*
X56969575Y-36751330D01*
X57026207Y-36539977D01*
X57045277Y-36322002D01*
X62034723Y-36322002D01*
X62043826Y-36426055D01*
X62052784Y-36528449D01*
X62053793Y-36539975D01*
X62053793Y-36539979D01*
X62110422Y-36751322D01*
X62110424Y-36751326D01*
X62110425Y-36751330D01*
X62136780Y-36807848D01*
X62202897Y-36949638D01*
X62202898Y-36949639D01*
X62328402Y-37128877D01*
X62483123Y-37283598D01*
X62662361Y-37409102D01*
X62860670Y-37501575D01*
X63072023Y-37558207D01*
X63254926Y-37574208D01*
X63289998Y-37577277D01*
X63290000Y-37577277D01*
X63290002Y-37577277D01*
X63318254Y-37574805D01*
X63507977Y-37558207D01*
X63719330Y-37501575D01*
X63917639Y-37409102D01*
X64096877Y-37283598D01*
X64251598Y-37128877D01*
X64377102Y-36949639D01*
X64469575Y-36751330D01*
X64526207Y-36539977D01*
X64545277Y-36322000D01*
X64544637Y-36314688D01*
X64539200Y-36252537D01*
X64526207Y-36104023D01*
X64469575Y-35892670D01*
X64377102Y-35694362D01*
X64377100Y-35694359D01*
X64377099Y-35694357D01*
X64251599Y-35515124D01*
X64178312Y-35441837D01*
X64096877Y-35360402D01*
X63917639Y-35234898D01*
X63917640Y-35234898D01*
X63917638Y-35234897D01*
X63801814Y-35180888D01*
X63719330Y-35142425D01*
X63719326Y-35142424D01*
X63719322Y-35142422D01*
X63507977Y-35085793D01*
X63290002Y-35066723D01*
X63289998Y-35066723D01*
X63144681Y-35079436D01*
X63072023Y-35085793D01*
X63072020Y-35085793D01*
X62860677Y-35142422D01*
X62860668Y-35142426D01*
X62662361Y-35234898D01*
X62662357Y-35234900D01*
X62483121Y-35360402D01*
X62328402Y-35515121D01*
X62202900Y-35694357D01*
X62202898Y-35694361D01*
X62110426Y-35892668D01*
X62110422Y-35892677D01*
X62053793Y-36104020D01*
X62053793Y-36104024D01*
X62034723Y-36321997D01*
X62034723Y-36322002D01*
X57045277Y-36322002D01*
X57045277Y-36322000D01*
X57044637Y-36314688D01*
X57039200Y-36252537D01*
X57026207Y-36104023D01*
X56969575Y-35892670D01*
X56877102Y-35694362D01*
X56877100Y-35694359D01*
X56877099Y-35694357D01*
X56751599Y-35515124D01*
X56678312Y-35441837D01*
X56596877Y-35360402D01*
X56417639Y-35234898D01*
X56417640Y-35234898D01*
X56417638Y-35234897D01*
X56301814Y-35180888D01*
X56219330Y-35142425D01*
X56219326Y-35142424D01*
X56219322Y-35142422D01*
X56007977Y-35085793D01*
X55790002Y-35066723D01*
X55789998Y-35066723D01*
X55644682Y-35079436D01*
X55572023Y-35085793D01*
X55572020Y-35085793D01*
X55360677Y-35142422D01*
X55360668Y-35142426D01*
X55162361Y-35234898D01*
X55162357Y-35234900D01*
X54983121Y-35360402D01*
X54828402Y-35515121D01*
X54702900Y-35694357D01*
X54702898Y-35694361D01*
X54610426Y-35892668D01*
X54610422Y-35892677D01*
X54553793Y-36104020D01*
X54553793Y-36104024D01*
X54534723Y-36321997D01*
X54534723Y-36322002D01*
X45609460Y-36322002D01*
X45609460Y-36322000D01*
X45589674Y-36133744D01*
X45531179Y-35953716D01*
X45436533Y-35789784D01*
X45309871Y-35649112D01*
X45299616Y-35641661D01*
X45156734Y-35537851D01*
X45156729Y-35537848D01*
X44983807Y-35460857D01*
X44983802Y-35460855D01*
X44838000Y-35429865D01*
X44798646Y-35421500D01*
X44609354Y-35421500D01*
X44576897Y-35428398D01*
X44424197Y-35460855D01*
X44424192Y-35460857D01*
X44251270Y-35537848D01*
X44251265Y-35537851D01*
X44098129Y-35649111D01*
X43971466Y-35789785D01*
X43876821Y-35953715D01*
X43876818Y-35953722D01*
X43818327Y-36133740D01*
X43818326Y-36133744D01*
X43798540Y-36322000D01*
X21056124Y-36322000D01*
X21048712Y-36270453D01*
X21052659Y-36252537D01*
X21084068Y-36147623D01*
X21094208Y-35973529D01*
X21063926Y-35801788D01*
X20994853Y-35641661D01*
X20890715Y-35501778D01*
X20890712Y-35501776D01*
X20890711Y-35501774D01*
X20757125Y-35389683D01*
X20757123Y-35389682D01*
X20601287Y-35311418D01*
X20601285Y-35311417D01*
X20601284Y-35311417D01*
X20431595Y-35271200D01*
X20300945Y-35271200D01*
X20200023Y-35282995D01*
X20171187Y-35286366D01*
X20171185Y-35286367D01*
X20007317Y-35346010D01*
X20007313Y-35346012D01*
X19861618Y-35441837D01*
X19861617Y-35441838D01*
X19741943Y-35568685D01*
X19741939Y-35568690D01*
X19654747Y-35719711D01*
X19604733Y-35886773D01*
X19604731Y-35886781D01*
X19594592Y-36060870D01*
X19594592Y-36060871D01*
X19059121Y-36060871D01*
X19064208Y-35973529D01*
X19033926Y-35801788D01*
X18964853Y-35641661D01*
X18860715Y-35501778D01*
X18860712Y-35501776D01*
X18860711Y-35501774D01*
X18727125Y-35389683D01*
X18727123Y-35389682D01*
X18571287Y-35311418D01*
X18571285Y-35311417D01*
X18571284Y-35311417D01*
X18401595Y-35271200D01*
X18270945Y-35271200D01*
X18170023Y-35282995D01*
X18141187Y-35286366D01*
X18141185Y-35286367D01*
X17977317Y-35346010D01*
X17977313Y-35346012D01*
X17831618Y-35441837D01*
X17831617Y-35441838D01*
X17711943Y-35568685D01*
X17711939Y-35568690D01*
X17624747Y-35719711D01*
X17574733Y-35886773D01*
X17574731Y-35886781D01*
X17564592Y-36060870D01*
X17564592Y-36060871D01*
X17594873Y-36232612D01*
X17596945Y-36239530D01*
X17594815Y-36240167D01*
X17601983Y-36298786D01*
X17571621Y-36361714D01*
X17512058Y-36398238D01*
X17453866Y-36399840D01*
X17443084Y-36397548D01*
X17392046Y-36386700D01*
X17202754Y-36386700D01*
X17170297Y-36393598D01*
X17017597Y-36426055D01*
X17017592Y-36426057D01*
X16844670Y-36503048D01*
X16844665Y-36503051D01*
X16691529Y-36614311D01*
X16564866Y-36754985D01*
X16470221Y-36918915D01*
X16470218Y-36918922D01*
X16411727Y-37098940D01*
X16411726Y-37098944D01*
X16398740Y-37222500D01*
X16392319Y-37283598D01*
X16391940Y-37287200D01*
X16411726Y-37475456D01*
X16411727Y-37475459D01*
X16470218Y-37655477D01*
X16470221Y-37655484D01*
X16542259Y-37780259D01*
X16564867Y-37819416D01*
X16637625Y-37900222D01*
X16667856Y-37963213D01*
X16659231Y-38032548D01*
X16637630Y-38066162D01*
X16628966Y-38075785D01*
X16534321Y-38239715D01*
X16534318Y-38239722D01*
X16509498Y-38316112D01*
X16475826Y-38419744D01*
X16456040Y-38608000D01*
X16475826Y-38796256D01*
X16475827Y-38796259D01*
X16534318Y-38976277D01*
X16534321Y-38976284D01*
X16593475Y-39078742D01*
X16609948Y-39146643D01*
X16587095Y-39212669D01*
X16578238Y-39223714D01*
X16514066Y-39294984D01*
X16419421Y-39458915D01*
X16419418Y-39458922D01*
X16375091Y-39595348D01*
X16360926Y-39638944D01*
X16341140Y-39827200D01*
X116500Y-39827200D01*
X116500Y-38100000D01*
X8873540Y-38100000D01*
X8893326Y-38288256D01*
X8893327Y-38288259D01*
X8951818Y-38468277D01*
X8951821Y-38468284D01*
X9046467Y-38632216D01*
X9132346Y-38727594D01*
X9173129Y-38772888D01*
X9326265Y-38884148D01*
X9326270Y-38884151D01*
X9499192Y-38961142D01*
X9499197Y-38961144D01*
X9684354Y-39000500D01*
X9684355Y-39000500D01*
X9873644Y-39000500D01*
X9873646Y-39000500D01*
X10058803Y-38961144D01*
X10231730Y-38884151D01*
X10384871Y-38772888D01*
X10511533Y-38632216D01*
X10606179Y-38468284D01*
X10664674Y-38288256D01*
X10684460Y-38100000D01*
X10664674Y-37911744D01*
X10606179Y-37731716D01*
X10511533Y-37567784D01*
X10384871Y-37427112D01*
X10384870Y-37427111D01*
X10231734Y-37315851D01*
X10231729Y-37315848D01*
X10058807Y-37238857D01*
X10058802Y-37238855D01*
X9913000Y-37207865D01*
X9873646Y-37199500D01*
X9684354Y-37199500D01*
X9651897Y-37206398D01*
X9499197Y-37238855D01*
X9499192Y-37238857D01*
X9326270Y-37315848D01*
X9326265Y-37315851D01*
X9173129Y-37427111D01*
X9046466Y-37567785D01*
X8951821Y-37731715D01*
X8951818Y-37731722D01*
X8909278Y-37862649D01*
X8893326Y-37911744D01*
X8881207Y-38027049D01*
X8873700Y-38098482D01*
X8873540Y-38100000D01*
X116500Y-38100000D01*
X116500Y-34163000D01*
X9127540Y-34163000D01*
X9147326Y-34351256D01*
X9147327Y-34351259D01*
X9205818Y-34531277D01*
X9205821Y-34531284D01*
X9300467Y-34695216D01*
X9427128Y-34835888D01*
X9427129Y-34835888D01*
X9580265Y-34947148D01*
X9580270Y-34947151D01*
X9753192Y-35024142D01*
X9753197Y-35024144D01*
X9938354Y-35063500D01*
X9938355Y-35063500D01*
X10127644Y-35063500D01*
X10127646Y-35063500D01*
X10312803Y-35024144D01*
X10485730Y-34947151D01*
X10638871Y-34835888D01*
X10765533Y-34695216D01*
X10860179Y-34531284D01*
X10867744Y-34508000D01*
X29244340Y-34508000D01*
X29264126Y-34696256D01*
X29264127Y-34696259D01*
X29322618Y-34876277D01*
X29322621Y-34876284D01*
X29417267Y-35040216D01*
X29458305Y-35085793D01*
X29543929Y-35180888D01*
X29697065Y-35292148D01*
X29697070Y-35292151D01*
X29869992Y-35369142D01*
X29869997Y-35369144D01*
X30055154Y-35408500D01*
X30055155Y-35408500D01*
X30244444Y-35408500D01*
X30244446Y-35408500D01*
X30429603Y-35369144D01*
X30602530Y-35292151D01*
X30755671Y-35180888D01*
X30882333Y-35040216D01*
X30976979Y-34876284D01*
X31035474Y-34696256D01*
X31055260Y-34508000D01*
X31035474Y-34319744D01*
X30976979Y-34139716D01*
X30882333Y-33975784D01*
X30755671Y-33835112D01*
X30700079Y-33794722D01*
X30602534Y-33723851D01*
X30602529Y-33723848D01*
X30429607Y-33646857D01*
X30429602Y-33646855D01*
X30283800Y-33615865D01*
X30244446Y-33607500D01*
X30055154Y-33607500D01*
X30022697Y-33614398D01*
X29869997Y-33646855D01*
X29869992Y-33646857D01*
X29697070Y-33723848D01*
X29697065Y-33723851D01*
X29543929Y-33835111D01*
X29417266Y-33975785D01*
X29322621Y-34139715D01*
X29322618Y-34139722D01*
X29264127Y-34319740D01*
X29264126Y-34319744D01*
X29244340Y-34508000D01*
X10867744Y-34508000D01*
X10918674Y-34351256D01*
X10938460Y-34163000D01*
X10918674Y-33974744D01*
X10860179Y-33794716D01*
X10765533Y-33630784D01*
X10638871Y-33490112D01*
X10638870Y-33490111D01*
X10485734Y-33378851D01*
X10485729Y-33378848D01*
X10312807Y-33301857D01*
X10312802Y-33301855D01*
X10167000Y-33270865D01*
X10127646Y-33262500D01*
X9938354Y-33262500D01*
X9905897Y-33269398D01*
X9753197Y-33301855D01*
X9753192Y-33301857D01*
X9580270Y-33378848D01*
X9580265Y-33378851D01*
X9427129Y-33490111D01*
X9300466Y-33630785D01*
X9205821Y-33794715D01*
X9205818Y-33794722D01*
X9192695Y-33835112D01*
X9147326Y-33974744D01*
X9127540Y-34163000D01*
X116500Y-34163000D01*
X116500Y-32867600D01*
X32927340Y-32867600D01*
X32947126Y-33055856D01*
X32947127Y-33055859D01*
X33005618Y-33235877D01*
X33005621Y-33235884D01*
X33100267Y-33399816D01*
X33181570Y-33490112D01*
X33226929Y-33540488D01*
X33380065Y-33651748D01*
X33380070Y-33651751D01*
X33552992Y-33728742D01*
X33552997Y-33728744D01*
X33738154Y-33768100D01*
X33738155Y-33768100D01*
X33927444Y-33768100D01*
X33927446Y-33768100D01*
X34112603Y-33728744D01*
X34285530Y-33651751D01*
X34438671Y-33540488D01*
X34565333Y-33399816D01*
X34659979Y-33235884D01*
X34718474Y-33055856D01*
X34738260Y-32867600D01*
X34718474Y-32679344D01*
X34695818Y-32609618D01*
X34679313Y-32558818D01*
X34677318Y-32488977D01*
X34713398Y-32429144D01*
X34776099Y-32398316D01*
X34797244Y-32396500D01*
X34968844Y-32396500D01*
X34968846Y-32396500D01*
X35154003Y-32357144D01*
X35326930Y-32280151D01*
X35480071Y-32168888D01*
X35606733Y-32028216D01*
X35701379Y-31864284D01*
X35759874Y-31684256D01*
X35779660Y-31496000D01*
X35759874Y-31307744D01*
X35701379Y-31127716D01*
X35606733Y-30963784D01*
X35480071Y-30823112D01*
X35447908Y-30799744D01*
X35326934Y-30711851D01*
X35326929Y-30711848D01*
X35154007Y-30634857D01*
X35154002Y-30634855D01*
X35142452Y-30632400D01*
X46465540Y-30632400D01*
X46485326Y-30820656D01*
X46485327Y-30820659D01*
X46543818Y-31000677D01*
X46543821Y-31000684D01*
X46638467Y-31164616D01*
X46765128Y-31305288D01*
X46765129Y-31305288D01*
X46918265Y-31416548D01*
X46918270Y-31416551D01*
X47091192Y-31493542D01*
X47091197Y-31493544D01*
X47276354Y-31532900D01*
X47276355Y-31532900D01*
X47361242Y-31532900D01*
X47428281Y-31552585D01*
X47474036Y-31605389D01*
X47483980Y-31674547D01*
X47465890Y-31719102D01*
X47467716Y-31720156D01*
X47369821Y-31889715D01*
X47369818Y-31889722D01*
X47324820Y-32028214D01*
X47311326Y-32069744D01*
X47291540Y-32258000D01*
X47311326Y-32446256D01*
X47311327Y-32446259D01*
X47369818Y-32626277D01*
X47369821Y-32626284D01*
X47464467Y-32790216D01*
X47534144Y-32867600D01*
X47591129Y-32930888D01*
X47744265Y-33042148D01*
X47744270Y-33042151D01*
X47917192Y-33119142D01*
X47917197Y-33119144D01*
X48102354Y-33158500D01*
X48102355Y-33158500D01*
X48291644Y-33158500D01*
X48291646Y-33158500D01*
X48476803Y-33119144D01*
X48649730Y-33042151D01*
X48802871Y-32930888D01*
X48929533Y-32790216D01*
X49024179Y-32626284D01*
X49082674Y-32446256D01*
X49102460Y-32258000D01*
X49082674Y-32069744D01*
X49024179Y-31889716D01*
X48929533Y-31725784D01*
X48802871Y-31585112D01*
X48802870Y-31585111D01*
X48649734Y-31473851D01*
X48649729Y-31473848D01*
X48476807Y-31396857D01*
X48476802Y-31396855D01*
X48331000Y-31365865D01*
X48291646Y-31357500D01*
X48206758Y-31357500D01*
X48139719Y-31337815D01*
X48093964Y-31285011D01*
X48084020Y-31215853D01*
X48102109Y-31171297D01*
X48100284Y-31170244D01*
X48124838Y-31127715D01*
X48198179Y-31000684D01*
X48256674Y-30820656D01*
X48276460Y-30632400D01*
X48256674Y-30444144D01*
X48198179Y-30264116D01*
X48103533Y-30100184D01*
X47976871Y-29959512D01*
X47976870Y-29959511D01*
X47823734Y-29848251D01*
X47823729Y-29848248D01*
X47650807Y-29771257D01*
X47650802Y-29771255D01*
X47505000Y-29740265D01*
X47465646Y-29731900D01*
X47276354Y-29731900D01*
X47243897Y-29738798D01*
X47091197Y-29771255D01*
X47091192Y-29771257D01*
X46918270Y-29848248D01*
X46918265Y-29848251D01*
X46765129Y-29959511D01*
X46638466Y-30100185D01*
X46543821Y-30264115D01*
X46543818Y-30264122D01*
X46492688Y-30421485D01*
X46485326Y-30444144D01*
X46465540Y-30632400D01*
X35142452Y-30632400D01*
X35008201Y-30603865D01*
X34968846Y-30595500D01*
X34779554Y-30595500D01*
X34747097Y-30602398D01*
X34594397Y-30634855D01*
X34594392Y-30634857D01*
X34421470Y-30711848D01*
X34421465Y-30711851D01*
X34268329Y-30823111D01*
X34141666Y-30963785D01*
X34047021Y-31127715D01*
X34047018Y-31127722D01*
X34018383Y-31215853D01*
X33988526Y-31307744D01*
X33968740Y-31496000D01*
X33988526Y-31684256D01*
X33988527Y-31684259D01*
X34027687Y-31804782D01*
X34029682Y-31874623D01*
X33993602Y-31934456D01*
X33930901Y-31965284D01*
X33909756Y-31967100D01*
X33738154Y-31967100D01*
X33705697Y-31973998D01*
X33552997Y-32006455D01*
X33552992Y-32006457D01*
X33380070Y-32083448D01*
X33380065Y-32083451D01*
X33226929Y-32194711D01*
X33100266Y-32335385D01*
X33005621Y-32499315D01*
X33005618Y-32499322D01*
X32964366Y-32626284D01*
X32947126Y-32679344D01*
X32927340Y-32867600D01*
X116500Y-32867600D01*
X116500Y-30988000D01*
X23605540Y-30988000D01*
X23625326Y-31176256D01*
X23625327Y-31176259D01*
X23683818Y-31356277D01*
X23683821Y-31356284D01*
X23778467Y-31520216D01*
X23905129Y-31660888D01*
X24058265Y-31772148D01*
X24058270Y-31772151D01*
X24231192Y-31849142D01*
X24231197Y-31849144D01*
X24416354Y-31888500D01*
X24416355Y-31888500D01*
X24605644Y-31888500D01*
X24605646Y-31888500D01*
X24790803Y-31849144D01*
X24963730Y-31772151D01*
X25116871Y-31660888D01*
X25180850Y-31589831D01*
X25240337Y-31553183D01*
X25310194Y-31554514D01*
X25365149Y-31589831D01*
X25429128Y-31660888D01*
X25429129Y-31660888D01*
X25582265Y-31772148D01*
X25582270Y-31772151D01*
X25755192Y-31849142D01*
X25755197Y-31849144D01*
X25940354Y-31888500D01*
X25940355Y-31888500D01*
X26129644Y-31888500D01*
X26129646Y-31888500D01*
X26314803Y-31849144D01*
X26487730Y-31772151D01*
X26640871Y-31660888D01*
X26767533Y-31520216D01*
X26862179Y-31356284D01*
X26920674Y-31176256D01*
X26940460Y-30988000D01*
X26920674Y-30799744D01*
X26862179Y-30619716D01*
X26781514Y-30480000D01*
X31225540Y-30480000D01*
X31245326Y-30668256D01*
X31245327Y-30668259D01*
X31303818Y-30848277D01*
X31303821Y-30848284D01*
X31398467Y-31012216D01*
X31525128Y-31152888D01*
X31525129Y-31152888D01*
X31678265Y-31264148D01*
X31678270Y-31264151D01*
X31851192Y-31341142D01*
X31851197Y-31341144D01*
X32036354Y-31380500D01*
X32036355Y-31380500D01*
X32225644Y-31380500D01*
X32225646Y-31380500D01*
X32410803Y-31341144D01*
X32583730Y-31264151D01*
X32736871Y-31152888D01*
X32863533Y-31012216D01*
X32958179Y-30848284D01*
X33016674Y-30668256D01*
X33036460Y-30480000D01*
X33016674Y-30291744D01*
X32958179Y-30111716D01*
X32863533Y-29947784D01*
X32736871Y-29807112D01*
X32687521Y-29771257D01*
X32583734Y-29695851D01*
X32583729Y-29695848D01*
X32410807Y-29618857D01*
X32410802Y-29618855D01*
X32265001Y-29587865D01*
X32225646Y-29579500D01*
X32036354Y-29579500D01*
X32003897Y-29586398D01*
X31851197Y-29618855D01*
X31851192Y-29618857D01*
X31678270Y-29695848D01*
X31678265Y-29695851D01*
X31525129Y-29807111D01*
X31398466Y-29947785D01*
X31303821Y-30111715D01*
X31303818Y-30111722D01*
X31273884Y-30203851D01*
X31245326Y-30291744D01*
X31225540Y-30480000D01*
X26781514Y-30480000D01*
X26767533Y-30455784D01*
X26640871Y-30315112D01*
X26608708Y-30291744D01*
X26487734Y-30203851D01*
X26487729Y-30203848D01*
X26314807Y-30126857D01*
X26314802Y-30126855D01*
X26169000Y-30095865D01*
X26129646Y-30087500D01*
X25940354Y-30087500D01*
X25907897Y-30094398D01*
X25755197Y-30126855D01*
X25755192Y-30126857D01*
X25582270Y-30203848D01*
X25582265Y-30203851D01*
X25429129Y-30315111D01*
X25429128Y-30315112D01*
X25365149Y-30386168D01*
X25305663Y-30422816D01*
X25235806Y-30421485D01*
X25180851Y-30386168D01*
X25116871Y-30315112D01*
X25116870Y-30315111D01*
X24963734Y-30203851D01*
X24963729Y-30203848D01*
X24790807Y-30126857D01*
X24790802Y-30126855D01*
X24645001Y-30095865D01*
X24605646Y-30087500D01*
X24416354Y-30087500D01*
X24383897Y-30094398D01*
X24231197Y-30126855D01*
X24231192Y-30126857D01*
X24058270Y-30203848D01*
X24058265Y-30203851D01*
X23905129Y-30315111D01*
X23778466Y-30455785D01*
X23683821Y-30619715D01*
X23683818Y-30619722D01*
X23653884Y-30711851D01*
X23625326Y-30799744D01*
X23605540Y-30988000D01*
X116500Y-30988000D01*
X116500Y-29297000D01*
X5250341Y-29297000D01*
X5270936Y-29532403D01*
X5270938Y-29532413D01*
X5332094Y-29760655D01*
X5332096Y-29760659D01*
X5332097Y-29760663D01*
X5353757Y-29807112D01*
X5431964Y-29974828D01*
X5431965Y-29974830D01*
X5567505Y-30168402D01*
X5734597Y-30335494D01*
X5928169Y-30471034D01*
X5928171Y-30471035D01*
X6142337Y-30570903D01*
X6370592Y-30632063D01*
X6547032Y-30647499D01*
X6547033Y-30647500D01*
X6547034Y-30647500D01*
X6914967Y-30647500D01*
X6914967Y-30647499D01*
X7091408Y-30632063D01*
X7319663Y-30570903D01*
X7533829Y-30471035D01*
X7727401Y-30335495D01*
X7894495Y-30168401D01*
X8030035Y-29974830D01*
X8129903Y-29760663D01*
X8191063Y-29532408D01*
X8208159Y-29337000D01*
X21446540Y-29337000D01*
X21466326Y-29525256D01*
X21466327Y-29525259D01*
X21524818Y-29705277D01*
X21524821Y-29705284D01*
X21619467Y-29869216D01*
X21700770Y-29959512D01*
X21746129Y-30009888D01*
X21899265Y-30121148D01*
X21899270Y-30121151D01*
X22072192Y-30198142D01*
X22072197Y-30198144D01*
X22257354Y-30237500D01*
X22257355Y-30237500D01*
X22446644Y-30237500D01*
X22446646Y-30237500D01*
X22631803Y-30198144D01*
X22804730Y-30121151D01*
X22957871Y-30009888D01*
X23084533Y-29869216D01*
X23179179Y-29705284D01*
X23237674Y-29525256D01*
X23239488Y-29508000D01*
X37270740Y-29508000D01*
X37290526Y-29696256D01*
X37290527Y-29696259D01*
X37349018Y-29876277D01*
X37349021Y-29876284D01*
X37443667Y-30040216D01*
X37521679Y-30126857D01*
X37570329Y-30180888D01*
X37723465Y-30292148D01*
X37723470Y-30292151D01*
X37896392Y-30369142D01*
X37896397Y-30369144D01*
X38081554Y-30408500D01*
X38081555Y-30408500D01*
X38270844Y-30408500D01*
X38270846Y-30408500D01*
X38456003Y-30369144D01*
X38628930Y-30292151D01*
X38782071Y-30180888D01*
X38908733Y-30040216D01*
X39003379Y-29876284D01*
X39061874Y-29696256D01*
X39081660Y-29508000D01*
X39061874Y-29319744D01*
X39003379Y-29139716D01*
X38941305Y-29032200D01*
X43061940Y-29032200D01*
X43081726Y-29220456D01*
X43081727Y-29220459D01*
X43140218Y-29400477D01*
X43140221Y-29400484D01*
X43234867Y-29564416D01*
X43353209Y-29695848D01*
X43361529Y-29705088D01*
X43514665Y-29816348D01*
X43514670Y-29816351D01*
X43687592Y-29893342D01*
X43687597Y-29893344D01*
X43872754Y-29932700D01*
X43872755Y-29932700D01*
X44062044Y-29932700D01*
X44062046Y-29932700D01*
X44247203Y-29893344D01*
X44420130Y-29816351D01*
X44573271Y-29705088D01*
X44699933Y-29564416D01*
X44794579Y-29400484D01*
X44853074Y-29220456D01*
X44872860Y-29032200D01*
X44853074Y-28843944D01*
X44794579Y-28663916D01*
X44699933Y-28499984D01*
X44573271Y-28359312D01*
X44420131Y-28248050D01*
X44418557Y-28246906D01*
X44375891Y-28191576D01*
X44369912Y-28121963D01*
X44402517Y-28060168D01*
X44441004Y-28033309D01*
X44571630Y-27975151D01*
X44724771Y-27863888D01*
X44851433Y-27723216D01*
X44946079Y-27559284D01*
X45004574Y-27379256D01*
X45024360Y-27191000D01*
X45004574Y-27002744D01*
X44946079Y-26822716D01*
X44851433Y-26658784D01*
X44724771Y-26518112D01*
X44724770Y-26518111D01*
X44571634Y-26406851D01*
X44571629Y-26406848D01*
X44398707Y-26329857D01*
X44398702Y-26329855D01*
X44237276Y-26295544D01*
X44213546Y-26290500D01*
X44024254Y-26290500D01*
X44000524Y-26295544D01*
X43839097Y-26329855D01*
X43839092Y-26329857D01*
X43666170Y-26406848D01*
X43666165Y-26406851D01*
X43513029Y-26518111D01*
X43386366Y-26658785D01*
X43291721Y-26822715D01*
X43291718Y-26822722D01*
X43241360Y-26977710D01*
X43233226Y-27002744D01*
X43213440Y-27191000D01*
X43233226Y-27379256D01*
X43233227Y-27379259D01*
X43291718Y-27559277D01*
X43291721Y-27559284D01*
X43386367Y-27723216D01*
X43487462Y-27835493D01*
X43513029Y-27863888D01*
X43667742Y-27976293D01*
X43710408Y-28031622D01*
X43716387Y-28101236D01*
X43683782Y-28163031D01*
X43645294Y-28189890D01*
X43514667Y-28248050D01*
X43514665Y-28248051D01*
X43361529Y-28359311D01*
X43234866Y-28499985D01*
X43140221Y-28663915D01*
X43140218Y-28663922D01*
X43081727Y-28843940D01*
X43081726Y-28843944D01*
X43061940Y-29032200D01*
X38941305Y-29032200D01*
X38908733Y-28975784D01*
X38782071Y-28835112D01*
X38779628Y-28833337D01*
X38628934Y-28723851D01*
X38628929Y-28723848D01*
X38456007Y-28646857D01*
X38456002Y-28646855D01*
X38310200Y-28615865D01*
X38270846Y-28607500D01*
X38081554Y-28607500D01*
X38049097Y-28614398D01*
X37896397Y-28646855D01*
X37896392Y-28646857D01*
X37723470Y-28723848D01*
X37723465Y-28723851D01*
X37570329Y-28835111D01*
X37443666Y-28975785D01*
X37349021Y-29139715D01*
X37349018Y-29139722D01*
X37297916Y-29296999D01*
X37290526Y-29319744D01*
X37270740Y-29508000D01*
X23239488Y-29508000D01*
X23257460Y-29337000D01*
X23237674Y-29148744D01*
X23179179Y-28968716D01*
X23084533Y-28804784D01*
X22957871Y-28664112D01*
X22957870Y-28664111D01*
X22804734Y-28552851D01*
X22804729Y-28552848D01*
X22631807Y-28475857D01*
X22631802Y-28475855D01*
X22486001Y-28444865D01*
X22446646Y-28436500D01*
X22257354Y-28436500D01*
X22224897Y-28443398D01*
X22072197Y-28475855D01*
X22072192Y-28475857D01*
X21899270Y-28552848D01*
X21899265Y-28552851D01*
X21746129Y-28664111D01*
X21619466Y-28804785D01*
X21524821Y-28968715D01*
X21524818Y-28968722D01*
X21469259Y-29139716D01*
X21466326Y-29148744D01*
X21446540Y-29337000D01*
X8208159Y-29337000D01*
X8211659Y-29297000D01*
X8191063Y-29061592D01*
X8129903Y-28833337D01*
X8030035Y-28619171D01*
X8030034Y-28619169D01*
X7894494Y-28425597D01*
X7727403Y-28258506D01*
X7591049Y-28163031D01*
X7570401Y-28148573D01*
X7526778Y-28093999D01*
X7519584Y-28024500D01*
X7551106Y-27962145D01*
X7570398Y-27945428D01*
X7727401Y-27835495D01*
X7894495Y-27668401D01*
X8030035Y-27474830D01*
X8129903Y-27260663D01*
X8191063Y-27032408D01*
X8211659Y-26797000D01*
X8191063Y-26561592D01*
X8170219Y-26483800D01*
X34722340Y-26483800D01*
X34742126Y-26672056D01*
X34742127Y-26672059D01*
X34800618Y-26852077D01*
X34800621Y-26852084D01*
X34895267Y-27016016D01*
X35002850Y-27135499D01*
X35021929Y-27156688D01*
X35175065Y-27267948D01*
X35175070Y-27267951D01*
X35347992Y-27344942D01*
X35347997Y-27344944D01*
X35533154Y-27384300D01*
X35533155Y-27384300D01*
X35722444Y-27384300D01*
X35722446Y-27384300D01*
X35907603Y-27344944D01*
X36080530Y-27267951D01*
X36233671Y-27156688D01*
X36360333Y-27016016D01*
X36454979Y-26852084D01*
X36513474Y-26672056D01*
X36533260Y-26483800D01*
X36513474Y-26295544D01*
X36454979Y-26115516D01*
X36360333Y-25951584D01*
X36233671Y-25810912D01*
X36233670Y-25810911D01*
X36080534Y-25699651D01*
X36080529Y-25699648D01*
X35907607Y-25622657D01*
X35907602Y-25622655D01*
X35731281Y-25585178D01*
X35722446Y-25583300D01*
X35533154Y-25583300D01*
X35524319Y-25585178D01*
X35347997Y-25622655D01*
X35347992Y-25622657D01*
X35175070Y-25699648D01*
X35175065Y-25699651D01*
X35021929Y-25810911D01*
X34895266Y-25951585D01*
X34800621Y-26115515D01*
X34800618Y-26115522D01*
X34743765Y-26290500D01*
X34742126Y-26295544D01*
X34722340Y-26483800D01*
X8170219Y-26483800D01*
X8129903Y-26333337D01*
X8030035Y-26119171D01*
X8030034Y-26119169D01*
X7894494Y-25925597D01*
X7747295Y-25778398D01*
X7713810Y-25717075D01*
X7718794Y-25647383D01*
X7760666Y-25591450D01*
X7769880Y-25585178D01*
X7855765Y-25532204D01*
X7924656Y-25489712D01*
X8048712Y-25365656D01*
X8140814Y-25216334D01*
X8195999Y-25049797D01*
X8206500Y-24947009D01*
X8206500Y-24434800D01*
X24723140Y-24434800D01*
X24742926Y-24623056D01*
X24742927Y-24623059D01*
X24801418Y-24803077D01*
X24801421Y-24803084D01*
X24896067Y-24967016D01*
X25002070Y-25084744D01*
X25022729Y-25107688D01*
X25175865Y-25218948D01*
X25175870Y-25218951D01*
X25348792Y-25295942D01*
X25348797Y-25295944D01*
X25533954Y-25335300D01*
X25533955Y-25335300D01*
X25723244Y-25335300D01*
X25723246Y-25335300D01*
X25908403Y-25295944D01*
X25959935Y-25273000D01*
X28812540Y-25273000D01*
X28832326Y-25461256D01*
X28832327Y-25461259D01*
X28890818Y-25641277D01*
X28890821Y-25641284D01*
X28985467Y-25805216D01*
X28990596Y-25810912D01*
X29112129Y-25945888D01*
X29265265Y-26057148D01*
X29265270Y-26057151D01*
X29438192Y-26134142D01*
X29438197Y-26134144D01*
X29623354Y-26173500D01*
X29623355Y-26173500D01*
X29812644Y-26173500D01*
X29812646Y-26173500D01*
X29997803Y-26134144D01*
X30170730Y-26057151D01*
X30323871Y-25945888D01*
X30450533Y-25805216D01*
X30545179Y-25641284D01*
X30603674Y-25461256D01*
X30623460Y-25273000D01*
X30603674Y-25084744D01*
X30545179Y-24904716D01*
X30450533Y-24740784D01*
X30323871Y-24600112D01*
X30323870Y-24600111D01*
X30201219Y-24511000D01*
X57895540Y-24511000D01*
X57915326Y-24699256D01*
X57915327Y-24699259D01*
X57973818Y-24879277D01*
X57973821Y-24879284D01*
X58068467Y-25043216D01*
X58112651Y-25092287D01*
X58195129Y-25183888D01*
X58348265Y-25295148D01*
X58348270Y-25295151D01*
X58521192Y-25372142D01*
X58521197Y-25372144D01*
X58706354Y-25411500D01*
X58706355Y-25411500D01*
X58895644Y-25411500D01*
X58895646Y-25411500D01*
X59080803Y-25372144D01*
X59253730Y-25295151D01*
X59406871Y-25183888D01*
X59533533Y-25043216D01*
X59628179Y-24879284D01*
X59686674Y-24699256D01*
X59706460Y-24511000D01*
X59686674Y-24322744D01*
X59628179Y-24142716D01*
X59535621Y-23982401D01*
X63136746Y-23982401D01*
X63146745Y-24192327D01*
X63196296Y-24396578D01*
X63196298Y-24396582D01*
X63283598Y-24587743D01*
X63283601Y-24587748D01*
X63283602Y-24587750D01*
X63283604Y-24587753D01*
X63405514Y-24758952D01*
X63405515Y-24758953D01*
X63508082Y-24856750D01*
X63543017Y-24917259D01*
X63539692Y-24987049D01*
X63499164Y-25043963D01*
X63487610Y-25052031D01*
X63422344Y-25092287D01*
X63298289Y-25216342D01*
X63206187Y-25365663D01*
X63206185Y-25365666D01*
X63206186Y-25365666D01*
X63151001Y-25532203D01*
X63151001Y-25532204D01*
X63151000Y-25532204D01*
X63140500Y-25634983D01*
X63140500Y-26435001D01*
X63140501Y-26435019D01*
X63151000Y-26537796D01*
X63151001Y-26537799D01*
X63195490Y-26672056D01*
X63206186Y-26704334D01*
X63298288Y-26853656D01*
X63422344Y-26977712D01*
X63571666Y-27069814D01*
X63738203Y-27124999D01*
X63840991Y-27135500D01*
X65191008Y-27135499D01*
X65293797Y-27124999D01*
X65460334Y-27069814D01*
X65609656Y-26977712D01*
X65733712Y-26853656D01*
X65825814Y-26704334D01*
X65880999Y-26537797D01*
X65891500Y-26435009D01*
X65891499Y-25634992D01*
X65886410Y-25585178D01*
X65880999Y-25532203D01*
X65880998Y-25532200D01*
X65857489Y-25461256D01*
X65825814Y-25365666D01*
X65733712Y-25216344D01*
X65609656Y-25092288D01*
X65546258Y-25053184D01*
X65499535Y-25001237D01*
X65488312Y-24932274D01*
X65516156Y-24868192D01*
X65534697Y-24850181D01*
X65553886Y-24835092D01*
X65691519Y-24676256D01*
X65722233Y-24623059D01*
X65796601Y-24494249D01*
X65796600Y-24494249D01*
X65796604Y-24494244D01*
X65865344Y-24295633D01*
X65895254Y-24087602D01*
X65885254Y-23877670D01*
X65835704Y-23673424D01*
X65825303Y-23650648D01*
X65748401Y-23482256D01*
X65748398Y-23482251D01*
X65748397Y-23482250D01*
X65748396Y-23482247D01*
X65626486Y-23311048D01*
X65626484Y-23311046D01*
X65626479Y-23311040D01*
X65474379Y-23166014D01*
X65433057Y-23139458D01*
X65387302Y-23086654D01*
X65377359Y-23017496D01*
X65406384Y-22953940D01*
X65423445Y-22937673D01*
X65553883Y-22835094D01*
X65553886Y-22835092D01*
X65691519Y-22676256D01*
X65796604Y-22494244D01*
X65865344Y-22295633D01*
X65895254Y-22087602D01*
X65885254Y-21877670D01*
X65835704Y-21673424D01*
X65813034Y-21623784D01*
X65748401Y-21482256D01*
X65748398Y-21482251D01*
X65748397Y-21482250D01*
X65748396Y-21482247D01*
X65626486Y-21311048D01*
X65626484Y-21311046D01*
X65626479Y-21311040D01*
X65474379Y-21166014D01*
X65433057Y-21139458D01*
X65387302Y-21086654D01*
X65377359Y-21017496D01*
X65406384Y-20953940D01*
X65423445Y-20937673D01*
X65527481Y-20855857D01*
X65553886Y-20835092D01*
X65691519Y-20676256D01*
X65796604Y-20494244D01*
X65865344Y-20295633D01*
X65895254Y-20087602D01*
X65885254Y-19877670D01*
X65835704Y-19673424D01*
X65816474Y-19631316D01*
X65748401Y-19482256D01*
X65748398Y-19482251D01*
X65748397Y-19482250D01*
X65748396Y-19482247D01*
X65626486Y-19311048D01*
X65626484Y-19311046D01*
X65626479Y-19311040D01*
X65474379Y-19166014D01*
X65297574Y-19052388D01*
X65102455Y-18974274D01*
X64896086Y-18934500D01*
X64896085Y-18934500D01*
X64188575Y-18934500D01*
X64031782Y-18949472D01*
X64031778Y-18949473D01*
X63830127Y-19008683D01*
X63643313Y-19104991D01*
X63478116Y-19234905D01*
X63478112Y-19234909D01*
X63340478Y-19393746D01*
X63235398Y-19575750D01*
X63166656Y-19774365D01*
X63166656Y-19774367D01*
X63139802Y-19961148D01*
X63136746Y-19982401D01*
X63146745Y-20192327D01*
X63196296Y-20396578D01*
X63196298Y-20396582D01*
X63283598Y-20587743D01*
X63283601Y-20587748D01*
X63283602Y-20587750D01*
X63283604Y-20587753D01*
X63405514Y-20758952D01*
X63405515Y-20758953D01*
X63405520Y-20758959D01*
X63557619Y-20903984D01*
X63598941Y-20930540D01*
X63644696Y-20983344D01*
X63654640Y-21052503D01*
X63625615Y-21116059D01*
X63608555Y-21132326D01*
X63478112Y-21234909D01*
X63340478Y-21393746D01*
X63235398Y-21575750D01*
X63166656Y-21774365D01*
X63166656Y-21774367D01*
X63138854Y-21967740D01*
X63136746Y-21982401D01*
X63146745Y-22192327D01*
X63196296Y-22396578D01*
X63196298Y-22396582D01*
X63283598Y-22587743D01*
X63283601Y-22587748D01*
X63283602Y-22587750D01*
X63283604Y-22587753D01*
X63405514Y-22758952D01*
X63405515Y-22758953D01*
X63405520Y-22758959D01*
X63557619Y-22903984D01*
X63598941Y-22930540D01*
X63644696Y-22983344D01*
X63654640Y-23052503D01*
X63625615Y-23116059D01*
X63608555Y-23132326D01*
X63478112Y-23234909D01*
X63340478Y-23393746D01*
X63235398Y-23575750D01*
X63166656Y-23774365D01*
X63166656Y-23774367D01*
X63137266Y-23978785D01*
X63136746Y-23982401D01*
X59535621Y-23982401D01*
X59533533Y-23978784D01*
X59406871Y-23838112D01*
X59319135Y-23774368D01*
X59253734Y-23726851D01*
X59253729Y-23726848D01*
X59080807Y-23649857D01*
X59080802Y-23649855D01*
X58935001Y-23618865D01*
X58895646Y-23610500D01*
X58706354Y-23610500D01*
X58673897Y-23617398D01*
X58521197Y-23649855D01*
X58521192Y-23649857D01*
X58348270Y-23726848D01*
X58348265Y-23726851D01*
X58195129Y-23838111D01*
X58068466Y-23978785D01*
X57973821Y-24142715D01*
X57973818Y-24142722D01*
X57915327Y-24322740D01*
X57915326Y-24322744D01*
X57895540Y-24511000D01*
X30201219Y-24511000D01*
X30170734Y-24488851D01*
X30170729Y-24488848D01*
X29997807Y-24411857D01*
X29997802Y-24411855D01*
X29852001Y-24380865D01*
X29812646Y-24372500D01*
X29623354Y-24372500D01*
X29590897Y-24379398D01*
X29438197Y-24411855D01*
X29438192Y-24411857D01*
X29265270Y-24488848D01*
X29265265Y-24488851D01*
X29112129Y-24600111D01*
X28985466Y-24740785D01*
X28890821Y-24904715D01*
X28890818Y-24904722D01*
X28843681Y-25049796D01*
X28832326Y-25084744D01*
X28812540Y-25273000D01*
X25959935Y-25273000D01*
X26081330Y-25218951D01*
X26234471Y-25107688D01*
X26361133Y-24967016D01*
X26455779Y-24803084D01*
X26514274Y-24623056D01*
X26534060Y-24434800D01*
X26514274Y-24246544D01*
X26455779Y-24066516D01*
X26361133Y-23902584D01*
X26234471Y-23761912D01*
X26234470Y-23761911D01*
X26081334Y-23650651D01*
X26081329Y-23650648D01*
X25908407Y-23573657D01*
X25908402Y-23573655D01*
X25762601Y-23542665D01*
X25723246Y-23534300D01*
X25533954Y-23534300D01*
X25501497Y-23541198D01*
X25348797Y-23573655D01*
X25348792Y-23573657D01*
X25175870Y-23650648D01*
X25175865Y-23650651D01*
X25022729Y-23761911D01*
X24896066Y-23902585D01*
X24801421Y-24066515D01*
X24801418Y-24066522D01*
X24760542Y-24192327D01*
X24742926Y-24246544D01*
X24723140Y-24434800D01*
X8206500Y-24434800D01*
X8206499Y-23646992D01*
X8195999Y-23544203D01*
X8140814Y-23377666D01*
X8048712Y-23228344D01*
X7924656Y-23104288D01*
X7783943Y-23017496D01*
X7775336Y-23012187D01*
X7775331Y-23012185D01*
X7773862Y-23011698D01*
X7608797Y-22957001D01*
X7608795Y-22957000D01*
X7506010Y-22946500D01*
X5955998Y-22946500D01*
X5955981Y-22946501D01*
X5853203Y-22957000D01*
X5853200Y-22957001D01*
X5686668Y-23012185D01*
X5686663Y-23012187D01*
X5537342Y-23104289D01*
X5413289Y-23228342D01*
X5321187Y-23377663D01*
X5321185Y-23377668D01*
X5293349Y-23461670D01*
X5266001Y-23544203D01*
X5266001Y-23544204D01*
X5266000Y-23544204D01*
X5255500Y-23646983D01*
X5255500Y-24947001D01*
X5255501Y-24947018D01*
X5266000Y-25049796D01*
X5266001Y-25049799D01*
X5280081Y-25092288D01*
X5321186Y-25216334D01*
X5394564Y-25335300D01*
X5413289Y-25365657D01*
X5537344Y-25489712D01*
X5692120Y-25585178D01*
X5738845Y-25637126D01*
X5750068Y-25706088D01*
X5722224Y-25770171D01*
X5714706Y-25778398D01*
X5567501Y-25925603D01*
X5567501Y-25925604D01*
X5431967Y-26119165D01*
X5431965Y-26119169D01*
X5332098Y-26333335D01*
X5332094Y-26333344D01*
X5270938Y-26561586D01*
X5270936Y-26561596D01*
X5250341Y-26796999D01*
X5250341Y-26797000D01*
X5270936Y-27032403D01*
X5270938Y-27032413D01*
X5332094Y-27260655D01*
X5332096Y-27260659D01*
X5332097Y-27260663D01*
X5371397Y-27344942D01*
X5431964Y-27474828D01*
X5431965Y-27474830D01*
X5567505Y-27668402D01*
X5734597Y-27835494D01*
X5891595Y-27945425D01*
X5935220Y-28000002D01*
X5942414Y-28069500D01*
X5910891Y-28131855D01*
X5891595Y-28148575D01*
X5734597Y-28258505D01*
X5567506Y-28425597D01*
X5567501Y-28425604D01*
X5431967Y-28619165D01*
X5431965Y-28619169D01*
X5332098Y-28833335D01*
X5332094Y-28833344D01*
X5270938Y-29061586D01*
X5270936Y-29061596D01*
X5250341Y-29296999D01*
X5250341Y-29297000D01*
X116500Y-29297000D01*
X116500Y-21717000D01*
X17763540Y-21717000D01*
X17783326Y-21905256D01*
X17783327Y-21905259D01*
X17841818Y-22085277D01*
X17841821Y-22085284D01*
X17936467Y-22249216D01*
X18063128Y-22389887D01*
X18063129Y-22389888D01*
X18216265Y-22501148D01*
X18216270Y-22501151D01*
X18389192Y-22578142D01*
X18389197Y-22578144D01*
X18574354Y-22617500D01*
X18574355Y-22617500D01*
X18763644Y-22617500D01*
X18763646Y-22617500D01*
X18948803Y-22578144D01*
X19121730Y-22501151D01*
X19274871Y-22389888D01*
X19401533Y-22249216D01*
X19455351Y-22156000D01*
X57902740Y-22156000D01*
X57922526Y-22344256D01*
X57922527Y-22344259D01*
X57981018Y-22524277D01*
X57981021Y-22524284D01*
X58075667Y-22688216D01*
X58202328Y-22828887D01*
X58202329Y-22828888D01*
X58355465Y-22940148D01*
X58355470Y-22940151D01*
X58528392Y-23017142D01*
X58528397Y-23017144D01*
X58713554Y-23056500D01*
X58713555Y-23056500D01*
X58902844Y-23056500D01*
X58902846Y-23056500D01*
X59088003Y-23017144D01*
X59260930Y-22940151D01*
X59414071Y-22828888D01*
X59540733Y-22688216D01*
X59635379Y-22524284D01*
X59693874Y-22344256D01*
X59713660Y-22156000D01*
X59693874Y-21967744D01*
X59635379Y-21787716D01*
X59540733Y-21623784D01*
X59414071Y-21483112D01*
X59412886Y-21482251D01*
X59260934Y-21371851D01*
X59260929Y-21371848D01*
X59088007Y-21294857D01*
X59088002Y-21294855D01*
X58942201Y-21263865D01*
X58902846Y-21255500D01*
X58713554Y-21255500D01*
X58681097Y-21262398D01*
X58528397Y-21294855D01*
X58528392Y-21294857D01*
X58355470Y-21371848D01*
X58355465Y-21371851D01*
X58202329Y-21483111D01*
X58075666Y-21623785D01*
X57981021Y-21787715D01*
X57981018Y-21787722D01*
X57922527Y-21967740D01*
X57922526Y-21967744D01*
X57902740Y-22156000D01*
X19455351Y-22156000D01*
X19496179Y-22085284D01*
X19554674Y-21905256D01*
X19574460Y-21717000D01*
X19554674Y-21528744D01*
X19496179Y-21348716D01*
X19401533Y-21184784D01*
X19274871Y-21044112D01*
X19274870Y-21044111D01*
X19121734Y-20932851D01*
X19121729Y-20932848D01*
X18948807Y-20855857D01*
X18948802Y-20855855D01*
X18803000Y-20824865D01*
X18763646Y-20816500D01*
X18574354Y-20816500D01*
X18541897Y-20823398D01*
X18389197Y-20855855D01*
X18389192Y-20855857D01*
X18216270Y-20932848D01*
X18216265Y-20932851D01*
X18063129Y-21044111D01*
X17936466Y-21184785D01*
X17841821Y-21348715D01*
X17841818Y-21348722D01*
X17783327Y-21528740D01*
X17783326Y-21528744D01*
X17763540Y-21717000D01*
X116500Y-21717000D01*
X116500Y-18552401D01*
X4827746Y-18552401D01*
X4837745Y-18762327D01*
X4887296Y-18966578D01*
X4887298Y-18966582D01*
X4974598Y-19157743D01*
X4974601Y-19157748D01*
X4974602Y-19157750D01*
X4974604Y-19157753D01*
X5083765Y-19311048D01*
X5096515Y-19328953D01*
X5096520Y-19328959D01*
X5248620Y-19473985D01*
X5343578Y-19535011D01*
X5425428Y-19587613D01*
X5620543Y-19665725D01*
X5723729Y-19685612D01*
X5826914Y-19705500D01*
X5826915Y-19705500D01*
X6534419Y-19705500D01*
X6534425Y-19705500D01*
X6691218Y-19690528D01*
X6892875Y-19631316D01*
X7079682Y-19535011D01*
X7244886Y-19405092D01*
X7382519Y-19246256D01*
X7422504Y-19177000D01*
X18144540Y-19177000D01*
X18164326Y-19365256D01*
X18164327Y-19365259D01*
X18222818Y-19545277D01*
X18222821Y-19545284D01*
X18317467Y-19709216D01*
X18444129Y-19849888D01*
X18597265Y-19961148D01*
X18597270Y-19961151D01*
X18770192Y-20038142D01*
X18770197Y-20038144D01*
X18955354Y-20077500D01*
X18955355Y-20077500D01*
X19144644Y-20077500D01*
X19144646Y-20077500D01*
X19329803Y-20038144D01*
X19495433Y-19964400D01*
X57895540Y-19964400D01*
X57915326Y-20152656D01*
X57915327Y-20152659D01*
X57973818Y-20332677D01*
X57973821Y-20332684D01*
X58068467Y-20496616D01*
X58195128Y-20637287D01*
X58195129Y-20637288D01*
X58348265Y-20748548D01*
X58348270Y-20748551D01*
X58521192Y-20825542D01*
X58521197Y-20825544D01*
X58706354Y-20864900D01*
X58706355Y-20864900D01*
X58895644Y-20864900D01*
X58895646Y-20864900D01*
X59080803Y-20825544D01*
X59253730Y-20748551D01*
X59406871Y-20637288D01*
X59533533Y-20496616D01*
X59628179Y-20332684D01*
X59686674Y-20152656D01*
X59706460Y-19964400D01*
X59686674Y-19776144D01*
X59628179Y-19596116D01*
X59533533Y-19432184D01*
X59406871Y-19291512D01*
X59406870Y-19291511D01*
X59253734Y-19180251D01*
X59253729Y-19180248D01*
X59080807Y-19103257D01*
X59080802Y-19103255D01*
X58935001Y-19072265D01*
X58895646Y-19063900D01*
X58706354Y-19063900D01*
X58673897Y-19070798D01*
X58521197Y-19103255D01*
X58521192Y-19103257D01*
X58348270Y-19180248D01*
X58348265Y-19180251D01*
X58195129Y-19291511D01*
X58068466Y-19432185D01*
X57973821Y-19596115D01*
X57973818Y-19596122D01*
X57937072Y-19709216D01*
X57915326Y-19776144D01*
X57895540Y-19964400D01*
X19495433Y-19964400D01*
X19502730Y-19961151D01*
X19655871Y-19849888D01*
X19782533Y-19709216D01*
X19877179Y-19545284D01*
X19935674Y-19365256D01*
X19955460Y-19177000D01*
X19935674Y-18988744D01*
X19877179Y-18808716D01*
X19832308Y-18730996D01*
X19815836Y-18663100D01*
X19832307Y-18607003D01*
X19877179Y-18529284D01*
X19935674Y-18349256D01*
X19955460Y-18161000D01*
X19935674Y-17972744D01*
X19877179Y-17792716D01*
X19782533Y-17628784D01*
X19655871Y-17488112D01*
X19655870Y-17488111D01*
X19502734Y-17376851D01*
X19502729Y-17376848D01*
X19329807Y-17299857D01*
X19329802Y-17299855D01*
X19184000Y-17268865D01*
X19144646Y-17260500D01*
X18955354Y-17260500D01*
X18922897Y-17267398D01*
X18770197Y-17299855D01*
X18770192Y-17299857D01*
X18597270Y-17376848D01*
X18597265Y-17376851D01*
X18444129Y-17488111D01*
X18317466Y-17628785D01*
X18222821Y-17792715D01*
X18222818Y-17792722D01*
X18164327Y-17972740D01*
X18164326Y-17972744D01*
X18144540Y-18161000D01*
X18164326Y-18349256D01*
X18164327Y-18349259D01*
X18222821Y-18529285D01*
X18267689Y-18606999D01*
X18284162Y-18674899D01*
X18267690Y-18730997D01*
X18222821Y-18808713D01*
X18222820Y-18808717D01*
X18169027Y-18974275D01*
X18164326Y-18988744D01*
X18144540Y-19177000D01*
X7422504Y-19177000D01*
X7487604Y-19064244D01*
X7556344Y-18865633D01*
X7586254Y-18657602D01*
X7576254Y-18447670D01*
X7526704Y-18243424D01*
X7526701Y-18243417D01*
X7439401Y-18052256D01*
X7439398Y-18052251D01*
X7439397Y-18052250D01*
X7439396Y-18052247D01*
X7317486Y-17881048D01*
X7317484Y-17881046D01*
X7317479Y-17881040D01*
X7165379Y-17736014D01*
X7124057Y-17709458D01*
X7078302Y-17656654D01*
X7068359Y-17587496D01*
X7097384Y-17523940D01*
X7114445Y-17507673D01*
X7244883Y-17405094D01*
X7244886Y-17405092D01*
X7382519Y-17246256D01*
X7487604Y-17064244D01*
X7556344Y-16865633D01*
X7586254Y-16657602D01*
X7576254Y-16447670D01*
X7526704Y-16243424D01*
X7526701Y-16243417D01*
X7439401Y-16052256D01*
X7439398Y-16052251D01*
X7439397Y-16052250D01*
X7439396Y-16052247D01*
X7317486Y-15881048D01*
X7317484Y-15881046D01*
X7317479Y-15881040D01*
X7165379Y-15736014D01*
X7124057Y-15709458D01*
X7078302Y-15656654D01*
X7073176Y-15621000D01*
X58276540Y-15621000D01*
X58296326Y-15809256D01*
X58296327Y-15809259D01*
X58354818Y-15989277D01*
X58354821Y-15989284D01*
X58449467Y-16153216D01*
X58530685Y-16243417D01*
X58576129Y-16293888D01*
X58729265Y-16405148D01*
X58729270Y-16405151D01*
X58902192Y-16482142D01*
X58902197Y-16482144D01*
X59087354Y-16521500D01*
X59087355Y-16521500D01*
X59276644Y-16521500D01*
X59276646Y-16521500D01*
X59461803Y-16482144D01*
X59634730Y-16405151D01*
X59787871Y-16293888D01*
X59914533Y-16153216D01*
X60009179Y-15989284D01*
X60067674Y-15809256D01*
X60087460Y-15621000D01*
X60067674Y-15432744D01*
X60009179Y-15252716D01*
X59914533Y-15088784D01*
X59787871Y-14948112D01*
X59787870Y-14948111D01*
X59634734Y-14836851D01*
X59634729Y-14836848D01*
X59461807Y-14759857D01*
X59461802Y-14759855D01*
X59316001Y-14728865D01*
X59276646Y-14720500D01*
X59087354Y-14720500D01*
X59054897Y-14727398D01*
X58902197Y-14759855D01*
X58902192Y-14759857D01*
X58729270Y-14836848D01*
X58729265Y-14836851D01*
X58576129Y-14948111D01*
X58449466Y-15088785D01*
X58354821Y-15252715D01*
X58354818Y-15252722D01*
X58305310Y-15405094D01*
X58296326Y-15432744D01*
X58289201Y-15500540D01*
X58278251Y-15604725D01*
X58276540Y-15621000D01*
X7073176Y-15621000D01*
X7068359Y-15587496D01*
X7097384Y-15523940D01*
X7114445Y-15507673D01*
X7244883Y-15405094D01*
X7244886Y-15405092D01*
X7382519Y-15246256D01*
X7487604Y-15064244D01*
X7556344Y-14865633D01*
X7586254Y-14657602D01*
X7576254Y-14447670D01*
X7526704Y-14243424D01*
X7526701Y-14243417D01*
X7439401Y-14052256D01*
X7439398Y-14052251D01*
X7439397Y-14052250D01*
X7439396Y-14052247D01*
X7317486Y-13881048D01*
X7317484Y-13881046D01*
X7214543Y-13782892D01*
X7179608Y-13722383D01*
X7182933Y-13652593D01*
X7223461Y-13595678D01*
X7235017Y-13587610D01*
X7300343Y-13547317D01*
X7424315Y-13423345D01*
X7516356Y-13274124D01*
X7516358Y-13274119D01*
X7571505Y-13107697D01*
X7571506Y-13107690D01*
X7581999Y-13004986D01*
X7582000Y-13004973D01*
X7582000Y-12855000D01*
X6486560Y-12855000D01*
X6525278Y-12812941D01*
X6575551Y-12698330D01*
X6585886Y-12573605D01*
X6555163Y-12452281D01*
X6491606Y-12355000D01*
X7581999Y-12355000D01*
X7581999Y-12205028D01*
X7581998Y-12205013D01*
X7571505Y-12102302D01*
X7516358Y-11935880D01*
X7516356Y-11935875D01*
X7424315Y-11786654D01*
X7300345Y-11662684D01*
X7151124Y-11570643D01*
X7151119Y-11570641D01*
X6984697Y-11515494D01*
X6984690Y-11515493D01*
X6881986Y-11505000D01*
X6457000Y-11505000D01*
X6457000Y-12324382D01*
X6387948Y-12270637D01*
X6269576Y-12230000D01*
X6175927Y-12230000D01*
X6083554Y-12245414D01*
X5973486Y-12304981D01*
X5957000Y-12322889D01*
X5957000Y-11505000D01*
X5532028Y-11505000D01*
X5532012Y-11505001D01*
X5429302Y-11515494D01*
X5262880Y-11570641D01*
X5262875Y-11570643D01*
X5113654Y-11662684D01*
X4989684Y-11786654D01*
X4897643Y-11935875D01*
X4897641Y-11935880D01*
X4842494Y-12102302D01*
X4842493Y-12102309D01*
X4832000Y-12205013D01*
X4832000Y-12355000D01*
X5927440Y-12355000D01*
X5888722Y-12397059D01*
X5838449Y-12511670D01*
X5828114Y-12636395D01*
X5858837Y-12757719D01*
X5922394Y-12855000D01*
X4832001Y-12855000D01*
X4832001Y-13004986D01*
X4842494Y-13107697D01*
X4897641Y-13274119D01*
X4897643Y-13274124D01*
X4989684Y-13423345D01*
X5113654Y-13547315D01*
X5177158Y-13586485D01*
X5223882Y-13638433D01*
X5235105Y-13707396D01*
X5207261Y-13771478D01*
X5188715Y-13789493D01*
X5169113Y-13804908D01*
X5169112Y-13804909D01*
X5031478Y-13963746D01*
X4926398Y-14145750D01*
X4857656Y-14344365D01*
X4857656Y-14344367D01*
X4842804Y-14447670D01*
X4827746Y-14552401D01*
X4837745Y-14762327D01*
X4887296Y-14966578D01*
X4887298Y-14966582D01*
X4974598Y-15157743D01*
X4974601Y-15157748D01*
X4974602Y-15157750D01*
X4974604Y-15157753D01*
X5037627Y-15246256D01*
X5096515Y-15328953D01*
X5096520Y-15328959D01*
X5248619Y-15473984D01*
X5289941Y-15500540D01*
X5335696Y-15553344D01*
X5345640Y-15622503D01*
X5316615Y-15686059D01*
X5299555Y-15702326D01*
X5169112Y-15804909D01*
X5031478Y-15963746D01*
X4926398Y-16145750D01*
X4857656Y-16344365D01*
X4857656Y-16344367D01*
X4832189Y-16521500D01*
X4827746Y-16552401D01*
X4837745Y-16762327D01*
X4887296Y-16966578D01*
X4887298Y-16966582D01*
X4974598Y-17157743D01*
X4974601Y-17157748D01*
X4974602Y-17157750D01*
X4974604Y-17157753D01*
X5037627Y-17246256D01*
X5096515Y-17328953D01*
X5096520Y-17328959D01*
X5248619Y-17473984D01*
X5248621Y-17473985D01*
X5248622Y-17473986D01*
X5270602Y-17488112D01*
X5289941Y-17500540D01*
X5335696Y-17553344D01*
X5345640Y-17622503D01*
X5316615Y-17686059D01*
X5299555Y-17702326D01*
X5169112Y-17804909D01*
X5031478Y-17963746D01*
X4926398Y-18145750D01*
X4857656Y-18344365D01*
X4857656Y-18344367D01*
X4831070Y-18529285D01*
X4827746Y-18552401D01*
X116500Y-18552401D01*
X116500Y-5080000D01*
X1501422Y-5080000D01*
X1521722Y-5467339D01*
X1558755Y-5701159D01*
X1582398Y-5850433D01*
X1634565Y-6045125D01*
X1682788Y-6225094D01*
X1821787Y-6587197D01*
X1997877Y-6932793D01*
X2209122Y-7258082D01*
X2379478Y-7468454D01*
X2453219Y-7559516D01*
X2727484Y-7833781D01*
X2761618Y-7861422D01*
X3028917Y-8077877D01*
X3354206Y-8289122D01*
X3354211Y-8289125D01*
X3699806Y-8465214D01*
X4061913Y-8604214D01*
X4436567Y-8704602D01*
X4819662Y-8765278D01*
X5185576Y-8784455D01*
X5206999Y-8785578D01*
X5207000Y-8785578D01*
X5207001Y-8785578D01*
X5227300Y-8784514D01*
X5594338Y-8765278D01*
X5977433Y-8704602D01*
X6352087Y-8604214D01*
X6714194Y-8465214D01*
X7059789Y-8289125D01*
X7385084Y-8077876D01*
X7686516Y-7833781D01*
X7960781Y-7559516D01*
X8204876Y-7258084D01*
X8416125Y-6932789D01*
X8592214Y-6587194D01*
X8731214Y-6225087D01*
X8791794Y-5999000D01*
X12032341Y-5999000D01*
X12052936Y-6234403D01*
X12052938Y-6234413D01*
X12114094Y-6462655D01*
X12114096Y-6462659D01*
X12114097Y-6462663D01*
X12195704Y-6637670D01*
X12213965Y-6676830D01*
X12213967Y-6676834D01*
X12349501Y-6870395D01*
X12349506Y-6870402D01*
X12516597Y-7037493D01*
X12516603Y-7037498D01*
X12702594Y-7167730D01*
X12746219Y-7222307D01*
X12753413Y-7291805D01*
X12721890Y-7354160D01*
X12702595Y-7370880D01*
X12516922Y-7500890D01*
X12516920Y-7500891D01*
X12349891Y-7667920D01*
X12349886Y-7667926D01*
X12214400Y-7861420D01*
X12214399Y-7861422D01*
X12114570Y-8075507D01*
X12114567Y-8075513D01*
X12057364Y-8288999D01*
X12057364Y-8289000D01*
X12954314Y-8289000D01*
X12928507Y-8329156D01*
X12888000Y-8467111D01*
X12888000Y-8610889D01*
X12928507Y-8748844D01*
X12954314Y-8789000D01*
X12057364Y-8789000D01*
X12114567Y-9002486D01*
X12114570Y-9002492D01*
X12214399Y-9216578D01*
X12349894Y-9410082D01*
X12471946Y-9532134D01*
X12505431Y-9593457D01*
X12500447Y-9663149D01*
X12458575Y-9719082D01*
X12427598Y-9735997D01*
X12295671Y-9785202D01*
X12295664Y-9785206D01*
X12180455Y-9871452D01*
X12180452Y-9871455D01*
X12094206Y-9986664D01*
X12094202Y-9986671D01*
X12043908Y-10121517D01*
X12037501Y-10181116D01*
X12037501Y-10181123D01*
X12037500Y-10181135D01*
X12037500Y-11976870D01*
X12037501Y-11976876D01*
X12043908Y-12036483D01*
X12094202Y-12171328D01*
X12094206Y-12171335D01*
X12180452Y-12286544D01*
X12180455Y-12286547D01*
X12295664Y-12372793D01*
X12295671Y-12372797D01*
X12430517Y-12423091D01*
X12430516Y-12423091D01*
X12437444Y-12423835D01*
X12490127Y-12429500D01*
X14285872Y-12429499D01*
X14345483Y-12423091D01*
X14480331Y-12372796D01*
X14595546Y-12286546D01*
X14681796Y-12171331D01*
X14732091Y-12036483D01*
X14738500Y-11976873D01*
X14738500Y-11811000D01*
X58276540Y-11811000D01*
X58296326Y-11999256D01*
X58296327Y-11999259D01*
X58354818Y-12179277D01*
X58354821Y-12179284D01*
X58449467Y-12343216D01*
X58497948Y-12397059D01*
X58576129Y-12483888D01*
X58729265Y-12595148D01*
X58729270Y-12595151D01*
X58902192Y-12672142D01*
X58902197Y-12672144D01*
X59087354Y-12711500D01*
X59087355Y-12711500D01*
X59276644Y-12711500D01*
X59276646Y-12711500D01*
X59461803Y-12672144D01*
X59634730Y-12595151D01*
X59787871Y-12483888D01*
X59914533Y-12343216D01*
X60009179Y-12179284D01*
X60067674Y-11999256D01*
X60087460Y-11811000D01*
X60067674Y-11622744D01*
X60009179Y-11442716D01*
X59914533Y-11278784D01*
X59787871Y-11138112D01*
X59787870Y-11138111D01*
X59634734Y-11026851D01*
X59634729Y-11026848D01*
X59461807Y-10949857D01*
X59461802Y-10949855D01*
X59316000Y-10918865D01*
X59276646Y-10910500D01*
X59087354Y-10910500D01*
X59054897Y-10917398D01*
X58902197Y-10949855D01*
X58902192Y-10949857D01*
X58729270Y-11026848D01*
X58729265Y-11026851D01*
X58576129Y-11138111D01*
X58449466Y-11278785D01*
X58354821Y-11442715D01*
X58354818Y-11442722D01*
X58296327Y-11622740D01*
X58296326Y-11622744D01*
X58276540Y-11811000D01*
X14738500Y-11811000D01*
X14738499Y-10181128D01*
X14732091Y-10121517D01*
X14681796Y-9986669D01*
X14681795Y-9986668D01*
X14681793Y-9986664D01*
X14595547Y-9871455D01*
X14595544Y-9871452D01*
X14480335Y-9785206D01*
X14480328Y-9785202D01*
X14348401Y-9735997D01*
X14292467Y-9694126D01*
X14268050Y-9628662D01*
X14282902Y-9560389D01*
X14304053Y-9532133D01*
X14426108Y-9410078D01*
X14561600Y-9216578D01*
X14661429Y-9002492D01*
X14661432Y-9002486D01*
X14718636Y-8789000D01*
X13821686Y-8789000D01*
X13847493Y-8748844D01*
X13888000Y-8610889D01*
X13888000Y-8467111D01*
X13847493Y-8329156D01*
X13821686Y-8289000D01*
X14718636Y-8289000D01*
X14718635Y-8288999D01*
X14661432Y-8075513D01*
X14661429Y-8075507D01*
X14561600Y-7861422D01*
X14561599Y-7861420D01*
X14426113Y-7667926D01*
X14426108Y-7667920D01*
X14259078Y-7500890D01*
X14073405Y-7370879D01*
X14029780Y-7316302D01*
X14022588Y-7246804D01*
X14054110Y-7184449D01*
X14073406Y-7167730D01*
X14229510Y-7058425D01*
X52557500Y-7058425D01*
X52572472Y-7215218D01*
X52631684Y-7416875D01*
X52705220Y-7559516D01*
X52727991Y-7603686D01*
X52857905Y-7768883D01*
X52857909Y-7768887D01*
X53016746Y-7906521D01*
X53198750Y-8011601D01*
X53198752Y-8011601D01*
X53198756Y-8011604D01*
X53397367Y-8080344D01*
X53605398Y-8110254D01*
X53815330Y-8100254D01*
X54019576Y-8050704D01*
X54105199Y-8011601D01*
X54210743Y-7963401D01*
X54210746Y-7963399D01*
X54210753Y-7963396D01*
X54381952Y-7841486D01*
X54389303Y-7833777D01*
X54526986Y-7689378D01*
X54526986Y-7689377D01*
X54553540Y-7648058D01*
X54606343Y-7602303D01*
X54675502Y-7592359D01*
X54739058Y-7621383D01*
X54755326Y-7638444D01*
X54857909Y-7768887D01*
X55016746Y-7906521D01*
X55198750Y-8011601D01*
X55198752Y-8011601D01*
X55198756Y-8011604D01*
X55397367Y-8080344D01*
X55605398Y-8110254D01*
X55815330Y-8100254D01*
X56019576Y-8050704D01*
X56105199Y-8011601D01*
X56210743Y-7963401D01*
X56210746Y-7963399D01*
X56210753Y-7963396D01*
X56381952Y-7841486D01*
X56480107Y-7738543D01*
X56540615Y-7703609D01*
X56610406Y-7706933D01*
X56667320Y-7747461D01*
X56675389Y-7759016D01*
X56715684Y-7824345D01*
X56839654Y-7948315D01*
X56988875Y-8040356D01*
X56988880Y-8040358D01*
X57155302Y-8095505D01*
X57155309Y-8095506D01*
X57258019Y-8105999D01*
X57407999Y-8105999D01*
X57408000Y-8105998D01*
X57408000Y-7011617D01*
X57477052Y-7065363D01*
X57595424Y-7106000D01*
X57689073Y-7106000D01*
X57781446Y-7090586D01*
X57891514Y-7031019D01*
X57908000Y-7013110D01*
X57908000Y-8105999D01*
X58057972Y-8105999D01*
X58057986Y-8105998D01*
X58160697Y-8095505D01*
X58327119Y-8040358D01*
X58327124Y-8040356D01*
X58476345Y-7948315D01*
X58600315Y-7824345D01*
X58692356Y-7675124D01*
X58692358Y-7675119D01*
X58747505Y-7508697D01*
X58747506Y-7508690D01*
X58757999Y-7405986D01*
X58758000Y-7405973D01*
X58758000Y-6981000D01*
X57937560Y-6981000D01*
X57976278Y-6938941D01*
X58026551Y-6824330D01*
X58036886Y-6699605D01*
X58006163Y-6578281D01*
X57942606Y-6481000D01*
X58757999Y-6481000D01*
X58757999Y-6056028D01*
X58757998Y-6056013D01*
X58747505Y-5953302D01*
X58692358Y-5786880D01*
X58692356Y-5786875D01*
X58600315Y-5637654D01*
X58476345Y-5513684D01*
X58327124Y-5421643D01*
X58327119Y-5421641D01*
X58160697Y-5366494D01*
X58160690Y-5366493D01*
X58057986Y-5356000D01*
X57908000Y-5356000D01*
X57908000Y-6450382D01*
X57838948Y-6396637D01*
X57720576Y-6356000D01*
X57626927Y-6356000D01*
X57534554Y-6371414D01*
X57424486Y-6430981D01*
X57408000Y-6448889D01*
X57408000Y-5356000D01*
X57258027Y-5356000D01*
X57258012Y-5356001D01*
X57155302Y-5366494D01*
X56988880Y-5421641D01*
X56988875Y-5421643D01*
X56839654Y-5513684D01*
X56715682Y-5637656D01*
X56676513Y-5701159D01*
X56624564Y-5747883D01*
X56555602Y-5759104D01*
X56491520Y-5731260D01*
X56473504Y-5712712D01*
X56458092Y-5693114D01*
X56458090Y-5693112D01*
X56299253Y-5555478D01*
X56117249Y-5450398D01*
X56117245Y-5450396D01*
X56117244Y-5450396D01*
X55918633Y-5381656D01*
X55710602Y-5351746D01*
X55710598Y-5351746D01*
X55500672Y-5361745D01*
X55296421Y-5411296D01*
X55296417Y-5411298D01*
X55105256Y-5498598D01*
X55105251Y-5498601D01*
X54934046Y-5620515D01*
X54934040Y-5620520D01*
X54789016Y-5772618D01*
X54762458Y-5813943D01*
X54709653Y-5859697D01*
X54640494Y-5869640D01*
X54576939Y-5840614D01*
X54560673Y-5823554D01*
X54458094Y-5693116D01*
X54458090Y-5693112D01*
X54299253Y-5555478D01*
X54117249Y-5450398D01*
X54117245Y-5450396D01*
X54117244Y-5450396D01*
X53918633Y-5381656D01*
X53710602Y-5351746D01*
X53710598Y-5351746D01*
X53500672Y-5361745D01*
X53296421Y-5411296D01*
X53296417Y-5411298D01*
X53105256Y-5498598D01*
X53105251Y-5498601D01*
X52934046Y-5620515D01*
X52934040Y-5620520D01*
X52789014Y-5772620D01*
X52675388Y-5949425D01*
X52597274Y-6144544D01*
X52577570Y-6246782D01*
X52557500Y-6350915D01*
X52557500Y-7058425D01*
X14229510Y-7058425D01*
X14259401Y-7037495D01*
X14426495Y-6870401D01*
X14562035Y-6676830D01*
X14661903Y-6462663D01*
X14723063Y-6234408D01*
X14743659Y-5999000D01*
X14723063Y-5763592D01*
X14661903Y-5535337D01*
X14562035Y-5321171D01*
X14426495Y-5127599D01*
X14426494Y-5127597D01*
X14378897Y-5080000D01*
X62207422Y-5080000D01*
X62227722Y-5467339D01*
X62264755Y-5701159D01*
X62288398Y-5850433D01*
X62340565Y-6045125D01*
X62388788Y-6225094D01*
X62527787Y-6587197D01*
X62703877Y-6932793D01*
X62915122Y-7258082D01*
X63085478Y-7468454D01*
X63159219Y-7559516D01*
X63433484Y-7833781D01*
X63467618Y-7861422D01*
X63734917Y-8077877D01*
X64060206Y-8289122D01*
X64060211Y-8289125D01*
X64405806Y-8465214D01*
X64767913Y-8604214D01*
X65142567Y-8704602D01*
X65525662Y-8765278D01*
X65891576Y-8784455D01*
X65912999Y-8785578D01*
X65913000Y-8785578D01*
X65913001Y-8785578D01*
X65933300Y-8784514D01*
X66300338Y-8765278D01*
X66683433Y-8704602D01*
X67058087Y-8604214D01*
X67420194Y-8465214D01*
X67765789Y-8289125D01*
X68091084Y-8077876D01*
X68392516Y-7833781D01*
X68666781Y-7559516D01*
X68910876Y-7258084D01*
X69122125Y-6932789D01*
X69298214Y-6587194D01*
X69437214Y-6225087D01*
X69537602Y-5850433D01*
X69598278Y-5467338D01*
X69618578Y-5080000D01*
X69598278Y-4692662D01*
X69537602Y-4309567D01*
X69437214Y-3934913D01*
X69298214Y-3572806D01*
X69122125Y-3227211D01*
X69122122Y-3227206D01*
X68910877Y-2901917D01*
X68666784Y-2600488D01*
X68666781Y-2600484D01*
X68392516Y-2326219D01*
X68218245Y-2185097D01*
X68091082Y-2082122D01*
X67765793Y-1870877D01*
X67420197Y-1694787D01*
X67058094Y-1555788D01*
X67027521Y-1547596D01*
X66683433Y-1455398D01*
X66683429Y-1455397D01*
X66683428Y-1455397D01*
X66300339Y-1394722D01*
X65913001Y-1374422D01*
X65912999Y-1374422D01*
X65525660Y-1394722D01*
X65142572Y-1455397D01*
X65142570Y-1455397D01*
X64767905Y-1555788D01*
X64405802Y-1694787D01*
X64060206Y-1870877D01*
X63734917Y-2082122D01*
X63433488Y-2326215D01*
X63433480Y-2326222D01*
X63159222Y-2600480D01*
X63159215Y-2600488D01*
X62915122Y-2901917D01*
X62703877Y-3227206D01*
X62527787Y-3572802D01*
X62388788Y-3934905D01*
X62288397Y-4309570D01*
X62288397Y-4309572D01*
X62227722Y-4692660D01*
X62207422Y-5079999D01*
X62207422Y-5080000D01*
X14378897Y-5080000D01*
X14259402Y-4960506D01*
X14259401Y-4960505D01*
X14073842Y-4830575D01*
X14073841Y-4830574D01*
X14030216Y-4775997D01*
X14023024Y-4706498D01*
X14054546Y-4644144D01*
X14073836Y-4627428D01*
X14259401Y-4497495D01*
X14426495Y-4330401D01*
X14562035Y-4136830D01*
X14661903Y-3922663D01*
X14723063Y-3694408D01*
X14743659Y-3459000D01*
X14723063Y-3223592D01*
X14661903Y-2995337D01*
X14562035Y-2781171D01*
X14435518Y-2600484D01*
X14426494Y-2587597D01*
X14259402Y-2420506D01*
X14259395Y-2420501D01*
X14065834Y-2284967D01*
X14065830Y-2284965D01*
X14065828Y-2284964D01*
X13851663Y-2185097D01*
X13851659Y-2185096D01*
X13851655Y-2185094D01*
X13623413Y-2123938D01*
X13623403Y-2123936D01*
X13388001Y-2103341D01*
X13387999Y-2103341D01*
X13152596Y-2123936D01*
X13152586Y-2123938D01*
X12924344Y-2185094D01*
X12924335Y-2185098D01*
X12710171Y-2284964D01*
X12710169Y-2284965D01*
X12516597Y-2420505D01*
X12349505Y-2587597D01*
X12213965Y-2781169D01*
X12213964Y-2781171D01*
X12114098Y-2995335D01*
X12114094Y-2995344D01*
X12052938Y-3223586D01*
X12052936Y-3223596D01*
X12032341Y-3458999D01*
X12032341Y-3459000D01*
X12052936Y-3694403D01*
X12052938Y-3694413D01*
X12114094Y-3922655D01*
X12114096Y-3922659D01*
X12114097Y-3922663D01*
X12213965Y-4136830D01*
X12213967Y-4136834D01*
X12349501Y-4330395D01*
X12349506Y-4330402D01*
X12516597Y-4497493D01*
X12516603Y-4497498D01*
X12702158Y-4627425D01*
X12745783Y-4682002D01*
X12752977Y-4751500D01*
X12721454Y-4813855D01*
X12702158Y-4830575D01*
X12516597Y-4960505D01*
X12349505Y-5127597D01*
X12213965Y-5321169D01*
X12213964Y-5321171D01*
X12114098Y-5535335D01*
X12114094Y-5535344D01*
X12052938Y-5763586D01*
X12052936Y-5763596D01*
X12032341Y-5998999D01*
X12032341Y-5999000D01*
X8791794Y-5999000D01*
X8831602Y-5850433D01*
X8892278Y-5467338D01*
X8912578Y-5080000D01*
X8892278Y-4692662D01*
X8831602Y-4309567D01*
X8731214Y-3934913D01*
X8592214Y-3572806D01*
X8416125Y-3227211D01*
X8416122Y-3227206D01*
X8204877Y-2901917D01*
X7960784Y-2600488D01*
X7960781Y-2600484D01*
X7686516Y-2326219D01*
X7512245Y-2185097D01*
X7385082Y-2082122D01*
X7059793Y-1870877D01*
X6714197Y-1694787D01*
X6352094Y-1555788D01*
X6321521Y-1547596D01*
X5977433Y-1455398D01*
X5977429Y-1455397D01*
X5977428Y-1455397D01*
X5594339Y-1394722D01*
X5207001Y-1374422D01*
X5206999Y-1374422D01*
X4819660Y-1394722D01*
X4436572Y-1455397D01*
X4436570Y-1455397D01*
X4061905Y-1555788D01*
X3699802Y-1694787D01*
X3354206Y-1870877D01*
X3028917Y-2082122D01*
X2727488Y-2326215D01*
X2727480Y-2326222D01*
X2453222Y-2600480D01*
X2453215Y-2600488D01*
X2209122Y-2901917D01*
X1997877Y-3227206D01*
X1821787Y-3572802D01*
X1682788Y-3934905D01*
X1582397Y-4309570D01*
X1582397Y-4309572D01*
X1521722Y-4692660D01*
X1501422Y-5079999D01*
X1501422Y-5080000D01*
X116500Y-5080000D01*
X116500Y-2090036D01*
X116633Y-2085980D01*
X121989Y-2004265D01*
X123541Y-1982561D01*
X134986Y-1822538D01*
X136015Y-1814901D01*
X159155Y-1698567D01*
X190533Y-1554323D01*
X192392Y-1547625D01*
X232547Y-1429335D01*
X233087Y-1427817D01*
X282162Y-1296242D01*
X284628Y-1290530D01*
X341044Y-1176129D01*
X342152Y-1173996D01*
X408184Y-1053066D01*
X411029Y-1048368D01*
X482563Y-941311D01*
X484428Y-938676D01*
X566291Y-829321D01*
X569244Y-825678D01*
X654503Y-728459D01*
X657198Y-725581D01*
X753581Y-629198D01*
X756459Y-626503D01*
X853678Y-541244D01*
X857321Y-538291D01*
X966676Y-456428D01*
X969311Y-454563D01*
X1076368Y-383029D01*
X1081066Y-380184D01*
X1201996Y-314152D01*
X1204129Y-313044D01*
X1318530Y-256628D01*
X1324242Y-254162D01*
X1455817Y-205087D01*
X1457335Y-204547D01*
X1575625Y-164392D01*
X1582323Y-162533D01*
X1726567Y-131155D01*
X1842901Y-108015D01*
X1850536Y-106986D01*
X2032290Y-93986D01*
X2062237Y-92023D01*
X2113981Y-88633D01*
X2118036Y-88500D01*
X69113964Y-88500D01*
X69118019Y-88633D01*
G37*
%TD.AperFunction*%
%TD*%
M02*
