%TF.GenerationSoftware,KiCad,Pcbnew,7.0.2-0*%
%TF.CreationDate,2023-05-15T19:37:27-04:00*%
%TF.ProjectId,7-segment-display-controller,372d7365-676d-4656-9e74-2d646973706c,A*%
%TF.SameCoordinates,Original*%
%TF.FileFunction,Copper,L1,Top*%
%TF.FilePolarity,Positive*%
%FSLAX46Y46*%
G04 Gerber Fmt 4.6, Leading zero omitted, Abs format (unit mm)*
G04 Created by KiCad (PCBNEW 7.0.2-0) date 2023-05-15 19:37:27*
%MOMM*%
%LPD*%
G01*
G04 APERTURE LIST*
G04 Aperture macros list*
%AMRoundRect*
0 Rectangle with rounded corners*
0 $1 Rounding radius*
0 $2 $3 $4 $5 $6 $7 $8 $9 X,Y pos of 4 corners*
0 Add a 4 corners polygon primitive as box body*
4,1,4,$2,$3,$4,$5,$6,$7,$8,$9,$2,$3,0*
0 Add four circle primitives for the rounded corners*
1,1,$1+$1,$2,$3*
1,1,$1+$1,$4,$5*
1,1,$1+$1,$6,$7*
1,1,$1+$1,$8,$9*
0 Add four rect primitives between the rounded corners*
20,1,$1+$1,$2,$3,$4,$5,0*
20,1,$1+$1,$4,$5,$6,$7,0*
20,1,$1+$1,$6,$7,$8,$9,0*
20,1,$1+$1,$8,$9,$2,$3,0*%
G04 Aperture macros list end*
%TA.AperFunction,SMDPad,CuDef*%
%ADD10R,1.000000X1.200000*%
%TD*%
%TA.AperFunction,SMDPad,CuDef*%
%ADD11R,1.000000X0.800000*%
%TD*%
%TA.AperFunction,SMDPad,CuDef*%
%ADD12RoundRect,0.200000X-0.200000X-0.275000X0.200000X-0.275000X0.200000X0.275000X-0.200000X0.275000X0*%
%TD*%
%TA.AperFunction,SMDPad,CuDef*%
%ADD13RoundRect,0.225000X0.225000X0.250000X-0.225000X0.250000X-0.225000X-0.250000X0.225000X-0.250000X0*%
%TD*%
%TA.AperFunction,SMDPad,CuDef*%
%ADD14RoundRect,0.150000X-0.587500X-0.150000X0.587500X-0.150000X0.587500X0.150000X-0.587500X0.150000X0*%
%TD*%
%TA.AperFunction,SMDPad,CuDef*%
%ADD15RoundRect,0.225000X-0.225000X-0.250000X0.225000X-0.250000X0.225000X0.250000X-0.225000X0.250000X0*%
%TD*%
%TA.AperFunction,SMDPad,CuDef*%
%ADD16R,2.000000X1.500000*%
%TD*%
%TA.AperFunction,SMDPad,CuDef*%
%ADD17R,2.000000X3.800000*%
%TD*%
%TA.AperFunction,SMDPad,CuDef*%
%ADD18RoundRect,0.218750X0.218750X0.256250X-0.218750X0.256250X-0.218750X-0.256250X0.218750X-0.256250X0*%
%TD*%
%TA.AperFunction,SMDPad,CuDef*%
%ADD19RoundRect,0.225000X-0.250000X0.225000X-0.250000X-0.225000X0.250000X-0.225000X0.250000X0.225000X0*%
%TD*%
%TA.AperFunction,ComponentPad*%
%ADD20C,7.500000*%
%TD*%
%TA.AperFunction,ComponentPad*%
%ADD21O,1.200000X1.900000*%
%TD*%
%TA.AperFunction,SMDPad,CuDef*%
%ADD22R,1.200000X1.900000*%
%TD*%
%TA.AperFunction,ComponentPad*%
%ADD23C,1.450000*%
%TD*%
%TA.AperFunction,SMDPad,CuDef*%
%ADD24R,1.500000X1.900000*%
%TD*%
%TA.AperFunction,SMDPad,CuDef*%
%ADD25R,0.400000X1.350000*%
%TD*%
%TA.AperFunction,ComponentPad*%
%ADD26C,2.000000*%
%TD*%
%TA.AperFunction,SMDPad,CuDef*%
%ADD27C,0.787000*%
%TD*%
%TA.AperFunction,SMDPad,CuDef*%
%ADD28RoundRect,0.250000X0.650000X-1.000000X0.650000X1.000000X-0.650000X1.000000X-0.650000X-1.000000X0*%
%TD*%
%TA.AperFunction,ComponentPad*%
%ADD29O,1.950000X1.700000*%
%TD*%
%TA.AperFunction,ComponentPad*%
%ADD30RoundRect,0.250000X-0.725000X0.600000X-0.725000X-0.600000X0.725000X-0.600000X0.725000X0.600000X0*%
%TD*%
%TA.AperFunction,SMDPad,CuDef*%
%ADD31RoundRect,0.575000X-1.425000X-0.575000X1.425000X-0.575000X1.425000X0.575000X-1.425000X0.575000X0*%
%TD*%
%TA.AperFunction,SMDPad,CuDef*%
%ADD32RoundRect,0.575000X-1.625000X-0.575000X1.625000X-0.575000X1.625000X0.575000X-1.625000X0.575000X0*%
%TD*%
%TA.AperFunction,ComponentPad*%
%ADD33C,1.500000*%
%TD*%
%TA.AperFunction,SMDPad,CuDef*%
%ADD34RoundRect,0.250000X-1.500000X-0.550000X1.500000X-0.550000X1.500000X0.550000X-1.500000X0.550000X0*%
%TD*%
%TA.AperFunction,SMDPad,CuDef*%
%ADD35RoundRect,0.200000X0.275000X-0.200000X0.275000X0.200000X-0.275000X0.200000X-0.275000X-0.200000X0*%
%TD*%
%TA.AperFunction,SMDPad,CuDef*%
%ADD36R,1.200000X1.400000*%
%TD*%
%TA.AperFunction,ComponentPad*%
%ADD37RoundRect,0.250000X0.725000X-0.600000X0.725000X0.600000X-0.725000X0.600000X-0.725000X-0.600000X0*%
%TD*%
%TA.AperFunction,SMDPad,CuDef*%
%ADD38RoundRect,0.225000X0.250000X-0.225000X0.250000X0.225000X-0.250000X0.225000X-0.250000X-0.225000X0*%
%TD*%
%TA.AperFunction,SMDPad,CuDef*%
%ADD39R,0.800000X0.500000*%
%TD*%
%TA.AperFunction,SMDPad,CuDef*%
%ADD40R,0.800000X0.400000*%
%TD*%
%TA.AperFunction,SMDPad,CuDef*%
%ADD41RoundRect,0.250000X-0.650000X1.000000X-0.650000X-1.000000X0.650000X-1.000000X0.650000X1.000000X0*%
%TD*%
%TA.AperFunction,SMDPad,CuDef*%
%ADD42RoundRect,0.147500X-0.172500X0.147500X-0.172500X-0.147500X0.172500X-0.147500X0.172500X0.147500X0*%
%TD*%
%TA.AperFunction,SMDPad,CuDef*%
%ADD43R,0.400000X0.650000*%
%TD*%
%TA.AperFunction,SMDPad,CuDef*%
%ADD44R,0.760000X1.270000*%
%TD*%
%TA.AperFunction,SMDPad,CuDef*%
%ADD45RoundRect,0.075000X0.075000X0.662500X-0.075000X0.662500X-0.075000X-0.662500X0.075000X-0.662500X0*%
%TD*%
%TA.AperFunction,SMDPad,CuDef*%
%ADD46RoundRect,0.075000X0.662500X0.075000X-0.662500X0.075000X-0.662500X-0.075000X0.662500X-0.075000X0*%
%TD*%
%TA.AperFunction,SMDPad,CuDef*%
%ADD47RoundRect,0.250000X0.625000X-0.375000X0.625000X0.375000X-0.625000X0.375000X-0.625000X-0.375000X0*%
%TD*%
%TA.AperFunction,ViaPad*%
%ADD48C,0.800000*%
%TD*%
%TA.AperFunction,Conductor*%
%ADD49C,0.267200*%
%TD*%
%TA.AperFunction,Conductor*%
%ADD50C,0.250000*%
%TD*%
%TA.AperFunction,Conductor*%
%ADD51C,0.500000*%
%TD*%
G04 APERTURE END LIST*
D10*
%TO.P,D105,1,A*%
%TO.N,GND*%
X24999800Y-45962000D03*
D11*
%TO.P,D105,2,K*%
%TO.N,/D_P*%
X24999800Y-44262000D03*
%TO.P,D105,3,K*%
%TO.N,VBUS*%
X22599800Y-44262000D03*
%TO.P,D105,4,K*%
%TO.N,/D_N*%
X22599800Y-46162000D03*
%TD*%
D12*
%TO.P,R103,1*%
%TO.N,/HSE_OUT*%
X41276000Y-30607000D03*
%TO.P,R103,2*%
%TO.N,Net-(C109-Pad1)*%
X42926000Y-30607000D03*
%TD*%
D13*
%TO.P,C113,1*%
%TO.N,/CLK_DN*%
X18832000Y-2032000D03*
%TO.P,C113,2*%
%TO.N,GND*%
X17282000Y-2032000D03*
%TD*%
D14*
%TO.P,Q101,3,D*%
%TO.N,/BAT+*%
X48181500Y-40132000D03*
%TO.P,Q101,2,S*%
%TO.N,/VBAT*%
X46306500Y-41082000D03*
%TO.P,Q101,1,G*%
%TO.N,+3V3*%
X46306500Y-39182000D03*
%TD*%
D12*
%TO.P,R102,2*%
%TO.N,GND*%
X57469200Y-19920800D03*
%TO.P,R102,1*%
%TO.N,Net-(D102-K)*%
X55819200Y-19920800D03*
%TD*%
D15*
%TO.P,C107,2*%
%TO.N,GND*%
X42812000Y-27482800D03*
%TO.P,C107,1*%
%TO.N,+3.3VA*%
X41262000Y-27482800D03*
%TD*%
D16*
%TO.P,U201,3,VI*%
%TO.N,/LDO_3V3/5V*%
X8484000Y-36753500D03*
D17*
%TO.P,U201,2,VO*%
%TO.N,+3V3*%
X2184000Y-39053500D03*
D16*
X8484000Y-39053500D03*
%TO.P,U201,1,GND*%
%TO.N,GND*%
X8484000Y-41353500D03*
%TD*%
D12*
%TO.P,R101,2*%
%TO.N,GND*%
X57530000Y-22156000D03*
%TO.P,R101,1*%
%TO.N,Net-(D101-K)*%
X55880000Y-22156000D03*
%TD*%
D18*
%TO.P,D101,2,A*%
%TO.N,/LED_HB*%
X52590100Y-22181400D03*
%TO.P,D101,1,K*%
%TO.N,Net-(D101-K)*%
X54165100Y-22181400D03*
%TD*%
D19*
%TO.P,C109,2*%
%TO.N,GND*%
X44856400Y-33922000D03*
%TO.P,C109,1*%
%TO.N,Net-(C109-Pad1)*%
X44856400Y-32372000D03*
%TD*%
D20*
%TO.P,H104,1*%
%TO.N,N/C*%
X5588000Y-48768000D03*
%TD*%
D19*
%TO.P,C116,2*%
%TO.N,GND*%
X38481000Y-40907000D03*
%TO.P,C116,1*%
%TO.N,/VBAT*%
X38481000Y-39357000D03*
%TD*%
D21*
%TO.P,J102,6,Shield*%
%TO.N,GND*%
X27630000Y-52545500D03*
D22*
X27030000Y-52545500D03*
D23*
X26630000Y-49845500D03*
D24*
X25130000Y-52545500D03*
X23130000Y-52545500D03*
D23*
X21630000Y-49845500D03*
D22*
X21230000Y-52545500D03*
D21*
X20630000Y-52545500D03*
D25*
%TO.P,J102,5,GND*%
X25430000Y-49845500D03*
%TO.P,J102,4,ID*%
%TO.N,unconnected-(J102-ID-Pad4)*%
X24780000Y-49845500D03*
%TO.P,J102,3,D+*%
%TO.N,/D_P*%
X24130000Y-49845500D03*
%TO.P,J102,2,D-*%
%TO.N,/D_N*%
X23480000Y-49845500D03*
%TO.P,J102,1,VBUS*%
%TO.N,VBUS*%
X22830000Y-49845500D03*
%TD*%
D13*
%TO.P,C111,1*%
%TO.N,/CLK_UP*%
X26937000Y-2032000D03*
%TO.P,C111,2*%
%TO.N,GND*%
X25387000Y-2032000D03*
%TD*%
D26*
%TO.P,SW104,2,2*%
%TO.N,GND*%
X40676000Y-10870000D03*
X40676000Y-4370000D03*
%TO.P,SW104,1,1*%
%TO.N,/RGB_COLOR*%
X45176000Y-10870000D03*
X45176000Y-4370000D03*
%TD*%
D15*
%TO.P,C201,2*%
%TO.N,/LDO_3V3/5V*%
X12713000Y-34544000D03*
%TO.P,C201,1*%
%TO.N,GND*%
X11163000Y-34544000D03*
%TD*%
%TO.P,C104,2*%
%TO.N,GND*%
X27572000Y-36830000D03*
%TO.P,C104,1*%
%TO.N,+3V3*%
X26022000Y-36830000D03*
%TD*%
%TO.P,C106,2*%
%TO.N,GND*%
X42812000Y-29032200D03*
%TO.P,C106,1*%
%TO.N,+3.3VA*%
X41262000Y-29032200D03*
%TD*%
D27*
%TO.P,J101,6,Pin_6*%
%TO.N,/SWO*%
X19227800Y-37312600D03*
%TO.P,J101,5,Pin_5*%
%TO.N,GND*%
X20497800Y-37312600D03*
%TO.P,J101,4,Pin_4*%
%TO.N,/SWCLK*%
X19227800Y-38582600D03*
%TO.P,J101,3,Pin_3*%
%TO.N,/NRST*%
X20497800Y-38582600D03*
%TO.P,J101,2,Pin_2*%
%TO.N,/SWDIO*%
X19227800Y-39852600D03*
%TO.P,J101,1,Pin_1*%
%TO.N,VBUS*%
X20497800Y-39852600D03*
%TD*%
D28*
%TO.P,D106,2,A*%
%TO.N,+3V3*%
X42799000Y-39148000D03*
%TO.P,D106,1,K*%
%TO.N,/VBAT*%
X42799000Y-43148000D03*
%TD*%
D26*
%TO.P,SW103,2,2*%
%TO.N,GND*%
X23948000Y-10870000D03*
X23948000Y-4370000D03*
%TO.P,SW103,1,1*%
%TO.N,/CLK_UP*%
X28448000Y-10870000D03*
X28448000Y-4370000D03*
%TD*%
%TO.P,SW102,2,2*%
%TO.N,GND*%
X32294000Y-10870000D03*
X32294000Y-4370000D03*
%TO.P,SW102,1,1*%
%TO.N,/CLK_RST*%
X36794000Y-10870000D03*
X36794000Y-4370000D03*
%TD*%
D29*
%TO.P,J104,3,Pin_3*%
%TO.N,+5V*%
X5334000Y-29638000D03*
%TO.P,J104,2,Pin_2*%
%TO.N,Net-(J104-Pin_2)*%
X5334000Y-27138000D03*
D30*
%TO.P,J104,1,Pin_1*%
%TO.N,GND*%
X5334000Y-24638000D03*
%TD*%
D18*
%TO.P,D102,2,A*%
%TO.N,+3V3*%
X52554700Y-19920800D03*
%TO.P,D102,1,K*%
%TO.N,Net-(D102-K)*%
X54129700Y-19920800D03*
%TD*%
D26*
%TO.P,SW106,2,2*%
%TO.N,GND*%
X49058000Y-10870000D03*
X49058000Y-4370000D03*
%TO.P,SW106,1,1*%
%TO.N,/NRST*%
X53558000Y-10870000D03*
X53558000Y-4370000D03*
%TD*%
D31*
%TO.P,BT101,2,-*%
%TO.N,GND*%
X67690000Y-36322000D03*
D32*
%TO.P,BT101,1,+*%
%TO.N,/BAT+*%
X51690000Y-36322000D03*
D33*
%TO.P,BT101,*%
%TO.N,*%
X63290000Y-36322000D03*
X55790000Y-36322000D03*
%TD*%
D34*
%TO.P,C115,2*%
%TO.N,GND*%
X19591000Y-29718000D03*
%TO.P,C115,1*%
%TO.N,+5V*%
X14191000Y-29718000D03*
%TD*%
D35*
%TO.P,R104,2*%
%TO.N,/LED_PIXEL*%
X11303000Y-25464000D03*
%TO.P,R104,1*%
%TO.N,Net-(J104-Pin_2)*%
X11303000Y-27114000D03*
%TD*%
D20*
%TO.P,H103,1*%
%TO.N,N/C*%
X5588000Y-5588000D03*
%TD*%
D36*
%TO.P,Y101,4,4*%
%TO.N,Net-(C109-Pad1)*%
X43166400Y-32555000D03*
%TO.P,Y101,3,3*%
%TO.N,GND*%
X43166400Y-34755000D03*
%TO.P,Y101,2,2*%
%TO.N,/HSE_IN*%
X41466400Y-34755000D03*
%TO.P,Y101,1,1*%
%TO.N,GND*%
X41466400Y-32555000D03*
%TD*%
D29*
%TO.P,J103,4,Pin_4*%
%TO.N,GND*%
X65151000Y-16423000D03*
%TO.P,J103,3,Pin_3*%
%TO.N,/UART_RX*%
X65151000Y-18923000D03*
%TO.P,J103,2,Pin_2*%
%TO.N,/UART_TX*%
X65151000Y-21423000D03*
D37*
%TO.P,J103,1,Pin_1*%
%TO.N,VBUS*%
X65151000Y-23923000D03*
%TD*%
D38*
%TO.P,C103,2*%
%TO.N,GND*%
X28403104Y-22885873D03*
%TO.P,C103,1*%
%TO.N,+3V3*%
X28403104Y-24435873D03*
%TD*%
D12*
%TO.P,R105,2*%
%TO.N,GND*%
X57479600Y-24467400D03*
%TO.P,R105,1*%
%TO.N,Net-(D107-K)*%
X55829600Y-24467400D03*
%TD*%
D20*
%TO.P,H101,1*%
%TO.N,N/C*%
X65024000Y-5588000D03*
%TD*%
%TO.P,H102,1*%
%TO.N,N/C*%
X65024000Y-48768000D03*
%TD*%
D13*
%TO.P,C112,1*%
%TO.N,/RGB_COLOR*%
X43701000Y-2032000D03*
%TO.P,C112,2*%
%TO.N,GND*%
X42151000Y-2032000D03*
%TD*%
D39*
%TO.P,RN101,8,R1.2*%
%TO.N,/DIP3*%
X37454000Y-46304000D03*
D40*
%TO.P,RN101,7,R2.2*%
%TO.N,/DIP2*%
X37454000Y-45504000D03*
%TO.P,RN101,6,R3.2*%
%TO.N,/DIP1*%
X37454000Y-44704000D03*
D39*
%TO.P,RN101,5,R4.2*%
%TO.N,/BOOT0*%
X37454000Y-43904000D03*
%TO.P,RN101,4,R4.1*%
%TO.N,GND*%
X39254000Y-43904000D03*
D40*
%TO.P,RN101,3,R3.1*%
X39254000Y-44704000D03*
%TO.P,RN101,2,R2.1*%
X39254000Y-45504000D03*
D39*
%TO.P,RN101,1,R1.1*%
X39254000Y-46304000D03*
%TD*%
D41*
%TO.P,D103,2,A*%
%TO.N,+5V*%
X12700000Y-41053500D03*
%TO.P,D103,1,K*%
%TO.N,/LDO_3V3/5V*%
X12700000Y-37053500D03*
%TD*%
D42*
%TO.P,L101,2*%
%TO.N,+3V3*%
X39954200Y-28196400D03*
%TO.P,L101,1*%
%TO.N,+3.3VA*%
X39954200Y-27226400D03*
%TD*%
D43*
%TO.P,D104,6,K*%
%TO.N,/SWDIO*%
X25893000Y-40452000D03*
%TO.P,D104,5,K*%
%TO.N,unconnected-(D104-K-Pad5)*%
X26543000Y-40452000D03*
%TO.P,D104,4,K*%
%TO.N,/SWCLK*%
X27193000Y-40452000D03*
%TO.P,D104,3,K*%
%TO.N,/SWO*%
X27193000Y-42352000D03*
%TO.P,D104,2,A*%
%TO.N,GND*%
X26543000Y-42352000D03*
%TO.P,D104,1,K*%
%TO.N,/NRST*%
X25893000Y-42352000D03*
%TD*%
D18*
%TO.P,D107,2,A*%
%TO.N,/LED_UI*%
X52565100Y-24467400D03*
%TO.P,D107,1,K*%
%TO.N,Net-(D107-K)*%
X54140100Y-24467400D03*
%TD*%
D19*
%TO.P,C105,2*%
%TO.N,GND*%
X36830000Y-39560800D03*
%TO.P,C105,1*%
%TO.N,+3V3*%
X36830000Y-38010800D03*
%TD*%
D13*
%TO.P,C114,1*%
%TO.N,/NRST*%
X52083000Y-2032000D03*
%TO.P,C114,2*%
%TO.N,GND*%
X50533000Y-2032000D03*
%TD*%
D44*
%TO.P,SW101,8*%
%TO.N,/DIP3*%
X31115000Y-41148000D03*
%TO.P,SW101,7*%
%TO.N,/DIP2*%
X32385000Y-41148000D03*
%TO.P,SW101,6*%
%TO.N,/DIP1*%
X33655000Y-41148000D03*
%TO.P,SW101,5*%
%TO.N,/BOOT0*%
X34925000Y-41148000D03*
%TO.P,SW101,4*%
%TO.N,+3V3*%
X34925000Y-48768000D03*
%TO.P,SW101,3*%
X33655000Y-48768000D03*
%TO.P,SW101,2*%
X32385000Y-48768000D03*
%TO.P,SW101,1*%
X31115000Y-48768000D03*
%TD*%
D13*
%TO.P,C202,2*%
%TO.N,+3V3*%
X5829000Y-34544000D03*
%TO.P,C202,1*%
%TO.N,GND*%
X7379000Y-34544000D03*
%TD*%
D45*
%TO.P,U101,48,VDD*%
%TO.N,+3V3*%
X35262000Y-36420500D03*
%TO.P,U101,47,VSS*%
%TO.N,GND*%
X34762000Y-36420500D03*
%TO.P,U101,46,PB9*%
%TO.N,unconnected-(U101-PB9-Pad46)*%
X34262000Y-36420500D03*
%TO.P,U101,45,PB8*%
%TO.N,unconnected-(U101-PB8-Pad45)*%
X33762000Y-36420500D03*
%TO.P,U101,44,BOOT0*%
%TO.N,/BOOT0*%
X33262000Y-36420500D03*
%TO.P,U101,43,PB7*%
%TO.N,unconnected-(U101-PB7-Pad43)*%
X32762000Y-36420500D03*
%TO.P,U101,42,PB6*%
%TO.N,/DIP1*%
X32262000Y-36420500D03*
%TO.P,U101,41,PB5*%
%TO.N,/DIP2*%
X31762000Y-36420500D03*
%TO.P,U101,40,PB4*%
%TO.N,/DIP3*%
X31262000Y-36420500D03*
%TO.P,U101,39,PB3*%
%TO.N,/SWO*%
X30762000Y-36420500D03*
%TO.P,U101,38,PA15*%
%TO.N,unconnected-(U101-PA15-Pad38)*%
X30262000Y-36420500D03*
%TO.P,U101,37,PA14*%
%TO.N,/SWCLK*%
X29762000Y-36420500D03*
D46*
%TO.P,U101,36,VDD*%
%TO.N,+3V3*%
X28349500Y-35008000D03*
%TO.P,U101,35,VSS*%
%TO.N,GND*%
X28349500Y-34508000D03*
%TO.P,U101,34,PA13*%
%TO.N,/SWDIO*%
X28349500Y-34008000D03*
%TO.P,U101,33,PA12*%
%TO.N,/D_P*%
X28349500Y-33508000D03*
%TO.P,U101,32,PA11*%
%TO.N,/D_N*%
X28349500Y-33008000D03*
%TO.P,U101,31,PA10*%
%TO.N,unconnected-(U101-PA10-Pad31)*%
X28349500Y-32508000D03*
%TO.P,U101,30,PA9*%
%TO.N,unconnected-(U101-PA9-Pad30)*%
X28349500Y-32008000D03*
%TO.P,U101,29,PA8*%
%TO.N,unconnected-(U101-PA8-Pad29)*%
X28349500Y-31508000D03*
%TO.P,U101,28,PB15*%
%TO.N,unconnected-(U101-PB15-Pad28)*%
X28349500Y-31008000D03*
%TO.P,U101,27,PB14*%
%TO.N,unconnected-(U101-PB14-Pad27)*%
X28349500Y-30508000D03*
%TO.P,U101,26,PB13*%
%TO.N,unconnected-(U101-PB13-Pad26)*%
X28349500Y-30008000D03*
%TO.P,U101,25,PB12*%
%TO.N,unconnected-(U101-PB12-Pad25)*%
X28349500Y-29508000D03*
D45*
%TO.P,U101,24,VDD*%
%TO.N,+3V3*%
X29762000Y-28095500D03*
%TO.P,U101,23,VSS*%
%TO.N,GND*%
X30262000Y-28095500D03*
%TO.P,U101,22,PB11*%
%TO.N,/LED_PIXEL*%
X30762000Y-28095500D03*
%TO.P,U101,21,PB10*%
%TO.N,/CLK_DN*%
X31262000Y-28095500D03*
%TO.P,U101,20,PB2*%
%TO.N,/CLK_UP*%
X31762000Y-28095500D03*
%TO.P,U101,19,PB1*%
%TO.N,/CLK_RST*%
X32262000Y-28095500D03*
%TO.P,U101,18,PB0*%
%TO.N,/RGB_COLOR*%
X32762000Y-28095500D03*
%TO.P,U101,17,PA7*%
%TO.N,/LED_HB*%
X33262000Y-28095500D03*
%TO.P,U101,16,PA6*%
%TO.N,/LED_UI*%
X33762000Y-28095500D03*
%TO.P,U101,15,PA5*%
%TO.N,unconnected-(U101-PA5-Pad15)*%
X34262000Y-28095500D03*
%TO.P,U101,14,PA4*%
%TO.N,unconnected-(U101-PA4-Pad14)*%
X34762000Y-28095500D03*
%TO.P,U101,13,PA3*%
%TO.N,/UART_RX*%
X35262000Y-28095500D03*
D46*
%TO.P,U101,12,PA2*%
%TO.N,/UART_TX*%
X36674500Y-29508000D03*
%TO.P,U101,11,PA1*%
%TO.N,unconnected-(U101-PA1-Pad11)*%
X36674500Y-30008000D03*
%TO.P,U101,10,PA0*%
%TO.N,unconnected-(U101-PA0-Pad10)*%
X36674500Y-30508000D03*
%TO.P,U101,9,VDDA*%
%TO.N,+3.3VA*%
X36674500Y-31008000D03*
%TO.P,U101,8,VSSA*%
%TO.N,GND*%
X36674500Y-31508000D03*
%TO.P,U101,7,NRST*%
%TO.N,/NRST*%
X36674500Y-32008000D03*
%TO.P,U101,6,PF1*%
%TO.N,/HSE_OUT*%
X36674500Y-32508000D03*
%TO.P,U101,5,PF0*%
%TO.N,/HSE_IN*%
X36674500Y-33008000D03*
%TO.P,U101,4,PC15*%
%TO.N,unconnected-(U101-PC15-Pad4)*%
X36674500Y-33508000D03*
%TO.P,U101,3,PC14*%
%TO.N,unconnected-(U101-PC14-Pad3)*%
X36674500Y-34008000D03*
%TO.P,U101,2,PC13*%
%TO.N,unconnected-(U101-PC13-Pad2)*%
X36674500Y-34508000D03*
%TO.P,U101,1,VBAT*%
%TO.N,/VBAT*%
X36674500Y-35008000D03*
%TD*%
D19*
%TO.P,C101,2*%
%TO.N,GND*%
X40005000Y-42177000D03*
%TO.P,C101,1*%
%TO.N,/VBAT*%
X40005000Y-40627000D03*
%TD*%
D26*
%TO.P,SW105,2,2*%
%TO.N,GND*%
X15693000Y-10870000D03*
X15693000Y-4370000D03*
%TO.P,SW105,1,1*%
%TO.N,/CLK_DN*%
X20193000Y-10870000D03*
X20193000Y-4370000D03*
%TD*%
D47*
%TO.P,F101,2*%
%TO.N,+5V*%
X15748000Y-41526000D03*
%TO.P,F101,1*%
%TO.N,VBUS*%
X15748000Y-44326000D03*
%TD*%
D13*
%TO.P,C110,1*%
%TO.N,/CLK_RST*%
X35319000Y-2032000D03*
%TO.P,C110,2*%
%TO.N,GND*%
X33769000Y-2032000D03*
%TD*%
D38*
%TO.P,C102,2*%
%TO.N,GND*%
X26752104Y-22885873D03*
%TO.P,C102,1*%
%TO.N,+3V3*%
X26752104Y-24435873D03*
%TD*%
D15*
%TO.P,C108,2*%
%TO.N,GND*%
X43091400Y-36576000D03*
%TO.P,C108,1*%
%TO.N,/HSE_IN*%
X41541400Y-36576000D03*
%TD*%
D48*
%TO.N,GND*%
X44704000Y-26924000D03*
X44704000Y-29464000D03*
%TO.N,/UART_RX*%
X35627800Y-26483800D03*
%TO.N,+3V3*%
X38608000Y-28194000D03*
%TO.N,/UART_TX*%
X38626600Y-29508000D03*
%TO.N,GND*%
X68376800Y-38811200D03*
X9144000Y-34544000D03*
X30149800Y-34508000D03*
X58801000Y-24511000D03*
X34772600Y-30962600D03*
X29718000Y-22860000D03*
X40767000Y-2032000D03*
X35433000Y-39497000D03*
X28067000Y-38227000D03*
X15748000Y-2032000D03*
X25654000Y-47498000D03*
X32359600Y-2032000D03*
X26543000Y-43942000D03*
X40894000Y-46355000D03*
X27178000Y-47498000D03*
X44856400Y-35306000D03*
X22860000Y-29718000D03*
X22428200Y-37312600D03*
X44856400Y-36601400D03*
X34192699Y-38307499D03*
X27178000Y-45974000D03*
X24003000Y-2032000D03*
X38481000Y-42291000D03*
X58801000Y-19964400D03*
X49022000Y-2032000D03*
X9652000Y-43307000D03*
X8382000Y-43307000D03*
X58808200Y-22156000D03*
X39979600Y-32562800D03*
%TO.N,+3V3*%
X40386000Y-38481000D03*
X4191000Y-34671000D03*
X35426122Y-38044557D03*
X26352500Y-35369500D03*
X52552600Y-18389600D03*
X25228104Y-24422873D03*
X1651000Y-34671000D03*
X2921000Y-34671000D03*
X33020000Y-50165000D03*
%TO.N,/NRST*%
X33832800Y-32867600D03*
X24773300Y-42291000D03*
X22606000Y-38379400D03*
%TO.N,/SWO*%
X17526000Y-37338000D03*
X28638500Y-41973500D03*
%TO.N,/SWCLK*%
X27495500Y-39306500D03*
X17526000Y-38608000D03*
%TO.N,/SWDIO*%
X25527000Y-38989000D03*
X17780000Y-40513000D03*
%TO.N,VBUS*%
X20574000Y-46228000D03*
%TD*%
D49*
%TO.N,/D_P*%
X24040200Y-44196000D02*
X24106200Y-44262000D01*
X24106200Y-44262000D02*
X24999800Y-44262000D01*
%TO.N,/D_N*%
X23569800Y-46228000D02*
X23503800Y-46162000D01*
X23503800Y-46162000D02*
X22599800Y-46162000D01*
D50*
%TO.N,GND*%
X15748000Y-2032000D02*
X17282000Y-2032000D01*
%TO.N,/CLK_DN*%
X18832000Y-2032000D02*
X19812000Y-2032000D01*
X19812000Y-2032000D02*
X20193000Y-2413000D01*
X20193000Y-2413000D02*
X20193000Y-4370000D01*
%TO.N,GND*%
X24003000Y-2032000D02*
X25387000Y-2032000D01*
%TO.N,/CLK_UP*%
X26937000Y-2032000D02*
X28067000Y-2032000D01*
X28067000Y-2032000D02*
X28448000Y-2413000D01*
X28448000Y-2413000D02*
X28448000Y-4370000D01*
%TO.N,/RGB_COLOR*%
X45176000Y-4370000D02*
X45176000Y-2631000D01*
X45176000Y-2631000D02*
X44577000Y-2032000D01*
X44577000Y-2032000D02*
X43701000Y-2032000D01*
%TO.N,/CLK_RST*%
X35319000Y-2032000D02*
X36322000Y-2032000D01*
X36322000Y-2032000D02*
X36794000Y-2504000D01*
X36794000Y-2504000D02*
X36794000Y-4370000D01*
%TO.N,GND*%
X32359600Y-2032000D02*
X33769000Y-2032000D01*
X40767000Y-2032000D02*
X42151000Y-2032000D01*
X49022000Y-2032000D02*
X50533000Y-2032000D01*
%TO.N,/NRST*%
X52083000Y-2032000D02*
X53111400Y-2032000D01*
X53111400Y-2032000D02*
X53558000Y-2478600D01*
X53558000Y-2478600D02*
X53558000Y-4370000D01*
%TO.N,/LED_PIXEL*%
X11303000Y-23686000D02*
X11303000Y-25464000D01*
%TO.N,Net-(J104-Pin_2)*%
X11303000Y-27114000D02*
X11239000Y-27178000D01*
X11239000Y-27178000D02*
X5374000Y-27178000D01*
%TO.N,/LED_PIXEL*%
X13907000Y-21082000D02*
X11303000Y-23686000D01*
%TO.N,Net-(J104-Pin_2)*%
X5374000Y-27178000D02*
X5334000Y-27138000D01*
%TO.N,/LED_PIXEL*%
X30762000Y-28095500D02*
X30762000Y-22380000D01*
X30762000Y-22380000D02*
X29464000Y-21082000D01*
X29464000Y-21082000D02*
X13907000Y-21082000D01*
D51*
%TO.N,GND*%
X22860000Y-29718000D02*
X19591000Y-29718000D01*
%TO.N,+5V*%
X14111000Y-29638000D02*
X5334000Y-29638000D01*
X15748000Y-41526000D02*
X15748000Y-34290000D01*
X14191000Y-29718000D02*
X14111000Y-29638000D01*
X15748000Y-34290000D02*
X14191000Y-32733000D01*
X14191000Y-32733000D02*
X14191000Y-29718000D01*
D50*
%TO.N,GND*%
X44145200Y-27482800D02*
X44704000Y-26924000D01*
X42812000Y-27482800D02*
X44145200Y-27482800D01*
X44272200Y-29032200D02*
X44704000Y-29464000D01*
X42812000Y-29032200D02*
X44272200Y-29032200D01*
%TO.N,/CLK_DN*%
X20193000Y-10870000D02*
X20193000Y-14097000D01*
X20193000Y-14097000D02*
X25146000Y-19050000D01*
X31262000Y-22053802D02*
X31262000Y-28095500D01*
X25146000Y-19050000D02*
X28258198Y-19050000D01*
X28258198Y-19050000D02*
X31262000Y-22053802D01*
%TO.N,/RGB_COLOR*%
X32762000Y-28095500D02*
X32762000Y-25150000D01*
X37338000Y-20574000D02*
X38862000Y-20574000D01*
X32762000Y-25150000D02*
X37338000Y-20574000D01*
X38862000Y-20574000D02*
X45176000Y-14260000D01*
X45176000Y-14260000D02*
X45176000Y-10870000D01*
%TO.N,GND*%
X29718000Y-22860000D02*
X26777977Y-22860000D01*
X26777977Y-22860000D02*
X26752104Y-22885873D01*
X29718000Y-22860000D02*
X30262000Y-23404000D01*
X30262000Y-23404000D02*
X30262000Y-28095500D01*
%TO.N,/UART_RX*%
X35262000Y-26849600D02*
X35627800Y-26483800D01*
X35262000Y-28095500D02*
X35262000Y-26849600D01*
%TO.N,+3V3*%
X38608000Y-28194000D02*
X38610400Y-28196400D01*
X38610400Y-28196400D02*
X39954200Y-28196400D01*
%TO.N,/UART_TX*%
X38626600Y-29508000D02*
X36674500Y-29508000D01*
%TO.N,+3.3VA*%
X41262000Y-29032200D02*
X40513000Y-29032200D01*
X40513000Y-29032200D02*
X38537200Y-31008000D01*
X38537200Y-31008000D02*
X36674500Y-31008000D01*
X41262000Y-27482800D02*
X41262000Y-29032200D01*
X39954200Y-27226400D02*
X41005600Y-27226400D01*
X41005600Y-27226400D02*
X41262000Y-27482800D01*
%TO.N,GND*%
X30149800Y-34508000D02*
X28349500Y-34508000D01*
%TO.N,/NRST*%
X33858200Y-32893000D02*
X34671000Y-32893000D01*
X34671000Y-32893000D02*
X35556000Y-32008000D01*
X35556000Y-32008000D02*
X36674500Y-32008000D01*
X33832800Y-32867600D02*
X33858200Y-32893000D01*
%TO.N,GND*%
X34772600Y-30962600D02*
X34772600Y-31013400D01*
X34772600Y-31013400D02*
X35267200Y-31508000D01*
X35267200Y-31508000D02*
X36674500Y-31508000D01*
D51*
X67690000Y-38124400D02*
X68376800Y-38811200D01*
X67690000Y-36322000D02*
X67690000Y-38124400D01*
D50*
%TO.N,/BAT+*%
X50165000Y-40132000D02*
X48181500Y-40132000D01*
X51690000Y-36322000D02*
X51690000Y-38607000D01*
X51690000Y-38607000D02*
X50165000Y-40132000D01*
D51*
%TO.N,GND*%
X21230000Y-52545500D02*
X23130000Y-52545500D01*
D50*
X20497800Y-37312600D02*
X22428200Y-37312600D01*
D51*
X43091400Y-36576000D02*
X44831000Y-36576000D01*
X44729400Y-35179000D02*
X44856400Y-35306000D01*
D50*
X58757400Y-24467400D02*
X58801000Y-24511000D01*
D51*
X43590400Y-35179000D02*
X44729400Y-35179000D01*
D50*
X40005000Y-42177000D02*
X38595000Y-42177000D01*
D51*
X40843000Y-46304000D02*
X40894000Y-46355000D01*
D50*
X11163000Y-34544000D02*
X9144000Y-34544000D01*
D51*
X44856400Y-33922000D02*
X44856400Y-35306000D01*
X43166400Y-34755000D02*
X43590400Y-35179000D01*
X39254000Y-46304000D02*
X40843000Y-46304000D01*
D50*
X57479600Y-24467400D02*
X58757400Y-24467400D01*
X26543000Y-42352000D02*
X26543000Y-43942000D01*
X7379000Y-34544000D02*
X9144000Y-34544000D01*
D51*
X39987400Y-32555000D02*
X39979600Y-32562800D01*
D50*
X34762000Y-37738198D02*
X34762000Y-36420500D01*
X25430000Y-49845500D02*
X26630000Y-49845500D01*
X28067000Y-38227000D02*
X27572000Y-37732000D01*
X58757400Y-19920800D02*
X57469200Y-19920800D01*
X58801000Y-19964400D02*
X58757400Y-19920800D01*
X58808200Y-22156000D02*
X57530000Y-22156000D01*
X35433000Y-39497000D02*
X35496800Y-39560800D01*
D51*
X41466400Y-32555000D02*
X39987400Y-32555000D01*
X44831000Y-36576000D02*
X44856400Y-36601400D01*
X25130000Y-52545500D02*
X27030000Y-52545500D01*
D50*
X38595000Y-42177000D02*
X38481000Y-42291000D01*
X35496800Y-39560800D02*
X36830000Y-39560800D01*
X39254000Y-43904000D02*
X39254000Y-46304000D01*
X38481000Y-40907000D02*
X38481000Y-42291000D01*
X27572000Y-37732000D02*
X27572000Y-36830000D01*
X34192699Y-38307499D02*
X34762000Y-37738198D01*
%TO.N,+3V3*%
X35262000Y-37880435D02*
X35262000Y-36420500D01*
D51*
X25241104Y-24435873D02*
X25228104Y-24422873D01*
D50*
X26714000Y-35008000D02*
X28349500Y-35008000D01*
X26022000Y-35700000D02*
X26022000Y-36830000D01*
D51*
X42132000Y-38481000D02*
X42799000Y-39148000D01*
D50*
X26352500Y-35369500D02*
X26714000Y-35008000D01*
D51*
X26752104Y-24435873D02*
X28403104Y-24435873D01*
D50*
X35426122Y-38044557D02*
X35262000Y-37880435D01*
X28797104Y-24435873D02*
X28403104Y-24435873D01*
X52552600Y-19918700D02*
X52554700Y-19920800D01*
X52552600Y-18389600D02*
X52552600Y-19918700D01*
X29007873Y-24435873D02*
X28403104Y-24435873D01*
D51*
X42833000Y-39182000D02*
X42799000Y-39148000D01*
X8484000Y-39053500D02*
X2184000Y-39053500D01*
X40386000Y-38481000D02*
X42132000Y-38481000D01*
D50*
X36796243Y-38044557D02*
X36830000Y-38010800D01*
X35426122Y-38044557D02*
X36796243Y-38044557D01*
D51*
X26752104Y-24435873D02*
X25241104Y-24435873D01*
D50*
X29762000Y-28095500D02*
X29762000Y-25190000D01*
D51*
X46306500Y-39182000D02*
X42833000Y-39182000D01*
D50*
X26352500Y-35369500D02*
X26022000Y-35700000D01*
X29762000Y-25190000D02*
X29007873Y-24435873D01*
%TO.N,/HSE_IN*%
X39708000Y-34755000D02*
X39293800Y-34340800D01*
X37961000Y-33008000D02*
X38569436Y-33616436D01*
X39293800Y-33740603D02*
X39169633Y-33616436D01*
X37961000Y-33008000D02*
X36674500Y-33008000D01*
X38869535Y-33616436D02*
X38869534Y-33616436D01*
X41466400Y-34755000D02*
X39708000Y-34755000D01*
X39293800Y-34040702D02*
X39293800Y-34040701D01*
X41466400Y-36501000D02*
X41541400Y-36576000D01*
X39293799Y-34040703D02*
X39293800Y-34040702D01*
X41466400Y-34755000D02*
X41466400Y-36501000D01*
X39169633Y-33616436D02*
G75*
G03*
X38869535Y-33616436I-150049J-150050D01*
G01*
X39293848Y-34040752D02*
G75*
G03*
X39293800Y-34340800I149952J-150048D01*
G01*
X39293848Y-34040749D02*
G75*
G03*
X39293800Y-33740603I-150148J150049D01*
G01*
X38569436Y-33616436D02*
G75*
G03*
X38869534Y-33616436I150049J150050D01*
G01*
%TO.N,Net-(C109-Pad1)*%
X44843400Y-32385000D02*
X44856400Y-32372000D01*
X43336400Y-32385000D02*
X44843400Y-32385000D01*
X42887400Y-30568000D02*
X42887400Y-32276000D01*
X42887400Y-32276000D02*
X43166400Y-32555000D01*
X43166400Y-32555000D02*
X43336400Y-32385000D01*
%TO.N,/CLK_RST*%
X36794000Y-17079400D02*
X36794000Y-10870000D01*
X32262000Y-21611400D02*
X36794000Y-17079400D01*
X36794000Y-10870000D02*
X36794000Y-4370000D01*
X32262000Y-28095500D02*
X32262000Y-21611400D01*
%TO.N,/CLK_UP*%
X28448000Y-18059400D02*
X28448000Y-10870000D01*
X28448000Y-10870000D02*
X28448000Y-4370000D01*
X31762000Y-21373400D02*
X28448000Y-18059400D01*
X31762000Y-28095500D02*
X31762000Y-21373400D01*
%TO.N,/RGB_COLOR*%
X45176000Y-10870000D02*
X45176000Y-4370000D01*
%TO.N,/CLK_DN*%
X20193000Y-4370000D02*
X20193000Y-10870000D01*
%TO.N,/NRST*%
X24773300Y-42291000D02*
X25832000Y-42291000D01*
X53558000Y-4370000D02*
X53558000Y-10870000D01*
X22402800Y-38582600D02*
X22606000Y-38379400D01*
X25832000Y-42291000D02*
X25893000Y-42352000D01*
X20497800Y-38582600D02*
X22402800Y-38582600D01*
%TO.N,Net-(D101-K)*%
X54190500Y-22156000D02*
X54165100Y-22181400D01*
X55880000Y-22156000D02*
X54190500Y-22156000D01*
%TO.N,/LED_HB*%
X33262000Y-28095500D02*
X33262000Y-25818400D01*
X33262000Y-25818400D02*
X36899000Y-22181400D01*
X36899000Y-22181400D02*
X52590100Y-22181400D01*
%TO.N,Net-(D102-K)*%
X54129700Y-19920800D02*
X55819200Y-19920800D01*
%TO.N,/SWO*%
X28260000Y-42352000D02*
X28638500Y-41973500D01*
X28956000Y-39598600D02*
X30762000Y-37792600D01*
X28638500Y-41973500D02*
X28956000Y-41656000D01*
X30762000Y-37792600D02*
X30762000Y-36420500D01*
X19227800Y-37312600D02*
X19202400Y-37338000D01*
X19202400Y-37338000D02*
X17526000Y-37338000D01*
X28956000Y-41656000D02*
X28956000Y-39598600D01*
X27193000Y-42352000D02*
X28260000Y-42352000D01*
%TO.N,/SWCLK*%
X28575000Y-39116000D02*
X27686000Y-39116000D01*
X19227800Y-38582600D02*
X19202400Y-38608000D01*
X27495500Y-39306500D02*
X27193000Y-39609000D01*
X29762000Y-37929000D02*
X28575000Y-39116000D01*
X27686000Y-39116000D02*
X27495500Y-39306500D01*
X19202400Y-38608000D02*
X17526000Y-38608000D01*
X29762000Y-36420500D02*
X29762000Y-37929000D01*
X27193000Y-39609000D02*
X27193000Y-40452000D01*
%TO.N,/SWDIO*%
X17780000Y-40513000D02*
X18440400Y-39852600D01*
X24765000Y-35560000D02*
X26317000Y-34008000D01*
X25893000Y-39355000D02*
X25893000Y-40452000D01*
X26317000Y-34008000D02*
X28349500Y-34008000D01*
X25527000Y-38989000D02*
X24765000Y-38227000D01*
X18440400Y-39852600D02*
X19227800Y-39852600D01*
X24765000Y-38227000D02*
X24765000Y-35560000D01*
X25527000Y-38989000D02*
X25893000Y-39355000D01*
D51*
%TO.N,VBUS*%
X22830000Y-48768000D02*
X22830000Y-48484000D01*
X20574000Y-46228000D02*
X18672000Y-44326000D01*
D50*
X22830000Y-49845500D02*
X22830000Y-48768000D01*
D51*
X18672000Y-44326000D02*
X16764000Y-44326000D01*
X22830000Y-48484000D02*
X20574000Y-46228000D01*
D50*
X20497800Y-39852600D02*
X22199600Y-39852600D01*
X22199600Y-39852600D02*
X22876000Y-40529000D01*
X22876000Y-40529000D02*
X22876000Y-44262000D01*
D49*
%TO.N,/D_P*%
X27243249Y-33508000D02*
X28349500Y-33508000D01*
X24040200Y-35220424D02*
X25767424Y-33493200D01*
X24040200Y-44196000D02*
X24040200Y-35220424D01*
X24040200Y-48743199D02*
X24040200Y-44196000D01*
X24130000Y-49845500D02*
X24130000Y-48832999D01*
X25767424Y-33493200D02*
X27228449Y-33493200D01*
X24130000Y-48832999D02*
X24040200Y-48743199D01*
X27228449Y-33493200D02*
X27243249Y-33508000D01*
%TO.N,/D_N*%
X25572576Y-33022800D02*
X27228449Y-33022800D01*
X27243249Y-33008000D02*
X28349500Y-33008000D01*
X23480000Y-49845500D02*
X23480000Y-48832999D01*
X27228449Y-33022800D02*
X27243249Y-33008000D01*
X23569800Y-46228000D02*
X23569800Y-35025576D01*
X23569800Y-35025576D02*
X25572576Y-33022800D01*
X23480000Y-48832999D02*
X23569800Y-48743199D01*
X23569800Y-48743199D02*
X23569800Y-46228000D01*
D50*
%TO.N,/HSE_OUT*%
X39814500Y-30607000D02*
X41198400Y-30607000D01*
X39401773Y-31019723D02*
X39424778Y-30996721D01*
X39424778Y-30996721D02*
X39814500Y-30607000D01*
X39401774Y-31420985D02*
X39401773Y-31420984D01*
X39401774Y-31420986D02*
X39401774Y-31420985D01*
X41198400Y-30607000D02*
X41237400Y-30568000D01*
X39378771Y-31845250D02*
X39401774Y-31822246D01*
X39401773Y-31019724D02*
X39401773Y-31019723D01*
X37913500Y-32508000D02*
X38576250Y-31845250D01*
X39378770Y-31845250D02*
X39378771Y-31845250D01*
X36674500Y-32508000D02*
X37913500Y-32508000D01*
X39401758Y-31822230D02*
G75*
G03*
X39401774Y-31420986I-200658J200630D01*
G01*
X39401819Y-31019770D02*
G75*
G03*
X39401773Y-31420984I200581J-200630D01*
G01*
X38977511Y-31845249D02*
G75*
G03*
X39378769Y-31845249I200629J200628D01*
G01*
X38977509Y-31845251D02*
G75*
G03*
X38576251Y-31845251I-200629J-200628D01*
G01*
%TO.N,/DIP3*%
X32207000Y-46304000D02*
X31115000Y-45212000D01*
X31262000Y-41001000D02*
X31262000Y-36420500D01*
X31115000Y-41148000D02*
X31262000Y-41001000D01*
X31115000Y-45212000D02*
X31115000Y-41148000D01*
X37454000Y-46304000D02*
X32207000Y-46304000D01*
%TO.N,/DIP2*%
X37454000Y-45504000D02*
X33185000Y-45504000D01*
X32385000Y-41148000D02*
X32385000Y-39497000D01*
X31762000Y-38874000D02*
X31762000Y-36420500D01*
X33185000Y-45504000D02*
X32385000Y-44704000D01*
X32385000Y-44704000D02*
X32385000Y-41148000D01*
X32385000Y-39497000D02*
X31762000Y-38874000D01*
%TO.N,/DIP1*%
X33655000Y-40005000D02*
X32258000Y-38608000D01*
X33655000Y-41148000D02*
X33655000Y-40005000D01*
X37454000Y-44704000D02*
X34290000Y-44704000D01*
X32258000Y-36424500D02*
X32262000Y-36420500D01*
X34290000Y-44704000D02*
X33655000Y-44069000D01*
X33655000Y-44069000D02*
X33655000Y-41148000D01*
X32258000Y-38608000D02*
X32258000Y-36424500D01*
%TO.N,/BOOT0*%
X33262000Y-38469000D02*
X33262000Y-36420500D01*
X35395000Y-43904000D02*
X34925000Y-43434000D01*
X34925000Y-40132000D02*
X33262000Y-38469000D01*
X37454000Y-43904000D02*
X35395000Y-43904000D01*
X34925000Y-43434000D02*
X34925000Y-41148000D01*
X34925000Y-41148000D02*
X34925000Y-40132000D01*
D51*
%TO.N,/LDO_3V3/5V*%
X12400000Y-36753500D02*
X12700000Y-37053500D01*
X12700000Y-34557000D02*
X12713000Y-34544000D01*
X12700000Y-37053500D02*
X12700000Y-34557000D01*
X8484000Y-36753500D02*
X12400000Y-36753500D01*
D50*
%TO.N,/VBAT*%
X38481000Y-39357000D02*
X38481000Y-35433000D01*
X42799000Y-43148000D02*
X42799000Y-42418000D01*
X41008000Y-40627000D02*
X40005000Y-40627000D01*
X40005000Y-40627000D02*
X40005000Y-39878000D01*
X46306500Y-41082000D02*
X45405000Y-41082000D01*
X40005000Y-39878000D02*
X39484000Y-39357000D01*
X42799000Y-42418000D02*
X41008000Y-40627000D01*
X43339000Y-43148000D02*
X42799000Y-43148000D01*
X39484000Y-39357000D02*
X38481000Y-39357000D01*
X45405000Y-41082000D02*
X43339000Y-43148000D01*
X38056000Y-35008000D02*
X36674500Y-35008000D01*
X38481000Y-35433000D02*
X38056000Y-35008000D01*
%TO.N,Net-(D107-K)*%
X54140100Y-24467400D02*
X55829600Y-24467400D01*
%TO.N,/LED_UI*%
X33762000Y-28095500D02*
X33762000Y-26156600D01*
X52557900Y-24460200D02*
X52565100Y-24467400D01*
X35458400Y-24460200D02*
X52557900Y-24460200D01*
X33762000Y-26156600D02*
X35458400Y-24460200D01*
%TD*%
%TA.AperFunction,Conductor*%
%TO.N,VBUS*%
G36*
X22878739Y-43707685D02*
G01*
X22924494Y-43760489D01*
X22935700Y-43812000D01*
X22935700Y-44580000D01*
X22916015Y-44647039D01*
X22863211Y-44692794D01*
X22811700Y-44704000D01*
X22098000Y-44704000D01*
X22098000Y-45145163D01*
X22078315Y-45212202D01*
X22025511Y-45257957D01*
X22000880Y-45264715D01*
X21857469Y-45318204D01*
X21742254Y-45404454D01*
X21656004Y-45519668D01*
X21656003Y-45519669D01*
X21656004Y-45519669D01*
X21605709Y-45654517D01*
X21599300Y-45714127D01*
X21599300Y-45717448D01*
X21599300Y-45717449D01*
X21599300Y-46606560D01*
X21599300Y-46606578D01*
X21599301Y-46609872D01*
X21599653Y-46613152D01*
X21599654Y-46613159D01*
X21605709Y-46669484D01*
X21615475Y-46695667D01*
X21620459Y-46765358D01*
X21586974Y-46826681D01*
X21525651Y-46860166D01*
X21499293Y-46863000D01*
X14856000Y-46863000D01*
X14788961Y-46843315D01*
X14743206Y-46790511D01*
X14732000Y-46739000D01*
X14732000Y-43812000D01*
X14751685Y-43744961D01*
X14804489Y-43699206D01*
X14856000Y-43688000D01*
X22811700Y-43688000D01*
X22878739Y-43707685D01*
G37*
%TD.AperFunction*%
%TD*%
%TA.AperFunction,Conductor*%
%TO.N,+3V3*%
G36*
X4841754Y-33993185D02*
G01*
X4887509Y-34045989D01*
X4897453Y-34115147D01*
X4892421Y-34136504D01*
X4889143Y-34146393D01*
X4879319Y-34242554D01*
X4879000Y-34248832D01*
X4879000Y-34294000D01*
X5955000Y-34294000D01*
X6022039Y-34313685D01*
X6067794Y-34366489D01*
X6079000Y-34418000D01*
X6079000Y-35518999D01*
X6099165Y-35518999D01*
X6105444Y-35518679D01*
X6213398Y-35507651D01*
X6282091Y-35520421D01*
X6332975Y-35568301D01*
X6350000Y-35631009D01*
X6350000Y-42358500D01*
X6330315Y-42425539D01*
X6277511Y-42471294D01*
X6226000Y-42482500D01*
X1140000Y-42482500D01*
X1072961Y-42462815D01*
X1027206Y-42410011D01*
X1016000Y-42358500D01*
X1016000Y-41577500D01*
X1035685Y-41510461D01*
X1088489Y-41464706D01*
X1140000Y-41453500D01*
X1934000Y-41453500D01*
X1934000Y-39303500D01*
X2434000Y-39303500D01*
X2434000Y-41453500D01*
X3228518Y-41453500D01*
X3235132Y-41453145D01*
X3291371Y-41447099D01*
X3426089Y-41396852D01*
X3541188Y-41310688D01*
X3627352Y-41195589D01*
X3677599Y-41060871D01*
X3683645Y-41004632D01*
X3684000Y-40998018D01*
X3684000Y-39303500D01*
X2434000Y-39303500D01*
X1934000Y-39303500D01*
X1934000Y-36653500D01*
X2434000Y-36653500D01*
X2434000Y-38803500D01*
X3684000Y-38803500D01*
X3684000Y-37108981D01*
X3683645Y-37102367D01*
X3677599Y-37046128D01*
X3627352Y-36911410D01*
X3541188Y-36796311D01*
X3426089Y-36710147D01*
X3291371Y-36659900D01*
X3235132Y-36653854D01*
X3228518Y-36653500D01*
X2434000Y-36653500D01*
X1934000Y-36653500D01*
X1140000Y-36653500D01*
X1072961Y-36633815D01*
X1027206Y-36581011D01*
X1016000Y-36529500D01*
X1016000Y-34794000D01*
X4879001Y-34794000D01*
X4879001Y-34839165D01*
X4879321Y-34845447D01*
X4889143Y-34941605D01*
X4942453Y-35102486D01*
X5031426Y-35246732D01*
X5151267Y-35366573D01*
X5295513Y-35455546D01*
X5456393Y-35508856D01*
X5552536Y-35518678D01*
X5558851Y-35518999D01*
X5579000Y-35518999D01*
X5579000Y-34794000D01*
X4879001Y-34794000D01*
X1016000Y-34794000D01*
X1016000Y-34097500D01*
X1035685Y-34030461D01*
X1088489Y-33984706D01*
X1140000Y-33973500D01*
X4774715Y-33973500D01*
X4841754Y-33993185D01*
G37*
%TD.AperFunction*%
%TD*%
%TA.AperFunction,Conductor*%
%TO.N,+3V3*%
G36*
X35118039Y-48537685D02*
G01*
X35163794Y-48590489D01*
X35175000Y-48642000D01*
X35175000Y-49903000D01*
X35349518Y-49903000D01*
X35356132Y-49902645D01*
X35422745Y-49895484D01*
X35491504Y-49907889D01*
X35542642Y-49955499D01*
X35560000Y-50018773D01*
X35560000Y-51311000D01*
X35540315Y-51378039D01*
X35487511Y-51423794D01*
X35436000Y-51435000D01*
X30604000Y-51435000D01*
X30536961Y-51415315D01*
X30491206Y-51362511D01*
X30480000Y-51311000D01*
X30480000Y-50018773D01*
X30499685Y-49951734D01*
X30552489Y-49905979D01*
X30617255Y-49895484D01*
X30683867Y-49902645D01*
X30690482Y-49903000D01*
X30865000Y-49903000D01*
X30865000Y-49018000D01*
X31365000Y-49018000D01*
X31365000Y-49903000D01*
X31539518Y-49903000D01*
X31546132Y-49902645D01*
X31602371Y-49896599D01*
X31706666Y-49857699D01*
X31776358Y-49852715D01*
X31793334Y-49857699D01*
X31897628Y-49896599D01*
X31953867Y-49902645D01*
X31960482Y-49903000D01*
X32135000Y-49903000D01*
X32135000Y-49018000D01*
X32635000Y-49018000D01*
X32635000Y-49903000D01*
X32809518Y-49903000D01*
X32816132Y-49902645D01*
X32872371Y-49896599D01*
X32976666Y-49857699D01*
X33046358Y-49852715D01*
X33063334Y-49857699D01*
X33167628Y-49896599D01*
X33223867Y-49902645D01*
X33230482Y-49903000D01*
X33405000Y-49903000D01*
X33405000Y-49018000D01*
X33905000Y-49018000D01*
X33905000Y-49903000D01*
X34079518Y-49903000D01*
X34086132Y-49902645D01*
X34142371Y-49896599D01*
X34246666Y-49857699D01*
X34316358Y-49852715D01*
X34333334Y-49857699D01*
X34437628Y-49896599D01*
X34493867Y-49902645D01*
X34500482Y-49903000D01*
X34675000Y-49903000D01*
X34675000Y-49018000D01*
X33905000Y-49018000D01*
X33405000Y-49018000D01*
X32635000Y-49018000D01*
X32135000Y-49018000D01*
X31365000Y-49018000D01*
X30865000Y-49018000D01*
X30865000Y-48642000D01*
X30884685Y-48574961D01*
X30937489Y-48529206D01*
X30989000Y-48518000D01*
X35051000Y-48518000D01*
X35118039Y-48537685D01*
G37*
%TD.AperFunction*%
%TD*%
%TA.AperFunction,Conductor*%
%TO.N,GND*%
G36*
X27883039Y-45485685D02*
G01*
X27928794Y-45538489D01*
X27940000Y-45590000D01*
X27940000Y-47882000D01*
X27920315Y-47949039D01*
X27867511Y-47994794D01*
X27816000Y-48006000D01*
X24798300Y-48006000D01*
X24731261Y-47986315D01*
X24685506Y-47933511D01*
X24674300Y-47882000D01*
X24674300Y-45590000D01*
X24693985Y-45522961D01*
X24746789Y-45477206D01*
X24798300Y-45466000D01*
X27816000Y-45466000D01*
X27883039Y-45485685D01*
G37*
%TD.AperFunction*%
%TD*%
%TA.AperFunction,Conductor*%
%TO.N,GND*%
G36*
X10611039Y-40532685D02*
G01*
X10656794Y-40585489D01*
X10668000Y-40637000D01*
X10668000Y-44072000D01*
X10648315Y-44139039D01*
X10595511Y-44184794D01*
X10544000Y-44196000D01*
X7490000Y-44196000D01*
X7422961Y-44176315D01*
X7377206Y-44123511D01*
X7366000Y-44072000D01*
X7366000Y-42727500D01*
X7385685Y-42660461D01*
X7438489Y-42614706D01*
X7490000Y-42603500D01*
X8234000Y-42603500D01*
X8234000Y-41603500D01*
X8734000Y-41603500D01*
X8734000Y-42603500D01*
X9528518Y-42603500D01*
X9535132Y-42603145D01*
X9591371Y-42597099D01*
X9726089Y-42546852D01*
X9841188Y-42460688D01*
X9927352Y-42345589D01*
X9977599Y-42210871D01*
X9983645Y-42154632D01*
X9984000Y-42148018D01*
X9984000Y-41603500D01*
X8734000Y-41603500D01*
X8234000Y-41603500D01*
X8234000Y-41227500D01*
X8253685Y-41160461D01*
X8306489Y-41114706D01*
X8358000Y-41103500D01*
X9984000Y-41103500D01*
X9984000Y-40637000D01*
X10003685Y-40569961D01*
X10056489Y-40524206D01*
X10108000Y-40513000D01*
X10544000Y-40513000D01*
X10611039Y-40532685D01*
G37*
%TD.AperFunction*%
%TD*%
%TA.AperFunction,Conductor*%
%TO.N,+5V*%
G36*
X16453039Y-40913685D02*
G01*
X16498794Y-40966489D01*
X16510000Y-41018000D01*
X16510000Y-42040000D01*
X16490315Y-42107039D01*
X16437511Y-42152794D01*
X16386000Y-42164000D01*
X12062000Y-42164000D01*
X11994961Y-42144315D01*
X11949206Y-42091511D01*
X11938000Y-42040000D01*
X11938000Y-41018000D01*
X11957685Y-40950961D01*
X12010489Y-40905206D01*
X12062000Y-40894000D01*
X16386000Y-40894000D01*
X16453039Y-40913685D01*
G37*
%TD.AperFunction*%
%TD*%
%TA.AperFunction,Conductor*%
%TO.N,/D_P*%
G36*
X24506526Y-43867370D02*
G01*
X24829106Y-44124919D01*
X24989348Y-44252857D01*
X24993675Y-44260697D01*
X24991191Y-44269300D01*
X24989348Y-44271143D01*
X24506528Y-44656628D01*
X24497925Y-44659112D01*
X24492670Y-44657174D01*
X24111342Y-44399080D01*
X24106411Y-44391605D01*
X24106200Y-44389391D01*
X24106200Y-44134608D01*
X24109627Y-44126335D01*
X24111337Y-44124923D01*
X24492671Y-43866824D01*
X24501442Y-43865025D01*
X24506526Y-43867370D01*
G37*
%TD.AperFunction*%
%TD*%
%TA.AperFunction,Conductor*%
%TO.N,/D_N*%
G36*
X23106907Y-45766733D02*
G01*
X23494585Y-46024927D01*
X23499572Y-46032364D01*
X23499800Y-46034664D01*
X23499800Y-46289335D01*
X23496373Y-46297608D01*
X23494585Y-46299073D01*
X23106909Y-46557265D01*
X23098124Y-46558999D01*
X23093124Y-46556670D01*
X22610250Y-46171142D01*
X22605924Y-46163303D01*
X22608408Y-46154700D01*
X22610248Y-46152859D01*
X23093126Y-45767328D01*
X23101727Y-45764845D01*
X23106907Y-45766733D01*
G37*
%TD.AperFunction*%
%TD*%
%TA.AperFunction,Conductor*%
%TO.N,GND*%
G36*
X15928696Y-1672890D02*
G01*
X16540437Y-1904141D01*
X16546964Y-1910272D01*
X16548000Y-1915085D01*
X16548000Y-2148914D01*
X16544573Y-2157187D01*
X16540437Y-2159858D01*
X15911655Y-2397551D01*
X15902705Y-2397271D01*
X15896719Y-2391109D01*
X15800306Y-2159858D01*
X15748875Y-2036499D01*
X15748855Y-2027550D01*
X15896719Y-1672889D01*
X15903066Y-1666572D01*
X15911654Y-1666448D01*
X15928696Y-1672890D01*
G37*
%TD.AperFunction*%
%TD*%
%TA.AperFunction,Conductor*%
%TO.N,GND*%
G36*
X16965228Y-1590496D02*
G01*
X17278080Y-2025165D01*
X17280132Y-2033882D01*
X17278080Y-2038835D01*
X16965228Y-2473503D01*
X16957614Y-2478216D01*
X16949991Y-2476863D01*
X16387959Y-2160355D01*
X16382432Y-2153309D01*
X16382000Y-2150160D01*
X16382000Y-1913839D01*
X16385427Y-1905566D01*
X16387959Y-1903644D01*
X16949993Y-1587135D01*
X16958881Y-1586063D01*
X16965228Y-1590496D01*
G37*
%TD.AperFunction*%
%TD*%
%TA.AperFunction,Conductor*%
%TO.N,/CLK_DN*%
G36*
X19164006Y-1587135D02*
G01*
X19169974Y-1590496D01*
X19726041Y-1903644D01*
X19731568Y-1910690D01*
X19732000Y-1913839D01*
X19732000Y-2150160D01*
X19728573Y-2158433D01*
X19726041Y-2160355D01*
X19164008Y-2476863D01*
X19155118Y-2477936D01*
X19148771Y-2473503D01*
X18922000Y-2158433D01*
X18835918Y-2038834D01*
X18833867Y-2030118D01*
X18835919Y-2025165D01*
X18916046Y-1913839D01*
X19148772Y-1590494D01*
X19156385Y-1585783D01*
X19164006Y-1587135D01*
G37*
%TD.AperFunction*%
%TD*%
%TA.AperFunction,Conductor*%
%TO.N,/CLK_DN*%
G36*
X20319090Y-2416427D02*
G01*
X20321251Y-2419406D01*
X21111167Y-3976060D01*
X21111854Y-3984988D01*
X21106027Y-3991788D01*
X21105220Y-3992159D01*
X20197487Y-4369136D01*
X20188533Y-4369145D01*
X20188513Y-4369136D01*
X19280779Y-3992159D01*
X19274452Y-3985821D01*
X19274461Y-3976867D01*
X19274832Y-3976060D01*
X20064749Y-2419406D01*
X20071549Y-2413579D01*
X20075183Y-2413000D01*
X20310817Y-2413000D01*
X20319090Y-2416427D01*
G37*
%TD.AperFunction*%
%TD*%
%TA.AperFunction,Conductor*%
%TO.N,GND*%
G36*
X24183696Y-1672890D02*
G01*
X24795437Y-1904141D01*
X24801964Y-1910272D01*
X24803000Y-1915085D01*
X24803000Y-2148914D01*
X24799573Y-2157187D01*
X24795437Y-2159858D01*
X24166655Y-2397551D01*
X24157705Y-2397271D01*
X24151719Y-2391109D01*
X24055306Y-2159858D01*
X24003875Y-2036499D01*
X24003855Y-2027550D01*
X24151719Y-1672889D01*
X24158066Y-1666572D01*
X24166654Y-1666448D01*
X24183696Y-1672890D01*
G37*
%TD.AperFunction*%
%TD*%
%TA.AperFunction,Conductor*%
%TO.N,GND*%
G36*
X25070228Y-1590496D02*
G01*
X25383080Y-2025165D01*
X25385132Y-2033882D01*
X25383080Y-2038835D01*
X25070228Y-2473503D01*
X25062614Y-2478216D01*
X25054991Y-2476863D01*
X24492959Y-2160355D01*
X24487432Y-2153309D01*
X24487000Y-2150160D01*
X24487000Y-1913839D01*
X24490427Y-1905566D01*
X24492959Y-1903644D01*
X25054993Y-1587135D01*
X25063881Y-1586063D01*
X25070228Y-1590496D01*
G37*
%TD.AperFunction*%
%TD*%
%TA.AperFunction,Conductor*%
%TO.N,/CLK_UP*%
G36*
X27269006Y-1587135D02*
G01*
X27274974Y-1590496D01*
X27831041Y-1903644D01*
X27836568Y-1910690D01*
X27837000Y-1913839D01*
X27837000Y-2150160D01*
X27833573Y-2158433D01*
X27831041Y-2160355D01*
X27269008Y-2476863D01*
X27260118Y-2477936D01*
X27253771Y-2473503D01*
X27027000Y-2158433D01*
X26940918Y-2038834D01*
X26938867Y-2030118D01*
X26940919Y-2025165D01*
X27021046Y-1913839D01*
X27253772Y-1590494D01*
X27261385Y-1585783D01*
X27269006Y-1587135D01*
G37*
%TD.AperFunction*%
%TD*%
%TA.AperFunction,Conductor*%
%TO.N,/CLK_UP*%
G36*
X28574090Y-2416427D02*
G01*
X28576251Y-2419406D01*
X29366167Y-3976060D01*
X29366854Y-3984988D01*
X29361027Y-3991788D01*
X29360220Y-3992159D01*
X28452487Y-4369136D01*
X28443533Y-4369145D01*
X28443513Y-4369136D01*
X27535779Y-3992159D01*
X27529452Y-3985821D01*
X27529461Y-3976867D01*
X27529832Y-3976060D01*
X28319749Y-2419406D01*
X28326549Y-2413579D01*
X28330183Y-2413000D01*
X28565817Y-2413000D01*
X28574090Y-2416427D01*
G37*
%TD.AperFunction*%
%TD*%
%TA.AperFunction,Conductor*%
%TO.N,/RGB_COLOR*%
G36*
X45302586Y-2634427D02*
G01*
X45304394Y-2636762D01*
X46093055Y-3975731D01*
X46094301Y-3984599D01*
X46088912Y-3991750D01*
X46087461Y-3992474D01*
X45180487Y-4369136D01*
X45171533Y-4369145D01*
X45171513Y-4369136D01*
X44264538Y-3992474D01*
X44258211Y-3986136D01*
X44258220Y-3977182D01*
X44258944Y-3975731D01*
X45047606Y-2636762D01*
X45054757Y-2631373D01*
X45057687Y-2631000D01*
X45294313Y-2631000D01*
X45302586Y-2634427D01*
G37*
%TD.AperFunction*%
%TD*%
%TA.AperFunction,Conductor*%
%TO.N,/RGB_COLOR*%
G36*
X44033078Y-1587400D02*
G01*
X44571228Y-1903608D01*
X44576624Y-1910753D01*
X44577000Y-1913695D01*
X44577000Y-2150304D01*
X44573573Y-2158577D01*
X44571227Y-2160392D01*
X44033080Y-2476598D01*
X44024211Y-2477834D01*
X44017658Y-2473345D01*
X43704918Y-2038834D01*
X43702867Y-2030118D01*
X43704919Y-2025165D01*
X44017659Y-1590652D01*
X44025271Y-1585941D01*
X44033078Y-1587400D01*
G37*
%TD.AperFunction*%
%TD*%
%TA.AperFunction,Conductor*%
%TO.N,/CLK_RST*%
G36*
X35651006Y-1587135D02*
G01*
X35656974Y-1590496D01*
X36213041Y-1903644D01*
X36218568Y-1910690D01*
X36219000Y-1913839D01*
X36219000Y-2150160D01*
X36215573Y-2158433D01*
X36213041Y-2160355D01*
X35651008Y-2476863D01*
X35642118Y-2477936D01*
X35635771Y-2473503D01*
X35409000Y-2158433D01*
X35322918Y-2038834D01*
X35320867Y-2030118D01*
X35322919Y-2025165D01*
X35403046Y-1913839D01*
X35635772Y-1590494D01*
X35643385Y-1585783D01*
X35651006Y-1587135D01*
G37*
%TD.AperFunction*%
%TD*%
%TA.AperFunction,Conductor*%
%TO.N,/CLK_RST*%
G36*
X36920285Y-2507427D02*
G01*
X36922313Y-2510152D01*
X37711745Y-3975926D01*
X37712651Y-3984835D01*
X37706992Y-3991775D01*
X37705931Y-3992279D01*
X36798486Y-4369136D01*
X36789533Y-4369144D01*
X35882067Y-3992278D01*
X35875741Y-3985941D01*
X35875750Y-3976987D01*
X35876247Y-3975940D01*
X36665686Y-2510152D01*
X36672627Y-2504493D01*
X36675988Y-2504000D01*
X36912012Y-2504000D01*
X36920285Y-2507427D01*
G37*
%TD.AperFunction*%
%TD*%
%TA.AperFunction,Conductor*%
%TO.N,GND*%
G36*
X32540296Y-1672890D02*
G01*
X33152037Y-1904141D01*
X33158564Y-1910272D01*
X33159600Y-1915085D01*
X33159600Y-2148914D01*
X33156173Y-2157187D01*
X33152037Y-2159858D01*
X32523255Y-2397551D01*
X32514305Y-2397271D01*
X32508319Y-2391109D01*
X32411906Y-2159858D01*
X32360475Y-2036499D01*
X32360455Y-2027550D01*
X32508319Y-1672889D01*
X32514666Y-1666572D01*
X32523254Y-1666448D01*
X32540296Y-1672890D01*
G37*
%TD.AperFunction*%
%TD*%
%TA.AperFunction,Conductor*%
%TO.N,GND*%
G36*
X33452228Y-1590496D02*
G01*
X33765080Y-2025165D01*
X33767132Y-2033882D01*
X33765080Y-2038835D01*
X33452228Y-2473503D01*
X33444614Y-2478216D01*
X33436991Y-2476863D01*
X32874959Y-2160355D01*
X32869432Y-2153309D01*
X32869000Y-2150160D01*
X32869000Y-1913839D01*
X32872427Y-1905566D01*
X32874959Y-1903644D01*
X33436993Y-1587135D01*
X33445881Y-1586063D01*
X33452228Y-1590496D01*
G37*
%TD.AperFunction*%
%TD*%
%TA.AperFunction,Conductor*%
%TO.N,GND*%
G36*
X40947696Y-1672890D02*
G01*
X41559437Y-1904141D01*
X41565964Y-1910272D01*
X41567000Y-1915085D01*
X41567000Y-2148914D01*
X41563573Y-2157187D01*
X41559437Y-2159858D01*
X40930655Y-2397551D01*
X40921705Y-2397271D01*
X40915719Y-2391109D01*
X40819306Y-2159858D01*
X40767875Y-2036499D01*
X40767855Y-2027550D01*
X40915719Y-1672889D01*
X40922066Y-1666572D01*
X40930654Y-1666448D01*
X40947696Y-1672890D01*
G37*
%TD.AperFunction*%
%TD*%
%TA.AperFunction,Conductor*%
%TO.N,GND*%
G36*
X41834228Y-1590496D02*
G01*
X42147080Y-2025165D01*
X42149132Y-2033882D01*
X42147080Y-2038835D01*
X41834228Y-2473503D01*
X41826614Y-2478216D01*
X41818991Y-2476863D01*
X41256959Y-2160355D01*
X41251432Y-2153309D01*
X41251000Y-2150160D01*
X41251000Y-1913839D01*
X41254427Y-1905566D01*
X41256959Y-1903644D01*
X41818993Y-1587135D01*
X41827881Y-1586063D01*
X41834228Y-1590496D01*
G37*
%TD.AperFunction*%
%TD*%
%TA.AperFunction,Conductor*%
%TO.N,GND*%
G36*
X49202696Y-1672890D02*
G01*
X49814436Y-1904141D01*
X49820963Y-1910272D01*
X49821999Y-1915085D01*
X49821999Y-2148914D01*
X49818572Y-2157187D01*
X49814436Y-2159858D01*
X49185655Y-2397551D01*
X49176705Y-2397271D01*
X49170719Y-2391109D01*
X49074306Y-2159858D01*
X49022875Y-2036499D01*
X49022855Y-2027550D01*
X49170719Y-1672889D01*
X49177066Y-1666572D01*
X49185654Y-1666448D01*
X49202696Y-1672890D01*
G37*
%TD.AperFunction*%
%TD*%
%TA.AperFunction,Conductor*%
%TO.N,GND*%
G36*
X50216228Y-1590496D02*
G01*
X50529080Y-2025165D01*
X50531132Y-2033882D01*
X50529080Y-2038835D01*
X50216228Y-2473503D01*
X50208614Y-2478216D01*
X50200991Y-2476863D01*
X49638959Y-2160355D01*
X49633432Y-2153309D01*
X49633000Y-2150160D01*
X49633000Y-1913839D01*
X49636427Y-1905566D01*
X49638959Y-1903644D01*
X50200993Y-1587135D01*
X50209881Y-1586063D01*
X50216228Y-1590496D01*
G37*
%TD.AperFunction*%
%TD*%
%TA.AperFunction,Conductor*%
%TO.N,/NRST*%
G36*
X52415006Y-1587135D02*
G01*
X52420974Y-1590496D01*
X52977041Y-1903644D01*
X52982568Y-1910690D01*
X52983000Y-1913839D01*
X52983000Y-2150160D01*
X52979573Y-2158433D01*
X52977041Y-2160355D01*
X52415008Y-2476863D01*
X52406118Y-2477936D01*
X52399771Y-2473503D01*
X52173000Y-2158433D01*
X52086918Y-2038834D01*
X52084867Y-2030118D01*
X52086919Y-2025165D01*
X52167046Y-1913839D01*
X52399772Y-1590494D01*
X52407385Y-1585783D01*
X52415006Y-1587135D01*
G37*
%TD.AperFunction*%
%TD*%
%TA.AperFunction,Conductor*%
%TO.N,/NRST*%
G36*
X53684229Y-2482027D02*
G01*
X53686296Y-2484825D01*
X54475868Y-3975964D01*
X54476711Y-3984879D01*
X54471003Y-3991779D01*
X54470015Y-3992244D01*
X53562486Y-4369136D01*
X53553533Y-4369144D01*
X52645984Y-3992244D01*
X52639657Y-3985906D01*
X52639666Y-3976952D01*
X52640126Y-3975972D01*
X53429703Y-2484825D01*
X53436604Y-2479117D01*
X53440044Y-2478600D01*
X53675956Y-2478600D01*
X53684229Y-2482027D01*
G37*
%TD.AperFunction*%
%TD*%
%TA.AperFunction,Conductor*%
%TO.N,/LED_PIXEL*%
G36*
X11429729Y-24667427D02*
G01*
X11431425Y-24669575D01*
X11697850Y-25103225D01*
X11699261Y-25112068D01*
X11695628Y-25118118D01*
X11310747Y-25458155D01*
X11302278Y-25461065D01*
X11295253Y-25458155D01*
X10910371Y-25118118D01*
X10906440Y-25110072D01*
X10908149Y-25103225D01*
X11174575Y-24669575D01*
X11181826Y-24664320D01*
X11184544Y-24664000D01*
X11421456Y-24664000D01*
X11429729Y-24667427D01*
G37*
%TD.AperFunction*%
%TD*%
%TA.AperFunction,Conductor*%
%TO.N,Net-(J104-Pin_2)*%
G36*
X5794203Y-26357785D02*
G01*
X7144680Y-27049739D01*
X7150480Y-27056561D01*
X7151044Y-27060151D01*
X7151044Y-27295461D01*
X7147617Y-27303734D01*
X7144179Y-27306115D01*
X5793962Y-27918903D01*
X5785012Y-27919202D01*
X5778983Y-27914079D01*
X5336350Y-27143830D01*
X5335199Y-27134949D01*
X5336350Y-27132170D01*
X5381846Y-27053000D01*
X5778726Y-26362367D01*
X5785818Y-26356904D01*
X5794203Y-26357785D01*
G37*
%TD.AperFunction*%
%TD*%
%TA.AperFunction,Conductor*%
%TO.N,Net-(J104-Pin_2)*%
G36*
X10942099Y-26746495D02*
G01*
X11296201Y-27106080D01*
X11299565Y-27114379D01*
X11296492Y-27122193D01*
X10956795Y-27492955D01*
X10948679Y-27496740D01*
X10944069Y-27496010D01*
X10435601Y-27305842D01*
X10429053Y-27299734D01*
X10428000Y-27294883D01*
X10428000Y-27059528D01*
X10431427Y-27051255D01*
X10433554Y-27049573D01*
X10927622Y-26744746D01*
X10936460Y-26743319D01*
X10942099Y-26746495D01*
G37*
%TD.AperFunction*%
%TD*%
%TA.AperFunction,Conductor*%
%TO.N,/LED_PIXEL*%
G36*
X30884801Y-27211427D02*
G01*
X30888156Y-27218408D01*
X30908473Y-27401264D01*
X30908474Y-27403841D01*
X30908328Y-27405162D01*
X30908312Y-27405333D01*
X30907389Y-27416426D01*
X30907380Y-27416575D01*
X30907317Y-27417718D01*
X30907313Y-27417859D01*
X30906999Y-27429152D01*
X30906998Y-27429332D01*
X30906998Y-27433719D01*
X30906999Y-27433754D01*
X30906999Y-27433900D01*
X30907007Y-27434045D01*
X30907008Y-27434078D01*
X30907855Y-27449293D01*
X30907585Y-27452523D01*
X30773411Y-28046020D01*
X30768244Y-28053334D01*
X30759419Y-28054852D01*
X30752105Y-28049685D01*
X30750588Y-28046024D01*
X30616414Y-27452523D01*
X30612787Y-27436480D01*
X30612499Y-27433900D01*
X30612499Y-27429152D01*
X30612571Y-27427860D01*
X30613842Y-27416426D01*
X30635844Y-27218408D01*
X30640163Y-27210564D01*
X30647472Y-27208000D01*
X30876528Y-27208000D01*
X30884801Y-27211427D01*
G37*
%TD.AperFunction*%
%TD*%
%TA.AperFunction,Conductor*%
%TO.N,GND*%
G36*
X22854942Y-29322435D02*
G01*
X22859835Y-29329935D01*
X22860035Y-29332062D01*
X22861000Y-29718000D01*
X22860035Y-30103937D01*
X22856587Y-30112202D01*
X22848306Y-30115608D01*
X22846179Y-30115408D01*
X22069544Y-29969789D01*
X22062044Y-29964896D01*
X22060000Y-29958289D01*
X22060000Y-29477710D01*
X22063427Y-29469437D01*
X22069542Y-29466210D01*
X22846180Y-29320591D01*
X22854942Y-29322435D01*
G37*
%TD.AperFunction*%
%TD*%
%TA.AperFunction,Conductor*%
%TO.N,GND*%
G36*
X21192005Y-28939997D02*
G01*
X22134988Y-29464655D01*
X22140552Y-29471672D01*
X22141000Y-29474879D01*
X22141000Y-29961120D01*
X22137573Y-29969393D01*
X22134988Y-29971344D01*
X21192010Y-30495999D01*
X21183115Y-30497027D01*
X21181183Y-30496286D01*
X19611486Y-29728509D01*
X19605561Y-29721797D01*
X19606118Y-29712859D01*
X19611487Y-29707490D01*
X21181184Y-28939713D01*
X21190119Y-28939157D01*
X21192005Y-28939997D01*
G37*
%TD.AperFunction*%
%TD*%
%TA.AperFunction,Conductor*%
%TO.N,+5V*%
G36*
X5793654Y-28856351D02*
G01*
X7151545Y-29385097D01*
X7158011Y-29391293D01*
X7159000Y-29396000D01*
X7159000Y-29879999D01*
X7155573Y-29888272D01*
X7151545Y-29890902D01*
X5793656Y-30419647D01*
X5784704Y-30419455D01*
X5779268Y-30414575D01*
X5336349Y-29643829D01*
X5335199Y-29634949D01*
X5336350Y-29632170D01*
X5474773Y-29391293D01*
X5779269Y-28861423D01*
X5786360Y-28855960D01*
X5793654Y-28856351D01*
G37*
%TD.AperFunction*%
%TD*%
%TA.AperFunction,Conductor*%
%TO.N,+5V*%
G36*
X12600373Y-28939497D02*
G01*
X14169737Y-29707111D01*
X14175663Y-29713823D01*
X14175106Y-29722761D01*
X14169444Y-29728268D01*
X12552988Y-30464177D01*
X12544038Y-30464486D01*
X12541842Y-30463389D01*
X11646402Y-29891450D01*
X11641274Y-29884109D01*
X11641000Y-29881590D01*
X11641000Y-29395411D01*
X11644427Y-29387138D01*
X11647699Y-29384834D01*
X12590244Y-28939432D01*
X12599186Y-28938996D01*
X12600373Y-28939497D01*
G37*
%TD.AperFunction*%
%TD*%
%TA.AperFunction,Conductor*%
%TO.N,+5V*%
G36*
X14199268Y-29725278D02*
G01*
X14199278Y-29725288D01*
X14984127Y-30511118D01*
X14987549Y-30519393D01*
X14985490Y-30526014D01*
X14444487Y-31312928D01*
X14436976Y-31317804D01*
X14434846Y-31318000D01*
X13947154Y-31318000D01*
X13938881Y-31314573D01*
X13937513Y-31312928D01*
X13937512Y-31312927D01*
X13396508Y-30526012D01*
X13394646Y-30517256D01*
X13397870Y-30511120D01*
X14182722Y-29725287D01*
X14190993Y-29721856D01*
X14199268Y-29725278D01*
G37*
%TD.AperFunction*%
%TD*%
%TA.AperFunction,Conductor*%
%TO.N,GND*%
G36*
X44344960Y-26775252D02*
G01*
X44700195Y-26921436D01*
X44706542Y-26927754D01*
X44706563Y-26927804D01*
X44852746Y-27283037D01*
X44852725Y-27291991D01*
X44846685Y-27298177D01*
X44240934Y-27567916D01*
X44231983Y-27568151D01*
X44227902Y-27565501D01*
X44062498Y-27400097D01*
X44059071Y-27391824D01*
X44060083Y-27387065D01*
X44102419Y-27291991D01*
X44329823Y-26781312D01*
X44336318Y-26775150D01*
X44344960Y-26775252D01*
G37*
%TD.AperFunction*%
%TD*%
%TA.AperFunction,Conductor*%
%TO.N,GND*%
G36*
X43144006Y-27037935D02*
G01*
X43149974Y-27041296D01*
X43706041Y-27354444D01*
X43711568Y-27361490D01*
X43712000Y-27364639D01*
X43712000Y-27600960D01*
X43708573Y-27609233D01*
X43706041Y-27611155D01*
X43144008Y-27927663D01*
X43135118Y-27928736D01*
X43128771Y-27924303D01*
X42902000Y-27609233D01*
X42815918Y-27489634D01*
X42813867Y-27480918D01*
X42815919Y-27475965D01*
X42896046Y-27364639D01*
X43128772Y-27041294D01*
X43136385Y-27036583D01*
X43144006Y-27037935D01*
G37*
%TD.AperFunction*%
%TD*%
%TA.AperFunction,Conductor*%
%TO.N,GND*%
G36*
X44367299Y-28945848D02*
G01*
X44844750Y-29090709D01*
X44851671Y-29096389D01*
X44852548Y-29105301D01*
X44852172Y-29106356D01*
X44706563Y-29460195D01*
X44700245Y-29466542D01*
X44700195Y-29466563D01*
X44346356Y-29612172D01*
X44337402Y-29612151D01*
X44331084Y-29605804D01*
X44330713Y-29604764D01*
X44185847Y-29127299D01*
X44186725Y-29118387D01*
X44188768Y-29115632D01*
X44355630Y-28948770D01*
X44363902Y-28945344D01*
X44367299Y-28945848D01*
G37*
%TD.AperFunction*%
%TD*%
%TA.AperFunction,Conductor*%
%TO.N,GND*%
G36*
X43144006Y-28587335D02*
G01*
X43149974Y-28590696D01*
X43706041Y-28903844D01*
X43711568Y-28910890D01*
X43712000Y-28914039D01*
X43712000Y-29150360D01*
X43708573Y-29158633D01*
X43706041Y-29160555D01*
X43144008Y-29477063D01*
X43135118Y-29478136D01*
X43128771Y-29473703D01*
X42902000Y-29158633D01*
X42815918Y-29039034D01*
X42813867Y-29030318D01*
X42815919Y-29025365D01*
X42896046Y-28914039D01*
X43128772Y-28590694D01*
X43136385Y-28585983D01*
X43144006Y-28587335D01*
G37*
%TD.AperFunction*%
%TD*%
%TA.AperFunction,Conductor*%
%TO.N,/CLK_DN*%
G36*
X21073323Y-11234594D02*
G01*
X21105346Y-11247893D01*
X21111673Y-11254231D01*
X21111664Y-11263185D01*
X21111349Y-11263880D01*
X20321220Y-12863482D01*
X20314484Y-12869382D01*
X20310730Y-12870000D01*
X20075270Y-12870000D01*
X20066997Y-12866573D01*
X20064780Y-12863482D01*
X19274649Y-11263878D01*
X19274058Y-11254944D01*
X19279958Y-11248208D01*
X19280642Y-11247897D01*
X20188514Y-10870862D01*
X20197464Y-10870854D01*
X21073323Y-11234594D01*
G37*
%TD.AperFunction*%
%TD*%
%TA.AperFunction,Conductor*%
%TO.N,/CLK_DN*%
G36*
X31384801Y-27211427D02*
G01*
X31388156Y-27218408D01*
X31411428Y-27427851D01*
X31411500Y-27429143D01*
X31411500Y-27433903D01*
X31411212Y-27436483D01*
X31273411Y-28046020D01*
X31268244Y-28053334D01*
X31259419Y-28054852D01*
X31252105Y-28049685D01*
X31250588Y-28046024D01*
X31147138Y-27588429D01*
X31112787Y-27436480D01*
X31112499Y-27433900D01*
X31112499Y-27429152D01*
X31112571Y-27427860D01*
X31135844Y-27218408D01*
X31140163Y-27210564D01*
X31147472Y-27208000D01*
X31376528Y-27208000D01*
X31384801Y-27211427D01*
G37*
%TD.AperFunction*%
%TD*%
%TA.AperFunction,Conductor*%
%TO.N,/RGB_COLOR*%
G36*
X32884801Y-27211427D02*
G01*
X32888156Y-27218408D01*
X32908473Y-27401264D01*
X32908474Y-27403841D01*
X32908328Y-27405162D01*
X32908312Y-27405333D01*
X32907389Y-27416426D01*
X32907380Y-27416575D01*
X32907317Y-27417718D01*
X32907313Y-27417859D01*
X32906999Y-27429152D01*
X32906998Y-27429332D01*
X32906998Y-27433719D01*
X32906999Y-27433754D01*
X32906999Y-27433900D01*
X32907007Y-27434045D01*
X32907008Y-27434078D01*
X32907855Y-27449293D01*
X32907585Y-27452523D01*
X32773411Y-28046020D01*
X32768244Y-28053334D01*
X32759419Y-28054852D01*
X32752105Y-28049685D01*
X32750588Y-28046024D01*
X32616414Y-27452523D01*
X32612787Y-27436480D01*
X32612499Y-27433900D01*
X32612499Y-27429152D01*
X32612571Y-27427860D01*
X32613842Y-27416426D01*
X32635844Y-27218408D01*
X32640163Y-27210564D01*
X32647472Y-27208000D01*
X32876528Y-27208000D01*
X32884801Y-27211427D01*
G37*
%TD.AperFunction*%
%TD*%
%TA.AperFunction,Conductor*%
%TO.N,/RGB_COLOR*%
G36*
X46056323Y-11234594D02*
G01*
X46088346Y-11247893D01*
X46094673Y-11254231D01*
X46094664Y-11263185D01*
X46094349Y-11263880D01*
X45304220Y-12863482D01*
X45297484Y-12869382D01*
X45293730Y-12870000D01*
X45058270Y-12870000D01*
X45049997Y-12866573D01*
X45047780Y-12863482D01*
X44257649Y-11263878D01*
X44257058Y-11254944D01*
X44262958Y-11248208D01*
X44263642Y-11247897D01*
X45171514Y-10870862D01*
X45180464Y-10870854D01*
X46056323Y-11234594D01*
G37*
%TD.AperFunction*%
%TD*%
%TA.AperFunction,Conductor*%
%TO.N,GND*%
G36*
X29563294Y-22494728D02*
G01*
X29569280Y-22500890D01*
X29717123Y-22855497D01*
X29717144Y-22864451D01*
X29717123Y-22864501D01*
X29569280Y-23219109D01*
X29562933Y-23225427D01*
X29554344Y-23225551D01*
X28925563Y-22987858D01*
X28919036Y-22981727D01*
X28918000Y-22976914D01*
X28918000Y-22743085D01*
X28921427Y-22734812D01*
X28925563Y-22732141D01*
X29554345Y-22494448D01*
X29563294Y-22494728D01*
G37*
%TD.AperFunction*%
%TD*%
%TA.AperFunction,Conductor*%
%TO.N,GND*%
G36*
X27096702Y-22457067D02*
G01*
X27670457Y-22731817D01*
X27676439Y-22738480D01*
X27677104Y-22742369D01*
X27677104Y-22978182D01*
X27673677Y-22986455D01*
X27671173Y-22988361D01*
X27096999Y-23313763D01*
X27088111Y-23314861D01*
X27081999Y-23310773D01*
X27052457Y-23272839D01*
X26756701Y-22893061D01*
X26754322Y-22884429D01*
X26756701Y-22878685D01*
X27082421Y-22460429D01*
X27090207Y-22456009D01*
X27096702Y-22457067D01*
G37*
%TD.AperFunction*%
%TD*%
%TA.AperFunction,Conductor*%
%TO.N,GND*%
G36*
X30085872Y-22711324D02*
G01*
X30092111Y-22717485D01*
X30347237Y-23308317D01*
X30347371Y-23317271D01*
X30344769Y-23321228D01*
X30179228Y-23486769D01*
X30170955Y-23490196D01*
X30166317Y-23489237D01*
X29575485Y-23234111D01*
X29569248Y-23227686D01*
X29569303Y-23218918D01*
X29715437Y-22863802D01*
X29721753Y-22857457D01*
X30076918Y-22711303D01*
X30085872Y-22711324D01*
G37*
%TD.AperFunction*%
%TD*%
%TA.AperFunction,Conductor*%
%TO.N,GND*%
G36*
X30384801Y-27211427D02*
G01*
X30388156Y-27218408D01*
X30408473Y-27401265D01*
X30408474Y-27403843D01*
X30408328Y-27405163D01*
X30408312Y-27405333D01*
X30407389Y-27416426D01*
X30407380Y-27416575D01*
X30407317Y-27417718D01*
X30407313Y-27417859D01*
X30406999Y-27429152D01*
X30406998Y-27429332D01*
X30406998Y-27433719D01*
X30406999Y-27433754D01*
X30406999Y-27433900D01*
X30407007Y-27434045D01*
X30407008Y-27434078D01*
X30407855Y-27449294D01*
X30407585Y-27452524D01*
X30273411Y-28046020D01*
X30268244Y-28053334D01*
X30259419Y-28054852D01*
X30252105Y-28049685D01*
X30250588Y-28046024D01*
X30116412Y-27452519D01*
X30116143Y-27449293D01*
X30117000Y-27433903D01*
X30117000Y-27429143D01*
X30116682Y-27417709D01*
X30116673Y-27417524D01*
X30116610Y-27416417D01*
X30116597Y-27416245D01*
X30115671Y-27405157D01*
X30115656Y-27405020D01*
X30115639Y-27404874D01*
X30115525Y-27403843D01*
X30115525Y-27401275D01*
X30135844Y-27218408D01*
X30140163Y-27210564D01*
X30147472Y-27208000D01*
X30376528Y-27208000D01*
X30384801Y-27211427D01*
G37*
%TD.AperFunction*%
%TD*%
%TA.AperFunction,Conductor*%
%TO.N,/UART_RX*%
G36*
X35625045Y-26486525D02*
G01*
X35628486Y-26494792D01*
X35628486Y-26494834D01*
X35627816Y-26874181D01*
X35624375Y-26882448D01*
X35618359Y-26885643D01*
X35356500Y-26936793D01*
X35347723Y-26935016D01*
X35345984Y-26933583D01*
X35178016Y-26765615D01*
X35174589Y-26757342D01*
X35174804Y-26755109D01*
X35225956Y-26493239D01*
X35230905Y-26485777D01*
X35237417Y-26483783D01*
X35616766Y-26483113D01*
X35625045Y-26486525D01*
G37*
%TD.AperFunction*%
%TD*%
%TA.AperFunction,Conductor*%
%TO.N,/UART_RX*%
G36*
X35384801Y-27211427D02*
G01*
X35388156Y-27218408D01*
X35411782Y-27431043D01*
X35411566Y-27434915D01*
X35273411Y-28046020D01*
X35268244Y-28053334D01*
X35259419Y-28054852D01*
X35252105Y-28049685D01*
X35250588Y-28046024D01*
X35112787Y-27436480D01*
X35112499Y-27433900D01*
X35112499Y-27429152D01*
X35112571Y-27427860D01*
X35135844Y-27218408D01*
X35140163Y-27210564D01*
X35147472Y-27208000D01*
X35376528Y-27208000D01*
X35384801Y-27211427D01*
G37*
%TD.AperFunction*%
%TD*%
%TA.AperFunction,Conductor*%
%TO.N,+3V3*%
G36*
X39399998Y-28068525D02*
G01*
X39406504Y-28074679D01*
X39407523Y-28079455D01*
X39407523Y-28313288D01*
X39404096Y-28321561D01*
X39399927Y-28324245D01*
X38771635Y-28559595D01*
X38762686Y-28559288D01*
X38756732Y-28553140D01*
X38608875Y-28198499D01*
X38608855Y-28189550D01*
X38756704Y-27834926D01*
X38763051Y-27828609D01*
X38771677Y-27828499D01*
X39399998Y-28068525D01*
G37*
%TD.AperFunction*%
%TD*%
%TA.AperFunction,Conductor*%
%TO.N,+3V3*%
G36*
X39726153Y-27915964D02*
G01*
X39730738Y-27919396D01*
X39949231Y-28189034D01*
X39951777Y-28197619D01*
X39949231Y-28203766D01*
X39730738Y-28473403D01*
X39722867Y-28477673D01*
X39717198Y-28476858D01*
X39346450Y-28324381D01*
X39340102Y-28318065D01*
X39339200Y-28313560D01*
X39339200Y-28079239D01*
X39342627Y-28070966D01*
X39346448Y-28068418D01*
X39717198Y-27915941D01*
X39726153Y-27915964D01*
G37*
%TD.AperFunction*%
%TD*%
%TA.AperFunction,Conductor*%
%TO.N,/UART_TX*%
G36*
X38471894Y-29142728D02*
G01*
X38477880Y-29148890D01*
X38625723Y-29503497D01*
X38625744Y-29512451D01*
X38625723Y-29512501D01*
X38477880Y-29867109D01*
X38471533Y-29873427D01*
X38462944Y-29873551D01*
X37834163Y-29635858D01*
X37827636Y-29629727D01*
X37826600Y-29624914D01*
X37826600Y-29391085D01*
X37830027Y-29382812D01*
X37834163Y-29380141D01*
X38462945Y-29142448D01*
X38471894Y-29142728D01*
G37*
%TD.AperFunction*%
%TD*%
%TA.AperFunction,Conductor*%
%TO.N,/UART_TX*%
G36*
X37551592Y-29381843D02*
G01*
X37559435Y-29386162D01*
X37561999Y-29393471D01*
X37562000Y-29622528D01*
X37558573Y-29630801D01*
X37551592Y-29634156D01*
X37342147Y-29657428D01*
X37340855Y-29657500D01*
X37336094Y-29657500D01*
X37333514Y-29657212D01*
X37226416Y-29633000D01*
X36723978Y-29519411D01*
X36716665Y-29514245D01*
X36715147Y-29505420D01*
X36720314Y-29498106D01*
X36723979Y-29496588D01*
X37335085Y-29358432D01*
X37338953Y-29358217D01*
X37551592Y-29381843D01*
G37*
%TD.AperFunction*%
%TD*%
%TA.AperFunction,Conductor*%
%TO.N,+3.3VA*%
G36*
X40885202Y-28630857D02*
G01*
X41255451Y-29024181D01*
X41258627Y-29032553D01*
X41255451Y-29040219D01*
X40885202Y-29433542D01*
X40877036Y-29437218D01*
X40869496Y-29434755D01*
X40725172Y-29322389D01*
X40517512Y-29160712D01*
X40513090Y-29152925D01*
X40513000Y-29151480D01*
X40513000Y-28912919D01*
X40516427Y-28904646D01*
X40517512Y-28903687D01*
X40869498Y-28629643D01*
X40878128Y-28627266D01*
X40885202Y-28630857D01*
G37*
%TD.AperFunction*%
%TD*%
%TA.AperFunction,Conductor*%
%TO.N,+3.3VA*%
G36*
X37342139Y-30858571D02*
G01*
X37551593Y-30881843D01*
X37559436Y-30886162D01*
X37562000Y-30893471D01*
X37562000Y-31122528D01*
X37558573Y-31130801D01*
X37551592Y-31134156D01*
X37342147Y-31157428D01*
X37340855Y-31157500D01*
X37336094Y-31157500D01*
X37333514Y-31157212D01*
X36723979Y-31019411D01*
X36716665Y-31014244D01*
X36715147Y-31005419D01*
X36720314Y-30998105D01*
X36723973Y-30996589D01*
X37333519Y-30858786D01*
X37336097Y-30858499D01*
X37340847Y-30858499D01*
X37342139Y-30858571D01*
G37*
%TD.AperFunction*%
%TD*%
%TA.AperFunction,Conductor*%
%TO.N,+3.3VA*%
G36*
X41269187Y-27487397D02*
G01*
X41687169Y-27812904D01*
X41691591Y-27820691D01*
X41690349Y-27827556D01*
X41390283Y-28401521D01*
X41383413Y-28407265D01*
X41379914Y-28407800D01*
X41144086Y-28407800D01*
X41135813Y-28404373D01*
X41133717Y-28401521D01*
X40833650Y-27827556D01*
X40832854Y-27818636D01*
X40836828Y-27812906D01*
X41254811Y-27487397D01*
X41263444Y-27485018D01*
X41269187Y-27487397D01*
G37*
%TD.AperFunction*%
%TD*%
%TA.AperFunction,Conductor*%
%TO.N,+3.3VA*%
G36*
X41388187Y-28110627D02*
G01*
X41390283Y-28113479D01*
X41690349Y-28687443D01*
X41691145Y-28696363D01*
X41687169Y-28702095D01*
X41269189Y-29027601D01*
X41260556Y-29029981D01*
X41254811Y-29027601D01*
X40836830Y-28702095D01*
X40832408Y-28694308D01*
X40833649Y-28687445D01*
X41133717Y-28113478D01*
X41140587Y-28107735D01*
X41144086Y-28107200D01*
X41379914Y-28107200D01*
X41388187Y-28110627D01*
G37*
%TD.AperFunction*%
%TD*%
%TA.AperFunction,Conductor*%
%TO.N,+3.3VA*%
G36*
X41037174Y-27011235D02*
G01*
X41040683Y-27015541D01*
X41259042Y-27474483D01*
X41259502Y-27483426D01*
X41255844Y-27488599D01*
X40844100Y-27822322D01*
X40835515Y-27824869D01*
X40828417Y-27821463D01*
X40591348Y-27581887D01*
X40366656Y-27354818D01*
X40363273Y-27346588D01*
X40363273Y-27111587D01*
X40366700Y-27103314D01*
X40373362Y-27099998D01*
X41028509Y-27008979D01*
X41037174Y-27011235D01*
G37*
%TD.AperFunction*%
%TD*%
%TA.AperFunction,Conductor*%
%TO.N,+3.3VA*%
G36*
X40191201Y-26945941D02*
G01*
X40199602Y-26949396D01*
X40561950Y-27098418D01*
X40568298Y-27104734D01*
X40569200Y-27109239D01*
X40569200Y-27343560D01*
X40565773Y-27351833D01*
X40561950Y-27354381D01*
X40191201Y-27506858D01*
X40182246Y-27506835D01*
X40177661Y-27503403D01*
X39959168Y-27233765D01*
X39956622Y-27225180D01*
X39959166Y-27219037D01*
X40177662Y-26949395D01*
X40185532Y-26945126D01*
X40191201Y-26945941D01*
G37*
%TD.AperFunction*%
%TD*%
%TA.AperFunction,Conductor*%
%TO.N,GND*%
G36*
X29995094Y-34142728D02*
G01*
X30001080Y-34148890D01*
X30148923Y-34503498D01*
X30148944Y-34512452D01*
X30148923Y-34512502D01*
X30001080Y-34867109D01*
X29994733Y-34873427D01*
X29986144Y-34873551D01*
X29357363Y-34635858D01*
X29350836Y-34629727D01*
X29349800Y-34624914D01*
X29349800Y-34391085D01*
X29353227Y-34382812D01*
X29357363Y-34380141D01*
X29986145Y-34142448D01*
X29995094Y-34142728D01*
G37*
%TD.AperFunction*%
%TD*%
%TA.AperFunction,Conductor*%
%TO.N,GND*%
G36*
X29017139Y-34358571D02*
G01*
X29226593Y-34381843D01*
X29234436Y-34386162D01*
X29237000Y-34393471D01*
X29237000Y-34622528D01*
X29233573Y-34630801D01*
X29226592Y-34634156D01*
X29017148Y-34657428D01*
X29015856Y-34657500D01*
X29011094Y-34657500D01*
X29008514Y-34657212D01*
X28901416Y-34633000D01*
X28398978Y-34519411D01*
X28391665Y-34514245D01*
X28390147Y-34505420D01*
X28395314Y-34498106D01*
X28398979Y-34496588D01*
X29008519Y-34358787D01*
X29011099Y-34358499D01*
X29015847Y-34358499D01*
X29017139Y-34358571D01*
G37*
%TD.AperFunction*%
%TD*%
%TA.AperFunction,Conductor*%
%TO.N,/NRST*%
G36*
X33996656Y-32502582D02*
G01*
X34620584Y-32764987D01*
X34626881Y-32771353D01*
X34627748Y-32775772D01*
X34627748Y-33009632D01*
X34624321Y-33017905D01*
X34619828Y-33020704D01*
X33996237Y-33233613D01*
X33987301Y-33233044D01*
X33981658Y-33227043D01*
X33833675Y-32872099D01*
X33833655Y-32863150D01*
X33981357Y-32508878D01*
X33987703Y-32502562D01*
X33996656Y-32502582D01*
G37*
%TD.AperFunction*%
%TD*%
%TA.AperFunction,Conductor*%
%TO.N,/NRST*%
G36*
X35984055Y-31861658D02*
G01*
X35984175Y-31861672D01*
X35984348Y-31861688D01*
X35995426Y-31862610D01*
X35995575Y-31862619D01*
X35996718Y-31862682D01*
X35996859Y-31862686D01*
X36008152Y-31863000D01*
X36008332Y-31863001D01*
X36012721Y-31863000D01*
X36012901Y-31863000D01*
X36028292Y-31862143D01*
X36031519Y-31862412D01*
X36625021Y-31996588D01*
X36632334Y-32001754D01*
X36633852Y-32010579D01*
X36628685Y-32017893D01*
X36625020Y-32019411D01*
X36015481Y-32157212D01*
X36012901Y-32157500D01*
X36008152Y-32157500D01*
X36006860Y-32157428D01*
X35797408Y-32134156D01*
X35789564Y-32129837D01*
X35787000Y-32122528D01*
X35787000Y-32008000D01*
X35787000Y-31893468D01*
X35790426Y-31885198D01*
X35797405Y-31881843D01*
X35980283Y-31861524D01*
X35982852Y-31861524D01*
X35984055Y-31861658D01*
G37*
%TD.AperFunction*%
%TD*%
%TA.AperFunction,Conductor*%
%TO.N,GND*%
G36*
X35139687Y-30814246D02*
G01*
X35146005Y-30820593D01*
X35146229Y-30821181D01*
X35353160Y-31412672D01*
X35352657Y-31421613D01*
X35350389Y-31424809D01*
X35184635Y-31590563D01*
X35176362Y-31593990D01*
X35171364Y-31592869D01*
X34629579Y-31336901D01*
X34623563Y-31330268D01*
X34623756Y-31321873D01*
X34770037Y-30966402D01*
X34776353Y-30960057D01*
X35130735Y-30814225D01*
X35139687Y-30814246D01*
G37*
%TD.AperFunction*%
%TD*%
%TA.AperFunction,Conductor*%
%TO.N,GND*%
G36*
X36015477Y-31358786D02*
G01*
X36625021Y-31496588D01*
X36632334Y-31501754D01*
X36633852Y-31510579D01*
X36628685Y-31517893D01*
X36625020Y-31519411D01*
X36015481Y-31657212D01*
X36012901Y-31657500D01*
X36008152Y-31657500D01*
X36006860Y-31657428D01*
X35797408Y-31634156D01*
X35789564Y-31629837D01*
X35787000Y-31622528D01*
X35787000Y-31393471D01*
X35790427Y-31385198D01*
X35797406Y-31381843D01*
X36006870Y-31358569D01*
X36008126Y-31358499D01*
X36012913Y-31358499D01*
X36015477Y-31358786D01*
G37*
%TD.AperFunction*%
%TD*%
%TA.AperFunction,Conductor*%
%TO.N,GND*%
G36*
X67995904Y-38074221D02*
G01*
X68648037Y-38520416D01*
X68652930Y-38527916D01*
X68651086Y-38536679D01*
X68649724Y-38538324D01*
X68377507Y-38811907D01*
X68103924Y-39084124D01*
X68095643Y-39087530D01*
X68087378Y-39084082D01*
X68086016Y-39082437D01*
X67639821Y-38430304D01*
X67637977Y-38421541D01*
X67641202Y-38415426D01*
X67981025Y-38075603D01*
X67989297Y-38072177D01*
X67995904Y-38074221D01*
G37*
%TD.AperFunction*%
%TD*%
%TA.AperFunction,Conductor*%
%TO.N,GND*%
G36*
X67697673Y-36330006D02*
G01*
X67698827Y-36331160D01*
X68473857Y-37223220D01*
X68682330Y-37463172D01*
X68685169Y-37471664D01*
X68681177Y-37479673D01*
X67943302Y-38121528D01*
X67935623Y-38124400D01*
X67444377Y-38124400D01*
X67436698Y-38121528D01*
X66698822Y-37479673D01*
X66694829Y-37471657D01*
X66697668Y-37463173D01*
X67681168Y-36331164D01*
X67689181Y-36327167D01*
X67697673Y-36330006D01*
G37*
%TD.AperFunction*%
%TD*%
%TA.AperFunction,Conductor*%
%TO.N,/BAT+*%
G36*
X48831064Y-39845360D02*
G01*
X49211800Y-40004000D01*
X49218119Y-40010345D01*
X49219000Y-40014800D01*
X49219000Y-40249199D01*
X49215573Y-40257472D01*
X49211800Y-40259999D01*
X48831064Y-40418639D01*
X48822109Y-40418658D01*
X48821791Y-40418521D01*
X48204408Y-40142681D01*
X48198253Y-40136178D01*
X48198499Y-40127226D01*
X48204405Y-40121319D01*
X48821792Y-39845477D01*
X48830743Y-39845232D01*
X48831064Y-39845360D01*
G37*
%TD.AperFunction*%
%TD*%
%TA.AperFunction,Conductor*%
%TO.N,/BAT+*%
G36*
X51697673Y-36330006D02*
G01*
X51698827Y-36331160D01*
X52338286Y-37067178D01*
X52683309Y-37464299D01*
X52686148Y-37472791D01*
X52683282Y-37479676D01*
X51818496Y-38468004D01*
X51810469Y-38471974D01*
X51809691Y-38472000D01*
X51570309Y-38472000D01*
X51562036Y-38468573D01*
X51561504Y-38468005D01*
X51561504Y-38468004D01*
X50696716Y-37479676D01*
X50693848Y-37471194D01*
X50696689Y-37464300D01*
X51681168Y-36331164D01*
X51689181Y-36327167D01*
X51697673Y-36330006D01*
G37*
%TD.AperFunction*%
%TD*%
%TA.AperFunction,Conductor*%
%TO.N,GND*%
G36*
X22386782Y-51802273D02*
G01*
X23122709Y-52537221D01*
X23126141Y-52545492D01*
X23122720Y-52553768D01*
X23122709Y-52553779D01*
X22386782Y-53288726D01*
X22378506Y-53292147D01*
X22372024Y-53290182D01*
X21635210Y-52798973D01*
X21630227Y-52791533D01*
X21630000Y-52789238D01*
X21630000Y-52301761D01*
X21633427Y-52293488D01*
X21635205Y-52292029D01*
X22372024Y-51800816D01*
X22380809Y-51799079D01*
X22386782Y-51802273D01*
G37*
%TD.AperFunction*%
%TD*%
%TA.AperFunction,Conductor*%
%TO.N,GND*%
G36*
X21837782Y-51950039D02*
G01*
X22424196Y-52292114D01*
X22429615Y-52299241D01*
X22430000Y-52302219D01*
X22430000Y-52788780D01*
X22426573Y-52797053D01*
X22424195Y-52798886D01*
X21837783Y-53140959D01*
X21828910Y-53142168D01*
X21823622Y-53139133D01*
X21480972Y-52797053D01*
X21237292Y-52553778D01*
X21233859Y-52545510D01*
X21237278Y-52537235D01*
X21823624Y-51951865D01*
X21831898Y-51948446D01*
X21837782Y-51950039D01*
G37*
%TD.AperFunction*%
%TD*%
%TA.AperFunction,Conductor*%
%TO.N,GND*%
G36*
X22273494Y-36947328D02*
G01*
X22279480Y-36953490D01*
X22427323Y-37308098D01*
X22427344Y-37317052D01*
X22427323Y-37317102D01*
X22279480Y-37671709D01*
X22273133Y-37678027D01*
X22264544Y-37678151D01*
X21635763Y-37440458D01*
X21629236Y-37434327D01*
X21628200Y-37429514D01*
X21628200Y-37195685D01*
X21631627Y-37187412D01*
X21635763Y-37184741D01*
X22264545Y-36947048D01*
X22273494Y-36947328D01*
G37*
%TD.AperFunction*%
%TD*%
%TA.AperFunction,Conductor*%
%TO.N,GND*%
G36*
X21277208Y-37184754D02*
G01*
X21283751Y-37190866D01*
X21284800Y-37195709D01*
X21284800Y-37429490D01*
X21281373Y-37437763D01*
X21277207Y-37440446D01*
X20658950Y-37672187D01*
X20650000Y-37671882D01*
X20644044Y-37665734D01*
X20498677Y-37317102D01*
X20498656Y-37308148D01*
X20644044Y-36959464D01*
X20650391Y-36953148D01*
X20658948Y-36953012D01*
X21277208Y-37184754D01*
G37*
%TD.AperFunction*%
%TD*%
%TA.AperFunction,Conductor*%
%TO.N,GND*%
G36*
X44851626Y-36205617D02*
G01*
X44856293Y-36213259D01*
X44856434Y-36215042D01*
X44857394Y-36599044D01*
X44856493Y-36603575D01*
X44707111Y-36961874D01*
X44700764Y-36968192D01*
X44693735Y-36968785D01*
X44070575Y-36828060D01*
X44063260Y-36822895D01*
X44061452Y-36816647D01*
X44061452Y-36336009D01*
X44064879Y-36327736D01*
X44071339Y-36324450D01*
X44842923Y-36203512D01*
X44851626Y-36205617D01*
G37*
%TD.AperFunction*%
%TD*%
%TA.AperFunction,Conductor*%
%TO.N,GND*%
G36*
X43422522Y-36128854D02*
G01*
X43983532Y-36323273D01*
X43990226Y-36329219D01*
X43991400Y-36334327D01*
X43991400Y-36817672D01*
X43987973Y-36825945D01*
X43983531Y-36828727D01*
X43422522Y-37023145D01*
X43413583Y-37022616D01*
X43409195Y-37018925D01*
X43095319Y-36582835D01*
X43093267Y-36574118D01*
X43095319Y-36569165D01*
X43409195Y-36133073D01*
X43416809Y-36128361D01*
X43422522Y-36128854D01*
G37*
%TD.AperFunction*%
%TD*%
%TA.AperFunction,Conductor*%
%TO.N,GND*%
G36*
X44852754Y-34909536D02*
G01*
X44856425Y-34917704D01*
X44856430Y-34918022D01*
X44857394Y-35303644D01*
X44856493Y-35308175D01*
X44707751Y-35664939D01*
X44701404Y-35671257D01*
X44692639Y-35671313D01*
X44089049Y-35431929D01*
X44082622Y-35425693D01*
X44081662Y-35421053D01*
X44081662Y-35303644D01*
X44081662Y-34940354D01*
X44085088Y-34932084D01*
X44093011Y-34928663D01*
X44844384Y-34906356D01*
X44852754Y-34909536D01*
G37*
%TD.AperFunction*%
%TD*%
%TA.AperFunction,Conductor*%
%TO.N,GND*%
G36*
X43773366Y-34337827D02*
G01*
X44362960Y-34925571D01*
X44366400Y-34933838D01*
X44366400Y-35417796D01*
X44362973Y-35426069D01*
X44355207Y-35429485D01*
X43772080Y-35454753D01*
X43763666Y-35451688D01*
X43762696Y-35450686D01*
X43173780Y-34764761D01*
X43170992Y-34756252D01*
X43175036Y-34748263D01*
X43175900Y-34747589D01*
X43758363Y-34336554D01*
X43767096Y-34334584D01*
X43773366Y-34337827D01*
G37*
%TD.AperFunction*%
%TD*%
%TA.AperFunction,Conductor*%
%TO.N,GND*%
G36*
X39249019Y-42050054D02*
G01*
X39256416Y-42055102D01*
X39258324Y-42061506D01*
X39258324Y-42295227D01*
X39254897Y-42303500D01*
X39252451Y-42305373D01*
X38645588Y-42653937D01*
X38636708Y-42655086D01*
X38629615Y-42649618D01*
X38628962Y-42648293D01*
X38484586Y-42302000D01*
X38481875Y-42295499D01*
X38481855Y-42286550D01*
X38630350Y-41930376D01*
X38636696Y-41924060D01*
X38643541Y-41923428D01*
X39249019Y-42050054D01*
G37*
%TD.AperFunction*%
%TD*%
%TA.AperFunction,Conductor*%
%TO.N,GND*%
G36*
X39674895Y-41751830D02*
G01*
X40000401Y-42169811D01*
X40002781Y-42178444D01*
X40000401Y-42184189D01*
X39674895Y-42602169D01*
X39667108Y-42606591D01*
X39660243Y-42605349D01*
X39086279Y-42305282D01*
X39080535Y-42298412D01*
X39080000Y-42294913D01*
X39080000Y-42059086D01*
X39083427Y-42050813D01*
X39086277Y-42048718D01*
X39660244Y-41748649D01*
X39669163Y-41747854D01*
X39674895Y-41751830D01*
G37*
%TD.AperFunction*%
%TD*%
%TA.AperFunction,Conductor*%
%TO.N,GND*%
G36*
X9324696Y-34184890D02*
G01*
X9936437Y-34416141D01*
X9942964Y-34422272D01*
X9944000Y-34427085D01*
X9944000Y-34660914D01*
X9940573Y-34669187D01*
X9936437Y-34671858D01*
X9307655Y-34909551D01*
X9298705Y-34909271D01*
X9292719Y-34903109D01*
X9196306Y-34671858D01*
X9144875Y-34548499D01*
X9144855Y-34539550D01*
X9292719Y-34184889D01*
X9299066Y-34178572D01*
X9307654Y-34178448D01*
X9324696Y-34184890D01*
G37*
%TD.AperFunction*%
%TD*%
%TA.AperFunction,Conductor*%
%TO.N,GND*%
G36*
X10846228Y-34102496D02*
G01*
X11159080Y-34537165D01*
X11161132Y-34545882D01*
X11159080Y-34550835D01*
X10846228Y-34985503D01*
X10838614Y-34990216D01*
X10830991Y-34988863D01*
X10268959Y-34672355D01*
X10263432Y-34665309D01*
X10263000Y-34662160D01*
X10263000Y-34425839D01*
X10266427Y-34417566D01*
X10268959Y-34415644D01*
X10830993Y-34099135D01*
X10839881Y-34098063D01*
X10846228Y-34102496D01*
G37*
%TD.AperFunction*%
%TD*%
%TA.AperFunction,Conductor*%
%TO.N,GND*%
G36*
X45104963Y-34509427D02*
G01*
X45108190Y-34515544D01*
X45253808Y-35292179D01*
X45251964Y-35300942D01*
X45244464Y-35305835D01*
X45242337Y-35306035D01*
X44856400Y-35307000D01*
X44470462Y-35306035D01*
X44462197Y-35302587D01*
X44458791Y-35294306D01*
X44458991Y-35292179D01*
X44604610Y-34515544D01*
X44609503Y-34508044D01*
X44616110Y-34506000D01*
X45096690Y-34506000D01*
X45104963Y-34509427D01*
G37*
%TD.AperFunction*%
%TD*%
%TA.AperFunction,Conductor*%
%TO.N,GND*%
G36*
X44863234Y-33925919D02*
G01*
X45299324Y-34239794D01*
X45304037Y-34247408D01*
X45303544Y-34253121D01*
X45109127Y-34814131D01*
X45103180Y-34820826D01*
X45098072Y-34822000D01*
X44614728Y-34822000D01*
X44606455Y-34818573D01*
X44603673Y-34814131D01*
X44409254Y-34253121D01*
X44409783Y-34244182D01*
X44413472Y-34239795D01*
X44849566Y-33925918D01*
X44858281Y-33923867D01*
X44863234Y-33925919D01*
G37*
%TD.AperFunction*%
%TD*%
%TA.AperFunction,Conductor*%
%TO.N,GND*%
G36*
X40889513Y-45959015D02*
G01*
X40893942Y-45966798D01*
X40894033Y-45968224D01*
X40894994Y-46352644D01*
X40894093Y-46357175D01*
X40744866Y-46715103D01*
X40738519Y-46721421D01*
X40731040Y-46721903D01*
X40112817Y-46556322D01*
X40105712Y-46550871D01*
X40104144Y-46545020D01*
X40104144Y-46352644D01*
X40104144Y-46064321D01*
X40107570Y-46056051D01*
X40114385Y-46052716D01*
X40880879Y-45956644D01*
X40889513Y-45959015D01*
G37*
%TD.AperFunction*%
%TD*%
%TA.AperFunction,Conductor*%
%TO.N,GND*%
G36*
X58646649Y-24145442D02*
G01*
X58652041Y-24151316D01*
X58731836Y-24342709D01*
X58800123Y-24506497D01*
X58800144Y-24515451D01*
X58800123Y-24515501D01*
X58652562Y-24869433D01*
X58646215Y-24875751D01*
X58637261Y-24875730D01*
X58636949Y-24875595D01*
X58016559Y-24595508D01*
X58010428Y-24588980D01*
X58009673Y-24584844D01*
X58009673Y-24350982D01*
X58013100Y-24342709D01*
X58017856Y-24339823D01*
X58637730Y-24144658D01*
X58646649Y-24145442D01*
G37*
%TD.AperFunction*%
%TD*%
%TA.AperFunction,Conductor*%
%TO.N,GND*%
G36*
X57840373Y-24072549D02*
G01*
X57843990Y-24074771D01*
X58274026Y-24338975D01*
X58279280Y-24346225D01*
X58279600Y-24348943D01*
X58279600Y-24585856D01*
X58276173Y-24594129D01*
X58274025Y-24595825D01*
X57840373Y-24862250D01*
X57831530Y-24863661D01*
X57825480Y-24860028D01*
X57485444Y-24475147D01*
X57482534Y-24466678D01*
X57485444Y-24459653D01*
X57825481Y-24074770D01*
X57833526Y-24070840D01*
X57840373Y-24072549D01*
G37*
%TD.AperFunction*%
%TD*%
%TA.AperFunction,Conductor*%
%TO.N,GND*%
G36*
X26668188Y-43145427D02*
G01*
X26670859Y-43149563D01*
X26908551Y-43778344D01*
X26908271Y-43787294D01*
X26902109Y-43793280D01*
X26547502Y-43941123D01*
X26538548Y-43941144D01*
X26538498Y-43941123D01*
X26183890Y-43793280D01*
X26177572Y-43786933D01*
X26177448Y-43778345D01*
X26415141Y-43149562D01*
X26421272Y-43143036D01*
X26426085Y-43142000D01*
X26659915Y-43142000D01*
X26668188Y-43145427D01*
G37*
%TD.AperFunction*%
%TD*%
%TA.AperFunction,Conductor*%
%TO.N,GND*%
G36*
X26549118Y-42363400D02*
G01*
X26552971Y-42367253D01*
X26662539Y-42545848D01*
X26740010Y-42672127D01*
X26741415Y-42680971D01*
X26740992Y-42682353D01*
X26670847Y-42869408D01*
X26664734Y-42875951D01*
X26659892Y-42877000D01*
X26426108Y-42877000D01*
X26417835Y-42873573D01*
X26415153Y-42869408D01*
X26345007Y-42682353D01*
X26345311Y-42673404D01*
X26345985Y-42672133D01*
X26533028Y-42367254D01*
X26540274Y-42361995D01*
X26549118Y-42363400D01*
G37*
%TD.AperFunction*%
%TD*%
%TA.AperFunction,Conductor*%
%TO.N,GND*%
G36*
X8989294Y-34178728D02*
G01*
X8995280Y-34184890D01*
X9143123Y-34539498D01*
X9143144Y-34548452D01*
X9143123Y-34548502D01*
X8995280Y-34903109D01*
X8988933Y-34909427D01*
X8980344Y-34909551D01*
X8351563Y-34671858D01*
X8345036Y-34665727D01*
X8344000Y-34660914D01*
X8344000Y-34427085D01*
X8347427Y-34418812D01*
X8351563Y-34416141D01*
X8980345Y-34178448D01*
X8989294Y-34178728D01*
G37*
%TD.AperFunction*%
%TD*%
%TA.AperFunction,Conductor*%
%TO.N,GND*%
G36*
X7711006Y-34099135D02*
G01*
X7716974Y-34102496D01*
X8273041Y-34415644D01*
X8278568Y-34422690D01*
X8279000Y-34425839D01*
X8279000Y-34662160D01*
X8275573Y-34670433D01*
X8273041Y-34672355D01*
X7711008Y-34988863D01*
X7702118Y-34989936D01*
X7695771Y-34985503D01*
X7469000Y-34670433D01*
X7382918Y-34550834D01*
X7380867Y-34542118D01*
X7382919Y-34537165D01*
X7463046Y-34425839D01*
X7695772Y-34102494D01*
X7703385Y-34097783D01*
X7711006Y-34099135D01*
G37*
%TD.AperFunction*%
%TD*%
%TA.AperFunction,Conductor*%
%TO.N,GND*%
G36*
X34771893Y-36466313D02*
G01*
X34773411Y-36469978D01*
X34907585Y-37063471D01*
X34907855Y-37066701D01*
X34907008Y-37081907D01*
X34907007Y-37081936D01*
X34906999Y-37082085D01*
X34906999Y-37082264D01*
X34906999Y-37086871D01*
X34907003Y-37087022D01*
X34907324Y-37098432D01*
X34907332Y-37098593D01*
X34907395Y-37099692D01*
X34907408Y-37099860D01*
X34908327Y-37110825D01*
X34908345Y-37111002D01*
X34908474Y-37112150D01*
X34908473Y-37114732D01*
X34888156Y-37297592D01*
X34883837Y-37305436D01*
X34876528Y-37308000D01*
X34647472Y-37308000D01*
X34639199Y-37304573D01*
X34635844Y-37297592D01*
X34627381Y-37221429D01*
X34612570Y-37088131D01*
X34612499Y-37086871D01*
X34612499Y-37082085D01*
X34612785Y-37079523D01*
X34750588Y-36469975D01*
X34755754Y-36462664D01*
X34764579Y-36461146D01*
X34771893Y-36466313D01*
G37*
%TD.AperFunction*%
%TD*%
%TA.AperFunction,Conductor*%
%TO.N,GND*%
G36*
X26356990Y-49186654D02*
G01*
X26357720Y-49188112D01*
X26629133Y-49841009D01*
X26629144Y-49849964D01*
X26629133Y-49849991D01*
X26357720Y-50502887D01*
X26351380Y-50509211D01*
X26342425Y-50509200D01*
X26340967Y-50508470D01*
X26331513Y-50502887D01*
X25435751Y-49973896D01*
X25430369Y-49966739D01*
X25430000Y-49963822D01*
X25430000Y-49727177D01*
X25433427Y-49718904D01*
X25435746Y-49717106D01*
X26340969Y-49182528D01*
X26349833Y-49181272D01*
X26356990Y-49186654D01*
G37*
%TD.AperFunction*%
%TD*%
%TA.AperFunction,Conductor*%
%TO.N,GND*%
G36*
X25637030Y-49648136D02*
G01*
X25822407Y-49717652D01*
X25822408Y-49717653D01*
X25828951Y-49723767D01*
X25830000Y-49728608D01*
X25830000Y-49962392D01*
X25826573Y-49970665D01*
X25822408Y-49973347D01*
X25637034Y-50042862D01*
X25628084Y-50042558D01*
X25624675Y-50040202D01*
X25437334Y-49853793D01*
X25433887Y-49845529D01*
X25437293Y-49837248D01*
X25624677Y-49650796D01*
X25632955Y-49647392D01*
X25637030Y-49648136D01*
G37*
%TD.AperFunction*%
%TD*%
%TA.AperFunction,Conductor*%
%TO.N,GND*%
G36*
X27667474Y-37646319D02*
G01*
X28208863Y-37853165D01*
X28215367Y-37859317D01*
X28215615Y-37868269D01*
X28215506Y-37868545D01*
X28069563Y-38223195D01*
X28063245Y-38229542D01*
X28063195Y-38229563D01*
X27708545Y-38375506D01*
X27699591Y-38375485D01*
X27693273Y-38369138D01*
X27693184Y-38368913D01*
X27486318Y-37827474D01*
X27486567Y-37818522D01*
X27488972Y-37815028D01*
X27655026Y-37648974D01*
X27663298Y-37645548D01*
X27667474Y-37646319D01*
G37*
%TD.AperFunction*%
%TD*%
%TA.AperFunction,Conductor*%
%TO.N,GND*%
G36*
X58646649Y-19598842D02*
G01*
X58652041Y-19604716D01*
X58800123Y-19959898D01*
X58800144Y-19968852D01*
X58800123Y-19968902D01*
X58652562Y-20322833D01*
X58646215Y-20329151D01*
X58637261Y-20329130D01*
X58636949Y-20328995D01*
X58016559Y-20048908D01*
X58010428Y-20042380D01*
X58009673Y-20038244D01*
X58009673Y-19804382D01*
X58013100Y-19796109D01*
X58017856Y-19793223D01*
X58637730Y-19598058D01*
X58646649Y-19598842D01*
G37*
%TD.AperFunction*%
%TD*%
%TA.AperFunction,Conductor*%
%TO.N,GND*%
G36*
X57829973Y-19525949D02*
G01*
X58263624Y-19792374D01*
X58268879Y-19799625D01*
X58269199Y-19802343D01*
X58269199Y-20039256D01*
X58265772Y-20047529D01*
X58263624Y-20049225D01*
X57829973Y-20315650D01*
X57821130Y-20317061D01*
X57815080Y-20313428D01*
X57475044Y-19928547D01*
X57472134Y-19920078D01*
X57475044Y-19913053D01*
X57815081Y-19528170D01*
X57823126Y-19524240D01*
X57829973Y-19525949D01*
G37*
%TD.AperFunction*%
%TD*%
%TA.AperFunction,Conductor*%
%TO.N,GND*%
G36*
X58653494Y-21790728D02*
G01*
X58659480Y-21796890D01*
X58807323Y-22151498D01*
X58807344Y-22160452D01*
X58807323Y-22160502D01*
X58659480Y-22515109D01*
X58653133Y-22521427D01*
X58644544Y-22521551D01*
X58015763Y-22283858D01*
X58009236Y-22277727D01*
X58008200Y-22272914D01*
X58008200Y-22039085D01*
X58011627Y-22030812D01*
X58015763Y-22028141D01*
X58644545Y-21790448D01*
X58653494Y-21790728D01*
G37*
%TD.AperFunction*%
%TD*%
%TA.AperFunction,Conductor*%
%TO.N,GND*%
G36*
X57890773Y-21761149D02*
G01*
X58324424Y-22027574D01*
X58329679Y-22034825D01*
X58329999Y-22037543D01*
X58329999Y-22274456D01*
X58326572Y-22282729D01*
X58324424Y-22284425D01*
X57890773Y-22550850D01*
X57881930Y-22552261D01*
X57875880Y-22548628D01*
X57535844Y-22163747D01*
X57532934Y-22155278D01*
X57535844Y-22148253D01*
X57875881Y-21763370D01*
X57883926Y-21759440D01*
X57890773Y-21761149D01*
G37*
%TD.AperFunction*%
%TD*%
%TA.AperFunction,Conductor*%
%TO.N,GND*%
G36*
X39993307Y-32165241D02*
G01*
X40768400Y-32303281D01*
X40775944Y-32308106D01*
X40778048Y-32314800D01*
X40778048Y-32795386D01*
X40774621Y-32803659D01*
X40768616Y-32806864D01*
X39993532Y-32960046D01*
X39984752Y-32958288D01*
X39979786Y-32950836D01*
X39979564Y-32948597D01*
X39979205Y-32805000D01*
X39978600Y-32562800D01*
X39979565Y-32176731D01*
X39983013Y-32168467D01*
X39991294Y-32165061D01*
X39993307Y-32165241D01*
G37*
%TD.AperFunction*%
%TD*%
%TA.AperFunction,Conductor*%
%TO.N,GND*%
G36*
X40872777Y-31961366D02*
G01*
X41459106Y-32546720D01*
X41462540Y-32554990D01*
X41459120Y-32563266D01*
X41459106Y-32563280D01*
X40872777Y-33148633D01*
X40864501Y-33152053D01*
X40858616Y-33150459D01*
X40272205Y-32808386D01*
X40266785Y-32801258D01*
X40266400Y-32798280D01*
X40266400Y-32311719D01*
X40269827Y-32303446D01*
X40272200Y-32301616D01*
X40858617Y-31959539D01*
X40867489Y-31958331D01*
X40872777Y-31961366D01*
G37*
%TD.AperFunction*%
%TD*%
%TA.AperFunction,Conductor*%
%TO.N,GND*%
G36*
X26436377Y-51951866D02*
G01*
X27022706Y-52537220D01*
X27026140Y-52545490D01*
X27022720Y-52553766D01*
X27022706Y-52553780D01*
X26436377Y-53139133D01*
X26428101Y-53142553D01*
X26422216Y-53140959D01*
X25835805Y-52798886D01*
X25830385Y-52791758D01*
X25830000Y-52788780D01*
X25830000Y-52302219D01*
X25833427Y-52293946D01*
X25835800Y-52292116D01*
X26422217Y-51950039D01*
X26431089Y-51948831D01*
X26436377Y-51951866D01*
G37*
%TD.AperFunction*%
%TD*%
%TA.AperFunction,Conductor*%
%TO.N,GND*%
G36*
X25887975Y-51800817D02*
G01*
X26133579Y-51964553D01*
X26624790Y-52292027D01*
X26629773Y-52299466D01*
X26630000Y-52301761D01*
X26630000Y-52789238D01*
X26626573Y-52797511D01*
X26624790Y-52798973D01*
X25887975Y-53290182D01*
X25879190Y-53291920D01*
X25873217Y-53288726D01*
X25137290Y-52553779D01*
X25133858Y-52545508D01*
X25137279Y-52537232D01*
X25137290Y-52537221D01*
X25382812Y-52292026D01*
X25873218Y-51802272D01*
X25881493Y-51798852D01*
X25887975Y-51800817D01*
G37*
%TD.AperFunction*%
%TD*%
%TA.AperFunction,Conductor*%
%TO.N,GND*%
G36*
X35596604Y-39132589D02*
G01*
X35597204Y-39132860D01*
X36213726Y-39432599D01*
X36219667Y-39439297D01*
X36220309Y-39443120D01*
X36220309Y-39676968D01*
X36216882Y-39685241D01*
X36211816Y-39688220D01*
X35596076Y-39863701D01*
X35587180Y-39862673D01*
X35582070Y-39856951D01*
X35510481Y-39685241D01*
X35433875Y-39501499D01*
X35433855Y-39492550D01*
X35581305Y-39138883D01*
X35587650Y-39132568D01*
X35596604Y-39132589D01*
G37*
%TD.AperFunction*%
%TD*%
%TA.AperFunction,Conductor*%
%TO.N,GND*%
G36*
X36499894Y-39135629D02*
G01*
X36739173Y-39442886D01*
X36825401Y-39553610D01*
X36827781Y-39562243D01*
X36825401Y-39567988D01*
X36499895Y-39985969D01*
X36492108Y-39990391D01*
X36485243Y-39989149D01*
X35911279Y-39689082D01*
X35905535Y-39682212D01*
X35905000Y-39678713D01*
X35905000Y-39442886D01*
X35908427Y-39434613D01*
X35911277Y-39432518D01*
X36485244Y-39132449D01*
X36494163Y-39131654D01*
X36499894Y-39135629D01*
G37*
%TD.AperFunction*%
%TD*%
%TA.AperFunction,Conductor*%
%TO.N,GND*%
G36*
X39262256Y-43911290D02*
G01*
X39262289Y-43911323D01*
X39498061Y-44148037D01*
X39501471Y-44156317D01*
X39500236Y-44161526D01*
X39382234Y-44397532D01*
X39375469Y-44403400D01*
X39371769Y-44404000D01*
X39136231Y-44404000D01*
X39127958Y-44400573D01*
X39125766Y-44397532D01*
X39007763Y-44161526D01*
X39007128Y-44152594D01*
X39009935Y-44148040D01*
X39245710Y-43911322D01*
X39253976Y-43907880D01*
X39262256Y-43911290D01*
G37*
%TD.AperFunction*%
%TD*%
%TA.AperFunction,Conductor*%
%TO.N,GND*%
G36*
X39380042Y-45807427D02*
G01*
X39382234Y-45810468D01*
X39500236Y-46046473D01*
X39500871Y-46055405D01*
X39498061Y-46059962D01*
X39262289Y-46296676D01*
X39254022Y-46300119D01*
X39245742Y-46296709D01*
X39245709Y-46296676D01*
X39009938Y-46059962D01*
X39006528Y-46051682D01*
X39007762Y-46046474D01*
X39125766Y-45810468D01*
X39132531Y-45804600D01*
X39136231Y-45804000D01*
X39371769Y-45804000D01*
X39380042Y-45807427D01*
G37*
%TD.AperFunction*%
%TD*%
%TA.AperFunction,Conductor*%
%TO.N,GND*%
G36*
X38606188Y-41494427D02*
G01*
X38608859Y-41498563D01*
X38846551Y-42127344D01*
X38846271Y-42136294D01*
X38840109Y-42142280D01*
X38485502Y-42290123D01*
X38476548Y-42290144D01*
X38476498Y-42290123D01*
X38121890Y-42142280D01*
X38115572Y-42135933D01*
X38115448Y-42127345D01*
X38353141Y-41498562D01*
X38359272Y-41492036D01*
X38364085Y-41491000D01*
X38597915Y-41491000D01*
X38606188Y-41494427D01*
G37*
%TD.AperFunction*%
%TD*%
%TA.AperFunction,Conductor*%
%TO.N,GND*%
G36*
X38487834Y-40910919D02*
G01*
X38922502Y-41223770D01*
X38927215Y-41231384D01*
X38925862Y-41239007D01*
X38609356Y-41801041D01*
X38602310Y-41806568D01*
X38599161Y-41807000D01*
X38362839Y-41807000D01*
X38354566Y-41803573D01*
X38352644Y-41801041D01*
X38036136Y-41239007D01*
X38035063Y-41230117D01*
X38039494Y-41223772D01*
X38474166Y-40910918D01*
X38482881Y-40908867D01*
X38487834Y-40910919D01*
G37*
%TD.AperFunction*%
%TD*%
%TA.AperFunction,Conductor*%
%TO.N,GND*%
G36*
X27579188Y-36834598D02*
G01*
X27997039Y-37160003D01*
X28001461Y-37167790D01*
X28000127Y-37174825D01*
X27700324Y-37725891D01*
X27693361Y-37731521D01*
X27690047Y-37732000D01*
X27453953Y-37732000D01*
X27445680Y-37728573D01*
X27443676Y-37725891D01*
X27143872Y-37174825D01*
X27142928Y-37165920D01*
X27146958Y-37160005D01*
X27564812Y-36834597D01*
X27573443Y-36832218D01*
X27579188Y-36834598D01*
G37*
%TD.AperFunction*%
%TD*%
%TA.AperFunction,Conductor*%
%TO.N,GND*%
G36*
X34675713Y-37659142D02*
G01*
X34841055Y-37824484D01*
X34844482Y-37832757D01*
X34843446Y-37837570D01*
X34566905Y-38450259D01*
X34560378Y-38456390D01*
X34551789Y-38456266D01*
X34196503Y-38310062D01*
X34190156Y-38303744D01*
X34190135Y-38303694D01*
X34043931Y-37948408D01*
X34043952Y-37939454D01*
X34049936Y-37933293D01*
X34662627Y-37656750D01*
X34671577Y-37656471D01*
X34675713Y-37659142D01*
G37*
%TD.AperFunction*%
%TD*%
%TA.AperFunction,Conductor*%
%TO.N,+3V3*%
G36*
X35389038Y-37285815D02*
G01*
X35390477Y-37287564D01*
X35703606Y-37753737D01*
X35705375Y-37762516D01*
X35702182Y-37768520D01*
X35429563Y-38042103D01*
X35421296Y-38045544D01*
X35421246Y-38045544D01*
X35039613Y-38044590D01*
X35031348Y-38041142D01*
X35027942Y-38032861D01*
X35028064Y-38031206D01*
X35047036Y-37900789D01*
X35049026Y-37895773D01*
X35061554Y-37877882D01*
X35064919Y-37865317D01*
X35066085Y-37862504D01*
X35072588Y-37851243D01*
X35080000Y-37809202D01*
X35080212Y-37808244D01*
X35091263Y-37767005D01*
X35087545Y-37724505D01*
X35087500Y-37723485D01*
X35087500Y-37623493D01*
X35087622Y-37621809D01*
X35135543Y-37292404D01*
X35140125Y-37284710D01*
X35147121Y-37282388D01*
X35380765Y-37282388D01*
X35389038Y-37285815D01*
G37*
%TD.AperFunction*%
%TD*%
%TA.AperFunction,Conductor*%
%TO.N,+3V3*%
G36*
X35271893Y-36466313D02*
G01*
X35273411Y-36469978D01*
X35411566Y-37081083D01*
X35411782Y-37084955D01*
X35388156Y-37297592D01*
X35383837Y-37305436D01*
X35376528Y-37308000D01*
X35147472Y-37308000D01*
X35139199Y-37304573D01*
X35135844Y-37297592D01*
X35127381Y-37221429D01*
X35112570Y-37088131D01*
X35112499Y-37086871D01*
X35112499Y-37082085D01*
X35112785Y-37079523D01*
X35250588Y-36469975D01*
X35255754Y-36462664D01*
X35264579Y-36461146D01*
X35271893Y-36466313D01*
G37*
%TD.AperFunction*%
%TD*%
%TA.AperFunction,Conductor*%
%TO.N,+3V3*%
G36*
X27690477Y-34858786D02*
G01*
X28300023Y-34996588D01*
X28307335Y-35001754D01*
X28308853Y-35010579D01*
X28303686Y-35017893D01*
X28300021Y-35019411D01*
X27688916Y-35157566D01*
X27685044Y-35157782D01*
X27472408Y-35134156D01*
X27464564Y-35129837D01*
X27462000Y-35122528D01*
X27462000Y-34893471D01*
X27465427Y-34885198D01*
X27472406Y-34881843D01*
X27681870Y-34858569D01*
X27683126Y-34858499D01*
X27687913Y-34858499D01*
X27690477Y-34858786D01*
G37*
%TD.AperFunction*%
%TD*%
%TA.AperFunction,Conductor*%
%TO.N,+3V3*%
G36*
X26148187Y-35908427D02*
G01*
X26150283Y-35911279D01*
X26450349Y-36485243D01*
X26451145Y-36494163D01*
X26447169Y-36499895D01*
X26029189Y-36825401D01*
X26020556Y-36827781D01*
X26014811Y-36825401D01*
X25596830Y-36499895D01*
X25592408Y-36492108D01*
X25593649Y-36485245D01*
X25893717Y-35911278D01*
X25900587Y-35905535D01*
X25904086Y-35905000D01*
X26139914Y-35905000D01*
X26148187Y-35908427D01*
G37*
%TD.AperFunction*%
%TD*%
%TA.AperFunction,Conductor*%
%TO.N,+3V3*%
G36*
X26628330Y-34922600D02*
G01*
X26629951Y-34923952D01*
X26798047Y-35092048D01*
X26801474Y-35100321D01*
X26801284Y-35102423D01*
X26754250Y-35359919D01*
X26749392Y-35367442D01*
X26742761Y-35369517D01*
X26363534Y-35370186D01*
X26355254Y-35366774D01*
X26351813Y-35358508D01*
X26352482Y-34979236D01*
X26355923Y-34970971D01*
X26362076Y-34967750D01*
X26619577Y-34920715D01*
X26628330Y-34922600D01*
G37*
%TD.AperFunction*%
%TD*%
%TA.AperFunction,Conductor*%
%TO.N,+3V3*%
G36*
X28068188Y-24006220D02*
G01*
X28071972Y-24009385D01*
X28398505Y-24428684D01*
X28400885Y-24437317D01*
X28398505Y-24443062D01*
X28071972Y-24862360D01*
X28064185Y-24866782D01*
X28059271Y-24866345D01*
X27486334Y-24688428D01*
X27479450Y-24682701D01*
X27478104Y-24677254D01*
X27478104Y-24194491D01*
X27481531Y-24186218D01*
X27486332Y-24183317D01*
X28059271Y-24005400D01*
X28068188Y-24006220D01*
G37*
%TD.AperFunction*%
%TD*%
%TA.AperFunction,Conductor*%
%TO.N,+3V3*%
G36*
X27095936Y-24005400D02*
G01*
X27108769Y-24009385D01*
X27668874Y-24183317D01*
X27675758Y-24189044D01*
X27677104Y-24194491D01*
X27677104Y-24677254D01*
X27673677Y-24685527D01*
X27668874Y-24688428D01*
X27095936Y-24866345D01*
X27087019Y-24865525D01*
X27083235Y-24862360D01*
X26756702Y-24443061D01*
X26754322Y-24434428D01*
X26756700Y-24428686D01*
X27083236Y-24009384D01*
X27091022Y-24004963D01*
X27095936Y-24005400D01*
G37*
%TD.AperFunction*%
%TD*%
%TA.AperFunction,Conductor*%
%TO.N,+3V3*%
G36*
X52911709Y-18538319D02*
G01*
X52918027Y-18544666D01*
X52918151Y-18553255D01*
X52680459Y-19182037D01*
X52674328Y-19188564D01*
X52669515Y-19189600D01*
X52435685Y-19189600D01*
X52427412Y-19186173D01*
X52424741Y-19182037D01*
X52187048Y-18553255D01*
X52187328Y-18544305D01*
X52193489Y-18538319D01*
X52548100Y-18390475D01*
X52557049Y-18390455D01*
X52911709Y-18538319D01*
G37*
%TD.AperFunction*%
%TD*%
%TA.AperFunction,Conductor*%
%TO.N,+3V3*%
G36*
X52678772Y-19011727D02*
G01*
X52680878Y-19014599D01*
X52971137Y-19572361D01*
X52971916Y-19581282D01*
X52968123Y-19586853D01*
X52562064Y-19915833D01*
X52553479Y-19918378D01*
X52547335Y-19915833D01*
X52141231Y-19586817D01*
X52136961Y-19578947D01*
X52138187Y-19572386D01*
X52424337Y-19014659D01*
X52431163Y-19008863D01*
X52434747Y-19008300D01*
X52670499Y-19008300D01*
X52678772Y-19011727D01*
G37*
%TD.AperFunction*%
%TD*%
%TA.AperFunction,Conductor*%
%TO.N,+3V3*%
G36*
X28819244Y-24061208D02*
G01*
X28820042Y-24062155D01*
X29005510Y-24307744D01*
X29007873Y-24314795D01*
X29007873Y-24556950D01*
X29005510Y-24564001D01*
X28820042Y-24809590D01*
X28812321Y-24814127D01*
X28803654Y-24811876D01*
X28802707Y-24811078D01*
X28411221Y-24444412D01*
X28407525Y-24436256D01*
X28410680Y-24427875D01*
X28411221Y-24427334D01*
X28538906Y-24307744D01*
X28802708Y-24060666D01*
X28811088Y-24057512D01*
X28819244Y-24061208D01*
G37*
%TD.AperFunction*%
%TD*%
%TA.AperFunction,Conductor*%
%TO.N,+3V3*%
G36*
X7490621Y-38308461D02*
G01*
X8472503Y-39044137D01*
X8477069Y-39051839D01*
X8474850Y-39060515D01*
X8472503Y-39062862D01*
X7490621Y-39798538D01*
X7481945Y-39800757D01*
X7477115Y-39798910D01*
X6739210Y-39306973D01*
X6734227Y-39299533D01*
X6734000Y-39297238D01*
X6734000Y-38809761D01*
X6737427Y-38801488D01*
X6739205Y-38800029D01*
X7477117Y-38308088D01*
X7485900Y-38306351D01*
X7490621Y-38308461D01*
G37*
%TD.AperFunction*%
%TD*%
%TA.AperFunction,Conductor*%
%TO.N,+3V3*%
G36*
X40399817Y-38083590D02*
G01*
X41176457Y-38229210D01*
X41183956Y-38234103D01*
X41186000Y-38240710D01*
X41186000Y-38721289D01*
X41182573Y-38729562D01*
X41176456Y-38732789D01*
X40399820Y-38878408D01*
X40391057Y-38876564D01*
X40386164Y-38869064D01*
X40385964Y-38866946D01*
X40385000Y-38481000D01*
X40385964Y-38095059D01*
X40389412Y-38086797D01*
X40397693Y-38083391D01*
X40399817Y-38083590D01*
G37*
%TD.AperFunction*%
%TD*%
%TA.AperFunction,Conductor*%
%TO.N,+3V3*%
G36*
X35606818Y-37685447D02*
G01*
X36218559Y-37916698D01*
X36225086Y-37922829D01*
X36226122Y-37927642D01*
X36226122Y-38161471D01*
X36222695Y-38169744D01*
X36218559Y-38172415D01*
X35589777Y-38410108D01*
X35580827Y-38409828D01*
X35574841Y-38403666D01*
X35478428Y-38172415D01*
X35426997Y-38049056D01*
X35426977Y-38040107D01*
X35574841Y-37685446D01*
X35581188Y-37679129D01*
X35589776Y-37679005D01*
X35606818Y-37685447D01*
G37*
%TD.AperFunction*%
%TD*%
%TA.AperFunction,Conductor*%
%TO.N,+3V3*%
G36*
X36500167Y-37585980D02*
G01*
X36825401Y-38003611D01*
X36827781Y-38012244D01*
X36825401Y-38017989D01*
X36499619Y-38436324D01*
X36491832Y-38440746D01*
X36485451Y-38439742D01*
X35911763Y-38172705D01*
X35905708Y-38166107D01*
X35905000Y-38162098D01*
X35905000Y-37926295D01*
X35908427Y-37918022D01*
X35910826Y-37916176D01*
X36485067Y-37583048D01*
X36493941Y-37581861D01*
X36500167Y-37585980D01*
G37*
%TD.AperFunction*%
%TD*%
%TA.AperFunction,Conductor*%
%TO.N,+3V3*%
G36*
X26016176Y-24183951D02*
G01*
X26023588Y-24188975D01*
X26025518Y-24195411D01*
X26025518Y-24676011D01*
X26022091Y-24684284D01*
X26015799Y-24687542D01*
X25241750Y-24820528D01*
X25233016Y-24818552D01*
X25228238Y-24810978D01*
X25228069Y-24809026D01*
X25227109Y-24425223D01*
X25228008Y-24420702D01*
X25377466Y-24062220D01*
X25383812Y-24055904D01*
X25390622Y-24055264D01*
X26016176Y-24183951D01*
G37*
%TD.AperFunction*%
%TD*%
%TA.AperFunction,Conductor*%
%TO.N,+3V3*%
G36*
X26417188Y-24006220D02*
G01*
X26420972Y-24009385D01*
X26747505Y-24428683D01*
X26749885Y-24437316D01*
X26747505Y-24443061D01*
X26420972Y-24862360D01*
X26413185Y-24866782D01*
X26408271Y-24866345D01*
X25835334Y-24688428D01*
X25828450Y-24682701D01*
X25827104Y-24677254D01*
X25827104Y-24194491D01*
X25830531Y-24186218D01*
X25835332Y-24183317D01*
X26408271Y-24005400D01*
X26417188Y-24006220D01*
G37*
%TD.AperFunction*%
%TD*%
%TA.AperFunction,Conductor*%
%TO.N,+3V3*%
G36*
X29884801Y-27211427D02*
G01*
X29888156Y-27218408D01*
X29911428Y-27427851D01*
X29911500Y-27429143D01*
X29911500Y-27433903D01*
X29911212Y-27436483D01*
X29773411Y-28046020D01*
X29768244Y-28053334D01*
X29759419Y-28054852D01*
X29752105Y-28049685D01*
X29750588Y-28046024D01*
X29612432Y-27434915D01*
X29612217Y-27431044D01*
X29612429Y-27429143D01*
X29635844Y-27218408D01*
X29640163Y-27210564D01*
X29647472Y-27208000D01*
X29876528Y-27208000D01*
X29884801Y-27211427D01*
G37*
%TD.AperFunction*%
%TD*%
%TA.AperFunction,Conductor*%
%TO.N,+3V3*%
G36*
X45722121Y-38883591D02*
G01*
X46287051Y-39171576D01*
X46292865Y-39178387D01*
X46292161Y-39187314D01*
X46287051Y-39192424D01*
X45722121Y-39480408D01*
X45715515Y-39481612D01*
X45279407Y-39433156D01*
X45271563Y-39428837D01*
X45269000Y-39421530D01*
X45269000Y-38942468D01*
X45272426Y-38934198D01*
X45279405Y-38930843D01*
X45715515Y-38882387D01*
X45722121Y-38883591D01*
G37*
%TD.AperFunction*%
%TD*%
%TA.AperFunction,Conductor*%
%TO.N,+3V3*%
G36*
X43707022Y-38270794D02*
G01*
X44594267Y-38928491D01*
X44598873Y-38936170D01*
X44599000Y-38937890D01*
X44599000Y-39425926D01*
X44595573Y-39434199D01*
X44594032Y-39435495D01*
X43707120Y-40059457D01*
X43698382Y-40061415D01*
X43692042Y-40058087D01*
X42806208Y-39156355D01*
X42802854Y-39148052D01*
X42806354Y-39139810D01*
X43691868Y-38271837D01*
X43700173Y-38268495D01*
X43707022Y-38270794D01*
G37*
%TD.AperFunction*%
%TD*%
%TA.AperFunction,Conductor*%
%TO.N,+3V3*%
G36*
X26349745Y-35372225D02*
G01*
X26353186Y-35380492D01*
X26353186Y-35380534D01*
X26352519Y-35758696D01*
X26349078Y-35766963D01*
X26341729Y-35770340D01*
X26115759Y-35787968D01*
X26107244Y-35785195D01*
X26106576Y-35784576D01*
X25937423Y-35615423D01*
X25933996Y-35607150D01*
X25934031Y-35606240D01*
X25951659Y-35380268D01*
X25955719Y-35372288D01*
X25963300Y-35369480D01*
X26341466Y-35368813D01*
X26349745Y-35372225D01*
G37*
%TD.AperFunction*%
%TD*%
%TA.AperFunction,Conductor*%
%TO.N,/HSE_IN*%
G36*
X37551593Y-32881843D02*
G01*
X37559436Y-32886162D01*
X37562000Y-32893471D01*
X37562000Y-33122528D01*
X37558573Y-33130801D01*
X37551592Y-33134156D01*
X37342147Y-33157428D01*
X37340855Y-33157500D01*
X37336094Y-33157500D01*
X37333514Y-33157212D01*
X36723978Y-33019411D01*
X36716664Y-33014244D01*
X36715146Y-33005419D01*
X36720313Y-32998105D01*
X36723971Y-32996589D01*
X37317482Y-32862412D01*
X37320703Y-32862143D01*
X37336094Y-32863000D01*
X37336272Y-32863000D01*
X37340855Y-32863000D01*
X37341000Y-32862996D01*
X37352289Y-32862682D01*
X37352474Y-32862673D01*
X37353581Y-32862610D01*
X37353753Y-32862597D01*
X37364841Y-32861671D01*
X37364978Y-32861656D01*
X37365236Y-32861627D01*
X37366146Y-32861525D01*
X37368725Y-32861525D01*
X37551593Y-32881843D01*
G37*
%TD.AperFunction*%
%TD*%
%TA.AperFunction,Conductor*%
%TO.N,/HSE_IN*%
G36*
X40873766Y-34162354D02*
G01*
X41459106Y-34746720D01*
X41462540Y-34754990D01*
X41459120Y-34763266D01*
X41459106Y-34763280D01*
X40873766Y-35347645D01*
X40865490Y-35351065D01*
X40858238Y-35348538D01*
X40270838Y-34883513D01*
X40266478Y-34875691D01*
X40266400Y-34874340D01*
X40266400Y-34635659D01*
X40269827Y-34627386D01*
X40270832Y-34626491D01*
X40858239Y-34161460D01*
X40866851Y-34159012D01*
X40873766Y-34162354D01*
G37*
%TD.AperFunction*%
%TD*%
%TA.AperFunction,Conductor*%
%TO.N,/HSE_IN*%
G36*
X41474007Y-34763104D02*
G01*
X41475288Y-34764385D01*
X42060136Y-35447682D01*
X42062912Y-35456196D01*
X42060420Y-35462552D01*
X41594913Y-36050562D01*
X41587091Y-36054922D01*
X41585740Y-36055000D01*
X41347060Y-36055000D01*
X41338787Y-36051573D01*
X41337887Y-36050562D01*
X40872379Y-35462552D01*
X40869930Y-35453939D01*
X40872662Y-35447683D01*
X41457512Y-34764383D01*
X41465493Y-34760328D01*
X41474007Y-34763104D01*
G37*
%TD.AperFunction*%
%TD*%
%TA.AperFunction,Conductor*%
%TO.N,/HSE_IN*%
G36*
X41593322Y-35654427D02*
G01*
X41594860Y-35656326D01*
X41958704Y-36216355D01*
X41960338Y-36225159D01*
X41956376Y-36231723D01*
X41548640Y-36570975D01*
X41540089Y-36573632D01*
X41533968Y-36571212D01*
X41115440Y-36245279D01*
X41111018Y-36237492D01*
X41111748Y-36231749D01*
X41338474Y-35658398D01*
X41344704Y-35651964D01*
X41349355Y-35651000D01*
X41585049Y-35651000D01*
X41593322Y-35654427D01*
G37*
%TD.AperFunction*%
%TD*%
%TA.AperFunction,Conductor*%
%TO.N,Net-(C109-Pad1)*%
G36*
X44526400Y-31946965D02*
G01*
X44851801Y-32364811D01*
X44854181Y-32373444D01*
X44851801Y-32379189D01*
X44526189Y-32797305D01*
X44518402Y-32801727D01*
X44511720Y-32800578D01*
X43937862Y-32513235D01*
X43931998Y-32506466D01*
X43931400Y-32502773D01*
X43931400Y-32266949D01*
X43934827Y-32258676D01*
X43937502Y-32256675D01*
X44511573Y-31943879D01*
X44520475Y-31942931D01*
X44526400Y-31946965D01*
G37*
%TD.AperFunction*%
%TD*%
%TA.AperFunction,Conductor*%
%TO.N,Net-(C109-Pad1)*%
G36*
X43774949Y-31869591D02*
G01*
X44361145Y-32256531D01*
X44366162Y-32263949D01*
X44366400Y-32266296D01*
X44366400Y-32504952D01*
X44362973Y-32513225D01*
X44362728Y-32513463D01*
X43774096Y-33068650D01*
X43765726Y-33071834D01*
X43758405Y-33068980D01*
X43174255Y-32562675D01*
X43170248Y-32554667D01*
X43173076Y-32546173D01*
X43759678Y-31871676D01*
X43767691Y-31867684D01*
X43774949Y-31869591D01*
G37*
%TD.AperFunction*%
%TD*%
%TA.AperFunction,Conductor*%
%TO.N,Net-(C109-Pad1)*%
G36*
X42933902Y-30613240D02*
G01*
X43282229Y-30932382D01*
X43303890Y-30952228D01*
X43307675Y-30960344D01*
X43306151Y-30966649D01*
X43015766Y-31476094D01*
X43008692Y-31481584D01*
X43005601Y-31482000D01*
X42770158Y-31482000D01*
X42761885Y-31478573D01*
X42759381Y-31474854D01*
X42544437Y-30966141D01*
X42544373Y-30957186D01*
X42547308Y-30952962D01*
X42918097Y-30613240D01*
X42926511Y-30610179D01*
X42933902Y-30613240D01*
G37*
%TD.AperFunction*%
%TD*%
%TA.AperFunction,Conductor*%
%TO.N,Net-(C109-Pad1)*%
G36*
X43015806Y-31258310D02*
G01*
X43622761Y-31848244D01*
X43626305Y-31856468D01*
X43624367Y-31863085D01*
X43174957Y-32543051D01*
X43167536Y-32548064D01*
X43158745Y-32546361D01*
X43156307Y-32544208D01*
X42573320Y-31863085D01*
X42570672Y-31859991D01*
X42567897Y-31851479D01*
X42568438Y-31848759D01*
X42759764Y-31263067D01*
X42765592Y-31256267D01*
X42770887Y-31255000D01*
X43007651Y-31255000D01*
X43015806Y-31258310D01*
G37*
%TD.AperFunction*%
%TD*%
%TA.AperFunction,Conductor*%
%TO.N,/CLK_RST*%
G36*
X37674323Y-11234594D02*
G01*
X37706346Y-11247893D01*
X37712673Y-11254231D01*
X37712664Y-11263185D01*
X37712349Y-11263880D01*
X36922220Y-12863482D01*
X36915484Y-12869382D01*
X36911730Y-12870000D01*
X36676270Y-12870000D01*
X36667997Y-12866573D01*
X36665780Y-12863482D01*
X35875649Y-11263878D01*
X35875058Y-11254944D01*
X35880958Y-11248208D01*
X35881642Y-11247897D01*
X36789514Y-10870862D01*
X36798464Y-10870854D01*
X37674323Y-11234594D01*
G37*
%TD.AperFunction*%
%TD*%
%TA.AperFunction,Conductor*%
%TO.N,/CLK_RST*%
G36*
X36920003Y-8873427D02*
G01*
X36922220Y-8876518D01*
X37712349Y-10476119D01*
X37712941Y-10485055D01*
X37707041Y-10491791D01*
X37706346Y-10492106D01*
X36798486Y-10869136D01*
X36789533Y-10869144D01*
X36789512Y-10869136D01*
X35881653Y-10492106D01*
X35875326Y-10485768D01*
X35875335Y-10476814D01*
X35875635Y-10476150D01*
X36665780Y-8876517D01*
X36672516Y-8870618D01*
X36676270Y-8870000D01*
X36911730Y-8870000D01*
X36920003Y-8873427D01*
G37*
%TD.AperFunction*%
%TD*%
%TA.AperFunction,Conductor*%
%TO.N,/CLK_RST*%
G36*
X36798486Y-4370863D02*
G01*
X37706346Y-4747893D01*
X37712673Y-4754231D01*
X37712664Y-4763185D01*
X37712349Y-4763880D01*
X36922220Y-6363482D01*
X36915484Y-6369382D01*
X36911730Y-6370000D01*
X36676270Y-6370000D01*
X36667997Y-6366573D01*
X36665780Y-6363482D01*
X35875649Y-4763878D01*
X35875058Y-4754944D01*
X35880958Y-4748208D01*
X35881642Y-4747897D01*
X36789514Y-4370862D01*
X36798464Y-4370854D01*
X36798486Y-4370863D01*
G37*
%TD.AperFunction*%
%TD*%
%TA.AperFunction,Conductor*%
%TO.N,/CLK_RST*%
G36*
X32384801Y-27211427D02*
G01*
X32388156Y-27218408D01*
X32408473Y-27401265D01*
X32408474Y-27403843D01*
X32408328Y-27405163D01*
X32408312Y-27405333D01*
X32407389Y-27416426D01*
X32407380Y-27416575D01*
X32407317Y-27417718D01*
X32407313Y-27417859D01*
X32406999Y-27429152D01*
X32406998Y-27429332D01*
X32406998Y-27433719D01*
X32406999Y-27433754D01*
X32406999Y-27433900D01*
X32407007Y-27434045D01*
X32407008Y-27434078D01*
X32407855Y-27449294D01*
X32407585Y-27452524D01*
X32273411Y-28046020D01*
X32268244Y-28053334D01*
X32259419Y-28054852D01*
X32252105Y-28049685D01*
X32250588Y-28046024D01*
X32116412Y-27452519D01*
X32116143Y-27449293D01*
X32117000Y-27433903D01*
X32117000Y-27429143D01*
X32116682Y-27417709D01*
X32116673Y-27417524D01*
X32116610Y-27416417D01*
X32116597Y-27416245D01*
X32115671Y-27405157D01*
X32115656Y-27405020D01*
X32115639Y-27404874D01*
X32115525Y-27403843D01*
X32115525Y-27401275D01*
X32135844Y-27218408D01*
X32140163Y-27210564D01*
X32147472Y-27208000D01*
X32376528Y-27208000D01*
X32384801Y-27211427D01*
G37*
%TD.AperFunction*%
%TD*%
%TA.AperFunction,Conductor*%
%TO.N,/CLK_UP*%
G36*
X29328323Y-11234594D02*
G01*
X29360346Y-11247893D01*
X29366673Y-11254231D01*
X29366664Y-11263185D01*
X29366349Y-11263880D01*
X28576220Y-12863482D01*
X28569484Y-12869382D01*
X28565730Y-12870000D01*
X28330270Y-12870000D01*
X28321997Y-12866573D01*
X28319780Y-12863482D01*
X27529649Y-11263878D01*
X27529058Y-11254944D01*
X27534958Y-11248208D01*
X27535642Y-11247897D01*
X28443514Y-10870862D01*
X28452464Y-10870854D01*
X29328323Y-11234594D01*
G37*
%TD.AperFunction*%
%TD*%
%TA.AperFunction,Conductor*%
%TO.N,/CLK_UP*%
G36*
X28574003Y-8873427D02*
G01*
X28576220Y-8876518D01*
X29366349Y-10476119D01*
X29366941Y-10485055D01*
X29361041Y-10491791D01*
X29360346Y-10492106D01*
X28452487Y-10869136D01*
X28443533Y-10869145D01*
X28443513Y-10869136D01*
X27535653Y-10492106D01*
X27529326Y-10485768D01*
X27529335Y-10476814D01*
X27529635Y-10476150D01*
X28319780Y-8876517D01*
X28326516Y-8870618D01*
X28330270Y-8870000D01*
X28565730Y-8870000D01*
X28574003Y-8873427D01*
G37*
%TD.AperFunction*%
%TD*%
%TA.AperFunction,Conductor*%
%TO.N,/CLK_UP*%
G36*
X29328323Y-4734594D02*
G01*
X29360346Y-4747893D01*
X29366673Y-4754231D01*
X29366664Y-4763185D01*
X29366349Y-4763880D01*
X28576220Y-6363482D01*
X28569484Y-6369382D01*
X28565730Y-6370000D01*
X28330270Y-6370000D01*
X28321997Y-6366573D01*
X28319780Y-6363482D01*
X27529649Y-4763878D01*
X27529058Y-4754944D01*
X27534958Y-4748208D01*
X27535642Y-4747897D01*
X28443514Y-4370862D01*
X28452464Y-4370854D01*
X29328323Y-4734594D01*
G37*
%TD.AperFunction*%
%TD*%
%TA.AperFunction,Conductor*%
%TO.N,/CLK_UP*%
G36*
X31884801Y-27211427D02*
G01*
X31888156Y-27218408D01*
X31911428Y-27427851D01*
X31911500Y-27429143D01*
X31911500Y-27433903D01*
X31911212Y-27436483D01*
X31773411Y-28046020D01*
X31768244Y-28053334D01*
X31759419Y-28054852D01*
X31752105Y-28049685D01*
X31750588Y-28046024D01*
X31616412Y-27452519D01*
X31616143Y-27449293D01*
X31617000Y-27433903D01*
X31617000Y-27429143D01*
X31616682Y-27417709D01*
X31616673Y-27417524D01*
X31616610Y-27416417D01*
X31616597Y-27416245D01*
X31615671Y-27405157D01*
X31615656Y-27405020D01*
X31615639Y-27404874D01*
X31615525Y-27403843D01*
X31615525Y-27401275D01*
X31635844Y-27218408D01*
X31640163Y-27210564D01*
X31647472Y-27208000D01*
X31876528Y-27208000D01*
X31884801Y-27211427D01*
G37*
%TD.AperFunction*%
%TD*%
%TA.AperFunction,Conductor*%
%TO.N,/RGB_COLOR*%
G36*
X45302003Y-8873427D02*
G01*
X45304220Y-8876518D01*
X46094349Y-10476119D01*
X46094941Y-10485055D01*
X46089041Y-10491791D01*
X46088346Y-10492106D01*
X45180487Y-10869136D01*
X45171533Y-10869145D01*
X45171513Y-10869136D01*
X44263653Y-10492106D01*
X44257326Y-10485768D01*
X44257335Y-10476814D01*
X44257635Y-10476150D01*
X45047780Y-8876517D01*
X45054516Y-8870618D01*
X45058270Y-8870000D01*
X45293730Y-8870000D01*
X45302003Y-8873427D01*
G37*
%TD.AperFunction*%
%TD*%
%TA.AperFunction,Conductor*%
%TO.N,/RGB_COLOR*%
G36*
X46056323Y-4734594D02*
G01*
X46088346Y-4747893D01*
X46094673Y-4754231D01*
X46094664Y-4763185D01*
X46094349Y-4763880D01*
X45304220Y-6363482D01*
X45297484Y-6369382D01*
X45293730Y-6370000D01*
X45058270Y-6370000D01*
X45049997Y-6366573D01*
X45047780Y-6363482D01*
X44257649Y-4763878D01*
X44257058Y-4754944D01*
X44262958Y-4748208D01*
X44263642Y-4747897D01*
X45171514Y-4370862D01*
X45180464Y-4370854D01*
X46056323Y-4734594D01*
G37*
%TD.AperFunction*%
%TD*%
%TA.AperFunction,Conductor*%
%TO.N,/CLK_DN*%
G36*
X20319003Y-8873427D02*
G01*
X20321220Y-8876518D01*
X21111349Y-10476119D01*
X21111941Y-10485055D01*
X21106041Y-10491791D01*
X21105346Y-10492106D01*
X20197486Y-10869136D01*
X20188533Y-10869144D01*
X20188512Y-10869136D01*
X19280653Y-10492106D01*
X19274326Y-10485768D01*
X19274335Y-10476814D01*
X19274635Y-10476150D01*
X20064780Y-8876517D01*
X20071516Y-8870618D01*
X20075270Y-8870000D01*
X20310730Y-8870000D01*
X20319003Y-8873427D01*
G37*
%TD.AperFunction*%
%TD*%
%TA.AperFunction,Conductor*%
%TO.N,/CLK_DN*%
G36*
X21073323Y-4734594D02*
G01*
X21105346Y-4747893D01*
X21111673Y-4754231D01*
X21111664Y-4763185D01*
X21111349Y-4763880D01*
X20321220Y-6363482D01*
X20314484Y-6369382D01*
X20310730Y-6370000D01*
X20075270Y-6370000D01*
X20066997Y-6366573D01*
X20064780Y-6363482D01*
X19274649Y-4763878D01*
X19274058Y-4754944D01*
X19279958Y-4748208D01*
X19280642Y-4747897D01*
X20188514Y-4370862D01*
X20197464Y-4370854D01*
X21073323Y-4734594D01*
G37*
%TD.AperFunction*%
%TD*%
%TA.AperFunction,Conductor*%
%TO.N,/NRST*%
G36*
X24953996Y-41931890D02*
G01*
X25565737Y-42163141D01*
X25572264Y-42169272D01*
X25573300Y-42174085D01*
X25573300Y-42407914D01*
X25569873Y-42416187D01*
X25565737Y-42418858D01*
X24936955Y-42656551D01*
X24928005Y-42656271D01*
X24922019Y-42650109D01*
X24825606Y-42418858D01*
X24774175Y-42295499D01*
X24774155Y-42286550D01*
X24922019Y-41931889D01*
X24928366Y-41925572D01*
X24936954Y-41925448D01*
X24953996Y-41931890D01*
G37*
%TD.AperFunction*%
%TD*%
%TA.AperFunction,Conductor*%
%TO.N,/NRST*%
G36*
X25694938Y-42122187D02*
G01*
X25697628Y-42124485D01*
X25886316Y-42343097D01*
X25889128Y-42351599D01*
X25885104Y-42359599D01*
X25885059Y-42359638D01*
X25699092Y-42518518D01*
X25690576Y-42521286D01*
X25685944Y-42519923D01*
X25499152Y-42419313D01*
X25493493Y-42412373D01*
X25493000Y-42409012D01*
X25493000Y-42175274D01*
X25496427Y-42167001D01*
X25502028Y-42163883D01*
X25686103Y-42120739D01*
X25694938Y-42122187D01*
G37*
%TD.AperFunction*%
%TD*%
%TA.AperFunction,Conductor*%
%TO.N,/NRST*%
G36*
X53684003Y-8873427D02*
G01*
X53686220Y-8876518D01*
X54476349Y-10476119D01*
X54476941Y-10485055D01*
X54471041Y-10491791D01*
X54470346Y-10492106D01*
X53562487Y-10869136D01*
X53553533Y-10869145D01*
X53553513Y-10869136D01*
X52645653Y-10492106D01*
X52639326Y-10485768D01*
X52639335Y-10476814D01*
X52639635Y-10476150D01*
X53429780Y-8876517D01*
X53436516Y-8870618D01*
X53440270Y-8870000D01*
X53675730Y-8870000D01*
X53684003Y-8873427D01*
G37*
%TD.AperFunction*%
%TD*%
%TA.AperFunction,Conductor*%
%TO.N,/NRST*%
G36*
X53562486Y-4370863D02*
G01*
X54470346Y-4747893D01*
X54476673Y-4754231D01*
X54476664Y-4763185D01*
X54476349Y-4763880D01*
X53686220Y-6363482D01*
X53679484Y-6369382D01*
X53675730Y-6370000D01*
X53440270Y-6370000D01*
X53431997Y-6366573D01*
X53429780Y-6363482D01*
X52639649Y-4763878D01*
X52639058Y-4754944D01*
X52644958Y-4748208D01*
X52645642Y-4747897D01*
X53553514Y-4370862D01*
X53562464Y-4370854D01*
X53562486Y-4370863D01*
G37*
%TD.AperFunction*%
%TD*%
%TA.AperFunction,Conductor*%
%TO.N,/NRST*%
G36*
X22330546Y-38103920D02*
G01*
X22603546Y-38375958D01*
X22606987Y-38384225D01*
X22606987Y-38384275D01*
X22606032Y-38766535D01*
X22602584Y-38774800D01*
X22594303Y-38778206D01*
X22593196Y-38778151D01*
X21880506Y-38708630D01*
X21872605Y-38704416D01*
X21869942Y-38696985D01*
X21869942Y-38463237D01*
X21873369Y-38454964D01*
X21874342Y-38454094D01*
X22314997Y-38103056D01*
X22323603Y-38100582D01*
X22330546Y-38103920D01*
G37*
%TD.AperFunction*%
%TD*%
%TA.AperFunction,Conductor*%
%TO.N,/NRST*%
G36*
X21277208Y-38454754D02*
G01*
X21283751Y-38460866D01*
X21284800Y-38465709D01*
X21284800Y-38699490D01*
X21281373Y-38707763D01*
X21277207Y-38710446D01*
X20658950Y-38942187D01*
X20650000Y-38941882D01*
X20644044Y-38935734D01*
X20548920Y-38707600D01*
X20498676Y-38587101D01*
X20498656Y-38578148D01*
X20644044Y-38229464D01*
X20650391Y-38223148D01*
X20658948Y-38223012D01*
X21277208Y-38454754D01*
G37*
%TD.AperFunction*%
%TD*%
%TA.AperFunction,Conductor*%
%TO.N,Net-(D101-K)*%
G36*
X55534119Y-21763371D02*
G01*
X55874155Y-22148253D01*
X55877065Y-22156722D01*
X55874155Y-22163747D01*
X55534119Y-22548628D01*
X55526073Y-22552559D01*
X55519226Y-22550850D01*
X55085575Y-22284425D01*
X55080320Y-22277174D01*
X55080000Y-22274456D01*
X55080000Y-22037543D01*
X55083427Y-22029270D01*
X55085570Y-22027577D01*
X55519226Y-21761148D01*
X55528069Y-21759738D01*
X55534119Y-21763371D01*
G37*
%TD.AperFunction*%
%TD*%
%TA.AperFunction,Conductor*%
%TO.N,Net-(D101-K)*%
G36*
X54493625Y-21739250D02*
G01*
X55033910Y-22027695D01*
X55039595Y-22034614D01*
X55040100Y-22038016D01*
X55040100Y-22274503D01*
X55036673Y-22282776D01*
X55034586Y-22284434D01*
X54522391Y-22603508D01*
X54513557Y-22604973D01*
X54507147Y-22600983D01*
X54409478Y-22481524D01*
X54169772Y-22188338D01*
X54167189Y-22179765D01*
X54169323Y-22174115D01*
X54269345Y-22034614D01*
X54478609Y-21742753D01*
X54486213Y-21738028D01*
X54493625Y-21739250D01*
G37*
%TD.AperFunction*%
%TD*%
%TA.AperFunction,Conductor*%
%TO.N,/LED_HB*%
G36*
X33384801Y-27211427D02*
G01*
X33388156Y-27218408D01*
X33408473Y-27401264D01*
X33408474Y-27403841D01*
X33408328Y-27405162D01*
X33408312Y-27405333D01*
X33407389Y-27416426D01*
X33407380Y-27416575D01*
X33407317Y-27417718D01*
X33407313Y-27417859D01*
X33406999Y-27429152D01*
X33406998Y-27429332D01*
X33406998Y-27433719D01*
X33406999Y-27433754D01*
X33406999Y-27433900D01*
X33407007Y-27434045D01*
X33407008Y-27434078D01*
X33407855Y-27449293D01*
X33407585Y-27452523D01*
X33273411Y-28046020D01*
X33268244Y-28053334D01*
X33259419Y-28054852D01*
X33252105Y-28049685D01*
X33250588Y-28046024D01*
X33116414Y-27452523D01*
X33112787Y-27436480D01*
X33112499Y-27433900D01*
X33112499Y-27429152D01*
X33112571Y-27427860D01*
X33113842Y-27416426D01*
X33135844Y-27218408D01*
X33140163Y-27210564D01*
X33147472Y-27208000D01*
X33376528Y-27208000D01*
X33384801Y-27211427D01*
G37*
%TD.AperFunction*%
%TD*%
%TA.AperFunction,Conductor*%
%TO.N,/LED_HB*%
G36*
X52262677Y-21752061D02*
G01*
X52585661Y-22174291D01*
X52587966Y-22182945D01*
X52585661Y-22188509D01*
X52262677Y-22610738D01*
X52254929Y-22615227D01*
X52247535Y-22613762D01*
X51720951Y-22309777D01*
X51715499Y-22302673D01*
X51715100Y-22299644D01*
X51715100Y-22063155D01*
X51718527Y-22054882D01*
X51720949Y-22053023D01*
X52247536Y-21749036D01*
X52256413Y-21747869D01*
X52262677Y-21752061D01*
G37*
%TD.AperFunction*%
%TD*%
%TA.AperFunction,Conductor*%
%TO.N,Net-(D102-K)*%
G36*
X55473319Y-19528171D02*
G01*
X55813355Y-19913053D01*
X55816265Y-19921522D01*
X55813355Y-19928547D01*
X55473319Y-20313428D01*
X55465273Y-20317359D01*
X55458426Y-20315650D01*
X55024775Y-20049225D01*
X55019520Y-20041974D01*
X55019200Y-20039256D01*
X55019200Y-19802343D01*
X55022627Y-19794070D01*
X55024770Y-19792377D01*
X55458426Y-19525948D01*
X55467269Y-19524538D01*
X55473319Y-19528171D01*
G37*
%TD.AperFunction*%
%TD*%
%TA.AperFunction,Conductor*%
%TO.N,Net-(D102-K)*%
G36*
X54472263Y-19488436D02*
G01*
X54998849Y-19792422D01*
X55004301Y-19799526D01*
X55004700Y-19802555D01*
X55004700Y-20039044D01*
X55001273Y-20047317D01*
X54998849Y-20049177D01*
X54472264Y-20353162D01*
X54463386Y-20354330D01*
X54457122Y-20350138D01*
X54134138Y-19927909D01*
X54131833Y-19919255D01*
X54134138Y-19913691D01*
X54221468Y-19799526D01*
X54457122Y-19491460D01*
X54464870Y-19486972D01*
X54472263Y-19488436D01*
G37*
%TD.AperFunction*%
%TD*%
%TA.AperFunction,Conductor*%
%TO.N,/SWO*%
G36*
X28281837Y-41825731D02*
G01*
X28634695Y-41970936D01*
X28641042Y-41977254D01*
X28641063Y-41977304D01*
X28786268Y-42330162D01*
X28786247Y-42339116D01*
X28779900Y-42345434D01*
X28777958Y-42346042D01*
X28354643Y-42439014D01*
X28345827Y-42437441D01*
X28343860Y-42435859D01*
X28176140Y-42268139D01*
X28172713Y-42259866D01*
X28172984Y-42257362D01*
X28265958Y-41834038D01*
X28271079Y-41826696D01*
X28279895Y-41825123D01*
X28281837Y-41825731D01*
G37*
%TD.AperFunction*%
%TD*%
%TA.AperFunction,Conductor*%
%TO.N,/SWO*%
G36*
X28870949Y-41570954D02*
G01*
X28871164Y-41571164D01*
X29040835Y-41740835D01*
X29044262Y-41749108D01*
X29044258Y-41749409D01*
X29038792Y-41962121D01*
X29035154Y-41970303D01*
X29027117Y-41973520D01*
X28649534Y-41974186D01*
X28641254Y-41970774D01*
X28637813Y-41962508D01*
X28638479Y-41584879D01*
X28641920Y-41576615D01*
X28649876Y-41573207D01*
X28862590Y-41567741D01*
X28870949Y-41570954D01*
G37*
%TD.AperFunction*%
%TD*%
%TA.AperFunction,Conductor*%
%TO.N,/SWO*%
G36*
X30771893Y-36466313D02*
G01*
X30773411Y-36469978D01*
X30907587Y-37063484D01*
X30907857Y-37066716D01*
X30907008Y-37081910D01*
X30907007Y-37081935D01*
X30906999Y-37082085D01*
X30906999Y-37082261D01*
X30906999Y-37086871D01*
X30907003Y-37087022D01*
X30907324Y-37098432D01*
X30907332Y-37098593D01*
X30907395Y-37099692D01*
X30907408Y-37099860D01*
X30908327Y-37110825D01*
X30908345Y-37111002D01*
X30908474Y-37112150D01*
X30908473Y-37114732D01*
X30888156Y-37297592D01*
X30883837Y-37305436D01*
X30876528Y-37308000D01*
X30647472Y-37308000D01*
X30639199Y-37304573D01*
X30635844Y-37297592D01*
X30627381Y-37221429D01*
X30612570Y-37088131D01*
X30612499Y-37086871D01*
X30612499Y-37082085D01*
X30612785Y-37079523D01*
X30750588Y-36469975D01*
X30755754Y-36462664D01*
X30764579Y-36461146D01*
X30771893Y-36466313D01*
G37*
%TD.AperFunction*%
%TD*%
%TA.AperFunction,Conductor*%
%TO.N,/SWO*%
G36*
X17706696Y-36978890D02*
G01*
X18318437Y-37210141D01*
X18324964Y-37216272D01*
X18326000Y-37221085D01*
X18326000Y-37454914D01*
X18322573Y-37463187D01*
X18318437Y-37465858D01*
X17689655Y-37703551D01*
X17680705Y-37703271D01*
X17674719Y-37697109D01*
X17578306Y-37465858D01*
X17526875Y-37342499D01*
X17526855Y-37333550D01*
X17674719Y-36978889D01*
X17681066Y-36972572D01*
X17689654Y-36972448D01*
X17706696Y-36978890D01*
G37*
%TD.AperFunction*%
%TD*%
%TA.AperFunction,Conductor*%
%TO.N,/SWO*%
G36*
X19081717Y-36959852D02*
G01*
X19081721Y-36959862D01*
X19226922Y-37308097D01*
X19226943Y-37317052D01*
X19226922Y-37317103D01*
X19081414Y-37666073D01*
X19075067Y-37672390D01*
X19066873Y-37672655D01*
X18453810Y-37465686D01*
X18447067Y-37459793D01*
X18445852Y-37454601D01*
X18445852Y-37220790D01*
X18449279Y-37212517D01*
X18453037Y-37209996D01*
X19066409Y-36953569D01*
X19075364Y-36953541D01*
X19081717Y-36959852D01*
G37*
%TD.AperFunction*%
%TD*%
%TA.AperFunction,Conductor*%
%TO.N,/SWO*%
G36*
X27400030Y-42154636D02*
G01*
X27585407Y-42224153D01*
X27585408Y-42224153D01*
X27591951Y-42230267D01*
X27593000Y-42235108D01*
X27593000Y-42468891D01*
X27589573Y-42477164D01*
X27585408Y-42479846D01*
X27400034Y-42549362D01*
X27391085Y-42549058D01*
X27387675Y-42546702D01*
X27200334Y-42360293D01*
X27196887Y-42352029D01*
X27200293Y-42343748D01*
X27387677Y-42157296D01*
X27395955Y-42153892D01*
X27400030Y-42154636D01*
G37*
%TD.AperFunction*%
%TD*%
%TA.AperFunction,Conductor*%
%TO.N,/SWCLK*%
G36*
X27508471Y-38907972D02*
G01*
X28229664Y-38989822D01*
X28237497Y-38994159D01*
X28240044Y-39001446D01*
X28240044Y-39235170D01*
X28236617Y-39243443D01*
X28235391Y-39244510D01*
X27786452Y-39583224D01*
X27777783Y-39585471D01*
X27771147Y-39582172D01*
X27497952Y-39309940D01*
X27494512Y-39301674D01*
X27494512Y-39301624D01*
X27494655Y-39244510D01*
X27495467Y-38919568D01*
X27498915Y-38911304D01*
X27507196Y-38907898D01*
X27508471Y-38907972D01*
G37*
%TD.AperFunction*%
%TD*%
%TA.AperFunction,Conductor*%
%TO.N,/SWCLK*%
G36*
X27492745Y-39309225D02*
G01*
X27496186Y-39317492D01*
X27496186Y-39317534D01*
X27495521Y-39694313D01*
X27492080Y-39702580D01*
X27483800Y-39705992D01*
X27483324Y-39705981D01*
X27285941Y-39697581D01*
X27278165Y-39694165D01*
X27107834Y-39523834D01*
X27104418Y-39516058D01*
X27096018Y-39318675D01*
X27099090Y-39310264D01*
X27107210Y-39306489D01*
X27107662Y-39306478D01*
X27484466Y-39305813D01*
X27492745Y-39309225D01*
G37*
%TD.AperFunction*%
%TD*%
%TA.AperFunction,Conductor*%
%TO.N,/SWCLK*%
G36*
X17706696Y-38248890D02*
G01*
X18318437Y-38480141D01*
X18324964Y-38486272D01*
X18326000Y-38491085D01*
X18326000Y-38724914D01*
X18322573Y-38733187D01*
X18318437Y-38735858D01*
X17689655Y-38973551D01*
X17680705Y-38973271D01*
X17674719Y-38967109D01*
X17578306Y-38735858D01*
X17526875Y-38612499D01*
X17526855Y-38603550D01*
X17674719Y-38248889D01*
X17681066Y-38242572D01*
X17689654Y-38242448D01*
X17706696Y-38248890D01*
G37*
%TD.AperFunction*%
%TD*%
%TA.AperFunction,Conductor*%
%TO.N,/SWCLK*%
G36*
X19081717Y-38229852D02*
G01*
X19081721Y-38229862D01*
X19226922Y-38578097D01*
X19226943Y-38587052D01*
X19226922Y-38587103D01*
X19081414Y-38936073D01*
X19075067Y-38942390D01*
X19066873Y-38942655D01*
X18453810Y-38735686D01*
X18447067Y-38729793D01*
X18445852Y-38724601D01*
X18445852Y-38490790D01*
X18449279Y-38482517D01*
X18453037Y-38479996D01*
X19066409Y-38223569D01*
X19075364Y-38223541D01*
X19081717Y-38229852D01*
G37*
%TD.AperFunction*%
%TD*%
%TA.AperFunction,Conductor*%
%TO.N,/SWCLK*%
G36*
X29771893Y-36466314D02*
G01*
X29773411Y-36469979D01*
X29911212Y-37079518D01*
X29911500Y-37082098D01*
X29911500Y-37086847D01*
X29911428Y-37088139D01*
X29888156Y-37297592D01*
X29883837Y-37305436D01*
X29876528Y-37308000D01*
X29647472Y-37308000D01*
X29639199Y-37304573D01*
X29635844Y-37297592D01*
X29612217Y-37084955D01*
X29612433Y-37081083D01*
X29612787Y-37079518D01*
X29750588Y-36469976D01*
X29755754Y-36462665D01*
X29764579Y-36461147D01*
X29771893Y-36466314D01*
G37*
%TD.AperFunction*%
%TD*%
%TA.AperFunction,Conductor*%
%TO.N,/SWCLK*%
G36*
X27318165Y-39930427D02*
G01*
X27320847Y-39934592D01*
X27390992Y-40121646D01*
X27390688Y-40130596D01*
X27390010Y-40131872D01*
X27202973Y-40436744D01*
X27195726Y-40442004D01*
X27186882Y-40440599D01*
X27183027Y-40436744D01*
X26995989Y-40131872D01*
X26994584Y-40123028D01*
X26995003Y-40121656D01*
X27065153Y-39934592D01*
X27071267Y-39928049D01*
X27076108Y-39927000D01*
X27309892Y-39927000D01*
X27318165Y-39930427D01*
G37*
%TD.AperFunction*%
%TD*%
%TA.AperFunction,Conductor*%
%TO.N,/SWDIO*%
G36*
X18263014Y-39864643D02*
G01*
X18428356Y-40029985D01*
X18431783Y-40038258D01*
X18430747Y-40043071D01*
X18154206Y-40655760D01*
X18147679Y-40661891D01*
X18139090Y-40661767D01*
X17783804Y-40515563D01*
X17777457Y-40509245D01*
X17777436Y-40509195D01*
X17631232Y-40153909D01*
X17631253Y-40144955D01*
X17637237Y-40138794D01*
X18249928Y-39862251D01*
X18258878Y-39861972D01*
X18263014Y-39864643D01*
G37*
%TD.AperFunction*%
%TD*%
%TA.AperFunction,Conductor*%
%TO.N,/SWDIO*%
G36*
X26018165Y-39930427D02*
G01*
X26020847Y-39934592D01*
X26090992Y-40121646D01*
X26090688Y-40130596D01*
X26090010Y-40131872D01*
X25902973Y-40436744D01*
X25895726Y-40442004D01*
X25886882Y-40440599D01*
X25883027Y-40436744D01*
X25695989Y-40131872D01*
X25694584Y-40123028D01*
X25695003Y-40121656D01*
X25765153Y-39934592D01*
X25771267Y-39928049D01*
X25776108Y-39927000D01*
X26009892Y-39927000D01*
X26018165Y-39930427D01*
G37*
%TD.AperFunction*%
%TD*%
%TA.AperFunction,Conductor*%
%TO.N,/SWDIO*%
G36*
X27690477Y-33858786D02*
G01*
X28300021Y-33996588D01*
X28307334Y-34001754D01*
X28308852Y-34010579D01*
X28303685Y-34017893D01*
X28300020Y-34019411D01*
X27690481Y-34157212D01*
X27687901Y-34157500D01*
X27683152Y-34157500D01*
X27681860Y-34157428D01*
X27472408Y-34134156D01*
X27464564Y-34129837D01*
X27462000Y-34122528D01*
X27462000Y-33893471D01*
X27465427Y-33885198D01*
X27472406Y-33881843D01*
X27681870Y-33858569D01*
X27683126Y-33858499D01*
X27687913Y-33858499D01*
X27690477Y-33858786D01*
G37*
%TD.AperFunction*%
%TD*%
%TA.AperFunction,Conductor*%
%TO.N,/SWDIO*%
G36*
X25057071Y-38338252D02*
G01*
X25669760Y-38614793D01*
X25675891Y-38621320D01*
X25675767Y-38629909D01*
X25529563Y-38985195D01*
X25523245Y-38991542D01*
X25523195Y-38991563D01*
X25167909Y-39137767D01*
X25158955Y-39137746D01*
X25152793Y-39131760D01*
X25088676Y-38989707D01*
X24926279Y-38629909D01*
X24876252Y-38519071D01*
X24875972Y-38510121D01*
X24878641Y-38505987D01*
X25043986Y-38340642D01*
X25052258Y-38337216D01*
X25057071Y-38338252D01*
G37*
%TD.AperFunction*%
%TD*%
%TA.AperFunction,Conductor*%
%TO.N,/SWDIO*%
G36*
X19075599Y-39493317D02*
G01*
X19081555Y-39499465D01*
X19226922Y-39848096D01*
X19226943Y-39857051D01*
X19226922Y-39857102D01*
X19081555Y-40205734D01*
X19075208Y-40212051D01*
X19066649Y-40212187D01*
X18448393Y-39980446D01*
X18441849Y-39974333D01*
X18440800Y-39969490D01*
X18440800Y-39735709D01*
X18444227Y-39727436D01*
X18448389Y-39724755D01*
X19066651Y-39493012D01*
X19075599Y-39493317D01*
G37*
%TD.AperFunction*%
%TD*%
%TA.AperFunction,Conductor*%
%TO.N,/SWDIO*%
G36*
X25917387Y-38988983D02*
G01*
X25925654Y-38992424D01*
X25928848Y-38998434D01*
X25980189Y-39260496D01*
X25978416Y-39269273D01*
X25976980Y-39271018D01*
X25809018Y-39438980D01*
X25800745Y-39442407D01*
X25798497Y-39442189D01*
X25677161Y-39418418D01*
X25536434Y-39390848D01*
X25528974Y-39385894D01*
X25526983Y-39379387D01*
X25526773Y-39260496D01*
X25526313Y-39000032D01*
X25529725Y-38991754D01*
X25537990Y-38988313D01*
X25917387Y-38988983D01*
G37*
%TD.AperFunction*%
%TD*%
%TA.AperFunction,Conductor*%
%TO.N,VBUS*%
G36*
X22955165Y-48973927D02*
G01*
X22957847Y-48978092D01*
X23028624Y-49166831D01*
X23028888Y-49174258D01*
X22841219Y-49808579D01*
X22835586Y-49815540D01*
X22826681Y-49816479D01*
X22819720Y-49810846D01*
X22818781Y-49808579D01*
X22778119Y-49671142D01*
X22631111Y-49174255D01*
X22631374Y-49166833D01*
X22702153Y-48978092D01*
X22708267Y-48971549D01*
X22713108Y-48970500D01*
X22946892Y-48970500D01*
X22955165Y-48973927D01*
G37*
%TD.AperFunction*%
%TD*%
%TA.AperFunction,Conductor*%
%TO.N,VBUS*%
G36*
X21277208Y-39724754D02*
G01*
X21283751Y-39730866D01*
X21284800Y-39735709D01*
X21284800Y-39969490D01*
X21281373Y-39977763D01*
X21277207Y-39980446D01*
X20658950Y-40212187D01*
X20650000Y-40211882D01*
X20644044Y-40205734D01*
X20548920Y-39977600D01*
X20498676Y-39857101D01*
X20498656Y-39848148D01*
X20644044Y-39499464D01*
X20650391Y-39493148D01*
X20658948Y-39493012D01*
X21277208Y-39724754D01*
G37*
%TD.AperFunction*%
%TD*%
%TA.AperFunction,Conductor*%
%TO.N,/D_P*%
G36*
X27664788Y-33362425D02*
G01*
X27672250Y-33362834D01*
X27672789Y-33362852D01*
X27673097Y-33362864D01*
X27680578Y-33363000D01*
X27680581Y-33363000D01*
X27687723Y-33363000D01*
X27687901Y-33363000D01*
X27703292Y-33362143D01*
X27706519Y-33362412D01*
X28300021Y-33496588D01*
X28307334Y-33501754D01*
X28308852Y-33510579D01*
X28303685Y-33517893D01*
X28300020Y-33519411D01*
X27706521Y-33653585D01*
X27703291Y-33653855D01*
X27688090Y-33653008D01*
X27688061Y-33653007D01*
X27687913Y-33652999D01*
X27683126Y-33652999D01*
X27682981Y-33653003D01*
X27671691Y-33653317D01*
X27671506Y-33653326D01*
X27670435Y-33653387D01*
X27670263Y-33653400D01*
X27659176Y-33654326D01*
X27659017Y-33654342D01*
X27651295Y-33655200D01*
X27649155Y-33655240D01*
X27472850Y-33642390D01*
X27464847Y-33638371D01*
X27462000Y-33630721D01*
X27462000Y-33385278D01*
X27465427Y-33377005D01*
X27472848Y-33373609D01*
X27644689Y-33361084D01*
X27646390Y-33361084D01*
X27664788Y-33362425D01*
G37*
%TD.AperFunction*%
%TD*%
%TA.AperFunction,Conductor*%
%TO.N,/D_P*%
G36*
X24263429Y-48973927D02*
G01*
X24266260Y-48978513D01*
X24328843Y-49167015D01*
X24328958Y-49174021D01*
X24141219Y-49808579D01*
X24135586Y-49815540D01*
X24126681Y-49816479D01*
X24119720Y-49810846D01*
X24118781Y-49808579D01*
X24073019Y-49653905D01*
X23931041Y-49174018D01*
X23931155Y-49167018D01*
X23993739Y-48978513D01*
X23999599Y-48971741D01*
X24004844Y-48970500D01*
X24255156Y-48970500D01*
X24263429Y-48973927D01*
G37*
%TD.AperFunction*%
%TD*%
%TA.AperFunction,Conductor*%
%TO.N,/D_N*%
G36*
X27690477Y-32858786D02*
G01*
X28300021Y-32996588D01*
X28307334Y-33001754D01*
X28308852Y-33010579D01*
X28303685Y-33017893D01*
X28300020Y-33019411D01*
X27690481Y-33157212D01*
X27687901Y-33157500D01*
X27680578Y-33157500D01*
X27679727Y-33157469D01*
X27472849Y-33142390D01*
X27464847Y-33138371D01*
X27462000Y-33130721D01*
X27462000Y-32885278D01*
X27465427Y-32877005D01*
X27472848Y-32873609D01*
X27679742Y-32858529D01*
X27680538Y-32858499D01*
X27687913Y-32858499D01*
X27690477Y-32858786D01*
G37*
%TD.AperFunction*%
%TD*%
%TA.AperFunction,Conductor*%
%TO.N,/D_N*%
G36*
X23613429Y-48973927D02*
G01*
X23616260Y-48978513D01*
X23678843Y-49167015D01*
X23678958Y-49174021D01*
X23491219Y-49808579D01*
X23485586Y-49815540D01*
X23476681Y-49816479D01*
X23469720Y-49810846D01*
X23468781Y-49808579D01*
X23423019Y-49653905D01*
X23281041Y-49174018D01*
X23281155Y-49167018D01*
X23343739Y-48978513D01*
X23349599Y-48971741D01*
X23354844Y-48970500D01*
X23605156Y-48970500D01*
X23613429Y-48973927D01*
G37*
%TD.AperFunction*%
%TD*%
%TA.AperFunction,Conductor*%
%TO.N,/HSE_OUT*%
G36*
X40930119Y-30214371D02*
G01*
X41270155Y-30599253D01*
X41273065Y-30607722D01*
X41270155Y-30614747D01*
X40930119Y-30999628D01*
X40922073Y-31003559D01*
X40915226Y-31001850D01*
X40481575Y-30735425D01*
X40476320Y-30728174D01*
X40476000Y-30725456D01*
X40476000Y-30488543D01*
X40479427Y-30480270D01*
X40481570Y-30478577D01*
X40915226Y-30212148D01*
X40924069Y-30210738D01*
X40930119Y-30214371D01*
G37*
%TD.AperFunction*%
%TD*%
%TA.AperFunction,Conductor*%
%TO.N,/HSE_OUT*%
G36*
X37342139Y-32358571D02*
G01*
X37551593Y-32381843D01*
X37559436Y-32386162D01*
X37562000Y-32393471D01*
X37562000Y-32622528D01*
X37558573Y-32630801D01*
X37551592Y-32634156D01*
X37342147Y-32657428D01*
X37340855Y-32657500D01*
X37336094Y-32657500D01*
X37333514Y-32657212D01*
X36723979Y-32519411D01*
X36716665Y-32514244D01*
X36715147Y-32505419D01*
X36720314Y-32498105D01*
X36723973Y-32496589D01*
X37333519Y-32358786D01*
X37336097Y-32358499D01*
X37340847Y-32358499D01*
X37342139Y-32358571D01*
G37*
%TD.AperFunction*%
%TD*%
%TA.AperFunction,Conductor*%
%TO.N,/DIP3*%
G36*
X31386435Y-40136427D02*
G01*
X31389416Y-40141501D01*
X31493618Y-40508137D01*
X31492584Y-40517032D01*
X31492408Y-40517337D01*
X31126402Y-41129915D01*
X31119217Y-41135259D01*
X31110357Y-41133958D01*
X31105725Y-41128795D01*
X30826126Y-40519672D01*
X30825789Y-40510723D01*
X30827737Y-40507342D01*
X31133490Y-40137248D01*
X31141402Y-40133053D01*
X31142511Y-40133000D01*
X31378162Y-40133000D01*
X31386435Y-40136427D01*
G37*
%TD.AperFunction*%
%TD*%
%TA.AperFunction,Conductor*%
%TO.N,/DIP3*%
G36*
X31271893Y-36466314D02*
G01*
X31273411Y-36469979D01*
X31411212Y-37079518D01*
X31411500Y-37082098D01*
X31411500Y-37086847D01*
X31411428Y-37088139D01*
X31388156Y-37297592D01*
X31383837Y-37305436D01*
X31376528Y-37308000D01*
X31147472Y-37308000D01*
X31139199Y-37304573D01*
X31135844Y-37297592D01*
X31127381Y-37221429D01*
X31112570Y-37088131D01*
X31112499Y-37086871D01*
X31112499Y-37082085D01*
X31112787Y-37079518D01*
X31250588Y-36469976D01*
X31255754Y-36462665D01*
X31264579Y-36461147D01*
X31271893Y-36466314D01*
G37*
%TD.AperFunction*%
%TD*%
%TA.AperFunction,Conductor*%
%TO.N,/DIP3*%
G36*
X31121001Y-41159767D02*
G01*
X31125044Y-41163810D01*
X31491197Y-41776636D01*
X31492498Y-41785496D01*
X31490868Y-41789156D01*
X31243477Y-42157819D01*
X31236022Y-42162780D01*
X31233762Y-42163000D01*
X30996238Y-42163000D01*
X30987965Y-42159573D01*
X30986523Y-42157819D01*
X30739131Y-41789156D01*
X30737366Y-41780377D01*
X30738802Y-41776636D01*
X31104956Y-41163810D01*
X31112141Y-41158466D01*
X31121001Y-41159767D01*
G37*
%TD.AperFunction*%
%TD*%
%TA.AperFunction,Conductor*%
%TO.N,/DIP3*%
G36*
X37059557Y-46057464D02*
G01*
X37202812Y-46146776D01*
X37439073Y-46294071D01*
X37444280Y-46301356D01*
X37442812Y-46310190D01*
X37439073Y-46313929D01*
X37059560Y-46550533D01*
X37050726Y-46552001D01*
X37048138Y-46551069D01*
X36810468Y-46432234D01*
X36804600Y-46425469D01*
X36804000Y-46421769D01*
X36804000Y-46186231D01*
X36807427Y-46177958D01*
X36810468Y-46175766D01*
X37048140Y-46056929D01*
X37057070Y-46056295D01*
X37059557Y-46057464D01*
G37*
%TD.AperFunction*%
%TD*%
%TA.AperFunction,Conductor*%
%TO.N,/DIP2*%
G36*
X37058178Y-45306092D02*
G01*
X37058524Y-45306256D01*
X37220630Y-45387107D01*
X37434007Y-45493530D01*
X37439881Y-45500289D01*
X37439255Y-45509222D01*
X37434007Y-45514470D01*
X37058559Y-45701726D01*
X37049626Y-45702352D01*
X37049229Y-45702211D01*
X36861592Y-45631847D01*
X36855049Y-45625733D01*
X36854000Y-45620892D01*
X36854000Y-45387107D01*
X36857427Y-45378834D01*
X36861588Y-45376154D01*
X37049231Y-45305788D01*
X37058178Y-45306092D01*
G37*
%TD.AperFunction*%
%TD*%
%TA.AperFunction,Conductor*%
%TO.N,/DIP2*%
G36*
X32512035Y-40136427D02*
G01*
X32513477Y-40138181D01*
X32760868Y-40506843D01*
X32762633Y-40515622D01*
X32761197Y-40519363D01*
X32395044Y-41132189D01*
X32387859Y-41137533D01*
X32378999Y-41136232D01*
X32374956Y-41132189D01*
X32008802Y-40519363D01*
X32007501Y-40510503D01*
X32009129Y-40506845D01*
X32256523Y-40138180D01*
X32263978Y-40133220D01*
X32266238Y-40133000D01*
X32503762Y-40133000D01*
X32512035Y-40136427D01*
G37*
%TD.AperFunction*%
%TD*%
%TA.AperFunction,Conductor*%
%TO.N,/DIP2*%
G36*
X31771893Y-36466313D02*
G01*
X31773411Y-36469978D01*
X31907585Y-37063471D01*
X31907855Y-37066701D01*
X31907008Y-37081907D01*
X31907008Y-37081922D01*
X31906999Y-37082085D01*
X31906999Y-37082264D01*
X31906999Y-37087836D01*
X31907001Y-37087989D01*
X31907233Y-37097639D01*
X31907238Y-37097778D01*
X31907283Y-37098686D01*
X31907291Y-37098804D01*
X31907938Y-37107980D01*
X31907949Y-37108095D01*
X31908414Y-37113083D01*
X31908392Y-37115460D01*
X31888156Y-37297592D01*
X31883837Y-37305436D01*
X31876528Y-37308000D01*
X31647472Y-37308000D01*
X31639199Y-37304573D01*
X31635844Y-37297592D01*
X31622298Y-37175681D01*
X31615525Y-37114725D01*
X31615525Y-37112146D01*
X31615671Y-37110832D01*
X31615672Y-37110808D01*
X31615688Y-37110651D01*
X31616610Y-37099573D01*
X31616619Y-37099424D01*
X31616682Y-37098281D01*
X31616686Y-37098140D01*
X31617000Y-37086847D01*
X31617001Y-37086667D01*
X31617000Y-37082277D01*
X31617000Y-37082264D01*
X31617000Y-37082098D01*
X31616143Y-37066705D01*
X31616412Y-37063481D01*
X31750588Y-36469975D01*
X31755754Y-36462664D01*
X31764579Y-36461146D01*
X31771893Y-36466313D01*
G37*
%TD.AperFunction*%
%TD*%
%TA.AperFunction,Conductor*%
%TO.N,/DIP2*%
G36*
X32391001Y-41159767D02*
G01*
X32395044Y-41163810D01*
X32761197Y-41776636D01*
X32762498Y-41785496D01*
X32760868Y-41789156D01*
X32513477Y-42157819D01*
X32506022Y-42162780D01*
X32503762Y-42163000D01*
X32266238Y-42163000D01*
X32257965Y-42159573D01*
X32256523Y-42157819D01*
X32009131Y-41789156D01*
X32007366Y-41780377D01*
X32008802Y-41776636D01*
X32374956Y-41163810D01*
X32382141Y-41158466D01*
X32391001Y-41159767D01*
G37*
%TD.AperFunction*%
%TD*%
%TA.AperFunction,Conductor*%
%TO.N,/DIP1*%
G36*
X33782035Y-40136427D02*
G01*
X33783477Y-40138181D01*
X34030868Y-40506843D01*
X34032633Y-40515622D01*
X34031197Y-40519363D01*
X33665044Y-41132189D01*
X33657859Y-41137533D01*
X33648999Y-41136232D01*
X33644956Y-41132189D01*
X33278802Y-40519363D01*
X33277501Y-40510503D01*
X33279129Y-40506845D01*
X33526523Y-40138180D01*
X33533978Y-40133220D01*
X33536238Y-40133000D01*
X33773762Y-40133000D01*
X33782035Y-40136427D01*
G37*
%TD.AperFunction*%
%TD*%
%TA.AperFunction,Conductor*%
%TO.N,/DIP1*%
G36*
X37058178Y-44506092D02*
G01*
X37058524Y-44506256D01*
X37220630Y-44587107D01*
X37434007Y-44693530D01*
X37439881Y-44700289D01*
X37439255Y-44709222D01*
X37434007Y-44714470D01*
X37058559Y-44901726D01*
X37049626Y-44902352D01*
X37049229Y-44902211D01*
X36861592Y-44831847D01*
X36855049Y-44825733D01*
X36854000Y-44820892D01*
X36854000Y-44587107D01*
X36857427Y-44578834D01*
X36861588Y-44576154D01*
X37049231Y-44505788D01*
X37058178Y-44506092D01*
G37*
%TD.AperFunction*%
%TD*%
%TA.AperFunction,Conductor*%
%TO.N,/DIP1*%
G36*
X33661001Y-41159767D02*
G01*
X33665044Y-41163810D01*
X34031197Y-41776636D01*
X34032498Y-41785496D01*
X34030868Y-41789156D01*
X33783477Y-42157819D01*
X33776022Y-42162780D01*
X33773762Y-42163000D01*
X33536238Y-42163000D01*
X33527965Y-42159573D01*
X33526523Y-42157819D01*
X33279131Y-41789156D01*
X33277366Y-41780377D01*
X33278802Y-41776636D01*
X33644956Y-41163810D01*
X33652141Y-41158466D01*
X33661001Y-41159767D01*
G37*
%TD.AperFunction*%
%TD*%
%TA.AperFunction,Conductor*%
%TO.N,/DIP1*%
G36*
X32271645Y-36467411D02*
G01*
X32273186Y-36471181D01*
X32408523Y-37096418D01*
X32408699Y-37100330D01*
X32384270Y-37297737D01*
X32379853Y-37305527D01*
X32372659Y-37308000D01*
X32143658Y-37308000D01*
X32135385Y-37304573D01*
X32132009Y-37297387D01*
X32113617Y-37100330D01*
X32112549Y-37088883D01*
X32112499Y-37087836D01*
X32112499Y-37082085D01*
X32112785Y-37079523D01*
X32250340Y-36471073D01*
X32255506Y-36463762D01*
X32264331Y-36462244D01*
X32271645Y-36467411D01*
G37*
%TD.AperFunction*%
%TD*%
%TA.AperFunction,Conductor*%
%TO.N,/BOOT0*%
G36*
X33271893Y-36466314D02*
G01*
X33273411Y-36469979D01*
X33411212Y-37079518D01*
X33411500Y-37082098D01*
X33411500Y-37086847D01*
X33411428Y-37088139D01*
X33388156Y-37297592D01*
X33383837Y-37305436D01*
X33376528Y-37308000D01*
X33147472Y-37308000D01*
X33139199Y-37304573D01*
X33135844Y-37297592D01*
X33127381Y-37221429D01*
X33112570Y-37088131D01*
X33112499Y-37086871D01*
X33112499Y-37082085D01*
X33112787Y-37079518D01*
X33250588Y-36469976D01*
X33255754Y-36462665D01*
X33264579Y-36461147D01*
X33271893Y-36466314D01*
G37*
%TD.AperFunction*%
%TD*%
%TA.AperFunction,Conductor*%
%TO.N,/BOOT0*%
G36*
X37059557Y-43657464D02*
G01*
X37202812Y-43746776D01*
X37439073Y-43894071D01*
X37444280Y-43901356D01*
X37442812Y-43910190D01*
X37439073Y-43913929D01*
X37059560Y-44150533D01*
X37050726Y-44152001D01*
X37048138Y-44151069D01*
X36810468Y-44032234D01*
X36804600Y-44025469D01*
X36804000Y-44021769D01*
X36804000Y-43786231D01*
X36807427Y-43777958D01*
X36810468Y-43775766D01*
X37048140Y-43656929D01*
X37057070Y-43656295D01*
X37059557Y-43657464D01*
G37*
%TD.AperFunction*%
%TD*%
%TA.AperFunction,Conductor*%
%TO.N,/BOOT0*%
G36*
X34931001Y-41159767D02*
G01*
X34935044Y-41163810D01*
X35301197Y-41776636D01*
X35302498Y-41785496D01*
X35300868Y-41789156D01*
X35053477Y-42157819D01*
X35046022Y-42162780D01*
X35043762Y-42163000D01*
X34806238Y-42163000D01*
X34797965Y-42159573D01*
X34796523Y-42157819D01*
X34549131Y-41789156D01*
X34547366Y-41780377D01*
X34548802Y-41776636D01*
X34914956Y-41163810D01*
X34922141Y-41158466D01*
X34931001Y-41159767D01*
G37*
%TD.AperFunction*%
%TD*%
%TA.AperFunction,Conductor*%
%TO.N,/BOOT0*%
G36*
X35052035Y-40136427D02*
G01*
X35053477Y-40138181D01*
X35300868Y-40506843D01*
X35302633Y-40515622D01*
X35301197Y-40519363D01*
X34935044Y-41132189D01*
X34927859Y-41137533D01*
X34918999Y-41136232D01*
X34914956Y-41132189D01*
X34548802Y-40519363D01*
X34547501Y-40510503D01*
X34549129Y-40506845D01*
X34796523Y-40138180D01*
X34803978Y-40133220D01*
X34806238Y-40133000D01*
X35043762Y-40133000D01*
X35052035Y-40136427D01*
G37*
%TD.AperFunction*%
%TD*%
%TA.AperFunction,Conductor*%
%TO.N,/LDO_3V3/5V*%
G36*
X12720187Y-34548597D02*
G01*
X13139350Y-34875024D01*
X13143772Y-34882811D01*
X13143263Y-34887948D01*
X12952663Y-35460993D01*
X12946800Y-35467761D01*
X12941561Y-35469000D01*
X12458802Y-35469000D01*
X12450529Y-35465573D01*
X12447560Y-35460543D01*
X12282321Y-34887710D01*
X12283321Y-34878813D01*
X12286371Y-34875241D01*
X12705811Y-34548597D01*
X12714444Y-34546218D01*
X12720187Y-34548597D01*
G37*
%TD.AperFunction*%
%TD*%
%TA.AperFunction,Conductor*%
%TO.N,/LDO_3V3/5V*%
G36*
X12951640Y-34906927D02*
G01*
X12953406Y-34909192D01*
X13576788Y-35950841D01*
X13578096Y-35959700D01*
X13575870Y-35964176D01*
X12709121Y-37043145D01*
X12701269Y-37047449D01*
X12692673Y-37044939D01*
X12690879Y-37043145D01*
X11824129Y-35964176D01*
X11821619Y-35955580D01*
X11823209Y-35950844D01*
X12446593Y-34909192D01*
X12453782Y-34903853D01*
X12456633Y-34903500D01*
X12943367Y-34903500D01*
X12951640Y-34906927D01*
G37*
%TD.AperFunction*%
%TD*%
%TA.AperFunction,Conductor*%
%TO.N,/LDO_3V3/5V*%
G36*
X9490882Y-36008088D02*
G01*
X10228790Y-36500027D01*
X10233773Y-36507466D01*
X10234000Y-36509761D01*
X10234000Y-36997238D01*
X10230573Y-37005511D01*
X10228790Y-37006973D01*
X9490884Y-37498910D01*
X9482099Y-37500648D01*
X9477378Y-37498538D01*
X8495496Y-36762863D01*
X8490930Y-36755160D01*
X8493149Y-36746484D01*
X8495496Y-36744137D01*
X8811373Y-36507466D01*
X9477379Y-36008460D01*
X9486054Y-36006242D01*
X9490882Y-36008088D01*
G37*
%TD.AperFunction*%
%TD*%
%TA.AperFunction,Conductor*%
%TO.N,/LDO_3V3/5V*%
G36*
X11818254Y-36000444D02*
G01*
X12659086Y-37003500D01*
X12693518Y-37044574D01*
X12696207Y-37053115D01*
X12692109Y-37061022D01*
X11807805Y-37809212D01*
X11799276Y-37811940D01*
X11792409Y-37808965D01*
X10903861Y-37006984D01*
X10900015Y-36998897D01*
X10900000Y-36998299D01*
X10900000Y-36510359D01*
X10903427Y-36502086D01*
X10905983Y-36500150D01*
X11803575Y-35997750D01*
X11812467Y-35996701D01*
X11818254Y-36000444D01*
G37*
%TD.AperFunction*%
%TD*%
%TA.AperFunction,Conductor*%
%TO.N,/VBAT*%
G36*
X38607434Y-38460427D02*
G01*
X38609356Y-38462959D01*
X38925862Y-39024991D01*
X38926935Y-39033881D01*
X38922502Y-39040228D01*
X38487834Y-39353080D01*
X38479117Y-39355132D01*
X38474164Y-39353080D01*
X38039496Y-39040228D01*
X38034783Y-39032614D01*
X38036135Y-39024993D01*
X38352644Y-38462958D01*
X38359690Y-38457432D01*
X38362839Y-38457000D01*
X38599161Y-38457000D01*
X38607434Y-38460427D01*
G37*
%TD.AperFunction*%
%TD*%
%TA.AperFunction,Conductor*%
%TO.N,/VBAT*%
G36*
X40349755Y-40198649D02*
G01*
X40923721Y-40498717D01*
X40929465Y-40505587D01*
X40930000Y-40509086D01*
X40930000Y-40744913D01*
X40926573Y-40753186D01*
X40923721Y-40755282D01*
X40349756Y-41055349D01*
X40340836Y-41056145D01*
X40335104Y-41052169D01*
X40009597Y-40634188D01*
X40007218Y-40625556D01*
X40009597Y-40619812D01*
X40335106Y-40201828D01*
X40342891Y-40197408D01*
X40349755Y-40198649D01*
G37*
%TD.AperFunction*%
%TD*%
%TA.AperFunction,Conductor*%
%TO.N,/VBAT*%
G36*
X40132554Y-39881427D02*
G01*
X40133512Y-39882510D01*
X40407555Y-40234496D01*
X40409933Y-40243129D01*
X40406342Y-40250202D01*
X40013019Y-40620451D01*
X40004647Y-40623627D01*
X39996981Y-40620451D01*
X39603657Y-40250202D01*
X39599981Y-40242036D01*
X39602442Y-40234498D01*
X39876487Y-39882511D01*
X39884274Y-39878090D01*
X39885719Y-39878000D01*
X40124281Y-39878000D01*
X40132554Y-39881427D01*
G37*
%TD.AperFunction*%
%TD*%
%TA.AperFunction,Conductor*%
%TO.N,/VBAT*%
G36*
X45667343Y-40795985D02*
G01*
X46020004Y-40953550D01*
X46283591Y-41071318D01*
X46289746Y-41077821D01*
X46289500Y-41086773D01*
X46283591Y-41092682D01*
X45667348Y-41368012D01*
X45658396Y-41368258D01*
X45656286Y-41367196D01*
X45410411Y-41210449D01*
X45405277Y-41203112D01*
X45405000Y-41200583D01*
X45405000Y-40963416D01*
X45408427Y-40955143D01*
X45410408Y-40953552D01*
X45656287Y-40796802D01*
X45665104Y-40795246D01*
X45667343Y-40795985D01*
G37*
%TD.AperFunction*%
%TD*%
%TA.AperFunction,Conductor*%
%TO.N,/VBAT*%
G36*
X41738641Y-41177299D02*
G01*
X43080628Y-41893778D01*
X43086313Y-41900697D01*
X43086518Y-41906732D01*
X42801267Y-43141949D01*
X42796066Y-43149239D01*
X42793029Y-43150581D01*
X41911541Y-43397988D01*
X41902649Y-43396924D01*
X41897114Y-43389885D01*
X41896841Y-43388662D01*
X41646769Y-41900697D01*
X41555215Y-41355938D01*
X41557223Y-41347213D01*
X41558474Y-41345734D01*
X41724861Y-41179347D01*
X41733133Y-41175921D01*
X41738641Y-41177299D01*
G37*
%TD.AperFunction*%
%TD*%
%TA.AperFunction,Conductor*%
%TO.N,/VBAT*%
G36*
X38825755Y-38928649D02*
G01*
X39399721Y-39228717D01*
X39405465Y-39235587D01*
X39406000Y-39239086D01*
X39406000Y-39474913D01*
X39402573Y-39483186D01*
X39399721Y-39485282D01*
X38825756Y-39785349D01*
X38816836Y-39786145D01*
X38811104Y-39782169D01*
X38485598Y-39364188D01*
X38483218Y-39355555D01*
X38485596Y-39349813D01*
X38811106Y-38931828D01*
X38818891Y-38927408D01*
X38825755Y-38928649D01*
G37*
%TD.AperFunction*%
%TD*%
%TA.AperFunction,Conductor*%
%TO.N,/VBAT*%
G36*
X44243589Y-42062504D02*
G01*
X44249477Y-42065686D01*
X44417727Y-42233936D01*
X44421154Y-42242209D01*
X44419840Y-42247596D01*
X43704488Y-43626623D01*
X43697636Y-43632389D01*
X43688715Y-43631622D01*
X43688524Y-43631521D01*
X42809082Y-43154558D01*
X42803443Y-43147601D01*
X42804375Y-43138695D01*
X42804642Y-43138228D01*
X43540382Y-41924106D01*
X43547600Y-41918808D01*
X43552771Y-41918716D01*
X44243589Y-42062504D01*
G37*
%TD.AperFunction*%
%TD*%
%TA.AperFunction,Conductor*%
%TO.N,/VBAT*%
G36*
X37342139Y-34858571D02*
G01*
X37551593Y-34881843D01*
X37559436Y-34886162D01*
X37562000Y-34893471D01*
X37561999Y-35122528D01*
X37558572Y-35130801D01*
X37551591Y-35134156D01*
X37338955Y-35157782D01*
X37335083Y-35157566D01*
X36723979Y-35019411D01*
X36716665Y-35014244D01*
X36715147Y-35005419D01*
X36720314Y-34998105D01*
X36723973Y-34996589D01*
X37333519Y-34858786D01*
X37336097Y-34858499D01*
X37340847Y-34858499D01*
X37342139Y-34858571D01*
G37*
%TD.AperFunction*%
%TD*%
%TA.AperFunction,Conductor*%
%TO.N,Net-(D107-K)*%
G36*
X55483719Y-24074771D02*
G01*
X55823755Y-24459652D01*
X55826665Y-24468121D01*
X55823755Y-24475146D01*
X55483719Y-24860028D01*
X55475673Y-24863959D01*
X55468826Y-24862250D01*
X55035175Y-24595825D01*
X55029920Y-24588574D01*
X55029600Y-24585856D01*
X55029600Y-24348943D01*
X55033027Y-24340670D01*
X55035170Y-24338977D01*
X55468826Y-24072548D01*
X55477669Y-24071138D01*
X55483719Y-24074771D01*
G37*
%TD.AperFunction*%
%TD*%
%TA.AperFunction,Conductor*%
%TO.N,Net-(D107-K)*%
G36*
X54482663Y-24035036D02*
G01*
X55009249Y-24339022D01*
X55014701Y-24346126D01*
X55015100Y-24349155D01*
X55015100Y-24585644D01*
X55011673Y-24593917D01*
X55009249Y-24595777D01*
X54482664Y-24899762D01*
X54473786Y-24900930D01*
X54467522Y-24896738D01*
X54144538Y-24474509D01*
X54142233Y-24465855D01*
X54144538Y-24460291D01*
X54231868Y-24346126D01*
X54467522Y-24038060D01*
X54475270Y-24033572D01*
X54482663Y-24035036D01*
G37*
%TD.AperFunction*%
%TD*%
%TA.AperFunction,Conductor*%
%TO.N,/LED_UI*%
G36*
X33884801Y-27211427D02*
G01*
X33888156Y-27218408D01*
X33911428Y-27427851D01*
X33911500Y-27429143D01*
X33911500Y-27433903D01*
X33911212Y-27436483D01*
X33773411Y-28046020D01*
X33768244Y-28053334D01*
X33759419Y-28054852D01*
X33752105Y-28049685D01*
X33750588Y-28046024D01*
X33647138Y-27588429D01*
X33612787Y-27436480D01*
X33612499Y-27433900D01*
X33612499Y-27429152D01*
X33612571Y-27427860D01*
X33635844Y-27218408D01*
X33640163Y-27210564D01*
X33647472Y-27208000D01*
X33876528Y-27208000D01*
X33884801Y-27211427D01*
G37*
%TD.AperFunction*%
%TD*%
%TA.AperFunction,Conductor*%
%TO.N,/LED_UI*%
G36*
X52241690Y-24035381D02*
G01*
X52560725Y-24460243D01*
X52562952Y-24468916D01*
X52560597Y-24474460D01*
X52233608Y-24894020D01*
X52225820Y-24898439D01*
X52218435Y-24896905D01*
X51695855Y-24588595D01*
X51690471Y-24581440D01*
X51690100Y-24578518D01*
X51690100Y-24342029D01*
X51693527Y-24333756D01*
X51696041Y-24331844D01*
X52226581Y-24032217D01*
X52235469Y-24031134D01*
X52241690Y-24035381D01*
G37*
%TD.AperFunction*%
%TD*%
%TA.AperFunction,Conductor*%
%TO.N,GND*%
G36*
X39378244Y-45807427D02*
G01*
X39381289Y-45812734D01*
X39482392Y-46198495D01*
X39481174Y-46207366D01*
X39475591Y-46212254D01*
X39258517Y-46303109D01*
X39249563Y-46303142D01*
X39249483Y-46303109D01*
X39032408Y-46212254D01*
X39026099Y-46205898D01*
X39025607Y-46198495D01*
X39126711Y-45812734D01*
X39132124Y-45805600D01*
X39138029Y-45804000D01*
X39369971Y-45804000D01*
X39378244Y-45807427D01*
G37*
%TD.AperFunction*%
%TD*%
%TA.AperFunction,Conductor*%
%TO.N,+3V3*%
G36*
X28789320Y-24308108D02*
G01*
X28795969Y-24314106D01*
X28797104Y-24319133D01*
X28797104Y-24552612D01*
X28793677Y-24560885D01*
X28789320Y-24563637D01*
X28509208Y-24663136D01*
X28500265Y-24662676D01*
X28494500Y-24656629D01*
X28403993Y-24440388D01*
X28403961Y-24431436D01*
X28494500Y-24215115D01*
X28500855Y-24208808D01*
X28509208Y-24208609D01*
X28789320Y-24308108D01*
G37*
%TD.AperFunction*%
%TD*%
%TA.AperFunction,Conductor*%
%TO.N,+3V3*%
G36*
X28894371Y-24308584D02*
G01*
X28901504Y-24313996D01*
X28903104Y-24319901D01*
X28903104Y-24551844D01*
X28899677Y-24560117D01*
X28894370Y-24563162D01*
X28508608Y-24664265D01*
X28499737Y-24663047D01*
X28494849Y-24657464D01*
X28403993Y-24440388D01*
X28403961Y-24431436D01*
X28494850Y-24214279D01*
X28501205Y-24207972D01*
X28508608Y-24207480D01*
X28894371Y-24308584D01*
G37*
%TD.AperFunction*%
%TD*%
%TA.AperFunction,Conductor*%
%TO.N,VBUS*%
G36*
X22834492Y-48768880D02*
G01*
X23051591Y-48859745D01*
X23057900Y-48866101D01*
X23058392Y-48873504D01*
X22957289Y-49259266D01*
X22951876Y-49266400D01*
X22945971Y-49268000D01*
X22714029Y-49268000D01*
X22705756Y-49264573D01*
X22702711Y-49259266D01*
X22601607Y-48873504D01*
X22602825Y-48864633D01*
X22608406Y-48859746D01*
X22825484Y-48768889D01*
X22834436Y-48768857D01*
X22834492Y-48768880D01*
G37*
%TD.AperFunction*%
%TD*%
M02*
