M48
; DRILL file {KiCad 7.0.2-0} date 2023 May 23, Tuesday 14:33:50
; FORMAT={-:-/ absolute / inch / decimal}
; #@! TF.CreationDate,2023-05-23T14:33:50-04:00
; #@! TF.GenerationSoftware,Kicad,Pcbnew,7.0.2-0
; #@! TF.FileFunction,Plated,1,4,PTH
FMAT,2
INCH
; #@! TA.AperFunction,Plated,PTH,ViaDrill
T1C0.0157
; #@! TA.AperFunction,Plated,PTH,ComponentDrill
T2C0.0236
; #@! TA.AperFunction,Plated,PTH,ComponentDrill
T3C0.0295
; #@! TA.AperFunction,Plated,PTH,ComponentDrill
T4C0.0335
; #@! TA.AperFunction,Plated,PTH,ComponentDrill
T5C0.0374
; #@! TA.AperFunction,Plated,PTH,ComponentDrill
T6C0.0394
; #@! TA.AperFunction,Plated,PTH,ComponentDrill
T7C0.0472
; #@! TA.AperFunction,Plated,PTH,ComponentDrill
T8C0.1693
%
G90
G05
T1
X0.067Y-1.698
X0.095Y-1.3
X0.117Y-1.698
X0.175Y-1.3
X0.255Y-1.3
X0.385Y-1.5
X0.395Y-1.345
X0.605Y-1.81
X0.665Y-1.81
X0.679Y-1.568
X0.681Y-1.468
X0.6835Y-1.52
X0.7001Y-1.7451
X0.725Y-1.81
X0.735Y-0.855
X0.75Y-0.715
X0.75Y-0.755
X0.835Y-1.469
X0.835Y-1.518
X0.88Y-1.155
X0.947Y-1.548
X0.965Y-1.06
X0.965Y-1.22
X0.965Y-1.9094
X0.985Y-1.6755
X0.99Y-1.745
X1.009Y-0.962
X1.009Y-1.0225
X1.0234Y-1.564
X1.025Y-1.22
X1.0375Y-1.3925
X1.0746Y-1.562
X1.077Y-1.734
X1.105Y-1.505
X1.117Y-1.682
X1.17Y-0.995
X1.187Y-1.3586
X1.265Y-1.2
X1.315Y-1.982
X1.332Y-1.294
X1.3462Y-1.5082
X1.373Y-1.24
X1.3947Y-1.4978
X1.4027Y-1.0427
X1.407Y-1.5575
X1.503Y-1.1617
X1.515Y-1.665
X1.52Y-1.11
X1.587Y-1.823
X1.59Y-1.515
X1.723Y-1.386
X1.731Y-1.0765
X1.731Y-1.143
X1.765Y-1.232
X2.069Y-0.724
X2.315Y-0.786
X2.315Y-0.965
X2.3153Y-0.8723
X2.33Y-0.465
X2.33Y-0.615
X2.667Y-1.528
T2
X0.078Y-0.2
X0.078Y-1.92
X0.1152Y-0.1102
X0.1152Y-0.2898
X0.1152Y-1.8302
X0.1152Y-2.0098
X0.205Y-0.073
X0.205Y-0.327
X0.205Y-1.793
X0.205Y-2.047
X0.2948Y-0.1102
X0.2948Y-0.2898
X0.2948Y-1.8302
X0.2948Y-2.0098
X0.332Y-0.2
X0.332Y-1.92
X2.468Y-0.2
X2.468Y-1.92
X2.5052Y-0.1102
X2.5052Y-0.2898
X2.5052Y-1.8302
X2.5052Y-2.0098
X2.595Y-0.073
X2.595Y-0.327
X2.595Y-1.793
X2.595Y-2.047
X2.6848Y-0.1102
X2.6848Y-0.2898
X2.6848Y-1.8302
X2.6848Y-2.0098
X2.722Y-0.2
X2.722Y-1.92
T3
X0.2444Y-0.4963
X0.2444Y-0.575
X0.2444Y-0.6537
X0.2444Y-0.7325
X2.1125Y-0.265
X2.1913Y-0.265
X2.27Y-0.265
X2.54Y-0.7888
X2.54Y-0.8675
X2.54Y-0.9463
X2.54Y-1.025
T4
X0.8146Y-1.9604
X1.0114Y-1.9604
T5
X0.265Y-0.9566
X0.265Y-1.055
X0.265Y-1.1534
T6
X0.5271Y-0.1362
X0.5271Y-0.2362
X0.5271Y-0.3362
X0.5271Y-0.4362
X2.0058Y-1.8693
X2.1042Y-1.8693
T7
X2.1965Y-1.43
X2.4917Y-1.43
T8
X0.205Y-0.2
X0.205Y-1.92
X2.595Y-0.2
X2.595Y-1.92
T2
G00X0.7752Y-2.0805
M15
G01X0.7752Y-2.0529
M16
G05
G00X1.0508Y-2.0529
M15
G01X1.0508Y-2.0805
M16
G05
T0
M30
