%TF.GenerationSoftware,KiCad,Pcbnew,7.0.5-0*%
%TF.CreationDate,2023-06-02T13:54:40-04:00*%
%TF.ProjectId,7-segment-display-controller,372d7365-676d-4656-9e74-2d646973706c,B*%
%TF.SameCoordinates,Original*%
%TF.FileFunction,Soldermask,Top*%
%TF.FilePolarity,Negative*%
%FSLAX46Y46*%
G04 Gerber Fmt 4.6, Leading zero omitted, Abs format (unit mm)*
G04 Created by KiCad (PCBNEW 7.0.5-0) date 2023-06-02 13:54:40*
%MOMM*%
%LPD*%
G01*
G04 APERTURE LIST*
G04 Aperture macros list*
%AMRoundRect*
0 Rectangle with rounded corners*
0 $1 Rounding radius*
0 $2 $3 $4 $5 $6 $7 $8 $9 X,Y pos of 4 corners*
0 Add a 4 corners polygon primitive as box body*
4,1,4,$2,$3,$4,$5,$6,$7,$8,$9,$2,$3,0*
0 Add four circle primitives for the rounded corners*
1,1,$1+$1,$2,$3*
1,1,$1+$1,$4,$5*
1,1,$1+$1,$6,$7*
1,1,$1+$1,$8,$9*
0 Add four rect primitives between the rounded corners*
20,1,$1+$1,$2,$3,$4,$5,0*
20,1,$1+$1,$4,$5,$6,$7,0*
20,1,$1+$1,$6,$7,$8,$9,0*
20,1,$1+$1,$8,$9,$2,$3,0*%
%AMFreePoly0*
4,1,19,0.550000,-0.750000,0.000000,-0.750000,0.000000,-0.744911,-0.071157,-0.744911,-0.207708,-0.704816,-0.327430,-0.627875,-0.420627,-0.520320,-0.479746,-0.390866,-0.500000,-0.250000,-0.500000,0.250000,-0.479746,0.390866,-0.420627,0.520320,-0.327430,0.627875,-0.207708,0.704816,-0.071157,0.744911,0.000000,0.744911,0.000000,0.750000,0.550000,0.750000,0.550000,-0.750000,0.550000,-0.750000,
$1*%
%AMFreePoly1*
4,1,19,0.000000,0.744911,0.071157,0.744911,0.207708,0.704816,0.327430,0.627875,0.420627,0.520320,0.479746,0.390866,0.500000,0.250000,0.500000,-0.250000,0.479746,-0.390866,0.420627,-0.520320,0.327430,-0.627875,0.207708,-0.704816,0.071157,-0.744911,0.000000,-0.744911,0.000000,-0.750000,-0.550000,-0.750000,-0.550000,0.750000,0.000000,0.750000,0.000000,0.744911,0.000000,0.744911,
$1*%
G04 Aperture macros list end*
%ADD10RoundRect,0.250000X-0.325000X-0.450000X0.325000X-0.450000X0.325000X0.450000X-0.325000X0.450000X0*%
%ADD11RoundRect,0.225000X-0.250000X0.225000X-0.250000X-0.225000X0.250000X-0.225000X0.250000X0.225000X0*%
%ADD12C,0.800000*%
%ADD13C,6.400000*%
%ADD14R,1.800000X1.000000*%
%ADD15RoundRect,0.225000X0.250000X-0.225000X0.250000X0.225000X-0.250000X0.225000X-0.250000X-0.225000X0*%
%ADD16RoundRect,0.225000X0.225000X0.250000X-0.225000X0.250000X-0.225000X-0.250000X0.225000X-0.250000X0*%
%ADD17RoundRect,0.150000X-0.587500X-0.150000X0.587500X-0.150000X0.587500X0.150000X-0.587500X0.150000X0*%
%ADD18RoundRect,0.200000X0.275000X-0.200000X0.275000X0.200000X-0.275000X0.200000X-0.275000X-0.200000X0*%
%ADD19RoundRect,0.200000X-0.200000X-0.275000X0.200000X-0.275000X0.200000X0.275000X-0.200000X0.275000X0*%
%ADD20R,1.700000X1.700000*%
%ADD21O,1.700000X1.700000*%
%ADD22RoundRect,0.225000X-0.225000X-0.250000X0.225000X-0.250000X0.225000X0.250000X-0.225000X0.250000X0*%
%ADD23R,1.500000X2.000000*%
%ADD24R,3.800000X2.000000*%
%ADD25RoundRect,0.218750X0.218750X0.256250X-0.218750X0.256250X-0.218750X-0.256250X0.218750X-0.256250X0*%
%ADD26R,0.400000X1.350000*%
%ADD27O,1.200000X1.900000*%
%ADD28R,1.200000X1.900000*%
%ADD29C,1.450000*%
%ADD30R,1.500000X1.900000*%
%ADD31RoundRect,0.250000X0.350000X0.625000X-0.350000X0.625000X-0.350000X-0.625000X0.350000X-0.625000X0*%
%ADD32O,1.200000X1.750000*%
%ADD33FreePoly0,180.000000*%
%ADD34R,1.000000X1.500000*%
%ADD35FreePoly1,180.000000*%
%ADD36RoundRect,0.150000X0.150000X-0.512500X0.150000X0.512500X-0.150000X0.512500X-0.150000X-0.512500X0*%
%ADD37RoundRect,0.150000X0.512500X0.150000X-0.512500X0.150000X-0.512500X-0.150000X0.512500X-0.150000X0*%
%ADD38C,0.991000*%
%ADD39C,0.787000*%
%ADD40RoundRect,0.250000X0.650000X-1.000000X0.650000X1.000000X-0.650000X1.000000X-0.650000X-1.000000X0*%
%ADD41RoundRect,0.250000X-0.725000X0.600000X-0.725000X-0.600000X0.725000X-0.600000X0.725000X0.600000X0*%
%ADD42O,1.950000X1.700000*%
%ADD43R,1.000000X0.750000*%
%ADD44RoundRect,0.575000X-1.625000X-0.575000X1.625000X-0.575000X1.625000X0.575000X-1.625000X0.575000X0*%
%ADD45RoundRect,0.575000X-1.425000X-0.575000X1.425000X-0.575000X1.425000X0.575000X-1.425000X0.575000X0*%
%ADD46RoundRect,0.250000X-1.500000X-0.550000X1.500000X-0.550000X1.500000X0.550000X-1.500000X0.550000X0*%
%ADD47R,1.200000X1.400000*%
%ADD48RoundRect,0.250000X0.625000X-0.350000X0.625000X0.350000X-0.625000X0.350000X-0.625000X-0.350000X0*%
%ADD49O,1.750000X1.200000*%
%ADD50R,0.800000X0.500000*%
%ADD51R,0.800000X0.400000*%
%ADD52RoundRect,0.250000X-0.600000X-0.750000X0.600000X-0.750000X0.600000X0.750000X-0.600000X0.750000X0*%
%ADD53O,1.700000X2.000000*%
%ADD54R,0.400000X0.650000*%
%ADD55R,0.760000X1.270000*%
%ADD56RoundRect,0.075000X0.662500X0.075000X-0.662500X0.075000X-0.662500X-0.075000X0.662500X-0.075000X0*%
%ADD57RoundRect,0.075000X0.075000X0.662500X-0.075000X0.662500X-0.075000X-0.662500X0.075000X-0.662500X0*%
%ADD58RoundRect,0.250000X0.625000X-0.375000X0.625000X0.375000X-0.625000X0.375000X-0.625000X-0.375000X0*%
%ADD59RoundRect,0.250000X-0.625000X0.350000X-0.625000X-0.350000X0.625000X-0.350000X0.625000X0.350000X0*%
G04 APERTURE END LIST*
D10*
%TO.C,FB101*%
X41139000Y-25527000D03*
X43189000Y-25527000D03*
%TD*%
D11*
%TO.C,C110*%
X45339000Y-27191000D03*
X45339000Y-25641000D03*
%TD*%
D12*
%TO.C,H104*%
X5207000Y-46368000D03*
X6904056Y-50465056D03*
X6904056Y-47070944D03*
X7607000Y-48768000D03*
D13*
X5207000Y-48768000D03*
D12*
X5207000Y-51168000D03*
X3509944Y-47070944D03*
X3509944Y-50465056D03*
X2807000Y-48768000D03*
%TD*%
%TO.C,H103*%
X5207000Y-2680000D03*
X6904056Y-6777056D03*
X6904056Y-3382944D03*
X7607000Y-5080000D03*
D13*
X5207000Y-5080000D03*
D12*
X5207000Y-7480000D03*
X3509944Y-3382944D03*
X3509944Y-6777056D03*
X2807000Y-5080000D03*
%TD*%
%TO.C,H102*%
X65913000Y-46368000D03*
X67610056Y-50465056D03*
X67610056Y-47070944D03*
X68313000Y-48768000D03*
D13*
X65913000Y-48768000D03*
D12*
X65913000Y-51168000D03*
X64215944Y-47070944D03*
X64215944Y-50465056D03*
X63513000Y-48768000D03*
%TD*%
%TO.C,H101*%
X65913000Y-2680000D03*
X67610056Y-6777056D03*
X67610056Y-3382944D03*
X68313000Y-5080000D03*
D13*
X65913000Y-5080000D03*
D12*
X65913000Y-7480000D03*
X64215944Y-3382944D03*
X64215944Y-6777056D03*
X63513000Y-5080000D03*
%TD*%
D14*
%TO.C,Y103*%
X40894000Y-34945000D03*
X40894000Y-37445000D03*
%TD*%
D15*
%TO.C,C113*%
X42926000Y-36462000D03*
X42926000Y-34912000D03*
%TD*%
D16*
%TO.C,C112*%
X42685000Y-38989000D03*
X41135000Y-38989000D03*
%TD*%
D17*
%TO.C,Q101*%
X47449500Y-41468000D03*
X47449500Y-43368000D03*
X49324500Y-42418000D03*
%TD*%
D18*
%TO.C,R110*%
X26035000Y-29654000D03*
X26035000Y-28004000D03*
%TD*%
D19*
%TO.C,R102*%
X55819200Y-19920800D03*
X57469200Y-19920800D03*
%TD*%
D20*
%TO.C,OLED101*%
X13388000Y-11079000D03*
D21*
X13388000Y-8539000D03*
X13388000Y-5999000D03*
X13388000Y-3459000D03*
%TD*%
D22*
%TO.C,C107*%
X41262000Y-27305000D03*
X42812000Y-27305000D03*
%TD*%
D23*
%TO.C,U201*%
X3045700Y-41402400D03*
X5345700Y-41402400D03*
D24*
X5345700Y-35102400D03*
D23*
X7645700Y-41402400D03*
%TD*%
D19*
%TO.C,R101*%
X55880000Y-22156000D03*
X57530000Y-22156000D03*
%TD*%
D25*
%TO.C,D101*%
X54165100Y-22181400D03*
X52590100Y-22181400D03*
%TD*%
D22*
%TO.C,C109*%
X46215600Y-30632400D03*
X44665600Y-30632400D03*
%TD*%
D11*
%TO.C,C116*%
X38481000Y-40907000D03*
X38481000Y-39357000D03*
%TD*%
D26*
%TO.C,J102*%
X21890200Y-49794700D03*
X22540200Y-49794700D03*
X23190200Y-49794700D03*
X23840200Y-49794700D03*
X24490200Y-49794700D03*
D27*
X19690200Y-52494700D03*
D28*
X20290200Y-52494700D03*
D29*
X20690200Y-49794700D03*
D30*
X22190200Y-52494700D03*
X24190200Y-52494700D03*
D29*
X25690200Y-49794700D03*
D28*
X26090200Y-52494700D03*
D27*
X26690200Y-52494700D03*
%TD*%
D31*
%TO.C,J106*%
X57658000Y-6731000D03*
D32*
X55658000Y-6731000D03*
X53658000Y-6731000D03*
%TD*%
D11*
%TO.C,C201*%
X9779000Y-39179200D03*
X9779000Y-40729200D03*
%TD*%
D22*
%TO.C,C104*%
X28461000Y-36957000D03*
X26911000Y-36957000D03*
%TD*%
D33*
%TO.C,SW107*%
X13873000Y-22225000D03*
D34*
X12573000Y-22225000D03*
D35*
X11273000Y-22225000D03*
%TD*%
D22*
%TO.C,C106*%
X41262000Y-29032200D03*
X42812000Y-29032200D03*
%TD*%
D36*
%TO.C,U102*%
X21935400Y-45485900D03*
X22885400Y-45485900D03*
X23835400Y-45485900D03*
X23835400Y-43210900D03*
X22885400Y-43210900D03*
X21935400Y-43210900D03*
%TD*%
D37*
%TO.C,U103*%
X17774500Y-20127000D03*
X17774500Y-19177000D03*
X17774500Y-18227000D03*
X15499500Y-18227000D03*
X15499500Y-20127000D03*
%TD*%
D38*
%TO.C,J101*%
X19329400Y-41097200D03*
X18314400Y-36017200D03*
X20344400Y-36017200D03*
D39*
X19964400Y-39827200D03*
X18694400Y-39827200D03*
X19964400Y-38557200D03*
X18694400Y-38557200D03*
X19964400Y-37287200D03*
X18694400Y-37287200D03*
%TD*%
D40*
%TO.C,D106*%
X43942000Y-47339000D03*
X43942000Y-43339000D03*
%TD*%
D18*
%TO.C,R103*%
X42990000Y-30798000D03*
X42990000Y-32448000D03*
%TD*%
D41*
%TO.C,J104*%
X6731000Y-24297000D03*
D42*
X6731000Y-26797000D03*
X6731000Y-29297000D03*
%TD*%
D25*
%TO.C,D102*%
X54129700Y-19920800D03*
X52554700Y-19920800D03*
%TD*%
D43*
%TO.C,SW106*%
X60881000Y-11841000D03*
X66881000Y-11841000D03*
X60881000Y-15591000D03*
X66881000Y-15591000D03*
%TD*%
D44*
%TO.C,BT101*%
X51690000Y-36322000D03*
D45*
X67690000Y-36322000D03*
%TD*%
D46*
%TO.C,C115*%
X14445000Y-29337000D03*
X19845000Y-29337000D03*
%TD*%
D18*
%TO.C,R104*%
X12446000Y-26733000D03*
X12446000Y-25083000D03*
%TD*%
D47*
%TO.C,Y101*%
X44743000Y-34755000D03*
X44743000Y-32555000D03*
X46443000Y-32555000D03*
X46443000Y-34755000D03*
%TD*%
D18*
%TO.C,R109*%
X24511000Y-29654000D03*
X24511000Y-28004000D03*
%TD*%
D48*
%TO.C,J103*%
X64516000Y-26035000D03*
D49*
X64516000Y-24035000D03*
X64516000Y-22035000D03*
X64516000Y-20035000D03*
%TD*%
D15*
%TO.C,C103*%
X28403104Y-25971800D03*
X28403104Y-24421800D03*
%TD*%
D19*
%TO.C,R105*%
X55829600Y-24467400D03*
X57479600Y-24467400D03*
%TD*%
D50*
%TO.C,RN101*%
X39254000Y-46304000D03*
D51*
X39254000Y-45504000D03*
X39254000Y-44704000D03*
D50*
X39254000Y-43904000D03*
X37454000Y-43904000D03*
D51*
X37454000Y-44704000D03*
X37454000Y-45504000D03*
D50*
X37454000Y-46304000D03*
%TD*%
D40*
%TO.C,D103*%
X12319000Y-44545000D03*
X12319000Y-40545000D03*
%TD*%
D52*
%TO.C,J107*%
X50947000Y-47481000D03*
D53*
X53447000Y-47481000D03*
%TD*%
D22*
%TO.C,C118*%
X15862000Y-21717000D03*
X17412000Y-21717000D03*
%TD*%
D54*
%TO.C,D104*%
X25994600Y-42707600D03*
X26644600Y-42707600D03*
X27294600Y-42707600D03*
X27294600Y-40807600D03*
X26644600Y-40807600D03*
X25994600Y-40807600D03*
%TD*%
D19*
%TO.C,R108*%
X23432000Y-37465000D03*
X25082000Y-37465000D03*
%TD*%
D25*
%TO.C,D107*%
X54140100Y-24467400D03*
X52565100Y-24467400D03*
%TD*%
D11*
%TO.C,C105*%
X36830000Y-38010800D03*
X36830000Y-39560800D03*
%TD*%
%TO.C,C114*%
X59182000Y-12941000D03*
X59182000Y-14491000D03*
%TD*%
D55*
%TO.C,SW101*%
X31115000Y-48768000D03*
X32385000Y-48768000D03*
X33655000Y-48768000D03*
X34925000Y-48768000D03*
X34925000Y-41148000D03*
X33655000Y-41148000D03*
X32385000Y-41148000D03*
X31115000Y-41148000D03*
%TD*%
D16*
%TO.C,C202*%
X10046000Y-33020000D03*
X8496000Y-33020000D03*
%TD*%
D56*
%TO.C,U101*%
X36674500Y-35008000D03*
X36674500Y-34508000D03*
X36674500Y-34008000D03*
X36674500Y-33508000D03*
X36674500Y-33008000D03*
X36674500Y-32508000D03*
X36674500Y-32008000D03*
X36674500Y-31508000D03*
X36674500Y-31008000D03*
X36674500Y-30508000D03*
X36674500Y-30008000D03*
X36674500Y-29508000D03*
D57*
X35262000Y-28095500D03*
X34762000Y-28095500D03*
X34262000Y-28095500D03*
X33762000Y-28095500D03*
X33262000Y-28095500D03*
X32762000Y-28095500D03*
X32262000Y-28095500D03*
X31762000Y-28095500D03*
X31262000Y-28095500D03*
X30762000Y-28095500D03*
X30262000Y-28095500D03*
X29762000Y-28095500D03*
D56*
X28349500Y-29508000D03*
X28349500Y-30008000D03*
X28349500Y-30508000D03*
X28349500Y-31008000D03*
X28349500Y-31508000D03*
X28349500Y-32008000D03*
X28349500Y-32508000D03*
X28349500Y-33008000D03*
X28349500Y-33508000D03*
X28349500Y-34008000D03*
X28349500Y-34508000D03*
X28349500Y-35008000D03*
D57*
X29762000Y-36420500D03*
X30262000Y-36420500D03*
X30762000Y-36420500D03*
X31262000Y-36420500D03*
X31762000Y-36420500D03*
X32262000Y-36420500D03*
X32762000Y-36420500D03*
X33262000Y-36420500D03*
X33762000Y-36420500D03*
X34262000Y-36420500D03*
X34762000Y-36420500D03*
X35262000Y-36420500D03*
%TD*%
D11*
%TO.C,C101*%
X40132000Y-40627000D03*
X40132000Y-42177000D03*
%TD*%
D58*
%TO.C,F101*%
X15240000Y-44326000D03*
X15240000Y-41526000D03*
%TD*%
D59*
%TO.C,J105*%
X6207000Y-12605000D03*
D49*
X6207000Y-14605000D03*
X6207000Y-16605000D03*
X6207000Y-18605000D03*
%TD*%
D15*
%TO.C,C102*%
X26752104Y-25971800D03*
X26752104Y-24421800D03*
%TD*%
%TO.C,C108*%
X48197000Y-33413400D03*
X48197000Y-34963400D03*
%TD*%
M02*
