%TF.GenerationSoftware,KiCad,Pcbnew,7.0.5-0*%
%TF.CreationDate,2023-06-02T13:54:40-04:00*%
%TF.ProjectId,7-segment-display-controller,372d7365-676d-4656-9e74-2d646973706c,B*%
%TF.SameCoordinates,Original*%
%TF.FileFunction,Legend,Bot*%
%TF.FilePolarity,Positive*%
%FSLAX46Y46*%
G04 Gerber Fmt 4.6, Leading zero omitted, Abs format (unit mm)*
G04 Created by KiCad (PCBNEW 7.0.5-0) date 2023-06-02 13:54:40*
%MOMM*%
%LPD*%
G01*
G04 APERTURE LIST*
G04 Aperture macros list*
%AMRoundRect*
0 Rectangle with rounded corners*
0 $1 Rounding radius*
0 $2 $3 $4 $5 $6 $7 $8 $9 X,Y pos of 4 corners*
0 Add a 4 corners polygon primitive as box body*
4,1,4,$2,$3,$4,$5,$6,$7,$8,$9,$2,$3,0*
0 Add four circle primitives for the rounded corners*
1,1,$1+$1,$2,$3*
1,1,$1+$1,$4,$5*
1,1,$1+$1,$6,$7*
1,1,$1+$1,$8,$9*
0 Add four rect primitives between the rounded corners*
20,1,$1+$1,$2,$3,$4,$5,0*
20,1,$1+$1,$4,$5,$6,$7,0*
20,1,$1+$1,$6,$7,$8,$9,0*
20,1,$1+$1,$8,$9,$2,$3,0*%
G04 Aperture macros list end*
%ADD10C,0.153000*%
%ADD11C,0.800000*%
%ADD12C,6.400000*%
%ADD13R,1.700000X1.700000*%
%ADD14O,1.700000X1.700000*%
%ADD15O,1.200000X1.900000*%
%ADD16C,1.450000*%
%ADD17RoundRect,0.250000X0.350000X0.625000X-0.350000X0.625000X-0.350000X-0.625000X0.350000X-0.625000X0*%
%ADD18O,1.200000X1.750000*%
%ADD19C,0.991000*%
%ADD20RoundRect,0.250000X-0.725000X0.600000X-0.725000X-0.600000X0.725000X-0.600000X0.725000X0.600000X0*%
%ADD21O,1.950000X1.700000*%
%ADD22RoundRect,0.250000X0.625000X-0.350000X0.625000X0.350000X-0.625000X0.350000X-0.625000X-0.350000X0*%
%ADD23O,1.750000X1.200000*%
%ADD24RoundRect,0.250000X-0.600000X-0.750000X0.600000X-0.750000X0.600000X0.750000X-0.600000X0.750000X0*%
%ADD25O,1.700000X2.000000*%
%ADD26RoundRect,0.250000X-0.625000X0.350000X-0.625000X-0.350000X0.625000X-0.350000X0.625000X0.350000X0*%
G04 APERTURE END LIST*
D10*
X24157323Y-38854924D02*
X24157323Y-37754924D01*
X24157323Y-37754924D02*
X23757323Y-38854924D01*
X23757323Y-38854924D02*
X23757323Y-37754924D01*
X23023990Y-38854924D02*
X23257323Y-38331115D01*
X23423990Y-38854924D02*
X23423990Y-37754924D01*
X23423990Y-37754924D02*
X23157323Y-37754924D01*
X23157323Y-37754924D02*
X23090657Y-37807305D01*
X23090657Y-37807305D02*
X23057323Y-37859686D01*
X23057323Y-37859686D02*
X23023990Y-37964448D01*
X23023990Y-37964448D02*
X23023990Y-38121591D01*
X23023990Y-38121591D02*
X23057323Y-38226353D01*
X23057323Y-38226353D02*
X23090657Y-38278734D01*
X23090657Y-38278734D02*
X23157323Y-38331115D01*
X23157323Y-38331115D02*
X23423990Y-38331115D01*
X22757323Y-38802544D02*
X22657323Y-38854924D01*
X22657323Y-38854924D02*
X22490657Y-38854924D01*
X22490657Y-38854924D02*
X22423990Y-38802544D01*
X22423990Y-38802544D02*
X22390657Y-38750163D01*
X22390657Y-38750163D02*
X22357323Y-38645401D01*
X22357323Y-38645401D02*
X22357323Y-38540639D01*
X22357323Y-38540639D02*
X22390657Y-38435877D01*
X22390657Y-38435877D02*
X22423990Y-38383496D01*
X22423990Y-38383496D02*
X22490657Y-38331115D01*
X22490657Y-38331115D02*
X22623990Y-38278734D01*
X22623990Y-38278734D02*
X22690657Y-38226353D01*
X22690657Y-38226353D02*
X22723990Y-38173972D01*
X22723990Y-38173972D02*
X22757323Y-38069210D01*
X22757323Y-38069210D02*
X22757323Y-37964448D01*
X22757323Y-37964448D02*
X22723990Y-37859686D01*
X22723990Y-37859686D02*
X22690657Y-37807305D01*
X22690657Y-37807305D02*
X22623990Y-37754924D01*
X22623990Y-37754924D02*
X22457323Y-37754924D01*
X22457323Y-37754924D02*
X22357323Y-37807305D01*
X22157323Y-37754924D02*
X21757323Y-37754924D01*
X21957323Y-38854924D02*
X21957323Y-37754924D01*
X16662656Y-37405544D02*
X16562656Y-37457924D01*
X16562656Y-37457924D02*
X16395990Y-37457924D01*
X16395990Y-37457924D02*
X16329323Y-37405544D01*
X16329323Y-37405544D02*
X16295990Y-37353163D01*
X16295990Y-37353163D02*
X16262656Y-37248401D01*
X16262656Y-37248401D02*
X16262656Y-37143639D01*
X16262656Y-37143639D02*
X16295990Y-37038877D01*
X16295990Y-37038877D02*
X16329323Y-36986496D01*
X16329323Y-36986496D02*
X16395990Y-36934115D01*
X16395990Y-36934115D02*
X16529323Y-36881734D01*
X16529323Y-36881734D02*
X16595990Y-36829353D01*
X16595990Y-36829353D02*
X16629323Y-36776972D01*
X16629323Y-36776972D02*
X16662656Y-36672210D01*
X16662656Y-36672210D02*
X16662656Y-36567448D01*
X16662656Y-36567448D02*
X16629323Y-36462686D01*
X16629323Y-36462686D02*
X16595990Y-36410305D01*
X16595990Y-36410305D02*
X16529323Y-36357924D01*
X16529323Y-36357924D02*
X16362656Y-36357924D01*
X16362656Y-36357924D02*
X16262656Y-36410305D01*
X16029323Y-36357924D02*
X15862656Y-37457924D01*
X15862656Y-37457924D02*
X15729323Y-36672210D01*
X15729323Y-36672210D02*
X15595989Y-37457924D01*
X15595989Y-37457924D02*
X15429323Y-36357924D01*
X15029323Y-36357924D02*
X14895989Y-36357924D01*
X14895989Y-36357924D02*
X14829323Y-36410305D01*
X14829323Y-36410305D02*
X14762656Y-36515067D01*
X14762656Y-36515067D02*
X14729323Y-36724591D01*
X14729323Y-36724591D02*
X14729323Y-37091258D01*
X14729323Y-37091258D02*
X14762656Y-37300782D01*
X14762656Y-37300782D02*
X14829323Y-37405544D01*
X14829323Y-37405544D02*
X14895989Y-37457924D01*
X14895989Y-37457924D02*
X15029323Y-37457924D01*
X15029323Y-37457924D02*
X15095989Y-37405544D01*
X15095989Y-37405544D02*
X15162656Y-37300782D01*
X15162656Y-37300782D02*
X15195989Y-37091258D01*
X15195989Y-37091258D02*
X15195989Y-36724591D01*
X15195989Y-36724591D02*
X15162656Y-36515067D01*
X15162656Y-36515067D02*
X15095989Y-36410305D01*
X15095989Y-36410305D02*
X15029323Y-36357924D01*
X16662656Y-40453544D02*
X16562656Y-40505924D01*
X16562656Y-40505924D02*
X16395990Y-40505924D01*
X16395990Y-40505924D02*
X16329323Y-40453544D01*
X16329323Y-40453544D02*
X16295990Y-40401163D01*
X16295990Y-40401163D02*
X16262656Y-40296401D01*
X16262656Y-40296401D02*
X16262656Y-40191639D01*
X16262656Y-40191639D02*
X16295990Y-40086877D01*
X16295990Y-40086877D02*
X16329323Y-40034496D01*
X16329323Y-40034496D02*
X16395990Y-39982115D01*
X16395990Y-39982115D02*
X16529323Y-39929734D01*
X16529323Y-39929734D02*
X16595990Y-39877353D01*
X16595990Y-39877353D02*
X16629323Y-39824972D01*
X16629323Y-39824972D02*
X16662656Y-39720210D01*
X16662656Y-39720210D02*
X16662656Y-39615448D01*
X16662656Y-39615448D02*
X16629323Y-39510686D01*
X16629323Y-39510686D02*
X16595990Y-39458305D01*
X16595990Y-39458305D02*
X16529323Y-39405924D01*
X16529323Y-39405924D02*
X16362656Y-39405924D01*
X16362656Y-39405924D02*
X16262656Y-39458305D01*
X16029323Y-39405924D02*
X15862656Y-40505924D01*
X15862656Y-40505924D02*
X15729323Y-39720210D01*
X15729323Y-39720210D02*
X15595989Y-40505924D01*
X15595989Y-40505924D02*
X15429323Y-39405924D01*
X15162656Y-40505924D02*
X15162656Y-39405924D01*
X15162656Y-39405924D02*
X14995989Y-39405924D01*
X14995989Y-39405924D02*
X14895989Y-39458305D01*
X14895989Y-39458305D02*
X14829323Y-39563067D01*
X14829323Y-39563067D02*
X14795989Y-39667829D01*
X14795989Y-39667829D02*
X14762656Y-39877353D01*
X14762656Y-39877353D02*
X14762656Y-40034496D01*
X14762656Y-40034496D02*
X14795989Y-40244020D01*
X14795989Y-40244020D02*
X14829323Y-40348782D01*
X14829323Y-40348782D02*
X14895989Y-40453544D01*
X14895989Y-40453544D02*
X14995989Y-40505924D01*
X14995989Y-40505924D02*
X15162656Y-40505924D01*
X14462656Y-40505924D02*
X14462656Y-39405924D01*
X13995990Y-39405924D02*
X13862656Y-39405924D01*
X13862656Y-39405924D02*
X13795990Y-39458305D01*
X13795990Y-39458305D02*
X13729323Y-39563067D01*
X13729323Y-39563067D02*
X13695990Y-39772591D01*
X13695990Y-39772591D02*
X13695990Y-40139258D01*
X13695990Y-40139258D02*
X13729323Y-40348782D01*
X13729323Y-40348782D02*
X13795990Y-40453544D01*
X13795990Y-40453544D02*
X13862656Y-40505924D01*
X13862656Y-40505924D02*
X13995990Y-40505924D01*
X13995990Y-40505924D02*
X14062656Y-40453544D01*
X14062656Y-40453544D02*
X14129323Y-40348782D01*
X14129323Y-40348782D02*
X14162656Y-40139258D01*
X14162656Y-40139258D02*
X14162656Y-39772591D01*
X14162656Y-39772591D02*
X14129323Y-39563067D01*
X14129323Y-39563067D02*
X14062656Y-39458305D01*
X14062656Y-39458305D02*
X13995990Y-39405924D01*
X23290656Y-36283305D02*
X23357323Y-36230924D01*
X23357323Y-36230924D02*
X23457323Y-36230924D01*
X23457323Y-36230924D02*
X23557323Y-36283305D01*
X23557323Y-36283305D02*
X23623990Y-36388067D01*
X23623990Y-36388067D02*
X23657323Y-36492829D01*
X23657323Y-36492829D02*
X23690656Y-36702353D01*
X23690656Y-36702353D02*
X23690656Y-36859496D01*
X23690656Y-36859496D02*
X23657323Y-37069020D01*
X23657323Y-37069020D02*
X23623990Y-37173782D01*
X23623990Y-37173782D02*
X23557323Y-37278544D01*
X23557323Y-37278544D02*
X23457323Y-37330924D01*
X23457323Y-37330924D02*
X23390656Y-37330924D01*
X23390656Y-37330924D02*
X23290656Y-37278544D01*
X23290656Y-37278544D02*
X23257323Y-37226163D01*
X23257323Y-37226163D02*
X23257323Y-36859496D01*
X23257323Y-36859496D02*
X23390656Y-36859496D01*
X22957323Y-37330924D02*
X22957323Y-36230924D01*
X22957323Y-36230924D02*
X22557323Y-37330924D01*
X22557323Y-37330924D02*
X22557323Y-36230924D01*
X22223990Y-37330924D02*
X22223990Y-36230924D01*
X22223990Y-36230924D02*
X22057323Y-36230924D01*
X22057323Y-36230924D02*
X21957323Y-36283305D01*
X21957323Y-36283305D02*
X21890657Y-36388067D01*
X21890657Y-36388067D02*
X21857323Y-36492829D01*
X21857323Y-36492829D02*
X21823990Y-36702353D01*
X21823990Y-36702353D02*
X21823990Y-36859496D01*
X21823990Y-36859496D02*
X21857323Y-37069020D01*
X21857323Y-37069020D02*
X21890657Y-37173782D01*
X21890657Y-37173782D02*
X21957323Y-37278544D01*
X21957323Y-37278544D02*
X22057323Y-37330924D01*
X22057323Y-37330924D02*
X22223990Y-37330924D01*
X16662656Y-38929544D02*
X16562656Y-38981924D01*
X16562656Y-38981924D02*
X16395990Y-38981924D01*
X16395990Y-38981924D02*
X16329323Y-38929544D01*
X16329323Y-38929544D02*
X16295990Y-38877163D01*
X16295990Y-38877163D02*
X16262656Y-38772401D01*
X16262656Y-38772401D02*
X16262656Y-38667639D01*
X16262656Y-38667639D02*
X16295990Y-38562877D01*
X16295990Y-38562877D02*
X16329323Y-38510496D01*
X16329323Y-38510496D02*
X16395990Y-38458115D01*
X16395990Y-38458115D02*
X16529323Y-38405734D01*
X16529323Y-38405734D02*
X16595990Y-38353353D01*
X16595990Y-38353353D02*
X16629323Y-38300972D01*
X16629323Y-38300972D02*
X16662656Y-38196210D01*
X16662656Y-38196210D02*
X16662656Y-38091448D01*
X16662656Y-38091448D02*
X16629323Y-37986686D01*
X16629323Y-37986686D02*
X16595990Y-37934305D01*
X16595990Y-37934305D02*
X16529323Y-37881924D01*
X16529323Y-37881924D02*
X16362656Y-37881924D01*
X16362656Y-37881924D02*
X16262656Y-37934305D01*
X16029323Y-37881924D02*
X15862656Y-38981924D01*
X15862656Y-38981924D02*
X15729323Y-38196210D01*
X15729323Y-38196210D02*
X15595989Y-38981924D01*
X15595989Y-38981924D02*
X15429323Y-37881924D01*
X14762656Y-38877163D02*
X14795989Y-38929544D01*
X14795989Y-38929544D02*
X14895989Y-38981924D01*
X14895989Y-38981924D02*
X14962656Y-38981924D01*
X14962656Y-38981924D02*
X15062656Y-38929544D01*
X15062656Y-38929544D02*
X15129323Y-38824782D01*
X15129323Y-38824782D02*
X15162656Y-38720020D01*
X15162656Y-38720020D02*
X15195989Y-38510496D01*
X15195989Y-38510496D02*
X15195989Y-38353353D01*
X15195989Y-38353353D02*
X15162656Y-38143829D01*
X15162656Y-38143829D02*
X15129323Y-38039067D01*
X15129323Y-38039067D02*
X15062656Y-37934305D01*
X15062656Y-37934305D02*
X14962656Y-37881924D01*
X14962656Y-37881924D02*
X14895989Y-37881924D01*
X14895989Y-37881924D02*
X14795989Y-37934305D01*
X14795989Y-37934305D02*
X14762656Y-37986686D01*
X14129323Y-38981924D02*
X14462656Y-38981924D01*
X14462656Y-38981924D02*
X14462656Y-37881924D01*
X13895989Y-38981924D02*
X13895989Y-37881924D01*
X13495989Y-38981924D02*
X13795989Y-38353353D01*
X13495989Y-37881924D02*
X13895989Y-38510496D01*
X68744336Y-29141333D02*
X68030051Y-29141333D01*
X68030051Y-29141333D02*
X67887194Y-29174666D01*
X67887194Y-29174666D02*
X67791956Y-29241333D01*
X67791956Y-29241333D02*
X67744336Y-29341333D01*
X67744336Y-29341333D02*
X67744336Y-29408000D01*
X67744336Y-28474667D02*
X67744336Y-28808000D01*
X67744336Y-28808000D02*
X68744336Y-28808000D01*
X67839575Y-27841333D02*
X67791956Y-27874666D01*
X67791956Y-27874666D02*
X67744336Y-27974666D01*
X67744336Y-27974666D02*
X67744336Y-28041333D01*
X67744336Y-28041333D02*
X67791956Y-28141333D01*
X67791956Y-28141333D02*
X67887194Y-28208000D01*
X67887194Y-28208000D02*
X67982432Y-28241333D01*
X67982432Y-28241333D02*
X68172908Y-28274666D01*
X68172908Y-28274666D02*
X68315765Y-28274666D01*
X68315765Y-28274666D02*
X68506241Y-28241333D01*
X68506241Y-28241333D02*
X68601479Y-28208000D01*
X68601479Y-28208000D02*
X68696717Y-28141333D01*
X68696717Y-28141333D02*
X68744336Y-28041333D01*
X68744336Y-28041333D02*
X68744336Y-27974666D01*
X68744336Y-27974666D02*
X68696717Y-27874666D01*
X68696717Y-27874666D02*
X68649098Y-27841333D01*
X68744336Y-27341333D02*
X68030051Y-27341333D01*
X68030051Y-27341333D02*
X67887194Y-27374666D01*
X67887194Y-27374666D02*
X67791956Y-27441333D01*
X67791956Y-27441333D02*
X67744336Y-27541333D01*
X67744336Y-27541333D02*
X67744336Y-27608000D01*
X67744336Y-26674667D02*
X67744336Y-27008000D01*
X67744336Y-27008000D02*
X68744336Y-27008000D01*
X67839575Y-26041333D02*
X67791956Y-26074666D01*
X67791956Y-26074666D02*
X67744336Y-26174666D01*
X67744336Y-26174666D02*
X67744336Y-26241333D01*
X67744336Y-26241333D02*
X67791956Y-26341333D01*
X67791956Y-26341333D02*
X67887194Y-26408000D01*
X67887194Y-26408000D02*
X67982432Y-26441333D01*
X67982432Y-26441333D02*
X68172908Y-26474666D01*
X68172908Y-26474666D02*
X68315765Y-26474666D01*
X68315765Y-26474666D02*
X68506241Y-26441333D01*
X68506241Y-26441333D02*
X68601479Y-26408000D01*
X68601479Y-26408000D02*
X68696717Y-26341333D01*
X68696717Y-26341333D02*
X68744336Y-26241333D01*
X68744336Y-26241333D02*
X68744336Y-26174666D01*
X68744336Y-26174666D02*
X68696717Y-26074666D01*
X68696717Y-26074666D02*
X68649098Y-26041333D01*
X68744336Y-25541333D02*
X68030051Y-25541333D01*
X68030051Y-25541333D02*
X67887194Y-25574666D01*
X67887194Y-25574666D02*
X67791956Y-25641333D01*
X67791956Y-25641333D02*
X67744336Y-25741333D01*
X67744336Y-25741333D02*
X67744336Y-25808000D01*
X67744336Y-24874667D02*
X67744336Y-25208000D01*
X67744336Y-25208000D02*
X68744336Y-25208000D01*
X67839575Y-24241333D02*
X67791956Y-24274666D01*
X67791956Y-24274666D02*
X67744336Y-24374666D01*
X67744336Y-24374666D02*
X67744336Y-24441333D01*
X67744336Y-24441333D02*
X67791956Y-24541333D01*
X67791956Y-24541333D02*
X67887194Y-24608000D01*
X67887194Y-24608000D02*
X67982432Y-24641333D01*
X67982432Y-24641333D02*
X68172908Y-24674666D01*
X68172908Y-24674666D02*
X68315765Y-24674666D01*
X68315765Y-24674666D02*
X68506241Y-24641333D01*
X68506241Y-24641333D02*
X68601479Y-24608000D01*
X68601479Y-24608000D02*
X68696717Y-24541333D01*
X68696717Y-24541333D02*
X68744336Y-24441333D01*
X68744336Y-24441333D02*
X68744336Y-24374666D01*
X68744336Y-24374666D02*
X68696717Y-24274666D01*
X68696717Y-24274666D02*
X68649098Y-24241333D01*
X68744336Y-23741333D02*
X68030051Y-23741333D01*
X68030051Y-23741333D02*
X67887194Y-23774666D01*
X67887194Y-23774666D02*
X67791956Y-23841333D01*
X67791956Y-23841333D02*
X67744336Y-23941333D01*
X67744336Y-23941333D02*
X67744336Y-24008000D01*
X67744336Y-23074667D02*
X67744336Y-23408000D01*
X67744336Y-23408000D02*
X68744336Y-23408000D01*
X67839575Y-22441333D02*
X67791956Y-22474666D01*
X67791956Y-22474666D02*
X67744336Y-22574666D01*
X67744336Y-22574666D02*
X67744336Y-22641333D01*
X67744336Y-22641333D02*
X67791956Y-22741333D01*
X67791956Y-22741333D02*
X67887194Y-22808000D01*
X67887194Y-22808000D02*
X67982432Y-22841333D01*
X67982432Y-22841333D02*
X68172908Y-22874666D01*
X68172908Y-22874666D02*
X68315765Y-22874666D01*
X68315765Y-22874666D02*
X68506241Y-22841333D01*
X68506241Y-22841333D02*
X68601479Y-22808000D01*
X68601479Y-22808000D02*
X68696717Y-22741333D01*
X68696717Y-22741333D02*
X68744336Y-22641333D01*
X68744336Y-22641333D02*
X68744336Y-22574666D01*
X68744336Y-22574666D02*
X68696717Y-22474666D01*
X68696717Y-22474666D02*
X68649098Y-22441333D01*
X24323990Y-39659924D02*
X24090657Y-40759924D01*
X24090657Y-40759924D02*
X23857323Y-39659924D01*
X23390657Y-40183734D02*
X23290657Y-40236115D01*
X23290657Y-40236115D02*
X23257323Y-40288496D01*
X23257323Y-40288496D02*
X23223990Y-40393258D01*
X23223990Y-40393258D02*
X23223990Y-40550401D01*
X23223990Y-40550401D02*
X23257323Y-40655163D01*
X23257323Y-40655163D02*
X23290657Y-40707544D01*
X23290657Y-40707544D02*
X23357323Y-40759924D01*
X23357323Y-40759924D02*
X23623990Y-40759924D01*
X23623990Y-40759924D02*
X23623990Y-39659924D01*
X23623990Y-39659924D02*
X23390657Y-39659924D01*
X23390657Y-39659924D02*
X23323990Y-39712305D01*
X23323990Y-39712305D02*
X23290657Y-39764686D01*
X23290657Y-39764686D02*
X23257323Y-39869448D01*
X23257323Y-39869448D02*
X23257323Y-39974210D01*
X23257323Y-39974210D02*
X23290657Y-40078972D01*
X23290657Y-40078972D02*
X23323990Y-40131353D01*
X23323990Y-40131353D02*
X23390657Y-40183734D01*
X23390657Y-40183734D02*
X23623990Y-40183734D01*
X22923990Y-39659924D02*
X22923990Y-40550401D01*
X22923990Y-40550401D02*
X22890657Y-40655163D01*
X22890657Y-40655163D02*
X22857323Y-40707544D01*
X22857323Y-40707544D02*
X22790657Y-40759924D01*
X22790657Y-40759924D02*
X22657323Y-40759924D01*
X22657323Y-40759924D02*
X22590657Y-40707544D01*
X22590657Y-40707544D02*
X22557323Y-40655163D01*
X22557323Y-40655163D02*
X22523990Y-40550401D01*
X22523990Y-40550401D02*
X22523990Y-39659924D01*
X22223990Y-40707544D02*
X22123990Y-40759924D01*
X22123990Y-40759924D02*
X21957324Y-40759924D01*
X21957324Y-40759924D02*
X21890657Y-40707544D01*
X21890657Y-40707544D02*
X21857324Y-40655163D01*
X21857324Y-40655163D02*
X21823990Y-40550401D01*
X21823990Y-40550401D02*
X21823990Y-40445639D01*
X21823990Y-40445639D02*
X21857324Y-40340877D01*
X21857324Y-40340877D02*
X21890657Y-40288496D01*
X21890657Y-40288496D02*
X21957324Y-40236115D01*
X21957324Y-40236115D02*
X22090657Y-40183734D01*
X22090657Y-40183734D02*
X22157324Y-40131353D01*
X22157324Y-40131353D02*
X22190657Y-40078972D01*
X22190657Y-40078972D02*
X22223990Y-39974210D01*
X22223990Y-39974210D02*
X22223990Y-39869448D01*
X22223990Y-39869448D02*
X22190657Y-39764686D01*
X22190657Y-39764686D02*
X22157324Y-39712305D01*
X22157324Y-39712305D02*
X22090657Y-39659924D01*
X22090657Y-39659924D02*
X21923990Y-39659924D01*
X21923990Y-39659924D02*
X21823990Y-39712305D01*
%LPC*%
D11*
%TO.C,H104*%
X5207000Y-46368000D03*
X6904056Y-50465056D03*
X6904056Y-47070944D03*
X7607000Y-48768000D03*
D12*
X5207000Y-48768000D03*
D11*
X5207000Y-51168000D03*
X3509944Y-47070944D03*
X3509944Y-50465056D03*
X2807000Y-48768000D03*
%TD*%
%TO.C,H103*%
X5207000Y-2680000D03*
X6904056Y-6777056D03*
X6904056Y-3382944D03*
X7607000Y-5080000D03*
D12*
X5207000Y-5080000D03*
D11*
X5207000Y-7480000D03*
X3509944Y-3382944D03*
X3509944Y-6777056D03*
X2807000Y-5080000D03*
%TD*%
%TO.C,H102*%
X65913000Y-46368000D03*
X67610056Y-50465056D03*
X67610056Y-47070944D03*
X68313000Y-48768000D03*
D12*
X65913000Y-48768000D03*
D11*
X65913000Y-51168000D03*
X64215944Y-47070944D03*
X64215944Y-50465056D03*
X63513000Y-48768000D03*
%TD*%
%TO.C,H101*%
X65913000Y-2680000D03*
X67610056Y-6777056D03*
X67610056Y-3382944D03*
X68313000Y-5080000D03*
D12*
X65913000Y-5080000D03*
D11*
X65913000Y-7480000D03*
X64215944Y-3382944D03*
X64215944Y-6777056D03*
X63513000Y-5080000D03*
%TD*%
D13*
%TO.C,OLED101*%
X13388000Y-11079000D03*
D14*
X13388000Y-8539000D03*
X13388000Y-5999000D03*
X13388000Y-3459000D03*
%TD*%
D15*
%TO.C,J102*%
X19690200Y-52494700D03*
D16*
X20690200Y-49794700D03*
X25690200Y-49794700D03*
D15*
X26690200Y-52494700D03*
%TD*%
D17*
%TO.C,J106*%
X57658000Y-6731000D03*
D18*
X55658000Y-6731000D03*
X53658000Y-6731000D03*
%TD*%
D19*
%TO.C,J101*%
X19329400Y-41097200D03*
X18314400Y-36017200D03*
X20344400Y-36017200D03*
%TD*%
D20*
%TO.C,J104*%
X6731000Y-24297000D03*
D21*
X6731000Y-26797000D03*
X6731000Y-29297000D03*
%TD*%
D22*
%TO.C,J103*%
X64516000Y-26035000D03*
D23*
X64516000Y-24035000D03*
X64516000Y-22035000D03*
X64516000Y-20035000D03*
%TD*%
D24*
%TO.C,J107*%
X50947000Y-47481000D03*
D25*
X53447000Y-47481000D03*
%TD*%
D26*
%TO.C,J105*%
X6207000Y-12605000D03*
D23*
X6207000Y-14605000D03*
X6207000Y-16605000D03*
X6207000Y-18605000D03*
%TD*%
%LPD*%
M02*
