%TF.GenerationSoftware,KiCad,Pcbnew,7.0.2-0*%
%TF.CreationDate,2023-05-23T14:33:50-04:00*%
%TF.ProjectId,7-segment-display-controller,372d7365-676d-4656-9e74-2d646973706c,A*%
%TF.SameCoordinates,Original*%
%TF.FileFunction,Copper,L2,Inr*%
%TF.FilePolarity,Positive*%
%FSLAX46Y46*%
G04 Gerber Fmt 4.6, Leading zero omitted, Abs format (unit mm)*
G04 Created by KiCad (PCBNEW 7.0.2-0) date 2023-05-23 14:33:50*
%MOMM*%
%LPD*%
G01*
G04 APERTURE LIST*
G04 Aperture macros list*
%AMRoundRect*
0 Rectangle with rounded corners*
0 $1 Rounding radius*
0 $2 $3 $4 $5 $6 $7 $8 $9 X,Y pos of 4 corners*
0 Add a 4 corners polygon primitive as box body*
4,1,4,$2,$3,$4,$5,$6,$7,$8,$9,$2,$3,0*
0 Add four circle primitives for the rounded corners*
1,1,$1+$1,$2,$3*
1,1,$1+$1,$4,$5*
1,1,$1+$1,$6,$7*
1,1,$1+$1,$8,$9*
0 Add four rect primitives between the rounded corners*
20,1,$1+$1,$2,$3,$4,$5,0*
20,1,$1+$1,$4,$5,$6,$7,0*
20,1,$1+$1,$6,$7,$8,$9,0*
20,1,$1+$1,$8,$9,$2,$3,0*%
G04 Aperture macros list end*
%TA.AperFunction,ComponentPad*%
%ADD10RoundRect,0.250000X-0.600000X-0.750000X0.600000X-0.750000X0.600000X0.750000X-0.600000X0.750000X0*%
%TD*%
%TA.AperFunction,ComponentPad*%
%ADD11O,1.700000X2.000000*%
%TD*%
%TA.AperFunction,ComponentPad*%
%ADD12O,1.700000X1.700000*%
%TD*%
%TA.AperFunction,ComponentPad*%
%ADD13R,1.700000X1.700000*%
%TD*%
%TA.AperFunction,ComponentPad*%
%ADD14RoundRect,0.250000X0.350000X0.625000X-0.350000X0.625000X-0.350000X-0.625000X0.350000X-0.625000X0*%
%TD*%
%TA.AperFunction,ComponentPad*%
%ADD15O,1.200000X1.750000*%
%TD*%
%TA.AperFunction,ComponentPad*%
%ADD16C,0.900000*%
%TD*%
%TA.AperFunction,ComponentPad*%
%ADD17C,8.600000*%
%TD*%
%TA.AperFunction,ComponentPad*%
%ADD18O,1.200000X1.900000*%
%TD*%
%TA.AperFunction,ComponentPad*%
%ADD19C,1.450000*%
%TD*%
%TA.AperFunction,ComponentPad*%
%ADD20O,1.950000X1.700000*%
%TD*%
%TA.AperFunction,ComponentPad*%
%ADD21RoundRect,0.250000X-0.725000X0.600000X-0.725000X-0.600000X0.725000X-0.600000X0.725000X0.600000X0*%
%TD*%
%TA.AperFunction,ComponentPad*%
%ADD22C,1.500000*%
%TD*%
%TA.AperFunction,ComponentPad*%
%ADD23O,1.750000X1.200000*%
%TD*%
%TA.AperFunction,ComponentPad*%
%ADD24RoundRect,0.250000X0.625000X-0.350000X0.625000X0.350000X-0.625000X0.350000X-0.625000X-0.350000X0*%
%TD*%
%TA.AperFunction,ComponentPad*%
%ADD25RoundRect,0.250000X-0.625000X0.350000X-0.625000X-0.350000X0.625000X-0.350000X0.625000X0.350000X0*%
%TD*%
%TA.AperFunction,ViaPad*%
%ADD26C,0.800000*%
%TD*%
G04 APERTURE END LIST*
D10*
%TO.N,GND*%
%TO.C,J107*%
X50947000Y-47481000D03*
D11*
%TO.N,VBUS*%
X53447000Y-47481000D03*
%TD*%
D12*
%TO.N,/SDA*%
%TO.C,OLED101*%
X13388000Y-3459000D03*
%TO.N,/SCL*%
X13388000Y-5999000D03*
%TO.N,+3V3*%
X13388000Y-8539000D03*
D13*
%TO.N,GND*%
X13388000Y-11079000D03*
%TD*%
D14*
%TO.N,+3V3*%
%TO.C,J106*%
X57658000Y-6731000D03*
D15*
%TO.N,/IR_RECV*%
X55658000Y-6731000D03*
%TO.N,GND*%
X53658000Y-6731000D03*
%TD*%
D16*
%TO.N,GND*%
%TO.C,H104*%
X8432000Y-48768000D03*
X5207000Y-45543000D03*
X2926581Y-46487581D03*
X1982000Y-48768000D03*
X7487419Y-51048419D03*
X7487419Y-46487581D03*
X2926581Y-51048419D03*
X5207000Y-51993000D03*
D17*
X5207000Y-48768000D03*
%TD*%
D16*
%TO.N,GND*%
%TO.C,H103*%
X8432000Y-5080000D03*
X5207000Y-1855000D03*
X2926581Y-2799581D03*
X1982000Y-5080000D03*
X7487419Y-7360419D03*
X7487419Y-2799581D03*
X2926581Y-7360419D03*
X5207000Y-8305000D03*
D17*
X5207000Y-5080000D03*
%TD*%
D16*
%TO.N,GND*%
%TO.C,H102*%
X69138000Y-48768000D03*
X65913000Y-45543000D03*
X63632581Y-46487581D03*
X62688000Y-48768000D03*
X68193419Y-51048419D03*
X68193419Y-46487581D03*
X63632581Y-51048419D03*
X65913000Y-51993000D03*
D17*
X65913000Y-48768000D03*
%TD*%
D16*
%TO.N,GND*%
%TO.C,H101*%
X69138000Y-5080000D03*
X65913000Y-1855000D03*
X63632581Y-2799581D03*
X62688000Y-5080000D03*
X68193419Y-7360419D03*
X68193419Y-2799581D03*
X63632581Y-7360419D03*
X65913000Y-8305000D03*
D17*
X65913000Y-5080000D03*
%TD*%
D18*
%TO.N,GND*%
%TO.C,J102*%
X26690200Y-52494700D03*
D19*
X25690200Y-49794700D03*
X20690200Y-49794700D03*
D18*
X19690200Y-52494700D03*
%TD*%
D20*
%TO.N,+5V*%
%TO.C,J104*%
X6731000Y-29297000D03*
%TO.N,Net-(J104-Pin_2)*%
X6731000Y-26797000D03*
D21*
%TO.N,GND*%
X6731000Y-24297000D03*
%TD*%
D22*
%TO.N,*%
%TO.C,BT101*%
X63290000Y-36322000D03*
X55790000Y-36322000D03*
%TD*%
D23*
%TO.N,GND*%
%TO.C,J103*%
X64516000Y-20035000D03*
%TO.N,/UART_RX*%
X64516000Y-22035000D03*
%TO.N,/UART_TX*%
X64516000Y-24035000D03*
D24*
%TO.N,VBUS*%
X64516000Y-26035000D03*
%TD*%
D25*
%TO.N,+3V3*%
%TO.C,J105*%
X6207000Y-12605000D03*
D23*
%TO.N,/SCL*%
X6207000Y-14605000D03*
%TO.N,/SDA*%
X6207000Y-16605000D03*
%TO.N,GND*%
X6207000Y-18605000D03*
%TD*%
D26*
%TO.N,VBUS*%
X18415000Y-45974000D03*
X16891000Y-45974000D03*
X15367000Y-45974000D03*
%TO.N,GND*%
X59182000Y-15621000D03*
%TO.N,/NRST*%
X59182000Y-11811000D03*
%TO.N,GND*%
X24511000Y-48499900D03*
X18669000Y-21717000D03*
X30149800Y-34508000D03*
X58801000Y-24511000D03*
X34874200Y-31496000D03*
X35737800Y-39560800D03*
X29718000Y-25273000D03*
X10033000Y-34163000D03*
X28067000Y-38227000D03*
X27355800Y-44043600D03*
X25628600Y-24434800D03*
X40309800Y-46304000D03*
X22352000Y-29337000D03*
X21209000Y-37312600D03*
X34192699Y-38307499D03*
X44831000Y-31292800D03*
X43967400Y-29032200D03*
X67741800Y-38811200D03*
X38481000Y-42291000D03*
X9779000Y-38100000D03*
X58801000Y-19964400D03*
X43764200Y-35204400D03*
X2971800Y-43129200D03*
X43967400Y-27342500D03*
X1701800Y-43129200D03*
X58808200Y-22156000D03*
X25146000Y-44323000D03*
X19050000Y-18161000D03*
%TO.N,+3V3*%
X38608000Y-28194000D03*
X40386000Y-38481000D03*
X6477000Y-33020000D03*
X35426122Y-38044557D03*
X24053800Y-39319200D03*
X26352500Y-35369500D03*
X52552600Y-18389600D03*
X25628600Y-25971800D03*
X24511000Y-26924000D03*
X2413000Y-33020000D03*
X4445000Y-33020000D03*
X33401000Y-50342800D03*
%TO.N,/NRST*%
X33832800Y-32867600D03*
X25019000Y-42557100D03*
X21209000Y-38557200D03*
%TO.N,/SWO*%
X17297400Y-37287200D03*
X28371800Y-42722800D03*
%TO.N,/SWCLK*%
X27294600Y-39674800D03*
X17361500Y-38608000D03*
%TO.N,/SWDIO*%
X25994600Y-39725600D03*
X17246600Y-39827200D03*
%TO.N,VBUS*%
X17783000Y-44326000D03*
%TO.N,/UART_TX*%
X38176200Y-29508000D03*
%TO.N,/UART_RX*%
X35627800Y-26483800D03*
%TO.N,/RGB_LED*%
X19050000Y-19177000D03*
X32131000Y-30480000D03*
%TO.N,/SCL*%
X26035000Y-30988000D03*
%TO.N,/SDA*%
X24511000Y-30988000D03*
%TD*%
%TA.AperFunction,Conductor*%
%TO.N,GND*%
G36*
X3632031Y-50238918D02*
G01*
X3846990Y-50439676D01*
X3871544Y-50457008D01*
X3221927Y-51106625D01*
X3230476Y-51076579D01*
X3220127Y-50964898D01*
X3170133Y-50864497D01*
X3087247Y-50788935D01*
X2982661Y-50748419D01*
X2898779Y-50748419D01*
X2867105Y-50754339D01*
X3520103Y-50101341D01*
X3632031Y-50238918D01*
G37*
%TD.AperFunction*%
%TA.AperFunction,Conductor*%
G36*
X7540973Y-50748419D02*
G01*
X7459617Y-50748419D01*
X7377169Y-50763831D01*
X7281809Y-50822876D01*
X7214218Y-50912381D01*
X7183524Y-51020259D01*
X7191471Y-51106025D01*
X6542455Y-50457008D01*
X6567010Y-50439676D01*
X6781969Y-50238918D01*
X6893895Y-50101342D01*
X7540973Y-50748419D01*
G37*
%TD.AperFunction*%
%TA.AperFunction,Conductor*%
G36*
X3871545Y-47078991D02*
G01*
X3846990Y-47096324D01*
X3632031Y-47297082D01*
X3520104Y-47434657D01*
X2873027Y-46787581D01*
X2954383Y-46787581D01*
X3036831Y-46772169D01*
X3132191Y-46713124D01*
X3199782Y-46623619D01*
X3230476Y-46515741D01*
X3222528Y-46429974D01*
X3871545Y-47078991D01*
G37*
%TD.AperFunction*%
%TA.AperFunction,Conductor*%
G36*
X7183524Y-46459421D02*
G01*
X7193873Y-46571102D01*
X7243867Y-46671503D01*
X7326753Y-46747065D01*
X7431339Y-46787581D01*
X7515221Y-46787581D01*
X7546890Y-46781661D01*
X6893894Y-47434656D01*
X6781969Y-47297082D01*
X6567010Y-47096324D01*
X6542453Y-47078990D01*
X7192074Y-46429369D01*
X7183524Y-46459421D01*
G37*
%TD.AperFunction*%
%TA.AperFunction,Conductor*%
G36*
X64338031Y-50238918D02*
G01*
X64552990Y-50439676D01*
X64577544Y-50457008D01*
X63927927Y-51106625D01*
X63936476Y-51076579D01*
X63926127Y-50964898D01*
X63876133Y-50864497D01*
X63793247Y-50788935D01*
X63688661Y-50748419D01*
X63604779Y-50748419D01*
X63573105Y-50754339D01*
X64226103Y-50101341D01*
X64338031Y-50238918D01*
G37*
%TD.AperFunction*%
%TA.AperFunction,Conductor*%
G36*
X68246973Y-50748419D02*
G01*
X68165617Y-50748419D01*
X68083169Y-50763831D01*
X67987809Y-50822876D01*
X67920218Y-50912381D01*
X67889524Y-51020259D01*
X67897471Y-51106025D01*
X67248455Y-50457008D01*
X67273010Y-50439676D01*
X67487969Y-50238918D01*
X67599895Y-50101342D01*
X68246973Y-50748419D01*
G37*
%TD.AperFunction*%
%TA.AperFunction,Conductor*%
G36*
X64577545Y-47078991D02*
G01*
X64552990Y-47096324D01*
X64338031Y-47297082D01*
X64226104Y-47434657D01*
X63579027Y-46787581D01*
X63660383Y-46787581D01*
X63742831Y-46772169D01*
X63838191Y-46713124D01*
X63905782Y-46623619D01*
X63936476Y-46515741D01*
X63928528Y-46429974D01*
X64577545Y-47078991D01*
G37*
%TD.AperFunction*%
%TA.AperFunction,Conductor*%
G36*
X67889524Y-46459421D02*
G01*
X67899873Y-46571102D01*
X67949867Y-46671503D01*
X68032753Y-46747065D01*
X68137339Y-46787581D01*
X68221221Y-46787581D01*
X68252890Y-46781661D01*
X67599894Y-47434656D01*
X67487969Y-47297082D01*
X67273010Y-47096324D01*
X67248453Y-47078990D01*
X67898074Y-46429369D01*
X67889524Y-46459421D01*
G37*
%TD.AperFunction*%
%TA.AperFunction,Conductor*%
G36*
X4519533Y-108185D02*
G01*
X4565288Y-160989D01*
X4575232Y-230147D01*
X4546207Y-293703D01*
X4487429Y-331477D01*
X4474635Y-334507D01*
X4140567Y-395130D01*
X4135133Y-396371D01*
X3724910Y-509586D01*
X3719612Y-511307D01*
X3321192Y-660836D01*
X3316065Y-663028D01*
X2932634Y-847678D01*
X2927763Y-850299D01*
X2562412Y-1068587D01*
X2557775Y-1071648D01*
X2213482Y-1321791D01*
X2209140Y-1325254D01*
X1993877Y-1513322D01*
X1993877Y-1513323D01*
X2980135Y-2499581D01*
X2898779Y-2499581D01*
X2816331Y-2514993D01*
X2720971Y-2574038D01*
X2653380Y-2663543D01*
X2622686Y-2771421D01*
X2630633Y-2857187D01*
X1639223Y-1865777D01*
X1590543Y-1916692D01*
X1586874Y-1920891D01*
X1321540Y-2253608D01*
X1318267Y-2258114D01*
X1083827Y-2613277D01*
X1080975Y-2618050D01*
X879310Y-2992806D01*
X876893Y-2997827D01*
X709644Y-3389123D01*
X707678Y-3394362D01*
X576173Y-3799094D01*
X574697Y-3804442D01*
X479998Y-4219345D01*
X479004Y-4224822D01*
X421877Y-4646547D01*
X421380Y-4652075D01*
X402287Y-5077216D01*
X402287Y-5082783D01*
X421380Y-5507924D01*
X421877Y-5513452D01*
X479004Y-5935177D01*
X479998Y-5940654D01*
X574697Y-6355557D01*
X576173Y-6360905D01*
X707678Y-6765637D01*
X709644Y-6770876D01*
X876893Y-7162172D01*
X879310Y-7167193D01*
X1080975Y-7541949D01*
X1083827Y-7546722D01*
X1318267Y-7901885D01*
X1321540Y-7906391D01*
X1586879Y-8239114D01*
X1590543Y-8243308D01*
X1639223Y-8294222D01*
X2631235Y-7302209D01*
X2622686Y-7332259D01*
X2633035Y-7443940D01*
X2683029Y-7544341D01*
X2765915Y-7619903D01*
X2870501Y-7660419D01*
X2954383Y-7660419D01*
X2986053Y-7654498D01*
X1993877Y-8646675D01*
X2209140Y-8834745D01*
X2213482Y-8838208D01*
X2557775Y-9088351D01*
X2562412Y-9091412D01*
X2927763Y-9309700D01*
X2932634Y-9312321D01*
X3316065Y-9496971D01*
X3321192Y-9499163D01*
X3719612Y-9648692D01*
X3724910Y-9650413D01*
X4135133Y-9763628D01*
X4140568Y-9764869D01*
X4559290Y-9840855D01*
X4564800Y-9841602D01*
X4988668Y-9879751D01*
X4994209Y-9880000D01*
X5419791Y-9880000D01*
X5425331Y-9879751D01*
X5849199Y-9841602D01*
X5854709Y-9840855D01*
X6273431Y-9764869D01*
X6278866Y-9763628D01*
X6689089Y-9650413D01*
X6694387Y-9648692D01*
X7092807Y-9499163D01*
X7097934Y-9496971D01*
X7481365Y-9312321D01*
X7486236Y-9309700D01*
X7851587Y-9091412D01*
X7856224Y-9088351D01*
X8200505Y-8838216D01*
X8204877Y-8834730D01*
X8420121Y-8646676D01*
X8420121Y-8646675D01*
X8312445Y-8538999D01*
X12032340Y-8538999D01*
X12052936Y-8774407D01*
X12070034Y-8838216D01*
X12114097Y-9002663D01*
X12213965Y-9216830D01*
X12349505Y-9410401D01*
X12349508Y-9410404D01*
X12471818Y-9532714D01*
X12505303Y-9594037D01*
X12500319Y-9663729D01*
X12458447Y-9719662D01*
X12427472Y-9736576D01*
X12295913Y-9785646D01*
X12180811Y-9871811D01*
X12094647Y-9986910D01*
X12044400Y-10121628D01*
X12038354Y-10177867D01*
X12038000Y-10184481D01*
X12038000Y-10829000D01*
X12954314Y-10829000D01*
X12928507Y-10869156D01*
X12888000Y-11007111D01*
X12888000Y-11150889D01*
X12928507Y-11288844D01*
X12954314Y-11329000D01*
X12038000Y-11329000D01*
X12038000Y-11973518D01*
X12038354Y-11980132D01*
X12044400Y-12036371D01*
X12094647Y-12171089D01*
X12180811Y-12286188D01*
X12295910Y-12372352D01*
X12430628Y-12422599D01*
X12486867Y-12428645D01*
X12493482Y-12429000D01*
X13138000Y-12429000D01*
X13138000Y-11514501D01*
X13245685Y-11563680D01*
X13352237Y-11579000D01*
X13423763Y-11579000D01*
X13530315Y-11563680D01*
X13638000Y-11514501D01*
X13638000Y-12429000D01*
X14282518Y-12429000D01*
X14289132Y-12428645D01*
X14345371Y-12422599D01*
X14480089Y-12372352D01*
X14595188Y-12286188D01*
X14681352Y-12171089D01*
X14731599Y-12036371D01*
X14737645Y-11980132D01*
X14738000Y-11973518D01*
X14738000Y-11811000D01*
X58276540Y-11811000D01*
X58296326Y-11999257D01*
X58354820Y-12179284D01*
X58449466Y-12343216D01*
X58576129Y-12483889D01*
X58729269Y-12595151D01*
X58902197Y-12672144D01*
X59087352Y-12711500D01*
X59087354Y-12711500D01*
X59276648Y-12711500D01*
X59400083Y-12685262D01*
X59461803Y-12672144D01*
X59634730Y-12595151D01*
X59787871Y-12483888D01*
X59914533Y-12343216D01*
X60009179Y-12179284D01*
X60067674Y-11999256D01*
X60087460Y-11811000D01*
X60067674Y-11622744D01*
X60009179Y-11442716D01*
X60009179Y-11442715D01*
X59914533Y-11278783D01*
X59787870Y-11138110D01*
X59634730Y-11026848D01*
X59461802Y-10949855D01*
X59276648Y-10910500D01*
X59276646Y-10910500D01*
X59087354Y-10910500D01*
X59087352Y-10910500D01*
X58902197Y-10949855D01*
X58729269Y-11026848D01*
X58576129Y-11138110D01*
X58449466Y-11278783D01*
X58354820Y-11442715D01*
X58296326Y-11622742D01*
X58276540Y-11811000D01*
X14738000Y-11811000D01*
X14738000Y-11329000D01*
X13821686Y-11329000D01*
X13847493Y-11288844D01*
X13888000Y-11150889D01*
X13888000Y-11007111D01*
X13847493Y-10869156D01*
X13821686Y-10829000D01*
X14738000Y-10829000D01*
X14738000Y-10184481D01*
X14737645Y-10177867D01*
X14731599Y-10121628D01*
X14681352Y-9986910D01*
X14595188Y-9871811D01*
X14480088Y-9785647D01*
X14348528Y-9736577D01*
X14292594Y-9694705D01*
X14268178Y-9629240D01*
X14283030Y-9560967D01*
X14304175Y-9532720D01*
X14426495Y-9410401D01*
X14562035Y-9216830D01*
X14661903Y-9002663D01*
X14723063Y-8774408D01*
X14743659Y-8539000D01*
X14730493Y-8388521D01*
X14723063Y-8303592D01*
X14706910Y-8243308D01*
X14661903Y-8075337D01*
X14562035Y-7861171D01*
X14426495Y-7667599D01*
X14259401Y-7500505D01*
X14073839Y-7370573D01*
X14030215Y-7315997D01*
X14023023Y-7246498D01*
X14054545Y-7184144D01*
X14073831Y-7167432D01*
X14233759Y-7055450D01*
X52558000Y-7055450D01*
X52558281Y-7061359D01*
X52572964Y-7215120D01*
X52632149Y-7416687D01*
X52728412Y-7603412D01*
X52858269Y-7768538D01*
X53017036Y-7906111D01*
X53198963Y-8011146D01*
X53397485Y-8079855D01*
X53408000Y-8081366D01*
X53408000Y-7011617D01*
X53477052Y-7065363D01*
X53595424Y-7106000D01*
X53689073Y-7106000D01*
X53781446Y-7090586D01*
X53891514Y-7031019D01*
X53908000Y-7013110D01*
X53908000Y-8077257D01*
X54019410Y-8050229D01*
X54210505Y-7962960D01*
X54381621Y-7841107D01*
X54526591Y-7689068D01*
X54553214Y-7647642D01*
X54606018Y-7601887D01*
X54675176Y-7591943D01*
X54738732Y-7620968D01*
X54755000Y-7638029D01*
X54857906Y-7768884D01*
X55016745Y-7906520D01*
X55198754Y-8011603D01*
X55198756Y-8011604D01*
X55283150Y-8040813D01*
X55397366Y-8080344D01*
X55432298Y-8085366D01*
X55605398Y-8110254D01*
X55815330Y-8100254D01*
X56019576Y-8050704D01*
X56106196Y-8011146D01*
X56210752Y-7963397D01*
X56290624Y-7906520D01*
X56381952Y-7841486D01*
X56479749Y-7738918D01*
X56540258Y-7703982D01*
X56610049Y-7707307D01*
X56666963Y-7747835D01*
X56675032Y-7759391D01*
X56715288Y-7824657D01*
X56839342Y-7948711D01*
X56863152Y-7963397D01*
X56988666Y-8040814D01*
X57100017Y-8077712D01*
X57155202Y-8095999D01*
X57254858Y-8106180D01*
X57254859Y-8106180D01*
X57257991Y-8106500D01*
X58058008Y-8106499D01*
X58160797Y-8095999D01*
X58327334Y-8040814D01*
X58476656Y-7948712D01*
X58600712Y-7824656D01*
X58692814Y-7675334D01*
X58747999Y-7508797D01*
X58758500Y-7406009D01*
X58758499Y-6055992D01*
X58747999Y-5953203D01*
X58692814Y-5786666D01*
X58600712Y-5637344D01*
X58600711Y-5637342D01*
X58476657Y-5513288D01*
X58327334Y-5421186D01*
X58160797Y-5366000D01*
X58061141Y-5355819D01*
X58061122Y-5355818D01*
X58058009Y-5355500D01*
X58054860Y-5355500D01*
X57261141Y-5355500D01*
X57261121Y-5355500D01*
X57257992Y-5355501D01*
X57254860Y-5355820D01*
X57254858Y-5355821D01*
X57155203Y-5366000D01*
X56988665Y-5421186D01*
X56839342Y-5513288D01*
X56715289Y-5637341D01*
X56676185Y-5700740D01*
X56624237Y-5747464D01*
X56555274Y-5758687D01*
X56491192Y-5730843D01*
X56473175Y-5712294D01*
X56458092Y-5693114D01*
X56299254Y-5555479D01*
X56117245Y-5450396D01*
X55918633Y-5381655D01*
X55710603Y-5351746D01*
X55710602Y-5351746D01*
X55631794Y-5355500D01*
X55500669Y-5361746D01*
X55296419Y-5411297D01*
X55105247Y-5498602D01*
X54934050Y-5620512D01*
X54789012Y-5772623D01*
X54762172Y-5814388D01*
X54709367Y-5860143D01*
X54640209Y-5870086D01*
X54576653Y-5841060D01*
X54560386Y-5824000D01*
X54457727Y-5693459D01*
X54298963Y-5555888D01*
X54117036Y-5450853D01*
X53918511Y-5382143D01*
X53908000Y-5380631D01*
X53908000Y-6450382D01*
X53838948Y-6396637D01*
X53720576Y-6356000D01*
X53626927Y-6356000D01*
X53534554Y-6371414D01*
X53424486Y-6430981D01*
X53407999Y-6448890D01*
X53407999Y-5384741D01*
X53407998Y-5384740D01*
X53296593Y-5411768D01*
X53105494Y-5499039D01*
X52934378Y-5620892D01*
X52789407Y-5772933D01*
X52675833Y-5949655D01*
X52597755Y-6144685D01*
X52558000Y-6350962D01*
X52558000Y-6481000D01*
X53378440Y-6481000D01*
X53339722Y-6523059D01*
X53289449Y-6637670D01*
X53279114Y-6762395D01*
X53309837Y-6883719D01*
X53373394Y-6981000D01*
X52558000Y-6981000D01*
X52558000Y-7055450D01*
X14233759Y-7055450D01*
X14259401Y-7037495D01*
X14426495Y-6870401D01*
X14562035Y-6676830D01*
X14661903Y-6462663D01*
X14723063Y-6234408D01*
X14743659Y-5999000D01*
X14723063Y-5763592D01*
X14661903Y-5535337D01*
X14562035Y-5321171D01*
X14426495Y-5127599D01*
X14259401Y-4960505D01*
X14073839Y-4830573D01*
X14030217Y-4775998D01*
X14023024Y-4706499D01*
X14054546Y-4644145D01*
X14073837Y-4627428D01*
X14259401Y-4497495D01*
X14426495Y-4330401D01*
X14562035Y-4136830D01*
X14661903Y-3922663D01*
X14723063Y-3694408D01*
X14743659Y-3459000D01*
X14723063Y-3223592D01*
X14661903Y-2995337D01*
X14562035Y-2781171D01*
X14426495Y-2587599D01*
X14259401Y-2420505D01*
X14065830Y-2284965D01*
X13851663Y-2185097D01*
X13790502Y-2168709D01*
X13623407Y-2123936D01*
X13387999Y-2103340D01*
X13152592Y-2123936D01*
X12924336Y-2185097D01*
X12710170Y-2284965D01*
X12516598Y-2420505D01*
X12349505Y-2587598D01*
X12213965Y-2781170D01*
X12114097Y-2995336D01*
X12052936Y-3223592D01*
X12032340Y-3459000D01*
X12052936Y-3694407D01*
X12080987Y-3799094D01*
X12114097Y-3922663D01*
X12213965Y-4136830D01*
X12349505Y-4330401D01*
X12516599Y-4497495D01*
X12702160Y-4627426D01*
X12745783Y-4682002D01*
X12752976Y-4751501D01*
X12721454Y-4813855D01*
X12702159Y-4830575D01*
X12516595Y-4960508D01*
X12349505Y-5127598D01*
X12213965Y-5321170D01*
X12114097Y-5535336D01*
X12052936Y-5763592D01*
X12032340Y-5998999D01*
X12052936Y-6234407D01*
X12084167Y-6350962D01*
X12114097Y-6462663D01*
X12213965Y-6676830D01*
X12349505Y-6870401D01*
X12516599Y-7037495D01*
X12702160Y-7167426D01*
X12745783Y-7222002D01*
X12752976Y-7291501D01*
X12721454Y-7353855D01*
X12702159Y-7370575D01*
X12516595Y-7500508D01*
X12349505Y-7667598D01*
X12213965Y-7861170D01*
X12114097Y-8075336D01*
X12052936Y-8303592D01*
X12032340Y-8538999D01*
X8312445Y-8538999D01*
X7433865Y-7660419D01*
X7515221Y-7660419D01*
X7597669Y-7645007D01*
X7693029Y-7585962D01*
X7760620Y-7496457D01*
X7791314Y-7388579D01*
X7783366Y-7302812D01*
X8774775Y-8294221D01*
X8823467Y-8243295D01*
X8827119Y-8239115D01*
X9092459Y-7906391D01*
X9095732Y-7901885D01*
X9330172Y-7546722D01*
X9333024Y-7541949D01*
X9534689Y-7167193D01*
X9537106Y-7162172D01*
X9704355Y-6770876D01*
X9706321Y-6765637D01*
X9837826Y-6360905D01*
X9839302Y-6355557D01*
X9934001Y-5940654D01*
X9934995Y-5935177D01*
X9992122Y-5513452D01*
X9992619Y-5507924D01*
X10011713Y-5082783D01*
X10011713Y-5077216D01*
X9992619Y-4652075D01*
X9992122Y-4646547D01*
X9934995Y-4224822D01*
X9934001Y-4219345D01*
X9839302Y-3804442D01*
X9837826Y-3799094D01*
X9706321Y-3394362D01*
X9704355Y-3389123D01*
X9537106Y-2997827D01*
X9534689Y-2992806D01*
X9333024Y-2618050D01*
X9330172Y-2613277D01*
X9095732Y-2258114D01*
X9092459Y-2253608D01*
X8827120Y-1920885D01*
X8823456Y-1916691D01*
X8774775Y-1865776D01*
X7782765Y-2857785D01*
X7791314Y-2827741D01*
X7780965Y-2716060D01*
X7730971Y-2615659D01*
X7648085Y-2540097D01*
X7543499Y-2499581D01*
X7459617Y-2499581D01*
X7427941Y-2505502D01*
X8420121Y-1513323D01*
X8204859Y-1325254D01*
X8200517Y-1321791D01*
X7856224Y-1071648D01*
X7851587Y-1068587D01*
X7486236Y-850299D01*
X7481365Y-847678D01*
X7097934Y-663028D01*
X7092807Y-660836D01*
X6694387Y-511307D01*
X6689089Y-509586D01*
X6278866Y-396371D01*
X6273432Y-395130D01*
X5939365Y-334507D01*
X5876918Y-303169D01*
X5841327Y-243044D01*
X5843892Y-173221D01*
X5883798Y-115869D01*
X5948377Y-89197D01*
X5961506Y-88500D01*
X65158494Y-88500D01*
X65225533Y-108185D01*
X65271288Y-160989D01*
X65281232Y-230147D01*
X65252207Y-293703D01*
X65193429Y-331477D01*
X65180635Y-334507D01*
X64846567Y-395130D01*
X64841133Y-396371D01*
X64430910Y-509586D01*
X64425612Y-511307D01*
X64027192Y-660836D01*
X64022065Y-663028D01*
X63638634Y-847678D01*
X63633763Y-850299D01*
X63268412Y-1068587D01*
X63263775Y-1071648D01*
X62919482Y-1321791D01*
X62915140Y-1325254D01*
X62699877Y-1513322D01*
X62699877Y-1513323D01*
X63686135Y-2499581D01*
X63604779Y-2499581D01*
X63522331Y-2514993D01*
X63426971Y-2574038D01*
X63359380Y-2663543D01*
X63328686Y-2771421D01*
X63336633Y-2857187D01*
X62345223Y-1865777D01*
X62296543Y-1916692D01*
X62292874Y-1920891D01*
X62027540Y-2253608D01*
X62024267Y-2258114D01*
X61789827Y-2613277D01*
X61786975Y-2618050D01*
X61585310Y-2992806D01*
X61582893Y-2997827D01*
X61415644Y-3389123D01*
X61413678Y-3394362D01*
X61282173Y-3799094D01*
X61280697Y-3804442D01*
X61185998Y-4219345D01*
X61185004Y-4224822D01*
X61127877Y-4646547D01*
X61127380Y-4652075D01*
X61108287Y-5077216D01*
X61108287Y-5082783D01*
X61127380Y-5507924D01*
X61127877Y-5513452D01*
X61185004Y-5935177D01*
X61185998Y-5940654D01*
X61280697Y-6355557D01*
X61282173Y-6360905D01*
X61413678Y-6765637D01*
X61415644Y-6770876D01*
X61582893Y-7162172D01*
X61585310Y-7167193D01*
X61786975Y-7541949D01*
X61789827Y-7546722D01*
X62024267Y-7901885D01*
X62027540Y-7906391D01*
X62292879Y-8239114D01*
X62296543Y-8243308D01*
X62345223Y-8294222D01*
X63337235Y-7302209D01*
X63328686Y-7332259D01*
X63339035Y-7443940D01*
X63389029Y-7544341D01*
X63471915Y-7619903D01*
X63576501Y-7660419D01*
X63660383Y-7660419D01*
X63692053Y-7654498D01*
X62699877Y-8646675D01*
X62915140Y-8834745D01*
X62919482Y-8838208D01*
X63263775Y-9088351D01*
X63268412Y-9091412D01*
X63633763Y-9309700D01*
X63638634Y-9312321D01*
X64022065Y-9496971D01*
X64027192Y-9499163D01*
X64425612Y-9648692D01*
X64430910Y-9650413D01*
X64841133Y-9763628D01*
X64846568Y-9764869D01*
X65265290Y-9840855D01*
X65270800Y-9841602D01*
X65694668Y-9879751D01*
X65700209Y-9880000D01*
X66125791Y-9880000D01*
X66131331Y-9879751D01*
X66555199Y-9841602D01*
X66560709Y-9840855D01*
X66979431Y-9764869D01*
X66984866Y-9763628D01*
X67395089Y-9650413D01*
X67400387Y-9648692D01*
X67798807Y-9499163D01*
X67803934Y-9496971D01*
X68187365Y-9312321D01*
X68192236Y-9309700D01*
X68557587Y-9091412D01*
X68562224Y-9088351D01*
X68906505Y-8838216D01*
X68910877Y-8834730D01*
X69126121Y-8646676D01*
X69126121Y-8646675D01*
X68139865Y-7660419D01*
X68221221Y-7660419D01*
X68303669Y-7645007D01*
X68399029Y-7585962D01*
X68466620Y-7496457D01*
X68497314Y-7388579D01*
X68489366Y-7302812D01*
X69480775Y-8294221D01*
X69529467Y-8243295D01*
X69533119Y-8239115D01*
X69798459Y-7906391D01*
X69801732Y-7901885D01*
X70036172Y-7546722D01*
X70039024Y-7541949D01*
X70240689Y-7167193D01*
X70243106Y-7162172D01*
X70410355Y-6770876D01*
X70412321Y-6765637D01*
X70543826Y-6360905D01*
X70545302Y-6355557D01*
X70640001Y-5940654D01*
X70640995Y-5935177D01*
X70698122Y-5513452D01*
X70698619Y-5507924D01*
X70717713Y-5082783D01*
X70717713Y-5077216D01*
X70698619Y-4652075D01*
X70698122Y-4646547D01*
X70640995Y-4224822D01*
X70640001Y-4219345D01*
X70545302Y-3804442D01*
X70543826Y-3799094D01*
X70412321Y-3394362D01*
X70410355Y-3389123D01*
X70243106Y-2997827D01*
X70240689Y-2992806D01*
X70039024Y-2618050D01*
X70036172Y-2613277D01*
X69801732Y-2258114D01*
X69798459Y-2253608D01*
X69533120Y-1920885D01*
X69529456Y-1916691D01*
X69480775Y-1865776D01*
X68488765Y-2857785D01*
X68497314Y-2827741D01*
X68486965Y-2716060D01*
X68436971Y-2615659D01*
X68354085Y-2540097D01*
X68249499Y-2499581D01*
X68165617Y-2499581D01*
X68133941Y-2505502D01*
X69126121Y-1513323D01*
X68910859Y-1325254D01*
X68906517Y-1321791D01*
X68562224Y-1071648D01*
X68557587Y-1068587D01*
X68192236Y-850299D01*
X68187365Y-847678D01*
X67803934Y-663028D01*
X67798807Y-660836D01*
X67400387Y-511307D01*
X67395089Y-509586D01*
X66984866Y-396371D01*
X66979432Y-395130D01*
X66645365Y-334507D01*
X66582918Y-303169D01*
X66547327Y-243044D01*
X66549892Y-173221D01*
X66589798Y-115869D01*
X66654377Y-89197D01*
X66667506Y-88500D01*
X69111935Y-88500D01*
X69120042Y-88764D01*
X69199743Y-93988D01*
X69377590Y-106709D01*
X69392904Y-108772D01*
X69505441Y-131157D01*
X69646277Y-161794D01*
X69659690Y-165518D01*
X69773725Y-204228D01*
X69777074Y-205420D01*
X69904808Y-253062D01*
X69916300Y-258024D01*
X70026687Y-312461D01*
X70031187Y-314798D01*
X70148478Y-378844D01*
X70157942Y-384574D01*
X70261269Y-453615D01*
X70266688Y-457450D01*
X70372727Y-536830D01*
X70380145Y-542844D01*
X70473976Y-625131D01*
X70479898Y-630678D01*
X70573320Y-724100D01*
X70578867Y-730022D01*
X70661150Y-823848D01*
X70667173Y-831278D01*
X70679451Y-847678D01*
X70746548Y-937310D01*
X70750383Y-942729D01*
X70819424Y-1046056D01*
X70825154Y-1055520D01*
X70889183Y-1172779D01*
X70891564Y-1177363D01*
X70945969Y-1287687D01*
X70950938Y-1299196D01*
X70998556Y-1426863D01*
X70999793Y-1430338D01*
X71038470Y-1544276D01*
X71042217Y-1557777D01*
X71072847Y-1698580D01*
X71095230Y-1811107D01*
X71097290Y-1826414D01*
X71110017Y-2004350D01*
X71115235Y-2083955D01*
X71115500Y-2092051D01*
X71115500Y-52083947D01*
X71115234Y-52092058D01*
X71110017Y-52171648D01*
X71097291Y-52349574D01*
X71095225Y-52364916D01*
X71072851Y-52477402D01*
X71042212Y-52618244D01*
X71038473Y-52631714D01*
X70999793Y-52745660D01*
X70998556Y-52749135D01*
X70950938Y-52876802D01*
X70945969Y-52888311D01*
X70891564Y-52998635D01*
X70889183Y-53003219D01*
X70825154Y-53120478D01*
X70819424Y-53129942D01*
X70750383Y-53233269D01*
X70746548Y-53238688D01*
X70667181Y-53344711D01*
X70661142Y-53352160D01*
X70578867Y-53445976D01*
X70573320Y-53451898D01*
X70479898Y-53545320D01*
X70473976Y-53550867D01*
X70380160Y-53633142D01*
X70372711Y-53639181D01*
X70266688Y-53718548D01*
X70261269Y-53722383D01*
X70157942Y-53791424D01*
X70148478Y-53797154D01*
X70031219Y-53861183D01*
X70026635Y-53863564D01*
X69916311Y-53917969D01*
X69904802Y-53922938D01*
X69777135Y-53970556D01*
X69773660Y-53971793D01*
X69659722Y-54010470D01*
X69646221Y-54014217D01*
X69505419Y-54044847D01*
X69458048Y-54054270D01*
X69392896Y-54067229D01*
X69377584Y-54069290D01*
X69199649Y-54082017D01*
X69176221Y-54083552D01*
X69120030Y-54087235D01*
X69111948Y-54087500D01*
X27186823Y-54087500D01*
X27119784Y-54067815D01*
X27074029Y-54015011D01*
X27064085Y-53945853D01*
X27093110Y-53882297D01*
X27135312Y-53850706D01*
X27242701Y-53801663D01*
X27413821Y-53679807D01*
X27558792Y-53527766D01*
X27672366Y-53351044D01*
X27750444Y-53156014D01*
X27790200Y-52949737D01*
X27790200Y-52744700D01*
X26990200Y-52744700D01*
X26990200Y-52244700D01*
X27790199Y-52244700D01*
X27790200Y-52095249D01*
X27789918Y-52089340D01*
X27775235Y-51935579D01*
X27716050Y-51734012D01*
X27619787Y-51547287D01*
X27489930Y-51382161D01*
X27331163Y-51244588D01*
X27149236Y-51139553D01*
X26950711Y-51070843D01*
X26940200Y-51069331D01*
X26940200Y-51978589D01*
X26915743Y-51939090D01*
X26826238Y-51871499D01*
X26718360Y-51840805D01*
X26606679Y-51851154D01*
X26506278Y-51901148D01*
X26440200Y-51973630D01*
X26440200Y-51073440D01*
X26405022Y-51081975D01*
X26335232Y-51078650D01*
X26278317Y-51038122D01*
X26252349Y-50973257D01*
X26265572Y-50904650D01*
X26304663Y-50859896D01*
X26361820Y-50819873D01*
X25756452Y-50214504D01*
X25823169Y-50203938D01*
X25943123Y-50142818D01*
X26038318Y-50047623D01*
X26099438Y-49927669D01*
X26110004Y-49860951D01*
X26715373Y-50466319D01*
X26755134Y-50409537D01*
X26786254Y-50342799D01*
X32495540Y-50342799D01*
X32515326Y-50531057D01*
X32573820Y-50711084D01*
X32668466Y-50875016D01*
X32795129Y-51015689D01*
X32948269Y-51126951D01*
X33121197Y-51203944D01*
X33306352Y-51243300D01*
X33306354Y-51243300D01*
X33495648Y-51243300D01*
X33619083Y-51217062D01*
X33680803Y-51203944D01*
X33853730Y-51126951D01*
X33890181Y-51100468D01*
X34006870Y-51015689D01*
X34103685Y-50908166D01*
X34133533Y-50875016D01*
X34228179Y-50711084D01*
X34286674Y-50531056D01*
X34306460Y-50342800D01*
X34286674Y-50154544D01*
X34250612Y-50043557D01*
X34228179Y-49974515D01*
X34133533Y-49810583D01*
X34006870Y-49669910D01*
X33853730Y-49558648D01*
X33680802Y-49481655D01*
X33495648Y-49442300D01*
X33495646Y-49442300D01*
X33306354Y-49442300D01*
X33306352Y-49442300D01*
X33121197Y-49481655D01*
X32948269Y-49558648D01*
X32795129Y-49669910D01*
X32668466Y-49810583D01*
X32573820Y-49974515D01*
X32515326Y-50154542D01*
X32495540Y-50342799D01*
X26786254Y-50342799D01*
X26845718Y-50215278D01*
X26901197Y-50008229D01*
X26919879Y-49794700D01*
X26901197Y-49581170D01*
X26845719Y-49374123D01*
X26755132Y-49179859D01*
X26715373Y-49123078D01*
X26110004Y-49728447D01*
X26099438Y-49661731D01*
X26038318Y-49541777D01*
X25943123Y-49446582D01*
X25823169Y-49385462D01*
X25756451Y-49374895D01*
X26361820Y-48769525D01*
X26305037Y-48729766D01*
X26110776Y-48639180D01*
X25903729Y-48583702D01*
X25690200Y-48565020D01*
X25476670Y-48583702D01*
X25269622Y-48639180D01*
X25075361Y-48729766D01*
X25018578Y-48769524D01*
X25623948Y-49374894D01*
X25557231Y-49385462D01*
X25437277Y-49446582D01*
X25342082Y-49541777D01*
X25280962Y-49661731D01*
X25270395Y-49728449D01*
X24665024Y-49123078D01*
X24625266Y-49179861D01*
X24534680Y-49374122D01*
X24479202Y-49581170D01*
X24460520Y-49794700D01*
X24479202Y-50008229D01*
X24534680Y-50215276D01*
X24625266Y-50409537D01*
X24665025Y-50466319D01*
X25270394Y-49860950D01*
X25280962Y-49927669D01*
X25342082Y-50047623D01*
X25437277Y-50142818D01*
X25557231Y-50203938D01*
X25623947Y-50214504D01*
X25018578Y-50819873D01*
X25075362Y-50859633D01*
X25269623Y-50950219D01*
X25476670Y-51005697D01*
X25690200Y-51024379D01*
X25903727Y-51005697D01*
X26024843Y-50973244D01*
X26094693Y-50974907D01*
X26152556Y-51014069D01*
X26180061Y-51078297D01*
X26168475Y-51147199D01*
X26128866Y-51194026D01*
X25966576Y-51309594D01*
X25821607Y-51461633D01*
X25708033Y-51638355D01*
X25629955Y-51833385D01*
X25590200Y-52039662D01*
X25590200Y-52244700D01*
X26390200Y-52244700D01*
X26390200Y-52744700D01*
X25590200Y-52744700D01*
X25590200Y-52894150D01*
X25590481Y-52900059D01*
X25605164Y-53053820D01*
X25664349Y-53255387D01*
X25760612Y-53442112D01*
X25890469Y-53607238D01*
X26049236Y-53744811D01*
X26241419Y-53855767D01*
X26239327Y-53859389D01*
X26277883Y-53886839D01*
X26303856Y-53951702D01*
X26290640Y-54020310D01*
X26242429Y-54070881D01*
X26180419Y-54087500D01*
X20186823Y-54087500D01*
X20119784Y-54067815D01*
X20074029Y-54015011D01*
X20064085Y-53945853D01*
X20093110Y-53882297D01*
X20135312Y-53850706D01*
X20242701Y-53801663D01*
X20413821Y-53679807D01*
X20558792Y-53527766D01*
X20672366Y-53351044D01*
X20750444Y-53156014D01*
X20790200Y-52949737D01*
X20790200Y-52744700D01*
X19990200Y-52744700D01*
X19990200Y-52244700D01*
X20790200Y-52244700D01*
X20790200Y-52095249D01*
X20789918Y-52089340D01*
X20775235Y-51935579D01*
X20716050Y-51734012D01*
X20619787Y-51547287D01*
X20489930Y-51382161D01*
X20331163Y-51244588D01*
X20248727Y-51196994D01*
X20200511Y-51146427D01*
X20187289Y-51077820D01*
X20213257Y-51012955D01*
X20270171Y-50972427D01*
X20339961Y-50969102D01*
X20342821Y-50969832D01*
X20476670Y-51005697D01*
X20690200Y-51024379D01*
X20903729Y-51005697D01*
X21110778Y-50950218D01*
X21305037Y-50859634D01*
X21361820Y-50819873D01*
X20756452Y-50214504D01*
X20823169Y-50203938D01*
X20943123Y-50142818D01*
X21038318Y-50047623D01*
X21099438Y-49927669D01*
X21110004Y-49860951D01*
X21715373Y-50466319D01*
X21755134Y-50409537D01*
X21845718Y-50215278D01*
X21901197Y-50008229D01*
X21919879Y-49794700D01*
X21901197Y-49581170D01*
X21845719Y-49374123D01*
X21755132Y-49179859D01*
X21715373Y-49123078D01*
X21110004Y-49728447D01*
X21099438Y-49661731D01*
X21038318Y-49541777D01*
X20943123Y-49446582D01*
X20823169Y-49385462D01*
X20756451Y-49374895D01*
X21361820Y-48769525D01*
X21305037Y-48729766D01*
X21110776Y-48639180D01*
X20903729Y-48583702D01*
X20690199Y-48565020D01*
X20476670Y-48583702D01*
X20269622Y-48639180D01*
X20075361Y-48729766D01*
X20018578Y-48769524D01*
X20623948Y-49374894D01*
X20557231Y-49385462D01*
X20437277Y-49446582D01*
X20342082Y-49541777D01*
X20280962Y-49661731D01*
X20270395Y-49728449D01*
X19665024Y-49123078D01*
X19625266Y-49179861D01*
X19534680Y-49374122D01*
X19479202Y-49581170D01*
X19460520Y-49794699D01*
X19479202Y-50008229D01*
X19534680Y-50215276D01*
X19625266Y-50409537D01*
X19665025Y-50466319D01*
X20270394Y-49860950D01*
X20280962Y-49927669D01*
X20342082Y-50047623D01*
X20437277Y-50142818D01*
X20557231Y-50203938D01*
X20623947Y-50214504D01*
X20018578Y-50819873D01*
X20066729Y-50853589D01*
X20110354Y-50908166D01*
X20117548Y-50977664D01*
X20086025Y-51040019D01*
X20025795Y-51075433D01*
X19955980Y-51072662D01*
X19955053Y-51072345D01*
X19950715Y-51070844D01*
X19940200Y-51069331D01*
X19940200Y-51978589D01*
X19915743Y-51939090D01*
X19826238Y-51871499D01*
X19718360Y-51840805D01*
X19606679Y-51851154D01*
X19506278Y-51901148D01*
X19440200Y-51973630D01*
X19440200Y-51073440D01*
X19328793Y-51100468D01*
X19137694Y-51187739D01*
X18966578Y-51309592D01*
X18821607Y-51461633D01*
X18708033Y-51638355D01*
X18629955Y-51833385D01*
X18590200Y-52039662D01*
X18590200Y-52244700D01*
X19390200Y-52244700D01*
X19390200Y-52744700D01*
X18590200Y-52744700D01*
X18590200Y-52894150D01*
X18590481Y-52900059D01*
X18605164Y-53053820D01*
X18664349Y-53255387D01*
X18760612Y-53442112D01*
X18890469Y-53607238D01*
X19049236Y-53744811D01*
X19241419Y-53855767D01*
X19239327Y-53859389D01*
X19277883Y-53886839D01*
X19303856Y-53951702D01*
X19290640Y-54020310D01*
X19242429Y-54070881D01*
X19180419Y-54087500D01*
X2120053Y-54087500D01*
X2111943Y-54087234D01*
X2032352Y-54082017D01*
X1854424Y-54069291D01*
X1839082Y-54067225D01*
X1781195Y-54055710D01*
X1726600Y-54044851D01*
X1585746Y-54014210D01*
X1572284Y-54010473D01*
X1572275Y-54010470D01*
X1501362Y-53986398D01*
X1458338Y-53971793D01*
X1454863Y-53970556D01*
X1327196Y-53922938D01*
X1315687Y-53917969D01*
X1250947Y-53886043D01*
X1205348Y-53863556D01*
X1200779Y-53861183D01*
X1083520Y-53797154D01*
X1074056Y-53791424D01*
X970729Y-53722383D01*
X965310Y-53718548D01*
X909396Y-53676691D01*
X859278Y-53639173D01*
X851848Y-53633150D01*
X758022Y-53550867D01*
X752100Y-53545320D01*
X658678Y-53451898D01*
X653131Y-53445976D01*
X570844Y-53352145D01*
X564830Y-53344727D01*
X485450Y-53238688D01*
X481615Y-53233269D01*
X412574Y-53129942D01*
X406844Y-53120478D01*
X370446Y-53053820D01*
X342798Y-53003187D01*
X340461Y-52998687D01*
X286024Y-52888300D01*
X281060Y-52876802D01*
X233420Y-52749074D01*
X232228Y-52745725D01*
X193522Y-52631703D01*
X189786Y-52618240D01*
X159157Y-52477441D01*
X136767Y-52364879D01*
X134709Y-52349593D01*
X121988Y-52171743D01*
X116765Y-52092041D01*
X116500Y-52083936D01*
X116500Y-48770783D01*
X402287Y-48770783D01*
X421380Y-49195924D01*
X421877Y-49201452D01*
X479004Y-49623177D01*
X479998Y-49628654D01*
X574697Y-50043557D01*
X576173Y-50048905D01*
X707678Y-50453637D01*
X709644Y-50458876D01*
X876893Y-50850172D01*
X879310Y-50855193D01*
X1080975Y-51229949D01*
X1083827Y-51234722D01*
X1318267Y-51589885D01*
X1321540Y-51594391D01*
X1586879Y-51927114D01*
X1590543Y-51931308D01*
X1639223Y-51982222D01*
X2631235Y-50990209D01*
X2622686Y-51020259D01*
X2633035Y-51131940D01*
X2683029Y-51232341D01*
X2765915Y-51307903D01*
X2870501Y-51348419D01*
X2954383Y-51348419D01*
X2986053Y-51342498D01*
X1993877Y-52334675D01*
X2209140Y-52522745D01*
X2213482Y-52526208D01*
X2557775Y-52776351D01*
X2562412Y-52779412D01*
X2927763Y-52997700D01*
X2932634Y-53000321D01*
X3316065Y-53184971D01*
X3321192Y-53187163D01*
X3719612Y-53336692D01*
X3724910Y-53338413D01*
X4135133Y-53451628D01*
X4140568Y-53452869D01*
X4559290Y-53528855D01*
X4564800Y-53529602D01*
X4988668Y-53567751D01*
X4994209Y-53568000D01*
X5419791Y-53568000D01*
X5425331Y-53567751D01*
X5849199Y-53529602D01*
X5854709Y-53528855D01*
X6273431Y-53452869D01*
X6278866Y-53451628D01*
X6689089Y-53338413D01*
X6694387Y-53336692D01*
X7092807Y-53187163D01*
X7097934Y-53184971D01*
X7481365Y-53000321D01*
X7486236Y-52997700D01*
X7851587Y-52779412D01*
X7856224Y-52776351D01*
X8200505Y-52526216D01*
X8204877Y-52522730D01*
X8420121Y-52334676D01*
X8420121Y-52334675D01*
X7433865Y-51348419D01*
X7515221Y-51348419D01*
X7597669Y-51333007D01*
X7693029Y-51273962D01*
X7760620Y-51184457D01*
X7791314Y-51076579D01*
X7783366Y-50990812D01*
X8774775Y-51982221D01*
X8823467Y-51931295D01*
X8827119Y-51927115D01*
X9092459Y-51594391D01*
X9095732Y-51589885D01*
X9330172Y-51234722D01*
X9333024Y-51229949D01*
X9534689Y-50855193D01*
X9537106Y-50850172D01*
X9704355Y-50458876D01*
X9706321Y-50453637D01*
X9837826Y-50048905D01*
X9839302Y-50043557D01*
X9934001Y-49628654D01*
X9934995Y-49623177D01*
X9992122Y-49201452D01*
X9992619Y-49195924D01*
X10011713Y-48770783D01*
X10011713Y-48765216D01*
X9992619Y-48340075D01*
X9992122Y-48334547D01*
X9934995Y-47912822D01*
X9934001Y-47907345D01*
X9839302Y-47492442D01*
X9837826Y-47487094D01*
X9754616Y-47231000D01*
X49597000Y-47231000D01*
X50513314Y-47231000D01*
X50487507Y-47271156D01*
X50447000Y-47409111D01*
X50447000Y-47552889D01*
X50487507Y-47690844D01*
X50513314Y-47731000D01*
X49597001Y-47731000D01*
X49597001Y-48277829D01*
X49597321Y-48284111D01*
X49607493Y-48383695D01*
X49662642Y-48550122D01*
X49754683Y-48699345D01*
X49878654Y-48823316D01*
X50027877Y-48915357D01*
X50194303Y-48970506D01*
X50293890Y-48980680D01*
X50300168Y-48980999D01*
X50696999Y-48980999D01*
X50697000Y-48980998D01*
X50697000Y-47916501D01*
X50804685Y-47965680D01*
X50911237Y-47981000D01*
X50982763Y-47981000D01*
X51089315Y-47965680D01*
X51197000Y-47916501D01*
X51197000Y-48980999D01*
X51593829Y-48980999D01*
X51600111Y-48980678D01*
X51699695Y-48970506D01*
X51866122Y-48915357D01*
X52015345Y-48823316D01*
X52139316Y-48699345D01*
X52234815Y-48544516D01*
X52286763Y-48497791D01*
X52355725Y-48486568D01*
X52419807Y-48514411D01*
X52428035Y-48521931D01*
X52575599Y-48669495D01*
X52769170Y-48805035D01*
X52983337Y-48904903D01*
X53211591Y-48966062D01*
X53211592Y-48966063D01*
X53446999Y-48986659D01*
X53446999Y-48986658D01*
X53447000Y-48986659D01*
X53682408Y-48966063D01*
X53910663Y-48904903D01*
X54124829Y-48805035D01*
X54173746Y-48770783D01*
X61108287Y-48770783D01*
X61127380Y-49195924D01*
X61127877Y-49201452D01*
X61185004Y-49623177D01*
X61185998Y-49628654D01*
X61280697Y-50043557D01*
X61282173Y-50048905D01*
X61413678Y-50453637D01*
X61415644Y-50458876D01*
X61582893Y-50850172D01*
X61585310Y-50855193D01*
X61786975Y-51229949D01*
X61789827Y-51234722D01*
X62024267Y-51589885D01*
X62027540Y-51594391D01*
X62292879Y-51927114D01*
X62296543Y-51931308D01*
X62345223Y-51982222D01*
X63337235Y-50990209D01*
X63328686Y-51020259D01*
X63339035Y-51131940D01*
X63389029Y-51232341D01*
X63471915Y-51307903D01*
X63576501Y-51348419D01*
X63660383Y-51348419D01*
X63692053Y-51342498D01*
X62699877Y-52334675D01*
X62915140Y-52522745D01*
X62919482Y-52526208D01*
X63263775Y-52776351D01*
X63268412Y-52779412D01*
X63633763Y-52997700D01*
X63638634Y-53000321D01*
X64022065Y-53184971D01*
X64027192Y-53187163D01*
X64425612Y-53336692D01*
X64430910Y-53338413D01*
X64841133Y-53451628D01*
X64846568Y-53452869D01*
X65265290Y-53528855D01*
X65270800Y-53529602D01*
X65694668Y-53567751D01*
X65700209Y-53568000D01*
X66125791Y-53568000D01*
X66131331Y-53567751D01*
X66555199Y-53529602D01*
X66560709Y-53528855D01*
X66979431Y-53452869D01*
X66984866Y-53451628D01*
X67395089Y-53338413D01*
X67400387Y-53336692D01*
X67798807Y-53187163D01*
X67803934Y-53184971D01*
X68187365Y-53000321D01*
X68192236Y-52997700D01*
X68557587Y-52779412D01*
X68562224Y-52776351D01*
X68906505Y-52526216D01*
X68910877Y-52522730D01*
X69126121Y-52334676D01*
X69126121Y-52334675D01*
X68139865Y-51348419D01*
X68221221Y-51348419D01*
X68303669Y-51333007D01*
X68399029Y-51273962D01*
X68466620Y-51184457D01*
X68497314Y-51076579D01*
X68489366Y-50990812D01*
X69480775Y-51982221D01*
X69529467Y-51931295D01*
X69533119Y-51927115D01*
X69798459Y-51594391D01*
X69801732Y-51589885D01*
X70036172Y-51234722D01*
X70039024Y-51229949D01*
X70240689Y-50855193D01*
X70243106Y-50850172D01*
X70410355Y-50458876D01*
X70412321Y-50453637D01*
X70543826Y-50048905D01*
X70545302Y-50043557D01*
X70640001Y-49628654D01*
X70640995Y-49623177D01*
X70698122Y-49201452D01*
X70698619Y-49195924D01*
X70717713Y-48770783D01*
X70717713Y-48765216D01*
X70698619Y-48340075D01*
X70698122Y-48334547D01*
X70640995Y-47912822D01*
X70640001Y-47907345D01*
X70545302Y-47492442D01*
X70543826Y-47487094D01*
X70412321Y-47082362D01*
X70410355Y-47077123D01*
X70243106Y-46685827D01*
X70240689Y-46680806D01*
X70039024Y-46306050D01*
X70036172Y-46301277D01*
X69801732Y-45946114D01*
X69798459Y-45941608D01*
X69533120Y-45608885D01*
X69529456Y-45604691D01*
X69480775Y-45553776D01*
X68488765Y-46545785D01*
X68497314Y-46515741D01*
X68486965Y-46404060D01*
X68436971Y-46303659D01*
X68354085Y-46228097D01*
X68249499Y-46187581D01*
X68165617Y-46187581D01*
X68133941Y-46193502D01*
X69126121Y-45201323D01*
X68910859Y-45013254D01*
X68906517Y-45009791D01*
X68562224Y-44759648D01*
X68557587Y-44756587D01*
X68192236Y-44538299D01*
X68187365Y-44535678D01*
X67803934Y-44351028D01*
X67798807Y-44348836D01*
X67400387Y-44199307D01*
X67395089Y-44197586D01*
X66984866Y-44084371D01*
X66979431Y-44083130D01*
X66560709Y-44007144D01*
X66555199Y-44006397D01*
X66131331Y-43968248D01*
X66125791Y-43968000D01*
X65700209Y-43968000D01*
X65694668Y-43968248D01*
X65270800Y-44006397D01*
X65265290Y-44007144D01*
X64846568Y-44083130D01*
X64841133Y-44084371D01*
X64430910Y-44197586D01*
X64425612Y-44199307D01*
X64027192Y-44348836D01*
X64022065Y-44351028D01*
X63638634Y-44535678D01*
X63633763Y-44538299D01*
X63268412Y-44756587D01*
X63263775Y-44759648D01*
X62919482Y-45009791D01*
X62915140Y-45013254D01*
X62699877Y-45201322D01*
X62699877Y-45201323D01*
X63686135Y-46187581D01*
X63604779Y-46187581D01*
X63522331Y-46202993D01*
X63426971Y-46262038D01*
X63359380Y-46351543D01*
X63328686Y-46459421D01*
X63336633Y-46545187D01*
X62345223Y-45553777D01*
X62296543Y-45604692D01*
X62292874Y-45608891D01*
X62027540Y-45941608D01*
X62024267Y-45946114D01*
X61789827Y-46301277D01*
X61786975Y-46306050D01*
X61585310Y-46680806D01*
X61582893Y-46685827D01*
X61415644Y-47077123D01*
X61413678Y-47082362D01*
X61282173Y-47487094D01*
X61280697Y-47492442D01*
X61185998Y-47907345D01*
X61185004Y-47912822D01*
X61127877Y-48334547D01*
X61127380Y-48340075D01*
X61108287Y-48765216D01*
X61108287Y-48770783D01*
X54173746Y-48770783D01*
X54318401Y-48669495D01*
X54485495Y-48502401D01*
X54621035Y-48308829D01*
X54720903Y-48094663D01*
X54782063Y-47866408D01*
X54797500Y-47689966D01*
X54797500Y-47272034D01*
X54782063Y-47095592D01*
X54720903Y-46867337D01*
X54621035Y-46653171D01*
X54485495Y-46459599D01*
X54318401Y-46292505D01*
X54124830Y-46156965D01*
X53910663Y-46057097D01*
X53849501Y-46040709D01*
X53682407Y-45995936D01*
X53447000Y-45975340D01*
X53211592Y-45995936D01*
X52983336Y-46057097D01*
X52769170Y-46156965D01*
X52575601Y-46292503D01*
X52428035Y-46440069D01*
X52366712Y-46473553D01*
X52297020Y-46468569D01*
X52241087Y-46426697D01*
X52234815Y-46417484D01*
X52139315Y-46262653D01*
X52015345Y-46138683D01*
X51866122Y-46046642D01*
X51699696Y-45991493D01*
X51600109Y-45981319D01*
X51593832Y-45981000D01*
X51197000Y-45981000D01*
X51197000Y-47045498D01*
X51089315Y-46996320D01*
X50982763Y-46981000D01*
X50911237Y-46981000D01*
X50804685Y-46996320D01*
X50696999Y-47045498D01*
X50696999Y-45981000D01*
X50300171Y-45981000D01*
X50293888Y-45981321D01*
X50194304Y-45991493D01*
X50027877Y-46046642D01*
X49878654Y-46138683D01*
X49754683Y-46262654D01*
X49662642Y-46411877D01*
X49607493Y-46578303D01*
X49597319Y-46677890D01*
X49597000Y-46684168D01*
X49597000Y-47231000D01*
X9754616Y-47231000D01*
X9706321Y-47082362D01*
X9704355Y-47077123D01*
X9537106Y-46685827D01*
X9534689Y-46680806D01*
X9333024Y-46306050D01*
X9330172Y-46301277D01*
X9114139Y-45974000D01*
X14461540Y-45974000D01*
X14481326Y-46162257D01*
X14539820Y-46342284D01*
X14634466Y-46506216D01*
X14761129Y-46646889D01*
X14914269Y-46758151D01*
X15087197Y-46835144D01*
X15272352Y-46874500D01*
X15272354Y-46874500D01*
X15461648Y-46874500D01*
X15585083Y-46848262D01*
X15646803Y-46835144D01*
X15819730Y-46758151D01*
X15881705Y-46713124D01*
X15972870Y-46646889D01*
X15972871Y-46646888D01*
X16036850Y-46575831D01*
X16096336Y-46539183D01*
X16166193Y-46540513D01*
X16221150Y-46575832D01*
X16285129Y-46646889D01*
X16438269Y-46758151D01*
X16611197Y-46835144D01*
X16796352Y-46874500D01*
X16796354Y-46874500D01*
X16985648Y-46874500D01*
X17109083Y-46848262D01*
X17170803Y-46835144D01*
X17343730Y-46758151D01*
X17405705Y-46713124D01*
X17496870Y-46646889D01*
X17496871Y-46646888D01*
X17560850Y-46575831D01*
X17620336Y-46539183D01*
X17690193Y-46540513D01*
X17745150Y-46575832D01*
X17809129Y-46646889D01*
X17962269Y-46758151D01*
X18135197Y-46835144D01*
X18320352Y-46874500D01*
X18320354Y-46874500D01*
X18509648Y-46874500D01*
X18633084Y-46848262D01*
X18694803Y-46835144D01*
X18867730Y-46758151D01*
X18929705Y-46713124D01*
X19020870Y-46646889D01*
X19041823Y-46623619D01*
X19147533Y-46506216D01*
X19242179Y-46342284D01*
X19300674Y-46162256D01*
X19320460Y-45974000D01*
X19300674Y-45785744D01*
X19242179Y-45605716D01*
X19242179Y-45605715D01*
X19147533Y-45441783D01*
X19020870Y-45301110D01*
X18867730Y-45189848D01*
X18694802Y-45112855D01*
X18561965Y-45084620D01*
X18500483Y-45051428D01*
X18466707Y-44990265D01*
X18471359Y-44920550D01*
X18495594Y-44880359D01*
X18515533Y-44858216D01*
X18610179Y-44694284D01*
X18668674Y-44514256D01*
X18688460Y-44326000D01*
X18668674Y-44137744D01*
X18613601Y-43968248D01*
X18610179Y-43957715D01*
X18515533Y-43793783D01*
X18388870Y-43653110D01*
X18235730Y-43541848D01*
X18062802Y-43464855D01*
X17877648Y-43425500D01*
X17877646Y-43425500D01*
X17688354Y-43425500D01*
X17688352Y-43425500D01*
X17503197Y-43464855D01*
X17330269Y-43541848D01*
X17177129Y-43653110D01*
X17050466Y-43793783D01*
X16955820Y-43957715D01*
X16897326Y-44137742D01*
X16877540Y-44326000D01*
X16897326Y-44514257D01*
X16955820Y-44694284D01*
X17050466Y-44858215D01*
X17057950Y-44866527D01*
X17088180Y-44929518D01*
X17079556Y-44998853D01*
X17034816Y-45052519D01*
X16968163Y-45073477D01*
X16965801Y-45073500D01*
X16796352Y-45073500D01*
X16611197Y-45112855D01*
X16438269Y-45189848D01*
X16285129Y-45301111D01*
X16221148Y-45372168D01*
X16161661Y-45408816D01*
X16091804Y-45407485D01*
X16036849Y-45372167D01*
X15972870Y-45301110D01*
X15819730Y-45189848D01*
X15646802Y-45112855D01*
X15461648Y-45073500D01*
X15461646Y-45073500D01*
X15272354Y-45073500D01*
X15272352Y-45073500D01*
X15087197Y-45112855D01*
X14914269Y-45189848D01*
X14761129Y-45301110D01*
X14634466Y-45441783D01*
X14539820Y-45605715D01*
X14481326Y-45785742D01*
X14461540Y-45974000D01*
X9114139Y-45974000D01*
X9095732Y-45946114D01*
X9092459Y-45941608D01*
X8827120Y-45608885D01*
X8823456Y-45604691D01*
X8774775Y-45553776D01*
X7782765Y-46545785D01*
X7791314Y-46515741D01*
X7780965Y-46404060D01*
X7730971Y-46303659D01*
X7648085Y-46228097D01*
X7543499Y-46187581D01*
X7459617Y-46187581D01*
X7427941Y-46193502D01*
X8420121Y-45201323D01*
X8204859Y-45013254D01*
X8200517Y-45009791D01*
X7856224Y-44759648D01*
X7851587Y-44756587D01*
X7486236Y-44538299D01*
X7481365Y-44535678D01*
X7097934Y-44351028D01*
X7092807Y-44348836D01*
X6694387Y-44199307D01*
X6689089Y-44197586D01*
X6278866Y-44084371D01*
X6273431Y-44083130D01*
X5854709Y-44007144D01*
X5849199Y-44006397D01*
X5425331Y-43968248D01*
X5419791Y-43968000D01*
X4994209Y-43968000D01*
X4988668Y-43968248D01*
X4564800Y-44006397D01*
X4559290Y-44007144D01*
X4140568Y-44083130D01*
X4135133Y-44084371D01*
X3724910Y-44197586D01*
X3719612Y-44199307D01*
X3321192Y-44348836D01*
X3316065Y-44351028D01*
X2932634Y-44535678D01*
X2927763Y-44538299D01*
X2562412Y-44756587D01*
X2557775Y-44759648D01*
X2213482Y-45009791D01*
X2209140Y-45013254D01*
X1993877Y-45201322D01*
X1993877Y-45201323D01*
X2980135Y-46187581D01*
X2898779Y-46187581D01*
X2816331Y-46202993D01*
X2720971Y-46262038D01*
X2653380Y-46351543D01*
X2622686Y-46459421D01*
X2630633Y-46545187D01*
X1639223Y-45553777D01*
X1590543Y-45604692D01*
X1586874Y-45608891D01*
X1321540Y-45941608D01*
X1318267Y-45946114D01*
X1083827Y-46301277D01*
X1080975Y-46306050D01*
X879310Y-46680806D01*
X876893Y-46685827D01*
X709644Y-47077123D01*
X707678Y-47082362D01*
X576173Y-47487094D01*
X574697Y-47492442D01*
X479998Y-47907345D01*
X479004Y-47912822D01*
X421877Y-48334547D01*
X421380Y-48340075D01*
X402287Y-48765216D01*
X402287Y-48770783D01*
X116500Y-48770783D01*
X116500Y-42557099D01*
X24113540Y-42557099D01*
X24133326Y-42745357D01*
X24191820Y-42925384D01*
X24286466Y-43089316D01*
X24413129Y-43229989D01*
X24566269Y-43341251D01*
X24739197Y-43418244D01*
X24924352Y-43457600D01*
X24924354Y-43457600D01*
X25113648Y-43457600D01*
X25237083Y-43431362D01*
X25298803Y-43418244D01*
X25471730Y-43341251D01*
X25624871Y-43229988D01*
X25751533Y-43089316D01*
X25846179Y-42925384D01*
X25904674Y-42745356D01*
X25907045Y-42722800D01*
X27466340Y-42722800D01*
X27486126Y-42911057D01*
X27544620Y-43091084D01*
X27639266Y-43255016D01*
X27765929Y-43395689D01*
X27919069Y-43506951D01*
X28091997Y-43583944D01*
X28277152Y-43623300D01*
X28277154Y-43623300D01*
X28466448Y-43623300D01*
X28589883Y-43597062D01*
X28651603Y-43583944D01*
X28824530Y-43506951D01*
X28882469Y-43464856D01*
X28977670Y-43395689D01*
X29104333Y-43255016D01*
X29198979Y-43091084D01*
X29199553Y-43089316D01*
X29257474Y-42911056D01*
X29277260Y-42722800D01*
X29257474Y-42534544D01*
X29227132Y-42441163D01*
X29198979Y-42354515D01*
X29104333Y-42190583D01*
X28977670Y-42049910D01*
X28824530Y-41938648D01*
X28651602Y-41861655D01*
X28466448Y-41822300D01*
X28466446Y-41822300D01*
X28277154Y-41822300D01*
X28277152Y-41822300D01*
X28091997Y-41861655D01*
X27919069Y-41938648D01*
X27765929Y-42049910D01*
X27639266Y-42190583D01*
X27544620Y-42354515D01*
X27486126Y-42534542D01*
X27466340Y-42722800D01*
X25907045Y-42722800D01*
X25924460Y-42557100D01*
X25904674Y-42368844D01*
X25874332Y-42275463D01*
X25846179Y-42188815D01*
X25751533Y-42024883D01*
X25624870Y-41884210D01*
X25471730Y-41772948D01*
X25298802Y-41695955D01*
X25113648Y-41656600D01*
X25113646Y-41656600D01*
X24924354Y-41656600D01*
X24924352Y-41656600D01*
X24739197Y-41695955D01*
X24566269Y-41772948D01*
X24413129Y-41884210D01*
X24286466Y-42024883D01*
X24191820Y-42188815D01*
X24133326Y-42368842D01*
X24113540Y-42557099D01*
X116500Y-42557099D01*
X116500Y-41140871D01*
X18579591Y-41140871D01*
X18609873Y-41312610D01*
X18678947Y-41472739D01*
X18783083Y-41612620D01*
X18783084Y-41612621D01*
X18783085Y-41612622D01*
X18916675Y-41724717D01*
X19072516Y-41802983D01*
X19242205Y-41843200D01*
X19242207Y-41843200D01*
X19369256Y-41843200D01*
X19372855Y-41843200D01*
X19502611Y-41828034D01*
X19666484Y-41768389D01*
X19812184Y-41672560D01*
X19931858Y-41545713D01*
X20019053Y-41394687D01*
X20069068Y-41227623D01*
X20079208Y-41053529D01*
X20048926Y-40881788D01*
X19979853Y-40721661D01*
X19875715Y-40581778D01*
X19742125Y-40469683D01*
X19586284Y-40391417D01*
X19416595Y-40351200D01*
X19285945Y-40351200D01*
X19282378Y-40351616D01*
X19282376Y-40351617D01*
X19156186Y-40366366D01*
X18992316Y-40426010D01*
X18846615Y-40521840D01*
X18726942Y-40648686D01*
X18639747Y-40799712D01*
X18589732Y-40966778D01*
X18579591Y-41140871D01*
X116500Y-41140871D01*
X116500Y-39827200D01*
X16341140Y-39827200D01*
X16360926Y-40015457D01*
X16419420Y-40195484D01*
X16514066Y-40359416D01*
X16640729Y-40500089D01*
X16793869Y-40611351D01*
X16966797Y-40688344D01*
X17151952Y-40727700D01*
X17151954Y-40727700D01*
X17341248Y-40727700D01*
X17464683Y-40701462D01*
X17526403Y-40688344D01*
X17699330Y-40611351D01*
X17748950Y-40575300D01*
X17852470Y-40500089D01*
X17979133Y-40359416D01*
X18073779Y-40195484D01*
X18106791Y-40093884D01*
X18132274Y-40015456D01*
X18152060Y-39827200D01*
X18132274Y-39638944D01*
X18082756Y-39486544D01*
X18073780Y-39458918D01*
X18073077Y-39457700D01*
X18014623Y-39356455D01*
X17998151Y-39288557D01*
X18021003Y-39222530D01*
X18029855Y-39211492D01*
X18094033Y-39140216D01*
X18188679Y-38976284D01*
X18247174Y-38796256D01*
X18266960Y-38608000D01*
X18261621Y-38557200D01*
X20303540Y-38557200D01*
X20323326Y-38745457D01*
X20381820Y-38925484D01*
X20476466Y-39089416D01*
X20603129Y-39230089D01*
X20756269Y-39341351D01*
X20929197Y-39418344D01*
X21114352Y-39457700D01*
X21114354Y-39457700D01*
X21303648Y-39457700D01*
X21427083Y-39431462D01*
X21488803Y-39418344D01*
X21661730Y-39341351D01*
X21692218Y-39319200D01*
X23148340Y-39319200D01*
X23168126Y-39507457D01*
X23226620Y-39687484D01*
X23321266Y-39851416D01*
X23447929Y-39992089D01*
X23601069Y-40103351D01*
X23773997Y-40180344D01*
X23959152Y-40219700D01*
X23959154Y-40219700D01*
X24148448Y-40219700D01*
X24271884Y-40193462D01*
X24333603Y-40180344D01*
X24506530Y-40103351D01*
X24659671Y-39992088D01*
X24786333Y-39851416D01*
X24862876Y-39718838D01*
X24913441Y-39670625D01*
X24982048Y-39657401D01*
X25046913Y-39683369D01*
X25087442Y-39740283D01*
X25093583Y-39767878D01*
X25108926Y-39913857D01*
X25167420Y-40093884D01*
X25262066Y-40257816D01*
X25388729Y-40398489D01*
X25541869Y-40509751D01*
X25714797Y-40586744D01*
X25899952Y-40626100D01*
X25899954Y-40626100D01*
X26089248Y-40626100D01*
X26212684Y-40599862D01*
X26274403Y-40586744D01*
X26447330Y-40509751D01*
X26600471Y-40398488D01*
X26600474Y-40398484D01*
X26606674Y-40393980D01*
X26672480Y-40370500D01*
X26740534Y-40386325D01*
X26752434Y-40393972D01*
X26796532Y-40426011D01*
X26841872Y-40458953D01*
X27014797Y-40535944D01*
X27199952Y-40575300D01*
X27199954Y-40575300D01*
X27389248Y-40575300D01*
X27512683Y-40549062D01*
X27574403Y-40535944D01*
X27747330Y-40458951D01*
X27884329Y-40359416D01*
X27900470Y-40347689D01*
X27921731Y-40324077D01*
X28027133Y-40207016D01*
X28121779Y-40043084D01*
X28180274Y-39863056D01*
X28200060Y-39674800D01*
X28180274Y-39486544D01*
X28143763Y-39374175D01*
X28121779Y-39306515D01*
X28027133Y-39142583D01*
X27900470Y-39001910D01*
X27747330Y-38890648D01*
X27574402Y-38813655D01*
X27389248Y-38774300D01*
X27389246Y-38774300D01*
X27199954Y-38774300D01*
X27199952Y-38774300D01*
X27014797Y-38813655D01*
X26841872Y-38890646D01*
X26682524Y-39006419D01*
X26616717Y-39029898D01*
X26548663Y-39014072D01*
X26536754Y-39006418D01*
X26447330Y-38941448D01*
X26274402Y-38864455D01*
X26089248Y-38825100D01*
X26089246Y-38825100D01*
X25899954Y-38825100D01*
X25899952Y-38825100D01*
X25714797Y-38864455D01*
X25541869Y-38941448D01*
X25388729Y-39052710D01*
X25262066Y-39193384D01*
X25185524Y-39325959D01*
X25134957Y-39374175D01*
X25066350Y-39387398D01*
X25001485Y-39361429D01*
X24960957Y-39304515D01*
X24954816Y-39276920D01*
X24949224Y-39223713D01*
X24939474Y-39130944D01*
X24880979Y-38950916D01*
X24880979Y-38950915D01*
X24786333Y-38786983D01*
X24659670Y-38646310D01*
X24506530Y-38535048D01*
X24333602Y-38458055D01*
X24148448Y-38418700D01*
X24148446Y-38418700D01*
X23959154Y-38418700D01*
X23959152Y-38418700D01*
X23773997Y-38458055D01*
X23601069Y-38535048D01*
X23447929Y-38646310D01*
X23321266Y-38786983D01*
X23226620Y-38950915D01*
X23168126Y-39130942D01*
X23148340Y-39319200D01*
X21692218Y-39319200D01*
X21814870Y-39230089D01*
X21847920Y-39193384D01*
X21941533Y-39089416D01*
X22036179Y-38925484D01*
X22094674Y-38745456D01*
X22114460Y-38557200D01*
X22094674Y-38368944D01*
X22052685Y-38239715D01*
X22036179Y-38188915D01*
X21952833Y-38044556D01*
X34520662Y-38044556D01*
X34540448Y-38232814D01*
X34598942Y-38412841D01*
X34693588Y-38576773D01*
X34820251Y-38717446D01*
X34973391Y-38828708D01*
X35146319Y-38905701D01*
X35331474Y-38945057D01*
X35331476Y-38945057D01*
X35520770Y-38945057D01*
X35644206Y-38918819D01*
X35705925Y-38905701D01*
X35878852Y-38828708D01*
X35923519Y-38796256D01*
X36031992Y-38717446D01*
X36158655Y-38576773D01*
X36213950Y-38480999D01*
X39480540Y-38480999D01*
X39500326Y-38669257D01*
X39558820Y-38849284D01*
X39653466Y-39013216D01*
X39780129Y-39153889D01*
X39933269Y-39265151D01*
X40106197Y-39342144D01*
X40291352Y-39381500D01*
X40291354Y-39381500D01*
X40480648Y-39381500D01*
X40604083Y-39355262D01*
X40665803Y-39342144D01*
X40838730Y-39265151D01*
X40937509Y-39193384D01*
X40991870Y-39153889D01*
X41118533Y-39013216D01*
X41213179Y-38849284D01*
X41224756Y-38813655D01*
X41271674Y-38669256D01*
X41291460Y-38481000D01*
X41271674Y-38292744D01*
X41213179Y-38112716D01*
X41213179Y-38112715D01*
X41118533Y-37948783D01*
X40991870Y-37808110D01*
X40838730Y-37696848D01*
X40665802Y-37619855D01*
X40480648Y-37580500D01*
X40480646Y-37580500D01*
X40291354Y-37580500D01*
X40291352Y-37580500D01*
X40106197Y-37619855D01*
X39933269Y-37696848D01*
X39780129Y-37808110D01*
X39653466Y-37948783D01*
X39558820Y-38112715D01*
X39500326Y-38292742D01*
X39480540Y-38480999D01*
X36213950Y-38480999D01*
X36253301Y-38412841D01*
X36292323Y-38292744D01*
X36311796Y-38232813D01*
X36331582Y-38044557D01*
X36311796Y-37856301D01*
X36259987Y-37696849D01*
X36253301Y-37676272D01*
X36158655Y-37512340D01*
X36031992Y-37371667D01*
X35878852Y-37260405D01*
X35705924Y-37183412D01*
X35520770Y-37144057D01*
X35520768Y-37144057D01*
X35331476Y-37144057D01*
X35331474Y-37144057D01*
X35146319Y-37183412D01*
X34973391Y-37260405D01*
X34820251Y-37371667D01*
X34693588Y-37512340D01*
X34598942Y-37676272D01*
X34540448Y-37856299D01*
X34520662Y-38044556D01*
X21952833Y-38044556D01*
X21941533Y-38024983D01*
X21814870Y-37884310D01*
X21661730Y-37773048D01*
X21488802Y-37696055D01*
X21303648Y-37656700D01*
X21303646Y-37656700D01*
X21114354Y-37656700D01*
X21114352Y-37656700D01*
X20929197Y-37696055D01*
X20756269Y-37773048D01*
X20603129Y-37884310D01*
X20476466Y-38024983D01*
X20381820Y-38188915D01*
X20323326Y-38368942D01*
X20303540Y-38557200D01*
X18261621Y-38557200D01*
X18247174Y-38419744D01*
X18188679Y-38239716D01*
X18188679Y-38239715D01*
X18094035Y-38075786D01*
X18048291Y-38024983D01*
X18021272Y-37994974D01*
X17991043Y-37931985D01*
X17999668Y-37862650D01*
X18021270Y-37829036D01*
X18029933Y-37819416D01*
X18124579Y-37655484D01*
X18183074Y-37475456D01*
X18202860Y-37287200D01*
X18183074Y-37098944D01*
X18126723Y-36925517D01*
X18124729Y-36855677D01*
X18160809Y-36795844D01*
X18223510Y-36765016D01*
X18244655Y-36763200D01*
X18354256Y-36763200D01*
X18357855Y-36763200D01*
X18487611Y-36748034D01*
X18651484Y-36688389D01*
X18797184Y-36592560D01*
X18916858Y-36465713D01*
X19004053Y-36314687D01*
X19054068Y-36147623D01*
X19059121Y-36060871D01*
X19594591Y-36060871D01*
X19624873Y-36232610D01*
X19693947Y-36392739D01*
X19798083Y-36532620D01*
X19798084Y-36532621D01*
X19798085Y-36532622D01*
X19931675Y-36644717D01*
X20087516Y-36722983D01*
X20257205Y-36763200D01*
X20257207Y-36763200D01*
X20384256Y-36763200D01*
X20387855Y-36763200D01*
X20517611Y-36748034D01*
X20681484Y-36688389D01*
X20827184Y-36592560D01*
X20946858Y-36465713D01*
X21029831Y-36322000D01*
X54534722Y-36322000D01*
X54553792Y-36539974D01*
X54610425Y-36751331D01*
X54631182Y-36795844D01*
X54702898Y-36949639D01*
X54828402Y-37128877D01*
X54983123Y-37283598D01*
X55162361Y-37409102D01*
X55360670Y-37501575D01*
X55572023Y-37558207D01*
X55717340Y-37570920D01*
X55789999Y-37577277D01*
X55789999Y-37577276D01*
X55790000Y-37577277D01*
X56007977Y-37558207D01*
X56219330Y-37501575D01*
X56417639Y-37409102D01*
X56596877Y-37283598D01*
X56751598Y-37128877D01*
X56877102Y-36949639D01*
X56969575Y-36751330D01*
X57026207Y-36539977D01*
X57045277Y-36322000D01*
X62034722Y-36322000D01*
X62053792Y-36539974D01*
X62110425Y-36751331D01*
X62131182Y-36795844D01*
X62202898Y-36949639D01*
X62328402Y-37128877D01*
X62483123Y-37283598D01*
X62662361Y-37409102D01*
X62860670Y-37501575D01*
X63072023Y-37558207D01*
X63217340Y-37570920D01*
X63289999Y-37577277D01*
X63289999Y-37577276D01*
X63290000Y-37577277D01*
X63507977Y-37558207D01*
X63719330Y-37501575D01*
X63917639Y-37409102D01*
X64096877Y-37283598D01*
X64251598Y-37128877D01*
X64377102Y-36949639D01*
X64469575Y-36751330D01*
X64526207Y-36539977D01*
X64545277Y-36322000D01*
X64526207Y-36104023D01*
X64469575Y-35892670D01*
X64377102Y-35694362D01*
X64251598Y-35515123D01*
X64096877Y-35360402D01*
X63917639Y-35234898D01*
X63802578Y-35181244D01*
X63719331Y-35142425D01*
X63507974Y-35085792D01*
X63289999Y-35066722D01*
X63072025Y-35085792D01*
X62860668Y-35142425D01*
X62662361Y-35234898D01*
X62483122Y-35360402D01*
X62328402Y-35515122D01*
X62202898Y-35694361D01*
X62110425Y-35892668D01*
X62053792Y-36104025D01*
X62034722Y-36322000D01*
X57045277Y-36322000D01*
X57026207Y-36104023D01*
X56969575Y-35892670D01*
X56877102Y-35694362D01*
X56751598Y-35515123D01*
X56596877Y-35360402D01*
X56417639Y-35234898D01*
X56302578Y-35181244D01*
X56219331Y-35142425D01*
X56007974Y-35085792D01*
X55789999Y-35066722D01*
X55572025Y-35085792D01*
X55360668Y-35142425D01*
X55162361Y-35234898D01*
X54983122Y-35360402D01*
X54828402Y-35515122D01*
X54702898Y-35694361D01*
X54610425Y-35892668D01*
X54553792Y-36104025D01*
X54534722Y-36322000D01*
X21029831Y-36322000D01*
X21034053Y-36314687D01*
X21084068Y-36147623D01*
X21094208Y-35973529D01*
X21063926Y-35801788D01*
X20994853Y-35641661D01*
X20890715Y-35501778D01*
X20757125Y-35389683D01*
X20716935Y-35369499D01*
X25447040Y-35369499D01*
X25466826Y-35557757D01*
X25525320Y-35737784D01*
X25619966Y-35901716D01*
X25746629Y-36042389D01*
X25899769Y-36153651D01*
X26072697Y-36230644D01*
X26257852Y-36270000D01*
X26257854Y-36270000D01*
X26447148Y-36270000D01*
X26570584Y-36243762D01*
X26632303Y-36230644D01*
X26805230Y-36153651D01*
X26873535Y-36104025D01*
X26958370Y-36042389D01*
X27085033Y-35901716D01*
X27179679Y-35737784D01*
X27210911Y-35641661D01*
X27238174Y-35557756D01*
X27257960Y-35369500D01*
X27238174Y-35181244D01*
X27179679Y-35001216D01*
X27179679Y-35001215D01*
X27085033Y-34837283D01*
X26958370Y-34696610D01*
X26805230Y-34585348D01*
X26632302Y-34508355D01*
X26447148Y-34469000D01*
X26447146Y-34469000D01*
X26257854Y-34469000D01*
X26257852Y-34469000D01*
X26072697Y-34508355D01*
X25899769Y-34585348D01*
X25746629Y-34696610D01*
X25619966Y-34837283D01*
X25525320Y-35001215D01*
X25466826Y-35181242D01*
X25447040Y-35369499D01*
X20716935Y-35369499D01*
X20601284Y-35311417D01*
X20431595Y-35271200D01*
X20300945Y-35271200D01*
X20297378Y-35271616D01*
X20297376Y-35271617D01*
X20171186Y-35286366D01*
X20007316Y-35346010D01*
X19861615Y-35441840D01*
X19741942Y-35568686D01*
X19654747Y-35719712D01*
X19604732Y-35886778D01*
X19594591Y-36060871D01*
X19059121Y-36060871D01*
X19064208Y-35973529D01*
X19033926Y-35801788D01*
X18964853Y-35641661D01*
X18860715Y-35501778D01*
X18727125Y-35389683D01*
X18571284Y-35311417D01*
X18401595Y-35271200D01*
X18270945Y-35271200D01*
X18267378Y-35271616D01*
X18267376Y-35271617D01*
X18141186Y-35286366D01*
X17977316Y-35346010D01*
X17831615Y-35441840D01*
X17711942Y-35568686D01*
X17624747Y-35719712D01*
X17574732Y-35886778D01*
X17564591Y-36060871D01*
X17597391Y-36246886D01*
X17595674Y-36247188D01*
X17601982Y-36298789D01*
X17571619Y-36361717D01*
X17512054Y-36398239D01*
X17453865Y-36399839D01*
X17392049Y-36386700D01*
X17392046Y-36386700D01*
X17202754Y-36386700D01*
X17202752Y-36386700D01*
X17017597Y-36426055D01*
X16844669Y-36503048D01*
X16691529Y-36614310D01*
X16564866Y-36754983D01*
X16470220Y-36918915D01*
X16411726Y-37098942D01*
X16391940Y-37287200D01*
X16411726Y-37475457D01*
X16470220Y-37655484D01*
X16564866Y-37819415D01*
X16637625Y-37900222D01*
X16667855Y-37963213D01*
X16659230Y-38032548D01*
X16637629Y-38066162D01*
X16628967Y-38075782D01*
X16534320Y-38239715D01*
X16475826Y-38419742D01*
X16456040Y-38608000D01*
X16475826Y-38796257D01*
X16534321Y-38976286D01*
X16593474Y-39078743D01*
X16609947Y-39146643D01*
X16587094Y-39212670D01*
X16578238Y-39223713D01*
X16514066Y-39294983D01*
X16419420Y-39458915D01*
X16360926Y-39638942D01*
X16341140Y-39827200D01*
X116500Y-39827200D01*
X116500Y-33020000D01*
X1507540Y-33020000D01*
X1527326Y-33208257D01*
X1585820Y-33388284D01*
X1680466Y-33552216D01*
X1807129Y-33692889D01*
X1960269Y-33804151D01*
X2133197Y-33881144D01*
X2318352Y-33920500D01*
X2318354Y-33920500D01*
X2507648Y-33920500D01*
X2631083Y-33894262D01*
X2692803Y-33881144D01*
X2865730Y-33804151D01*
X2915350Y-33768100D01*
X3018870Y-33692889D01*
X3145533Y-33552216D01*
X3240179Y-33388284D01*
X3240179Y-33388283D01*
X3298674Y-33208256D01*
X3305679Y-33141599D01*
X3332263Y-33076986D01*
X3389561Y-33037001D01*
X3459380Y-33034341D01*
X3519553Y-33069850D01*
X3550977Y-33132255D01*
X3552318Y-33141586D01*
X3558193Y-33197476D01*
X3559326Y-33208257D01*
X3617820Y-33388284D01*
X3712466Y-33552216D01*
X3839129Y-33692889D01*
X3992269Y-33804151D01*
X4165197Y-33881144D01*
X4350352Y-33920500D01*
X4350354Y-33920500D01*
X4539648Y-33920500D01*
X4663083Y-33894262D01*
X4724803Y-33881144D01*
X4897730Y-33804151D01*
X4947350Y-33768100D01*
X5050870Y-33692889D01*
X5177533Y-33552216D01*
X5272179Y-33388284D01*
X5272179Y-33388283D01*
X5330674Y-33208256D01*
X5337679Y-33141599D01*
X5364263Y-33076986D01*
X5421561Y-33037001D01*
X5491380Y-33034341D01*
X5551553Y-33069850D01*
X5582977Y-33132255D01*
X5584318Y-33141586D01*
X5590193Y-33197476D01*
X5591326Y-33208257D01*
X5649820Y-33388284D01*
X5744466Y-33552216D01*
X5871129Y-33692889D01*
X6024269Y-33804151D01*
X6197197Y-33881144D01*
X6382352Y-33920500D01*
X6382354Y-33920500D01*
X6571648Y-33920500D01*
X6695083Y-33894262D01*
X6756803Y-33881144D01*
X6929730Y-33804151D01*
X6979350Y-33768100D01*
X7082870Y-33692889D01*
X7209533Y-33552216D01*
X7304179Y-33388284D01*
X7304179Y-33388283D01*
X7362674Y-33208256D01*
X7382460Y-33020000D01*
X7366443Y-32867600D01*
X32927340Y-32867600D01*
X32947126Y-33055857D01*
X33005620Y-33235884D01*
X33100266Y-33399816D01*
X33226929Y-33540489D01*
X33380069Y-33651751D01*
X33552997Y-33728744D01*
X33738152Y-33768100D01*
X33738154Y-33768100D01*
X33927448Y-33768100D01*
X34050884Y-33741862D01*
X34112603Y-33728744D01*
X34285530Y-33651751D01*
X34438671Y-33540488D01*
X34565333Y-33399816D01*
X34659979Y-33235884D01*
X34718474Y-33055856D01*
X34738260Y-32867600D01*
X34718474Y-32679344D01*
X34659979Y-32499316D01*
X34659979Y-32499315D01*
X34565333Y-32335383D01*
X34438670Y-32194710D01*
X34285530Y-32083448D01*
X34112602Y-32006455D01*
X33927448Y-31967100D01*
X33927446Y-31967100D01*
X33738154Y-31967100D01*
X33738152Y-31967100D01*
X33552997Y-32006455D01*
X33380069Y-32083448D01*
X33226929Y-32194710D01*
X33100266Y-32335383D01*
X33005620Y-32499315D01*
X32947126Y-32679342D01*
X32927340Y-32867600D01*
X7366443Y-32867600D01*
X7362674Y-32831744D01*
X7313156Y-32679344D01*
X7304179Y-32651715D01*
X7209533Y-32487783D01*
X7082870Y-32347110D01*
X6929730Y-32235848D01*
X6756802Y-32158855D01*
X6571648Y-32119500D01*
X6571646Y-32119500D01*
X6382354Y-32119500D01*
X6382352Y-32119500D01*
X6197197Y-32158855D01*
X6024269Y-32235848D01*
X5871129Y-32347110D01*
X5744466Y-32487783D01*
X5649820Y-32651715D01*
X5591326Y-32831742D01*
X5591325Y-32831744D01*
X5591326Y-32831744D01*
X5584320Y-32898400D01*
X5557736Y-32963013D01*
X5500439Y-33002998D01*
X5430620Y-33005658D01*
X5370446Y-32970149D01*
X5339023Y-32907744D01*
X5337681Y-32898413D01*
X5330674Y-32831744D01*
X5281156Y-32679344D01*
X5272179Y-32651715D01*
X5177533Y-32487783D01*
X5050870Y-32347110D01*
X4897730Y-32235848D01*
X4724802Y-32158855D01*
X4539648Y-32119500D01*
X4539646Y-32119500D01*
X4350354Y-32119500D01*
X4350352Y-32119500D01*
X4165197Y-32158855D01*
X3992269Y-32235848D01*
X3839129Y-32347110D01*
X3712466Y-32487783D01*
X3617820Y-32651715D01*
X3559326Y-32831742D01*
X3559325Y-32831744D01*
X3559326Y-32831744D01*
X3552320Y-32898400D01*
X3525736Y-32963013D01*
X3468439Y-33002998D01*
X3398620Y-33005658D01*
X3338446Y-32970149D01*
X3307023Y-32907744D01*
X3305681Y-32898413D01*
X3298674Y-32831744D01*
X3249156Y-32679344D01*
X3240179Y-32651715D01*
X3145533Y-32487783D01*
X3018870Y-32347110D01*
X2865730Y-32235848D01*
X2692802Y-32158855D01*
X2507648Y-32119500D01*
X2507646Y-32119500D01*
X2318354Y-32119500D01*
X2318352Y-32119500D01*
X2133197Y-32158855D01*
X1960269Y-32235848D01*
X1807129Y-32347110D01*
X1680466Y-32487783D01*
X1585820Y-32651715D01*
X1527326Y-32831742D01*
X1507540Y-33020000D01*
X116500Y-33020000D01*
X116500Y-30988000D01*
X23605540Y-30988000D01*
X23625326Y-31176257D01*
X23683820Y-31356284D01*
X23778466Y-31520216D01*
X23905129Y-31660889D01*
X24058269Y-31772151D01*
X24231197Y-31849144D01*
X24416352Y-31888500D01*
X24416354Y-31888500D01*
X24605648Y-31888500D01*
X24729084Y-31862262D01*
X24790803Y-31849144D01*
X24963730Y-31772151D01*
X25116871Y-31660888D01*
X25180850Y-31589831D01*
X25240336Y-31553183D01*
X25310193Y-31554513D01*
X25365150Y-31589832D01*
X25429129Y-31660889D01*
X25582269Y-31772151D01*
X25755197Y-31849144D01*
X25940352Y-31888500D01*
X25940354Y-31888500D01*
X26129648Y-31888500D01*
X26253084Y-31862262D01*
X26314803Y-31849144D01*
X26487730Y-31772151D01*
X26640871Y-31660888D01*
X26767533Y-31520216D01*
X26862179Y-31356284D01*
X26920674Y-31176256D01*
X26940460Y-30988000D01*
X26920674Y-30799744D01*
X26862179Y-30619716D01*
X26862179Y-30619715D01*
X26781514Y-30479999D01*
X31225540Y-30479999D01*
X31245326Y-30668257D01*
X31303820Y-30848284D01*
X31398466Y-31012216D01*
X31525129Y-31152889D01*
X31678269Y-31264151D01*
X31851197Y-31341144D01*
X32036352Y-31380500D01*
X32036354Y-31380500D01*
X32225648Y-31380500D01*
X32349084Y-31354262D01*
X32410803Y-31341144D01*
X32583730Y-31264151D01*
X32736871Y-31152888D01*
X32863533Y-31012216D01*
X32958179Y-30848284D01*
X33016674Y-30668256D01*
X33036460Y-30480000D01*
X33016674Y-30291744D01*
X32980655Y-30180889D01*
X32958179Y-30111715D01*
X32863533Y-29947783D01*
X32736870Y-29807110D01*
X32583730Y-29695848D01*
X32410802Y-29618855D01*
X32225648Y-29579500D01*
X32225646Y-29579500D01*
X32036354Y-29579500D01*
X32036352Y-29579500D01*
X31851197Y-29618855D01*
X31678269Y-29695848D01*
X31525129Y-29807110D01*
X31398466Y-29947783D01*
X31303820Y-30111715D01*
X31245326Y-30291742D01*
X31225540Y-30479999D01*
X26781514Y-30479999D01*
X26767533Y-30455783D01*
X26640870Y-30315110D01*
X26487730Y-30203848D01*
X26314802Y-30126855D01*
X26129648Y-30087500D01*
X26129646Y-30087500D01*
X25940354Y-30087500D01*
X25940352Y-30087500D01*
X25755197Y-30126855D01*
X25582269Y-30203848D01*
X25429129Y-30315111D01*
X25365148Y-30386168D01*
X25305661Y-30422816D01*
X25235804Y-30421485D01*
X25180849Y-30386167D01*
X25116870Y-30315110D01*
X24963730Y-30203848D01*
X24790802Y-30126855D01*
X24605648Y-30087500D01*
X24605646Y-30087500D01*
X24416354Y-30087500D01*
X24416352Y-30087500D01*
X24231197Y-30126855D01*
X24058269Y-30203848D01*
X23905129Y-30315110D01*
X23778466Y-30455783D01*
X23683820Y-30619715D01*
X23625326Y-30799742D01*
X23605540Y-30988000D01*
X116500Y-30988000D01*
X116500Y-29296999D01*
X5250340Y-29296999D01*
X5270936Y-29532407D01*
X5332096Y-29760662D01*
X5332097Y-29760663D01*
X5431965Y-29974829D01*
X5567505Y-30168401D01*
X5734599Y-30335495D01*
X5928171Y-30471035D01*
X6142337Y-30570903D01*
X6370592Y-30632063D01*
X6547034Y-30647500D01*
X6549742Y-30647500D01*
X6912258Y-30647500D01*
X6914966Y-30647500D01*
X7091408Y-30632063D01*
X7319663Y-30570903D01*
X7533829Y-30471035D01*
X7727401Y-30335495D01*
X7894495Y-30168401D01*
X8030035Y-29974830D01*
X8129903Y-29760663D01*
X8191063Y-29532408D01*
X8193198Y-29508000D01*
X37270740Y-29508000D01*
X37290526Y-29696257D01*
X37349020Y-29876284D01*
X37443666Y-30040216D01*
X37570329Y-30180889D01*
X37723469Y-30292151D01*
X37896397Y-30369144D01*
X38081552Y-30408500D01*
X38081554Y-30408500D01*
X38270848Y-30408500D01*
X38394283Y-30382262D01*
X38456003Y-30369144D01*
X38628930Y-30292151D01*
X38782071Y-30180888D01*
X38908733Y-30040216D01*
X39003379Y-29876284D01*
X39061874Y-29696256D01*
X39081660Y-29508000D01*
X39061874Y-29319744D01*
X39003379Y-29139716D01*
X38999352Y-29127321D01*
X39003719Y-29125901D01*
X38993292Y-29082767D01*
X39016198Y-29016758D01*
X39051635Y-28987807D01*
X39050186Y-28985812D01*
X39213870Y-28866889D01*
X39244081Y-28833337D01*
X39340533Y-28726216D01*
X39435179Y-28562284D01*
X39493674Y-28382256D01*
X39513460Y-28194000D01*
X39493674Y-28005744D01*
X39463332Y-27912363D01*
X39435179Y-27825715D01*
X39340533Y-27661783D01*
X39213870Y-27521110D01*
X39060730Y-27409848D01*
X38887802Y-27332855D01*
X38702648Y-27293500D01*
X38702646Y-27293500D01*
X38513354Y-27293500D01*
X38513352Y-27293500D01*
X38328197Y-27332855D01*
X38155269Y-27409848D01*
X38002129Y-27521110D01*
X37875466Y-27661783D01*
X37780820Y-27825715D01*
X37722326Y-28005742D01*
X37702540Y-28193999D01*
X37722326Y-28382257D01*
X37784848Y-28574679D01*
X37780463Y-28576103D01*
X37790919Y-28619005D01*
X37768134Y-28685055D01*
X37732555Y-28714182D01*
X37734013Y-28716189D01*
X37570329Y-28835111D01*
X37443666Y-28975783D01*
X37349020Y-29139715D01*
X37290526Y-29319742D01*
X37270740Y-29508000D01*
X8193198Y-29508000D01*
X8211659Y-29297000D01*
X8191063Y-29061592D01*
X8129903Y-28833337D01*
X8030035Y-28619171D01*
X7894495Y-28425599D01*
X7727401Y-28258505D01*
X7570401Y-28148573D01*
X7526778Y-28093998D01*
X7519584Y-28024500D01*
X7551107Y-27962145D01*
X7570398Y-27945428D01*
X7727401Y-27835495D01*
X7894495Y-27668401D01*
X8030035Y-27474830D01*
X8129903Y-27260663D01*
X8191063Y-27032408D01*
X8200548Y-26923999D01*
X23605540Y-26923999D01*
X23625326Y-27112257D01*
X23683820Y-27292284D01*
X23778466Y-27456216D01*
X23905129Y-27596889D01*
X24058269Y-27708151D01*
X24231197Y-27785144D01*
X24416352Y-27824500D01*
X24416354Y-27824500D01*
X24605648Y-27824500D01*
X24729084Y-27798262D01*
X24790803Y-27785144D01*
X24963730Y-27708151D01*
X25018437Y-27668404D01*
X25116870Y-27596889D01*
X25243533Y-27456216D01*
X25338179Y-27292284D01*
X25348454Y-27260662D01*
X25396674Y-27112256D01*
X25410223Y-26983337D01*
X25436807Y-26918724D01*
X25494105Y-26878739D01*
X25533544Y-26872300D01*
X25723248Y-26872300D01*
X25848983Y-26845574D01*
X25908403Y-26832944D01*
X26081330Y-26755951D01*
X26234471Y-26644688D01*
X26361133Y-26504016D01*
X26372805Y-26483800D01*
X34722340Y-26483800D01*
X34730516Y-26561592D01*
X34742126Y-26672057D01*
X34800620Y-26852084D01*
X34895266Y-27016016D01*
X35021929Y-27156689D01*
X35175069Y-27267951D01*
X35347997Y-27344944D01*
X35533152Y-27384300D01*
X35533154Y-27384300D01*
X35722448Y-27384300D01*
X35845884Y-27358062D01*
X35907603Y-27344944D01*
X36080530Y-27267951D01*
X36090561Y-27260663D01*
X36233670Y-27156689D01*
X36360333Y-27016016D01*
X36454979Y-26852084D01*
X36472877Y-26796999D01*
X36513474Y-26672056D01*
X36533260Y-26483800D01*
X36513474Y-26295544D01*
X36469451Y-26160056D01*
X36454979Y-26115515D01*
X36360333Y-25951583D01*
X36233670Y-25810910D01*
X36080530Y-25699648D01*
X35907602Y-25622655D01*
X35722448Y-25583300D01*
X35722446Y-25583300D01*
X35533154Y-25583300D01*
X35533152Y-25583300D01*
X35347997Y-25622655D01*
X35175069Y-25699648D01*
X35021929Y-25810910D01*
X34895266Y-25951583D01*
X34800620Y-26115515D01*
X34742126Y-26295542D01*
X34742125Y-26295544D01*
X34742126Y-26295544D01*
X34722340Y-26483800D01*
X26372805Y-26483800D01*
X26455779Y-26340084D01*
X26514274Y-26160056D01*
X26534060Y-25971800D01*
X26514274Y-25783544D01*
X26483932Y-25690163D01*
X26455779Y-25603515D01*
X26361133Y-25439583D01*
X26234470Y-25298910D01*
X26081330Y-25187648D01*
X25908402Y-25110655D01*
X25723248Y-25071300D01*
X25723246Y-25071300D01*
X25533954Y-25071300D01*
X25533952Y-25071300D01*
X25348797Y-25110655D01*
X25175869Y-25187648D01*
X25022729Y-25298910D01*
X24896066Y-25439583D01*
X24801420Y-25603515D01*
X24742926Y-25783542D01*
X24729377Y-25912461D01*
X24702793Y-25977076D01*
X24645495Y-26017061D01*
X24606056Y-26023500D01*
X24416352Y-26023500D01*
X24231197Y-26062855D01*
X24058269Y-26139848D01*
X23905129Y-26251110D01*
X23778466Y-26391783D01*
X23683820Y-26555715D01*
X23625326Y-26735742D01*
X23605540Y-26923999D01*
X8200548Y-26923999D01*
X8211659Y-26797000D01*
X8206299Y-26735742D01*
X8191063Y-26561592D01*
X8170219Y-26483800D01*
X8129903Y-26333337D01*
X8030035Y-26119171D01*
X7894495Y-25925599D01*
X7746931Y-25778035D01*
X7713446Y-25716712D01*
X7718430Y-25647020D01*
X7760302Y-25591087D01*
X7769516Y-25584815D01*
X7924345Y-25489316D01*
X8048316Y-25365345D01*
X8140357Y-25216122D01*
X8195506Y-25049696D01*
X8205680Y-24950109D01*
X8206000Y-24943831D01*
X8206000Y-24547000D01*
X7134969Y-24547000D01*
X7167519Y-24496351D01*
X7206000Y-24365295D01*
X7206000Y-24228705D01*
X7167519Y-24097649D01*
X7134969Y-24047000D01*
X8205999Y-24047000D01*
X8205999Y-23982396D01*
X63136746Y-23982396D01*
X63146746Y-24192330D01*
X63196297Y-24396580D01*
X63283602Y-24587752D01*
X63393846Y-24742566D01*
X63405514Y-24758952D01*
X63485368Y-24835092D01*
X63508082Y-24856750D01*
X63543017Y-24917259D01*
X63539692Y-24987049D01*
X63499164Y-25043964D01*
X63487609Y-25052031D01*
X63422343Y-25092287D01*
X63298288Y-25216342D01*
X63206186Y-25365665D01*
X63151000Y-25532202D01*
X63140819Y-25631858D01*
X63140817Y-25631878D01*
X63140500Y-25634991D01*
X63140500Y-25638138D01*
X63140500Y-25638139D01*
X63140500Y-26431858D01*
X63140500Y-26431877D01*
X63140501Y-26435008D01*
X63140820Y-26438140D01*
X63140821Y-26438141D01*
X63151000Y-26537796D01*
X63206186Y-26704334D01*
X63298288Y-26853657D01*
X63422342Y-26977711D01*
X63422344Y-26977712D01*
X63571666Y-27069814D01*
X63683016Y-27106712D01*
X63738202Y-27124999D01*
X63837858Y-27135180D01*
X63837859Y-27135180D01*
X63840991Y-27135500D01*
X65191008Y-27135499D01*
X65293797Y-27124999D01*
X65460334Y-27069814D01*
X65609656Y-26977712D01*
X65733712Y-26853656D01*
X65825814Y-26704334D01*
X65880999Y-26537797D01*
X65891500Y-26435009D01*
X65891499Y-25634992D01*
X65880999Y-25532203D01*
X65825814Y-25365666D01*
X65733712Y-25216344D01*
X65733711Y-25216342D01*
X65609658Y-25092289D01*
X65546260Y-25053185D01*
X65499536Y-25001237D01*
X65488313Y-24932274D01*
X65516157Y-24868192D01*
X65534703Y-24850177D01*
X65553886Y-24835092D01*
X65691519Y-24676256D01*
X65796604Y-24494244D01*
X65865344Y-24295633D01*
X65895254Y-24087602D01*
X65885254Y-23877670D01*
X65835704Y-23673424D01*
X65835702Y-23673419D01*
X65748397Y-23482247D01*
X65626487Y-23311050D01*
X65626486Y-23311048D01*
X65474378Y-23166014D01*
X65433055Y-23139457D01*
X65387302Y-23086654D01*
X65377358Y-23017496D01*
X65406383Y-22953940D01*
X65423434Y-22937681D01*
X65553886Y-22835092D01*
X65691519Y-22676256D01*
X65796604Y-22494244D01*
X65865344Y-22295633D01*
X65895254Y-22087602D01*
X65885254Y-21877670D01*
X65835704Y-21673424D01*
X65835702Y-21673419D01*
X65748397Y-21482247D01*
X65626487Y-21311050D01*
X65626486Y-21311048D01*
X65474378Y-21166014D01*
X65432610Y-21139171D01*
X65386857Y-21086368D01*
X65376913Y-21017210D01*
X65405938Y-20953654D01*
X65423000Y-20937386D01*
X65553538Y-20834729D01*
X65691111Y-20675963D01*
X65796146Y-20494036D01*
X65864856Y-20295511D01*
X65866368Y-20285000D01*
X64795560Y-20285000D01*
X64834278Y-20242941D01*
X64884551Y-20128330D01*
X64894886Y-20003605D01*
X64864163Y-19882281D01*
X64800606Y-19785000D01*
X65862257Y-19785000D01*
X65835229Y-19673589D01*
X65747960Y-19482494D01*
X65626107Y-19311378D01*
X65474066Y-19166407D01*
X65297344Y-19052833D01*
X65102314Y-18974755D01*
X64896038Y-18935000D01*
X64766000Y-18935000D01*
X64766000Y-19754382D01*
X64696948Y-19700637D01*
X64578576Y-19660000D01*
X64484927Y-19660000D01*
X64392554Y-19675414D01*
X64282486Y-19734981D01*
X64266000Y-19752889D01*
X64266000Y-18935000D01*
X64191550Y-18935000D01*
X64185640Y-18935281D01*
X64031879Y-18949964D01*
X63830312Y-19009149D01*
X63643587Y-19105412D01*
X63478461Y-19235269D01*
X63340888Y-19394036D01*
X63235853Y-19575963D01*
X63167143Y-19774488D01*
X63165631Y-19784999D01*
X63165632Y-19785000D01*
X64236440Y-19785000D01*
X64197722Y-19827059D01*
X64147449Y-19941670D01*
X64137114Y-20066395D01*
X64167837Y-20187719D01*
X64231394Y-20285000D01*
X63169742Y-20285000D01*
X63196770Y-20396410D01*
X63284039Y-20587505D01*
X63405892Y-20758621D01*
X63557933Y-20903592D01*
X63599358Y-20930215D01*
X63645113Y-20983019D01*
X63655056Y-21052177D01*
X63626031Y-21115733D01*
X63608970Y-21132000D01*
X63478116Y-21234906D01*
X63340479Y-21393745D01*
X63235396Y-21575754D01*
X63166655Y-21774366D01*
X63136746Y-21982396D01*
X63146746Y-22192330D01*
X63196297Y-22396580D01*
X63283602Y-22587752D01*
X63393846Y-22742566D01*
X63405514Y-22758952D01*
X63557622Y-22903986D01*
X63598943Y-22930542D01*
X63644697Y-22983344D01*
X63654641Y-23052503D01*
X63625616Y-23116058D01*
X63608556Y-23132326D01*
X63478113Y-23234908D01*
X63340479Y-23393745D01*
X63235396Y-23575754D01*
X63166655Y-23774366D01*
X63136746Y-23982396D01*
X8205999Y-23982396D01*
X8205999Y-23650170D01*
X8205678Y-23643888D01*
X8195506Y-23544304D01*
X8140357Y-23377877D01*
X8048316Y-23228654D01*
X7924345Y-23104683D01*
X7775122Y-23012642D01*
X7608696Y-22957493D01*
X7509109Y-22947319D01*
X7502832Y-22947000D01*
X6981000Y-22947000D01*
X6981000Y-23888981D01*
X6866199Y-23836554D01*
X6764975Y-23822000D01*
X6697025Y-23822000D01*
X6595801Y-23836554D01*
X6480999Y-23888981D01*
X6481000Y-22947000D01*
X5959171Y-22947000D01*
X5952888Y-22947321D01*
X5853304Y-22957493D01*
X5686877Y-23012642D01*
X5537654Y-23104683D01*
X5413683Y-23228654D01*
X5321642Y-23377877D01*
X5266493Y-23544303D01*
X5256319Y-23643890D01*
X5256000Y-23650168D01*
X5256000Y-24047000D01*
X6327031Y-24047000D01*
X6294481Y-24097649D01*
X6256000Y-24228705D01*
X6256000Y-24365295D01*
X6294481Y-24496351D01*
X6327031Y-24547000D01*
X5256001Y-24547000D01*
X5256001Y-24943829D01*
X5256321Y-24950111D01*
X5266493Y-25049695D01*
X5321642Y-25216122D01*
X5413683Y-25365345D01*
X5537653Y-25489315D01*
X5692484Y-25584815D01*
X5739208Y-25636763D01*
X5750431Y-25705725D01*
X5722587Y-25769808D01*
X5715068Y-25778034D01*
X5567505Y-25925599D01*
X5434525Y-26115515D01*
X5431964Y-26119172D01*
X5332097Y-26333337D01*
X5270936Y-26561592D01*
X5250340Y-26796999D01*
X5270936Y-27032407D01*
X5332097Y-27260663D01*
X5431965Y-27474829D01*
X5567505Y-27668401D01*
X5734598Y-27835494D01*
X5891596Y-27945425D01*
X5935221Y-28000002D01*
X5942415Y-28069500D01*
X5910892Y-28131855D01*
X5891596Y-28148575D01*
X5734598Y-28258505D01*
X5567508Y-28425595D01*
X5431964Y-28619172D01*
X5332097Y-28833337D01*
X5270936Y-29061592D01*
X5250340Y-29296999D01*
X116500Y-29296999D01*
X116500Y-16552396D01*
X4827746Y-16552396D01*
X4837746Y-16762330D01*
X4887297Y-16966580D01*
X4974602Y-17157752D01*
X5084846Y-17312566D01*
X5096514Y-17328952D01*
X5248622Y-17473986D01*
X5272140Y-17489100D01*
X5290387Y-17500827D01*
X5336142Y-17553631D01*
X5346085Y-17622790D01*
X5317060Y-17686345D01*
X5300000Y-17702612D01*
X5169460Y-17805271D01*
X5031888Y-17964036D01*
X4926853Y-18145963D01*
X4858143Y-18344488D01*
X4856631Y-18354999D01*
X4856632Y-18355000D01*
X5927440Y-18355000D01*
X5888722Y-18397059D01*
X5838449Y-18511670D01*
X5828114Y-18636395D01*
X5858837Y-18757719D01*
X5922394Y-18855000D01*
X4860742Y-18855000D01*
X4887770Y-18966410D01*
X4975039Y-19157505D01*
X5096892Y-19328621D01*
X5248933Y-19473592D01*
X5425655Y-19587166D01*
X5620685Y-19665244D01*
X5826962Y-19705000D01*
X5957000Y-19705000D01*
X5957000Y-18885617D01*
X6026052Y-18939363D01*
X6144424Y-18980000D01*
X6238073Y-18980000D01*
X6330446Y-18964586D01*
X6440514Y-18905019D01*
X6457000Y-18887110D01*
X6457000Y-19705000D01*
X6531450Y-19705000D01*
X6537359Y-19704718D01*
X6691120Y-19690035D01*
X6892687Y-19630850D01*
X7079412Y-19534587D01*
X7244538Y-19404730D01*
X7382111Y-19245963D01*
X7421927Y-19177000D01*
X18144540Y-19177000D01*
X18164326Y-19365257D01*
X18222820Y-19545284D01*
X18317466Y-19709216D01*
X18444129Y-19849889D01*
X18597269Y-19961151D01*
X18770197Y-20038144D01*
X18955352Y-20077500D01*
X18955354Y-20077500D01*
X19144648Y-20077500D01*
X19268084Y-20051262D01*
X19329803Y-20038144D01*
X19502730Y-19961151D01*
X19655871Y-19849888D01*
X19782533Y-19709216D01*
X19877179Y-19545284D01*
X19935674Y-19365256D01*
X19955460Y-19177000D01*
X19935674Y-18988744D01*
X19877179Y-18808716D01*
X19877179Y-18808715D01*
X19782533Y-18644783D01*
X19655870Y-18504110D01*
X19502730Y-18392848D01*
X19495435Y-18389600D01*
X51647140Y-18389600D01*
X51647924Y-18397059D01*
X51666926Y-18577857D01*
X51725420Y-18757884D01*
X51820066Y-18921816D01*
X51946729Y-19062489D01*
X52099869Y-19173751D01*
X52272797Y-19250744D01*
X52457952Y-19290100D01*
X52457954Y-19290100D01*
X52647248Y-19290100D01*
X52770684Y-19263862D01*
X52832403Y-19250744D01*
X53005330Y-19173751D01*
X53099391Y-19105412D01*
X53158470Y-19062489D01*
X53285133Y-18921816D01*
X53379779Y-18757884D01*
X53399129Y-18698330D01*
X53438274Y-18577856D01*
X53458060Y-18389600D01*
X53438274Y-18201344D01*
X53407932Y-18107963D01*
X53379779Y-18021315D01*
X53285133Y-17857383D01*
X53158470Y-17716710D01*
X53005330Y-17605448D01*
X52832402Y-17528455D01*
X52647248Y-17489100D01*
X52647246Y-17489100D01*
X52457954Y-17489100D01*
X52457952Y-17489100D01*
X52272797Y-17528455D01*
X52099869Y-17605448D01*
X51946729Y-17716710D01*
X51820066Y-17857383D01*
X51725420Y-18021315D01*
X51666926Y-18201342D01*
X51647140Y-18389599D01*
X51647140Y-18389600D01*
X19495435Y-18389600D01*
X19329802Y-18315855D01*
X19144648Y-18276500D01*
X19144646Y-18276500D01*
X18955354Y-18276500D01*
X18955352Y-18276500D01*
X18770197Y-18315855D01*
X18597269Y-18392848D01*
X18444129Y-18504110D01*
X18317466Y-18644783D01*
X18222820Y-18808715D01*
X18164326Y-18988742D01*
X18144540Y-19177000D01*
X7421927Y-19177000D01*
X7487146Y-19064036D01*
X7555856Y-18865511D01*
X7557368Y-18855000D01*
X6486560Y-18855000D01*
X6525278Y-18812941D01*
X6575551Y-18698330D01*
X6585886Y-18573605D01*
X6555163Y-18452281D01*
X6491606Y-18355000D01*
X7553257Y-18355000D01*
X7526229Y-18243589D01*
X7438960Y-18052494D01*
X7317107Y-17881378D01*
X7165066Y-17736406D01*
X7123641Y-17709784D01*
X7077886Y-17656980D01*
X7067943Y-17587821D01*
X7096969Y-17524266D01*
X7114017Y-17508009D01*
X7244886Y-17405092D01*
X7382519Y-17246256D01*
X7487604Y-17064244D01*
X7556344Y-16865633D01*
X7586254Y-16657602D01*
X7576254Y-16447670D01*
X7526704Y-16243424D01*
X7526702Y-16243419D01*
X7439397Y-16052247D01*
X7317487Y-15881050D01*
X7317486Y-15881048D01*
X7165378Y-15736014D01*
X7124055Y-15709457D01*
X7078302Y-15656654D01*
X7068358Y-15587496D01*
X7097383Y-15523940D01*
X7114434Y-15507681D01*
X7244886Y-15405092D01*
X7382519Y-15246256D01*
X7487604Y-15064244D01*
X7556344Y-14865633D01*
X7586254Y-14657602D01*
X7576254Y-14447670D01*
X7526704Y-14243424D01*
X7526702Y-14243419D01*
X7439397Y-14052247D01*
X7317487Y-13881050D01*
X7317486Y-13881048D01*
X7225309Y-13793157D01*
X7214917Y-13783249D01*
X7179982Y-13722740D01*
X7183307Y-13652950D01*
X7223835Y-13596035D01*
X7235392Y-13587967D01*
X7300656Y-13547712D01*
X7424711Y-13423657D01*
X7424712Y-13423656D01*
X7516814Y-13274334D01*
X7571999Y-13107797D01*
X7582500Y-13005009D01*
X7582499Y-12204992D01*
X7571999Y-12102203D01*
X7516814Y-11935666D01*
X7424712Y-11786344D01*
X7424711Y-11786342D01*
X7300657Y-11662288D01*
X7151334Y-11570186D01*
X6984797Y-11515000D01*
X6885141Y-11504819D01*
X6885122Y-11504818D01*
X6882009Y-11504500D01*
X6878860Y-11504500D01*
X5535140Y-11504500D01*
X5535120Y-11504500D01*
X5531992Y-11504501D01*
X5528860Y-11504820D01*
X5528858Y-11504821D01*
X5429203Y-11515000D01*
X5262665Y-11570186D01*
X5113342Y-11662288D01*
X4989288Y-11786342D01*
X4897186Y-11935665D01*
X4842000Y-12102202D01*
X4831819Y-12201858D01*
X4831817Y-12201878D01*
X4831500Y-12204991D01*
X4831500Y-12208138D01*
X4831500Y-12208139D01*
X4831500Y-13001858D01*
X4831500Y-13001877D01*
X4831501Y-13005008D01*
X4831820Y-13008140D01*
X4831821Y-13008141D01*
X4842000Y-13107796D01*
X4897186Y-13274334D01*
X4989288Y-13423657D01*
X5113342Y-13547711D01*
X5176739Y-13586814D01*
X5223464Y-13638761D01*
X5234687Y-13707724D01*
X5206844Y-13771806D01*
X5188296Y-13789822D01*
X5169117Y-13804905D01*
X5031479Y-13963745D01*
X4926396Y-14145754D01*
X4857655Y-14344366D01*
X4827746Y-14552396D01*
X4837746Y-14762330D01*
X4887297Y-14966580D01*
X4974602Y-15157752D01*
X5084846Y-15312566D01*
X5096514Y-15328952D01*
X5248622Y-15473986D01*
X5289943Y-15500542D01*
X5335697Y-15553344D01*
X5345641Y-15622503D01*
X5316616Y-15686058D01*
X5299556Y-15702326D01*
X5169113Y-15804908D01*
X5031479Y-15963745D01*
X4926396Y-16145754D01*
X4857655Y-16344366D01*
X4827746Y-16552396D01*
X116500Y-16552396D01*
X116500Y-2092065D01*
X116765Y-2083955D01*
X121982Y-2004359D01*
X121983Y-2004350D01*
X134709Y-1826407D01*
X136770Y-1811101D01*
X159163Y-1698523D01*
X189795Y-1557717D01*
X193515Y-1544318D01*
X232243Y-1430230D01*
X233404Y-1426967D01*
X281068Y-1299177D01*
X286017Y-1287713D01*
X340481Y-1177272D01*
X342777Y-1172851D01*
X406855Y-1055501D01*
X412562Y-1046075D01*
X481639Y-942694D01*
X485425Y-937344D01*
X564850Y-831246D01*
X570823Y-823878D01*
X653161Y-729989D01*
X658648Y-724131D01*
X752131Y-630648D01*
X757989Y-625161D01*
X851878Y-542823D01*
X859246Y-536850D01*
X965344Y-457425D01*
X970694Y-453639D01*
X1074075Y-384562D01*
X1083501Y-378855D01*
X1200851Y-314777D01*
X1205272Y-312481D01*
X1315713Y-258017D01*
X1327177Y-253068D01*
X1454967Y-205404D01*
X1458230Y-204243D01*
X1572305Y-165519D01*
X1585754Y-161787D01*
X1726546Y-131159D01*
X1839125Y-108766D01*
X1854402Y-106709D01*
X2032208Y-93991D01*
X2108267Y-89006D01*
X2111958Y-88765D01*
X2120063Y-88500D01*
X4452494Y-88500D01*
X4519533Y-108185D01*
G37*
%TD.AperFunction*%
%TA.AperFunction,Conductor*%
G36*
X3632031Y-6550918D02*
G01*
X3846990Y-6751676D01*
X3871544Y-6769008D01*
X3221927Y-7418625D01*
X3230476Y-7388579D01*
X3220127Y-7276898D01*
X3170133Y-7176497D01*
X3087247Y-7100935D01*
X2982661Y-7060419D01*
X2898779Y-7060419D01*
X2867105Y-7066339D01*
X3520103Y-6413341D01*
X3632031Y-6550918D01*
G37*
%TD.AperFunction*%
%TA.AperFunction,Conductor*%
G36*
X64338031Y-6550918D02*
G01*
X64552990Y-6751676D01*
X64577544Y-6769008D01*
X63927927Y-7418625D01*
X63936476Y-7388579D01*
X63926127Y-7276898D01*
X63876133Y-7176497D01*
X63793247Y-7100935D01*
X63688661Y-7060419D01*
X63604779Y-7060419D01*
X63573105Y-7066339D01*
X64226103Y-6413341D01*
X64338031Y-6550918D01*
G37*
%TD.AperFunction*%
%TA.AperFunction,Conductor*%
G36*
X7540973Y-7060419D02*
G01*
X7459617Y-7060419D01*
X7377169Y-7075831D01*
X7281809Y-7134876D01*
X7214218Y-7224381D01*
X7183524Y-7332259D01*
X7191471Y-7418025D01*
X6542455Y-6769008D01*
X6567010Y-6751676D01*
X6781969Y-6550918D01*
X6893895Y-6413342D01*
X7540973Y-7060419D01*
G37*
%TD.AperFunction*%
%TA.AperFunction,Conductor*%
G36*
X68246973Y-7060419D02*
G01*
X68165617Y-7060419D01*
X68083169Y-7075831D01*
X67987809Y-7134876D01*
X67920218Y-7224381D01*
X67889524Y-7332259D01*
X67897471Y-7418025D01*
X67248455Y-6769008D01*
X67273010Y-6751676D01*
X67487969Y-6550918D01*
X67599895Y-6413342D01*
X68246973Y-7060419D01*
G37*
%TD.AperFunction*%
%TA.AperFunction,Conductor*%
G36*
X3871545Y-3390991D02*
G01*
X3846990Y-3408324D01*
X3632031Y-3609082D01*
X3520104Y-3746657D01*
X2873027Y-3099581D01*
X2954383Y-3099581D01*
X3036831Y-3084169D01*
X3132191Y-3025124D01*
X3199782Y-2935619D01*
X3230476Y-2827741D01*
X3222528Y-2741974D01*
X3871545Y-3390991D01*
G37*
%TD.AperFunction*%
%TA.AperFunction,Conductor*%
G36*
X64577545Y-3390991D02*
G01*
X64552990Y-3408324D01*
X64338031Y-3609082D01*
X64226104Y-3746657D01*
X63579027Y-3099581D01*
X63660383Y-3099581D01*
X63742831Y-3084169D01*
X63838191Y-3025124D01*
X63905782Y-2935619D01*
X63936476Y-2827741D01*
X63928528Y-2741974D01*
X64577545Y-3390991D01*
G37*
%TD.AperFunction*%
%TA.AperFunction,Conductor*%
G36*
X7183524Y-2771421D02*
G01*
X7193873Y-2883102D01*
X7243867Y-2983503D01*
X7326753Y-3059065D01*
X7431339Y-3099581D01*
X7515221Y-3099581D01*
X7546889Y-3093661D01*
X6893894Y-3746656D01*
X6781969Y-3609082D01*
X6567010Y-3408324D01*
X6542453Y-3390990D01*
X7192074Y-2741369D01*
X7183524Y-2771421D01*
G37*
%TD.AperFunction*%
%TA.AperFunction,Conductor*%
G36*
X67889524Y-2771421D02*
G01*
X67899873Y-2883102D01*
X67949867Y-2983503D01*
X68032753Y-3059065D01*
X68137339Y-3099581D01*
X68221221Y-3099581D01*
X68252890Y-3093661D01*
X67599894Y-3746656D01*
X67487969Y-3609082D01*
X67273010Y-3408324D01*
X67248453Y-3390990D01*
X67898074Y-2741369D01*
X67889524Y-2771421D01*
G37*
%TD.AperFunction*%
%TD*%
M02*
