%TF.GenerationSoftware,KiCad,Pcbnew,7.0.5-0*%
%TF.CreationDate,2023-06-05T19:49:20-04:00*%
%TF.ProjectId,7-segment-display-controller,372d7365-676d-4656-9e74-2d646973706c,B*%
%TF.SameCoordinates,Original*%
%TF.FileFunction,Copper,L2,Inr*%
%TF.FilePolarity,Positive*%
%FSLAX46Y46*%
G04 Gerber Fmt 4.6, Leading zero omitted, Abs format (unit mm)*
G04 Created by KiCad (PCBNEW 7.0.5-0) date 2023-06-05 19:49:20*
%MOMM*%
%LPD*%
G01*
G04 APERTURE LIST*
G04 Aperture macros list*
%AMRoundRect*
0 Rectangle with rounded corners*
0 $1 Rounding radius*
0 $2 $3 $4 $5 $6 $7 $8 $9 X,Y pos of 4 corners*
0 Add a 4 corners polygon primitive as box body*
4,1,4,$2,$3,$4,$5,$6,$7,$8,$9,$2,$3,0*
0 Add four circle primitives for the rounded corners*
1,1,$1+$1,$2,$3*
1,1,$1+$1,$4,$5*
1,1,$1+$1,$6,$7*
1,1,$1+$1,$8,$9*
0 Add four rect primitives between the rounded corners*
20,1,$1+$1,$2,$3,$4,$5,0*
20,1,$1+$1,$4,$5,$6,$7,0*
20,1,$1+$1,$6,$7,$8,$9,0*
20,1,$1+$1,$8,$9,$2,$3,0*%
G04 Aperture macros list end*
%TA.AperFunction,ComponentPad*%
%ADD10R,1.700000X1.700000*%
%TD*%
%TA.AperFunction,ComponentPad*%
%ADD11O,1.700000X1.700000*%
%TD*%
%TA.AperFunction,ComponentPad*%
%ADD12C,0.800000*%
%TD*%
%TA.AperFunction,ComponentPad*%
%ADD13C,6.400000*%
%TD*%
%TA.AperFunction,ComponentPad*%
%ADD14O,1.200000X1.900000*%
%TD*%
%TA.AperFunction,ComponentPad*%
%ADD15C,1.450000*%
%TD*%
%TA.AperFunction,ComponentPad*%
%ADD16RoundRect,0.250000X0.350000X0.625000X-0.350000X0.625000X-0.350000X-0.625000X0.350000X-0.625000X0*%
%TD*%
%TA.AperFunction,ComponentPad*%
%ADD17O,1.200000X1.750000*%
%TD*%
%TA.AperFunction,ComponentPad*%
%ADD18RoundRect,0.250000X-0.725000X0.600000X-0.725000X-0.600000X0.725000X-0.600000X0.725000X0.600000X0*%
%TD*%
%TA.AperFunction,ComponentPad*%
%ADD19O,1.950000X1.700000*%
%TD*%
%TA.AperFunction,ComponentPad*%
%ADD20C,1.500000*%
%TD*%
%TA.AperFunction,ComponentPad*%
%ADD21RoundRect,0.250000X0.625000X-0.350000X0.625000X0.350000X-0.625000X0.350000X-0.625000X-0.350000X0*%
%TD*%
%TA.AperFunction,ComponentPad*%
%ADD22O,1.750000X1.200000*%
%TD*%
%TA.AperFunction,ComponentPad*%
%ADD23RoundRect,0.250000X-0.350000X-0.625000X0.350000X-0.625000X0.350000X0.625000X-0.350000X0.625000X0*%
%TD*%
%TA.AperFunction,ComponentPad*%
%ADD24RoundRect,0.250000X-0.625000X0.350000X-0.625000X-0.350000X0.625000X-0.350000X0.625000X0.350000X0*%
%TD*%
%TA.AperFunction,ViaPad*%
%ADD25C,0.800000*%
%TD*%
G04 APERTURE END LIST*
D10*
%TO.N,GND*%
%TO.C,OLED101*%
X13388000Y-11079000D03*
D11*
%TO.N,+3V3*%
X13388000Y-8539000D03*
%TO.N,/SCL*%
X13388000Y-5999000D03*
%TO.N,/SDA*%
X13388000Y-3459000D03*
%TD*%
D12*
%TO.N,GND*%
%TO.C,H104*%
X2807000Y-48768000D03*
X3509944Y-47070944D03*
X3509944Y-50465056D03*
X5207000Y-46368000D03*
D13*
X5207000Y-48768000D03*
D12*
X5207000Y-51168000D03*
X6904056Y-47070944D03*
X6904056Y-50465056D03*
X7607000Y-48768000D03*
%TD*%
D14*
%TO.N,GND*%
%TO.C,J102*%
X19690200Y-52494700D03*
D15*
X20690200Y-49794700D03*
X25690200Y-49794700D03*
D14*
X26690200Y-52494700D03*
%TD*%
D16*
%TO.N,+3V3*%
%TO.C,J106*%
X57658000Y-6731000D03*
D17*
%TO.N,/IR_RECV*%
X55658000Y-6731000D03*
%TO.N,GND*%
X53658000Y-6731000D03*
%TD*%
D18*
%TO.N,GND*%
%TO.C,J104*%
X6731000Y-24297000D03*
D19*
%TO.N,Net-(J104-Pin_2)*%
X6731000Y-26797000D03*
%TO.N,+5V*%
X6731000Y-29297000D03*
%TD*%
D20*
%TO.N,*%
%TO.C,BT101*%
X56602800Y-36322000D03*
X64102800Y-36322000D03*
%TD*%
D12*
%TO.N,GND*%
%TO.C,H103*%
X2807000Y-5080000D03*
X3509944Y-3382944D03*
X3509944Y-6777056D03*
X5207000Y-2680000D03*
D13*
X5207000Y-5080000D03*
D12*
X5207000Y-7480000D03*
X6904056Y-3382944D03*
X6904056Y-6777056D03*
X7607000Y-5080000D03*
%TD*%
D21*
%TO.N,VBUS*%
%TO.C,J103*%
X64262000Y-25908000D03*
D22*
%TO.N,/UART_TX*%
X64262000Y-23908000D03*
%TO.N,/UART_RX*%
X64262000Y-21908000D03*
%TO.N,GND*%
X64262000Y-19908000D03*
%TD*%
D12*
%TO.N,GND*%
%TO.C,H101*%
X63513000Y-5080000D03*
X64215944Y-3382944D03*
X64215944Y-6777056D03*
X65913000Y-2680000D03*
D13*
X65913000Y-5080000D03*
D12*
X65913000Y-7480000D03*
X67610056Y-3382944D03*
X67610056Y-6777056D03*
X68313000Y-5080000D03*
%TD*%
%TO.N,GND*%
%TO.C,H102*%
X63513000Y-48768000D03*
X64215944Y-47070944D03*
X64215944Y-50465056D03*
X65913000Y-46368000D03*
D13*
X65913000Y-48768000D03*
D12*
X65913000Y-51168000D03*
X67610056Y-47070944D03*
X67610056Y-50465056D03*
X68313000Y-48768000D03*
%TD*%
D23*
%TO.N,GND*%
%TO.C,J107*%
X51455000Y-47608000D03*
D17*
%TO.N,VBUS*%
X53455000Y-47608000D03*
%TD*%
D24*
%TO.N,+3V3*%
%TO.C,J105*%
X6207000Y-12605000D03*
D22*
%TO.N,/SCL*%
X6207000Y-14605000D03*
%TO.N,/SDA*%
X6207000Y-16605000D03*
%TO.N,GND*%
X6207000Y-18605000D03*
%TD*%
D25*
%TO.N,GND*%
X49657000Y-35941000D03*
X19685000Y-31115000D03*
X13843000Y-24003000D03*
X58801000Y-24511000D03*
X41275000Y-39116000D03*
X24511000Y-48499900D03*
X38735000Y-38481000D03*
X10033000Y-34163000D03*
X42875200Y-28651200D03*
X35687000Y-38862000D03*
X38354000Y-35052000D03*
X29591000Y-18288000D03*
X40335200Y-46736000D03*
X23876000Y-32639000D03*
X17526000Y-16002000D03*
X37732000Y-19253200D03*
X43611800Y-37236400D03*
X47599600Y-30632400D03*
X31115000Y-18288000D03*
X26919701Y-23245299D03*
X41198800Y-28600400D03*
X41986200Y-30403800D03*
X59182000Y-15621000D03*
X26670000Y-17272000D03*
X64516000Y-38404800D03*
X37338000Y-42164000D03*
X9779000Y-38100000D03*
X49403000Y-29591000D03*
X58801000Y-19964400D03*
X44932600Y-36449000D03*
X2971800Y-43129200D03*
X17272000Y-29718000D03*
X20066000Y-16002000D03*
X1701800Y-43129200D03*
X58808200Y-22156000D03*
X25146000Y-44323000D03*
X12065000Y-15240000D03*
X48425600Y-32258000D03*
%TO.N,+3V3*%
X43942000Y-41148000D03*
X6477000Y-33020000D03*
X23876000Y-34163000D03*
X46126400Y-27686000D03*
X52552600Y-18389600D03*
X28067000Y-18288000D03*
X20701000Y-24511000D03*
X37592000Y-38862000D03*
X22225000Y-26416000D03*
X2413000Y-33020000D03*
X4445000Y-33020000D03*
X36182000Y-19253200D03*
X32893000Y-50292000D03*
%TO.N,/NRST*%
X50038000Y-19177000D03*
X26416000Y-21971000D03*
X36449000Y-27305000D03*
%TO.N,/LED_HB*%
X33274000Y-20193000D03*
X45847000Y-22352000D03*
%TO.N,/SWO*%
X26924000Y-24384000D03*
X22225000Y-17272000D03*
X32258000Y-30861000D03*
%TO.N,/SWCLK*%
X30861000Y-30734000D03*
X21971000Y-22606000D03*
%TO.N,/SWDIO*%
X21971000Y-24384000D03*
X29337000Y-29210000D03*
%TO.N,VBUS*%
X17783000Y-44326000D03*
X18415000Y-45974000D03*
X15367000Y-45974000D03*
X16891000Y-45974000D03*
%TO.N,/VBAT*%
X36897000Y-32960000D03*
X37338000Y-41021000D03*
%TO.N,/LED_UI*%
X34798000Y-25908000D03*
X46228000Y-24384000D03*
%TO.N,/SCL*%
X33147000Y-32258000D03*
X24892000Y-29083000D03*
X18161000Y-24638000D03*
%TO.N,/SDA*%
X34290000Y-33274000D03*
X23368000Y-29210000D03*
X16891000Y-24638000D03*
%TD*%
%TA.AperFunction,Conductor*%
%TO.N,GND*%
G36*
X7063420Y-50270867D02*
G01*
X7001601Y-50229561D01*
X6928680Y-50215056D01*
X6879432Y-50215056D01*
X6806511Y-50229561D01*
X6723816Y-50284816D01*
X6668561Y-50367511D01*
X6649158Y-50465056D01*
X6668561Y-50562601D01*
X6709867Y-50624420D01*
X6151180Y-50065733D01*
X6341870Y-49902870D01*
X6504733Y-49712180D01*
X7063420Y-50270867D01*
G37*
%TD.AperFunction*%
%TA.AperFunction,Conductor*%
G36*
X4072130Y-49902870D02*
G01*
X4262819Y-50065733D01*
X3704135Y-50624416D01*
X3745439Y-50562601D01*
X3764842Y-50465056D01*
X3745439Y-50367511D01*
X3690184Y-50284816D01*
X3607489Y-50229561D01*
X3534568Y-50215056D01*
X3485320Y-50215056D01*
X3412399Y-50229561D01*
X3350577Y-50270868D01*
X3909266Y-49712180D01*
X4072130Y-49902870D01*
G37*
%TD.AperFunction*%
%TA.AperFunction,Conductor*%
G36*
X4262818Y-47470267D02*
G01*
X4072130Y-47633130D01*
X3909266Y-47823818D01*
X3350582Y-47265134D01*
X3412399Y-47306439D01*
X3485320Y-47320944D01*
X3534568Y-47320944D01*
X3607489Y-47306439D01*
X3690184Y-47251184D01*
X3745439Y-47168489D01*
X3764842Y-47070944D01*
X3745439Y-46973399D01*
X3704135Y-46911583D01*
X4262818Y-47470267D01*
G37*
%TD.AperFunction*%
%TA.AperFunction,Conductor*%
G36*
X6668561Y-46973399D02*
G01*
X6649158Y-47070944D01*
X6668561Y-47168489D01*
X6723816Y-47251184D01*
X6806511Y-47306439D01*
X6879432Y-47320944D01*
X6928680Y-47320944D01*
X7001601Y-47306439D01*
X7063415Y-47265135D01*
X6504732Y-47823818D01*
X6341870Y-47633130D01*
X6151179Y-47470266D01*
X6709869Y-46911576D01*
X6668561Y-46973399D01*
G37*
%TD.AperFunction*%
%TA.AperFunction,Conductor*%
G36*
X67769420Y-50270867D02*
G01*
X67707601Y-50229561D01*
X67634680Y-50215056D01*
X67585432Y-50215056D01*
X67512511Y-50229561D01*
X67429816Y-50284816D01*
X67374561Y-50367511D01*
X67355158Y-50465056D01*
X67374561Y-50562601D01*
X67415867Y-50624420D01*
X66857180Y-50065733D01*
X67047870Y-49902870D01*
X67210733Y-49712180D01*
X67769420Y-50270867D01*
G37*
%TD.AperFunction*%
%TA.AperFunction,Conductor*%
G36*
X64778130Y-49902870D02*
G01*
X64968819Y-50065733D01*
X64410135Y-50624416D01*
X64451439Y-50562601D01*
X64470842Y-50465056D01*
X64451439Y-50367511D01*
X64396184Y-50284816D01*
X64313489Y-50229561D01*
X64240568Y-50215056D01*
X64191320Y-50215056D01*
X64118399Y-50229561D01*
X64056576Y-50270869D01*
X64615266Y-49712179D01*
X64778130Y-49902870D01*
G37*
%TD.AperFunction*%
%TA.AperFunction,Conductor*%
G36*
X64968819Y-47470266D02*
G01*
X64778130Y-47633130D01*
X64615266Y-47823818D01*
X64056582Y-47265134D01*
X64118399Y-47306439D01*
X64191320Y-47320944D01*
X64240568Y-47320944D01*
X64313489Y-47306439D01*
X64396184Y-47251184D01*
X64451439Y-47168489D01*
X64470842Y-47070944D01*
X64451439Y-46973399D01*
X64410133Y-46911581D01*
X64968819Y-47470266D01*
G37*
%TD.AperFunction*%
%TA.AperFunction,Conductor*%
G36*
X67374561Y-46973399D02*
G01*
X67355158Y-47070944D01*
X67374561Y-47168489D01*
X67429816Y-47251184D01*
X67512511Y-47306439D01*
X67585432Y-47320944D01*
X67634680Y-47320944D01*
X67707601Y-47306439D01*
X67769415Y-47265135D01*
X67210732Y-47823818D01*
X67047870Y-47633130D01*
X66857180Y-47470266D01*
X67415867Y-46911578D01*
X67374561Y-46973399D01*
G37*
%TD.AperFunction*%
%TA.AperFunction,Conductor*%
G36*
X40397814Y-31388685D02*
G01*
X40422943Y-31410048D01*
X42669300Y-33906000D01*
X42672000Y-33909000D01*
X43691000Y-33909000D01*
X43758039Y-33928685D01*
X43803794Y-33981489D01*
X43815000Y-34033000D01*
X43815000Y-37849000D01*
X43795315Y-37916039D01*
X43742511Y-37961794D01*
X43691000Y-37973000D01*
X39240000Y-37973000D01*
X39172961Y-37953315D01*
X39127206Y-37900511D01*
X39116000Y-37849000D01*
X39116000Y-33528000D01*
X38097000Y-33528000D01*
X38029961Y-33508315D01*
X37984206Y-33455511D01*
X37973000Y-33404000D01*
X37973000Y-31493000D01*
X37992685Y-31425961D01*
X38045489Y-31380206D01*
X38097000Y-31369000D01*
X40330775Y-31369000D01*
X40397814Y-31388685D01*
G37*
%TD.AperFunction*%
%TA.AperFunction,Conductor*%
G36*
X49092039Y-29991685D02*
G01*
X49137794Y-30044489D01*
X49149000Y-30096000D01*
X49149000Y-35664600D01*
X49129315Y-35731639D01*
X49076511Y-35777394D01*
X49025000Y-35788600D01*
X44193000Y-35788600D01*
X44125961Y-35768915D01*
X44080206Y-35716111D01*
X44069000Y-35664600D01*
X44069000Y-33655000D01*
X42854225Y-33655000D01*
X42787186Y-33635315D01*
X42762057Y-33613952D01*
X40513000Y-31115000D01*
X38095872Y-31093026D01*
X38029014Y-31072733D01*
X37983741Y-31019515D01*
X37973000Y-30969035D01*
X37973000Y-30096000D01*
X37992685Y-30028960D01*
X38045489Y-29983206D01*
X38097000Y-29972000D01*
X49025000Y-29972000D01*
X49092039Y-29991685D01*
G37*
%TD.AperFunction*%
%TA.AperFunction,Conductor*%
G36*
X7063420Y-6582867D02*
G01*
X7001601Y-6541561D01*
X6928680Y-6527056D01*
X6879432Y-6527056D01*
X6806511Y-6541561D01*
X6723816Y-6596816D01*
X6668561Y-6679511D01*
X6649158Y-6777056D01*
X6668561Y-6874601D01*
X6709867Y-6936420D01*
X6151180Y-6377733D01*
X6341870Y-6214870D01*
X6504733Y-6024180D01*
X7063420Y-6582867D01*
G37*
%TD.AperFunction*%
%TA.AperFunction,Conductor*%
G36*
X4072130Y-6214870D02*
G01*
X4262819Y-6377733D01*
X3704135Y-6936416D01*
X3745439Y-6874601D01*
X3764842Y-6777056D01*
X3745439Y-6679511D01*
X3690184Y-6596816D01*
X3607489Y-6541561D01*
X3534568Y-6527056D01*
X3485320Y-6527056D01*
X3412399Y-6541561D01*
X3350577Y-6582868D01*
X3909266Y-6024180D01*
X4072130Y-6214870D01*
G37*
%TD.AperFunction*%
%TA.AperFunction,Conductor*%
G36*
X4262819Y-3782266D02*
G01*
X4072130Y-3945130D01*
X3909266Y-4135818D01*
X3350582Y-3577134D01*
X3412399Y-3618439D01*
X3485320Y-3632944D01*
X3534568Y-3632944D01*
X3607489Y-3618439D01*
X3690184Y-3563184D01*
X3745439Y-3480489D01*
X3764842Y-3382944D01*
X3745439Y-3285399D01*
X3704133Y-3223581D01*
X4262819Y-3782266D01*
G37*
%TD.AperFunction*%
%TA.AperFunction,Conductor*%
G36*
X6668561Y-3285399D02*
G01*
X6649158Y-3382944D01*
X6668561Y-3480489D01*
X6723816Y-3563184D01*
X6806511Y-3618439D01*
X6879432Y-3632944D01*
X6928680Y-3632944D01*
X7001601Y-3618439D01*
X7063414Y-3577136D01*
X6504732Y-4135818D01*
X6341870Y-3945130D01*
X6151180Y-3782266D01*
X6709867Y-3223578D01*
X6668561Y-3285399D01*
G37*
%TD.AperFunction*%
%TA.AperFunction,Conductor*%
G36*
X67769420Y-6582867D02*
G01*
X67707601Y-6541561D01*
X67634680Y-6527056D01*
X67585432Y-6527056D01*
X67512511Y-6541561D01*
X67429816Y-6596816D01*
X67374561Y-6679511D01*
X67355158Y-6777056D01*
X67374561Y-6874601D01*
X67415867Y-6936420D01*
X66857180Y-6377733D01*
X67047870Y-6214870D01*
X67210733Y-6024180D01*
X67769420Y-6582867D01*
G37*
%TD.AperFunction*%
%TA.AperFunction,Conductor*%
G36*
X64778130Y-6214870D02*
G01*
X64968819Y-6377733D01*
X64410135Y-6936416D01*
X64451439Y-6874601D01*
X64470842Y-6777056D01*
X64451439Y-6679511D01*
X64396184Y-6596816D01*
X64313489Y-6541561D01*
X64240568Y-6527056D01*
X64191320Y-6527056D01*
X64118399Y-6541561D01*
X64056577Y-6582868D01*
X64615266Y-6024180D01*
X64778130Y-6214870D01*
G37*
%TD.AperFunction*%
%TA.AperFunction,Conductor*%
G36*
X64968819Y-3782266D02*
G01*
X64778130Y-3945130D01*
X64615266Y-4135818D01*
X64056582Y-3577134D01*
X64118399Y-3618439D01*
X64191320Y-3632944D01*
X64240568Y-3632944D01*
X64313489Y-3618439D01*
X64396184Y-3563184D01*
X64451439Y-3480489D01*
X64470842Y-3382944D01*
X64451439Y-3285399D01*
X64410133Y-3223581D01*
X64968819Y-3782266D01*
G37*
%TD.AperFunction*%
%TA.AperFunction,Conductor*%
G36*
X67374561Y-3285399D02*
G01*
X67355158Y-3382944D01*
X67374561Y-3480489D01*
X67429816Y-3563184D01*
X67512511Y-3618439D01*
X67585432Y-3632944D01*
X67634680Y-3632944D01*
X67707601Y-3618439D01*
X67769415Y-3577135D01*
X67210732Y-4135818D01*
X67047870Y-3945130D01*
X66857180Y-3782266D01*
X67415867Y-3223578D01*
X67374561Y-3285399D01*
G37*
%TD.AperFunction*%
%TA.AperFunction,Conductor*%
G36*
X69118019Y-88633D02*
G01*
X69156149Y-91131D01*
X69199793Y-93992D01*
X69381459Y-106985D01*
X69389102Y-108015D01*
X69505451Y-131158D01*
X69649666Y-162531D01*
X69656383Y-164395D01*
X69774618Y-204531D01*
X69776224Y-205103D01*
X69907740Y-254156D01*
X69913483Y-256635D01*
X70027830Y-313024D01*
X70030042Y-314173D01*
X70150913Y-380173D01*
X70155641Y-383037D01*
X70262649Y-454537D01*
X70265358Y-456454D01*
X70374652Y-538271D01*
X70378345Y-541265D01*
X70475502Y-626469D01*
X70478448Y-629228D01*
X70574769Y-725549D01*
X70577526Y-728492D01*
X70662729Y-825648D01*
X70665732Y-829353D01*
X70717564Y-898592D01*
X70747543Y-938639D01*
X70749461Y-941349D01*
X70820961Y-1048357D01*
X70823828Y-1053091D01*
X70889802Y-1173912D01*
X70890992Y-1176204D01*
X70947356Y-1290499D01*
X70949842Y-1296258D01*
X70998878Y-1427727D01*
X70999497Y-1429465D01*
X71039597Y-1547596D01*
X71041472Y-1554352D01*
X71072848Y-1698590D01*
X71095980Y-1814880D01*
X71097015Y-1822560D01*
X71110021Y-2004413D01*
X71115367Y-2085966D01*
X71115500Y-2090023D01*
X71115500Y-52085976D01*
X71115367Y-52090033D01*
X71110021Y-52171585D01*
X71097015Y-52353438D01*
X71095980Y-52361118D01*
X71072848Y-52477408D01*
X71041472Y-52621646D01*
X71039597Y-52628402D01*
X70999497Y-52746533D01*
X70998878Y-52748271D01*
X70949842Y-52879740D01*
X70947356Y-52885499D01*
X70890992Y-52999794D01*
X70889802Y-53002086D01*
X70823828Y-53122907D01*
X70820961Y-53127641D01*
X70749461Y-53234649D01*
X70747543Y-53237359D01*
X70665744Y-53346631D01*
X70662723Y-53350357D01*
X70577529Y-53447502D01*
X70574755Y-53450464D01*
X70478464Y-53546755D01*
X70475502Y-53549529D01*
X70378357Y-53634723D01*
X70374631Y-53637744D01*
X70265359Y-53719543D01*
X70262649Y-53721461D01*
X70155641Y-53792961D01*
X70150907Y-53795828D01*
X70030086Y-53861802D01*
X70027794Y-53862992D01*
X69913499Y-53919356D01*
X69907740Y-53921842D01*
X69776271Y-53970878D01*
X69774533Y-53971497D01*
X69656402Y-54011597D01*
X69649646Y-54013472D01*
X69505408Y-54044848D01*
X69389118Y-54067980D01*
X69381438Y-54069015D01*
X69199585Y-54082021D01*
X69143608Y-54085690D01*
X69118025Y-54087367D01*
X69113976Y-54087500D01*
X27186822Y-54087500D01*
X27119783Y-54067815D01*
X27074028Y-54015011D01*
X27064084Y-53945853D01*
X27093109Y-53882297D01*
X27135311Y-53850705D01*
X27242707Y-53801659D01*
X27413819Y-53679810D01*
X27413825Y-53679804D01*
X27558792Y-53527767D01*
X27672366Y-53351042D01*
X27750444Y-53156014D01*
X27790200Y-52949737D01*
X27790200Y-52744700D01*
X26990200Y-52744700D01*
X26990200Y-52244700D01*
X27790199Y-52244700D01*
X27790200Y-52092301D01*
X27775234Y-51935577D01*
X27775233Y-51935573D01*
X27716050Y-51734013D01*
X27619786Y-51547285D01*
X27489931Y-51382162D01*
X27489928Y-51382159D01*
X27331169Y-51244594D01*
X27331158Y-51244585D01*
X27149239Y-51139555D01*
X27149232Y-51139552D01*
X26950716Y-51070844D01*
X26940199Y-51069332D01*
X26940199Y-51978588D01*
X26915743Y-51939090D01*
X26826238Y-51871499D01*
X26718360Y-51840805D01*
X26606679Y-51851154D01*
X26506278Y-51901148D01*
X26440200Y-51973630D01*
X26440200Y-51073440D01*
X26405021Y-51081975D01*
X26335230Y-51078650D01*
X26278316Y-51038121D01*
X26252348Y-50973257D01*
X26265572Y-50904650D01*
X26304663Y-50859896D01*
X26361820Y-50819873D01*
X25756452Y-50214504D01*
X25823169Y-50203938D01*
X25943123Y-50142818D01*
X26038318Y-50047623D01*
X26099438Y-49927669D01*
X26110004Y-49860951D01*
X26715373Y-50466319D01*
X26755135Y-50409535D01*
X26809942Y-50292000D01*
X31987540Y-50292000D01*
X32007326Y-50480256D01*
X32007327Y-50480259D01*
X32065818Y-50660277D01*
X32065821Y-50660284D01*
X32160467Y-50824216D01*
X32244911Y-50918000D01*
X32287129Y-50964888D01*
X32440265Y-51076148D01*
X32440270Y-51076151D01*
X32613192Y-51153142D01*
X32613197Y-51153144D01*
X32798354Y-51192500D01*
X32798355Y-51192500D01*
X32987644Y-51192500D01*
X32987646Y-51192500D01*
X33172803Y-51153144D01*
X33345730Y-51076151D01*
X33498871Y-50964888D01*
X33625533Y-50824216D01*
X33720179Y-50660284D01*
X33778674Y-50480256D01*
X33798460Y-50292000D01*
X33778674Y-50103744D01*
X33720179Y-49923716D01*
X33625533Y-49759784D01*
X33498871Y-49619112D01*
X33498870Y-49619111D01*
X33345734Y-49507851D01*
X33345729Y-49507848D01*
X33172807Y-49430857D01*
X33172802Y-49430855D01*
X33027001Y-49399865D01*
X32987646Y-49391500D01*
X32798354Y-49391500D01*
X32765897Y-49398398D01*
X32613197Y-49430855D01*
X32613192Y-49430857D01*
X32440270Y-49507848D01*
X32440265Y-49507851D01*
X32287129Y-49619111D01*
X32160466Y-49759785D01*
X32065821Y-49923715D01*
X32065818Y-49923722D01*
X32019450Y-50066430D01*
X32007326Y-50103744D01*
X31987540Y-50292000D01*
X26809942Y-50292000D01*
X26845717Y-50215281D01*
X26845722Y-50215267D01*
X26901195Y-50008237D01*
X26901197Y-50008227D01*
X26919879Y-49794700D01*
X26919879Y-49794699D01*
X26901197Y-49581172D01*
X26901195Y-49581162D01*
X26845722Y-49374132D01*
X26845718Y-49374123D01*
X26755133Y-49179862D01*
X26715373Y-49123078D01*
X26110004Y-49728447D01*
X26099438Y-49661731D01*
X26038318Y-49541777D01*
X25943123Y-49446582D01*
X25823169Y-49385462D01*
X25756451Y-49374895D01*
X26361820Y-48769525D01*
X26305039Y-48729767D01*
X26110776Y-48639181D01*
X26110767Y-48639177D01*
X25903737Y-48583704D01*
X25903727Y-48583702D01*
X25690201Y-48565021D01*
X25690199Y-48565021D01*
X25476672Y-48583702D01*
X25476662Y-48583704D01*
X25269632Y-48639177D01*
X25269623Y-48639181D01*
X25075358Y-48729768D01*
X25018578Y-48769524D01*
X25623948Y-49374894D01*
X25557231Y-49385462D01*
X25437277Y-49446582D01*
X25342082Y-49541777D01*
X25280962Y-49661731D01*
X25270395Y-49728449D01*
X24665024Y-49123078D01*
X24625268Y-49179858D01*
X24534681Y-49374123D01*
X24534677Y-49374132D01*
X24479204Y-49581162D01*
X24479202Y-49581172D01*
X24460521Y-49794699D01*
X24460521Y-49794700D01*
X24479202Y-50008227D01*
X24479204Y-50008237D01*
X24534677Y-50215267D01*
X24534681Y-50215276D01*
X24625267Y-50409539D01*
X24665025Y-50466320D01*
X25270395Y-49860950D01*
X25280962Y-49927669D01*
X25342082Y-50047623D01*
X25437277Y-50142818D01*
X25557231Y-50203938D01*
X25623947Y-50214504D01*
X25018578Y-50819873D01*
X25075360Y-50859633D01*
X25269623Y-50950218D01*
X25269632Y-50950222D01*
X25476662Y-51005695D01*
X25476672Y-51005697D01*
X25690199Y-51024379D01*
X25690201Y-51024379D01*
X25903727Y-51005697D01*
X25903734Y-51005696D01*
X26024843Y-50973245D01*
X26094693Y-50974908D01*
X26152556Y-51014070D01*
X26180060Y-51078299D01*
X26168474Y-51147201D01*
X26128865Y-51194027D01*
X25966576Y-51309593D01*
X25966574Y-51309595D01*
X25821607Y-51461632D01*
X25708033Y-51638357D01*
X25629955Y-51833385D01*
X25590200Y-52039662D01*
X25590200Y-52244700D01*
X26390200Y-52244700D01*
X26390200Y-52744700D01*
X25590200Y-52744700D01*
X25590200Y-52897098D01*
X25605165Y-53053822D01*
X25605166Y-53053826D01*
X25664349Y-53255386D01*
X25760613Y-53442114D01*
X25890468Y-53607237D01*
X25890471Y-53607240D01*
X26049230Y-53744805D01*
X26049241Y-53744814D01*
X26231162Y-53849845D01*
X26233046Y-53850706D01*
X26233831Y-53851387D01*
X26236281Y-53852801D01*
X26236008Y-53853273D01*
X26285849Y-53896462D01*
X26305533Y-53963502D01*
X26285848Y-54030541D01*
X26233043Y-54076295D01*
X26181533Y-54087500D01*
X20186822Y-54087500D01*
X20119783Y-54067815D01*
X20074028Y-54015011D01*
X20064084Y-53945853D01*
X20093109Y-53882297D01*
X20135311Y-53850705D01*
X20242707Y-53801659D01*
X20413819Y-53679810D01*
X20413825Y-53679804D01*
X20558792Y-53527767D01*
X20672366Y-53351042D01*
X20750444Y-53156014D01*
X20790200Y-52949737D01*
X20790200Y-52744700D01*
X19990200Y-52744700D01*
X19990200Y-52244700D01*
X20790200Y-52244700D01*
X20790200Y-52092301D01*
X20775234Y-51935577D01*
X20775233Y-51935573D01*
X20716050Y-51734013D01*
X20619786Y-51547285D01*
X20489931Y-51382162D01*
X20489928Y-51382159D01*
X20331169Y-51244594D01*
X20331158Y-51244585D01*
X20248728Y-51196995D01*
X20200512Y-51146428D01*
X20187289Y-51077821D01*
X20213257Y-51012956D01*
X20270171Y-50972428D01*
X20339962Y-50969103D01*
X20342821Y-50969833D01*
X20476662Y-51005695D01*
X20476672Y-51005697D01*
X20690199Y-51024379D01*
X20690201Y-51024379D01*
X20903727Y-51005697D01*
X20903737Y-51005695D01*
X21110767Y-50950222D01*
X21110781Y-50950217D01*
X21305035Y-50859635D01*
X21361820Y-50819873D01*
X20756452Y-50214504D01*
X20823169Y-50203938D01*
X20943123Y-50142818D01*
X21038318Y-50047623D01*
X21099438Y-49927669D01*
X21110004Y-49860951D01*
X21715373Y-50466319D01*
X21755135Y-50409535D01*
X21845717Y-50215281D01*
X21845722Y-50215267D01*
X21901195Y-50008237D01*
X21901197Y-50008227D01*
X21919879Y-49794700D01*
X21919879Y-49794699D01*
X21901197Y-49581172D01*
X21901195Y-49581162D01*
X21845722Y-49374132D01*
X21845718Y-49374123D01*
X21755133Y-49179862D01*
X21715373Y-49123078D01*
X21110004Y-49728447D01*
X21099438Y-49661731D01*
X21038318Y-49541777D01*
X20943123Y-49446582D01*
X20823169Y-49385462D01*
X20756451Y-49374895D01*
X21361820Y-48769525D01*
X21305039Y-48729767D01*
X21110776Y-48639181D01*
X21110767Y-48639177D01*
X20903737Y-48583704D01*
X20903727Y-48583702D01*
X20690201Y-48565021D01*
X20690199Y-48565021D01*
X20476672Y-48583702D01*
X20476662Y-48583704D01*
X20269632Y-48639177D01*
X20269623Y-48639181D01*
X20075358Y-48729768D01*
X20018578Y-48769524D01*
X20623948Y-49374894D01*
X20557231Y-49385462D01*
X20437277Y-49446582D01*
X20342082Y-49541777D01*
X20280962Y-49661731D01*
X20270395Y-49728449D01*
X19665024Y-49123078D01*
X19625268Y-49179858D01*
X19534681Y-49374123D01*
X19534677Y-49374132D01*
X19479204Y-49581162D01*
X19479202Y-49581172D01*
X19460521Y-49794699D01*
X19460521Y-49794700D01*
X19479202Y-50008227D01*
X19479204Y-50008237D01*
X19534677Y-50215267D01*
X19534681Y-50215276D01*
X19625267Y-50409539D01*
X19665025Y-50466320D01*
X20270395Y-49860950D01*
X20280962Y-49927669D01*
X20342082Y-50047623D01*
X20437277Y-50142818D01*
X20557231Y-50203938D01*
X20623947Y-50214504D01*
X20018578Y-50819873D01*
X20066728Y-50853588D01*
X20110353Y-50908165D01*
X20117545Y-50977664D01*
X20086023Y-51040018D01*
X20025793Y-51075432D01*
X19955978Y-51072661D01*
X19955050Y-51072344D01*
X19950719Y-51070845D01*
X19950715Y-51070844D01*
X19940200Y-51069332D01*
X19940200Y-51978589D01*
X19915743Y-51939090D01*
X19826238Y-51871499D01*
X19718360Y-51840805D01*
X19606679Y-51851154D01*
X19506278Y-51901148D01*
X19440200Y-51973630D01*
X19440200Y-51073440D01*
X19440199Y-51073440D01*
X19328794Y-51100468D01*
X19328782Y-51100472D01*
X19137697Y-51187737D01*
X19137696Y-51187738D01*
X18966580Y-51309589D01*
X18966574Y-51309595D01*
X18821607Y-51461632D01*
X18708033Y-51638357D01*
X18629955Y-51833385D01*
X18590200Y-52039662D01*
X18590200Y-52244700D01*
X19390200Y-52244700D01*
X19390200Y-52744700D01*
X18590200Y-52744700D01*
X18590200Y-52897098D01*
X18605165Y-53053822D01*
X18605166Y-53053826D01*
X18664349Y-53255386D01*
X18760613Y-53442114D01*
X18890468Y-53607237D01*
X18890471Y-53607240D01*
X19049230Y-53744805D01*
X19049241Y-53744814D01*
X19231162Y-53849845D01*
X19233046Y-53850706D01*
X19233831Y-53851387D01*
X19236281Y-53852801D01*
X19236008Y-53853273D01*
X19285849Y-53896462D01*
X19305533Y-53963502D01*
X19285848Y-54030541D01*
X19233043Y-54076295D01*
X19181533Y-54087500D01*
X2118024Y-54087500D01*
X2113974Y-54087367D01*
X2083355Y-54085360D01*
X2032413Y-54082021D01*
X1850560Y-54069015D01*
X1842880Y-54067980D01*
X1726590Y-54044848D01*
X1582352Y-54013472D01*
X1575596Y-54011597D01*
X1457465Y-53971497D01*
X1455727Y-53970878D01*
X1324258Y-53921842D01*
X1318499Y-53919356D01*
X1204204Y-53862992D01*
X1201912Y-53861802D01*
X1186292Y-53853273D01*
X1162890Y-53840494D01*
X1081091Y-53795828D01*
X1076357Y-53792961D01*
X969349Y-53721461D01*
X966639Y-53719543D01*
X913553Y-53679804D01*
X857353Y-53637732D01*
X853648Y-53634729D01*
X756492Y-53549526D01*
X753549Y-53546769D01*
X657228Y-53450448D01*
X654469Y-53447502D01*
X569876Y-53351042D01*
X569265Y-53350345D01*
X566271Y-53346652D01*
X484454Y-53237358D01*
X482537Y-53234649D01*
X411037Y-53127641D01*
X408170Y-53122907D01*
X342173Y-53002042D01*
X341024Y-52999830D01*
X284635Y-52885483D01*
X282156Y-52879740D01*
X233103Y-52748224D01*
X232531Y-52746618D01*
X192395Y-52628383D01*
X190531Y-52621666D01*
X159150Y-52477408D01*
X136015Y-52361102D01*
X134985Y-52353459D01*
X121992Y-52171793D01*
X118394Y-52116898D01*
X116633Y-52090018D01*
X116500Y-52085963D01*
X116500Y-48768000D01*
X1501922Y-48768000D01*
X1522219Y-49155287D01*
X1582886Y-49538323D01*
X1582887Y-49538330D01*
X1683262Y-49912936D01*
X1822244Y-50274994D01*
X1998310Y-50620543D01*
X2209531Y-50945793D01*
X2418095Y-51203350D01*
X2418096Y-51203350D01*
X3315756Y-50305689D01*
X3274449Y-50367511D01*
X3255046Y-50465056D01*
X3274449Y-50562601D01*
X3329704Y-50645296D01*
X3412399Y-50700551D01*
X3485320Y-50715056D01*
X3534568Y-50715056D01*
X3607489Y-50700551D01*
X3669304Y-50659247D01*
X2771648Y-51556903D01*
X2771649Y-51556904D01*
X3029206Y-51765468D01*
X3354456Y-51976689D01*
X3700005Y-52152755D01*
X4062063Y-52291737D01*
X4436669Y-52392112D01*
X4436676Y-52392113D01*
X4819712Y-52452780D01*
X5206999Y-52473078D01*
X5207001Y-52473078D01*
X5594287Y-52452780D01*
X5977323Y-52392113D01*
X5977330Y-52392112D01*
X6351936Y-52291737D01*
X6713994Y-52152755D01*
X7059543Y-51976689D01*
X7384783Y-51765476D01*
X7384785Y-51765475D01*
X7642349Y-51556902D01*
X6744691Y-50659244D01*
X6806511Y-50700551D01*
X6879432Y-50715056D01*
X6928680Y-50715056D01*
X7001601Y-50700551D01*
X7084296Y-50645296D01*
X7139551Y-50562601D01*
X7158954Y-50465056D01*
X7139551Y-50367511D01*
X7098244Y-50305691D01*
X7995902Y-51203349D01*
X8204475Y-50945785D01*
X8204476Y-50945783D01*
X8415689Y-50620543D01*
X8591755Y-50274994D01*
X8730737Y-49912936D01*
X8831112Y-49538330D01*
X8831113Y-49538323D01*
X8891780Y-49155287D01*
X8912078Y-48768000D01*
X8912078Y-48767999D01*
X8891780Y-48380712D01*
X8831113Y-47997676D01*
X8831112Y-47997669D01*
X8730737Y-47623063D01*
X8628988Y-47358000D01*
X50355000Y-47358000D01*
X51175440Y-47358000D01*
X51136722Y-47400059D01*
X51086449Y-47514670D01*
X51076114Y-47639395D01*
X51106837Y-47760719D01*
X51170394Y-47858000D01*
X50355001Y-47858000D01*
X50355001Y-48282986D01*
X50365494Y-48385697D01*
X50420641Y-48552119D01*
X50420643Y-48552124D01*
X50512684Y-48701345D01*
X50636654Y-48825315D01*
X50785875Y-48917356D01*
X50785880Y-48917358D01*
X50952302Y-48972505D01*
X50952309Y-48972506D01*
X51055019Y-48982999D01*
X51204999Y-48982999D01*
X51205000Y-48982998D01*
X51205000Y-47888617D01*
X51274052Y-47942363D01*
X51392424Y-47983000D01*
X51486073Y-47983000D01*
X51578446Y-47967586D01*
X51688514Y-47908019D01*
X51705000Y-47890110D01*
X51705000Y-48982999D01*
X51854972Y-48982999D01*
X51854986Y-48982998D01*
X51957697Y-48972505D01*
X52124119Y-48917358D01*
X52124124Y-48917356D01*
X52273345Y-48825315D01*
X52397317Y-48701343D01*
X52436485Y-48637842D01*
X52488433Y-48591117D01*
X52557395Y-48579894D01*
X52621477Y-48607737D01*
X52639494Y-48626286D01*
X52654905Y-48645883D01*
X52654909Y-48645887D01*
X52813746Y-48783521D01*
X52995750Y-48888601D01*
X52995752Y-48888601D01*
X52995756Y-48888604D01*
X53194367Y-48957344D01*
X53402398Y-48987254D01*
X53612330Y-48977254D01*
X53816576Y-48927704D01*
X53952685Y-48865545D01*
X54007743Y-48840401D01*
X54007746Y-48840399D01*
X54007753Y-48840396D01*
X54109419Y-48768000D01*
X62207922Y-48768000D01*
X62228219Y-49155287D01*
X62288886Y-49538323D01*
X62288887Y-49538330D01*
X62389262Y-49912936D01*
X62528244Y-50274994D01*
X62704310Y-50620543D01*
X62915531Y-50945793D01*
X63124095Y-51203350D01*
X63124096Y-51203350D01*
X64021757Y-50305688D01*
X63980449Y-50367511D01*
X63961046Y-50465056D01*
X63980449Y-50562601D01*
X64035704Y-50645296D01*
X64118399Y-50700551D01*
X64191320Y-50715056D01*
X64240568Y-50715056D01*
X64313489Y-50700551D01*
X64375304Y-50659247D01*
X63477648Y-51556903D01*
X63477649Y-51556904D01*
X63735206Y-51765468D01*
X64060456Y-51976689D01*
X64406005Y-52152755D01*
X64768063Y-52291737D01*
X65142669Y-52392112D01*
X65142676Y-52392113D01*
X65525712Y-52452780D01*
X65912999Y-52473078D01*
X65913001Y-52473078D01*
X66300287Y-52452780D01*
X66683323Y-52392113D01*
X66683330Y-52392112D01*
X67057936Y-52291737D01*
X67419994Y-52152755D01*
X67765543Y-51976689D01*
X68090783Y-51765476D01*
X68090785Y-51765475D01*
X68348349Y-51556902D01*
X67450691Y-50659244D01*
X67512511Y-50700551D01*
X67585432Y-50715056D01*
X67634680Y-50715056D01*
X67707601Y-50700551D01*
X67790296Y-50645296D01*
X67845551Y-50562601D01*
X67864954Y-50465056D01*
X67845551Y-50367511D01*
X67804244Y-50305691D01*
X68701902Y-51203349D01*
X68910475Y-50945785D01*
X68910476Y-50945783D01*
X69121689Y-50620543D01*
X69297755Y-50274994D01*
X69436737Y-49912936D01*
X69537112Y-49538330D01*
X69537113Y-49538323D01*
X69597780Y-49155287D01*
X69618078Y-48768000D01*
X69618078Y-48767999D01*
X69597780Y-48380712D01*
X69537113Y-47997676D01*
X69537112Y-47997669D01*
X69436737Y-47623063D01*
X69297755Y-47261005D01*
X69121689Y-46915456D01*
X68910468Y-46590206D01*
X68701904Y-46332649D01*
X68701903Y-46332648D01*
X67804247Y-47230303D01*
X67845551Y-47168489D01*
X67864954Y-47070944D01*
X67845551Y-46973399D01*
X67790296Y-46890704D01*
X67707601Y-46835449D01*
X67634680Y-46820944D01*
X67585432Y-46820944D01*
X67512511Y-46835449D01*
X67450690Y-46876755D01*
X68348350Y-45979096D01*
X68348350Y-45979095D01*
X68090793Y-45770531D01*
X67765543Y-45559310D01*
X67419994Y-45383244D01*
X67057936Y-45244262D01*
X66683330Y-45143887D01*
X66683323Y-45143886D01*
X66300287Y-45083219D01*
X65913001Y-45062922D01*
X65912999Y-45062922D01*
X65525712Y-45083219D01*
X65142676Y-45143886D01*
X65142669Y-45143887D01*
X64768063Y-45244262D01*
X64406005Y-45383244D01*
X64060456Y-45559310D01*
X63735206Y-45770531D01*
X63477648Y-45979095D01*
X63477648Y-45979096D01*
X64375306Y-46876754D01*
X64313489Y-46835449D01*
X64240568Y-46820944D01*
X64191320Y-46820944D01*
X64118399Y-46835449D01*
X64035704Y-46890704D01*
X63980449Y-46973399D01*
X63961046Y-47070944D01*
X63980449Y-47168489D01*
X64021753Y-47230305D01*
X63124096Y-46332648D01*
X63124095Y-46332648D01*
X62915531Y-46590206D01*
X62704310Y-46915456D01*
X62528244Y-47261005D01*
X62389262Y-47623063D01*
X62288887Y-47997669D01*
X62288886Y-47997676D01*
X62228219Y-48380712D01*
X62207922Y-48767999D01*
X62207922Y-48768000D01*
X54109419Y-48768000D01*
X54178952Y-48718486D01*
X54248179Y-48645883D01*
X54323985Y-48566379D01*
X54324858Y-48565021D01*
X54437613Y-48389572D01*
X54515725Y-48194457D01*
X54555500Y-47988085D01*
X54555500Y-47280575D01*
X54540528Y-47123782D01*
X54481316Y-46922125D01*
X54385011Y-46735318D01*
X54385009Y-46735316D01*
X54385008Y-46735313D01*
X54255094Y-46570116D01*
X54255090Y-46570112D01*
X54096253Y-46432478D01*
X53914249Y-46327398D01*
X53914245Y-46327396D01*
X53914244Y-46327396D01*
X53715633Y-46258656D01*
X53507602Y-46228746D01*
X53507598Y-46228746D01*
X53297672Y-46238745D01*
X53093421Y-46288296D01*
X53093417Y-46288298D01*
X52902256Y-46375598D01*
X52902251Y-46375601D01*
X52731046Y-46497515D01*
X52731045Y-46497515D01*
X52632892Y-46600456D01*
X52572383Y-46635391D01*
X52502592Y-46632066D01*
X52445678Y-46591537D01*
X52437610Y-46579982D01*
X52397317Y-46514656D01*
X52273345Y-46390684D01*
X52124124Y-46298643D01*
X52124119Y-46298641D01*
X51957697Y-46243494D01*
X51957690Y-46243493D01*
X51854986Y-46233000D01*
X51705000Y-46233000D01*
X51705000Y-47327382D01*
X51635948Y-47273637D01*
X51517576Y-47233000D01*
X51423927Y-47233000D01*
X51331554Y-47248414D01*
X51221486Y-47307981D01*
X51204999Y-47325889D01*
X51204999Y-46233000D01*
X51055027Y-46233000D01*
X51055012Y-46233001D01*
X50952302Y-46243494D01*
X50785880Y-46298641D01*
X50785875Y-46298643D01*
X50636654Y-46390684D01*
X50512684Y-46514654D01*
X50420643Y-46663875D01*
X50420641Y-46663880D01*
X50365494Y-46830302D01*
X50365493Y-46830309D01*
X50355000Y-46933013D01*
X50355000Y-47358000D01*
X8628988Y-47358000D01*
X8591755Y-47261005D01*
X8415689Y-46915456D01*
X8204468Y-46590206D01*
X7995904Y-46332649D01*
X7995903Y-46332648D01*
X7098247Y-47230303D01*
X7139551Y-47168489D01*
X7158954Y-47070944D01*
X7139551Y-46973399D01*
X7084296Y-46890704D01*
X7001601Y-46835449D01*
X6928680Y-46820944D01*
X6879432Y-46820944D01*
X6806511Y-46835449D01*
X6744688Y-46876757D01*
X7642350Y-45979096D01*
X7642350Y-45979095D01*
X7636058Y-45974000D01*
X14461540Y-45974000D01*
X14481326Y-46162256D01*
X14481327Y-46162259D01*
X14539818Y-46342277D01*
X14539821Y-46342284D01*
X14634467Y-46506216D01*
X14722058Y-46603495D01*
X14761129Y-46646888D01*
X14914265Y-46758148D01*
X14914270Y-46758151D01*
X15087192Y-46835142D01*
X15087197Y-46835144D01*
X15272354Y-46874500D01*
X15272355Y-46874500D01*
X15461644Y-46874500D01*
X15461646Y-46874500D01*
X15646803Y-46835144D01*
X15819730Y-46758151D01*
X15972871Y-46646888D01*
X16036850Y-46575831D01*
X16096337Y-46539183D01*
X16166194Y-46540514D01*
X16221149Y-46575831D01*
X16246058Y-46603495D01*
X16285129Y-46646888D01*
X16438265Y-46758148D01*
X16438270Y-46758151D01*
X16611192Y-46835142D01*
X16611197Y-46835144D01*
X16796354Y-46874500D01*
X16796355Y-46874500D01*
X16985644Y-46874500D01*
X16985646Y-46874500D01*
X17170803Y-46835144D01*
X17343730Y-46758151D01*
X17496871Y-46646888D01*
X17560850Y-46575831D01*
X17620337Y-46539183D01*
X17690194Y-46540514D01*
X17745149Y-46575831D01*
X17770058Y-46603495D01*
X17809129Y-46646888D01*
X17962265Y-46758148D01*
X17962270Y-46758151D01*
X18135192Y-46835142D01*
X18135197Y-46835144D01*
X18320354Y-46874500D01*
X18320355Y-46874500D01*
X18509644Y-46874500D01*
X18509646Y-46874500D01*
X18694803Y-46835144D01*
X18867730Y-46758151D01*
X19020871Y-46646888D01*
X19147533Y-46506216D01*
X19242179Y-46342284D01*
X19300674Y-46162256D01*
X19320460Y-45974000D01*
X19300674Y-45785744D01*
X19242179Y-45605716D01*
X19147533Y-45441784D01*
X19020871Y-45301112D01*
X19020870Y-45301111D01*
X18867734Y-45189851D01*
X18867729Y-45189848D01*
X18694807Y-45112857D01*
X18694802Y-45112855D01*
X18561964Y-45084620D01*
X18500482Y-45051428D01*
X18466706Y-44990265D01*
X18471358Y-44920550D01*
X18495594Y-44880359D01*
X18515533Y-44858216D01*
X18610179Y-44694284D01*
X18668674Y-44514256D01*
X18688460Y-44326000D01*
X18668674Y-44137744D01*
X18610179Y-43957716D01*
X18515533Y-43793784D01*
X18388871Y-43653112D01*
X18388870Y-43653111D01*
X18235734Y-43541851D01*
X18235729Y-43541848D01*
X18062807Y-43464857D01*
X18062802Y-43464855D01*
X17917001Y-43433865D01*
X17877646Y-43425500D01*
X17688354Y-43425500D01*
X17655897Y-43432398D01*
X17503197Y-43464855D01*
X17503192Y-43464857D01*
X17330270Y-43541848D01*
X17330265Y-43541851D01*
X17177129Y-43653111D01*
X17050466Y-43793785D01*
X16955821Y-43957715D01*
X16955818Y-43957722D01*
X16897327Y-44137740D01*
X16897326Y-44137744D01*
X16877540Y-44326000D01*
X16897326Y-44514256D01*
X16897327Y-44514259D01*
X16955818Y-44694277D01*
X16955821Y-44694284D01*
X17050467Y-44858216D01*
X17057270Y-44865771D01*
X17057952Y-44866529D01*
X17088181Y-44929520D01*
X17079555Y-44998856D01*
X17034813Y-45052521D01*
X16968161Y-45073478D01*
X16965801Y-45073500D01*
X16796354Y-45073500D01*
X16763897Y-45080398D01*
X16611197Y-45112855D01*
X16611192Y-45112857D01*
X16438270Y-45189848D01*
X16438265Y-45189851D01*
X16285129Y-45301111D01*
X16285128Y-45301112D01*
X16221149Y-45372168D01*
X16161663Y-45408816D01*
X16091806Y-45407485D01*
X16036851Y-45372168D01*
X15972871Y-45301112D01*
X15972870Y-45301111D01*
X15819734Y-45189851D01*
X15819729Y-45189848D01*
X15646807Y-45112857D01*
X15646802Y-45112855D01*
X15501001Y-45081865D01*
X15461646Y-45073500D01*
X15272354Y-45073500D01*
X15239897Y-45080398D01*
X15087197Y-45112855D01*
X15087192Y-45112857D01*
X14914270Y-45189848D01*
X14914265Y-45189851D01*
X14761129Y-45301111D01*
X14634466Y-45441785D01*
X14539821Y-45605715D01*
X14539818Y-45605722D01*
X14486269Y-45770531D01*
X14481326Y-45785744D01*
X14461540Y-45974000D01*
X7636058Y-45974000D01*
X7384793Y-45770531D01*
X7059543Y-45559310D01*
X6713994Y-45383244D01*
X6351936Y-45244262D01*
X5977330Y-45143887D01*
X5977323Y-45143886D01*
X5594287Y-45083219D01*
X5207001Y-45062922D01*
X5206999Y-45062922D01*
X4819712Y-45083219D01*
X4436676Y-45143886D01*
X4436669Y-45143887D01*
X4062063Y-45244262D01*
X3700005Y-45383244D01*
X3354456Y-45559310D01*
X3029206Y-45770531D01*
X2771648Y-45979095D01*
X2771648Y-45979096D01*
X3669304Y-46876752D01*
X3607489Y-46835449D01*
X3534568Y-46820944D01*
X3485320Y-46820944D01*
X3412399Y-46835449D01*
X3329704Y-46890704D01*
X3274449Y-46973399D01*
X3255046Y-47070944D01*
X3274449Y-47168489D01*
X3315753Y-47230305D01*
X2418096Y-46332648D01*
X2418095Y-46332648D01*
X2209531Y-46590206D01*
X1998310Y-46915456D01*
X1822244Y-47261005D01*
X1683262Y-47623063D01*
X1582887Y-47997669D01*
X1582886Y-47997676D01*
X1522219Y-48380712D01*
X1501922Y-48767999D01*
X1501922Y-48768000D01*
X116500Y-48768000D01*
X116500Y-41021000D01*
X36432540Y-41021000D01*
X36452326Y-41209256D01*
X36452327Y-41209259D01*
X36510818Y-41389277D01*
X36510821Y-41389284D01*
X36605467Y-41553216D01*
X36719817Y-41680214D01*
X36732129Y-41693888D01*
X36885265Y-41805148D01*
X36885270Y-41805151D01*
X37058192Y-41882142D01*
X37058197Y-41882144D01*
X37243354Y-41921500D01*
X37243355Y-41921500D01*
X37432644Y-41921500D01*
X37432646Y-41921500D01*
X37617803Y-41882144D01*
X37790730Y-41805151D01*
X37943871Y-41693888D01*
X38070533Y-41553216D01*
X38165179Y-41389284D01*
X38223674Y-41209256D01*
X38230112Y-41148000D01*
X43036540Y-41148000D01*
X43056326Y-41336256D01*
X43056327Y-41336259D01*
X43114818Y-41516277D01*
X43114821Y-41516284D01*
X43209467Y-41680216D01*
X43321957Y-41805148D01*
X43336129Y-41820888D01*
X43489265Y-41932148D01*
X43489270Y-41932151D01*
X43662192Y-42009142D01*
X43662197Y-42009144D01*
X43847354Y-42048500D01*
X43847355Y-42048500D01*
X44036644Y-42048500D01*
X44036646Y-42048500D01*
X44221803Y-42009144D01*
X44394730Y-41932151D01*
X44547871Y-41820888D01*
X44674533Y-41680216D01*
X44769179Y-41516284D01*
X44827674Y-41336256D01*
X44847460Y-41148000D01*
X44827674Y-40959744D01*
X44769179Y-40779716D01*
X44674533Y-40615784D01*
X44547871Y-40475112D01*
X44547870Y-40475111D01*
X44394734Y-40363851D01*
X44394729Y-40363848D01*
X44221807Y-40286857D01*
X44221802Y-40286855D01*
X44076000Y-40255865D01*
X44036646Y-40247500D01*
X43847354Y-40247500D01*
X43814897Y-40254398D01*
X43662197Y-40286855D01*
X43662192Y-40286857D01*
X43489270Y-40363848D01*
X43489265Y-40363851D01*
X43336129Y-40475111D01*
X43209466Y-40615785D01*
X43114821Y-40779715D01*
X43114818Y-40779722D01*
X43056327Y-40959740D01*
X43056326Y-40959744D01*
X43036540Y-41148000D01*
X38230112Y-41148000D01*
X38243460Y-41021000D01*
X38223674Y-40832744D01*
X38165179Y-40652716D01*
X38070533Y-40488784D01*
X37943871Y-40348112D01*
X37943870Y-40348111D01*
X37790734Y-40236851D01*
X37790729Y-40236848D01*
X37617807Y-40159857D01*
X37617802Y-40159855D01*
X37472000Y-40128865D01*
X37432646Y-40120500D01*
X37243354Y-40120500D01*
X37210897Y-40127398D01*
X37058197Y-40159855D01*
X37058192Y-40159857D01*
X36885270Y-40236848D01*
X36885265Y-40236851D01*
X36732129Y-40348111D01*
X36605466Y-40488785D01*
X36510821Y-40652715D01*
X36510818Y-40652722D01*
X36452327Y-40832740D01*
X36452326Y-40832744D01*
X36432540Y-41021000D01*
X116500Y-41021000D01*
X116500Y-38862000D01*
X36686540Y-38862000D01*
X36706326Y-39050256D01*
X36706327Y-39050259D01*
X36764818Y-39230277D01*
X36764821Y-39230284D01*
X36859467Y-39394216D01*
X36986128Y-39534887D01*
X36986129Y-39534888D01*
X37139265Y-39646148D01*
X37139270Y-39646151D01*
X37312192Y-39723142D01*
X37312197Y-39723144D01*
X37497354Y-39762500D01*
X37497355Y-39762500D01*
X37686644Y-39762500D01*
X37686646Y-39762500D01*
X37871803Y-39723144D01*
X38044730Y-39646151D01*
X38197871Y-39534888D01*
X38324533Y-39394216D01*
X38419179Y-39230284D01*
X38477674Y-39050256D01*
X38497460Y-38862000D01*
X38477674Y-38673744D01*
X38419179Y-38493716D01*
X38324533Y-38329784D01*
X38197871Y-38189112D01*
X38197870Y-38189111D01*
X38044734Y-38077851D01*
X38044729Y-38077848D01*
X37871807Y-38000857D01*
X37871802Y-38000855D01*
X37726001Y-37969865D01*
X37686646Y-37961500D01*
X37497354Y-37961500D01*
X37464897Y-37968398D01*
X37312197Y-38000855D01*
X37312192Y-38000857D01*
X37139270Y-38077848D01*
X37139265Y-38077851D01*
X36986129Y-38189111D01*
X36859466Y-38329785D01*
X36764821Y-38493715D01*
X36764818Y-38493722D01*
X36706327Y-38673740D01*
X36706326Y-38673744D01*
X36686540Y-38862000D01*
X116500Y-38862000D01*
X116500Y-34163000D01*
X22970540Y-34163000D01*
X22990326Y-34351256D01*
X22990327Y-34351259D01*
X23048818Y-34531277D01*
X23048821Y-34531284D01*
X23143467Y-34695216D01*
X23270128Y-34835888D01*
X23270129Y-34835888D01*
X23423265Y-34947148D01*
X23423270Y-34947151D01*
X23596192Y-35024142D01*
X23596197Y-35024144D01*
X23781354Y-35063500D01*
X23781355Y-35063500D01*
X23970644Y-35063500D01*
X23970646Y-35063500D01*
X24155803Y-35024144D01*
X24328730Y-34947151D01*
X24481871Y-34835888D01*
X24608533Y-34695216D01*
X24703179Y-34531284D01*
X24761674Y-34351256D01*
X24781460Y-34163000D01*
X24761674Y-33974744D01*
X24703179Y-33794716D01*
X24608533Y-33630784D01*
X24481871Y-33490112D01*
X24481870Y-33490111D01*
X24328734Y-33378851D01*
X24328729Y-33378848D01*
X24155807Y-33301857D01*
X24155802Y-33301855D01*
X24010000Y-33270865D01*
X23970646Y-33262500D01*
X23781354Y-33262500D01*
X23748897Y-33269398D01*
X23596197Y-33301855D01*
X23596192Y-33301857D01*
X23423270Y-33378848D01*
X23423265Y-33378851D01*
X23270129Y-33490111D01*
X23143466Y-33630785D01*
X23048821Y-33794715D01*
X23048818Y-33794722D01*
X22999377Y-33946888D01*
X22990326Y-33974744D01*
X22970540Y-34163000D01*
X116500Y-34163000D01*
X116500Y-33020000D01*
X1507540Y-33020000D01*
X1527326Y-33208256D01*
X1527327Y-33208259D01*
X1585818Y-33388277D01*
X1585821Y-33388284D01*
X1680467Y-33552216D01*
X1807128Y-33692888D01*
X1807129Y-33692888D01*
X1960265Y-33804148D01*
X1960270Y-33804151D01*
X2133192Y-33881142D01*
X2133197Y-33881144D01*
X2318354Y-33920500D01*
X2318355Y-33920500D01*
X2507644Y-33920500D01*
X2507646Y-33920500D01*
X2692803Y-33881144D01*
X2865730Y-33804151D01*
X3018871Y-33692888D01*
X3145533Y-33552216D01*
X3240179Y-33388284D01*
X3298674Y-33208256D01*
X3305680Y-33141595D01*
X3332261Y-33076986D01*
X3389558Y-33037001D01*
X3459377Y-33034340D01*
X3519551Y-33069848D01*
X3550976Y-33132252D01*
X3552320Y-33141598D01*
X3559326Y-33208256D01*
X3559327Y-33208259D01*
X3617818Y-33388277D01*
X3617821Y-33388284D01*
X3712467Y-33552216D01*
X3839128Y-33692888D01*
X3839129Y-33692888D01*
X3992265Y-33804148D01*
X3992270Y-33804151D01*
X4165192Y-33881142D01*
X4165197Y-33881144D01*
X4350354Y-33920500D01*
X4350355Y-33920500D01*
X4539644Y-33920500D01*
X4539646Y-33920500D01*
X4724803Y-33881144D01*
X4897730Y-33804151D01*
X5050871Y-33692888D01*
X5177533Y-33552216D01*
X5272179Y-33388284D01*
X5330674Y-33208256D01*
X5337680Y-33141595D01*
X5364261Y-33076986D01*
X5421558Y-33037001D01*
X5491377Y-33034340D01*
X5551551Y-33069848D01*
X5582976Y-33132252D01*
X5584320Y-33141598D01*
X5591326Y-33208256D01*
X5591327Y-33208259D01*
X5649818Y-33388277D01*
X5649821Y-33388284D01*
X5744467Y-33552216D01*
X5871128Y-33692888D01*
X5871129Y-33692888D01*
X6024265Y-33804148D01*
X6024270Y-33804151D01*
X6197192Y-33881142D01*
X6197197Y-33881144D01*
X6382354Y-33920500D01*
X6382355Y-33920500D01*
X6571644Y-33920500D01*
X6571646Y-33920500D01*
X6756803Y-33881144D01*
X6929730Y-33804151D01*
X7082871Y-33692888D01*
X7209533Y-33552216D01*
X7304179Y-33388284D01*
X7362674Y-33208256D01*
X7382460Y-33020000D01*
X7362674Y-32831744D01*
X7304179Y-32651716D01*
X7209533Y-32487784D01*
X7082871Y-32347112D01*
X7082870Y-32347111D01*
X6929734Y-32235851D01*
X6929729Y-32235848D01*
X6756807Y-32158857D01*
X6756802Y-32158855D01*
X6611000Y-32127865D01*
X6571646Y-32119500D01*
X6382354Y-32119500D01*
X6349897Y-32126398D01*
X6197197Y-32158855D01*
X6197192Y-32158857D01*
X6024270Y-32235848D01*
X6024265Y-32235851D01*
X5871129Y-32347111D01*
X5744466Y-32487785D01*
X5649821Y-32651715D01*
X5649818Y-32651722D01*
X5610821Y-32771744D01*
X5591326Y-32831744D01*
X5586402Y-32878591D01*
X5584320Y-32898401D01*
X5557734Y-32963015D01*
X5500436Y-33002999D01*
X5430617Y-33005658D01*
X5370444Y-32970148D01*
X5339022Y-32907743D01*
X5337683Y-32898435D01*
X5330674Y-32831744D01*
X5272179Y-32651716D01*
X5177533Y-32487784D01*
X5050871Y-32347112D01*
X5050870Y-32347111D01*
X4897734Y-32235851D01*
X4897729Y-32235848D01*
X4724807Y-32158857D01*
X4724802Y-32158855D01*
X4579000Y-32127865D01*
X4539646Y-32119500D01*
X4350354Y-32119500D01*
X4317897Y-32126398D01*
X4165197Y-32158855D01*
X4165192Y-32158857D01*
X3992270Y-32235848D01*
X3992265Y-32235851D01*
X3839129Y-32347111D01*
X3712466Y-32487785D01*
X3617821Y-32651715D01*
X3617818Y-32651722D01*
X3578821Y-32771744D01*
X3559326Y-32831744D01*
X3554402Y-32878591D01*
X3552320Y-32898401D01*
X3525734Y-32963015D01*
X3468436Y-33002999D01*
X3398617Y-33005658D01*
X3338444Y-32970148D01*
X3307022Y-32907743D01*
X3305683Y-32898435D01*
X3298674Y-32831744D01*
X3240179Y-32651716D01*
X3145533Y-32487784D01*
X3018871Y-32347112D01*
X3018870Y-32347111D01*
X2865734Y-32235851D01*
X2865729Y-32235848D01*
X2692807Y-32158857D01*
X2692802Y-32158855D01*
X2547000Y-32127865D01*
X2507646Y-32119500D01*
X2318354Y-32119500D01*
X2285897Y-32126398D01*
X2133197Y-32158855D01*
X2133192Y-32158857D01*
X1960270Y-32235848D01*
X1960265Y-32235851D01*
X1807129Y-32347111D01*
X1680466Y-32487785D01*
X1585821Y-32651715D01*
X1585818Y-32651722D01*
X1546821Y-32771744D01*
X1527326Y-32831744D01*
X1507540Y-33020000D01*
X116500Y-33020000D01*
X116500Y-30734000D01*
X29955540Y-30734000D01*
X29975326Y-30922256D01*
X29975327Y-30922259D01*
X30033818Y-31102277D01*
X30033821Y-31102284D01*
X30128467Y-31266216D01*
X30238739Y-31388685D01*
X30255129Y-31406888D01*
X30408265Y-31518148D01*
X30408270Y-31518151D01*
X30581192Y-31595142D01*
X30581197Y-31595144D01*
X30766354Y-31634500D01*
X30766355Y-31634500D01*
X30955644Y-31634500D01*
X30955646Y-31634500D01*
X31140803Y-31595144D01*
X31313730Y-31518151D01*
X31419412Y-31441368D01*
X31485214Y-31417890D01*
X31553268Y-31433715D01*
X31584442Y-31458714D01*
X31615313Y-31493000D01*
X31652129Y-31533888D01*
X31805265Y-31645148D01*
X31805270Y-31645151D01*
X31978192Y-31722142D01*
X31978197Y-31722144D01*
X32163354Y-31761500D01*
X32163355Y-31761500D01*
X32190809Y-31761500D01*
X32257848Y-31781185D01*
X32303603Y-31833989D01*
X32313547Y-31903147D01*
X32308740Y-31923818D01*
X32264654Y-32059500D01*
X32261326Y-32069744D01*
X32241540Y-32258000D01*
X32261326Y-32446256D01*
X32261327Y-32446259D01*
X32319818Y-32626277D01*
X32319821Y-32626284D01*
X32414467Y-32790216D01*
X32520289Y-32907743D01*
X32541129Y-32930888D01*
X32694265Y-33042148D01*
X32694270Y-33042151D01*
X32867192Y-33119142D01*
X32867197Y-33119144D01*
X33052354Y-33158500D01*
X33052355Y-33158500D01*
X33241643Y-33158500D01*
X33241646Y-33158500D01*
X33241648Y-33158499D01*
X33247644Y-33157869D01*
X33316374Y-33170435D01*
X33367401Y-33218164D01*
X33383933Y-33268227D01*
X33384540Y-33273999D01*
X33384540Y-33274000D01*
X33404326Y-33462256D01*
X33404327Y-33462259D01*
X33462818Y-33642277D01*
X33462821Y-33642284D01*
X33557467Y-33806216D01*
X33660369Y-33920500D01*
X33684129Y-33946888D01*
X33837265Y-34058148D01*
X33837270Y-34058151D01*
X34010192Y-34135142D01*
X34010197Y-34135144D01*
X34195354Y-34174500D01*
X34195355Y-34174500D01*
X34384644Y-34174500D01*
X34384646Y-34174500D01*
X34569803Y-34135144D01*
X34742730Y-34058151D01*
X34895871Y-33946888D01*
X35022533Y-33806216D01*
X35117179Y-33642284D01*
X35175674Y-33462256D01*
X35195460Y-33274000D01*
X35175674Y-33085744D01*
X35134817Y-32960000D01*
X35991540Y-32960000D01*
X36011326Y-33148256D01*
X36011327Y-33148259D01*
X36069818Y-33328277D01*
X36069821Y-33328284D01*
X36164467Y-33492216D01*
X36289235Y-33630784D01*
X36291129Y-33632888D01*
X36444265Y-33744148D01*
X36444270Y-33744151D01*
X36617192Y-33821142D01*
X36617197Y-33821144D01*
X36802354Y-33860500D01*
X36802355Y-33860500D01*
X36991644Y-33860500D01*
X36991646Y-33860500D01*
X37176803Y-33821144D01*
X37349730Y-33744151D01*
X37502871Y-33632888D01*
X37502875Y-33632883D01*
X37507700Y-33628540D01*
X37508501Y-33629429D01*
X37562333Y-33596263D01*
X37632190Y-33597592D01*
X37690240Y-33636477D01*
X37718051Y-33700573D01*
X37719000Y-33715882D01*
X37719000Y-33782000D01*
X38738000Y-33782000D01*
X38805039Y-33801685D01*
X38850794Y-33854489D01*
X38862000Y-33906000D01*
X38862000Y-38227000D01*
X44069000Y-38227000D01*
X44069000Y-36322002D01*
X55347523Y-36322002D01*
X55366593Y-36539975D01*
X55366593Y-36539979D01*
X55423222Y-36751322D01*
X55423224Y-36751326D01*
X55423225Y-36751330D01*
X55469461Y-36850484D01*
X55515697Y-36949638D01*
X55515698Y-36949639D01*
X55641202Y-37128877D01*
X55795923Y-37283598D01*
X55975161Y-37409102D01*
X56173470Y-37501575D01*
X56384823Y-37558207D01*
X56567726Y-37574208D01*
X56602798Y-37577277D01*
X56602800Y-37577277D01*
X56602802Y-37577277D01*
X56631054Y-37574805D01*
X56820777Y-37558207D01*
X57032130Y-37501575D01*
X57230439Y-37409102D01*
X57409677Y-37283598D01*
X57564398Y-37128877D01*
X57689902Y-36949639D01*
X57782375Y-36751330D01*
X57839007Y-36539977D01*
X57858077Y-36322002D01*
X62847523Y-36322002D01*
X62866593Y-36539975D01*
X62866593Y-36539979D01*
X62923222Y-36751322D01*
X62923224Y-36751326D01*
X62923225Y-36751330D01*
X62969461Y-36850484D01*
X63015697Y-36949638D01*
X63015698Y-36949639D01*
X63141202Y-37128877D01*
X63295923Y-37283598D01*
X63475161Y-37409102D01*
X63673470Y-37501575D01*
X63884823Y-37558207D01*
X64067726Y-37574208D01*
X64102798Y-37577277D01*
X64102800Y-37577277D01*
X64102802Y-37577277D01*
X64131054Y-37574805D01*
X64320777Y-37558207D01*
X64532130Y-37501575D01*
X64730439Y-37409102D01*
X64909677Y-37283598D01*
X65064398Y-37128877D01*
X65189902Y-36949639D01*
X65282375Y-36751330D01*
X65339007Y-36539977D01*
X65358077Y-36322000D01*
X65339007Y-36104023D01*
X65282375Y-35892670D01*
X65189902Y-35694362D01*
X65189900Y-35694359D01*
X65189899Y-35694357D01*
X65064399Y-35515124D01*
X65064396Y-35515121D01*
X64909677Y-35360402D01*
X64730439Y-35234898D01*
X64730440Y-35234898D01*
X64730438Y-35234897D01*
X64631284Y-35188661D01*
X64532130Y-35142425D01*
X64532126Y-35142424D01*
X64532122Y-35142422D01*
X64320777Y-35085793D01*
X64102802Y-35066723D01*
X64102798Y-35066723D01*
X63957481Y-35079436D01*
X63884823Y-35085793D01*
X63884820Y-35085793D01*
X63673477Y-35142422D01*
X63673468Y-35142426D01*
X63475161Y-35234898D01*
X63475157Y-35234900D01*
X63295921Y-35360402D01*
X63141202Y-35515121D01*
X63015700Y-35694357D01*
X63015698Y-35694361D01*
X62923226Y-35892668D01*
X62923222Y-35892677D01*
X62866593Y-36104020D01*
X62866593Y-36104024D01*
X62847523Y-36321997D01*
X62847523Y-36322002D01*
X57858077Y-36322002D01*
X57858077Y-36322000D01*
X57839007Y-36104023D01*
X57782375Y-35892670D01*
X57689902Y-35694362D01*
X57689900Y-35694359D01*
X57689899Y-35694357D01*
X57564399Y-35515124D01*
X57564396Y-35515121D01*
X57409677Y-35360402D01*
X57230439Y-35234898D01*
X57230440Y-35234898D01*
X57230438Y-35234897D01*
X57131284Y-35188661D01*
X57032130Y-35142425D01*
X57032126Y-35142424D01*
X57032122Y-35142422D01*
X56820777Y-35085793D01*
X56602802Y-35066723D01*
X56602798Y-35066723D01*
X56457482Y-35079436D01*
X56384823Y-35085793D01*
X56384820Y-35085793D01*
X56173477Y-35142422D01*
X56173468Y-35142426D01*
X55975161Y-35234898D01*
X55975157Y-35234900D01*
X55795921Y-35360402D01*
X55641202Y-35515121D01*
X55515700Y-35694357D01*
X55515698Y-35694361D01*
X55423226Y-35892668D01*
X55423222Y-35892677D01*
X55366593Y-36104020D01*
X55366593Y-36104024D01*
X55347523Y-36321997D01*
X55347523Y-36322002D01*
X44069000Y-36322002D01*
X44069000Y-36192000D01*
X44088685Y-36124961D01*
X44141489Y-36079206D01*
X44193000Y-36068000D01*
X49453800Y-36068000D01*
X49453800Y-29718000D01*
X37719000Y-29718000D01*
X37719000Y-29972000D01*
X37718999Y-31037897D01*
X37719000Y-31037907D01*
X37719000Y-32204116D01*
X37699315Y-32271155D01*
X37646511Y-32316910D01*
X37577353Y-32326854D01*
X37513797Y-32297829D01*
X37502899Y-32287137D01*
X37502870Y-32287111D01*
X37349734Y-32175851D01*
X37349729Y-32175848D01*
X37176807Y-32098857D01*
X37176802Y-32098855D01*
X37031000Y-32067865D01*
X36991646Y-32059500D01*
X36802354Y-32059500D01*
X36769897Y-32066398D01*
X36617197Y-32098855D01*
X36617192Y-32098857D01*
X36444270Y-32175848D01*
X36444265Y-32175851D01*
X36291129Y-32287111D01*
X36164466Y-32427785D01*
X36069821Y-32591715D01*
X36069818Y-32591722D01*
X36021060Y-32741785D01*
X36011326Y-32771744D01*
X35991540Y-32960000D01*
X35134817Y-32960000D01*
X35117179Y-32905716D01*
X35022533Y-32741784D01*
X34895871Y-32601112D01*
X34882947Y-32591722D01*
X34742734Y-32489851D01*
X34742729Y-32489848D01*
X34569807Y-32412857D01*
X34569802Y-32412855D01*
X34424001Y-32381865D01*
X34384646Y-32373500D01*
X34195354Y-32373500D01*
X34195349Y-32373500D01*
X34189343Y-32374131D01*
X34120614Y-32361559D01*
X34069592Y-32313825D01*
X34053066Y-32263771D01*
X34052459Y-32258002D01*
X34052460Y-32258000D01*
X34032674Y-32069744D01*
X33974179Y-31889716D01*
X33879533Y-31725784D01*
X33752871Y-31585112D01*
X33752870Y-31585111D01*
X33599734Y-31473851D01*
X33599729Y-31473848D01*
X33426807Y-31396857D01*
X33426802Y-31396855D01*
X33262318Y-31361894D01*
X33241646Y-31357500D01*
X33214191Y-31357500D01*
X33147152Y-31337815D01*
X33101397Y-31285011D01*
X33091453Y-31215853D01*
X33096260Y-31195182D01*
X33130565Y-31089600D01*
X33143674Y-31049256D01*
X33163460Y-30861000D01*
X33143674Y-30672744D01*
X33085179Y-30492716D01*
X32990533Y-30328784D01*
X32863871Y-30188112D01*
X32863870Y-30188111D01*
X32710734Y-30076851D01*
X32710729Y-30076848D01*
X32537807Y-29999857D01*
X32537802Y-29999855D01*
X32392001Y-29968865D01*
X32352646Y-29960500D01*
X32163354Y-29960500D01*
X32130897Y-29967398D01*
X31978197Y-29999855D01*
X31978192Y-29999857D01*
X31805271Y-30076848D01*
X31699590Y-30153629D01*
X31633783Y-30177108D01*
X31565729Y-30161282D01*
X31534555Y-30136283D01*
X31511340Y-30110500D01*
X31466871Y-30061112D01*
X31466867Y-30061109D01*
X31313734Y-29949851D01*
X31313729Y-29949848D01*
X31140807Y-29872857D01*
X31140802Y-29872855D01*
X30995001Y-29841865D01*
X30955646Y-29833500D01*
X30766354Y-29833500D01*
X30733897Y-29840398D01*
X30581197Y-29872855D01*
X30581192Y-29872857D01*
X30408270Y-29949848D01*
X30408265Y-29949851D01*
X30255129Y-30061111D01*
X30128466Y-30201785D01*
X30033821Y-30365715D01*
X30033818Y-30365722D01*
X29975327Y-30545740D01*
X29975326Y-30545744D01*
X29955540Y-30734000D01*
X116500Y-30734000D01*
X116500Y-29297000D01*
X5250341Y-29297000D01*
X5270936Y-29532403D01*
X5270938Y-29532413D01*
X5332094Y-29760655D01*
X5332096Y-29760659D01*
X5332097Y-29760663D01*
X5366062Y-29833500D01*
X5431964Y-29974828D01*
X5431965Y-29974830D01*
X5567505Y-30168402D01*
X5734597Y-30335494D01*
X5928169Y-30471034D01*
X5928171Y-30471035D01*
X6142337Y-30570903D01*
X6370592Y-30632063D01*
X6547032Y-30647499D01*
X6547033Y-30647500D01*
X6547034Y-30647500D01*
X6914967Y-30647500D01*
X6914967Y-30647499D01*
X7091408Y-30632063D01*
X7319663Y-30570903D01*
X7533829Y-30471035D01*
X7727401Y-30335495D01*
X7894495Y-30168401D01*
X8030035Y-29974830D01*
X8129903Y-29760663D01*
X8191063Y-29532408D01*
X8211659Y-29297000D01*
X8204047Y-29210000D01*
X22462540Y-29210000D01*
X22482326Y-29398256D01*
X22482327Y-29398259D01*
X22540818Y-29578277D01*
X22540821Y-29578284D01*
X22635467Y-29742216D01*
X22652070Y-29760655D01*
X22762129Y-29882888D01*
X22915265Y-29994148D01*
X22915270Y-29994151D01*
X23088192Y-30071142D01*
X23088197Y-30071144D01*
X23273354Y-30110500D01*
X23273355Y-30110500D01*
X23462644Y-30110500D01*
X23462646Y-30110500D01*
X23647803Y-30071144D01*
X23820730Y-29994151D01*
X23973871Y-29882888D01*
X24095027Y-29748330D01*
X24154511Y-29711683D01*
X24224368Y-29713013D01*
X24279323Y-29748329D01*
X24286131Y-29755890D01*
X24286135Y-29755893D01*
X24439265Y-29867148D01*
X24439270Y-29867151D01*
X24612192Y-29944142D01*
X24612197Y-29944144D01*
X24797354Y-29983500D01*
X24797355Y-29983500D01*
X24986644Y-29983500D01*
X24986646Y-29983500D01*
X25171803Y-29944144D01*
X25344730Y-29867151D01*
X25497871Y-29755888D01*
X25624533Y-29615216D01*
X25719179Y-29451284D01*
X25777674Y-29271256D01*
X25784112Y-29210000D01*
X28431540Y-29210000D01*
X28451326Y-29398256D01*
X28451327Y-29398259D01*
X28509818Y-29578277D01*
X28509821Y-29578284D01*
X28604467Y-29742216D01*
X28621070Y-29760655D01*
X28731129Y-29882888D01*
X28884265Y-29994148D01*
X28884270Y-29994151D01*
X29057192Y-30071142D01*
X29057197Y-30071144D01*
X29242354Y-30110500D01*
X29242355Y-30110500D01*
X29431644Y-30110500D01*
X29431646Y-30110500D01*
X29616803Y-30071144D01*
X29789730Y-29994151D01*
X29942871Y-29882888D01*
X30069533Y-29742216D01*
X30164179Y-29578284D01*
X30222674Y-29398256D01*
X30242460Y-29210000D01*
X30222674Y-29021744D01*
X30164179Y-28841716D01*
X30069533Y-28677784D01*
X29942871Y-28537112D01*
X29942863Y-28537106D01*
X29789734Y-28425851D01*
X29789729Y-28425848D01*
X29616807Y-28348857D01*
X29616802Y-28348855D01*
X29471000Y-28317865D01*
X29431646Y-28309500D01*
X29242354Y-28309500D01*
X29209897Y-28316398D01*
X29057197Y-28348855D01*
X29057192Y-28348857D01*
X28884270Y-28425848D01*
X28884265Y-28425851D01*
X28731129Y-28537111D01*
X28604466Y-28677785D01*
X28509821Y-28841715D01*
X28509818Y-28841722D01*
X28451327Y-29021740D01*
X28451326Y-29021744D01*
X28431540Y-29210000D01*
X25784112Y-29210000D01*
X25797460Y-29083000D01*
X25777674Y-28894744D01*
X25719179Y-28714716D01*
X25624533Y-28550784D01*
X25497871Y-28410112D01*
X25497867Y-28410109D01*
X25344734Y-28298851D01*
X25344729Y-28298848D01*
X25171807Y-28221857D01*
X25171802Y-28221855D01*
X25026000Y-28190865D01*
X24986646Y-28182500D01*
X24797354Y-28182500D01*
X24764897Y-28189398D01*
X24612197Y-28221855D01*
X24612192Y-28221857D01*
X24439270Y-28298848D01*
X24439265Y-28298851D01*
X24286132Y-28410109D01*
X24286129Y-28410111D01*
X24286129Y-28410112D01*
X24164974Y-28544668D01*
X24105487Y-28581316D01*
X24035630Y-28579985D01*
X23980676Y-28544669D01*
X23973872Y-28537113D01*
X23973864Y-28537106D01*
X23820734Y-28425851D01*
X23820729Y-28425848D01*
X23647807Y-28348857D01*
X23647802Y-28348855D01*
X23502000Y-28317865D01*
X23462646Y-28309500D01*
X23273354Y-28309500D01*
X23240897Y-28316398D01*
X23088197Y-28348855D01*
X23088192Y-28348857D01*
X22915270Y-28425848D01*
X22915265Y-28425851D01*
X22762129Y-28537111D01*
X22635466Y-28677785D01*
X22540821Y-28841715D01*
X22540818Y-28841722D01*
X22482327Y-29021740D01*
X22482326Y-29021744D01*
X22462540Y-29210000D01*
X8204047Y-29210000D01*
X8191063Y-29061592D01*
X8129903Y-28833337D01*
X8030035Y-28619171D01*
X8030034Y-28619169D01*
X7894494Y-28425597D01*
X7727403Y-28258506D01*
X7669859Y-28218214D01*
X7570401Y-28148573D01*
X7526778Y-28093999D01*
X7519584Y-28024500D01*
X7551106Y-27962145D01*
X7570398Y-27945428D01*
X7727401Y-27835495D01*
X7894495Y-27668401D01*
X8030035Y-27474830D01*
X8129903Y-27260663D01*
X8191063Y-27032408D01*
X8211659Y-26797000D01*
X8210546Y-26784284D01*
X8194796Y-26604259D01*
X8191063Y-26561592D01*
X8152052Y-26416000D01*
X21319540Y-26416000D01*
X21339326Y-26604256D01*
X21339327Y-26604259D01*
X21397818Y-26784277D01*
X21397821Y-26784284D01*
X21492467Y-26948216D01*
X21550899Y-27013111D01*
X21619129Y-27088888D01*
X21772265Y-27200148D01*
X21772270Y-27200151D01*
X21945192Y-27277142D01*
X21945197Y-27277144D01*
X22130354Y-27316500D01*
X22130355Y-27316500D01*
X22319644Y-27316500D01*
X22319646Y-27316500D01*
X22373750Y-27305000D01*
X35543540Y-27305000D01*
X35563326Y-27493256D01*
X35563327Y-27493259D01*
X35621818Y-27673277D01*
X35621821Y-27673284D01*
X35716467Y-27837216D01*
X35749821Y-27874259D01*
X35843129Y-27977888D01*
X35996265Y-28089148D01*
X35996270Y-28089151D01*
X36169192Y-28166142D01*
X36169197Y-28166144D01*
X36354354Y-28205500D01*
X36354355Y-28205500D01*
X36543644Y-28205500D01*
X36543646Y-28205500D01*
X36728803Y-28166144D01*
X36901730Y-28089151D01*
X37054871Y-27977888D01*
X37181533Y-27837216D01*
X37268837Y-27686000D01*
X45220940Y-27686000D01*
X45240726Y-27874256D01*
X45240727Y-27874259D01*
X45299218Y-28054277D01*
X45299221Y-28054284D01*
X45393867Y-28218216D01*
X45476060Y-28309500D01*
X45520529Y-28358888D01*
X45673665Y-28470148D01*
X45673670Y-28470151D01*
X45846592Y-28547142D01*
X45846597Y-28547144D01*
X46031754Y-28586500D01*
X46031755Y-28586500D01*
X46221044Y-28586500D01*
X46221046Y-28586500D01*
X46406203Y-28547144D01*
X46579130Y-28470151D01*
X46732271Y-28358888D01*
X46858933Y-28218216D01*
X46953579Y-28054284D01*
X47012074Y-27874256D01*
X47031860Y-27686000D01*
X47012074Y-27497744D01*
X46953579Y-27317716D01*
X46858933Y-27153784D01*
X46732271Y-27013112D01*
X46732270Y-27013111D01*
X46579134Y-26901851D01*
X46579129Y-26901848D01*
X46406207Y-26824857D01*
X46406202Y-26824855D01*
X46260400Y-26793865D01*
X46221046Y-26785500D01*
X46031754Y-26785500D01*
X45999297Y-26792398D01*
X45846597Y-26824855D01*
X45846592Y-26824857D01*
X45673670Y-26901848D01*
X45673665Y-26901851D01*
X45520529Y-27013111D01*
X45393866Y-27153785D01*
X45299221Y-27317715D01*
X45299218Y-27317722D01*
X45248171Y-27474830D01*
X45240726Y-27497744D01*
X45220940Y-27686000D01*
X37268837Y-27686000D01*
X37276179Y-27673284D01*
X37334674Y-27493256D01*
X37354460Y-27305000D01*
X37334674Y-27116744D01*
X37276179Y-26936716D01*
X37181533Y-26772784D01*
X37054871Y-26632112D01*
X37054870Y-26632111D01*
X36901734Y-26520851D01*
X36901729Y-26520848D01*
X36728807Y-26443857D01*
X36728802Y-26443855D01*
X36583000Y-26412865D01*
X36543646Y-26404500D01*
X36354354Y-26404500D01*
X36324738Y-26410795D01*
X36169197Y-26443855D01*
X36169192Y-26443857D01*
X35996270Y-26520848D01*
X35996265Y-26520851D01*
X35843129Y-26632111D01*
X35716466Y-26772785D01*
X35621821Y-26936715D01*
X35621818Y-26936722D01*
X35572377Y-27088888D01*
X35563326Y-27116744D01*
X35543540Y-27305000D01*
X22373750Y-27305000D01*
X22504803Y-27277144D01*
X22677730Y-27200151D01*
X22830871Y-27088888D01*
X22957533Y-26948216D01*
X23052179Y-26784284D01*
X23110674Y-26604256D01*
X23130460Y-26416000D01*
X23110674Y-26227744D01*
X23052179Y-26047716D01*
X22971514Y-25908000D01*
X33892540Y-25908000D01*
X33912326Y-26096256D01*
X33912327Y-26096259D01*
X33970818Y-26276277D01*
X33970821Y-26276284D01*
X34065467Y-26440216D01*
X34174749Y-26561586D01*
X34192129Y-26580888D01*
X34345265Y-26692148D01*
X34345270Y-26692151D01*
X34518192Y-26769142D01*
X34518197Y-26769144D01*
X34703354Y-26808500D01*
X34703355Y-26808500D01*
X34892644Y-26808500D01*
X34892646Y-26808500D01*
X35077803Y-26769144D01*
X35250730Y-26692151D01*
X35403871Y-26580888D01*
X35530533Y-26440216D01*
X35625179Y-26276284D01*
X35683674Y-26096256D01*
X35703460Y-25908000D01*
X35683674Y-25719744D01*
X35625179Y-25539716D01*
X35530533Y-25375784D01*
X35403871Y-25235112D01*
X35403870Y-25235111D01*
X35250734Y-25123851D01*
X35250729Y-25123848D01*
X35077807Y-25046857D01*
X35077802Y-25046855D01*
X34932001Y-25015865D01*
X34892646Y-25007500D01*
X34703354Y-25007500D01*
X34670897Y-25014398D01*
X34518197Y-25046855D01*
X34518192Y-25046857D01*
X34345270Y-25123848D01*
X34345265Y-25123851D01*
X34192129Y-25235111D01*
X34065466Y-25375785D01*
X33970821Y-25539715D01*
X33970818Y-25539722D01*
X33913311Y-25716712D01*
X33912326Y-25719744D01*
X33892540Y-25908000D01*
X22971514Y-25908000D01*
X22957533Y-25883784D01*
X22830871Y-25743112D01*
X22798708Y-25719744D01*
X22677734Y-25631851D01*
X22677729Y-25631848D01*
X22504807Y-25554857D01*
X22504802Y-25554855D01*
X22355387Y-25523097D01*
X22319646Y-25515500D01*
X22158656Y-25515500D01*
X22112160Y-25501847D01*
X22072279Y-25527477D01*
X22063124Y-25529790D01*
X21945199Y-25554855D01*
X21945192Y-25554857D01*
X21772270Y-25631848D01*
X21772265Y-25631851D01*
X21619129Y-25743111D01*
X21492466Y-25883785D01*
X21397821Y-26047715D01*
X21397818Y-26047722D01*
X21339327Y-26227740D01*
X21339326Y-26227744D01*
X21319540Y-26416000D01*
X8152052Y-26416000D01*
X8129903Y-26333337D01*
X8030035Y-26119171D01*
X8030034Y-26119169D01*
X7894494Y-25925597D01*
X7746932Y-25778035D01*
X7713447Y-25716712D01*
X7718431Y-25647020D01*
X7760303Y-25591087D01*
X7769516Y-25584815D01*
X7924345Y-25489315D01*
X8048315Y-25365345D01*
X8140356Y-25216124D01*
X8140358Y-25216119D01*
X8195505Y-25049697D01*
X8195506Y-25049690D01*
X8205999Y-24946986D01*
X8206000Y-24946973D01*
X8206000Y-24638000D01*
X15985540Y-24638000D01*
X16005326Y-24826256D01*
X16005327Y-24826259D01*
X16063818Y-25006277D01*
X16063821Y-25006284D01*
X16158467Y-25170216D01*
X16220100Y-25238666D01*
X16285129Y-25310888D01*
X16438265Y-25422148D01*
X16438270Y-25422151D01*
X16611192Y-25499142D01*
X16611197Y-25499144D01*
X16796354Y-25538500D01*
X16796355Y-25538500D01*
X16985644Y-25538500D01*
X16985646Y-25538500D01*
X17170803Y-25499144D01*
X17343730Y-25422151D01*
X17453117Y-25342676D01*
X17518920Y-25319198D01*
X17586974Y-25335023D01*
X17598871Y-25342668D01*
X17693610Y-25411500D01*
X17708270Y-25422151D01*
X17881192Y-25499142D01*
X17881197Y-25499144D01*
X18066354Y-25538500D01*
X18066355Y-25538500D01*
X18255644Y-25538500D01*
X18255646Y-25538500D01*
X18440803Y-25499144D01*
X18613730Y-25422151D01*
X18766871Y-25310888D01*
X18893533Y-25170216D01*
X18988179Y-25006284D01*
X19046674Y-24826256D01*
X19066460Y-24638000D01*
X19053112Y-24511000D01*
X19795540Y-24511000D01*
X19815326Y-24699256D01*
X19815327Y-24699259D01*
X19873818Y-24879277D01*
X19873821Y-24879284D01*
X19968467Y-25043216D01*
X20044672Y-25127850D01*
X20095129Y-25183888D01*
X20248265Y-25295148D01*
X20248270Y-25295151D01*
X20421192Y-25372142D01*
X20421197Y-25372144D01*
X20606354Y-25411500D01*
X20606355Y-25411500D01*
X20795644Y-25411500D01*
X20795646Y-25411500D01*
X20980803Y-25372144D01*
X21153730Y-25295151D01*
X21306871Y-25183888D01*
X21324329Y-25164498D01*
X21383812Y-25127850D01*
X21453669Y-25129177D01*
X21489365Y-25147151D01*
X21518265Y-25168148D01*
X21518270Y-25168151D01*
X21691192Y-25245142D01*
X21691197Y-25245144D01*
X21876354Y-25284500D01*
X21876355Y-25284500D01*
X22037344Y-25284500D01*
X22083839Y-25298152D01*
X22123721Y-25272523D01*
X22132876Y-25270210D01*
X22142380Y-25268189D01*
X22250803Y-25245144D01*
X22423730Y-25168151D01*
X22576871Y-25056888D01*
X22703533Y-24916216D01*
X22798179Y-24752284D01*
X22856674Y-24572256D01*
X22876460Y-24384000D01*
X26018540Y-24384000D01*
X26038326Y-24572256D01*
X26038327Y-24572259D01*
X26096818Y-24752277D01*
X26096821Y-24752284D01*
X26191467Y-24916216D01*
X26219161Y-24946973D01*
X26318129Y-25056888D01*
X26471265Y-25168148D01*
X26471270Y-25168151D01*
X26644192Y-25245142D01*
X26644197Y-25245144D01*
X26829354Y-25284500D01*
X26829355Y-25284500D01*
X27018644Y-25284500D01*
X27018646Y-25284500D01*
X27203803Y-25245144D01*
X27376730Y-25168151D01*
X27529871Y-25056888D01*
X27656533Y-24916216D01*
X27751179Y-24752284D01*
X27809674Y-24572256D01*
X27829460Y-24384000D01*
X45322540Y-24384000D01*
X45342326Y-24572256D01*
X45342327Y-24572259D01*
X45400818Y-24752277D01*
X45400821Y-24752284D01*
X45495467Y-24916216D01*
X45523161Y-24946973D01*
X45622129Y-25056888D01*
X45775265Y-25168148D01*
X45775270Y-25168151D01*
X45948192Y-25245142D01*
X45948197Y-25245144D01*
X46133354Y-25284500D01*
X46133355Y-25284500D01*
X46322644Y-25284500D01*
X46322646Y-25284500D01*
X46507803Y-25245144D01*
X46680730Y-25168151D01*
X46833871Y-25056888D01*
X46960533Y-24916216D01*
X47055179Y-24752284D01*
X47113674Y-24572256D01*
X47133460Y-24384000D01*
X47113674Y-24195744D01*
X47055179Y-24015716D01*
X46962621Y-23855401D01*
X62882746Y-23855401D01*
X62892745Y-24065327D01*
X62942296Y-24269578D01*
X62942298Y-24269582D01*
X63029598Y-24460743D01*
X63029601Y-24460748D01*
X63029602Y-24460750D01*
X63029604Y-24460753D01*
X63092627Y-24549256D01*
X63151515Y-24631953D01*
X63254082Y-24729750D01*
X63289017Y-24790259D01*
X63285692Y-24860049D01*
X63245164Y-24916963D01*
X63233610Y-24925031D01*
X63168344Y-24965287D01*
X63044289Y-25089342D01*
X62952187Y-25238663D01*
X62952185Y-25238666D01*
X62952186Y-25238666D01*
X62897001Y-25405203D01*
X62897001Y-25405204D01*
X62897000Y-25405204D01*
X62886500Y-25507983D01*
X62886500Y-26308001D01*
X62886501Y-26308019D01*
X62897000Y-26410796D01*
X62897001Y-26410799D01*
X62952185Y-26577331D01*
X62952187Y-26577336D01*
X62968793Y-26604259D01*
X63044288Y-26726656D01*
X63168344Y-26850712D01*
X63317666Y-26942814D01*
X63484203Y-26997999D01*
X63586991Y-27008500D01*
X64937008Y-27008499D01*
X65039797Y-26997999D01*
X65206334Y-26942814D01*
X65355656Y-26850712D01*
X65479712Y-26726656D01*
X65571814Y-26577334D01*
X65626999Y-26410797D01*
X65637500Y-26308009D01*
X65637499Y-25507992D01*
X65632794Y-25461937D01*
X65626999Y-25405203D01*
X65626998Y-25405200D01*
X65606280Y-25342678D01*
X65571814Y-25238666D01*
X65479712Y-25089344D01*
X65355656Y-24965288D01*
X65292258Y-24926184D01*
X65245535Y-24874237D01*
X65234312Y-24805274D01*
X65262156Y-24741192D01*
X65280697Y-24723181D01*
X65299886Y-24708092D01*
X65437519Y-24549256D01*
X65494973Y-24449744D01*
X65542601Y-24367249D01*
X65542600Y-24367249D01*
X65542604Y-24367244D01*
X65611344Y-24168633D01*
X65641254Y-23960602D01*
X65631254Y-23750670D01*
X65581704Y-23546424D01*
X65580735Y-23544302D01*
X65494401Y-23355256D01*
X65494398Y-23355251D01*
X65494397Y-23355250D01*
X65494396Y-23355247D01*
X65372486Y-23184048D01*
X65372484Y-23184046D01*
X65372479Y-23184040D01*
X65220379Y-23039014D01*
X65179057Y-23012458D01*
X65133302Y-22959654D01*
X65123359Y-22890496D01*
X65152384Y-22826940D01*
X65169445Y-22810673D01*
X65240050Y-22755148D01*
X65299886Y-22708092D01*
X65437519Y-22549256D01*
X65442714Y-22540259D01*
X65542601Y-22367249D01*
X65542600Y-22367249D01*
X65542604Y-22367244D01*
X65611344Y-22168633D01*
X65641254Y-21960602D01*
X65631254Y-21750670D01*
X65581704Y-21546424D01*
X65574436Y-21530509D01*
X65494401Y-21355256D01*
X65494398Y-21355251D01*
X65494397Y-21355250D01*
X65494396Y-21355247D01*
X65372486Y-21184048D01*
X65372484Y-21184046D01*
X65372479Y-21184040D01*
X65220379Y-21039014D01*
X65178612Y-21012172D01*
X65132857Y-20959368D01*
X65122914Y-20890210D01*
X65151939Y-20826654D01*
X65169000Y-20810386D01*
X65299542Y-20707726D01*
X65437105Y-20548969D01*
X65437114Y-20548958D01*
X65542144Y-20367039D01*
X65542147Y-20367032D01*
X65610855Y-20168517D01*
X65610855Y-20168515D01*
X65612368Y-20158000D01*
X64541560Y-20158000D01*
X64580278Y-20115941D01*
X64630551Y-20001330D01*
X64640886Y-19876605D01*
X64610163Y-19755281D01*
X64546606Y-19658000D01*
X65608257Y-19658000D01*
X65581229Y-19546590D01*
X65493959Y-19355492D01*
X65372110Y-19184380D01*
X65372104Y-19184374D01*
X65220067Y-19039407D01*
X65043342Y-18925833D01*
X64848314Y-18847755D01*
X64642038Y-18808000D01*
X64512000Y-18808000D01*
X64512000Y-19627382D01*
X64442948Y-19573637D01*
X64324576Y-19533000D01*
X64230927Y-19533000D01*
X64138554Y-19548414D01*
X64028486Y-19607981D01*
X64012000Y-19625889D01*
X64012000Y-18808000D01*
X63934602Y-18808000D01*
X63777877Y-18822965D01*
X63777873Y-18822966D01*
X63576313Y-18882149D01*
X63389585Y-18978413D01*
X63224462Y-19108268D01*
X63224459Y-19108271D01*
X63086894Y-19267030D01*
X63086885Y-19267041D01*
X62981855Y-19448960D01*
X62981852Y-19448967D01*
X62913144Y-19647482D01*
X62913144Y-19647484D01*
X62911632Y-19658000D01*
X63982440Y-19658000D01*
X63943722Y-19700059D01*
X63893449Y-19814670D01*
X63883114Y-19939395D01*
X63913837Y-20060719D01*
X63977394Y-20158000D01*
X62915742Y-20158000D01*
X62942770Y-20269409D01*
X63030040Y-20460507D01*
X63151889Y-20631619D01*
X63151895Y-20631625D01*
X63303932Y-20776592D01*
X63345357Y-20803214D01*
X63391112Y-20856018D01*
X63401056Y-20925177D01*
X63372031Y-20988732D01*
X63354970Y-21005000D01*
X63224116Y-21107905D01*
X63224112Y-21107909D01*
X63086478Y-21266746D01*
X62981398Y-21448750D01*
X62912656Y-21647365D01*
X62912656Y-21647367D01*
X62886686Y-21828000D01*
X62882746Y-21855401D01*
X62892745Y-22065327D01*
X62942296Y-22269578D01*
X62942298Y-22269582D01*
X63029598Y-22460743D01*
X63029601Y-22460748D01*
X63029602Y-22460750D01*
X63029604Y-22460753D01*
X63092627Y-22549256D01*
X63151515Y-22631953D01*
X63151520Y-22631959D01*
X63303619Y-22776984D01*
X63303621Y-22776985D01*
X63303622Y-22776986D01*
X63330494Y-22794256D01*
X63344941Y-22803540D01*
X63390696Y-22856344D01*
X63400640Y-22925503D01*
X63371615Y-22989059D01*
X63354555Y-23005326D01*
X63224112Y-23107909D01*
X63086478Y-23266746D01*
X62981398Y-23448750D01*
X62912656Y-23647365D01*
X62912656Y-23647367D01*
X62882969Y-23853851D01*
X62882746Y-23855401D01*
X46962621Y-23855401D01*
X46960533Y-23851784D01*
X46833871Y-23711112D01*
X46833867Y-23711109D01*
X46680734Y-23599851D01*
X46680729Y-23599848D01*
X46507807Y-23522857D01*
X46507802Y-23522855D01*
X46362001Y-23491865D01*
X46322646Y-23483500D01*
X46133354Y-23483500D01*
X46100897Y-23490398D01*
X45948197Y-23522855D01*
X45948192Y-23522857D01*
X45775270Y-23599848D01*
X45775265Y-23599851D01*
X45622129Y-23711111D01*
X45495466Y-23851785D01*
X45400821Y-24015715D01*
X45400818Y-24015722D01*
X45342327Y-24195740D01*
X45342326Y-24195744D01*
X45322540Y-24384000D01*
X27829460Y-24384000D01*
X27809674Y-24195744D01*
X27751179Y-24015716D01*
X27656533Y-23851784D01*
X27529871Y-23711112D01*
X27529867Y-23711109D01*
X27376734Y-23599851D01*
X27376729Y-23599848D01*
X27203807Y-23522857D01*
X27203802Y-23522855D01*
X27058001Y-23491865D01*
X27018646Y-23483500D01*
X26829354Y-23483500D01*
X26796897Y-23490398D01*
X26644197Y-23522855D01*
X26644192Y-23522857D01*
X26471270Y-23599848D01*
X26471265Y-23599851D01*
X26318129Y-23711111D01*
X26191466Y-23851785D01*
X26096821Y-24015715D01*
X26096818Y-24015722D01*
X26038327Y-24195740D01*
X26038326Y-24195744D01*
X26018540Y-24384000D01*
X22876460Y-24384000D01*
X22856674Y-24195744D01*
X22798179Y-24015716D01*
X22703533Y-23851784D01*
X22576871Y-23711112D01*
X22576867Y-23711109D01*
X22418473Y-23596029D01*
X22420028Y-23593888D01*
X22379921Y-23551840D01*
X22366685Y-23483235D01*
X22392642Y-23418366D01*
X22419370Y-23395205D01*
X22418473Y-23393971D01*
X22488879Y-23342817D01*
X22576871Y-23278888D01*
X22703533Y-23138216D01*
X22798179Y-22974284D01*
X22856674Y-22794256D01*
X22876460Y-22606000D01*
X22856674Y-22417744D01*
X22798179Y-22237716D01*
X22703533Y-22073784D01*
X22610986Y-21971000D01*
X25510540Y-21971000D01*
X25530326Y-22159256D01*
X25530327Y-22159259D01*
X25588818Y-22339277D01*
X25588821Y-22339284D01*
X25683467Y-22503216D01*
X25799382Y-22631952D01*
X25810129Y-22643888D01*
X25963265Y-22755148D01*
X25963270Y-22755151D01*
X26136192Y-22832142D01*
X26136197Y-22832144D01*
X26321354Y-22871500D01*
X26321355Y-22871500D01*
X26510644Y-22871500D01*
X26510646Y-22871500D01*
X26695803Y-22832144D01*
X26868730Y-22755151D01*
X27021871Y-22643888D01*
X27148533Y-22503216D01*
X27235837Y-22352000D01*
X44941540Y-22352000D01*
X44961326Y-22540256D01*
X44961327Y-22540259D01*
X45019818Y-22720277D01*
X45019821Y-22720284D01*
X45114467Y-22884216D01*
X45223515Y-23005326D01*
X45241129Y-23024888D01*
X45394265Y-23136148D01*
X45394270Y-23136151D01*
X45567192Y-23213142D01*
X45567197Y-23213144D01*
X45752354Y-23252500D01*
X45752355Y-23252500D01*
X45941644Y-23252500D01*
X45941646Y-23252500D01*
X46126803Y-23213144D01*
X46299730Y-23136151D01*
X46452871Y-23024888D01*
X46579533Y-22884216D01*
X46674179Y-22720284D01*
X46732674Y-22540256D01*
X46752460Y-22352000D01*
X46732674Y-22163744D01*
X46674179Y-21983716D01*
X46579533Y-21819784D01*
X46452871Y-21679112D01*
X46422935Y-21657362D01*
X46299734Y-21567851D01*
X46299729Y-21567848D01*
X46126807Y-21490857D01*
X46126802Y-21490855D01*
X45981001Y-21459865D01*
X45941646Y-21451500D01*
X45752354Y-21451500D01*
X45719897Y-21458398D01*
X45567197Y-21490855D01*
X45567192Y-21490857D01*
X45394270Y-21567848D01*
X45394265Y-21567851D01*
X45241129Y-21679111D01*
X45114466Y-21819785D01*
X45019821Y-21983715D01*
X45019818Y-21983722D01*
X44962784Y-22159256D01*
X44961326Y-22163744D01*
X44941540Y-22352000D01*
X27235837Y-22352000D01*
X27243179Y-22339284D01*
X27301674Y-22159256D01*
X27321460Y-21971000D01*
X27301674Y-21782744D01*
X27243179Y-21602716D01*
X27148533Y-21438784D01*
X27021871Y-21298112D01*
X27020908Y-21297412D01*
X26868734Y-21186851D01*
X26868729Y-21186848D01*
X26695807Y-21109857D01*
X26695802Y-21109855D01*
X26550001Y-21078865D01*
X26510646Y-21070500D01*
X26321354Y-21070500D01*
X26288897Y-21077398D01*
X26136197Y-21109855D01*
X26136192Y-21109857D01*
X25963270Y-21186848D01*
X25963265Y-21186851D01*
X25810129Y-21298111D01*
X25683466Y-21438785D01*
X25588821Y-21602715D01*
X25588818Y-21602722D01*
X25539929Y-21753189D01*
X25530326Y-21782744D01*
X25510540Y-21971000D01*
X22610986Y-21971000D01*
X22576871Y-21933112D01*
X22576870Y-21933111D01*
X22423734Y-21821851D01*
X22423729Y-21821848D01*
X22250807Y-21744857D01*
X22250802Y-21744855D01*
X22105000Y-21713865D01*
X22065646Y-21705500D01*
X21876354Y-21705500D01*
X21843897Y-21712398D01*
X21691197Y-21744855D01*
X21691192Y-21744857D01*
X21518270Y-21821848D01*
X21518265Y-21821851D01*
X21365129Y-21933111D01*
X21238466Y-22073785D01*
X21143821Y-22237715D01*
X21143818Y-22237722D01*
X21085327Y-22417740D01*
X21085326Y-22417744D01*
X21065540Y-22606000D01*
X21085326Y-22794256D01*
X21085327Y-22794259D01*
X21143818Y-22974277D01*
X21143821Y-22974284D01*
X21238467Y-23138216D01*
X21354196Y-23266746D01*
X21365129Y-23278888D01*
X21523527Y-23393971D01*
X21521976Y-23396105D01*
X21562098Y-23438199D01*
X21575309Y-23506808D01*
X21549330Y-23571668D01*
X21522634Y-23594800D01*
X21523527Y-23596029D01*
X21365131Y-23711109D01*
X21347667Y-23730505D01*
X21288179Y-23767152D01*
X21218322Y-23765819D01*
X21182634Y-23747849D01*
X21158762Y-23730505D01*
X21153730Y-23726849D01*
X21153728Y-23726848D01*
X21153729Y-23726848D01*
X20980807Y-23649857D01*
X20980802Y-23649855D01*
X20835000Y-23618865D01*
X20795646Y-23610500D01*
X20606354Y-23610500D01*
X20573897Y-23617398D01*
X20421197Y-23649855D01*
X20421192Y-23649857D01*
X20248270Y-23726848D01*
X20248265Y-23726851D01*
X20095129Y-23838111D01*
X19968466Y-23978785D01*
X19873821Y-24142715D01*
X19873818Y-24142722D01*
X19815327Y-24322740D01*
X19815326Y-24322744D01*
X19795540Y-24511000D01*
X19053112Y-24511000D01*
X19046674Y-24449744D01*
X18988179Y-24269716D01*
X18893533Y-24105784D01*
X18766871Y-23965112D01*
X18766870Y-23965111D01*
X18613734Y-23853851D01*
X18613729Y-23853848D01*
X18440807Y-23776857D01*
X18440802Y-23776855D01*
X18295001Y-23745865D01*
X18255646Y-23737500D01*
X18066354Y-23737500D01*
X18033897Y-23744398D01*
X17881197Y-23776855D01*
X17881192Y-23776857D01*
X17708270Y-23853848D01*
X17708265Y-23853851D01*
X17598885Y-23933321D01*
X17533079Y-23956801D01*
X17465025Y-23940975D01*
X17453115Y-23933321D01*
X17343734Y-23853851D01*
X17343729Y-23853848D01*
X17170807Y-23776857D01*
X17170802Y-23776855D01*
X17025000Y-23745865D01*
X16985646Y-23737500D01*
X16796354Y-23737500D01*
X16763897Y-23744398D01*
X16611197Y-23776855D01*
X16611192Y-23776857D01*
X16438270Y-23853848D01*
X16438265Y-23853851D01*
X16285129Y-23965111D01*
X16158466Y-24105785D01*
X16063821Y-24269715D01*
X16063818Y-24269722D01*
X16005327Y-24449740D01*
X16005326Y-24449744D01*
X15988577Y-24609101D01*
X15986176Y-24631953D01*
X15985540Y-24638000D01*
X8206000Y-24638000D01*
X8206000Y-24547000D01*
X7134969Y-24547000D01*
X7167519Y-24496351D01*
X7206000Y-24365295D01*
X7206000Y-24228705D01*
X7167519Y-24097649D01*
X7134969Y-24047000D01*
X8205999Y-24047000D01*
X8205999Y-23647028D01*
X8205998Y-23647013D01*
X8195505Y-23544302D01*
X8140358Y-23377880D01*
X8140356Y-23377875D01*
X8048315Y-23228654D01*
X7924345Y-23104684D01*
X7775124Y-23012643D01*
X7775119Y-23012641D01*
X7608697Y-22957494D01*
X7608690Y-22957493D01*
X7505986Y-22947000D01*
X6981000Y-22947000D01*
X6981000Y-23888981D01*
X6866199Y-23836554D01*
X6764975Y-23822000D01*
X6697025Y-23822000D01*
X6595801Y-23836554D01*
X6480999Y-23888981D01*
X6481000Y-22947000D01*
X5956028Y-22947000D01*
X5956012Y-22947001D01*
X5853302Y-22957494D01*
X5686880Y-23012641D01*
X5686875Y-23012643D01*
X5537654Y-23104684D01*
X5413684Y-23228654D01*
X5321643Y-23377875D01*
X5321641Y-23377880D01*
X5266494Y-23544302D01*
X5266493Y-23544309D01*
X5256000Y-23647013D01*
X5256000Y-24047000D01*
X6327031Y-24047000D01*
X6294481Y-24097649D01*
X6256000Y-24228705D01*
X6256000Y-24365295D01*
X6294481Y-24496351D01*
X6327031Y-24547000D01*
X5256001Y-24547000D01*
X5256001Y-24946986D01*
X5266494Y-25049697D01*
X5321641Y-25216119D01*
X5321643Y-25216124D01*
X5413684Y-25365345D01*
X5537654Y-25489315D01*
X5692484Y-25584815D01*
X5739208Y-25636763D01*
X5750431Y-25705726D01*
X5722587Y-25769808D01*
X5715069Y-25778035D01*
X5567501Y-25925603D01*
X5567501Y-25925604D01*
X5431967Y-26119165D01*
X5431965Y-26119169D01*
X5332098Y-26333335D01*
X5332094Y-26333344D01*
X5270938Y-26561586D01*
X5270936Y-26561596D01*
X5250341Y-26796999D01*
X5250341Y-26797000D01*
X5270936Y-27032403D01*
X5270938Y-27032413D01*
X5332094Y-27260655D01*
X5332096Y-27260659D01*
X5332097Y-27260663D01*
X5358704Y-27317722D01*
X5431964Y-27474828D01*
X5431965Y-27474830D01*
X5567505Y-27668402D01*
X5734597Y-27835494D01*
X5891595Y-27945425D01*
X5935220Y-28000002D01*
X5942414Y-28069500D01*
X5910891Y-28131855D01*
X5891595Y-28148575D01*
X5734597Y-28258505D01*
X5567506Y-28425597D01*
X5567501Y-28425604D01*
X5431967Y-28619165D01*
X5431965Y-28619169D01*
X5332098Y-28833335D01*
X5332094Y-28833344D01*
X5270938Y-29061586D01*
X5270936Y-29061596D01*
X5250341Y-29296999D01*
X5250341Y-29297000D01*
X116500Y-29297000D01*
X116500Y-21125671D01*
X23507192Y-21125671D01*
X23532066Y-21266746D01*
X23537474Y-21297412D01*
X23606547Y-21457539D01*
X23710685Y-21597422D01*
X23710686Y-21597423D01*
X23710688Y-21597425D01*
X23782118Y-21657361D01*
X23844275Y-21709517D01*
X24000116Y-21787783D01*
X24169805Y-21828000D01*
X24169807Y-21828000D01*
X24300448Y-21828000D01*
X24300455Y-21828000D01*
X24430211Y-21812834D01*
X24594084Y-21753189D01*
X24739784Y-21657360D01*
X24859458Y-21530513D01*
X24946653Y-21379487D01*
X24996668Y-21212423D01*
X25006808Y-21038329D01*
X24976526Y-20866588D01*
X24907453Y-20706461D01*
X24803315Y-20566578D01*
X24803312Y-20566576D01*
X24803311Y-20566574D01*
X24669725Y-20454483D01*
X24669723Y-20454482D01*
X24513887Y-20376218D01*
X24513885Y-20376217D01*
X24513884Y-20376217D01*
X24344195Y-20336000D01*
X24213545Y-20336000D01*
X24112623Y-20347795D01*
X24083787Y-20351166D01*
X24083785Y-20351167D01*
X23919917Y-20410810D01*
X23919913Y-20410812D01*
X23774218Y-20506637D01*
X23774217Y-20506638D01*
X23654543Y-20633485D01*
X23654539Y-20633490D01*
X23567347Y-20784511D01*
X23517333Y-20951573D01*
X23517331Y-20951581D01*
X23507192Y-21125670D01*
X23507192Y-21125671D01*
X116500Y-21125671D01*
X116500Y-20193000D01*
X32368540Y-20193000D01*
X32388326Y-20381256D01*
X32388327Y-20381259D01*
X32446818Y-20561277D01*
X32446821Y-20561284D01*
X32541467Y-20725216D01*
X32651370Y-20847275D01*
X32668129Y-20865888D01*
X32821265Y-20977148D01*
X32821270Y-20977151D01*
X32994192Y-21054142D01*
X32994197Y-21054144D01*
X33179354Y-21093500D01*
X33179355Y-21093500D01*
X33368644Y-21093500D01*
X33368646Y-21093500D01*
X33553803Y-21054144D01*
X33726730Y-20977151D01*
X33879871Y-20865888D01*
X34006533Y-20725216D01*
X34101179Y-20561284D01*
X34159674Y-20381256D01*
X34179460Y-20193000D01*
X34159674Y-20004744D01*
X34101179Y-19824716D01*
X34006533Y-19660784D01*
X33879871Y-19520112D01*
X33879870Y-19520111D01*
X33726734Y-19408851D01*
X33726729Y-19408848D01*
X33553807Y-19331857D01*
X33553802Y-19331855D01*
X33408000Y-19300865D01*
X33368646Y-19292500D01*
X33179354Y-19292500D01*
X33146897Y-19299398D01*
X32994197Y-19331855D01*
X32994192Y-19331857D01*
X32821270Y-19408848D01*
X32821265Y-19408851D01*
X32668129Y-19520111D01*
X32541466Y-19660785D01*
X32446821Y-19824715D01*
X32446818Y-19824722D01*
X32409559Y-19939395D01*
X32388326Y-20004744D01*
X32368540Y-20193000D01*
X116500Y-20193000D01*
X116500Y-16552401D01*
X4827746Y-16552401D01*
X4837745Y-16762327D01*
X4887296Y-16966578D01*
X4887298Y-16966582D01*
X4974598Y-17157743D01*
X4974601Y-17157748D01*
X4974602Y-17157750D01*
X4974604Y-17157753D01*
X5037627Y-17246256D01*
X5096515Y-17328953D01*
X5096520Y-17328959D01*
X5248619Y-17473984D01*
X5290386Y-17500826D01*
X5336141Y-17553630D01*
X5346085Y-17622789D01*
X5317060Y-17686345D01*
X5299999Y-17702612D01*
X5169462Y-17805268D01*
X5169459Y-17805271D01*
X5031894Y-17964030D01*
X5031885Y-17964041D01*
X4926855Y-18145960D01*
X4926852Y-18145967D01*
X4858144Y-18344482D01*
X4858144Y-18344484D01*
X4856632Y-18355000D01*
X5927440Y-18355000D01*
X5888722Y-18397059D01*
X5838449Y-18511670D01*
X5828114Y-18636395D01*
X5858837Y-18757719D01*
X5922394Y-18855000D01*
X4860742Y-18855000D01*
X4887770Y-18966409D01*
X4975040Y-19157507D01*
X5096889Y-19328619D01*
X5096895Y-19328625D01*
X5248932Y-19473592D01*
X5425657Y-19587166D01*
X5620685Y-19665244D01*
X5826962Y-19705000D01*
X5957000Y-19705000D01*
X5957000Y-18885617D01*
X6026052Y-18939363D01*
X6144424Y-18980000D01*
X6238073Y-18980000D01*
X6330446Y-18964586D01*
X6440514Y-18905019D01*
X6457000Y-18887110D01*
X6457000Y-19705000D01*
X6534398Y-19705000D01*
X6691122Y-19690034D01*
X6691126Y-19690033D01*
X6892686Y-19630850D01*
X7079414Y-19534586D01*
X7244537Y-19404731D01*
X7244540Y-19404728D01*
X7375839Y-19253200D01*
X35276540Y-19253200D01*
X35296326Y-19441456D01*
X35296327Y-19441459D01*
X35354818Y-19621477D01*
X35354821Y-19621484D01*
X35449467Y-19785416D01*
X35507518Y-19849888D01*
X35576129Y-19926088D01*
X35729265Y-20037348D01*
X35729270Y-20037351D01*
X35902192Y-20114342D01*
X35902197Y-20114344D01*
X36087354Y-20153700D01*
X36087355Y-20153700D01*
X36276644Y-20153700D01*
X36276646Y-20153700D01*
X36461803Y-20114344D01*
X36634730Y-20037351D01*
X36787871Y-19926088D01*
X36914533Y-19785416D01*
X37009179Y-19621484D01*
X37067674Y-19441456D01*
X37087460Y-19253200D01*
X37079451Y-19177000D01*
X49132540Y-19177000D01*
X49152326Y-19365256D01*
X49152327Y-19365259D01*
X49210818Y-19545277D01*
X49210821Y-19545284D01*
X49305467Y-19709216D01*
X49432129Y-19849888D01*
X49585265Y-19961148D01*
X49585270Y-19961151D01*
X49758192Y-20038142D01*
X49758197Y-20038144D01*
X49943354Y-20077500D01*
X49943355Y-20077500D01*
X50132644Y-20077500D01*
X50132646Y-20077500D01*
X50317803Y-20038144D01*
X50490730Y-19961151D01*
X50643871Y-19849888D01*
X50770533Y-19709216D01*
X50865179Y-19545284D01*
X50923674Y-19365256D01*
X50943460Y-19177000D01*
X50923674Y-18988744D01*
X50865179Y-18808716D01*
X50770533Y-18644784D01*
X50643871Y-18504112D01*
X50643870Y-18504111D01*
X50490734Y-18392851D01*
X50490729Y-18392848D01*
X50483434Y-18389600D01*
X51647140Y-18389600D01*
X51666926Y-18577856D01*
X51666927Y-18577859D01*
X51725418Y-18757877D01*
X51725421Y-18757884D01*
X51820067Y-18921816D01*
X51925947Y-19039407D01*
X51946729Y-19062488D01*
X52099865Y-19173748D01*
X52099870Y-19173751D01*
X52272792Y-19250742D01*
X52272797Y-19250744D01*
X52457954Y-19290100D01*
X52457955Y-19290100D01*
X52647244Y-19290100D01*
X52647246Y-19290100D01*
X52832403Y-19250744D01*
X53005330Y-19173751D01*
X53158471Y-19062488D01*
X53285133Y-18921816D01*
X53379779Y-18757884D01*
X53438274Y-18577856D01*
X53458060Y-18389600D01*
X53438274Y-18201344D01*
X53379779Y-18021316D01*
X53285133Y-17857384D01*
X53158471Y-17716712D01*
X53158470Y-17716711D01*
X53005334Y-17605451D01*
X53005329Y-17605448D01*
X52832407Y-17528457D01*
X52832402Y-17528455D01*
X52686600Y-17497465D01*
X52647246Y-17489100D01*
X52457954Y-17489100D01*
X52425497Y-17495998D01*
X52272797Y-17528455D01*
X52272792Y-17528457D01*
X52099870Y-17605448D01*
X52099865Y-17605451D01*
X51946729Y-17716711D01*
X51820066Y-17857385D01*
X51725421Y-18021315D01*
X51725418Y-18021322D01*
X51684921Y-18145960D01*
X51666926Y-18201344D01*
X51647140Y-18389600D01*
X50483434Y-18389600D01*
X50317807Y-18315857D01*
X50317802Y-18315855D01*
X50172001Y-18284865D01*
X50132646Y-18276500D01*
X49943354Y-18276500D01*
X49910897Y-18283398D01*
X49758197Y-18315855D01*
X49758192Y-18315857D01*
X49585270Y-18392848D01*
X49585265Y-18392851D01*
X49432129Y-18504111D01*
X49305466Y-18644785D01*
X49210821Y-18808715D01*
X49210818Y-18808722D01*
X49155167Y-18980000D01*
X49152326Y-18988744D01*
X49132540Y-19177000D01*
X37079451Y-19177000D01*
X37067674Y-19064944D01*
X37009179Y-18884916D01*
X36914533Y-18720984D01*
X36787871Y-18580312D01*
X36778640Y-18573605D01*
X36634734Y-18469051D01*
X36634729Y-18469048D01*
X36461807Y-18392057D01*
X36461802Y-18392055D01*
X36316001Y-18361065D01*
X36276646Y-18352700D01*
X36087354Y-18352700D01*
X36054897Y-18359598D01*
X35902197Y-18392055D01*
X35902192Y-18392057D01*
X35729270Y-18469048D01*
X35729265Y-18469051D01*
X35576129Y-18580311D01*
X35449466Y-18720985D01*
X35354821Y-18884915D01*
X35354818Y-18884922D01*
X35297124Y-19062488D01*
X35296326Y-19064944D01*
X35276540Y-19253200D01*
X7375839Y-19253200D01*
X7382105Y-19245969D01*
X7382114Y-19245958D01*
X7487144Y-19064039D01*
X7487147Y-19064032D01*
X7555855Y-18865517D01*
X7555855Y-18865515D01*
X7557368Y-18855000D01*
X6486560Y-18855000D01*
X6525278Y-18812941D01*
X6575551Y-18698330D01*
X6585886Y-18573605D01*
X6555163Y-18452281D01*
X6491606Y-18355000D01*
X7553257Y-18355000D01*
X7537003Y-18288000D01*
X27161540Y-18288000D01*
X27181326Y-18476256D01*
X27181327Y-18476259D01*
X27239818Y-18656277D01*
X27239821Y-18656284D01*
X27334467Y-18820216D01*
X27429565Y-18925833D01*
X27461129Y-18960888D01*
X27614265Y-19072148D01*
X27614270Y-19072151D01*
X27787192Y-19149142D01*
X27787197Y-19149144D01*
X27972354Y-19188500D01*
X27972355Y-19188500D01*
X28161644Y-19188500D01*
X28161646Y-19188500D01*
X28346803Y-19149144D01*
X28519730Y-19072151D01*
X28672871Y-18960888D01*
X28799533Y-18820216D01*
X28894179Y-18656284D01*
X28952674Y-18476256D01*
X28972460Y-18288000D01*
X28952674Y-18099744D01*
X28894179Y-17919716D01*
X28799533Y-17755784D01*
X28672871Y-17615112D01*
X28659570Y-17605448D01*
X28519734Y-17503851D01*
X28519729Y-17503848D01*
X28346807Y-17426857D01*
X28346802Y-17426855D01*
X28201001Y-17395865D01*
X28161646Y-17387500D01*
X27972354Y-17387500D01*
X27939897Y-17394398D01*
X27787197Y-17426855D01*
X27787192Y-17426857D01*
X27614270Y-17503848D01*
X27614265Y-17503851D01*
X27461129Y-17615111D01*
X27334466Y-17755785D01*
X27239821Y-17919715D01*
X27239818Y-17919722D01*
X27196679Y-18052492D01*
X27181326Y-18099744D01*
X27161540Y-18288000D01*
X7537003Y-18288000D01*
X7526229Y-18243590D01*
X7438959Y-18052492D01*
X7317110Y-17881380D01*
X7317104Y-17881374D01*
X7165067Y-17736408D01*
X7123641Y-17709784D01*
X7077887Y-17656979D01*
X7067944Y-17587821D01*
X7096970Y-17524265D01*
X7114030Y-17507999D01*
X7119307Y-17503849D01*
X7244886Y-17405092D01*
X7360212Y-17272000D01*
X21319540Y-17272000D01*
X21339326Y-17460256D01*
X21339327Y-17460259D01*
X21397818Y-17640277D01*
X21397821Y-17640284D01*
X21492467Y-17804216D01*
X21619128Y-17944888D01*
X21619129Y-17944888D01*
X21772265Y-18056148D01*
X21772270Y-18056151D01*
X21945192Y-18133142D01*
X21945197Y-18133144D01*
X22130354Y-18172500D01*
X22130355Y-18172500D01*
X22319644Y-18172500D01*
X22319646Y-18172500D01*
X22504803Y-18133144D01*
X22677730Y-18056151D01*
X22830871Y-17944888D01*
X22957533Y-17804216D01*
X23052179Y-17640284D01*
X23110674Y-17460256D01*
X23130460Y-17272000D01*
X23110674Y-17083744D01*
X23054323Y-16910317D01*
X23052329Y-16840477D01*
X23088409Y-16780644D01*
X23151110Y-16749816D01*
X23172255Y-16748000D01*
X23285448Y-16748000D01*
X23285455Y-16748000D01*
X23415211Y-16732834D01*
X23579084Y-16673189D01*
X23724784Y-16577360D01*
X23844458Y-16450513D01*
X23931653Y-16299487D01*
X23981668Y-16132423D01*
X23986721Y-16045671D01*
X24522192Y-16045671D01*
X24537487Y-16132418D01*
X24552474Y-16217412D01*
X24621547Y-16377539D01*
X24725685Y-16517422D01*
X24725686Y-16517423D01*
X24725688Y-16517425D01*
X24797118Y-16577361D01*
X24859275Y-16629517D01*
X25015116Y-16707783D01*
X25184805Y-16748000D01*
X25184807Y-16748000D01*
X25315448Y-16748000D01*
X25315455Y-16748000D01*
X25445211Y-16732834D01*
X25609084Y-16673189D01*
X25754784Y-16577360D01*
X25874458Y-16450513D01*
X25961653Y-16299487D01*
X26011668Y-16132423D01*
X26021808Y-15958329D01*
X25991526Y-15786588D01*
X25922453Y-15626461D01*
X25818315Y-15486578D01*
X25818312Y-15486576D01*
X25818311Y-15486574D01*
X25684725Y-15374483D01*
X25684723Y-15374482D01*
X25528887Y-15296218D01*
X25528885Y-15296217D01*
X25528884Y-15296217D01*
X25359195Y-15256000D01*
X25228545Y-15256000D01*
X25127623Y-15267795D01*
X25098787Y-15271166D01*
X25098785Y-15271167D01*
X24934917Y-15330810D01*
X24934913Y-15330812D01*
X24789218Y-15426637D01*
X24789217Y-15426638D01*
X24669543Y-15553485D01*
X24669539Y-15553490D01*
X24582347Y-15704511D01*
X24532333Y-15871573D01*
X24532331Y-15871581D01*
X24522192Y-16045670D01*
X24522192Y-16045671D01*
X23986721Y-16045671D01*
X23991808Y-15958329D01*
X23961526Y-15786588D01*
X23892453Y-15626461D01*
X23788315Y-15486578D01*
X23788312Y-15486576D01*
X23788311Y-15486574D01*
X23654725Y-15374483D01*
X23654723Y-15374482D01*
X23498887Y-15296218D01*
X23498885Y-15296217D01*
X23498884Y-15296217D01*
X23329195Y-15256000D01*
X23198545Y-15256000D01*
X23097623Y-15267795D01*
X23068787Y-15271166D01*
X23068785Y-15271167D01*
X22904917Y-15330810D01*
X22904913Y-15330812D01*
X22759218Y-15426637D01*
X22759217Y-15426638D01*
X22639543Y-15553485D01*
X22639539Y-15553490D01*
X22552347Y-15704511D01*
X22502333Y-15871573D01*
X22502331Y-15871581D01*
X22492192Y-16045670D01*
X22492192Y-16045671D01*
X22522473Y-16217412D01*
X22524545Y-16224330D01*
X22522415Y-16224967D01*
X22529583Y-16283586D01*
X22499221Y-16346514D01*
X22439658Y-16383038D01*
X22381466Y-16384640D01*
X22370684Y-16382348D01*
X22319646Y-16371500D01*
X22130354Y-16371500D01*
X22097897Y-16378398D01*
X21945197Y-16410855D01*
X21945192Y-16410857D01*
X21772270Y-16487848D01*
X21772265Y-16487851D01*
X21619129Y-16599111D01*
X21492466Y-16739785D01*
X21397821Y-16903715D01*
X21397818Y-16903722D01*
X21377394Y-16966582D01*
X21339326Y-17083744D01*
X21319540Y-17272000D01*
X7360212Y-17272000D01*
X7382519Y-17246256D01*
X7487604Y-17064244D01*
X7556344Y-16865633D01*
X7586254Y-16657602D01*
X7576254Y-16447670D01*
X7526704Y-16243424D01*
X7514825Y-16217412D01*
X7439401Y-16052256D01*
X7439398Y-16052251D01*
X7439397Y-16052250D01*
X7439396Y-16052247D01*
X7317486Y-15881048D01*
X7317484Y-15881046D01*
X7317479Y-15881040D01*
X7165379Y-15736014D01*
X7124057Y-15709458D01*
X7078302Y-15656654D01*
X7068359Y-15587496D01*
X7097384Y-15523940D01*
X7114445Y-15507673D01*
X7157283Y-15473984D01*
X7244886Y-15405092D01*
X7382519Y-15246256D01*
X7487604Y-15064244D01*
X7556344Y-14865633D01*
X7586254Y-14657602D01*
X7576254Y-14447670D01*
X7526704Y-14243424D01*
X7526701Y-14243417D01*
X7439401Y-14052256D01*
X7439398Y-14052251D01*
X7439397Y-14052250D01*
X7439396Y-14052247D01*
X7317486Y-13881048D01*
X7237627Y-13804903D01*
X7214917Y-13783249D01*
X7179982Y-13722740D01*
X7183307Y-13652950D01*
X7223835Y-13596036D01*
X7235384Y-13587971D01*
X7300656Y-13547712D01*
X7424712Y-13423656D01*
X7516814Y-13274334D01*
X7571999Y-13107797D01*
X7582500Y-13005009D01*
X7582499Y-12204992D01*
X7579035Y-12171086D01*
X7571999Y-12102203D01*
X7571998Y-12102200D01*
X7550187Y-12036379D01*
X7516814Y-11935666D01*
X7424712Y-11786344D01*
X7300656Y-11662288D01*
X7151334Y-11570186D01*
X6984797Y-11515001D01*
X6984795Y-11515000D01*
X6882010Y-11504500D01*
X5531998Y-11504500D01*
X5531981Y-11504501D01*
X5429203Y-11515000D01*
X5429200Y-11515001D01*
X5262668Y-11570185D01*
X5262663Y-11570187D01*
X5113342Y-11662289D01*
X4989289Y-11786342D01*
X4897187Y-11935663D01*
X4897185Y-11935668D01*
X4883541Y-11976844D01*
X4842001Y-12102203D01*
X4842001Y-12102204D01*
X4842000Y-12102204D01*
X4831500Y-12204983D01*
X4831500Y-13005001D01*
X4831501Y-13005019D01*
X4842000Y-13107796D01*
X4842001Y-13107799D01*
X4897185Y-13274331D01*
X4897187Y-13274336D01*
X4989289Y-13423657D01*
X5113344Y-13547712D01*
X5176739Y-13586814D01*
X5223464Y-13638762D01*
X5234687Y-13707724D01*
X5206844Y-13771806D01*
X5188296Y-13789822D01*
X5169118Y-13804903D01*
X5169112Y-13804909D01*
X5031478Y-13963746D01*
X4926398Y-14145750D01*
X4857656Y-14344365D01*
X4857656Y-14344367D01*
X4842804Y-14447670D01*
X4827746Y-14552401D01*
X4837745Y-14762327D01*
X4887296Y-14966578D01*
X4887298Y-14966582D01*
X4974598Y-15157743D01*
X4974601Y-15157748D01*
X4974602Y-15157750D01*
X4974604Y-15157753D01*
X5096514Y-15328952D01*
X5096515Y-15328953D01*
X5096520Y-15328959D01*
X5248619Y-15473984D01*
X5248621Y-15473985D01*
X5248622Y-15473986D01*
X5268215Y-15486578D01*
X5289941Y-15500540D01*
X5335696Y-15553344D01*
X5345640Y-15622503D01*
X5316615Y-15686059D01*
X5299555Y-15702326D01*
X5169112Y-15804909D01*
X5031478Y-15963746D01*
X4926398Y-16145750D01*
X4857656Y-16344365D01*
X4857656Y-16344367D01*
X4832775Y-16517425D01*
X4827746Y-16552401D01*
X116500Y-16552401D01*
X116500Y-5080000D01*
X1501922Y-5080000D01*
X1522219Y-5467287D01*
X1582886Y-5850323D01*
X1582887Y-5850330D01*
X1683262Y-6224936D01*
X1822244Y-6586994D01*
X1998310Y-6932543D01*
X2209531Y-7257793D01*
X2418095Y-7515350D01*
X2418096Y-7515350D01*
X3315756Y-6617689D01*
X3274449Y-6679511D01*
X3255046Y-6777056D01*
X3274449Y-6874601D01*
X3329704Y-6957296D01*
X3412399Y-7012551D01*
X3485320Y-7027056D01*
X3534568Y-7027056D01*
X3607489Y-7012551D01*
X3669304Y-6971247D01*
X2771648Y-7868903D01*
X2771649Y-7868904D01*
X3029206Y-8077468D01*
X3354456Y-8288689D01*
X3700005Y-8464755D01*
X4062063Y-8603737D01*
X4436669Y-8704112D01*
X4436676Y-8704113D01*
X4819712Y-8764780D01*
X5206999Y-8785078D01*
X5207001Y-8785078D01*
X5594287Y-8764780D01*
X5977323Y-8704113D01*
X5977330Y-8704112D01*
X6351936Y-8603737D01*
X6520580Y-8539000D01*
X12032341Y-8539000D01*
X12052936Y-8774403D01*
X12052938Y-8774413D01*
X12114094Y-9002655D01*
X12114096Y-9002659D01*
X12114097Y-9002663D01*
X12213965Y-9216829D01*
X12213965Y-9216830D01*
X12213967Y-9216834D01*
X12322281Y-9371521D01*
X12349501Y-9410396D01*
X12349506Y-9410402D01*
X12471818Y-9532714D01*
X12505303Y-9594037D01*
X12500319Y-9663729D01*
X12458447Y-9719662D01*
X12427471Y-9736577D01*
X12295912Y-9785646D01*
X12295906Y-9785649D01*
X12180812Y-9871809D01*
X12180809Y-9871812D01*
X12094649Y-9986906D01*
X12094645Y-9986913D01*
X12044403Y-10121620D01*
X12044401Y-10121627D01*
X12038000Y-10181155D01*
X12038000Y-10829000D01*
X12954314Y-10829000D01*
X12928507Y-10869156D01*
X12888000Y-11007111D01*
X12888000Y-11150889D01*
X12928507Y-11288844D01*
X12954314Y-11329000D01*
X12038000Y-11329000D01*
X12038000Y-11976844D01*
X12044401Y-12036372D01*
X12044403Y-12036379D01*
X12094645Y-12171086D01*
X12094649Y-12171093D01*
X12180809Y-12286187D01*
X12180812Y-12286190D01*
X12295906Y-12372350D01*
X12295913Y-12372354D01*
X12430620Y-12422596D01*
X12430627Y-12422598D01*
X12490155Y-12428999D01*
X12490172Y-12429000D01*
X13138000Y-12429000D01*
X13138000Y-11514501D01*
X13245685Y-11563680D01*
X13352237Y-11579000D01*
X13423763Y-11579000D01*
X13530315Y-11563680D01*
X13638000Y-11514501D01*
X13638000Y-12429000D01*
X14285828Y-12429000D01*
X14285844Y-12428999D01*
X14345372Y-12422598D01*
X14345379Y-12422596D01*
X14480086Y-12372354D01*
X14480093Y-12372350D01*
X14595187Y-12286190D01*
X14595190Y-12286187D01*
X14681350Y-12171093D01*
X14681354Y-12171086D01*
X14731596Y-12036379D01*
X14731598Y-12036372D01*
X14737999Y-11976844D01*
X14738000Y-11976827D01*
X14738000Y-11329000D01*
X13821686Y-11329000D01*
X13847493Y-11288844D01*
X13888000Y-11150889D01*
X13888000Y-11007111D01*
X13847493Y-10869156D01*
X13821686Y-10829000D01*
X14738000Y-10829000D01*
X14738000Y-10181172D01*
X14737999Y-10181155D01*
X14731598Y-10121627D01*
X14731596Y-10121620D01*
X14681354Y-9986913D01*
X14681350Y-9986906D01*
X14595190Y-9871812D01*
X14595187Y-9871809D01*
X14480093Y-9785649D01*
X14480088Y-9785646D01*
X14348528Y-9736577D01*
X14292595Y-9694705D01*
X14268178Y-9629241D01*
X14283030Y-9560968D01*
X14304175Y-9532720D01*
X14426495Y-9410401D01*
X14562035Y-9216830D01*
X14661903Y-9002663D01*
X14723063Y-8774408D01*
X14743659Y-8539000D01*
X14723063Y-8303592D01*
X14670253Y-8106499D01*
X14661905Y-8075344D01*
X14661904Y-8075343D01*
X14661903Y-8075337D01*
X14562035Y-7861171D01*
X14548252Y-7841486D01*
X14426494Y-7667597D01*
X14259402Y-7500506D01*
X14259401Y-7500505D01*
X14124447Y-7406009D01*
X14073841Y-7370574D01*
X14030216Y-7315997D01*
X14023024Y-7246498D01*
X14054546Y-7184144D01*
X14073836Y-7167428D01*
X14229548Y-7058398D01*
X52558000Y-7058398D01*
X52572965Y-7215122D01*
X52572966Y-7215126D01*
X52632149Y-7416686D01*
X52728413Y-7603414D01*
X52858268Y-7768537D01*
X52858271Y-7768540D01*
X53017030Y-7906105D01*
X53017041Y-7906114D01*
X53198960Y-8011144D01*
X53198967Y-8011147D01*
X53397487Y-8079856D01*
X53408000Y-8081367D01*
X53408000Y-7011617D01*
X53477052Y-7065363D01*
X53595424Y-7106000D01*
X53689073Y-7106000D01*
X53781446Y-7090586D01*
X53891514Y-7031019D01*
X53907999Y-7013110D01*
X53908000Y-8077257D01*
X54019409Y-8050229D01*
X54210507Y-7962959D01*
X54381619Y-7841110D01*
X54381625Y-7841104D01*
X54526594Y-7689065D01*
X54553214Y-7647643D01*
X54606017Y-7601887D01*
X54675175Y-7591943D01*
X54738731Y-7620967D01*
X54755000Y-7638029D01*
X54857905Y-7768883D01*
X54857909Y-7768887D01*
X55016746Y-7906521D01*
X55198750Y-8011601D01*
X55198752Y-8011601D01*
X55198756Y-8011604D01*
X55397367Y-8080344D01*
X55605398Y-8110254D01*
X55815330Y-8100254D01*
X56019576Y-8050704D01*
X56106200Y-8011144D01*
X56210743Y-7963401D01*
X56210746Y-7963399D01*
X56210753Y-7963396D01*
X56381952Y-7841486D01*
X56479751Y-7738916D01*
X56540258Y-7703983D01*
X56610049Y-7707307D01*
X56666963Y-7747835D01*
X56675030Y-7759388D01*
X56715288Y-7824656D01*
X56839344Y-7948712D01*
X56988666Y-8040814D01*
X57155203Y-8095999D01*
X57257991Y-8106500D01*
X58058008Y-8106499D01*
X58058016Y-8106498D01*
X58058019Y-8106498D01*
X58119143Y-8100254D01*
X58160797Y-8095999D01*
X58327334Y-8040814D01*
X58476656Y-7948712D01*
X58600712Y-7824656D01*
X58692814Y-7675334D01*
X58747999Y-7508797D01*
X58758500Y-7406009D01*
X58758499Y-6055992D01*
X58747999Y-5953203D01*
X58692814Y-5786666D01*
X58600712Y-5637344D01*
X58476656Y-5513288D01*
X58375431Y-5450852D01*
X58327336Y-5421187D01*
X58327331Y-5421185D01*
X58297488Y-5411296D01*
X58160797Y-5366001D01*
X58160795Y-5366000D01*
X58058010Y-5355500D01*
X57257998Y-5355500D01*
X57257980Y-5355501D01*
X57155203Y-5366000D01*
X57155200Y-5366001D01*
X56988668Y-5421185D01*
X56988663Y-5421187D01*
X56839342Y-5513289D01*
X56715288Y-5637343D01*
X56715285Y-5637347D01*
X56676184Y-5700740D01*
X56624236Y-5747465D01*
X56555274Y-5758686D01*
X56491192Y-5730843D01*
X56473175Y-5712294D01*
X56458092Y-5693114D01*
X56458090Y-5693112D01*
X56299253Y-5555478D01*
X56117249Y-5450398D01*
X56117245Y-5450396D01*
X56117244Y-5450396D01*
X55918633Y-5381656D01*
X55710602Y-5351746D01*
X55710598Y-5351746D01*
X55500672Y-5361745D01*
X55296421Y-5411296D01*
X55296417Y-5411298D01*
X55105256Y-5498598D01*
X55105251Y-5498601D01*
X54934046Y-5620515D01*
X54934040Y-5620520D01*
X54789016Y-5772618D01*
X54762172Y-5814388D01*
X54709367Y-5860142D01*
X54640208Y-5870085D01*
X54576653Y-5841059D01*
X54560387Y-5823999D01*
X54457731Y-5693462D01*
X54457728Y-5693459D01*
X54298969Y-5555894D01*
X54298958Y-5555885D01*
X54117039Y-5450855D01*
X54117032Y-5450852D01*
X53918516Y-5382144D01*
X53907999Y-5380632D01*
X53907999Y-6450382D01*
X53838948Y-6396637D01*
X53720576Y-6356000D01*
X53626927Y-6356000D01*
X53534554Y-6371414D01*
X53424486Y-6430981D01*
X53407999Y-6448890D01*
X53407999Y-5384741D01*
X53407998Y-5384740D01*
X53296594Y-5411768D01*
X53296582Y-5411772D01*
X53105497Y-5499037D01*
X53105496Y-5499038D01*
X52934380Y-5620889D01*
X52934374Y-5620895D01*
X52789407Y-5772932D01*
X52675833Y-5949657D01*
X52597755Y-6144685D01*
X52558000Y-6350962D01*
X52558000Y-6481000D01*
X53378440Y-6481000D01*
X53339722Y-6523059D01*
X53289449Y-6637670D01*
X53279114Y-6762395D01*
X53309837Y-6883719D01*
X53373394Y-6981000D01*
X52558000Y-6981000D01*
X52558000Y-7058398D01*
X14229548Y-7058398D01*
X14259401Y-7037495D01*
X14426495Y-6870401D01*
X14562035Y-6676830D01*
X14661903Y-6462663D01*
X14723063Y-6234408D01*
X14743659Y-5999000D01*
X14723063Y-5763592D01*
X14661903Y-5535337D01*
X14562035Y-5321171D01*
X14461468Y-5177545D01*
X14426494Y-5127597D01*
X14378897Y-5080000D01*
X62207922Y-5080000D01*
X62228219Y-5467287D01*
X62288886Y-5850323D01*
X62288887Y-5850330D01*
X62389262Y-6224936D01*
X62528244Y-6586994D01*
X62704310Y-6932543D01*
X62915531Y-7257793D01*
X63124095Y-7515350D01*
X63124096Y-7515350D01*
X64021756Y-6617689D01*
X63980449Y-6679511D01*
X63961046Y-6777056D01*
X63980449Y-6874601D01*
X64035704Y-6957296D01*
X64118399Y-7012551D01*
X64191320Y-7027056D01*
X64240568Y-7027056D01*
X64313489Y-7012551D01*
X64375304Y-6971247D01*
X63477648Y-7868903D01*
X63477649Y-7868904D01*
X63735206Y-8077468D01*
X64060456Y-8288689D01*
X64406005Y-8464755D01*
X64768063Y-8603737D01*
X65142669Y-8704112D01*
X65142676Y-8704113D01*
X65525712Y-8764780D01*
X65912999Y-8785078D01*
X65913001Y-8785078D01*
X66300287Y-8764780D01*
X66683323Y-8704113D01*
X66683330Y-8704112D01*
X67057936Y-8603737D01*
X67419994Y-8464755D01*
X67765543Y-8288689D01*
X68090783Y-8077476D01*
X68090785Y-8077475D01*
X68348349Y-7868902D01*
X67450691Y-6971244D01*
X67512511Y-7012551D01*
X67585432Y-7027056D01*
X67634680Y-7027056D01*
X67707601Y-7012551D01*
X67790296Y-6957296D01*
X67845551Y-6874601D01*
X67864954Y-6777056D01*
X67845551Y-6679511D01*
X67804244Y-6617691D01*
X68701902Y-7515349D01*
X68910475Y-7257785D01*
X68910476Y-7257783D01*
X69121689Y-6932543D01*
X69297755Y-6586994D01*
X69436737Y-6224936D01*
X69537112Y-5850330D01*
X69537113Y-5850323D01*
X69597780Y-5467287D01*
X69618078Y-5080000D01*
X69618078Y-5079999D01*
X69597780Y-4692712D01*
X69537113Y-4309676D01*
X69537112Y-4309669D01*
X69436737Y-3935063D01*
X69297755Y-3573005D01*
X69121689Y-3227456D01*
X68910468Y-2902206D01*
X68701904Y-2644649D01*
X68701903Y-2644648D01*
X67804247Y-3542303D01*
X67845551Y-3480489D01*
X67864954Y-3382944D01*
X67845551Y-3285399D01*
X67790296Y-3202704D01*
X67707601Y-3147449D01*
X67634680Y-3132944D01*
X67585432Y-3132944D01*
X67512511Y-3147449D01*
X67450690Y-3188755D01*
X68348350Y-2291096D01*
X68348350Y-2291095D01*
X68090793Y-2082531D01*
X67765543Y-1871310D01*
X67419994Y-1695244D01*
X67057936Y-1556262D01*
X66683330Y-1455887D01*
X66683323Y-1455886D01*
X66300287Y-1395219D01*
X65913001Y-1374922D01*
X65912999Y-1374922D01*
X65525712Y-1395219D01*
X65142676Y-1455886D01*
X65142669Y-1455887D01*
X64768063Y-1556262D01*
X64406005Y-1695244D01*
X64060456Y-1871310D01*
X63735206Y-2082531D01*
X63477648Y-2291095D01*
X63477648Y-2291096D01*
X64375306Y-3188754D01*
X64313489Y-3147449D01*
X64240568Y-3132944D01*
X64191320Y-3132944D01*
X64118399Y-3147449D01*
X64035704Y-3202704D01*
X63980449Y-3285399D01*
X63961046Y-3382944D01*
X63980449Y-3480489D01*
X64021753Y-3542305D01*
X63124096Y-2644648D01*
X63124095Y-2644648D01*
X62915531Y-2902206D01*
X62704310Y-3227456D01*
X62528244Y-3573005D01*
X62389262Y-3935063D01*
X62288887Y-4309669D01*
X62288886Y-4309676D01*
X62228219Y-4692712D01*
X62207922Y-5079999D01*
X62207922Y-5080000D01*
X14378897Y-5080000D01*
X14259402Y-4960506D01*
X14259401Y-4960505D01*
X14073842Y-4830575D01*
X14073841Y-4830574D01*
X14030216Y-4775997D01*
X14023024Y-4706498D01*
X14054546Y-4644144D01*
X14073836Y-4627428D01*
X14259401Y-4497495D01*
X14426495Y-4330401D01*
X14562035Y-4136830D01*
X14661903Y-3922663D01*
X14723063Y-3694408D01*
X14743659Y-3459000D01*
X14723063Y-3223592D01*
X14661903Y-2995337D01*
X14562035Y-2781171D01*
X14426495Y-2587599D01*
X14426494Y-2587597D01*
X14259402Y-2420506D01*
X14259395Y-2420501D01*
X14065834Y-2284967D01*
X14065830Y-2284965D01*
X14065828Y-2284964D01*
X13851663Y-2185097D01*
X13851659Y-2185096D01*
X13851655Y-2185094D01*
X13623413Y-2123938D01*
X13623403Y-2123936D01*
X13388001Y-2103341D01*
X13387999Y-2103341D01*
X13152596Y-2123936D01*
X13152586Y-2123938D01*
X12924344Y-2185094D01*
X12924335Y-2185098D01*
X12710171Y-2284964D01*
X12710169Y-2284965D01*
X12516597Y-2420505D01*
X12349505Y-2587597D01*
X12213965Y-2781169D01*
X12213964Y-2781171D01*
X12114098Y-2995335D01*
X12114094Y-2995344D01*
X12052938Y-3223586D01*
X12052936Y-3223596D01*
X12032341Y-3458999D01*
X12032341Y-3459000D01*
X12052936Y-3694403D01*
X12052938Y-3694413D01*
X12114094Y-3922655D01*
X12114096Y-3922659D01*
X12114097Y-3922663D01*
X12124574Y-3945130D01*
X12213965Y-4136830D01*
X12213967Y-4136834D01*
X12349501Y-4330395D01*
X12349506Y-4330402D01*
X12516597Y-4497493D01*
X12516603Y-4497498D01*
X12702158Y-4627425D01*
X12745783Y-4682002D01*
X12752977Y-4751500D01*
X12721454Y-4813855D01*
X12702158Y-4830575D01*
X12516597Y-4960505D01*
X12349505Y-5127597D01*
X12213965Y-5321169D01*
X12213964Y-5321171D01*
X12114098Y-5535335D01*
X12114094Y-5535344D01*
X12052938Y-5763586D01*
X12052936Y-5763596D01*
X12032341Y-5998999D01*
X12032341Y-5999000D01*
X12052936Y-6234403D01*
X12052938Y-6234413D01*
X12114094Y-6462655D01*
X12114096Y-6462659D01*
X12114097Y-6462663D01*
X12144124Y-6527056D01*
X12213965Y-6676830D01*
X12213967Y-6676834D01*
X12349501Y-6870395D01*
X12349506Y-6870402D01*
X12516597Y-7037493D01*
X12516603Y-7037498D01*
X12702158Y-7167425D01*
X12745783Y-7222002D01*
X12752977Y-7291500D01*
X12721454Y-7353855D01*
X12702158Y-7370575D01*
X12516597Y-7500505D01*
X12349505Y-7667597D01*
X12213965Y-7861169D01*
X12213964Y-7861171D01*
X12114098Y-8075335D01*
X12114094Y-8075344D01*
X12052938Y-8303586D01*
X12052936Y-8303596D01*
X12032341Y-8538999D01*
X12032341Y-8539000D01*
X6520580Y-8539000D01*
X6713994Y-8464755D01*
X7059543Y-8288689D01*
X7384783Y-8077476D01*
X7384785Y-8077475D01*
X7642349Y-7868902D01*
X6744691Y-6971244D01*
X6806511Y-7012551D01*
X6879432Y-7027056D01*
X6928680Y-7027056D01*
X7001601Y-7012551D01*
X7084296Y-6957296D01*
X7139551Y-6874601D01*
X7158954Y-6777056D01*
X7139551Y-6679511D01*
X7098244Y-6617691D01*
X7995902Y-7515349D01*
X8204475Y-7257785D01*
X8204476Y-7257783D01*
X8415689Y-6932543D01*
X8591755Y-6586994D01*
X8730737Y-6224936D01*
X8831112Y-5850330D01*
X8831113Y-5850323D01*
X8891780Y-5467287D01*
X8912078Y-5080000D01*
X8912078Y-5079999D01*
X8891780Y-4692712D01*
X8831113Y-4309676D01*
X8831112Y-4309669D01*
X8730737Y-3935063D01*
X8591755Y-3573005D01*
X8415689Y-3227456D01*
X8204468Y-2902206D01*
X7995904Y-2644649D01*
X7995903Y-2644648D01*
X7098248Y-3542302D01*
X7139551Y-3480489D01*
X7158954Y-3382944D01*
X7139551Y-3285399D01*
X7084296Y-3202704D01*
X7001601Y-3147449D01*
X6928680Y-3132944D01*
X6879432Y-3132944D01*
X6806511Y-3147449D01*
X6744690Y-3188755D01*
X7642350Y-2291096D01*
X7642350Y-2291095D01*
X7384793Y-2082531D01*
X7059543Y-1871310D01*
X6713994Y-1695244D01*
X6351936Y-1556262D01*
X5977330Y-1455887D01*
X5977323Y-1455886D01*
X5594287Y-1395219D01*
X5207001Y-1374922D01*
X5206999Y-1374922D01*
X4819712Y-1395219D01*
X4436676Y-1455886D01*
X4436669Y-1455887D01*
X4062063Y-1556262D01*
X3700005Y-1695244D01*
X3354456Y-1871310D01*
X3029206Y-2082531D01*
X2771648Y-2291095D01*
X2771648Y-2291096D01*
X3669306Y-3188754D01*
X3607489Y-3147449D01*
X3534568Y-3132944D01*
X3485320Y-3132944D01*
X3412399Y-3147449D01*
X3329704Y-3202704D01*
X3274449Y-3285399D01*
X3255046Y-3382944D01*
X3274449Y-3480489D01*
X3315753Y-3542305D01*
X2418096Y-2644648D01*
X2418095Y-2644648D01*
X2209531Y-2902206D01*
X1998310Y-3227456D01*
X1822244Y-3573005D01*
X1683262Y-3935063D01*
X1582887Y-4309669D01*
X1582886Y-4309676D01*
X1522219Y-4692712D01*
X1501922Y-5079999D01*
X1501922Y-5080000D01*
X116500Y-5080000D01*
X116500Y-2090036D01*
X116633Y-2085980D01*
X121989Y-2004265D01*
X123541Y-1982561D01*
X134986Y-1822538D01*
X136015Y-1814901D01*
X159155Y-1698567D01*
X190533Y-1554323D01*
X192392Y-1547625D01*
X232547Y-1429335D01*
X233087Y-1427817D01*
X282162Y-1296242D01*
X284628Y-1290530D01*
X341044Y-1176129D01*
X342152Y-1173996D01*
X408184Y-1053066D01*
X411029Y-1048368D01*
X482563Y-941311D01*
X484428Y-938676D01*
X566291Y-829321D01*
X569244Y-825678D01*
X654503Y-728459D01*
X657198Y-725581D01*
X753581Y-629198D01*
X756459Y-626503D01*
X853678Y-541244D01*
X857321Y-538291D01*
X966676Y-456428D01*
X969311Y-454563D01*
X1076368Y-383029D01*
X1081066Y-380184D01*
X1201996Y-314152D01*
X1204129Y-313044D01*
X1318530Y-256628D01*
X1324242Y-254162D01*
X1455817Y-205087D01*
X1457335Y-204547D01*
X1575625Y-164392D01*
X1582323Y-162533D01*
X1726567Y-131155D01*
X1842901Y-108015D01*
X1850536Y-106986D01*
X2032290Y-93986D01*
X2062237Y-92023D01*
X2113981Y-88633D01*
X2118036Y-88500D01*
X69113964Y-88500D01*
X69118019Y-88633D01*
G37*
%TD.AperFunction*%
%TD*%
M02*
