%TF.GenerationSoftware,KiCad,Pcbnew,7.0.5-0*%
%TF.CreationDate,2023-06-02T13:54:40-04:00*%
%TF.ProjectId,7-segment-display-controller,372d7365-676d-4656-9e74-2d646973706c,B*%
%TF.SameCoordinates,Original*%
%TF.FileFunction,Copper,L1,Top*%
%TF.FilePolarity,Positive*%
%FSLAX46Y46*%
G04 Gerber Fmt 4.6, Leading zero omitted, Abs format (unit mm)*
G04 Created by KiCad (PCBNEW 7.0.5-0) date 2023-06-02 13:54:40*
%MOMM*%
%LPD*%
G01*
G04 APERTURE LIST*
G04 Aperture macros list*
%AMRoundRect*
0 Rectangle with rounded corners*
0 $1 Rounding radius*
0 $2 $3 $4 $5 $6 $7 $8 $9 X,Y pos of 4 corners*
0 Add a 4 corners polygon primitive as box body*
4,1,4,$2,$3,$4,$5,$6,$7,$8,$9,$2,$3,0*
0 Add four circle primitives for the rounded corners*
1,1,$1+$1,$2,$3*
1,1,$1+$1,$4,$5*
1,1,$1+$1,$6,$7*
1,1,$1+$1,$8,$9*
0 Add four rect primitives between the rounded corners*
20,1,$1+$1,$2,$3,$4,$5,0*
20,1,$1+$1,$4,$5,$6,$7,0*
20,1,$1+$1,$6,$7,$8,$9,0*
20,1,$1+$1,$8,$9,$2,$3,0*%
%AMFreePoly0*
4,1,19,0.550000,-0.750000,0.000000,-0.750000,0.000000,-0.744911,-0.071157,-0.744911,-0.207708,-0.704816,-0.327430,-0.627875,-0.420627,-0.520320,-0.479746,-0.390866,-0.500000,-0.250000,-0.500000,0.250000,-0.479746,0.390866,-0.420627,0.520320,-0.327430,0.627875,-0.207708,0.704816,-0.071157,0.744911,0.000000,0.744911,0.000000,0.750000,0.550000,0.750000,0.550000,-0.750000,0.550000,-0.750000,
$1*%
%AMFreePoly1*
4,1,19,0.000000,0.744911,0.071157,0.744911,0.207708,0.704816,0.327430,0.627875,0.420627,0.520320,0.479746,0.390866,0.500000,0.250000,0.500000,-0.250000,0.479746,-0.390866,0.420627,-0.520320,0.327430,-0.627875,0.207708,-0.704816,0.071157,-0.744911,0.000000,-0.744911,0.000000,-0.750000,-0.550000,-0.750000,-0.550000,0.750000,0.000000,0.750000,0.000000,0.744911,0.000000,0.744911,
$1*%
G04 Aperture macros list end*
%TA.AperFunction,SMDPad,CuDef*%
%ADD10RoundRect,0.250000X-0.325000X-0.450000X0.325000X-0.450000X0.325000X0.450000X-0.325000X0.450000X0*%
%TD*%
%TA.AperFunction,SMDPad,CuDef*%
%ADD11RoundRect,0.225000X-0.250000X0.225000X-0.250000X-0.225000X0.250000X-0.225000X0.250000X0.225000X0*%
%TD*%
%TA.AperFunction,ComponentPad*%
%ADD12C,0.800000*%
%TD*%
%TA.AperFunction,ComponentPad*%
%ADD13C,6.400000*%
%TD*%
%TA.AperFunction,SMDPad,CuDef*%
%ADD14R,1.800000X1.000000*%
%TD*%
%TA.AperFunction,SMDPad,CuDef*%
%ADD15RoundRect,0.225000X0.250000X-0.225000X0.250000X0.225000X-0.250000X0.225000X-0.250000X-0.225000X0*%
%TD*%
%TA.AperFunction,SMDPad,CuDef*%
%ADD16RoundRect,0.225000X0.225000X0.250000X-0.225000X0.250000X-0.225000X-0.250000X0.225000X-0.250000X0*%
%TD*%
%TA.AperFunction,SMDPad,CuDef*%
%ADD17RoundRect,0.150000X-0.587500X-0.150000X0.587500X-0.150000X0.587500X0.150000X-0.587500X0.150000X0*%
%TD*%
%TA.AperFunction,SMDPad,CuDef*%
%ADD18RoundRect,0.200000X0.275000X-0.200000X0.275000X0.200000X-0.275000X0.200000X-0.275000X-0.200000X0*%
%TD*%
%TA.AperFunction,SMDPad,CuDef*%
%ADD19RoundRect,0.200000X-0.200000X-0.275000X0.200000X-0.275000X0.200000X0.275000X-0.200000X0.275000X0*%
%TD*%
%TA.AperFunction,ComponentPad*%
%ADD20R,1.700000X1.700000*%
%TD*%
%TA.AperFunction,ComponentPad*%
%ADD21O,1.700000X1.700000*%
%TD*%
%TA.AperFunction,SMDPad,CuDef*%
%ADD22RoundRect,0.225000X-0.225000X-0.250000X0.225000X-0.250000X0.225000X0.250000X-0.225000X0.250000X0*%
%TD*%
%TA.AperFunction,SMDPad,CuDef*%
%ADD23R,1.500000X2.000000*%
%TD*%
%TA.AperFunction,SMDPad,CuDef*%
%ADD24R,3.800000X2.000000*%
%TD*%
%TA.AperFunction,SMDPad,CuDef*%
%ADD25RoundRect,0.218750X0.218750X0.256250X-0.218750X0.256250X-0.218750X-0.256250X0.218750X-0.256250X0*%
%TD*%
%TA.AperFunction,SMDPad,CuDef*%
%ADD26R,0.400000X1.350000*%
%TD*%
%TA.AperFunction,ComponentPad*%
%ADD27O,1.200000X1.900000*%
%TD*%
%TA.AperFunction,SMDPad,CuDef*%
%ADD28R,1.200000X1.900000*%
%TD*%
%TA.AperFunction,ComponentPad*%
%ADD29C,1.450000*%
%TD*%
%TA.AperFunction,SMDPad,CuDef*%
%ADD30R,1.500000X1.900000*%
%TD*%
%TA.AperFunction,ComponentPad*%
%ADD31RoundRect,0.250000X0.350000X0.625000X-0.350000X0.625000X-0.350000X-0.625000X0.350000X-0.625000X0*%
%TD*%
%TA.AperFunction,ComponentPad*%
%ADD32O,1.200000X1.750000*%
%TD*%
%TA.AperFunction,SMDPad,CuDef*%
%ADD33FreePoly0,180.000000*%
%TD*%
%TA.AperFunction,SMDPad,CuDef*%
%ADD34R,1.000000X1.500000*%
%TD*%
%TA.AperFunction,SMDPad,CuDef*%
%ADD35FreePoly1,180.000000*%
%TD*%
%TA.AperFunction,SMDPad,CuDef*%
%ADD36RoundRect,0.150000X0.150000X-0.512500X0.150000X0.512500X-0.150000X0.512500X-0.150000X-0.512500X0*%
%TD*%
%TA.AperFunction,SMDPad,CuDef*%
%ADD37RoundRect,0.150000X0.512500X0.150000X-0.512500X0.150000X-0.512500X-0.150000X0.512500X-0.150000X0*%
%TD*%
%TA.AperFunction,SMDPad,CuDef*%
%ADD38C,0.787000*%
%TD*%
%TA.AperFunction,SMDPad,CuDef*%
%ADD39RoundRect,0.250000X0.650000X-1.000000X0.650000X1.000000X-0.650000X1.000000X-0.650000X-1.000000X0*%
%TD*%
%TA.AperFunction,ComponentPad*%
%ADD40RoundRect,0.250000X-0.725000X0.600000X-0.725000X-0.600000X0.725000X-0.600000X0.725000X0.600000X0*%
%TD*%
%TA.AperFunction,ComponentPad*%
%ADD41O,1.950000X1.700000*%
%TD*%
%TA.AperFunction,SMDPad,CuDef*%
%ADD42R,1.000000X0.750000*%
%TD*%
%TA.AperFunction,ComponentPad*%
%ADD43C,1.500000*%
%TD*%
%TA.AperFunction,SMDPad,CuDef*%
%ADD44RoundRect,0.575000X-1.625000X-0.575000X1.625000X-0.575000X1.625000X0.575000X-1.625000X0.575000X0*%
%TD*%
%TA.AperFunction,SMDPad,CuDef*%
%ADD45RoundRect,0.575000X-1.425000X-0.575000X1.425000X-0.575000X1.425000X0.575000X-1.425000X0.575000X0*%
%TD*%
%TA.AperFunction,SMDPad,CuDef*%
%ADD46RoundRect,0.250000X-1.500000X-0.550000X1.500000X-0.550000X1.500000X0.550000X-1.500000X0.550000X0*%
%TD*%
%TA.AperFunction,SMDPad,CuDef*%
%ADD47R,1.200000X1.400000*%
%TD*%
%TA.AperFunction,ComponentPad*%
%ADD48RoundRect,0.250000X0.625000X-0.350000X0.625000X0.350000X-0.625000X0.350000X-0.625000X-0.350000X0*%
%TD*%
%TA.AperFunction,ComponentPad*%
%ADD49O,1.750000X1.200000*%
%TD*%
%TA.AperFunction,SMDPad,CuDef*%
%ADD50R,0.800000X0.500000*%
%TD*%
%TA.AperFunction,SMDPad,CuDef*%
%ADD51R,0.800000X0.400000*%
%TD*%
%TA.AperFunction,ComponentPad*%
%ADD52RoundRect,0.250000X-0.600000X-0.750000X0.600000X-0.750000X0.600000X0.750000X-0.600000X0.750000X0*%
%TD*%
%TA.AperFunction,ComponentPad*%
%ADD53O,1.700000X2.000000*%
%TD*%
%TA.AperFunction,SMDPad,CuDef*%
%ADD54R,0.400000X0.650000*%
%TD*%
%TA.AperFunction,SMDPad,CuDef*%
%ADD55R,0.760000X1.270000*%
%TD*%
%TA.AperFunction,SMDPad,CuDef*%
%ADD56RoundRect,0.075000X0.662500X0.075000X-0.662500X0.075000X-0.662500X-0.075000X0.662500X-0.075000X0*%
%TD*%
%TA.AperFunction,SMDPad,CuDef*%
%ADD57RoundRect,0.075000X0.075000X0.662500X-0.075000X0.662500X-0.075000X-0.662500X0.075000X-0.662500X0*%
%TD*%
%TA.AperFunction,SMDPad,CuDef*%
%ADD58RoundRect,0.250000X0.625000X-0.375000X0.625000X0.375000X-0.625000X0.375000X-0.625000X-0.375000X0*%
%TD*%
%TA.AperFunction,ComponentPad*%
%ADD59RoundRect,0.250000X-0.625000X0.350000X-0.625000X-0.350000X0.625000X-0.350000X0.625000X0.350000X0*%
%TD*%
%TA.AperFunction,ViaPad*%
%ADD60C,0.800000*%
%TD*%
%TA.AperFunction,Conductor*%
%ADD61C,0.250000*%
%TD*%
%TA.AperFunction,Conductor*%
%ADD62C,0.500000*%
%TD*%
%TA.AperFunction,Conductor*%
%ADD63C,0.267200*%
%TD*%
%TA.AperFunction,Conductor*%
%ADD64C,0.350000*%
%TD*%
%TA.AperFunction,Conductor*%
%ADD65C,1.000000*%
%TD*%
%TA.AperFunction,Conductor*%
%ADD66C,2.000000*%
%TD*%
%TA.AperFunction,Conductor*%
%ADD67C,0.400000*%
%TD*%
G04 APERTURE END LIST*
D10*
%TO.P,FB101,1*%
%TO.N,+3.3VA*%
X41139000Y-25527000D03*
%TO.P,FB101,2*%
%TO.N,+3V3*%
X43189000Y-25527000D03*
%TD*%
D11*
%TO.P,C110,2*%
%TO.N,GND*%
X45339000Y-27191000D03*
%TO.P,C110,1*%
%TO.N,+3V3*%
X45339000Y-25641000D03*
%TD*%
D12*
%TO.P,H104,1,1*%
%TO.N,GND*%
X5207000Y-46368000D03*
X6904056Y-50465056D03*
X6904056Y-47070944D03*
X7607000Y-48768000D03*
D13*
X5207000Y-48768000D03*
D12*
X5207000Y-51168000D03*
X3509944Y-47070944D03*
X3509944Y-50465056D03*
X2807000Y-48768000D03*
%TD*%
%TO.P,H103,1,1*%
%TO.N,GND*%
X5207000Y-2680000D03*
X6904056Y-6777056D03*
X6904056Y-3382944D03*
X7607000Y-5080000D03*
D13*
X5207000Y-5080000D03*
D12*
X5207000Y-7480000D03*
X3509944Y-3382944D03*
X3509944Y-6777056D03*
X2807000Y-5080000D03*
%TD*%
%TO.P,H102,1,1*%
%TO.N,GND*%
X65913000Y-46368000D03*
X67610056Y-50465056D03*
X67610056Y-47070944D03*
X68313000Y-48768000D03*
D13*
X65913000Y-48768000D03*
D12*
X65913000Y-51168000D03*
X64215944Y-47070944D03*
X64215944Y-50465056D03*
X63513000Y-48768000D03*
%TD*%
%TO.P,H101,1,1*%
%TO.N,GND*%
X65913000Y-2680000D03*
X67610056Y-6777056D03*
X67610056Y-3382944D03*
X68313000Y-5080000D03*
D13*
X65913000Y-5080000D03*
D12*
X65913000Y-7480000D03*
X64215944Y-3382944D03*
X64215944Y-6777056D03*
X63513000Y-5080000D03*
%TD*%
D14*
%TO.P,Y103,1,1*%
%TO.N,/LSE_OUT*%
X40894000Y-34945000D03*
%TO.P,Y103,2,2*%
%TO.N,/LSE_IN*%
X40894000Y-37445000D03*
%TD*%
D15*
%TO.P,C113,1*%
%TO.N,GND*%
X42926000Y-36462000D03*
%TO.P,C113,2*%
%TO.N,/LSE_OUT*%
X42926000Y-34912000D03*
%TD*%
D16*
%TO.P,C112,1*%
%TO.N,GND*%
X42685000Y-38989000D03*
%TO.P,C112,2*%
%TO.N,/LSE_IN*%
X41135000Y-38989000D03*
%TD*%
D17*
%TO.P,Q101,1,G*%
%TO.N,+3V3*%
X47449500Y-41468000D03*
%TO.P,Q101,2,S*%
%TO.N,/VBAT*%
X47449500Y-43368000D03*
%TO.P,Q101,3,D*%
%TO.N,/BAT+*%
X49324500Y-42418000D03*
%TD*%
D18*
%TO.P,R110,1*%
%TO.N,/SCL*%
X26035000Y-29654000D03*
%TO.P,R110,2*%
%TO.N,+3V3*%
X26035000Y-28004000D03*
%TD*%
D19*
%TO.P,R102,1*%
%TO.N,Net-(D102-K)*%
X55819200Y-19920800D03*
%TO.P,R102,2*%
%TO.N,GND*%
X57469200Y-19920800D03*
%TD*%
D20*
%TO.P,OLED101,1,GND*%
%TO.N,GND*%
X13388000Y-11079000D03*
D21*
%TO.P,OLED101,2,VCC*%
%TO.N,+3V3*%
X13388000Y-8539000D03*
%TO.P,OLED101,3,SCL*%
%TO.N,/SCL*%
X13388000Y-5999000D03*
%TO.P,OLED101,4,SDA*%
%TO.N,/SDA*%
X13388000Y-3459000D03*
%TD*%
D22*
%TO.P,C107,1*%
%TO.N,+3.3VA*%
X41262000Y-27305000D03*
%TO.P,C107,2*%
%TO.N,GND*%
X42812000Y-27305000D03*
%TD*%
D23*
%TO.P,U201,1,GND*%
%TO.N,GND*%
X3045700Y-41402400D03*
%TO.P,U201,2,VO*%
%TO.N,+3V3*%
X5345700Y-41402400D03*
D24*
X5345700Y-35102400D03*
D23*
%TO.P,U201,3,VI*%
%TO.N,/LDO_3V3/5V*%
X7645700Y-41402400D03*
%TD*%
D19*
%TO.P,R101,1*%
%TO.N,Net-(D101-K)*%
X55880000Y-22156000D03*
%TO.P,R101,2*%
%TO.N,GND*%
X57530000Y-22156000D03*
%TD*%
D25*
%TO.P,D101,1,K*%
%TO.N,Net-(D101-K)*%
X54165100Y-22181400D03*
%TO.P,D101,2,A*%
%TO.N,/LED_HB*%
X52590100Y-22181400D03*
%TD*%
D22*
%TO.P,C109,2*%
%TO.N,GND*%
X46215600Y-30632400D03*
%TO.P,C109,1*%
%TO.N,Net-(C109-Pad1)*%
X44665600Y-30632400D03*
%TD*%
D11*
%TO.P,C116,2*%
%TO.N,GND*%
X38481000Y-40907000D03*
%TO.P,C116,1*%
%TO.N,/VBAT*%
X38481000Y-39357000D03*
%TD*%
D26*
%TO.P,J102,1,VBUS*%
%TO.N,VBUS*%
X21890200Y-49794700D03*
%TO.P,J102,2,D-*%
%TO.N,/USB_D_N*%
X22540200Y-49794700D03*
%TO.P,J102,3,D+*%
%TO.N,/USB_D_P*%
X23190200Y-49794700D03*
%TO.P,J102,4,ID*%
%TO.N,unconnected-(J102-ID-Pad4)*%
X23840200Y-49794700D03*
%TO.P,J102,5,GND*%
%TO.N,GND*%
X24490200Y-49794700D03*
D27*
%TO.P,J102,6,Shield*%
X19690200Y-52494700D03*
D28*
X20290200Y-52494700D03*
D29*
X20690200Y-49794700D03*
D30*
X22190200Y-52494700D03*
X24190200Y-52494700D03*
D29*
X25690200Y-49794700D03*
D28*
X26090200Y-52494700D03*
D27*
X26690200Y-52494700D03*
%TD*%
D31*
%TO.P,J106,1,Pin_1*%
%TO.N,+3V3*%
X57658000Y-6731000D03*
D32*
%TO.P,J106,2,Pin_2*%
%TO.N,/IR_RECV*%
X55658000Y-6731000D03*
%TO.P,J106,3,Pin_3*%
%TO.N,GND*%
X53658000Y-6731000D03*
%TD*%
D11*
%TO.P,C201,1*%
%TO.N,GND*%
X9779000Y-39179200D03*
%TO.P,C201,2*%
%TO.N,/LDO_3V3/5V*%
X9779000Y-40729200D03*
%TD*%
D22*
%TO.P,C104,2*%
%TO.N,GND*%
X28461000Y-36957000D03*
%TO.P,C104,1*%
%TO.N,+3V3*%
X26911000Y-36957000D03*
%TD*%
D33*
%TO.P,SW107,1,A*%
%TO.N,/RGB_LED*%
X13873000Y-22225000D03*
D34*
%TO.P,SW107,2,B*%
%TO.N,Net-(SW107-B)*%
X12573000Y-22225000D03*
D35*
%TO.P,SW107,3,C*%
%TO.N,Net-(SW107-C)*%
X11273000Y-22225000D03*
%TD*%
D22*
%TO.P,C106,1*%
%TO.N,+3.3VA*%
X41262000Y-29032200D03*
%TO.P,C106,2*%
%TO.N,GND*%
X42812000Y-29032200D03*
%TD*%
D36*
%TO.P,U102,1,I/O1*%
%TO.N,/USB_D_N*%
X21935400Y-45485900D03*
%TO.P,U102,2,GND*%
%TO.N,GND*%
X22885400Y-45485900D03*
%TO.P,U102,3,I/O2*%
%TO.N,/USB_D_P*%
X23835400Y-45485900D03*
%TO.P,U102,4,I/O2*%
%TO.N,/D_P*%
X23835400Y-43210900D03*
%TO.P,U102,5,VBUS*%
%TO.N,VBUS*%
X22885400Y-43210900D03*
%TO.P,U102,6,I/O1*%
%TO.N,/D_N*%
X21935400Y-43210900D03*
%TD*%
D37*
%TO.P,U103,1*%
%TO.N,/~{OE}*%
X17774500Y-20127000D03*
%TO.P,U103,2*%
%TO.N,/RGB_LED*%
X17774500Y-19177000D03*
%TO.P,U103,3,GND*%
%TO.N,GND*%
X17774500Y-18227000D03*
%TO.P,U103,4*%
%TO.N,Net-(SW107-C)*%
X15499500Y-18227000D03*
%TO.P,U103,5,VCC*%
%TO.N,+5V*%
X15499500Y-20127000D03*
%TD*%
D38*
%TO.P,J101,1,Pin_1*%
%TO.N,VBUS*%
X19964400Y-39827200D03*
%TO.P,J101,2,Pin_2*%
%TO.N,/SWDIO*%
X18694400Y-39827200D03*
%TO.P,J101,3,Pin_3*%
%TO.N,/NRST*%
X19964400Y-38557200D03*
%TO.P,J101,4,Pin_4*%
%TO.N,/SWCLK*%
X18694400Y-38557200D03*
%TO.P,J101,5,Pin_5*%
%TO.N,GND*%
X19964400Y-37287200D03*
%TO.P,J101,6,Pin_6*%
%TO.N,/SWO*%
X18694400Y-37287200D03*
%TD*%
D39*
%TO.P,D106,1,K*%
%TO.N,/VBAT*%
X43942000Y-47339000D03*
%TO.P,D106,2,A*%
%TO.N,+3V3*%
X43942000Y-43339000D03*
%TD*%
D18*
%TO.P,R103,2*%
%TO.N,Net-(C109-Pad1)*%
X42990000Y-30798000D03*
%TO.P,R103,1*%
%TO.N,/HSE_OUT*%
X42990000Y-32448000D03*
%TD*%
D40*
%TO.P,J104,1,Pin_1*%
%TO.N,GND*%
X6731000Y-24297000D03*
D41*
%TO.P,J104,2,Pin_2*%
%TO.N,Net-(J104-Pin_2)*%
X6731000Y-26797000D03*
%TO.P,J104,3,Pin_3*%
%TO.N,+5V*%
X6731000Y-29297000D03*
%TD*%
D25*
%TO.P,D102,1,K*%
%TO.N,Net-(D102-K)*%
X54129700Y-19920800D03*
%TO.P,D102,2,A*%
%TO.N,+3V3*%
X52554700Y-19920800D03*
%TD*%
D42*
%TO.P,SW106,1,1*%
%TO.N,/NRST*%
X60881000Y-11841000D03*
X66881000Y-11841000D03*
%TO.P,SW106,2,2*%
%TO.N,GND*%
X60881000Y-15591000D03*
X66881000Y-15591000D03*
%TD*%
D43*
%TO.P,BT101,*%
%TO.N,*%
X55790000Y-36322000D03*
X63290000Y-36322000D03*
D44*
%TO.P,BT101,1,+*%
%TO.N,/BAT+*%
X51690000Y-36322000D03*
D45*
%TO.P,BT101,2,-*%
%TO.N,GND*%
X67690000Y-36322000D03*
%TD*%
D46*
%TO.P,C115,1*%
%TO.N,+5V*%
X14445000Y-29337000D03*
%TO.P,C115,2*%
%TO.N,GND*%
X19845000Y-29337000D03*
%TD*%
D18*
%TO.P,R104,1*%
%TO.N,Net-(J104-Pin_2)*%
X12446000Y-26733000D03*
%TO.P,R104,2*%
%TO.N,Net-(SW107-B)*%
X12446000Y-25083000D03*
%TD*%
D47*
%TO.P,Y101,4,4*%
%TO.N,GND*%
X44743000Y-34755000D03*
%TO.P,Y101,3,3*%
%TO.N,Net-(C109-Pad1)*%
X44743000Y-32555000D03*
%TO.P,Y101,2,2*%
%TO.N,GND*%
X46443000Y-32555000D03*
%TO.P,Y101,1,1*%
%TO.N,/HSE_IN*%
X46443000Y-34755000D03*
%TD*%
D18*
%TO.P,R109,1*%
%TO.N,/SDA*%
X24511000Y-29654000D03*
%TO.P,R109,2*%
%TO.N,+3V3*%
X24511000Y-28004000D03*
%TD*%
D48*
%TO.P,J103,1,Pin_1*%
%TO.N,VBUS*%
X64516000Y-26035000D03*
D49*
%TO.P,J103,2,Pin_2*%
%TO.N,/UART_TX*%
X64516000Y-24035000D03*
%TO.P,J103,3,Pin_3*%
%TO.N,/UART_RX*%
X64516000Y-22035000D03*
%TO.P,J103,4,Pin_4*%
%TO.N,GND*%
X64516000Y-20035000D03*
%TD*%
D15*
%TO.P,C103,1*%
%TO.N,+3V3*%
X28403104Y-25971800D03*
%TO.P,C103,2*%
%TO.N,GND*%
X28403104Y-24421800D03*
%TD*%
D19*
%TO.P,R105,1*%
%TO.N,Net-(D107-K)*%
X55829600Y-24467400D03*
%TO.P,R105,2*%
%TO.N,GND*%
X57479600Y-24467400D03*
%TD*%
D50*
%TO.P,RN101,1,R1.1*%
%TO.N,GND*%
X39254000Y-46304000D03*
D51*
%TO.P,RN101,2,R2.1*%
X39254000Y-45504000D03*
%TO.P,RN101,3,R3.1*%
X39254000Y-44704000D03*
D50*
%TO.P,RN101,4,R4.1*%
X39254000Y-43904000D03*
%TO.P,RN101,5,R4.2*%
%TO.N,/BOOT0*%
X37454000Y-43904000D03*
D51*
%TO.P,RN101,6,R3.2*%
%TO.N,/DIP1*%
X37454000Y-44704000D03*
%TO.P,RN101,7,R2.2*%
%TO.N,/DIP2*%
X37454000Y-45504000D03*
D50*
%TO.P,RN101,8,R1.2*%
%TO.N,/DIP3*%
X37454000Y-46304000D03*
%TD*%
D39*
%TO.P,D103,1,K*%
%TO.N,/LDO_3V3/5V*%
X12319000Y-44545000D03*
%TO.P,D103,2,A*%
%TO.N,+5V*%
X12319000Y-40545000D03*
%TD*%
D52*
%TO.P,J107,1,Pin_1*%
%TO.N,GND*%
X50947000Y-47481000D03*
D53*
%TO.P,J107,2,Pin_2*%
%TO.N,VBUS*%
X53447000Y-47481000D03*
%TD*%
D22*
%TO.P,C118,1*%
%TO.N,+5V*%
X15862000Y-21717000D03*
%TO.P,C118,2*%
%TO.N,GND*%
X17412000Y-21717000D03*
%TD*%
D54*
%TO.P,D104,1,K*%
%TO.N,/NRST*%
X25994600Y-42707600D03*
%TO.P,D104,2,A*%
%TO.N,GND*%
X26644600Y-42707600D03*
%TO.P,D104,3,K*%
%TO.N,/SWO*%
X27294600Y-42707600D03*
%TO.P,D104,4,K*%
%TO.N,/SWCLK*%
X27294600Y-40807600D03*
%TO.P,D104,5,K*%
%TO.N,unconnected-(D104-K-Pad5)*%
X26644600Y-40807600D03*
%TO.P,D104,6,K*%
%TO.N,/SWDIO*%
X25994600Y-40807600D03*
%TD*%
D19*
%TO.P,R108,1*%
%TO.N,/D_P*%
X23432000Y-37465000D03*
%TO.P,R108,2*%
%TO.N,+3V3*%
X25082000Y-37465000D03*
%TD*%
D25*
%TO.P,D107,1,K*%
%TO.N,Net-(D107-K)*%
X54140100Y-24467400D03*
%TO.P,D107,2,A*%
%TO.N,/LED_UI*%
X52565100Y-24467400D03*
%TD*%
D11*
%TO.P,C105,1*%
%TO.N,+3V3*%
X36830000Y-38010800D03*
%TO.P,C105,2*%
%TO.N,GND*%
X36830000Y-39560800D03*
%TD*%
%TO.P,C114,1*%
%TO.N,/NRST*%
X59182000Y-12941000D03*
%TO.P,C114,2*%
%TO.N,GND*%
X59182000Y-14491000D03*
%TD*%
D55*
%TO.P,SW101,1*%
%TO.N,+3V3*%
X31115000Y-48768000D03*
%TO.P,SW101,2*%
X32385000Y-48768000D03*
%TO.P,SW101,3*%
X33655000Y-48768000D03*
%TO.P,SW101,4*%
X34925000Y-48768000D03*
%TO.P,SW101,5*%
%TO.N,/BOOT0*%
X34925000Y-41148000D03*
%TO.P,SW101,6*%
%TO.N,/DIP1*%
X33655000Y-41148000D03*
%TO.P,SW101,7*%
%TO.N,/DIP2*%
X32385000Y-41148000D03*
%TO.P,SW101,8*%
%TO.N,/DIP3*%
X31115000Y-41148000D03*
%TD*%
D16*
%TO.P,C202,1*%
%TO.N,GND*%
X10046000Y-33020000D03*
%TO.P,C202,2*%
%TO.N,+3V3*%
X8496000Y-33020000D03*
%TD*%
D56*
%TO.P,U101,1,VBAT*%
%TO.N,/VBAT*%
X36674500Y-35008000D03*
%TO.P,U101,2,PC13*%
%TO.N,unconnected-(U101-PC13-Pad2)*%
X36674500Y-34508000D03*
%TO.P,U101,3,PC14*%
%TO.N,/LSE_IN*%
X36674500Y-34008000D03*
%TO.P,U101,4,PC15*%
%TO.N,/LSE_OUT*%
X36674500Y-33508000D03*
%TO.P,U101,5,PF0*%
%TO.N,/HSE_IN*%
X36674500Y-33008000D03*
%TO.P,U101,6,PF1*%
%TO.N,/HSE_OUT*%
X36674500Y-32508000D03*
%TO.P,U101,7,NRST*%
%TO.N,/NRST*%
X36674500Y-32008000D03*
%TO.P,U101,8,VSSA*%
%TO.N,GND*%
X36674500Y-31508000D03*
%TO.P,U101,9,VDDA*%
%TO.N,+3.3VA*%
X36674500Y-31008000D03*
%TO.P,U101,10,PA0*%
%TO.N,unconnected-(U101-PA0-Pad10)*%
X36674500Y-30508000D03*
%TO.P,U101,11,PA1*%
%TO.N,unconnected-(U101-PA1-Pad11)*%
X36674500Y-30008000D03*
%TO.P,U101,12,PA2*%
%TO.N,/UART_TX*%
X36674500Y-29508000D03*
D57*
%TO.P,U101,13,PA3*%
%TO.N,/UART_RX*%
X35262000Y-28095500D03*
%TO.P,U101,14,PA4*%
%TO.N,/RGB_LED*%
X34762000Y-28095500D03*
%TO.P,U101,15,PA5*%
%TO.N,unconnected-(U101-PA5-Pad15)*%
X34262000Y-28095500D03*
%TO.P,U101,16,PA6*%
%TO.N,/LED_UI*%
X33762000Y-28095500D03*
%TO.P,U101,17,PA7*%
%TO.N,/LED_HB*%
X33262000Y-28095500D03*
%TO.P,U101,18,PB0*%
%TO.N,/IR_RECV*%
X32762000Y-28095500D03*
%TO.P,U101,19,PB1*%
%TO.N,unconnected-(U101-PB1-Pad19)*%
X32262000Y-28095500D03*
%TO.P,U101,20,PB2*%
%TO.N,unconnected-(U101-PB2-Pad20)*%
X31762000Y-28095500D03*
%TO.P,U101,21,PB10*%
%TO.N,unconnected-(U101-PB10-Pad21)*%
X31262000Y-28095500D03*
%TO.P,U101,22,PB11*%
%TO.N,/~{OE}*%
X30762000Y-28095500D03*
%TO.P,U101,23,VSS*%
%TO.N,GND*%
X30262000Y-28095500D03*
%TO.P,U101,24,VDD*%
%TO.N,+3V3*%
X29762000Y-28095500D03*
D56*
%TO.P,U101,25,PB12*%
%TO.N,unconnected-(U101-PB12-Pad25)*%
X28349500Y-29508000D03*
%TO.P,U101,26,PB13*%
%TO.N,unconnected-(U101-PB13-Pad26)*%
X28349500Y-30008000D03*
%TO.P,U101,27,PB14*%
%TO.N,unconnected-(U101-PB14-Pad27)*%
X28349500Y-30508000D03*
%TO.P,U101,28,PB15*%
%TO.N,unconnected-(U101-PB15-Pad28)*%
X28349500Y-31008000D03*
%TO.P,U101,29,PA8*%
%TO.N,unconnected-(U101-PA8-Pad29)*%
X28349500Y-31508000D03*
%TO.P,U101,30,PA9*%
%TO.N,/SCL*%
X28349500Y-32008000D03*
%TO.P,U101,31,PA10*%
%TO.N,/SDA*%
X28349500Y-32508000D03*
%TO.P,U101,32,PA11*%
%TO.N,/D_N*%
X28349500Y-33008000D03*
%TO.P,U101,33,PA12*%
%TO.N,/D_P*%
X28349500Y-33508000D03*
%TO.P,U101,34,PA13*%
%TO.N,/SWDIO*%
X28349500Y-34008000D03*
%TO.P,U101,35,VSS*%
%TO.N,GND*%
X28349500Y-34508000D03*
%TO.P,U101,36,VDD*%
%TO.N,+3V3*%
X28349500Y-35008000D03*
D57*
%TO.P,U101,37,PA14*%
%TO.N,/SWCLK*%
X29762000Y-36420500D03*
%TO.P,U101,38,PA15*%
%TO.N,unconnected-(U101-PA15-Pad38)*%
X30262000Y-36420500D03*
%TO.P,U101,39,PB3*%
%TO.N,/SWO*%
X30762000Y-36420500D03*
%TO.P,U101,40,PB4*%
%TO.N,/DIP3*%
X31262000Y-36420500D03*
%TO.P,U101,41,PB5*%
%TO.N,/DIP2*%
X31762000Y-36420500D03*
%TO.P,U101,42,PB6*%
%TO.N,/DIP1*%
X32262000Y-36420500D03*
%TO.P,U101,43,PB7*%
%TO.N,unconnected-(U101-PB7-Pad43)*%
X32762000Y-36420500D03*
%TO.P,U101,44,BOOT0*%
%TO.N,/BOOT0*%
X33262000Y-36420500D03*
%TO.P,U101,45,PB8*%
%TO.N,unconnected-(U101-PB8-Pad45)*%
X33762000Y-36420500D03*
%TO.P,U101,46,PB9*%
%TO.N,unconnected-(U101-PB9-Pad46)*%
X34262000Y-36420500D03*
%TO.P,U101,47,VSS*%
%TO.N,GND*%
X34762000Y-36420500D03*
%TO.P,U101,48,VDD*%
%TO.N,+3V3*%
X35262000Y-36420500D03*
%TD*%
D11*
%TO.P,C101,1*%
%TO.N,/VBAT*%
X40132000Y-40627000D03*
%TO.P,C101,2*%
%TO.N,GND*%
X40132000Y-42177000D03*
%TD*%
D58*
%TO.P,F101,1*%
%TO.N,VBUS*%
X15240000Y-44326000D03*
%TO.P,F101,2*%
%TO.N,+5V*%
X15240000Y-41526000D03*
%TD*%
D59*
%TO.P,J105,1,Pin_1*%
%TO.N,+3V3*%
X6207000Y-12605000D03*
D49*
%TO.P,J105,2,Pin_2*%
%TO.N,/SCL*%
X6207000Y-14605000D03*
%TO.P,J105,3,Pin_3*%
%TO.N,/SDA*%
X6207000Y-16605000D03*
%TO.P,J105,4,Pin_4*%
%TO.N,GND*%
X6207000Y-18605000D03*
%TD*%
D15*
%TO.P,C102,1*%
%TO.N,+3V3*%
X26752104Y-25971800D03*
%TO.P,C102,2*%
%TO.N,GND*%
X26752104Y-24421800D03*
%TD*%
%TO.P,C108,2*%
%TO.N,GND*%
X48197000Y-33413400D03*
%TO.P,C108,1*%
%TO.N,/HSE_IN*%
X48197000Y-34963400D03*
%TD*%
D60*
%TO.N,+3V3*%
X45339000Y-24511000D03*
%TO.N,GND*%
X43815000Y-38989000D03*
X44704000Y-36322000D03*
X42926000Y-37592000D03*
X48197000Y-32258000D03*
X18669000Y-21717000D03*
X30149800Y-34508000D03*
X58801000Y-24511000D03*
X34874200Y-31496000D03*
X24511000Y-48499900D03*
X35737800Y-39560800D03*
X29718000Y-25273000D03*
X10033000Y-34163000D03*
X28448000Y-38100000D03*
X27355800Y-44043600D03*
X25628600Y-24434800D03*
X40309800Y-46304000D03*
X22352000Y-29337000D03*
X21209000Y-37312600D03*
X34192699Y-38307499D03*
X47371000Y-30632400D03*
X59182000Y-15621000D03*
X43967400Y-29032200D03*
X67741800Y-38811200D03*
X38481000Y-42291000D03*
X9779000Y-38100000D03*
X58801000Y-19964400D03*
X2971800Y-43129200D03*
X44118900Y-27191000D03*
X1701800Y-43129200D03*
X58808200Y-22156000D03*
X25146000Y-44323000D03*
X19050000Y-18161000D03*
%TO.N,+3V3*%
X43942000Y-41148000D03*
X6477000Y-33020000D03*
X35426122Y-38044557D03*
X25019000Y-36322000D03*
X26797000Y-35052000D03*
X52552600Y-18389600D03*
X25628600Y-25971800D03*
X24511000Y-26924000D03*
X2413000Y-33020000D03*
X4445000Y-33020000D03*
X32893000Y-50292000D03*
%TO.N,/NRST*%
X59182000Y-11811000D03*
X33832800Y-32867600D03*
X25019000Y-42557100D03*
X21209000Y-38557200D03*
%TO.N,/SWO*%
X17297400Y-37287200D03*
X28371800Y-42722800D03*
%TO.N,/SWCLK*%
X27294600Y-39674800D03*
X17361500Y-38608000D03*
%TO.N,/SWDIO*%
X25994600Y-39725600D03*
X17246600Y-39827200D03*
%TO.N,VBUS*%
X17783000Y-44326000D03*
X18415000Y-45974000D03*
X15367000Y-45974000D03*
X16891000Y-45974000D03*
%TO.N,/UART_TX*%
X38176200Y-29508000D03*
%TO.N,/UART_RX*%
X35627800Y-26483800D03*
%TO.N,/RGB_LED*%
X19050000Y-19177000D03*
X32131000Y-30480000D03*
%TO.N,/SCL*%
X26035000Y-30988000D03*
%TO.N,/SDA*%
X24511000Y-30988000D03*
%TD*%
D61*
%TO.N,/LED_HB*%
X33262000Y-28095500D02*
X33262000Y-25602500D01*
X33262000Y-25602500D02*
X37020500Y-21844000D01*
X37020500Y-21844000D02*
X50800000Y-21844000D01*
X50800000Y-21844000D02*
X51181000Y-22225000D01*
X51181000Y-22225000D02*
X52546500Y-22225000D01*
X52546500Y-22225000D02*
X52590100Y-22181400D01*
%TO.N,/LED_UI*%
X33762000Y-28095500D02*
X33762000Y-26182000D01*
X36703000Y-23241000D02*
X49911000Y-23241000D01*
X33762000Y-26182000D02*
X36703000Y-23241000D01*
X49911000Y-23241000D02*
X51137400Y-24467400D01*
X51137400Y-24467400D02*
X52565100Y-24467400D01*
D62*
%TO.N,+3V3*%
X45339000Y-25641000D02*
X45339000Y-24511000D01*
X45225000Y-25527000D02*
X45339000Y-25641000D01*
%TO.N,GND*%
X44118900Y-27191000D02*
X45339000Y-27191000D01*
%TO.N,+3V3*%
X43189000Y-25527000D02*
X45225000Y-25527000D01*
%TO.N,GND*%
X44118900Y-27191000D02*
X44004900Y-27305000D01*
X44004900Y-27305000D02*
X42812000Y-27305000D01*
%TO.N,+3.3VA*%
X41139000Y-25527000D02*
X41139000Y-27182000D01*
X41139000Y-27182000D02*
X41262000Y-27305000D01*
D61*
X41262000Y-27305000D02*
X41262000Y-29032200D01*
%TO.N,/VBAT*%
X40132000Y-40627000D02*
X40132000Y-40005000D01*
X40132000Y-40005000D02*
X39484000Y-39357000D01*
X39484000Y-39357000D02*
X38481000Y-39357000D01*
%TO.N,GND*%
X38481000Y-40907000D02*
X38481000Y-42291000D01*
%TO.N,/VBAT*%
X38481000Y-39357000D02*
X38481000Y-35433000D01*
X38481000Y-35433000D02*
X38056000Y-35008000D01*
X38056000Y-35008000D02*
X36674500Y-35008000D01*
%TO.N,+3V3*%
X25082000Y-36385000D02*
X25082000Y-37465000D01*
X25019000Y-36322000D02*
X25082000Y-36385000D01*
%TO.N,/SWDIO*%
X25994600Y-39725600D02*
X26035000Y-39685200D01*
X26035000Y-39685200D02*
X26035000Y-34290000D01*
X26035000Y-34290000D02*
X26317000Y-34008000D01*
X26317000Y-34008000D02*
X28349500Y-34008000D01*
%TO.N,+3V3*%
X26841000Y-35008000D02*
X28349500Y-35008000D01*
X26797000Y-35052000D02*
X26924000Y-35179000D01*
X26924000Y-35179000D02*
X26924000Y-36944000D01*
X26797000Y-35052000D02*
X26841000Y-35008000D01*
X26924000Y-36944000D02*
X26911000Y-36957000D01*
%TO.N,/SWCLK*%
X27294600Y-39674800D02*
X28270200Y-39674800D01*
X28270200Y-39674800D02*
X29762000Y-38183000D01*
X29762000Y-38183000D02*
X29762000Y-36420500D01*
%TO.N,/SWO*%
X28371800Y-42722800D02*
X28956000Y-42138600D01*
X28956000Y-42138600D02*
X28956000Y-40005000D01*
X28956000Y-40005000D02*
X30762000Y-38199000D01*
X30762000Y-38199000D02*
X30762000Y-36420500D01*
%TO.N,GND*%
X28448000Y-38100000D02*
X28448000Y-36970000D01*
X28448000Y-36970000D02*
X28461000Y-36957000D01*
D63*
%TO.N,/D_N*%
X28349500Y-33008000D02*
X27243249Y-33008000D01*
X21935400Y-42217149D02*
X21935400Y-43210900D01*
X27243249Y-33008000D02*
X27228449Y-33022800D01*
X22650200Y-34954576D02*
X22650200Y-41502349D01*
X27228449Y-33022800D02*
X24581976Y-33022800D01*
X24581976Y-33022800D02*
X22650200Y-34954576D01*
X22650200Y-41502349D02*
X21935400Y-42217149D01*
%TO.N,/D_P*%
X28349500Y-33508000D02*
X27243249Y-33508000D01*
X23835400Y-42217149D02*
X23835400Y-43210900D01*
X27228449Y-33493200D02*
X24776824Y-33493200D01*
X23120600Y-41502349D02*
X23835400Y-42217149D01*
X27243249Y-33508000D02*
X27228449Y-33493200D01*
X24776824Y-33493200D02*
X23120600Y-35149424D01*
X23120600Y-35149424D02*
X23120600Y-41502349D01*
D62*
%TO.N,GND*%
X42685000Y-38989000D02*
X43815000Y-38989000D01*
D61*
%TO.N,/HSE_OUT*%
X36674500Y-32508000D02*
X42930000Y-32508000D01*
%TO.N,Net-(C109-Pad1)*%
X44665600Y-30632400D02*
X43155600Y-30632400D01*
X43155600Y-30632400D02*
X42990000Y-30798000D01*
%TO.N,/HSE_OUT*%
X42930000Y-32508000D02*
X42990000Y-32448000D01*
%TO.N,/HSE_IN*%
X46443000Y-34755000D02*
X46613000Y-34925000D01*
X46613000Y-34925000D02*
X48158600Y-34925000D01*
X48158600Y-34925000D02*
X48197000Y-34963400D01*
X36674500Y-33008000D02*
X41136000Y-33008000D01*
X41136000Y-33008000D02*
X41783000Y-33655000D01*
X41783000Y-33655000D02*
X46228000Y-33655000D01*
X46443000Y-33870000D02*
X46443000Y-34755000D01*
X46228000Y-33655000D02*
X46443000Y-33870000D01*
%TO.N,/RGB_LED*%
X34762000Y-28095500D02*
X34762000Y-29500000D01*
X34762000Y-29500000D02*
X33782000Y-30480000D01*
X33782000Y-30480000D02*
X32131000Y-30480000D01*
D62*
%TO.N,GND*%
X44743000Y-36283000D02*
X44704000Y-36322000D01*
X44743000Y-34755000D02*
X44743000Y-36283000D01*
X42926000Y-36462000D02*
X42926000Y-37592000D01*
X48197000Y-32258000D02*
X47371000Y-32258000D01*
X47371000Y-32258000D02*
X47074000Y-32555000D01*
X47074000Y-32555000D02*
X46443000Y-32555000D01*
X48197000Y-32258000D02*
X48197000Y-33413400D01*
X47371000Y-30632400D02*
X46215600Y-30632400D01*
D61*
%TO.N,/LSE_IN*%
X40894000Y-37445000D02*
X41021000Y-37572000D01*
X41021000Y-37572000D02*
X41021000Y-38875000D01*
X41021000Y-38875000D02*
X41135000Y-38989000D01*
%TO.N,/LSE_OUT*%
X40894000Y-34945000D02*
X42893000Y-34945000D01*
X42893000Y-34945000D02*
X42926000Y-34912000D01*
X36674500Y-33508000D02*
X40112000Y-33508000D01*
X40112000Y-33508000D02*
X40894000Y-34290000D01*
X40894000Y-34290000D02*
X40894000Y-34945000D01*
%TO.N,/LSE_IN*%
X36674500Y-34008000D02*
X38199000Y-34008000D01*
X38199000Y-34008000D02*
X39243000Y-35052000D01*
X39243000Y-35052000D02*
X39243000Y-36830000D01*
X39858000Y-37445000D02*
X40894000Y-37445000D01*
X39243000Y-36830000D02*
X39858000Y-37445000D01*
%TO.N,Net-(C109-Pad1)*%
X44743000Y-32555000D02*
X44743000Y-30709800D01*
X44743000Y-30709800D02*
X44665600Y-30632400D01*
%TO.N,/BAT+*%
X51690000Y-36322000D02*
X51690000Y-41020000D01*
X51690000Y-41020000D02*
X50292000Y-42418000D01*
X50292000Y-42418000D02*
X49324500Y-42418000D01*
%TO.N,/VBAT*%
X43942000Y-47339000D02*
X42640000Y-47339000D01*
X42640000Y-47339000D02*
X41529000Y-46228000D01*
X40881000Y-40627000D02*
X40132000Y-40627000D01*
X41529000Y-46228000D02*
X41529000Y-41275000D01*
X41529000Y-41275000D02*
X40881000Y-40627000D01*
D62*
%TO.N,+3V3*%
X47449500Y-41468000D02*
X47388500Y-41529000D01*
X47388500Y-41529000D02*
X46736000Y-41529000D01*
X46736000Y-41529000D02*
X44926000Y-43339000D01*
X44926000Y-43339000D02*
X43942000Y-43339000D01*
D61*
%TO.N,/VBAT*%
X47449500Y-43368000D02*
X47449500Y-45768500D01*
X47449500Y-45768500D02*
X45879000Y-47339000D01*
X45879000Y-47339000D02*
X43942000Y-47339000D01*
D62*
%TO.N,+3V3*%
X43942000Y-41148000D02*
X43942000Y-43339000D01*
D61*
%TO.N,GND*%
X38595000Y-42177000D02*
X38481000Y-42291000D01*
X40132000Y-42177000D02*
X38595000Y-42177000D01*
X10046000Y-33020000D02*
X10046000Y-34150000D01*
X26644600Y-43332400D02*
X26644600Y-42707600D01*
D62*
X25641600Y-24421800D02*
X25628600Y-24434800D01*
D61*
X30149800Y-34508000D02*
X28349500Y-34508000D01*
X59182000Y-15621000D02*
X60851000Y-15621000D01*
X58757400Y-24467400D02*
X58801000Y-24511000D01*
D62*
X67690000Y-38759400D02*
X67690000Y-36322000D01*
X43967400Y-29032200D02*
X42812000Y-29032200D01*
D61*
X35267200Y-31508000D02*
X36674500Y-31508000D01*
X24490200Y-49794700D02*
X24490200Y-48520700D01*
D64*
X23469600Y-44323000D02*
X22885400Y-44907200D01*
D61*
X21209000Y-37312600D02*
X19989800Y-37312600D01*
X19989800Y-37312600D02*
X19964400Y-37287200D01*
X10046000Y-34150000D02*
X10033000Y-34163000D01*
X19050000Y-18161000D02*
X18984000Y-18227000D01*
X57479600Y-24467400D02*
X58757400Y-24467400D01*
X18984000Y-18227000D02*
X17774500Y-18227000D01*
D62*
X22352000Y-29337000D02*
X19845000Y-29337000D01*
D61*
X30262000Y-25817000D02*
X30262000Y-28095500D01*
X35737800Y-39560800D02*
X36830000Y-39560800D01*
X59182000Y-14491000D02*
X59182000Y-15621000D01*
X34762000Y-37738198D02*
X34762000Y-36420500D01*
D62*
X40309800Y-46304000D02*
X39254000Y-46304000D01*
D61*
X60851000Y-15621000D02*
X60881000Y-15591000D01*
X58757400Y-19920800D02*
X57469200Y-19920800D01*
X34874200Y-31496000D02*
X35255200Y-31496000D01*
D62*
X67741800Y-38811200D02*
X67690000Y-38759400D01*
D64*
X25146000Y-44323000D02*
X23469600Y-44323000D01*
D62*
X24190200Y-52494700D02*
X26750600Y-52494700D01*
D61*
X18669000Y-21717000D02*
X17412000Y-21717000D01*
X24490200Y-48520700D02*
X24511000Y-48499900D01*
X58801000Y-19964400D02*
X58757400Y-19920800D01*
X58808200Y-22156000D02*
X57530000Y-22156000D01*
D64*
X22885400Y-44907200D02*
X22885400Y-45485900D01*
D61*
X60881000Y-15591000D02*
X66881000Y-15591000D01*
X9779000Y-39179200D02*
X9779000Y-38100000D01*
D62*
X26752104Y-24421800D02*
X25641600Y-24421800D01*
X20950600Y-52494700D02*
X22190200Y-52494700D01*
D61*
X35255200Y-31496000D02*
X35267200Y-31508000D01*
X39254000Y-43904000D02*
X39254000Y-46304000D01*
X24490200Y-49794700D02*
X25690200Y-49794700D01*
D62*
X28403104Y-24421800D02*
X26752104Y-24421800D01*
D61*
X27355800Y-44043600D02*
X26644600Y-43332400D01*
X29718000Y-25273000D02*
X30262000Y-25817000D01*
X34192699Y-38307499D02*
X34762000Y-37738198D01*
D62*
%TO.N,+3V3*%
X24511000Y-26924000D02*
X24511000Y-28004000D01*
D61*
X35262000Y-37880435D02*
X35262000Y-36420500D01*
D62*
X26752104Y-25971800D02*
X28403104Y-25971800D01*
D61*
X35426122Y-38044557D02*
X35262000Y-37880435D01*
X52552600Y-19918700D02*
X52554700Y-19920800D01*
X29762000Y-26587000D02*
X29146800Y-25971800D01*
X52552600Y-18389600D02*
X52552600Y-19918700D01*
D62*
X24511000Y-28004000D02*
X26035000Y-28004000D01*
D61*
X29146800Y-25971800D02*
X28403104Y-25971800D01*
D65*
X5384800Y-35077400D02*
X5384800Y-41377400D01*
D61*
X36796243Y-38044557D02*
X36830000Y-38010800D01*
X35426122Y-38044557D02*
X36796243Y-38044557D01*
D62*
X25628600Y-25971800D02*
X26752104Y-25971800D01*
D61*
X29762000Y-28095500D02*
X29762000Y-26587000D01*
%TO.N,+3.3VA*%
X38901200Y-29805800D02*
X38901200Y-29808305D01*
X39674800Y-29032200D02*
X38901200Y-29805800D01*
X38901200Y-29808305D02*
X37701505Y-31008000D01*
X41262000Y-29032200D02*
X39674800Y-29032200D01*
X37701505Y-31008000D02*
X36674500Y-31008000D01*
%TO.N,/NRST*%
X25019000Y-42557100D02*
X25169500Y-42707600D01*
X59182000Y-11811000D02*
X59182000Y-12941000D01*
X66881000Y-11841000D02*
X60881000Y-11841000D01*
X25169500Y-42707600D02*
X25994600Y-42707600D01*
X35556000Y-32008000D02*
X36674500Y-32008000D01*
X21209000Y-38557200D02*
X19964400Y-38557200D01*
X34671000Y-32893000D02*
X35556000Y-32008000D01*
X33858200Y-32893000D02*
X34671000Y-32893000D01*
X59182000Y-11811000D02*
X60851000Y-11811000D01*
X33832800Y-32867600D02*
X33858200Y-32893000D01*
X60851000Y-11811000D02*
X60881000Y-11841000D01*
D62*
%TO.N,+5V*%
X15621000Y-21476000D02*
X15621000Y-20248500D01*
X15862000Y-21717000D02*
X15875000Y-21730000D01*
X14144000Y-29638000D02*
X14111000Y-29638000D01*
X15875000Y-21730000D02*
X15875000Y-27874000D01*
D66*
X6771000Y-29337000D02*
X14445000Y-29337000D01*
D62*
X15862000Y-21717000D02*
X15621000Y-21476000D01*
X15621000Y-20248500D02*
X15499500Y-20127000D01*
X15875000Y-27874000D02*
X14111000Y-29638000D01*
D66*
X6731000Y-29297000D02*
X6771000Y-29337000D01*
D62*
X14445000Y-29337000D02*
X14144000Y-29638000D01*
D61*
%TO.N,Net-(D101-K)*%
X54190500Y-22156000D02*
X54165100Y-22181400D01*
X55880000Y-22156000D02*
X54190500Y-22156000D01*
%TO.N,Net-(D102-K)*%
X54129700Y-19920800D02*
X55819200Y-19920800D01*
%TO.N,/SWO*%
X17297400Y-37287200D02*
X18694400Y-37287200D01*
X28356600Y-42707600D02*
X27294600Y-42707600D01*
X28371800Y-42722800D02*
X28356600Y-42707600D01*
%TO.N,/SWCLK*%
X18643600Y-38608000D02*
X18694400Y-38557200D01*
X17361500Y-38608000D02*
X18643600Y-38608000D01*
X27294600Y-39674800D02*
X27294600Y-40807600D01*
%TO.N,/SWDIO*%
X25994600Y-39725600D02*
X25994600Y-40807600D01*
X17246600Y-39827200D02*
X18694400Y-39827200D01*
D62*
%TO.N,VBUS*%
X17783000Y-44326000D02*
X18285000Y-44326000D01*
D64*
X17786000Y-44323000D02*
X22453600Y-44323000D01*
D67*
X17783000Y-44326000D02*
X21890200Y-48433200D01*
D62*
X20396200Y-39827200D02*
X19964400Y-39827200D01*
D64*
X22885400Y-43891200D02*
X22885400Y-43210900D01*
X22453600Y-44323000D02*
X22885400Y-43891200D01*
D62*
X17783000Y-44326000D02*
X15240000Y-44326000D01*
X20955000Y-41656000D02*
X20955000Y-40386000D01*
D67*
X21890200Y-48433200D02*
X21890200Y-49794700D01*
D62*
X18285000Y-44326000D02*
X20955000Y-41656000D01*
X20955000Y-40386000D02*
X20396200Y-39827200D01*
D64*
X17783000Y-44326000D02*
X17786000Y-44323000D01*
D61*
%TO.N,/UART_TX*%
X38176200Y-29508000D02*
X36674500Y-29508000D01*
%TO.N,/UART_RX*%
X35262000Y-28095500D02*
X35262000Y-26849600D01*
X35262000Y-26849600D02*
X35627800Y-26483800D01*
%TO.N,Net-(J104-Pin_2)*%
X6795000Y-26733000D02*
X6731000Y-26797000D01*
X12446000Y-26733000D02*
X6795000Y-26733000D01*
%TO.N,/RGB_LED*%
X17774500Y-19177000D02*
X14478000Y-19177000D01*
X14478000Y-19177000D02*
X13873000Y-19782000D01*
X13873000Y-19782000D02*
X13873000Y-22225000D01*
X19050000Y-19177000D02*
X17774500Y-19177000D01*
%TO.N,/DIP3*%
X32207000Y-46304000D02*
X31115000Y-45212000D01*
X31262000Y-41001000D02*
X31262000Y-36420500D01*
X31115000Y-41148000D02*
X31262000Y-41001000D01*
X31115000Y-45212000D02*
X31115000Y-41148000D01*
X37454000Y-46304000D02*
X32207000Y-46304000D01*
%TO.N,/DIP2*%
X37454000Y-45504000D02*
X33185000Y-45504000D01*
X32385000Y-41148000D02*
X32385000Y-39497000D01*
X31762000Y-38874000D02*
X31762000Y-36420500D01*
X33185000Y-45504000D02*
X32385000Y-44704000D01*
X32385000Y-44704000D02*
X32385000Y-41148000D01*
X32385000Y-39497000D02*
X31762000Y-38874000D01*
%TO.N,/DIP1*%
X33655000Y-40005000D02*
X32258000Y-38608000D01*
X33655000Y-41148000D02*
X33655000Y-40005000D01*
X37454000Y-44704000D02*
X34290000Y-44704000D01*
X32258000Y-36424500D02*
X32262000Y-36420500D01*
X34290000Y-44704000D02*
X33655000Y-44069000D01*
X33655000Y-44069000D02*
X33655000Y-41148000D01*
X32258000Y-38608000D02*
X32258000Y-36424500D01*
%TO.N,/BOOT0*%
X33262000Y-38469000D02*
X33262000Y-36420500D01*
X35395000Y-43904000D02*
X34925000Y-43434000D01*
X34925000Y-40132000D02*
X33262000Y-38469000D01*
X37454000Y-43904000D02*
X35395000Y-43904000D01*
X34925000Y-43434000D02*
X34925000Y-41148000D01*
X34925000Y-41148000D02*
X34925000Y-40132000D01*
D62*
%TO.N,/LDO_3V3/5V*%
X12319000Y-44545000D02*
X12319000Y-44323000D01*
D61*
%TO.N,Net-(D107-K)*%
X54140100Y-24467400D02*
X55829600Y-24467400D01*
D63*
%TO.N,/USB_D_N*%
X21935400Y-45485900D02*
X21935400Y-46479651D01*
X21935400Y-46479651D02*
X22650200Y-47194451D01*
X22650200Y-47194451D02*
X22650200Y-49684700D01*
X22650200Y-49684700D02*
X22540200Y-49794700D01*
%TO.N,/USB_D_P*%
X23120600Y-47194451D02*
X23120600Y-49725100D01*
X23835400Y-45485900D02*
X23835400Y-46479651D01*
X23120600Y-49725100D02*
X23190200Y-49794700D01*
X23835400Y-46479651D02*
X23120600Y-47194451D01*
D61*
%TO.N,/~{OE}*%
X17901500Y-20000000D02*
X17774500Y-20127000D01*
X30762000Y-25291695D02*
X25470305Y-20000000D01*
X25470305Y-20000000D02*
X17901500Y-20000000D01*
X30762000Y-28095500D02*
X30762000Y-25291695D01*
%TO.N,/SCL*%
X12416000Y-5999000D02*
X13388000Y-5999000D01*
X10668000Y-12954000D02*
X10668000Y-7747000D01*
X26035000Y-29654000D02*
X26035000Y-30988000D01*
X9017000Y-14605000D02*
X10668000Y-12954000D01*
X10668000Y-7747000D02*
X12416000Y-5999000D01*
X26035000Y-30988000D02*
X27055000Y-32008000D01*
X6207000Y-14605000D02*
X9017000Y-14605000D01*
X27055000Y-32008000D02*
X28349500Y-32008000D01*
%TO.N,/SDA*%
X24511000Y-29654000D02*
X24511000Y-30988000D01*
X17399000Y-13208000D02*
X17399000Y-6096000D01*
X26031000Y-32508000D02*
X28349500Y-32508000D01*
X14002000Y-16605000D02*
X17399000Y-13208000D01*
X24511000Y-30988000D02*
X26031000Y-32508000D01*
X17399000Y-6096000D02*
X14762000Y-3459000D01*
X14762000Y-3459000D02*
X13388000Y-3459000D01*
X6207000Y-16605000D02*
X14002000Y-16605000D01*
%TO.N,Net-(SW107-B)*%
X12573000Y-22225000D02*
X12446000Y-22352000D01*
X12446000Y-22352000D02*
X12446000Y-25083000D01*
%TO.N,Net-(SW107-C)*%
X12253000Y-18227000D02*
X11273000Y-19207000D01*
X11273000Y-19207000D02*
X11273000Y-22225000D01*
X15499500Y-18227000D02*
X12253000Y-18227000D01*
%TO.N,/IR_RECV*%
X32762000Y-28095500D02*
X32762000Y-25023000D01*
X37084000Y-20701000D02*
X45085000Y-20701000D01*
X55658000Y-10128000D02*
X55658000Y-6731000D01*
X45085000Y-20701000D02*
X55658000Y-10128000D01*
X32762000Y-25023000D02*
X37084000Y-20701000D01*
%TD*%
%TA.AperFunction,Conductor*%
%TO.N,+5V*%
G36*
X11303000Y-31750000D02*
G01*
X5204000Y-31750000D01*
X5136961Y-31730315D01*
X5091206Y-31677511D01*
X5080000Y-31626000D01*
X5080000Y-28318000D01*
X5099685Y-28250961D01*
X5152489Y-28205206D01*
X5204000Y-28194000D01*
X11303000Y-28194000D01*
X11303000Y-31750000D01*
G37*
%TD.AperFunction*%
%TD*%
%TA.AperFunction,Conductor*%
%TO.N,+5V*%
G36*
X16199039Y-28213685D02*
G01*
X16244794Y-28266489D01*
X16256000Y-28318000D01*
X16256000Y-41916139D01*
X16236315Y-41983178D01*
X16183511Y-42028933D01*
X16135178Y-42040098D01*
X11430178Y-42160739D01*
X11362656Y-42142780D01*
X11315563Y-42091166D01*
X11303000Y-42036780D01*
X11303000Y-31750000D01*
X11303000Y-28194000D01*
X16132000Y-28194000D01*
X16199039Y-28213685D01*
G37*
%TD.AperFunction*%
%TD*%
%TA.AperFunction,Conductor*%
%TO.N,+3V3*%
G36*
X8960039Y-32404685D02*
G01*
X9005794Y-32457489D01*
X9017000Y-32509000D01*
X9017000Y-37585596D01*
X9000387Y-37647596D01*
X8951821Y-37731714D01*
X8893327Y-37911740D01*
X8893326Y-37911744D01*
X8873540Y-38100000D01*
X8885841Y-38217041D01*
X8873273Y-38285768D01*
X8825541Y-38336792D01*
X8762521Y-38354000D01*
X759000Y-38354000D01*
X691961Y-38334315D01*
X646206Y-38281511D01*
X635000Y-38230000D01*
X635000Y-32509000D01*
X654685Y-32441961D01*
X707489Y-32396206D01*
X759000Y-32385000D01*
X8893000Y-32385000D01*
X8960039Y-32404685D01*
G37*
%TD.AperFunction*%
%TD*%
%TA.AperFunction,Conductor*%
%TO.N,+3V3*%
G36*
X35118039Y-48537685D02*
G01*
X35163794Y-48590489D01*
X35175000Y-48642000D01*
X35175000Y-49903000D01*
X35352828Y-49903000D01*
X35352844Y-49902999D01*
X35420087Y-49895769D01*
X35420374Y-49898445D01*
X35477247Y-49901491D01*
X35533921Y-49942355D01*
X35559506Y-50007372D01*
X35560000Y-50018430D01*
X35560000Y-51311000D01*
X35540315Y-51378039D01*
X35487511Y-51423794D01*
X35436000Y-51435000D01*
X30604000Y-51435000D01*
X30536961Y-51415315D01*
X30491206Y-51362511D01*
X30480000Y-51311000D01*
X30480000Y-50018430D01*
X30499685Y-49951391D01*
X30552489Y-49905636D01*
X30619894Y-49895944D01*
X30619913Y-49895769D01*
X30620598Y-49895842D01*
X30621647Y-49895692D01*
X30624852Y-49896300D01*
X30687155Y-49902999D01*
X30687172Y-49903000D01*
X30865000Y-49903000D01*
X30865000Y-49018000D01*
X31365000Y-49018000D01*
X31365000Y-49903000D01*
X31542828Y-49903000D01*
X31542844Y-49902999D01*
X31602372Y-49896598D01*
X31602376Y-49896597D01*
X31706666Y-49857699D01*
X31776357Y-49852715D01*
X31793334Y-49857699D01*
X31897623Y-49896597D01*
X31897627Y-49896598D01*
X31957155Y-49902999D01*
X31957172Y-49903000D01*
X32135000Y-49903000D01*
X32135000Y-49018000D01*
X32635000Y-49018000D01*
X32635000Y-49903000D01*
X32812828Y-49903000D01*
X32812844Y-49902999D01*
X32872372Y-49896598D01*
X32872376Y-49896597D01*
X32976666Y-49857699D01*
X33046357Y-49852715D01*
X33063334Y-49857699D01*
X33167623Y-49896597D01*
X33167627Y-49896598D01*
X33227155Y-49902999D01*
X33227172Y-49903000D01*
X33405000Y-49903000D01*
X33405000Y-49018000D01*
X33905000Y-49018000D01*
X33905000Y-49903000D01*
X34082828Y-49903000D01*
X34082844Y-49902999D01*
X34142372Y-49896598D01*
X34142376Y-49896597D01*
X34246666Y-49857699D01*
X34316357Y-49852715D01*
X34333334Y-49857699D01*
X34437623Y-49896597D01*
X34437627Y-49896598D01*
X34497155Y-49902999D01*
X34497172Y-49903000D01*
X34675000Y-49903000D01*
X34675000Y-49018000D01*
X33905000Y-49018000D01*
X33405000Y-49018000D01*
X32635000Y-49018000D01*
X32135000Y-49018000D01*
X31365000Y-49018000D01*
X30865000Y-49018000D01*
X30865000Y-48642000D01*
X30884685Y-48574961D01*
X30937489Y-48529206D01*
X30989000Y-48518000D01*
X35051000Y-48518000D01*
X35118039Y-48537685D01*
G37*
%TD.AperFunction*%
%TD*%
%TA.AperFunction,Conductor*%
%TO.N,GND*%
G36*
X3930839Y-40354885D02*
G01*
X3976594Y-40407689D01*
X3987800Y-40459200D01*
X3987800Y-43894200D01*
X3968115Y-43961239D01*
X3915311Y-44006994D01*
X3863800Y-44018200D01*
X809800Y-44018200D01*
X742761Y-43998515D01*
X697006Y-43945711D01*
X685800Y-43894200D01*
X685800Y-40459200D01*
X705485Y-40392161D01*
X758289Y-40346406D01*
X809800Y-40335200D01*
X3863800Y-40335200D01*
X3930839Y-40354885D01*
G37*
%TD.AperFunction*%
%TD*%
%TA.AperFunction,Conductor*%
%TO.N,/LDO_3V3/5V*%
G36*
X10738039Y-40405685D02*
G01*
X10783794Y-40458489D01*
X10795000Y-40510000D01*
X10795000Y-42799000D01*
X13211000Y-42799000D01*
X13278039Y-42818685D01*
X13323794Y-42871489D01*
X13335000Y-42923000D01*
X13335000Y-46104000D01*
X13315315Y-46171039D01*
X13262511Y-46216794D01*
X13211000Y-46228000D01*
X10157000Y-46228000D01*
X10089961Y-46208315D01*
X10044206Y-46155511D01*
X10033000Y-46104000D01*
X10033000Y-44196000D01*
X6982000Y-44196000D01*
X6914961Y-44176315D01*
X6869206Y-44123511D01*
X6858000Y-44072000D01*
X6858000Y-40510000D01*
X6877685Y-40442961D01*
X6930489Y-40397206D01*
X6982000Y-40386000D01*
X10671000Y-40386000D01*
X10738039Y-40405685D01*
G37*
%TD.AperFunction*%
%TD*%
%TA.AperFunction,Conductor*%
%TO.N,VBUS*%
G36*
X19628039Y-43707685D02*
G01*
X19673794Y-43760489D01*
X19685000Y-43812000D01*
X19685000Y-46612000D01*
X19665315Y-46679039D01*
X19612511Y-46724794D01*
X19561000Y-46736000D01*
X14475000Y-46736000D01*
X14407961Y-46716315D01*
X14362206Y-46663511D01*
X14351000Y-46612000D01*
X14351000Y-43812000D01*
X14370685Y-43744961D01*
X14423489Y-43699206D01*
X14475000Y-43688000D01*
X19561000Y-43688000D01*
X19628039Y-43707685D01*
G37*
%TD.AperFunction*%
%TD*%
%TA.AperFunction,Conductor*%
%TO.N,/LED_HB*%
G36*
X33384801Y-27211427D02*
G01*
X33388156Y-27218408D01*
X33408473Y-27401262D01*
X33408474Y-27403842D01*
X33407979Y-27408305D01*
X33407511Y-27413928D01*
X33407156Y-27420279D01*
X33406999Y-27425936D01*
X33406999Y-27439629D01*
X33407600Y-27450420D01*
X33407330Y-27453650D01*
X33273411Y-28046020D01*
X33268244Y-28053334D01*
X33259419Y-28054852D01*
X33252105Y-28049685D01*
X33250588Y-28046024D01*
X33116667Y-27453647D01*
X33116398Y-27450423D01*
X33117000Y-27439616D01*
X33117000Y-27425959D01*
X33117000Y-27425940D01*
X33116999Y-27425887D01*
X33116842Y-27420270D01*
X33116841Y-27420250D01*
X33116841Y-27420241D01*
X33116488Y-27413918D01*
X33116019Y-27408287D01*
X33115525Y-27403841D01*
X33115525Y-27401275D01*
X33135844Y-27218408D01*
X33140163Y-27210564D01*
X33147472Y-27208000D01*
X33376528Y-27208000D01*
X33384801Y-27211427D01*
G37*
%TD.AperFunction*%
%TD*%
%TA.AperFunction,Conductor*%
%TO.N,/LED_HB*%
G36*
X52237078Y-21769119D02*
G01*
X52585244Y-22174580D01*
X52588033Y-22183089D01*
X52586019Y-22188815D01*
X52286171Y-22626466D01*
X52278668Y-22631354D01*
X52271253Y-22630301D01*
X51721534Y-22353242D01*
X51715689Y-22346458D01*
X51715100Y-22342794D01*
X51715100Y-22106310D01*
X51718527Y-22098037D01*
X51720371Y-22096535D01*
X52221776Y-21766963D01*
X52230570Y-21765283D01*
X52237078Y-21769119D01*
G37*
%TD.AperFunction*%
%TD*%
%TA.AperFunction,Conductor*%
%TO.N,/LED_UI*%
G36*
X33884801Y-27211427D02*
G01*
X33888156Y-27218408D01*
X33911464Y-27428173D01*
X33911500Y-27428819D01*
X33911500Y-27433903D01*
X33911212Y-27436483D01*
X33773411Y-28046020D01*
X33768244Y-28053334D01*
X33759419Y-28054852D01*
X33752105Y-28049685D01*
X33750588Y-28046024D01*
X33647138Y-27588429D01*
X33612787Y-27436480D01*
X33612499Y-27433900D01*
X33612499Y-27428828D01*
X33612535Y-27428182D01*
X33635844Y-27218408D01*
X33640163Y-27210564D01*
X33647472Y-27208000D01*
X33876528Y-27208000D01*
X33884801Y-27211427D01*
G37*
%TD.AperFunction*%
%TD*%
%TA.AperFunction,Conductor*%
%TO.N,/LED_UI*%
G36*
X52237677Y-24038061D02*
G01*
X52560661Y-24460290D01*
X52562966Y-24468944D01*
X52560661Y-24474508D01*
X52237677Y-24896738D01*
X52229929Y-24901227D01*
X52222535Y-24899762D01*
X51695951Y-24595777D01*
X51690499Y-24588673D01*
X51690100Y-24585644D01*
X51690100Y-24349155D01*
X51693527Y-24340882D01*
X51695949Y-24339023D01*
X52222536Y-24035036D01*
X52231413Y-24033869D01*
X52237677Y-24038061D01*
G37*
%TD.AperFunction*%
%TD*%
%TA.AperFunction,Conductor*%
%TO.N,+3V3*%
G36*
X45724939Y-24510964D02*
G01*
X45733202Y-24514412D01*
X45736608Y-24522693D01*
X45736408Y-24524820D01*
X45590790Y-25301456D01*
X45585897Y-25308956D01*
X45579290Y-25311000D01*
X45098710Y-25311000D01*
X45090437Y-25307573D01*
X45087210Y-25301456D01*
X44941591Y-24524820D01*
X44943435Y-24516057D01*
X44950935Y-24511164D01*
X44953052Y-24510964D01*
X45339000Y-24510000D01*
X45724939Y-24510964D01*
G37*
%TD.AperFunction*%
%TD*%
%TA.AperFunction,Conductor*%
%TO.N,+3V3*%
G36*
X45588945Y-24744427D02*
G01*
X45591727Y-24748869D01*
X45786145Y-25309877D01*
X45785616Y-25318816D01*
X45781925Y-25323204D01*
X45345835Y-25637080D01*
X45337118Y-25639132D01*
X45332165Y-25637080D01*
X44896074Y-25323204D01*
X44891361Y-25315590D01*
X44891854Y-25309877D01*
X45086273Y-24748869D01*
X45092220Y-24742174D01*
X45097328Y-24741000D01*
X45580672Y-24741000D01*
X45588945Y-24744427D01*
G37*
%TD.AperFunction*%
%TD*%
%TA.AperFunction,Conductor*%
%TO.N,GND*%
G36*
X44132717Y-26793590D02*
G01*
X44909357Y-26939210D01*
X44916856Y-26944103D01*
X44918900Y-26950710D01*
X44918900Y-27431289D01*
X44915473Y-27439562D01*
X44909356Y-27442789D01*
X44132720Y-27588408D01*
X44123957Y-27586564D01*
X44119064Y-27579064D01*
X44118864Y-27576946D01*
X44117900Y-27191000D01*
X44118864Y-26805059D01*
X44122312Y-26796797D01*
X44130593Y-26793391D01*
X44132717Y-26793590D01*
G37*
%TD.AperFunction*%
%TD*%
%TA.AperFunction,Conductor*%
%TO.N,GND*%
G36*
X45004084Y-26761347D02*
G01*
X45007868Y-26764512D01*
X45334401Y-27183811D01*
X45336781Y-27192444D01*
X45334401Y-27198189D01*
X45007868Y-27617487D01*
X45000081Y-27621909D01*
X44995167Y-27621472D01*
X44422230Y-27443555D01*
X44415346Y-27437828D01*
X44414000Y-27432381D01*
X44414000Y-26949618D01*
X44417427Y-26941345D01*
X44422228Y-26938444D01*
X44995167Y-26760527D01*
X45004084Y-26761347D01*
G37*
%TD.AperFunction*%
%TD*%
%TA.AperFunction,Conductor*%
%TO.N,+3V3*%
G36*
X43733284Y-24956190D02*
G01*
X44332776Y-25273703D01*
X44338483Y-25280603D01*
X44339000Y-25284042D01*
X44339000Y-25769957D01*
X44335573Y-25778230D01*
X44332776Y-25780296D01*
X43733284Y-26097809D01*
X43724369Y-26098653D01*
X43719260Y-26095459D01*
X43195466Y-25534989D01*
X43192321Y-25526604D01*
X43195466Y-25519011D01*
X43421640Y-25277000D01*
X43719261Y-24958539D01*
X43727412Y-24954836D01*
X43733284Y-24956190D01*
G37*
%TD.AperFunction*%
%TD*%
%TA.AperFunction,Conductor*%
%TO.N,+3V3*%
G36*
X45089795Y-25194353D02*
G01*
X45092852Y-25197906D01*
X45335871Y-25633597D01*
X45336908Y-25642491D01*
X45334253Y-25647229D01*
X44970338Y-26041732D01*
X44962209Y-26045489D01*
X44956568Y-26044294D01*
X44745017Y-25940074D01*
X44420529Y-25780216D01*
X44414622Y-25773486D01*
X44414000Y-25769721D01*
X44414000Y-25287303D01*
X44417427Y-25279030D01*
X44424218Y-25275698D01*
X45081156Y-25191999D01*
X45089795Y-25194353D01*
G37*
%TD.AperFunction*%
%TD*%
%TA.AperFunction,Conductor*%
%TO.N,GND*%
G36*
X43964216Y-26825708D02*
G01*
X43970165Y-26831854D01*
X44118993Y-27188824D01*
X44119894Y-27193355D01*
X44118930Y-27578776D01*
X44115482Y-27587041D01*
X44107201Y-27590447D01*
X44106689Y-27590434D01*
X43352735Y-27555516D01*
X43344629Y-27551711D01*
X43341576Y-27543829D01*
X43341576Y-27063114D01*
X43345003Y-27054841D01*
X43349173Y-27052157D01*
X43955268Y-26825398D01*
X43964216Y-26825708D01*
G37*
%TD.AperFunction*%
%TD*%
%TA.AperFunction,Conductor*%
%TO.N,GND*%
G36*
X43143122Y-26857854D02*
G01*
X43704132Y-27052273D01*
X43710826Y-27058219D01*
X43712000Y-27063327D01*
X43712000Y-27546672D01*
X43708573Y-27554945D01*
X43704131Y-27557727D01*
X43143122Y-27752145D01*
X43134183Y-27751616D01*
X43129795Y-27747925D01*
X42815919Y-27311834D01*
X42813867Y-27303117D01*
X42815917Y-27298167D01*
X43129795Y-26862073D01*
X43137409Y-26857361D01*
X43143122Y-26857854D01*
G37*
%TD.AperFunction*%
%TD*%
%TA.AperFunction,Conductor*%
%TO.N,+3.3VA*%
G36*
X41147201Y-25534064D02*
G01*
X41689317Y-26067112D01*
X41692814Y-26075356D01*
X41691903Y-26079981D01*
X41392010Y-26794826D01*
X41385649Y-26801130D01*
X41381221Y-26802000D01*
X40896779Y-26802000D01*
X40888506Y-26798573D01*
X40885990Y-26794826D01*
X40586095Y-26079979D01*
X40586055Y-26071027D01*
X40588678Y-26067116D01*
X41130798Y-25534064D01*
X41139099Y-25530708D01*
X41147201Y-25534064D01*
G37*
%TD.AperFunction*%
%TD*%
%TA.AperFunction,Conductor*%
%TO.N,+3.3VA*%
G36*
X41390089Y-26383427D02*
G01*
X41392250Y-26386407D01*
X41661342Y-26916838D01*
X41662029Y-26925766D01*
X41658947Y-26930632D01*
X41268238Y-27300100D01*
X41259872Y-27303294D01*
X41254501Y-27301817D01*
X40818808Y-27058797D01*
X40813253Y-27051775D01*
X40812883Y-27047257D01*
X40887816Y-26390374D01*
X40892160Y-26382542D01*
X40899442Y-26380000D01*
X41381816Y-26380000D01*
X41390089Y-26383427D01*
G37*
%TD.AperFunction*%
%TD*%
%TA.AperFunction,Conductor*%
%TO.N,+3.3VA*%
G36*
X41269187Y-27309597D02*
G01*
X41687169Y-27635104D01*
X41691591Y-27642891D01*
X41690349Y-27649756D01*
X41390283Y-28223721D01*
X41383413Y-28229465D01*
X41379914Y-28230000D01*
X41144086Y-28230000D01*
X41135813Y-28226573D01*
X41133717Y-28223721D01*
X40833650Y-27649756D01*
X40832854Y-27640836D01*
X40836828Y-27635106D01*
X41254811Y-27309597D01*
X41263444Y-27307218D01*
X41269187Y-27309597D01*
G37*
%TD.AperFunction*%
%TD*%
%TA.AperFunction,Conductor*%
%TO.N,+3.3VA*%
G36*
X41388187Y-28110627D02*
G01*
X41390283Y-28113479D01*
X41690349Y-28687443D01*
X41691145Y-28696363D01*
X41687169Y-28702095D01*
X41269189Y-29027601D01*
X41260556Y-29029981D01*
X41254811Y-29027601D01*
X40836830Y-28702095D01*
X40832408Y-28694308D01*
X40833649Y-28687445D01*
X41133717Y-28113478D01*
X41140587Y-28107735D01*
X41144086Y-28107200D01*
X41379914Y-28107200D01*
X41388187Y-28110627D01*
G37*
%TD.AperFunction*%
%TD*%
%TA.AperFunction,Conductor*%
%TO.N,/VBAT*%
G36*
X40260260Y-40007730D02*
G01*
X40530998Y-40234442D01*
X40535140Y-40242381D01*
X40532456Y-40250924D01*
X40531505Y-40251931D01*
X40140019Y-40620451D01*
X40131647Y-40623627D01*
X40123981Y-40620451D01*
X39732494Y-40251931D01*
X39728818Y-40243765D01*
X39731994Y-40235393D01*
X39732988Y-40234454D01*
X40003739Y-40007730D01*
X40011252Y-40005000D01*
X40252748Y-40005000D01*
X40260260Y-40007730D01*
G37*
%TD.AperFunction*%
%TD*%
%TA.AperFunction,Conductor*%
%TO.N,/VBAT*%
G36*
X38825755Y-38928649D02*
G01*
X39399721Y-39228717D01*
X39405465Y-39235587D01*
X39406000Y-39239086D01*
X39406000Y-39474913D01*
X39402573Y-39483186D01*
X39399721Y-39485282D01*
X38825756Y-39785349D01*
X38816836Y-39786145D01*
X38811104Y-39782169D01*
X38485598Y-39364188D01*
X38483218Y-39355555D01*
X38485596Y-39349813D01*
X38811106Y-38931828D01*
X38818891Y-38927408D01*
X38825755Y-38928649D01*
G37*
%TD.AperFunction*%
%TD*%
%TA.AperFunction,Conductor*%
%TO.N,GND*%
G36*
X38606188Y-41494427D02*
G01*
X38608859Y-41498563D01*
X38846551Y-42127344D01*
X38846271Y-42136294D01*
X38840109Y-42142280D01*
X38485502Y-42290123D01*
X38476548Y-42290144D01*
X38476498Y-42290123D01*
X38121890Y-42142280D01*
X38115572Y-42135933D01*
X38115448Y-42127345D01*
X38353141Y-41498562D01*
X38359272Y-41492036D01*
X38364085Y-41491000D01*
X38597915Y-41491000D01*
X38606188Y-41494427D01*
G37*
%TD.AperFunction*%
%TD*%
%TA.AperFunction,Conductor*%
%TO.N,GND*%
G36*
X38487834Y-40910919D02*
G01*
X38922502Y-41223770D01*
X38927215Y-41231384D01*
X38925862Y-41239007D01*
X38609356Y-41801041D01*
X38602310Y-41806568D01*
X38599161Y-41807000D01*
X38362839Y-41807000D01*
X38354566Y-41803573D01*
X38352644Y-41801041D01*
X38036136Y-41239007D01*
X38035063Y-41230117D01*
X38039494Y-41223772D01*
X38474166Y-40910918D01*
X38482881Y-40908867D01*
X38487834Y-40910919D01*
G37*
%TD.AperFunction*%
%TD*%
%TA.AperFunction,Conductor*%
%TO.N,/VBAT*%
G36*
X38607434Y-38460427D02*
G01*
X38609356Y-38462959D01*
X38925862Y-39024991D01*
X38926935Y-39033881D01*
X38922502Y-39040228D01*
X38487834Y-39353080D01*
X38479117Y-39355132D01*
X38474164Y-39353080D01*
X38039496Y-39040228D01*
X38034783Y-39032614D01*
X38036135Y-39024993D01*
X38352644Y-38462958D01*
X38359690Y-38457432D01*
X38362839Y-38457000D01*
X38599161Y-38457000D01*
X38607434Y-38460427D01*
G37*
%TD.AperFunction*%
%TD*%
%TA.AperFunction,Conductor*%
%TO.N,/VBAT*%
G36*
X37341812Y-34858534D02*
G01*
X37551593Y-34881843D01*
X37559436Y-34886162D01*
X37562000Y-34893471D01*
X37561999Y-35122528D01*
X37558572Y-35130801D01*
X37551591Y-35134156D01*
X37338955Y-35157782D01*
X37335083Y-35157566D01*
X36723979Y-35019411D01*
X36716665Y-35014244D01*
X36715147Y-35005419D01*
X36720314Y-34998105D01*
X36723973Y-34996589D01*
X37333519Y-34858786D01*
X37336097Y-34858499D01*
X37341171Y-34858499D01*
X37341812Y-34858534D01*
G37*
%TD.AperFunction*%
%TD*%
%TA.AperFunction,Conductor*%
%TO.N,+3V3*%
G36*
X25377125Y-36470309D02*
G01*
X25378941Y-36471066D01*
X25385259Y-36477413D01*
X25385687Y-36485084D01*
X25209427Y-37100988D01*
X25203857Y-37107999D01*
X25198179Y-37109469D01*
X24964330Y-37109469D01*
X24956057Y-37106042D01*
X24953802Y-37102873D01*
X24654848Y-36486212D01*
X24654323Y-36477273D01*
X24660272Y-36470580D01*
X24660865Y-36470312D01*
X25014500Y-36322875D01*
X25023449Y-36322855D01*
X25377125Y-36470309D01*
G37*
%TD.AperFunction*%
%TD*%
%TA.AperFunction,Conductor*%
%TO.N,+3V3*%
G36*
X25208018Y-36593427D02*
G01*
X25210225Y-36596499D01*
X25462863Y-37105579D01*
X25463471Y-37114513D01*
X25460287Y-37119407D01*
X25089904Y-37458758D01*
X25081489Y-37461820D01*
X25074096Y-37458758D01*
X24703712Y-37119407D01*
X24699927Y-37111291D01*
X24701135Y-37105580D01*
X24953774Y-36596499D01*
X24960522Y-36590612D01*
X24964255Y-36590000D01*
X25199745Y-36590000D01*
X25208018Y-36593427D01*
G37*
%TD.AperFunction*%
%TD*%
%TA.AperFunction,Conductor*%
%TO.N,/SWDIO*%
G36*
X26159729Y-38937063D02*
G01*
X26162601Y-38941775D01*
X26360883Y-39562299D01*
X26360137Y-39571222D01*
X26354240Y-39576659D01*
X25999102Y-39724723D01*
X25990148Y-39724744D01*
X25990098Y-39724723D01*
X25636115Y-39577141D01*
X25629797Y-39570794D01*
X25629818Y-39561840D01*
X25629932Y-39561576D01*
X25906907Y-38940570D01*
X25913406Y-38934410D01*
X25917592Y-38933636D01*
X26151456Y-38933636D01*
X26159729Y-38937063D01*
G37*
%TD.AperFunction*%
%TD*%
%TA.AperFunction,Conductor*%
%TO.N,/SWDIO*%
G36*
X27690477Y-33858786D02*
G01*
X28300021Y-33996588D01*
X28307334Y-34001754D01*
X28308852Y-34010579D01*
X28303685Y-34017893D01*
X28300020Y-34019411D01*
X27690481Y-34157212D01*
X27687901Y-34157500D01*
X27682828Y-34157500D01*
X27682182Y-34157464D01*
X27472408Y-34134156D01*
X27464564Y-34129837D01*
X27462000Y-34122528D01*
X27462000Y-33893471D01*
X27465427Y-33885198D01*
X27472406Y-33881843D01*
X27682196Y-33858533D01*
X27682801Y-33858499D01*
X27687913Y-33858499D01*
X27690477Y-33858786D01*
G37*
%TD.AperFunction*%
%TD*%
%TA.AperFunction,Conductor*%
%TO.N,+3V3*%
G36*
X27580057Y-34880425D02*
G01*
X27586921Y-34886175D01*
X27588248Y-34891587D01*
X27588248Y-35125449D01*
X27584821Y-35133722D01*
X27581368Y-35136110D01*
X26961054Y-35416586D01*
X26952104Y-35416872D01*
X26945573Y-35410745D01*
X26945435Y-35410427D01*
X26918441Y-35345682D01*
X26797875Y-35056499D01*
X26797855Y-35047550D01*
X26945961Y-34692309D01*
X26952307Y-34685993D01*
X26960265Y-34685651D01*
X27580057Y-34880425D01*
G37*
%TD.AperFunction*%
%TD*%
%TA.AperFunction,Conductor*%
%TO.N,+3V3*%
G36*
X27690477Y-34858786D02*
G01*
X28300023Y-34996588D01*
X28307335Y-35001754D01*
X28308853Y-35010579D01*
X28303686Y-35017893D01*
X28300021Y-35019411D01*
X27688916Y-35157566D01*
X27685044Y-35157782D01*
X27472408Y-35134156D01*
X27464564Y-35129837D01*
X27462000Y-35122528D01*
X27462000Y-34893471D01*
X27465427Y-34885198D01*
X27472406Y-34881843D01*
X27682196Y-34858533D01*
X27682801Y-34858499D01*
X27687913Y-34858499D01*
X27690477Y-34858786D01*
G37*
%TD.AperFunction*%
%TD*%
%TA.AperFunction,Conductor*%
%TO.N,+3V3*%
G36*
X27182890Y-35051964D02*
G01*
X27191154Y-35055412D01*
X27194560Y-35063693D01*
X27194352Y-35065859D01*
X27050816Y-35817233D01*
X27045898Y-35824717D01*
X27039324Y-35826738D01*
X26805637Y-35826738D01*
X26797364Y-35823311D01*
X26795594Y-35821040D01*
X26434381Y-35216673D01*
X26433078Y-35207814D01*
X26438422Y-35200628D01*
X26439917Y-35199874D01*
X26794829Y-35051904D01*
X26799350Y-35051005D01*
X27182890Y-35051964D01*
G37*
%TD.AperFunction*%
%TD*%
%TA.AperFunction,Conductor*%
%TO.N,+3V3*%
G36*
X27050047Y-36035427D02*
G01*
X27052236Y-36038462D01*
X27339578Y-36612320D01*
X27340218Y-36621251D01*
X27336305Y-36626789D01*
X26918189Y-36952401D01*
X26909556Y-36954781D01*
X26903811Y-36952401D01*
X26485965Y-36627000D01*
X26481543Y-36619213D01*
X26482879Y-36612173D01*
X26795675Y-36038101D01*
X26802643Y-36032477D01*
X26805949Y-36032000D01*
X27041774Y-36032000D01*
X27050047Y-36035427D01*
G37*
%TD.AperFunction*%
%TD*%
%TA.AperFunction,Conductor*%
%TO.N,/SWCLK*%
G36*
X27475296Y-39315690D02*
G01*
X28087037Y-39546941D01*
X28093564Y-39553072D01*
X28094600Y-39557885D01*
X28094600Y-39791714D01*
X28091173Y-39799987D01*
X28087037Y-39802658D01*
X27458255Y-40040351D01*
X27449305Y-40040071D01*
X27443319Y-40033909D01*
X27346906Y-39802658D01*
X27295475Y-39679299D01*
X27295455Y-39670350D01*
X27443319Y-39315689D01*
X27449666Y-39309372D01*
X27458254Y-39309248D01*
X27475296Y-39315690D01*
G37*
%TD.AperFunction*%
%TD*%
%TA.AperFunction,Conductor*%
%TO.N,/SWCLK*%
G36*
X29771893Y-36466314D02*
G01*
X29773411Y-36469979D01*
X29911212Y-37079518D01*
X29911500Y-37082098D01*
X29911500Y-37087171D01*
X29911464Y-37087817D01*
X29888156Y-37297592D01*
X29883837Y-37305436D01*
X29876528Y-37308000D01*
X29647472Y-37308000D01*
X29639199Y-37304573D01*
X29635844Y-37297592D01*
X29612217Y-37084955D01*
X29612433Y-37081083D01*
X29612787Y-37079518D01*
X29750588Y-36469976D01*
X29755754Y-36462665D01*
X29764579Y-36461147D01*
X29771893Y-36466314D01*
G37*
%TD.AperFunction*%
%TD*%
%TA.AperFunction,Conductor*%
%TO.N,/SWO*%
G36*
X28854814Y-42074443D02*
G01*
X29020156Y-42239785D01*
X29023583Y-42248058D01*
X29022547Y-42252871D01*
X28746006Y-42865560D01*
X28739479Y-42871691D01*
X28730890Y-42871567D01*
X28375604Y-42725363D01*
X28369257Y-42719045D01*
X28369236Y-42718995D01*
X28223032Y-42363709D01*
X28223053Y-42354755D01*
X28229037Y-42348594D01*
X28841728Y-42072051D01*
X28850678Y-42071772D01*
X28854814Y-42074443D01*
G37*
%TD.AperFunction*%
%TD*%
%TA.AperFunction,Conductor*%
%TO.N,/SWO*%
G36*
X30771893Y-36466313D02*
G01*
X30773411Y-36469978D01*
X30907330Y-37062347D01*
X30907600Y-37065579D01*
X30906999Y-37076332D01*
X30906999Y-37090088D01*
X30907156Y-37095709D01*
X30907157Y-37095752D01*
X30907158Y-37095785D01*
X30907159Y-37095790D01*
X30907510Y-37102076D01*
X30907979Y-37107697D01*
X30907980Y-37107703D01*
X30908474Y-37112152D01*
X30908473Y-37114734D01*
X30888156Y-37297592D01*
X30883837Y-37305436D01*
X30876528Y-37308000D01*
X30647472Y-37308000D01*
X30639199Y-37304573D01*
X30635844Y-37297592D01*
X30628672Y-37233047D01*
X30612533Y-37087805D01*
X30612499Y-37087196D01*
X30612499Y-37082085D01*
X30612785Y-37079523D01*
X30750588Y-36469975D01*
X30755754Y-36462664D01*
X30764579Y-36461146D01*
X30771893Y-36466313D01*
G37*
%TD.AperFunction*%
%TD*%
%TA.AperFunction,Conductor*%
%TO.N,GND*%
G36*
X28573188Y-37303427D02*
G01*
X28575859Y-37307563D01*
X28813551Y-37936344D01*
X28813271Y-37945294D01*
X28807109Y-37951280D01*
X28452502Y-38099123D01*
X28443548Y-38099144D01*
X28443498Y-38099123D01*
X28088890Y-37951280D01*
X28082572Y-37944933D01*
X28082448Y-37936345D01*
X28320141Y-37307562D01*
X28326272Y-37301036D01*
X28331085Y-37300000D01*
X28564915Y-37300000D01*
X28573188Y-37303427D01*
G37*
%TD.AperFunction*%
%TD*%
%TA.AperFunction,Conductor*%
%TO.N,GND*%
G36*
X28468187Y-36961597D02*
G01*
X28886034Y-37286999D01*
X28890456Y-37294786D01*
X28889119Y-37301828D01*
X28576325Y-37875898D01*
X28569357Y-37881523D01*
X28566051Y-37882000D01*
X28330226Y-37882000D01*
X28321953Y-37878573D01*
X28319764Y-37875538D01*
X28032421Y-37301679D01*
X28031781Y-37292748D01*
X28035692Y-37287212D01*
X28453811Y-36961597D01*
X28462444Y-36959218D01*
X28468187Y-36961597D01*
G37*
%TD.AperFunction*%
%TD*%
%TA.AperFunction,Conductor*%
%TO.N,/D_N*%
G36*
X27651306Y-32860797D02*
G01*
X27662296Y-32862019D01*
X27667927Y-32862488D01*
X27674250Y-32862841D01*
X27674272Y-32862841D01*
X27674279Y-32862842D01*
X27677884Y-32862942D01*
X27679938Y-32862999D01*
X27679949Y-32863000D01*
X27679968Y-32863000D01*
X27693597Y-32863000D01*
X27693614Y-32863000D01*
X27704424Y-32862398D01*
X27707645Y-32862667D01*
X28300021Y-32996588D01*
X28307334Y-33001754D01*
X28308852Y-33010579D01*
X28303685Y-33017893D01*
X28300020Y-33019411D01*
X27707654Y-33153330D01*
X27704423Y-33153600D01*
X27693654Y-33152999D01*
X27693641Y-33152999D01*
X27678448Y-33152999D01*
X27678444Y-33152999D01*
X27674695Y-33153067D01*
X27670629Y-33153216D01*
X27670620Y-33153216D01*
X27670606Y-33153217D01*
X27668521Y-33153330D01*
X27666864Y-33153421D01*
X27646374Y-33154914D01*
X27644673Y-33154914D01*
X27472849Y-33142390D01*
X27464847Y-33138371D01*
X27462000Y-33130721D01*
X27462000Y-32885278D01*
X27465427Y-32877005D01*
X27472848Y-32873609D01*
X27649173Y-32860757D01*
X27651306Y-32860797D01*
G37*
%TD.AperFunction*%
%TD*%
%TA.AperFunction,Conductor*%
%TO.N,/D_N*%
G36*
X22069313Y-42251827D02*
G01*
X22071923Y-42255804D01*
X22222053Y-42636111D01*
X22221903Y-42645064D01*
X22221612Y-42645685D01*
X21945842Y-43191242D01*
X21939051Y-43197080D01*
X21930122Y-43196406D01*
X21924958Y-43191242D01*
X21847378Y-43037767D01*
X21649186Y-42645683D01*
X21648513Y-42636756D01*
X21648737Y-42636134D01*
X21798877Y-42255803D01*
X21805103Y-42249367D01*
X21809760Y-42248400D01*
X22061040Y-42248400D01*
X22069313Y-42251827D01*
G37*
%TD.AperFunction*%
%TD*%
%TA.AperFunction,Conductor*%
%TO.N,/D_P*%
G36*
X27690477Y-33358786D02*
G01*
X28300023Y-33496588D01*
X28307335Y-33501754D01*
X28308853Y-33510579D01*
X28303686Y-33517893D01*
X28300021Y-33519411D01*
X27707654Y-33653330D01*
X27704423Y-33653600D01*
X27693654Y-33652999D01*
X27693641Y-33652999D01*
X27679917Y-33652999D01*
X27679891Y-33652999D01*
X27674180Y-33653159D01*
X27669843Y-33653403D01*
X27667869Y-33653514D01*
X27667863Y-33653514D01*
X27667836Y-33653516D01*
X27662335Y-33653976D01*
X27662302Y-33653979D01*
X27662286Y-33653981D01*
X27655888Y-33654691D01*
X27651303Y-33655201D01*
X27649161Y-33655241D01*
X27472849Y-33642390D01*
X27464847Y-33638371D01*
X27462000Y-33630721D01*
X27462000Y-33385278D01*
X27465427Y-33377005D01*
X27472848Y-33373609D01*
X27679967Y-33358512D01*
X27680323Y-33358499D01*
X27687913Y-33358499D01*
X27690477Y-33358786D01*
G37*
%TD.AperFunction*%
%TD*%
%TA.AperFunction,Conductor*%
%TO.N,/D_P*%
G36*
X23969313Y-42251827D02*
G01*
X23971923Y-42255804D01*
X24122053Y-42636111D01*
X24121903Y-42645064D01*
X24121612Y-42645685D01*
X23845842Y-43191242D01*
X23839051Y-43197080D01*
X23830122Y-43196406D01*
X23824958Y-43191242D01*
X23747378Y-43037767D01*
X23549186Y-42645683D01*
X23548513Y-42636756D01*
X23548737Y-42636134D01*
X23698877Y-42255803D01*
X23705103Y-42249367D01*
X23709760Y-42248400D01*
X23961040Y-42248400D01*
X23969313Y-42251827D01*
G37*
%TD.AperFunction*%
%TD*%
%TA.AperFunction,Conductor*%
%TO.N,GND*%
G36*
X43809942Y-38593435D02*
G01*
X43814835Y-38600935D01*
X43815035Y-38603062D01*
X43816000Y-38989029D01*
X43815035Y-39374937D01*
X43811587Y-39383202D01*
X43803306Y-39386608D01*
X43801179Y-39386408D01*
X43024544Y-39240789D01*
X43017044Y-39235896D01*
X43015000Y-39229289D01*
X43015000Y-38748710D01*
X43018427Y-38740437D01*
X43024542Y-38737210D01*
X43801180Y-38591591D01*
X43809942Y-38593435D01*
G37*
%TD.AperFunction*%
%TD*%
%TA.AperFunction,Conductor*%
%TO.N,GND*%
G36*
X43016122Y-38541854D02*
G01*
X43577132Y-38736273D01*
X43583826Y-38742219D01*
X43585000Y-38747327D01*
X43585000Y-39230672D01*
X43581573Y-39238945D01*
X43577131Y-39241727D01*
X43016122Y-39436145D01*
X43007183Y-39435616D01*
X43002795Y-39431925D01*
X42688919Y-38995835D01*
X42686867Y-38987118D01*
X42688919Y-38982165D01*
X43002795Y-38546073D01*
X43010409Y-38541361D01*
X43016122Y-38541854D01*
G37*
%TD.AperFunction*%
%TD*%
%TA.AperFunction,Conductor*%
%TO.N,/HSE_OUT*%
G36*
X42631653Y-32078805D02*
G01*
X42983292Y-32440081D01*
X42986607Y-32448400D01*
X42983535Y-32456146D01*
X42643833Y-32826914D01*
X42635717Y-32830699D01*
X42631035Y-32829941D01*
X42122528Y-32635873D01*
X42116021Y-32629722D01*
X42115000Y-32624942D01*
X42115000Y-32389571D01*
X42118427Y-32381298D01*
X42120612Y-32379580D01*
X42617181Y-32076974D01*
X42626029Y-32075596D01*
X42631653Y-32078805D01*
G37*
%TD.AperFunction*%
%TD*%
%TA.AperFunction,Conductor*%
%TO.N,/HSE_OUT*%
G36*
X37341812Y-32358534D02*
G01*
X37551593Y-32381843D01*
X37559436Y-32386162D01*
X37562000Y-32393471D01*
X37562000Y-32622528D01*
X37558573Y-32630801D01*
X37551592Y-32634156D01*
X37368737Y-32654473D01*
X37366154Y-32654474D01*
X37361657Y-32653974D01*
X37361648Y-32653973D01*
X37355916Y-32653498D01*
X37355918Y-32653498D01*
X37352818Y-32653329D01*
X37349595Y-32653153D01*
X37349603Y-32653153D01*
X37349587Y-32653152D01*
X37349577Y-32653152D01*
X37343974Y-32652999D01*
X37330400Y-32652999D01*
X37330399Y-32652999D01*
X37319571Y-32653599D01*
X37316344Y-32653329D01*
X36723979Y-32519411D01*
X36716665Y-32514244D01*
X36715147Y-32505419D01*
X36720314Y-32498105D01*
X36723973Y-32496589D01*
X37333518Y-32358787D01*
X37336099Y-32358499D01*
X37341171Y-32358499D01*
X37341812Y-32358534D01*
G37*
%TD.AperFunction*%
%TD*%
%TA.AperFunction,Conductor*%
%TO.N,Net-(C109-Pad1)*%
G36*
X44348828Y-30190896D02*
G01*
X44661680Y-30625565D01*
X44663732Y-30634282D01*
X44661680Y-30639235D01*
X44348828Y-31073903D01*
X44341214Y-31078616D01*
X44333591Y-31077263D01*
X43771559Y-30760755D01*
X43766032Y-30753709D01*
X43765600Y-30750560D01*
X43765600Y-30514239D01*
X43769027Y-30505966D01*
X43771559Y-30504044D01*
X44333593Y-30187535D01*
X44342481Y-30186463D01*
X44348828Y-30190896D01*
G37*
%TD.AperFunction*%
%TD*%
%TA.AperFunction,Conductor*%
%TO.N,Net-(C109-Pad1)*%
G36*
X43855399Y-30505649D02*
G01*
X43862923Y-30510504D01*
X43865000Y-30517159D01*
X43865000Y-30751855D01*
X43861573Y-30760128D01*
X43860708Y-30760911D01*
X43423706Y-31118406D01*
X43415133Y-31120992D01*
X43409201Y-31118651D01*
X43219780Y-30974106D01*
X42997866Y-30804765D01*
X42993368Y-30797022D01*
X42995333Y-30788820D01*
X43260709Y-30404218D01*
X43268226Y-30399357D01*
X43272431Y-30399355D01*
X43855399Y-30505649D01*
G37*
%TD.AperFunction*%
%TD*%
%TA.AperFunction,Conductor*%
%TO.N,/HSE_IN*%
G36*
X47050696Y-34241348D02*
G01*
X47639328Y-34796537D01*
X47642995Y-34804705D01*
X47643000Y-34805047D01*
X47643000Y-35043703D01*
X47639573Y-35051976D01*
X47637745Y-35053468D01*
X47051549Y-35440407D01*
X47042757Y-35442104D01*
X47036276Y-35438320D01*
X46449689Y-34763841D01*
X46446846Y-34755352D01*
X46450839Y-34747338D01*
X47035006Y-34241017D01*
X47043501Y-34238189D01*
X47050696Y-34241348D01*
G37*
%TD.AperFunction*%
%TD*%
%TA.AperFunction,Conductor*%
%TO.N,/HSE_IN*%
G36*
X47866581Y-34537827D02*
G01*
X48192401Y-34956211D01*
X48194781Y-34964844D01*
X48192401Y-34970589D01*
X47867205Y-35388171D01*
X47859418Y-35392593D01*
X47852044Y-35391068D01*
X47277770Y-35053392D01*
X47272375Y-35046244D01*
X47272000Y-35043306D01*
X47272000Y-34807512D01*
X47275427Y-34799239D01*
X47278828Y-34796875D01*
X47852482Y-34534376D01*
X47861431Y-34534051D01*
X47866581Y-34537827D01*
G37*
%TD.AperFunction*%
%TD*%
%TA.AperFunction,Conductor*%
%TO.N,/HSE_IN*%
G36*
X37341812Y-32858534D02*
G01*
X37551593Y-32881843D01*
X37559436Y-32886162D01*
X37562000Y-32893471D01*
X37562000Y-33122528D01*
X37558573Y-33130801D01*
X37551592Y-33134156D01*
X37368737Y-33154473D01*
X37366154Y-33154474D01*
X37361657Y-33153974D01*
X37361648Y-33153973D01*
X37355916Y-33153498D01*
X37355918Y-33153498D01*
X37352818Y-33153329D01*
X37349595Y-33153153D01*
X37349603Y-33153153D01*
X37349587Y-33153152D01*
X37349577Y-33153152D01*
X37343974Y-33152999D01*
X37330400Y-33152999D01*
X37330399Y-33152999D01*
X37319571Y-33153599D01*
X37316344Y-33153329D01*
X36723979Y-33019411D01*
X36716665Y-33014244D01*
X36715147Y-33005419D01*
X36720314Y-32998105D01*
X36723973Y-32996589D01*
X37333519Y-32858786D01*
X37336097Y-32858499D01*
X37341171Y-32858499D01*
X37341812Y-32858534D01*
G37*
%TD.AperFunction*%
%TD*%
%TA.AperFunction,Conductor*%
%TO.N,/HSE_IN*%
G36*
X46570049Y-33870798D02*
G01*
X47027635Y-34049016D01*
X47034101Y-34055211D01*
X47034291Y-34064164D01*
X47032278Y-34067526D01*
X46451889Y-34745614D01*
X46443906Y-34749671D01*
X46435392Y-34746895D01*
X46434111Y-34745614D01*
X45853721Y-34067526D01*
X45850945Y-34059012D01*
X45855002Y-34051029D01*
X45858364Y-34049016D01*
X46315951Y-33870798D01*
X46320197Y-33870000D01*
X46565803Y-33870000D01*
X46570049Y-33870798D01*
G37*
%TD.AperFunction*%
%TD*%
%TA.AperFunction,Conductor*%
%TO.N,/RGB_LED*%
G36*
X34771893Y-28141314D02*
G01*
X34773411Y-28144979D01*
X34911212Y-28754518D01*
X34911500Y-28757098D01*
X34911500Y-28762171D01*
X34911464Y-28762817D01*
X34888156Y-28972592D01*
X34883837Y-28980436D01*
X34876528Y-28983000D01*
X34647472Y-28983000D01*
X34639199Y-28979573D01*
X34635844Y-28972592D01*
X34628672Y-28908047D01*
X34612533Y-28762805D01*
X34612499Y-28762196D01*
X34612499Y-28757085D01*
X34612787Y-28754518D01*
X34750588Y-28144976D01*
X34755754Y-28137665D01*
X34764579Y-28136147D01*
X34771893Y-28141314D01*
G37*
%TD.AperFunction*%
%TD*%
%TA.AperFunction,Conductor*%
%TO.N,/RGB_LED*%
G36*
X32311696Y-30120890D02*
G01*
X32923437Y-30352141D01*
X32929964Y-30358272D01*
X32931000Y-30363085D01*
X32931000Y-30596914D01*
X32927573Y-30605187D01*
X32923437Y-30607858D01*
X32294655Y-30845551D01*
X32285705Y-30845271D01*
X32279719Y-30839109D01*
X32183306Y-30607858D01*
X32131875Y-30484499D01*
X32131855Y-30475550D01*
X32279719Y-30120889D01*
X32286066Y-30114572D01*
X32294654Y-30114448D01*
X32311696Y-30120890D01*
G37*
%TD.AperFunction*%
%TD*%
%TA.AperFunction,Conductor*%
%TO.N,GND*%
G36*
X44991098Y-35533185D02*
G01*
X44994412Y-35539835D01*
X45102138Y-36308710D01*
X45099892Y-36317378D01*
X45092174Y-36321920D01*
X45090580Y-36322033D01*
X44706355Y-36322994D01*
X44701824Y-36322093D01*
X44614724Y-36285779D01*
X44343720Y-36172792D01*
X44337402Y-36166445D01*
X44336866Y-36159178D01*
X44490796Y-35538640D01*
X44496114Y-35531436D01*
X44502152Y-35529758D01*
X44982825Y-35529758D01*
X44991098Y-35533185D01*
G37*
%TD.AperFunction*%
%TD*%
%TA.AperFunction,Conductor*%
%TO.N,GND*%
G36*
X44750608Y-34763104D02*
G01*
X44751889Y-34764385D01*
X45337591Y-35448681D01*
X45340367Y-35457195D01*
X45338808Y-35462184D01*
X44996386Y-36049195D01*
X44989258Y-36054615D01*
X44986280Y-36055000D01*
X44499720Y-36055000D01*
X44491447Y-36051573D01*
X44489614Y-36049195D01*
X44147191Y-35462184D01*
X44145982Y-35453311D01*
X44148407Y-35448682D01*
X44734111Y-34764384D01*
X44742094Y-34760328D01*
X44750608Y-34763104D01*
G37*
%TD.AperFunction*%
%TD*%
%TA.AperFunction,Conductor*%
%TO.N,GND*%
G36*
X43174563Y-36795427D02*
G01*
X43177790Y-36801544D01*
X43323408Y-37578179D01*
X43321564Y-37586942D01*
X43314064Y-37591835D01*
X43311937Y-37592035D01*
X42926000Y-37592999D01*
X42540062Y-37592035D01*
X42531797Y-37588587D01*
X42528391Y-37580306D01*
X42528591Y-37578179D01*
X42674210Y-36801544D01*
X42679103Y-36794044D01*
X42685710Y-36792000D01*
X43166290Y-36792000D01*
X43174563Y-36795427D01*
G37*
%TD.AperFunction*%
%TD*%
%TA.AperFunction,Conductor*%
%TO.N,GND*%
G36*
X42932834Y-36465919D02*
G01*
X43368925Y-36779794D01*
X43373638Y-36787408D01*
X43373145Y-36793121D01*
X43178727Y-37354131D01*
X43172780Y-37360826D01*
X43167672Y-37362000D01*
X42684328Y-37362000D01*
X42676055Y-37358573D01*
X42673273Y-37354131D01*
X42478853Y-36793121D01*
X42479382Y-36784182D01*
X42483071Y-36779795D01*
X42919166Y-36465918D01*
X42927881Y-36463867D01*
X42932834Y-36465919D01*
G37*
%TD.AperFunction*%
%TD*%
%TA.AperFunction,Conductor*%
%TO.N,GND*%
G36*
X48191942Y-31862435D02*
G01*
X48196835Y-31869935D01*
X48197035Y-31872062D01*
X48198000Y-32258029D01*
X48197035Y-32643937D01*
X48193587Y-32652202D01*
X48185306Y-32655608D01*
X48183179Y-32655408D01*
X47406544Y-32509789D01*
X47399044Y-32504896D01*
X47397000Y-32498289D01*
X47397000Y-32017710D01*
X47400427Y-32009437D01*
X47406542Y-32006210D01*
X48183180Y-31860591D01*
X48191942Y-31862435D01*
G37*
%TD.AperFunction*%
%TD*%
%TA.AperFunction,Conductor*%
%TO.N,GND*%
G36*
X47041834Y-31972696D02*
G01*
X47045208Y-31979930D01*
X47073977Y-32304737D01*
X47074000Y-32305254D01*
X47074000Y-32804745D01*
X47073977Y-32805262D01*
X47045208Y-33130069D01*
X47041065Y-33138008D01*
X47032522Y-33140691D01*
X47025288Y-33137317D01*
X46692679Y-32805262D01*
X46450292Y-32563278D01*
X46446859Y-32555010D01*
X46450278Y-32546735D01*
X47025288Y-31972681D01*
X47033564Y-31969262D01*
X47041834Y-31972696D01*
G37*
%TD.AperFunction*%
%TD*%
%TA.AperFunction,Conductor*%
%TO.N,GND*%
G36*
X48582939Y-32257964D02*
G01*
X48591202Y-32261412D01*
X48594608Y-32269693D01*
X48594408Y-32271820D01*
X48448790Y-33048456D01*
X48443897Y-33055956D01*
X48437290Y-33058000D01*
X47956710Y-33058000D01*
X47948437Y-33054573D01*
X47945210Y-33048456D01*
X47799591Y-32271820D01*
X47801435Y-32263057D01*
X47808935Y-32258164D01*
X47811052Y-32257964D01*
X48197000Y-32257000D01*
X48582939Y-32257964D01*
G37*
%TD.AperFunction*%
%TD*%
%TA.AperFunction,Conductor*%
%TO.N,GND*%
G36*
X48446945Y-32516827D02*
G01*
X48449727Y-32521269D01*
X48644145Y-33082277D01*
X48643616Y-33091216D01*
X48639925Y-33095604D01*
X48203834Y-33409480D01*
X48195117Y-33411532D01*
X48190164Y-33409480D01*
X47754073Y-33095604D01*
X47749360Y-33087990D01*
X47749853Y-33082277D01*
X47944273Y-32521269D01*
X47950220Y-32514574D01*
X47955328Y-32513400D01*
X48438672Y-32513400D01*
X48446945Y-32516827D01*
G37*
%TD.AperFunction*%
%TD*%
%TA.AperFunction,Conductor*%
%TO.N,GND*%
G36*
X47365942Y-30236835D02*
G01*
X47370835Y-30244335D01*
X47371035Y-30246462D01*
X47372000Y-30632429D01*
X47371035Y-31018337D01*
X47367587Y-31026602D01*
X47359306Y-31030008D01*
X47357179Y-31029808D01*
X46580544Y-30884189D01*
X46573044Y-30879296D01*
X46571000Y-30872689D01*
X46571000Y-30392110D01*
X46574427Y-30383837D01*
X46580542Y-30380610D01*
X47357180Y-30234991D01*
X47365942Y-30236835D01*
G37*
%TD.AperFunction*%
%TD*%
%TA.AperFunction,Conductor*%
%TO.N,GND*%
G36*
X46546722Y-30185254D02*
G01*
X47107732Y-30379673D01*
X47114426Y-30385619D01*
X47115600Y-30390727D01*
X47115600Y-30874072D01*
X47112173Y-30882345D01*
X47107731Y-30885127D01*
X46546722Y-31079545D01*
X46537783Y-31079016D01*
X46533395Y-31075325D01*
X46219519Y-30639235D01*
X46217467Y-30630518D01*
X46219519Y-30625565D01*
X46533395Y-30189473D01*
X46541009Y-30184761D01*
X46546722Y-30185254D01*
G37*
%TD.AperFunction*%
%TD*%
%TA.AperFunction,Conductor*%
%TO.N,/LSE_IN*%
G36*
X40902771Y-37451743D02*
G01*
X40902789Y-37451758D01*
X41454103Y-37938407D01*
X41458037Y-37946452D01*
X41456254Y-37953424D01*
X41149443Y-38439545D01*
X41142130Y-38444712D01*
X41139549Y-38445000D01*
X40901269Y-38445000D01*
X40892996Y-38441573D01*
X40892507Y-38441053D01*
X40460393Y-37952727D01*
X40457477Y-37944261D01*
X40460366Y-37937251D01*
X40886259Y-37452804D01*
X40894295Y-37448854D01*
X40902771Y-37451743D01*
G37*
%TD.AperFunction*%
%TD*%
%TA.AperFunction,Conductor*%
%TO.N,/LSE_IN*%
G36*
X41148295Y-38067427D02*
G01*
X41149503Y-38068844D01*
X41513447Y-38572086D01*
X41515518Y-38580798D01*
X41512505Y-38586940D01*
X41142301Y-38982204D01*
X41134145Y-38985900D01*
X41126573Y-38983437D01*
X40708627Y-38657958D01*
X40704205Y-38650171D01*
X40704702Y-38645072D01*
X40893352Y-38072041D01*
X40899195Y-38065255D01*
X40904466Y-38064000D01*
X41140022Y-38064000D01*
X41148295Y-38067427D01*
G37*
%TD.AperFunction*%
%TD*%
%TA.AperFunction,Conductor*%
%TO.N,/LSE_OUT*%
G36*
X41800064Y-34449548D02*
G01*
X42289319Y-34816489D01*
X42289320Y-34816490D01*
X42293882Y-34824195D01*
X42294000Y-34825850D01*
X42294000Y-35064149D01*
X42290573Y-35072422D01*
X42289320Y-35073509D01*
X41800066Y-35440450D01*
X41791391Y-35442672D01*
X41787369Y-35441320D01*
X40911434Y-34955230D01*
X40905863Y-34948220D01*
X40906881Y-34939323D01*
X40911434Y-34934770D01*
X41107708Y-34825850D01*
X41787370Y-34448678D01*
X41796266Y-34447661D01*
X41800064Y-34449548D01*
G37*
%TD.AperFunction*%
%TD*%
%TA.AperFunction,Conductor*%
%TO.N,/LSE_OUT*%
G36*
X42596161Y-34487172D02*
G01*
X42921401Y-34904810D01*
X42923781Y-34913443D01*
X42921401Y-34919188D01*
X42595625Y-35337515D01*
X42587838Y-35341937D01*
X42581445Y-35340928D01*
X42007751Y-35073151D01*
X42001704Y-35066547D01*
X42001000Y-35062549D01*
X42001000Y-34826746D01*
X42004427Y-34818473D01*
X42006839Y-34816620D01*
X42581072Y-34484234D01*
X42589946Y-34483056D01*
X42596161Y-34487172D01*
G37*
%TD.AperFunction*%
%TD*%
%TA.AperFunction,Conductor*%
%TO.N,/LSE_OUT*%
G36*
X37341812Y-33358534D02*
G01*
X37551593Y-33381843D01*
X37559436Y-33386162D01*
X37562000Y-33393471D01*
X37562000Y-33622528D01*
X37558573Y-33630801D01*
X37551592Y-33634156D01*
X37368737Y-33654473D01*
X37366154Y-33654474D01*
X37361657Y-33653974D01*
X37361648Y-33653973D01*
X37355916Y-33653498D01*
X37355918Y-33653498D01*
X37352818Y-33653329D01*
X37349595Y-33653153D01*
X37349603Y-33653153D01*
X37349587Y-33653152D01*
X37349577Y-33653152D01*
X37343974Y-33652999D01*
X37330400Y-33652999D01*
X37330399Y-33652999D01*
X37319571Y-33653599D01*
X37316344Y-33653329D01*
X36723979Y-33519411D01*
X36716665Y-33514244D01*
X36715147Y-33505419D01*
X36720314Y-33498105D01*
X36723973Y-33496589D01*
X37333519Y-33358786D01*
X37336097Y-33358499D01*
X37341171Y-33358499D01*
X37341812Y-33358534D01*
G37*
%TD.AperFunction*%
%TD*%
%TA.AperFunction,Conductor*%
%TO.N,/LSE_OUT*%
G36*
X41021145Y-34290886D02*
G01*
X41377822Y-34438313D01*
X41384158Y-34444639D01*
X41384165Y-34453594D01*
X41381633Y-34457390D01*
X40902281Y-34937702D01*
X40894012Y-34941137D01*
X40885735Y-34937718D01*
X40885719Y-34937702D01*
X40406366Y-34457390D01*
X40402947Y-34449113D01*
X40406382Y-34440844D01*
X40410173Y-34438314D01*
X40766854Y-34290886D01*
X40771323Y-34290000D01*
X41016677Y-34290000D01*
X41021145Y-34290886D01*
G37*
%TD.AperFunction*%
%TD*%
%TA.AperFunction,Conductor*%
%TO.N,/LSE_IN*%
G36*
X37341812Y-33858534D02*
G01*
X37551593Y-33881843D01*
X37559436Y-33886162D01*
X37562000Y-33893471D01*
X37562000Y-34122528D01*
X37558573Y-34130801D01*
X37551592Y-34134156D01*
X37383778Y-34152802D01*
X37341822Y-34157464D01*
X37341179Y-34157500D01*
X37336094Y-34157500D01*
X37333514Y-34157212D01*
X36723979Y-34019411D01*
X36716665Y-34014244D01*
X36715147Y-34005419D01*
X36720314Y-33998105D01*
X36723973Y-33996589D01*
X37333519Y-33858786D01*
X37336097Y-33858499D01*
X37341171Y-33858499D01*
X37341812Y-33858534D01*
G37*
%TD.AperFunction*%
%TD*%
%TA.AperFunction,Conductor*%
%TO.N,/LSE_IN*%
G36*
X40005997Y-36951658D02*
G01*
X40876565Y-37434770D01*
X40882136Y-37441780D01*
X40881118Y-37450677D01*
X40876565Y-37455230D01*
X40005997Y-37938341D01*
X39997100Y-37939359D01*
X39990090Y-37933788D01*
X39989323Y-37932106D01*
X39858701Y-37571932D01*
X39858000Y-37567943D01*
X39858000Y-37322056D01*
X39858701Y-37318067D01*
X39989322Y-36957897D01*
X39995363Y-36951290D01*
X40004309Y-36950889D01*
X40005997Y-36951658D01*
G37*
%TD.AperFunction*%
%TD*%
%TA.AperFunction,Conductor*%
%TO.N,Net-(C109-Pad1)*%
G36*
X44673054Y-30637205D02*
G01*
X45091584Y-30963139D01*
X45096006Y-30970926D01*
X45095290Y-30976634D01*
X44870910Y-31549964D01*
X44864704Y-31556419D01*
X44860015Y-31557400D01*
X44624330Y-31557400D01*
X44616057Y-31553973D01*
X44614537Y-31552103D01*
X44249251Y-30993421D01*
X44247592Y-30984621D01*
X44251532Y-30978048D01*
X44658355Y-30637464D01*
X44666898Y-30634782D01*
X44673054Y-30637205D01*
G37*
%TD.AperFunction*%
%TD*%
%TA.AperFunction,Conductor*%
%TO.N,Net-(C109-Pad1)*%
G36*
X44870613Y-31258427D02*
G01*
X44871513Y-31259438D01*
X45337020Y-31847447D01*
X45339469Y-31856060D01*
X45336736Y-31862317D01*
X44751889Y-32545614D01*
X44743906Y-32549671D01*
X44735392Y-32546895D01*
X44734111Y-32545614D01*
X44149263Y-31862317D01*
X44146487Y-31853803D01*
X44148979Y-31847447D01*
X44614487Y-31259438D01*
X44622309Y-31255078D01*
X44623660Y-31255000D01*
X44862340Y-31255000D01*
X44870613Y-31258427D01*
G37*
%TD.AperFunction*%
%TD*%
%TA.AperFunction,Conductor*%
%TO.N,/BAT+*%
G36*
X51697673Y-36330006D02*
G01*
X51698827Y-36331160D01*
X52338286Y-37067178D01*
X52683309Y-37464299D01*
X52686148Y-37472791D01*
X52683282Y-37479676D01*
X51818496Y-38468004D01*
X51810469Y-38471974D01*
X51809691Y-38472000D01*
X51570309Y-38472000D01*
X51562036Y-38468573D01*
X51561504Y-38468005D01*
X51561504Y-38468004D01*
X50696716Y-37479676D01*
X50693848Y-37471194D01*
X50696689Y-37464300D01*
X51681168Y-36331164D01*
X51689181Y-36327167D01*
X51697673Y-36330006D01*
G37*
%TD.AperFunction*%
%TD*%
%TA.AperFunction,Conductor*%
%TO.N,/BAT+*%
G36*
X49974375Y-42131939D02*
G01*
X50285591Y-42289750D01*
X50291420Y-42296548D01*
X50292000Y-42300185D01*
X50292000Y-42535814D01*
X50288573Y-42544087D01*
X50285591Y-42546249D01*
X49974375Y-42704060D01*
X49965447Y-42704745D01*
X49964311Y-42704307D01*
X49347408Y-42428682D01*
X49341253Y-42422179D01*
X49341499Y-42413227D01*
X49347408Y-42407318D01*
X49964313Y-42131691D01*
X49973263Y-42131446D01*
X49974375Y-42131939D01*
G37*
%TD.AperFunction*%
%TD*%
%TA.AperFunction,Conductor*%
%TO.N,/VBAT*%
G36*
X43050418Y-46448179D02*
G01*
X43053300Y-46450287D01*
X43934712Y-47330722D01*
X43938143Y-47338994D01*
X43934721Y-47347269D01*
X43934712Y-47347278D01*
X43053300Y-48227712D01*
X43045025Y-48231134D01*
X43036753Y-48227703D01*
X43034645Y-48224821D01*
X42641314Y-47466533D01*
X42640000Y-47461146D01*
X42640000Y-47216853D01*
X42641314Y-47211466D01*
X43034646Y-46453176D01*
X43041496Y-46447412D01*
X43050418Y-46448179D01*
G37*
%TD.AperFunction*%
%TD*%
%TA.AperFunction,Conductor*%
%TO.N,/VBAT*%
G36*
X40548967Y-40248899D02*
G01*
X40876393Y-40498488D01*
X40880895Y-40506229D01*
X40881000Y-40507793D01*
X40881000Y-40746206D01*
X40877573Y-40754479D01*
X40876393Y-40755511D01*
X40548967Y-41005100D01*
X40540310Y-41007390D01*
X40533876Y-41004334D01*
X40140117Y-40635539D01*
X40136421Y-40627383D01*
X40139576Y-40619002D01*
X40140117Y-40618461D01*
X40268211Y-40498488D01*
X40533877Y-40249664D01*
X40542257Y-40246510D01*
X40548967Y-40248899D01*
G37*
%TD.AperFunction*%
%TD*%
%TA.AperFunction,Conductor*%
%TO.N,+3V3*%
G36*
X47441234Y-41466283D02*
G01*
X47449071Y-41470613D01*
X47451504Y-41476229D01*
X47492287Y-41757155D01*
X47490084Y-41765835D01*
X47483143Y-41770280D01*
X46682859Y-41940585D01*
X46674054Y-41938955D01*
X46672151Y-41937414D01*
X46334335Y-41599598D01*
X46330908Y-41591325D01*
X46334335Y-41583052D01*
X46337163Y-41580970D01*
X46708821Y-41385928D01*
X46715565Y-41384662D01*
X47441234Y-41466283D01*
G37*
%TD.AperFunction*%
%TD*%
%TA.AperFunction,Conductor*%
%TO.N,+3V3*%
G36*
X44841721Y-42455815D02*
G01*
X44845047Y-42462584D01*
X44925952Y-43088630D01*
X44926000Y-43089381D01*
X44926000Y-43588618D01*
X44925952Y-43589369D01*
X44845047Y-44215415D01*
X44840588Y-44223180D01*
X44831943Y-44225519D01*
X44825174Y-44222193D01*
X44818388Y-44215415D01*
X43949286Y-43347277D01*
X43945856Y-43339006D01*
X43949278Y-43330731D01*
X43949287Y-43330722D01*
X44190896Y-43089381D01*
X44825176Y-42455805D01*
X44833449Y-42452384D01*
X44841721Y-42455815D01*
G37*
%TD.AperFunction*%
%TD*%
%TA.AperFunction,Conductor*%
%TO.N,/VBAT*%
G36*
X47457758Y-43375285D02*
G01*
X47677382Y-43595642D01*
X47743144Y-43661623D01*
X47746557Y-43669901D01*
X47744963Y-43675777D01*
X47577886Y-43962195D01*
X47570758Y-43967615D01*
X47567780Y-43968000D01*
X47331220Y-43968000D01*
X47322947Y-43964573D01*
X47321114Y-43962195D01*
X47270990Y-43876269D01*
X47154035Y-43675775D01*
X47152827Y-43666904D01*
X47155853Y-43661624D01*
X47441214Y-43375313D01*
X47449481Y-43371873D01*
X47457758Y-43375285D01*
G37*
%TD.AperFunction*%
%TD*%
%TA.AperFunction,Conductor*%
%TO.N,/VBAT*%
G36*
X44850224Y-46446082D02*
G01*
X45737934Y-47210499D01*
X45741967Y-47218494D01*
X45741999Y-47219365D01*
X45741999Y-47458634D01*
X45738572Y-47466907D01*
X45737934Y-47467500D01*
X44850224Y-48231917D01*
X44841718Y-48234719D01*
X44834320Y-48231329D01*
X43949287Y-47347278D01*
X43945856Y-47339006D01*
X43949278Y-47330731D01*
X43949287Y-47330722D01*
X44066139Y-47214000D01*
X44834322Y-46446668D01*
X44842595Y-46443248D01*
X44850224Y-46446082D01*
G37*
%TD.AperFunction*%
%TD*%
%TA.AperFunction,Conductor*%
%TO.N,+3V3*%
G36*
X44327939Y-41147964D02*
G01*
X44336202Y-41151412D01*
X44339608Y-41159693D01*
X44339408Y-41161820D01*
X44193790Y-41938456D01*
X44188897Y-41945956D01*
X44182290Y-41948000D01*
X43701710Y-41948000D01*
X43693437Y-41944573D01*
X43690210Y-41938456D01*
X43544591Y-41161820D01*
X43546435Y-41153057D01*
X43553935Y-41148164D01*
X43556052Y-41147964D01*
X43942000Y-41147000D01*
X44327939Y-41147964D01*
G37*
%TD.AperFunction*%
%TD*%
%TA.AperFunction,Conductor*%
%TO.N,+3V3*%
G36*
X44193640Y-41192427D02*
G01*
X44195406Y-41194692D01*
X44818788Y-42236341D01*
X44820096Y-42245200D01*
X44817870Y-42249676D01*
X43951121Y-43328645D01*
X43943269Y-43332949D01*
X43934673Y-43330439D01*
X43932879Y-43328645D01*
X43066129Y-42249676D01*
X43063619Y-42241080D01*
X43065209Y-42236344D01*
X43688593Y-41194692D01*
X43695782Y-41189353D01*
X43698633Y-41189000D01*
X44185367Y-41189000D01*
X44193640Y-41192427D01*
G37*
%TD.AperFunction*%
%TD*%
%TA.AperFunction,Conductor*%
%TO.N,GND*%
G36*
X39249019Y-42050054D02*
G01*
X39256416Y-42055102D01*
X39258324Y-42061506D01*
X39258324Y-42295227D01*
X39254897Y-42303500D01*
X39252451Y-42305373D01*
X38645588Y-42653937D01*
X38636708Y-42655086D01*
X38629615Y-42649618D01*
X38628962Y-42648293D01*
X38484586Y-42302000D01*
X38481875Y-42295499D01*
X38481855Y-42286550D01*
X38630350Y-41930376D01*
X38636696Y-41924060D01*
X38643541Y-41923428D01*
X39249019Y-42050054D01*
G37*
%TD.AperFunction*%
%TD*%
%TA.AperFunction,Conductor*%
%TO.N,GND*%
G36*
X39801895Y-41751830D02*
G01*
X40127401Y-42169811D01*
X40129781Y-42178444D01*
X40127401Y-42184189D01*
X39801895Y-42602169D01*
X39794108Y-42606591D01*
X39787243Y-42605349D01*
X39213279Y-42305282D01*
X39207535Y-42298412D01*
X39207000Y-42294913D01*
X39207000Y-42059086D01*
X39210427Y-42050813D01*
X39213277Y-42048718D01*
X39787244Y-41748649D01*
X39796163Y-41747854D01*
X39801895Y-41751830D01*
G37*
%TD.AperFunction*%
%TD*%
%TA.AperFunction,Conductor*%
%TO.N,GND*%
G36*
X10171045Y-33369013D02*
G01*
X10173783Y-33373329D01*
X10398788Y-33999453D01*
X10398361Y-34008398D01*
X10392279Y-34014209D01*
X10037502Y-34162123D01*
X10028548Y-34162144D01*
X10028498Y-34162123D01*
X9674089Y-34014363D01*
X9667771Y-34008016D01*
X9667727Y-33999221D01*
X9918059Y-33372943D01*
X9924311Y-33366533D01*
X9928923Y-33365586D01*
X10162772Y-33365586D01*
X10171045Y-33369013D01*
G37*
%TD.AperFunction*%
%TD*%
%TA.AperFunction,Conductor*%
%TO.N,GND*%
G36*
X10053187Y-33024597D02*
G01*
X10471169Y-33350104D01*
X10475591Y-33357891D01*
X10474349Y-33364756D01*
X10174283Y-33938721D01*
X10167413Y-33944465D01*
X10163914Y-33945000D01*
X9928086Y-33945000D01*
X9919813Y-33941573D01*
X9917717Y-33938721D01*
X9617650Y-33364756D01*
X9616854Y-33355836D01*
X9620828Y-33350106D01*
X10038811Y-33024597D01*
X10047444Y-33022218D01*
X10053187Y-33024597D01*
G37*
%TD.AperFunction*%
%TD*%
%TA.AperFunction,Conductor*%
%TO.N,GND*%
G36*
X26650718Y-42719000D02*
G01*
X26654571Y-42722853D01*
X26764139Y-42901448D01*
X26841610Y-43027727D01*
X26843015Y-43036571D01*
X26842592Y-43037953D01*
X26772447Y-43225008D01*
X26766334Y-43231551D01*
X26761492Y-43232600D01*
X26527708Y-43232600D01*
X26519435Y-43229173D01*
X26516753Y-43225008D01*
X26446607Y-43037953D01*
X26446911Y-43029004D01*
X26447585Y-43027733D01*
X26634628Y-42722854D01*
X26641874Y-42717595D01*
X26650718Y-42719000D01*
G37*
%TD.AperFunction*%
%TD*%
%TA.AperFunction,Conductor*%
%TO.N,GND*%
G36*
X29995094Y-34142728D02*
G01*
X30001080Y-34148890D01*
X30148923Y-34503498D01*
X30148944Y-34512452D01*
X30148923Y-34512502D01*
X30001080Y-34867109D01*
X29994733Y-34873427D01*
X29986144Y-34873551D01*
X29357363Y-34635858D01*
X29350836Y-34629727D01*
X29349800Y-34624914D01*
X29349800Y-34391085D01*
X29353227Y-34382812D01*
X29357363Y-34380141D01*
X29986145Y-34142448D01*
X29995094Y-34142728D01*
G37*
%TD.AperFunction*%
%TD*%
%TA.AperFunction,Conductor*%
%TO.N,GND*%
G36*
X29016812Y-34358534D02*
G01*
X29226593Y-34381843D01*
X29234436Y-34386162D01*
X29237000Y-34393471D01*
X29237000Y-34622528D01*
X29233573Y-34630801D01*
X29226592Y-34634156D01*
X29058778Y-34652802D01*
X29016822Y-34657464D01*
X29016179Y-34657500D01*
X29011094Y-34657500D01*
X29008514Y-34657212D01*
X28398979Y-34519411D01*
X28391665Y-34514244D01*
X28390147Y-34505419D01*
X28395314Y-34498105D01*
X28398973Y-34496589D01*
X29008519Y-34358786D01*
X29011097Y-34358499D01*
X29016171Y-34358499D01*
X29016812Y-34358534D01*
G37*
%TD.AperFunction*%
%TD*%
%TA.AperFunction,Conductor*%
%TO.N,GND*%
G36*
X59362696Y-15261890D02*
G01*
X59974437Y-15493141D01*
X59980964Y-15499272D01*
X59982000Y-15504085D01*
X59982000Y-15737914D01*
X59978573Y-15746187D01*
X59974437Y-15748858D01*
X59345655Y-15986551D01*
X59336705Y-15986271D01*
X59330719Y-15980109D01*
X59234306Y-15748858D01*
X59182875Y-15625499D01*
X59182855Y-15616550D01*
X59330719Y-15261889D01*
X59337066Y-15255572D01*
X59345654Y-15255448D01*
X59362696Y-15261890D01*
G37*
%TD.AperFunction*%
%TD*%
%TA.AperFunction,Conductor*%
%TO.N,GND*%
G36*
X60387737Y-15237752D02*
G01*
X60757588Y-15502083D01*
X60868986Y-15581699D01*
X60873724Y-15589298D01*
X60871702Y-15598021D01*
X60869194Y-15600585D01*
X60387224Y-15961340D01*
X60378547Y-15963554D01*
X60374293Y-15962065D01*
X60011780Y-15749390D01*
X60006378Y-15742247D01*
X60006000Y-15739298D01*
X60006000Y-15502083D01*
X60009427Y-15493810D01*
X60010975Y-15492509D01*
X60374219Y-15237693D01*
X60382958Y-15235748D01*
X60387737Y-15237752D01*
G37*
%TD.AperFunction*%
%TD*%
%TA.AperFunction,Conductor*%
%TO.N,GND*%
G36*
X67939306Y-38024931D02*
G01*
X67942330Y-38030161D01*
X68060999Y-38471053D01*
X68108688Y-38648230D01*
X68107529Y-38657110D01*
X68101892Y-38662070D01*
X67743975Y-38811293D01*
X67739444Y-38812194D01*
X67355012Y-38811233D01*
X67346747Y-38807785D01*
X67343341Y-38799504D01*
X67343430Y-38798089D01*
X67360345Y-38662070D01*
X67438724Y-38031760D01*
X67443147Y-38023973D01*
X67450336Y-38021504D01*
X67931033Y-38021504D01*
X67939306Y-38024931D01*
G37*
%TD.AperFunction*%
%TD*%
%TA.AperFunction,Conductor*%
%TO.N,GND*%
G36*
X67697673Y-36330006D02*
G01*
X67698827Y-36331160D01*
X68683802Y-37464866D01*
X68686641Y-37473358D01*
X68684330Y-37479559D01*
X67943510Y-38467320D01*
X67935805Y-38471882D01*
X67934150Y-38472000D01*
X67445850Y-38472000D01*
X67437577Y-38468573D01*
X67436490Y-38467320D01*
X66695669Y-37479559D01*
X66693447Y-37470884D01*
X66696195Y-37464868D01*
X67681168Y-36331164D01*
X67689181Y-36327167D01*
X67697673Y-36330006D01*
G37*
%TD.AperFunction*%
%TD*%
%TA.AperFunction,Conductor*%
%TO.N,GND*%
G36*
X43962342Y-28636635D02*
G01*
X43967235Y-28644135D01*
X43967435Y-28646262D01*
X43968400Y-29032229D01*
X43967435Y-29418137D01*
X43963987Y-29426402D01*
X43955706Y-29429808D01*
X43953579Y-29429608D01*
X43176944Y-29283989D01*
X43169444Y-29279096D01*
X43167400Y-29272489D01*
X43167400Y-28791910D01*
X43170827Y-28783637D01*
X43176942Y-28780410D01*
X43953580Y-28634791D01*
X43962342Y-28636635D01*
G37*
%TD.AperFunction*%
%TD*%
%TA.AperFunction,Conductor*%
%TO.N,GND*%
G36*
X43143122Y-28585054D02*
G01*
X43704132Y-28779473D01*
X43710826Y-28785419D01*
X43712000Y-28790527D01*
X43712000Y-29273872D01*
X43708573Y-29282145D01*
X43704131Y-29284927D01*
X43143122Y-29479345D01*
X43134183Y-29478816D01*
X43129795Y-29475125D01*
X42815919Y-29039035D01*
X42813867Y-29030318D01*
X42815919Y-29025365D01*
X43129795Y-28589273D01*
X43137409Y-28584561D01*
X43143122Y-28585054D01*
G37*
%TD.AperFunction*%
%TD*%
%TA.AperFunction,Conductor*%
%TO.N,GND*%
G36*
X35664440Y-31380065D02*
G01*
X35670859Y-31386309D01*
X35671813Y-31390936D01*
X35671813Y-31624782D01*
X35668386Y-31633055D01*
X35664084Y-31635788D01*
X35543988Y-31679118D01*
X35538998Y-31679768D01*
X35528299Y-31678832D01*
X35527193Y-31678736D01*
X35527192Y-31678736D01*
X35485722Y-31689847D01*
X35485224Y-31689958D01*
X35442955Y-31697412D01*
X35431692Y-31703913D01*
X35428872Y-31705081D01*
X35416318Y-31708445D01*
X35416311Y-31708448D01*
X35381157Y-31733063D01*
X35380727Y-31733337D01*
X35359986Y-31745311D01*
X35358107Y-31746184D01*
X35037754Y-31861770D01*
X35028809Y-31861354D01*
X35022985Y-31855267D01*
X34875075Y-31500499D01*
X34875055Y-31491550D01*
X35022843Y-31137072D01*
X35029189Y-31130756D01*
X35037968Y-31130705D01*
X35664440Y-31380065D01*
G37*
%TD.AperFunction*%
%TD*%
%TA.AperFunction,Conductor*%
%TO.N,GND*%
G36*
X36015477Y-31358786D02*
G01*
X36625023Y-31496588D01*
X36632335Y-31501754D01*
X36633853Y-31510579D01*
X36628686Y-31517893D01*
X36625021Y-31519411D01*
X36032654Y-31653330D01*
X36029423Y-31653600D01*
X36018654Y-31652999D01*
X36018641Y-31652999D01*
X36004917Y-31652999D01*
X36004891Y-31652999D01*
X35999180Y-31653159D01*
X35994843Y-31653403D01*
X35992869Y-31653514D01*
X35992863Y-31653514D01*
X35992836Y-31653516D01*
X35987327Y-31653976D01*
X35982843Y-31654474D01*
X35980262Y-31654473D01*
X35797408Y-31634156D01*
X35789564Y-31629837D01*
X35787000Y-31622528D01*
X35787000Y-31393471D01*
X35790427Y-31385198D01*
X35797406Y-31381843D01*
X36007196Y-31358533D01*
X36007801Y-31358499D01*
X36012913Y-31358499D01*
X36015477Y-31358786D01*
G37*
%TD.AperFunction*%
%TD*%
%TA.AperFunction,Conductor*%
%TO.N,GND*%
G36*
X24869790Y-48648486D02*
G01*
X24876108Y-48654833D01*
X24876103Y-48663749D01*
X24618187Y-49288527D01*
X24611862Y-49294867D01*
X24607372Y-49295763D01*
X24373516Y-49295763D01*
X24365243Y-49292336D01*
X24362466Y-49287909D01*
X24145069Y-48663375D01*
X24145586Y-48654437D01*
X24151614Y-48648734D01*
X24506500Y-48500775D01*
X24515449Y-48500755D01*
X24869790Y-48648486D01*
G37*
%TD.AperFunction*%
%TD*%
%TA.AperFunction,Conductor*%
%TO.N,GND*%
G36*
X24615365Y-48923127D02*
G01*
X24618047Y-48927292D01*
X24688824Y-49116031D01*
X24689088Y-49123458D01*
X24501419Y-49757779D01*
X24495786Y-49764740D01*
X24486881Y-49765679D01*
X24479920Y-49760046D01*
X24478981Y-49757779D01*
X24438319Y-49620342D01*
X24291311Y-49123455D01*
X24291574Y-49116033D01*
X24362353Y-48927292D01*
X24368467Y-48920749D01*
X24373308Y-48919700D01*
X24607092Y-48919700D01*
X24615365Y-48923127D01*
G37*
%TD.AperFunction*%
%TD*%
%TA.AperFunction,Conductor*%
%TO.N,GND*%
G36*
X21054294Y-36947328D02*
G01*
X21060280Y-36953490D01*
X21208123Y-37308098D01*
X21208144Y-37317052D01*
X21208123Y-37317102D01*
X21060280Y-37671709D01*
X21053933Y-37678027D01*
X21045344Y-37678151D01*
X20416563Y-37440458D01*
X20410036Y-37434327D01*
X20409000Y-37429514D01*
X20409000Y-37195685D01*
X20412427Y-37187412D01*
X20416563Y-37184741D01*
X21045345Y-36947048D01*
X21054294Y-36947328D01*
G37*
%TD.AperFunction*%
%TD*%
%TA.AperFunction,Conductor*%
%TO.N,GND*%
G36*
X20125780Y-36928166D02*
G01*
X20125790Y-36928170D01*
X20140841Y-36934462D01*
X20739161Y-37184595D01*
X20745472Y-37190948D01*
X20746348Y-37195390D01*
X20746348Y-37429201D01*
X20742921Y-37437474D01*
X20738390Y-37440286D01*
X20125326Y-37647255D01*
X20116392Y-37646655D01*
X20110785Y-37640673D01*
X19965276Y-37291701D01*
X19965256Y-37282748D01*
X20110479Y-36934460D01*
X20116825Y-36928145D01*
X20125780Y-36928166D01*
G37*
%TD.AperFunction*%
%TD*%
%TA.AperFunction,Conductor*%
%TO.N,GND*%
G36*
X58646649Y-24145442D02*
G01*
X58652041Y-24151316D01*
X58731836Y-24342709D01*
X58800123Y-24506497D01*
X58800144Y-24515451D01*
X58800123Y-24515501D01*
X58652562Y-24869433D01*
X58646215Y-24875751D01*
X58637261Y-24875730D01*
X58636949Y-24875595D01*
X58016559Y-24595508D01*
X58010428Y-24588980D01*
X58009673Y-24584844D01*
X58009673Y-24350982D01*
X58013100Y-24342709D01*
X58017856Y-24339823D01*
X58637730Y-24144658D01*
X58646649Y-24145442D01*
G37*
%TD.AperFunction*%
%TD*%
%TA.AperFunction,Conductor*%
%TO.N,GND*%
G36*
X57840373Y-24072549D02*
G01*
X57843990Y-24074771D01*
X58274026Y-24338975D01*
X58279280Y-24346225D01*
X58279600Y-24348943D01*
X58279600Y-24585856D01*
X58276173Y-24594129D01*
X58274025Y-24595825D01*
X57840373Y-24862250D01*
X57831530Y-24863661D01*
X57825480Y-24860028D01*
X57485444Y-24475147D01*
X57482534Y-24466678D01*
X57485444Y-24459653D01*
X57825481Y-24074770D01*
X57833526Y-24070840D01*
X57840373Y-24072549D01*
G37*
%TD.AperFunction*%
%TD*%
%TA.AperFunction,Conductor*%
%TO.N,GND*%
G36*
X18901419Y-17802276D02*
G01*
X18901707Y-17802914D01*
X19025994Y-18101023D01*
X19049123Y-18156497D01*
X19049144Y-18165451D01*
X19049123Y-18165501D01*
X18900917Y-18520980D01*
X18894570Y-18527298D01*
X18886945Y-18527740D01*
X18862949Y-18520980D01*
X18683087Y-18470309D01*
X18271655Y-18354402D01*
X18264621Y-18348860D01*
X18263128Y-18343140D01*
X18263128Y-18109296D01*
X18266555Y-18101023D01*
X18269677Y-18098790D01*
X18885765Y-17796916D01*
X18894701Y-17796355D01*
X18901419Y-17802276D01*
G37*
%TD.AperFunction*%
%TD*%
%TA.AperFunction,Conductor*%
%TO.N,GND*%
G36*
X18349368Y-17940486D02*
G01*
X18350233Y-17940847D01*
X18729800Y-18099000D01*
X18736119Y-18105345D01*
X18737000Y-18109800D01*
X18737000Y-18344199D01*
X18733573Y-18352472D01*
X18729800Y-18354999D01*
X18349374Y-18513510D01*
X18340419Y-18513529D01*
X18339596Y-18513152D01*
X17794157Y-18237442D01*
X17788319Y-18230651D01*
X17788993Y-18221722D01*
X17794157Y-18216558D01*
X18339597Y-17940846D01*
X18348525Y-17940173D01*
X18349368Y-17940486D01*
G37*
%TD.AperFunction*%
%TD*%
%TA.AperFunction,Conductor*%
%TO.N,GND*%
G36*
X22346942Y-28941435D02*
G01*
X22351835Y-28948935D01*
X22352035Y-28951062D01*
X22353000Y-29337029D01*
X22352035Y-29722937D01*
X22348587Y-29731202D01*
X22340306Y-29734608D01*
X22338179Y-29734408D01*
X21561544Y-29588789D01*
X21554044Y-29583896D01*
X21552000Y-29577289D01*
X21552000Y-29096710D01*
X21555427Y-29088437D01*
X21561542Y-29085210D01*
X22338180Y-28939591D01*
X22346942Y-28941435D01*
G37*
%TD.AperFunction*%
%TD*%
%TA.AperFunction,Conductor*%
%TO.N,GND*%
G36*
X21446079Y-28559181D02*
G01*
X22346191Y-29083615D01*
X22351613Y-29090740D01*
X22352000Y-29093723D01*
X22352000Y-29580276D01*
X22348573Y-29588549D01*
X22346190Y-29590385D01*
X21446079Y-30114818D01*
X21437206Y-30116022D01*
X21435048Y-30115219D01*
X19865487Y-29347510D01*
X19859561Y-29340797D01*
X19860118Y-29331859D01*
X19865487Y-29326490D01*
X21435048Y-28558779D01*
X21443986Y-28558223D01*
X21446079Y-28559181D01*
G37*
%TD.AperFunction*%
%TD*%
%TA.AperFunction,Conductor*%
%TO.N,GND*%
G36*
X30384801Y-27211427D02*
G01*
X30388156Y-27218408D01*
X30408473Y-27401263D01*
X30408474Y-27403844D01*
X30408174Y-27406548D01*
X30407980Y-27408296D01*
X30407979Y-27408309D01*
X30407511Y-27413928D01*
X30407156Y-27420279D01*
X30406999Y-27425936D01*
X30406999Y-27439629D01*
X30407600Y-27450421D01*
X30407330Y-27453651D01*
X30273411Y-28046020D01*
X30268244Y-28053334D01*
X30259419Y-28054852D01*
X30252105Y-28049685D01*
X30250588Y-28046024D01*
X30116667Y-27453647D01*
X30116398Y-27450423D01*
X30117000Y-27439616D01*
X30117000Y-27425959D01*
X30117000Y-27425940D01*
X30116999Y-27425887D01*
X30116842Y-27420270D01*
X30116841Y-27420250D01*
X30116841Y-27420241D01*
X30116488Y-27413918D01*
X30116019Y-27408287D01*
X30115525Y-27403841D01*
X30115525Y-27401275D01*
X30135844Y-27218408D01*
X30140163Y-27210564D01*
X30147472Y-27208000D01*
X30376528Y-27208000D01*
X30384801Y-27211427D01*
G37*
%TD.AperFunction*%
%TD*%
%TA.AperFunction,Conductor*%
%TO.N,GND*%
G36*
X35918496Y-39201690D02*
G01*
X36530237Y-39432941D01*
X36536764Y-39439072D01*
X36537800Y-39443885D01*
X36537800Y-39677714D01*
X36534373Y-39685987D01*
X36530237Y-39688658D01*
X35901455Y-39926351D01*
X35892505Y-39926071D01*
X35886519Y-39919909D01*
X35790106Y-39688658D01*
X35738675Y-39565299D01*
X35738655Y-39556350D01*
X35886519Y-39201689D01*
X35892866Y-39195372D01*
X35901454Y-39195248D01*
X35918496Y-39201690D01*
G37*
%TD.AperFunction*%
%TD*%
%TA.AperFunction,Conductor*%
%TO.N,GND*%
G36*
X36499894Y-39135629D02*
G01*
X36739173Y-39442886D01*
X36825401Y-39553610D01*
X36827781Y-39562243D01*
X36825401Y-39567988D01*
X36499895Y-39985969D01*
X36492108Y-39990391D01*
X36485243Y-39989149D01*
X35911279Y-39689082D01*
X35905535Y-39682212D01*
X35905000Y-39678713D01*
X35905000Y-39442886D01*
X35908427Y-39434613D01*
X35911277Y-39432518D01*
X36485244Y-39132449D01*
X36494163Y-39131654D01*
X36499894Y-39135629D01*
G37*
%TD.AperFunction*%
%TD*%
%TA.AperFunction,Conductor*%
%TO.N,GND*%
G36*
X59307188Y-14824427D02*
G01*
X59309859Y-14828563D01*
X59547551Y-15457344D01*
X59547271Y-15466294D01*
X59541109Y-15472280D01*
X59186502Y-15620123D01*
X59177548Y-15620144D01*
X59177498Y-15620123D01*
X58822890Y-15472280D01*
X58816572Y-15465933D01*
X58816448Y-15457345D01*
X59054141Y-14828562D01*
X59060272Y-14822036D01*
X59065085Y-14821000D01*
X59298915Y-14821000D01*
X59307188Y-14824427D01*
G37*
%TD.AperFunction*%
%TD*%
%TA.AperFunction,Conductor*%
%TO.N,GND*%
G36*
X59188834Y-14494919D02*
G01*
X59623503Y-14807770D01*
X59628216Y-14815384D01*
X59626863Y-14823007D01*
X59310356Y-15385041D01*
X59303310Y-15390568D01*
X59300161Y-15391000D01*
X59063839Y-15391000D01*
X59055566Y-15387573D01*
X59053644Y-15385041D01*
X58737135Y-14823007D01*
X58736062Y-14814117D01*
X58740493Y-14807772D01*
X59175166Y-14494918D01*
X59183881Y-14492867D01*
X59188834Y-14494919D01*
G37*
%TD.AperFunction*%
%TD*%
%TA.AperFunction,Conductor*%
%TO.N,GND*%
G36*
X34771893Y-36466313D02*
G01*
X34773411Y-36469978D01*
X34907330Y-37062344D01*
X34907600Y-37065574D01*
X34906999Y-37076356D01*
X34906999Y-37090088D01*
X34907156Y-37095709D01*
X34907157Y-37095752D01*
X34907158Y-37095785D01*
X34907159Y-37095790D01*
X34907510Y-37102076D01*
X34907979Y-37107697D01*
X34908250Y-37110132D01*
X34908474Y-37112152D01*
X34908473Y-37114734D01*
X34888156Y-37297592D01*
X34883837Y-37305436D01*
X34876528Y-37308000D01*
X34647472Y-37308000D01*
X34639199Y-37304573D01*
X34635844Y-37297592D01*
X34628672Y-37233048D01*
X34612533Y-37087805D01*
X34612499Y-37087196D01*
X34612499Y-37082085D01*
X34612785Y-37079523D01*
X34750588Y-36469975D01*
X34755754Y-36462664D01*
X34764579Y-36461146D01*
X34771893Y-36466313D01*
G37*
%TD.AperFunction*%
%TD*%
%TA.AperFunction,Conductor*%
%TO.N,GND*%
G36*
X40304742Y-45908435D02*
G01*
X40309635Y-45915935D01*
X40309835Y-45918062D01*
X40310800Y-46304029D01*
X40309835Y-46689937D01*
X40306387Y-46698202D01*
X40298106Y-46701608D01*
X40295979Y-46701408D01*
X39519344Y-46555789D01*
X39511844Y-46550896D01*
X39509800Y-46544289D01*
X39509800Y-46063710D01*
X39513227Y-46055437D01*
X39519342Y-46052210D01*
X40295980Y-45906591D01*
X40304742Y-45908435D01*
G37*
%TD.AperFunction*%
%TD*%
%TA.AperFunction,Conductor*%
%TO.N,GND*%
G36*
X58646649Y-19598842D02*
G01*
X58652041Y-19604716D01*
X58800123Y-19959898D01*
X58800144Y-19968852D01*
X58800123Y-19968902D01*
X58652562Y-20322833D01*
X58646215Y-20329151D01*
X58637261Y-20329130D01*
X58636949Y-20328995D01*
X58016559Y-20048908D01*
X58010428Y-20042380D01*
X58009673Y-20038244D01*
X58009673Y-19804382D01*
X58013100Y-19796109D01*
X58017856Y-19793223D01*
X58637730Y-19598058D01*
X58646649Y-19598842D01*
G37*
%TD.AperFunction*%
%TD*%
%TA.AperFunction,Conductor*%
%TO.N,GND*%
G36*
X57829973Y-19525949D02*
G01*
X58263624Y-19792374D01*
X58268879Y-19799625D01*
X58269199Y-19802343D01*
X58269199Y-20039256D01*
X58265772Y-20047529D01*
X58263624Y-20049225D01*
X57829973Y-20315650D01*
X57821130Y-20317061D01*
X57815080Y-20313428D01*
X57475044Y-19928547D01*
X57472134Y-19920078D01*
X57475044Y-19913053D01*
X57815081Y-19528170D01*
X57823126Y-19524240D01*
X57829973Y-19525949D01*
G37*
%TD.AperFunction*%
%TD*%
%TA.AperFunction,Conductor*%
%TO.N,GND*%
G36*
X24991729Y-43957386D02*
G01*
X24996988Y-43963189D01*
X25145123Y-44318498D01*
X25145144Y-44327452D01*
X25145123Y-44327502D01*
X24996988Y-44682810D01*
X24990641Y-44689128D01*
X24982820Y-44689512D01*
X24354331Y-44500505D01*
X24347395Y-44494841D01*
X24346000Y-44489301D01*
X24346000Y-44156698D01*
X24349427Y-44148425D01*
X24354328Y-44145495D01*
X24982821Y-43956487D01*
X24991729Y-43957386D01*
G37*
%TD.AperFunction*%
%TD*%
%TA.AperFunction,Conductor*%
%TO.N,GND*%
G36*
X24948175Y-51750017D02*
G01*
X25193779Y-51913753D01*
X25684990Y-52241227D01*
X25689973Y-52248666D01*
X25690200Y-52250961D01*
X25690200Y-52738438D01*
X25686773Y-52746711D01*
X25684990Y-52748173D01*
X24948175Y-53239382D01*
X24939390Y-53241120D01*
X24933417Y-53237926D01*
X24197490Y-52502979D01*
X24194058Y-52494708D01*
X24197479Y-52486432D01*
X24197490Y-52486421D01*
X24443012Y-52241226D01*
X24933418Y-51751472D01*
X24941693Y-51748052D01*
X24948175Y-51750017D01*
G37*
%TD.AperFunction*%
%TD*%
%TA.AperFunction,Conductor*%
%TO.N,GND*%
G36*
X26155608Y-51901471D02*
G01*
X26684120Y-52486860D01*
X26687121Y-52495297D01*
X26684120Y-52502541D01*
X26155608Y-53087929D01*
X26147521Y-53091773D01*
X26141438Y-53090422D01*
X25496414Y-52747998D01*
X25490713Y-52741092D01*
X25490200Y-52737664D01*
X25490200Y-52251735D01*
X25493627Y-52243462D01*
X25496414Y-52241401D01*
X26141439Y-51898976D01*
X26150352Y-51898124D01*
X26155608Y-51901471D01*
G37*
%TD.AperFunction*%
%TD*%
%TA.AperFunction,Conductor*%
%TO.N,GND*%
G36*
X18514294Y-21351728D02*
G01*
X18520280Y-21357890D01*
X18668123Y-21712498D01*
X18668144Y-21721452D01*
X18668123Y-21721502D01*
X18520280Y-22076109D01*
X18513933Y-22082427D01*
X18505344Y-22082551D01*
X17876563Y-21844858D01*
X17870036Y-21838727D01*
X17869000Y-21833914D01*
X17869000Y-21600085D01*
X17872427Y-21591812D01*
X17876563Y-21589141D01*
X18505345Y-21351448D01*
X18514294Y-21351728D01*
G37*
%TD.AperFunction*%
%TD*%
%TA.AperFunction,Conductor*%
%TO.N,GND*%
G36*
X17744006Y-21272135D02*
G01*
X17749974Y-21275496D01*
X18306041Y-21588644D01*
X18311568Y-21595690D01*
X18312000Y-21598839D01*
X18312000Y-21835160D01*
X18308573Y-21843433D01*
X18306041Y-21845355D01*
X17744008Y-22161863D01*
X17735118Y-22162936D01*
X17728771Y-22158503D01*
X17502000Y-21843433D01*
X17415918Y-21723834D01*
X17413867Y-21715118D01*
X17415919Y-21710165D01*
X17496046Y-21598839D01*
X17728772Y-21275494D01*
X17736385Y-21270783D01*
X17744006Y-21272135D01*
G37*
%TD.AperFunction*%
%TD*%
%TA.AperFunction,Conductor*%
%TO.N,GND*%
G36*
X58653494Y-21790728D02*
G01*
X58659480Y-21796890D01*
X58807323Y-22151498D01*
X58807344Y-22160452D01*
X58807323Y-22160502D01*
X58659480Y-22515109D01*
X58653133Y-22521427D01*
X58644544Y-22521551D01*
X58015763Y-22283858D01*
X58009236Y-22277727D01*
X58008200Y-22272914D01*
X58008200Y-22039085D01*
X58011627Y-22030812D01*
X58015763Y-22028141D01*
X58644545Y-21790448D01*
X58653494Y-21790728D01*
G37*
%TD.AperFunction*%
%TD*%
%TA.AperFunction,Conductor*%
%TO.N,GND*%
G36*
X57890773Y-21761149D02*
G01*
X58324424Y-22027574D01*
X58329679Y-22034825D01*
X58329999Y-22037543D01*
X58329999Y-22274456D01*
X58326572Y-22282729D01*
X58324424Y-22284425D01*
X57890773Y-22550850D01*
X57881930Y-22552261D01*
X57875880Y-22548628D01*
X57535844Y-22163747D01*
X57532934Y-22155278D01*
X57535844Y-22148253D01*
X57875881Y-21763370D01*
X57883926Y-21759440D01*
X57890773Y-21761149D01*
G37*
%TD.AperFunction*%
%TD*%
%TA.AperFunction,Conductor*%
%TO.N,GND*%
G36*
X61387881Y-15220587D02*
G01*
X61750790Y-15462527D01*
X61755773Y-15469966D01*
X61756000Y-15472261D01*
X61756000Y-15709738D01*
X61752573Y-15718011D01*
X61750790Y-15719473D01*
X61387880Y-15961412D01*
X61379095Y-15963150D01*
X61374379Y-15961044D01*
X60892514Y-15600367D01*
X60887944Y-15592666D01*
X60890158Y-15583989D01*
X60892514Y-15581633D01*
X61041701Y-15469966D01*
X61374380Y-15220954D01*
X61383056Y-15218741D01*
X61387881Y-15220587D01*
G37*
%TD.AperFunction*%
%TD*%
%TA.AperFunction,Conductor*%
%TO.N,GND*%
G36*
X66387619Y-15220954D02*
G01*
X66869485Y-15581632D01*
X66874055Y-15589333D01*
X66871841Y-15598010D01*
X66869485Y-15600366D01*
X66387620Y-15961044D01*
X66378943Y-15963258D01*
X66374119Y-15961412D01*
X66011210Y-15719473D01*
X66006227Y-15712033D01*
X66006000Y-15709738D01*
X66006000Y-15472261D01*
X66009427Y-15463988D01*
X66011205Y-15462529D01*
X66374119Y-15220586D01*
X66382904Y-15218849D01*
X66387619Y-15220954D01*
G37*
%TD.AperFunction*%
%TD*%
%TA.AperFunction,Conductor*%
%TO.N,GND*%
G36*
X10138109Y-38248719D02*
G01*
X10144427Y-38255066D01*
X10144551Y-38263655D01*
X9906859Y-38892437D01*
X9900728Y-38898964D01*
X9895915Y-38900000D01*
X9662085Y-38900000D01*
X9653812Y-38896573D01*
X9651141Y-38892437D01*
X9413448Y-38263655D01*
X9413728Y-38254705D01*
X9419889Y-38248719D01*
X9774500Y-38100875D01*
X9783449Y-38100855D01*
X10138109Y-38248719D01*
G37*
%TD.AperFunction*%
%TD*%
%TA.AperFunction,Conductor*%
%TO.N,GND*%
G36*
X9905434Y-38282627D02*
G01*
X9907356Y-38285159D01*
X10223863Y-38847191D01*
X10224936Y-38856081D01*
X10220503Y-38862428D01*
X9785835Y-39175280D01*
X9777118Y-39177332D01*
X9772165Y-39175280D01*
X9337496Y-38862428D01*
X9332783Y-38854814D01*
X9334135Y-38847193D01*
X9650644Y-38285158D01*
X9657690Y-38279632D01*
X9660839Y-38279200D01*
X9897161Y-38279200D01*
X9905434Y-38282627D01*
G37*
%TD.AperFunction*%
%TD*%
%TA.AperFunction,Conductor*%
%TO.N,GND*%
G36*
X25642240Y-24037143D02*
G01*
X26416295Y-24170130D01*
X26423869Y-24174908D01*
X26426014Y-24181661D01*
X26426014Y-24662261D01*
X26422587Y-24670534D01*
X26416672Y-24673721D01*
X25791118Y-24802408D01*
X25782324Y-24800718D01*
X25777962Y-24795451D01*
X25628505Y-24436971D01*
X25627605Y-24432448D01*
X25628565Y-24048645D01*
X25632013Y-24040381D01*
X25640294Y-24036975D01*
X25642240Y-24037143D01*
G37*
%TD.AperFunction*%
%TD*%
%TA.AperFunction,Conductor*%
%TO.N,GND*%
G36*
X26417188Y-23992147D02*
G01*
X26420972Y-23995312D01*
X26747505Y-24414611D01*
X26749885Y-24423244D01*
X26747505Y-24428989D01*
X26420972Y-24848287D01*
X26413185Y-24852709D01*
X26408271Y-24852272D01*
X25835334Y-24674355D01*
X25828450Y-24668628D01*
X25827104Y-24663181D01*
X25827104Y-24180418D01*
X25830531Y-24172145D01*
X25835332Y-24169244D01*
X26408271Y-23991327D01*
X26417188Y-23992147D01*
G37*
%TD.AperFunction*%
%TD*%
%TA.AperFunction,Conductor*%
%TO.N,GND*%
G36*
X21448478Y-51752968D02*
G01*
X21448560Y-51753049D01*
X22182909Y-52486421D01*
X22186341Y-52494692D01*
X22182920Y-52502968D01*
X22182909Y-52502979D01*
X21448560Y-53236350D01*
X21440284Y-53239771D01*
X21432013Y-53236339D01*
X21432002Y-53236328D01*
X21241528Y-53041808D01*
X20953940Y-52748110D01*
X20950600Y-52739924D01*
X20950600Y-52249475D01*
X20953940Y-52241289D01*
X21431934Y-51753140D01*
X21440169Y-51749629D01*
X21448478Y-51752968D01*
G37*
%TD.AperFunction*%
%TD*%
%TA.AperFunction,Conductor*%
%TO.N,GND*%
G36*
X39380042Y-45807427D02*
G01*
X39382234Y-45810468D01*
X39500236Y-46046473D01*
X39500871Y-46055405D01*
X39498061Y-46059962D01*
X39262289Y-46296676D01*
X39254022Y-46300119D01*
X39245742Y-46296709D01*
X39245709Y-46296676D01*
X39009938Y-46059962D01*
X39006528Y-46051682D01*
X39007762Y-46046474D01*
X39125766Y-45810468D01*
X39132531Y-45804600D01*
X39136231Y-45804000D01*
X39371769Y-45804000D01*
X39380042Y-45807427D01*
G37*
%TD.AperFunction*%
%TD*%
%TA.AperFunction,Conductor*%
%TO.N,GND*%
G36*
X39262256Y-43911290D02*
G01*
X39262289Y-43911323D01*
X39498061Y-44148037D01*
X39501471Y-44156317D01*
X39500236Y-44161526D01*
X39382234Y-44397532D01*
X39375469Y-44403400D01*
X39371769Y-44404000D01*
X39136231Y-44404000D01*
X39127958Y-44400573D01*
X39125766Y-44397532D01*
X39007763Y-44161526D01*
X39007128Y-44152594D01*
X39009935Y-44148040D01*
X39245710Y-43911322D01*
X39253976Y-43907880D01*
X39262256Y-43911290D01*
G37*
%TD.AperFunction*%
%TD*%
%TA.AperFunction,Conductor*%
%TO.N,GND*%
G36*
X24697230Y-49597336D02*
G01*
X24882607Y-49666852D01*
X24882608Y-49666853D01*
X24889151Y-49672967D01*
X24890200Y-49677808D01*
X24890200Y-49911591D01*
X24886773Y-49919864D01*
X24882608Y-49922546D01*
X24697234Y-49992062D01*
X24688285Y-49991758D01*
X24684875Y-49989402D01*
X24497534Y-49802993D01*
X24494087Y-49794729D01*
X24497493Y-49786448D01*
X24684877Y-49599996D01*
X24693155Y-49596592D01*
X24697230Y-49597336D01*
G37*
%TD.AperFunction*%
%TD*%
%TA.AperFunction,Conductor*%
%TO.N,GND*%
G36*
X25417190Y-49135854D02*
G01*
X25417920Y-49137312D01*
X25689333Y-49790209D01*
X25689344Y-49799164D01*
X25689333Y-49799191D01*
X25417920Y-50452087D01*
X25411580Y-50458411D01*
X25402625Y-50458400D01*
X25401167Y-50457670D01*
X25391713Y-50452087D01*
X24495951Y-49923096D01*
X24490569Y-49915939D01*
X24490200Y-49913022D01*
X24490200Y-49676377D01*
X24493627Y-49668104D01*
X24495946Y-49666306D01*
X25401169Y-49131728D01*
X25410033Y-49130472D01*
X25417190Y-49135854D01*
G37*
%TD.AperFunction*%
%TD*%
%TA.AperFunction,Conductor*%
%TO.N,GND*%
G36*
X28068188Y-23992147D02*
G01*
X28071972Y-23995312D01*
X28398505Y-24414610D01*
X28400885Y-24423243D01*
X28398505Y-24428988D01*
X28071972Y-24848287D01*
X28064185Y-24852709D01*
X28059271Y-24852272D01*
X27486334Y-24674355D01*
X27479450Y-24668628D01*
X27478104Y-24663181D01*
X27478104Y-24180418D01*
X27481531Y-24172145D01*
X27486332Y-24169244D01*
X28059271Y-23991327D01*
X28068188Y-23992147D01*
G37*
%TD.AperFunction*%
%TD*%
%TA.AperFunction,Conductor*%
%TO.N,GND*%
G36*
X27095936Y-23991327D02*
G01*
X27108769Y-23995312D01*
X27668874Y-24169244D01*
X27675758Y-24174971D01*
X27677104Y-24180418D01*
X27677104Y-24663181D01*
X27673677Y-24671454D01*
X27668874Y-24674355D01*
X27095936Y-24852272D01*
X27087019Y-24851452D01*
X27083235Y-24848287D01*
X26939082Y-24663181D01*
X26756701Y-24428988D01*
X26754322Y-24420356D01*
X26756701Y-24414612D01*
X27083236Y-23995311D01*
X27091022Y-23990890D01*
X27095936Y-23991327D01*
G37*
%TD.AperFunction*%
%TD*%
%TA.AperFunction,Conductor*%
%TO.N,GND*%
G36*
X26885871Y-43392852D02*
G01*
X27498560Y-43669393D01*
X27504691Y-43675920D01*
X27504567Y-43684509D01*
X27358363Y-44039795D01*
X27352045Y-44046142D01*
X27351995Y-44046163D01*
X26996709Y-44192367D01*
X26987755Y-44192346D01*
X26981593Y-44186360D01*
X26917476Y-44044307D01*
X26755079Y-43684509D01*
X26705052Y-43573671D01*
X26704772Y-43564721D01*
X26707441Y-43560587D01*
X26872786Y-43395242D01*
X26881058Y-43391816D01*
X26885871Y-43392852D01*
G37*
%TD.AperFunction*%
%TD*%
%TA.AperFunction,Conductor*%
%TO.N,GND*%
G36*
X30085872Y-25124324D02*
G01*
X30092111Y-25130485D01*
X30347237Y-25721317D01*
X30347371Y-25730271D01*
X30344769Y-25734228D01*
X30179228Y-25899769D01*
X30170955Y-25903196D01*
X30166317Y-25902237D01*
X29575485Y-25647111D01*
X29569248Y-25640686D01*
X29569303Y-25631918D01*
X29715437Y-25276802D01*
X29721753Y-25270457D01*
X30076918Y-25124303D01*
X30085872Y-25124324D01*
G37*
%TD.AperFunction*%
%TD*%
%TA.AperFunction,Conductor*%
%TO.N,GND*%
G36*
X34675713Y-37659142D02*
G01*
X34841055Y-37824484D01*
X34844482Y-37832757D01*
X34843446Y-37837570D01*
X34566905Y-38450259D01*
X34560378Y-38456390D01*
X34551789Y-38456266D01*
X34196503Y-38310062D01*
X34190156Y-38303744D01*
X34190135Y-38303694D01*
X34043931Y-37948408D01*
X34043952Y-37939454D01*
X34049936Y-37933293D01*
X34662627Y-37656750D01*
X34671577Y-37656471D01*
X34675713Y-37659142D01*
G37*
%TD.AperFunction*%
%TD*%
%TA.AperFunction,Conductor*%
%TO.N,+3V3*%
G36*
X24896939Y-26923964D02*
G01*
X24905202Y-26927412D01*
X24908608Y-26935693D01*
X24908408Y-26937820D01*
X24762790Y-27714456D01*
X24757897Y-27721956D01*
X24751290Y-27724000D01*
X24270710Y-27724000D01*
X24262437Y-27720573D01*
X24259210Y-27714456D01*
X24113591Y-26937820D01*
X24115435Y-26929057D01*
X24122935Y-26924164D01*
X24125052Y-26923964D01*
X24511000Y-26923000D01*
X24896939Y-26923964D01*
G37*
%TD.AperFunction*%
%TD*%
%TA.AperFunction,Conductor*%
%TO.N,+3V3*%
G36*
X24760854Y-27207427D02*
G01*
X24763675Y-27211982D01*
X24908536Y-27644253D01*
X24907915Y-27653187D01*
X24905189Y-27656739D01*
X24518747Y-27998155D01*
X24510278Y-28001065D01*
X24503253Y-27998155D01*
X24116810Y-27656739D01*
X24112879Y-27648693D01*
X24113462Y-27644258D01*
X24258325Y-27211981D01*
X24264203Y-27205227D01*
X24269419Y-27204000D01*
X24752581Y-27204000D01*
X24760854Y-27207427D01*
G37*
%TD.AperFunction*%
%TD*%
%TA.AperFunction,Conductor*%
%TO.N,+3V3*%
G36*
X35389038Y-37285815D02*
G01*
X35390477Y-37287564D01*
X35703606Y-37753737D01*
X35705375Y-37762516D01*
X35702182Y-37768520D01*
X35429563Y-38042103D01*
X35421296Y-38045544D01*
X35421246Y-38045544D01*
X35039613Y-38044590D01*
X35031348Y-38041142D01*
X35027942Y-38032861D01*
X35028064Y-38031206D01*
X35047037Y-37900787D01*
X35049025Y-37895774D01*
X35061554Y-37877882D01*
X35064919Y-37865317D01*
X35066085Y-37862504D01*
X35072588Y-37851243D01*
X35080046Y-37808941D01*
X35080147Y-37808487D01*
X35091263Y-37767005D01*
X35087521Y-37724235D01*
X35087500Y-37723740D01*
X35087500Y-37623493D01*
X35087622Y-37621809D01*
X35135543Y-37292404D01*
X35140125Y-37284710D01*
X35147121Y-37282388D01*
X35380765Y-37282388D01*
X35389038Y-37285815D01*
G37*
%TD.AperFunction*%
%TD*%
%TA.AperFunction,Conductor*%
%TO.N,+3V3*%
G36*
X35271893Y-36466313D02*
G01*
X35273411Y-36469978D01*
X35411566Y-37081083D01*
X35411782Y-37084955D01*
X35388156Y-37297592D01*
X35383837Y-37305436D01*
X35376528Y-37308000D01*
X35147472Y-37308000D01*
X35139199Y-37304573D01*
X35135844Y-37297592D01*
X35128672Y-37233048D01*
X35112533Y-37087805D01*
X35112499Y-37087196D01*
X35112499Y-37082085D01*
X35112785Y-37079523D01*
X35250588Y-36469975D01*
X35255754Y-36462664D01*
X35264579Y-36461146D01*
X35271893Y-36466313D01*
G37*
%TD.AperFunction*%
%TD*%
%TA.AperFunction,Conductor*%
%TO.N,+3V3*%
G36*
X28068188Y-25542147D02*
G01*
X28071972Y-25545312D01*
X28398505Y-25964611D01*
X28400885Y-25973244D01*
X28398505Y-25978989D01*
X28071972Y-26398287D01*
X28064185Y-26402709D01*
X28059271Y-26402272D01*
X27486334Y-26224355D01*
X27479450Y-26218628D01*
X27478104Y-26213181D01*
X27478104Y-25730418D01*
X27481531Y-25722145D01*
X27486332Y-25719244D01*
X28059271Y-25541327D01*
X28068188Y-25542147D01*
G37*
%TD.AperFunction*%
%TD*%
%TA.AperFunction,Conductor*%
%TO.N,+3V3*%
G36*
X27095936Y-25541327D02*
G01*
X27108769Y-25545312D01*
X27668874Y-25719244D01*
X27675758Y-25724971D01*
X27677104Y-25730418D01*
X27677104Y-26213181D01*
X27673677Y-26221454D01*
X27668874Y-26224355D01*
X27095936Y-26402272D01*
X27087019Y-26401452D01*
X27083235Y-26398287D01*
X26756702Y-25978988D01*
X26754322Y-25970355D01*
X26756700Y-25964613D01*
X27083236Y-25545311D01*
X27091022Y-25540890D01*
X27095936Y-25541327D01*
G37*
%TD.AperFunction*%
%TD*%
%TA.AperFunction,Conductor*%
%TO.N,+3V3*%
G36*
X52911709Y-18538319D02*
G01*
X52918027Y-18544666D01*
X52918151Y-18553255D01*
X52680459Y-19182037D01*
X52674328Y-19188564D01*
X52669515Y-19189600D01*
X52435685Y-19189600D01*
X52427412Y-19186173D01*
X52424741Y-19182037D01*
X52187048Y-18553255D01*
X52187328Y-18544305D01*
X52193489Y-18538319D01*
X52548100Y-18390475D01*
X52557049Y-18390455D01*
X52911709Y-18538319D01*
G37*
%TD.AperFunction*%
%TD*%
%TA.AperFunction,Conductor*%
%TO.N,+3V3*%
G36*
X52678772Y-19011727D02*
G01*
X52680878Y-19014599D01*
X52971137Y-19572361D01*
X52971916Y-19581282D01*
X52968123Y-19586853D01*
X52562064Y-19915833D01*
X52553479Y-19918378D01*
X52547335Y-19915833D01*
X52141231Y-19586817D01*
X52136961Y-19578947D01*
X52138187Y-19572386D01*
X52424337Y-19014659D01*
X52431163Y-19008863D01*
X52434747Y-19008300D01*
X52670499Y-19008300D01*
X52678772Y-19011727D01*
G37*
%TD.AperFunction*%
%TD*%
%TA.AperFunction,Conductor*%
%TO.N,+3V3*%
G36*
X25685528Y-27622229D02*
G01*
X25688203Y-27624397D01*
X26028758Y-27996096D01*
X26031820Y-28004510D01*
X26028758Y-28011903D01*
X25688206Y-28383599D01*
X25680090Y-28387384D01*
X25676662Y-28387025D01*
X25168783Y-28256261D01*
X25161625Y-28250880D01*
X25160000Y-28244931D01*
X25160000Y-27763068D01*
X25163427Y-27754795D01*
X25168780Y-27751739D01*
X25676664Y-27620974D01*
X25685528Y-27622229D01*
G37*
%TD.AperFunction*%
%TD*%
%TA.AperFunction,Conductor*%
%TO.N,+3V3*%
G36*
X24869331Y-27620973D02*
G01*
X25377218Y-27751738D01*
X25384375Y-27757119D01*
X25386000Y-27763068D01*
X25386000Y-28244931D01*
X25382573Y-28253204D01*
X25377217Y-28256261D01*
X24869337Y-28387025D01*
X24860471Y-28385770D01*
X24857795Y-28383601D01*
X24517240Y-28011902D01*
X24514179Y-28003489D01*
X24517240Y-27996097D01*
X24857795Y-27624398D01*
X24865909Y-27620615D01*
X24869331Y-27620973D01*
G37*
%TD.AperFunction*%
%TD*%
%TA.AperFunction,Conductor*%
%TO.N,+3V3*%
G36*
X28820085Y-25593804D02*
G01*
X29142263Y-25843287D01*
X29146707Y-25851061D01*
X29146800Y-25852537D01*
X29146800Y-26091062D01*
X29143373Y-26099335D01*
X29142263Y-26100313D01*
X28820086Y-26349794D01*
X28811447Y-26352150D01*
X28804925Y-26349082D01*
X28411221Y-25980339D01*
X28407525Y-25972183D01*
X28410680Y-25963802D01*
X28411221Y-25963261D01*
X28539317Y-25843286D01*
X28804926Y-25594516D01*
X28813306Y-25591362D01*
X28820085Y-25593804D01*
G37*
%TD.AperFunction*%
%TD*%
%TA.AperFunction,Conductor*%
%TO.N,+3V3*%
G36*
X5884209Y-39655827D02*
G01*
X5887199Y-39660933D01*
X6094136Y-40396839D01*
X6093077Y-40405731D01*
X6092236Y-40407022D01*
X5355204Y-41390714D01*
X5347501Y-41395280D01*
X5338825Y-41393061D01*
X5336378Y-41390579D01*
X4621494Y-40407390D01*
X4619400Y-40398683D01*
X4619930Y-40396598D01*
X4882032Y-39660176D01*
X4888035Y-39653532D01*
X4893055Y-39652400D01*
X5875936Y-39652400D01*
X5884209Y-39655827D01*
G37*
%TD.AperFunction*%
%TD*%
%TA.AperFunction,Conductor*%
%TO.N,+3V3*%
G36*
X35606818Y-37685447D02*
G01*
X36218559Y-37916698D01*
X36225086Y-37922829D01*
X36226122Y-37927642D01*
X36226122Y-38161471D01*
X36222695Y-38169744D01*
X36218559Y-38172415D01*
X35589777Y-38410108D01*
X35580827Y-38409828D01*
X35574841Y-38403666D01*
X35478428Y-38172415D01*
X35426997Y-38049056D01*
X35426977Y-38040107D01*
X35574841Y-37685446D01*
X35581188Y-37679129D01*
X35589776Y-37679005D01*
X35606818Y-37685447D01*
G37*
%TD.AperFunction*%
%TD*%
%TA.AperFunction,Conductor*%
%TO.N,+3V3*%
G36*
X36500167Y-37585980D02*
G01*
X36825401Y-38003611D01*
X36827781Y-38012244D01*
X36825401Y-38017989D01*
X36499619Y-38436324D01*
X36491832Y-38440746D01*
X36485451Y-38439742D01*
X35911763Y-38172705D01*
X35905708Y-38166107D01*
X35905000Y-38162098D01*
X35905000Y-37926295D01*
X35908427Y-37918022D01*
X35910826Y-37916176D01*
X36485067Y-37583048D01*
X36493941Y-37581861D01*
X36500167Y-37585980D01*
G37*
%TD.AperFunction*%
%TD*%
%TA.AperFunction,Conductor*%
%TO.N,+3V3*%
G36*
X25642417Y-25574390D02*
G01*
X26419057Y-25720010D01*
X26426556Y-25724903D01*
X26428600Y-25731510D01*
X26428600Y-26212089D01*
X26425173Y-26220362D01*
X26419056Y-26223589D01*
X25642420Y-26369208D01*
X25633657Y-26367364D01*
X25628764Y-26359864D01*
X25628564Y-26357746D01*
X25627600Y-25971800D01*
X25628564Y-25585859D01*
X25632012Y-25577597D01*
X25640293Y-25574191D01*
X25642417Y-25574390D01*
G37*
%TD.AperFunction*%
%TD*%
%TA.AperFunction,Conductor*%
%TO.N,+3V3*%
G36*
X26417188Y-25542147D02*
G01*
X26420972Y-25545312D01*
X26747505Y-25964610D01*
X26749885Y-25973243D01*
X26747505Y-25978988D01*
X26420972Y-26398287D01*
X26413185Y-26402709D01*
X26408271Y-26402272D01*
X25835334Y-26224355D01*
X25828450Y-26218628D01*
X25827104Y-26213181D01*
X25827104Y-25730418D01*
X25830531Y-25722145D01*
X25835332Y-25719244D01*
X26408271Y-25541327D01*
X26417188Y-25542147D01*
G37*
%TD.AperFunction*%
%TD*%
%TA.AperFunction,Conductor*%
%TO.N,+3V3*%
G36*
X29884801Y-27211427D02*
G01*
X29888156Y-27218408D01*
X29911464Y-27428173D01*
X29911500Y-27428819D01*
X29911500Y-27433903D01*
X29911212Y-27436483D01*
X29773411Y-28046020D01*
X29768244Y-28053334D01*
X29759419Y-28054852D01*
X29752105Y-28049685D01*
X29750588Y-28046024D01*
X29612432Y-27434915D01*
X29612217Y-27431044D01*
X29612465Y-27428819D01*
X29635844Y-27218408D01*
X29640163Y-27210564D01*
X29647472Y-27208000D01*
X29876528Y-27208000D01*
X29884801Y-27211427D01*
G37*
%TD.AperFunction*%
%TD*%
%TA.AperFunction,Conductor*%
%TO.N,+3.3VA*%
G36*
X40945227Y-28590695D02*
G01*
X41173031Y-28907200D01*
X41258080Y-29025364D01*
X41260132Y-29034081D01*
X41258080Y-29039034D01*
X40945228Y-29473703D01*
X40937614Y-29478416D01*
X40929991Y-29477063D01*
X40367959Y-29160555D01*
X40362432Y-29153509D01*
X40362000Y-29150360D01*
X40362000Y-28914039D01*
X40365427Y-28905766D01*
X40367959Y-28903844D01*
X40929993Y-28587335D01*
X40938881Y-28586263D01*
X40945227Y-28590695D01*
G37*
%TD.AperFunction*%
%TD*%
%TA.AperFunction,Conductor*%
%TO.N,+3.3VA*%
G36*
X37341812Y-30858534D02*
G01*
X37551593Y-30881843D01*
X37559436Y-30886162D01*
X37562000Y-30893471D01*
X37562000Y-31122528D01*
X37558573Y-31130801D01*
X37551592Y-31134156D01*
X37383778Y-31152802D01*
X37341822Y-31157464D01*
X37341179Y-31157500D01*
X37336094Y-31157500D01*
X37333514Y-31157212D01*
X36723979Y-31019411D01*
X36716665Y-31014244D01*
X36715147Y-31005419D01*
X36720314Y-30998105D01*
X36723973Y-30996589D01*
X37333519Y-30858786D01*
X37336097Y-30858499D01*
X37341171Y-30858499D01*
X37341812Y-30858534D01*
G37*
%TD.AperFunction*%
%TD*%
%TA.AperFunction,Conductor*%
%TO.N,/NRST*%
G36*
X59541109Y-11959719D02*
G01*
X59547427Y-11966066D01*
X59547551Y-11974655D01*
X59309859Y-12603437D01*
X59303728Y-12609964D01*
X59298915Y-12611000D01*
X59065085Y-12611000D01*
X59056812Y-12607573D01*
X59054141Y-12603437D01*
X58816448Y-11974655D01*
X58816728Y-11965705D01*
X58822889Y-11959719D01*
X59177500Y-11811875D01*
X59186449Y-11811855D01*
X59541109Y-11959719D01*
G37*
%TD.AperFunction*%
%TD*%
%TA.AperFunction,Conductor*%
%TO.N,/NRST*%
G36*
X59308434Y-12044427D02*
G01*
X59310356Y-12046959D01*
X59626863Y-12608991D01*
X59627936Y-12617881D01*
X59623503Y-12624228D01*
X59188834Y-12937080D01*
X59180117Y-12939132D01*
X59175164Y-12937080D01*
X58740495Y-12624228D01*
X58735782Y-12616614D01*
X58737134Y-12608993D01*
X59053644Y-12046958D01*
X59060690Y-12041432D01*
X59063839Y-12041000D01*
X59300161Y-12041000D01*
X59308434Y-12044427D01*
G37*
%TD.AperFunction*%
%TD*%
%TA.AperFunction,Conductor*%
%TO.N,/NRST*%
G36*
X61387881Y-11470587D02*
G01*
X61750790Y-11712527D01*
X61755773Y-11719966D01*
X61756000Y-11722261D01*
X61756000Y-11959738D01*
X61752573Y-11968011D01*
X61750790Y-11969473D01*
X61387880Y-12211412D01*
X61379095Y-12213150D01*
X61374379Y-12211044D01*
X60892514Y-11850367D01*
X60887944Y-11842666D01*
X60890158Y-11833989D01*
X60892514Y-11831633D01*
X61041701Y-11719966D01*
X61374380Y-11470954D01*
X61383056Y-11468741D01*
X61387881Y-11470587D01*
G37*
%TD.AperFunction*%
%TD*%
%TA.AperFunction,Conductor*%
%TO.N,/NRST*%
G36*
X66387620Y-11470955D02*
G01*
X66869485Y-11831633D01*
X66874055Y-11839334D01*
X66871841Y-11848011D01*
X66869485Y-11850367D01*
X66387620Y-12211044D01*
X66378943Y-12213258D01*
X66374119Y-12211412D01*
X66011210Y-11969473D01*
X66006227Y-11962033D01*
X66006000Y-11959738D01*
X66006000Y-11722261D01*
X66009427Y-11713988D01*
X66011205Y-11712529D01*
X66374119Y-11470586D01*
X66382904Y-11468849D01*
X66387620Y-11470955D01*
G37*
%TD.AperFunction*%
%TD*%
%TA.AperFunction,Conductor*%
%TO.N,/NRST*%
G36*
X25182008Y-42194120D02*
G01*
X25183812Y-42195064D01*
X25783673Y-42579148D01*
X25788792Y-42586495D01*
X25789064Y-42589001D01*
X25789064Y-42822639D01*
X25785637Y-42830912D01*
X25779231Y-42834189D01*
X25032532Y-42954912D01*
X25023818Y-42952850D01*
X25019115Y-42945229D01*
X25018965Y-42943400D01*
X25018005Y-42559450D01*
X25018904Y-42554929D01*
X25166708Y-42200415D01*
X25173054Y-42194099D01*
X25182008Y-42194120D01*
G37*
%TD.AperFunction*%
%TD*%
%TA.AperFunction,Conductor*%
%TO.N,/NRST*%
G36*
X25796514Y-42510541D02*
G01*
X25799921Y-42512894D01*
X25987265Y-42699306D01*
X25990712Y-42707571D01*
X25987306Y-42715853D01*
X25987264Y-42715894D01*
X25799925Y-42902301D01*
X25791644Y-42905707D01*
X25787565Y-42904962D01*
X25602192Y-42835447D01*
X25595649Y-42829333D01*
X25594600Y-42824492D01*
X25594600Y-42590708D01*
X25598027Y-42582435D01*
X25602192Y-42579753D01*
X25602191Y-42579753D01*
X25787567Y-42510237D01*
X25796514Y-42510541D01*
G37*
%TD.AperFunction*%
%TD*%
%TA.AperFunction,Conductor*%
%TO.N,/NRST*%
G36*
X36015477Y-31858786D02*
G01*
X36625021Y-31996588D01*
X36632334Y-32001754D01*
X36633852Y-32010579D01*
X36628685Y-32017893D01*
X36625020Y-32019411D01*
X36015481Y-32157212D01*
X36012901Y-32157500D01*
X36007828Y-32157500D01*
X36007182Y-32157464D01*
X35797408Y-32134156D01*
X35789564Y-32129837D01*
X35787000Y-32122528D01*
X35787000Y-31893471D01*
X35790427Y-31885198D01*
X35797406Y-31881843D01*
X36007196Y-31858533D01*
X36007801Y-31858499D01*
X36012913Y-31858499D01*
X36015477Y-31858786D01*
G37*
%TD.AperFunction*%
%TD*%
%TA.AperFunction,Conductor*%
%TO.N,/NRST*%
G36*
X21054294Y-38191928D02*
G01*
X21060280Y-38198090D01*
X21208123Y-38552698D01*
X21208144Y-38561652D01*
X21208123Y-38561702D01*
X21060280Y-38916309D01*
X21053933Y-38922627D01*
X21045344Y-38922751D01*
X20416563Y-38685058D01*
X20410036Y-38678927D01*
X20409000Y-38674114D01*
X20409000Y-38440285D01*
X20412427Y-38432012D01*
X20416563Y-38429341D01*
X21045345Y-38191648D01*
X21054294Y-38191928D01*
G37*
%TD.AperFunction*%
%TD*%
%TA.AperFunction,Conductor*%
%TO.N,/NRST*%
G36*
X20743808Y-38429354D02*
G01*
X20750351Y-38435466D01*
X20751400Y-38440309D01*
X20751400Y-38674090D01*
X20747973Y-38682363D01*
X20743807Y-38685046D01*
X20125550Y-38916787D01*
X20116600Y-38916482D01*
X20110644Y-38910334D01*
X20015520Y-38682200D01*
X19965276Y-38561701D01*
X19965256Y-38552748D01*
X20110644Y-38204064D01*
X20116991Y-38197748D01*
X20125548Y-38197612D01*
X20743808Y-38429354D01*
G37*
%TD.AperFunction*%
%TD*%
%TA.AperFunction,Conductor*%
%TO.N,/NRST*%
G36*
X33996656Y-32502582D02*
G01*
X34620584Y-32764987D01*
X34626881Y-32771353D01*
X34627748Y-32775772D01*
X34627748Y-33009632D01*
X34624321Y-33017905D01*
X34619828Y-33020704D01*
X33996237Y-33233613D01*
X33987301Y-33233044D01*
X33981658Y-33227043D01*
X33833675Y-32872099D01*
X33833655Y-32863150D01*
X33981357Y-32508878D01*
X33987703Y-32502562D01*
X33996656Y-32502582D01*
G37*
%TD.AperFunction*%
%TD*%
%TA.AperFunction,Conductor*%
%TO.N,/NRST*%
G36*
X59362696Y-11451890D02*
G01*
X59974437Y-11683141D01*
X59980964Y-11689272D01*
X59982000Y-11694085D01*
X59982000Y-11927914D01*
X59978573Y-11936187D01*
X59974437Y-11938858D01*
X59345655Y-12176551D01*
X59336705Y-12176271D01*
X59330719Y-12170109D01*
X59234306Y-11938858D01*
X59182875Y-11815499D01*
X59182855Y-11806550D01*
X59330719Y-11451889D01*
X59337066Y-11445572D01*
X59345654Y-11445448D01*
X59362696Y-11451890D01*
G37*
%TD.AperFunction*%
%TD*%
%TA.AperFunction,Conductor*%
%TO.N,/NRST*%
G36*
X60387225Y-11470659D02*
G01*
X60869194Y-11831415D01*
X60873764Y-11839115D01*
X60871550Y-11847792D01*
X60868986Y-11850300D01*
X60387739Y-12194245D01*
X60379016Y-12196267D01*
X60374217Y-12194304D01*
X60010981Y-11939494D01*
X60006176Y-11931938D01*
X60006000Y-11929916D01*
X60006000Y-11692701D01*
X60009427Y-11684428D01*
X60011780Y-11682609D01*
X60374294Y-11469933D01*
X60383162Y-11468704D01*
X60387225Y-11470659D01*
G37*
%TD.AperFunction*%
%TD*%
%TA.AperFunction,Conductor*%
%TO.N,+5V*%
G36*
X15508545Y-20133421D02*
G01*
X15508576Y-20133446D01*
X15862224Y-20423558D01*
X15866446Y-20431455D01*
X15866502Y-20432425D01*
X15870819Y-20715121D01*
X15867519Y-20723446D01*
X15859299Y-20726999D01*
X15859120Y-20727000D01*
X15379002Y-20727000D01*
X15370729Y-20723573D01*
X15368098Y-20719542D01*
X15256752Y-20433349D01*
X15256946Y-20424397D01*
X15258582Y-20421721D01*
X15492085Y-20135101D01*
X15499966Y-20130853D01*
X15508545Y-20133421D01*
G37*
%TD.AperFunction*%
%TD*%
%TA.AperFunction,Conductor*%
%TO.N,+5V*%
G36*
X15873175Y-20798610D02*
G01*
X15874493Y-20800182D01*
X16209404Y-21279515D01*
X16211333Y-21288259D01*
X16208872Y-21293620D01*
X15864948Y-21714392D01*
X15857379Y-21718593D01*
X15424647Y-21774165D01*
X15416005Y-21771820D01*
X15411552Y-21764050D01*
X15411467Y-21763049D01*
X15409608Y-21718593D01*
X15371509Y-20807372D01*
X15374588Y-20798963D01*
X15382711Y-20795193D01*
X15383200Y-20795183D01*
X15864902Y-20795183D01*
X15873175Y-20798610D01*
G37*
%TD.AperFunction*%
%TD*%
%TA.AperFunction,Conductor*%
%TO.N,+5V*%
G36*
X15869187Y-21721597D02*
G01*
X16288350Y-22048024D01*
X16288625Y-22048238D01*
X16293047Y-22056025D01*
X16292678Y-22060712D01*
X16127440Y-22633543D01*
X16121854Y-22640542D01*
X16116198Y-22642000D01*
X15633439Y-22642000D01*
X15625166Y-22638573D01*
X15622337Y-22633993D01*
X15431736Y-22060948D01*
X15432377Y-22052016D01*
X15435646Y-22048026D01*
X15854811Y-21721597D01*
X15863444Y-21719218D01*
X15869187Y-21721597D01*
G37*
%TD.AperFunction*%
%TD*%
%TA.AperFunction,Conductor*%
%TO.N,Net-(D101-K)*%
G36*
X55534119Y-21763371D02*
G01*
X55874155Y-22148253D01*
X55877065Y-22156722D01*
X55874155Y-22163747D01*
X55534119Y-22548628D01*
X55526073Y-22552559D01*
X55519226Y-22550850D01*
X55085575Y-22284425D01*
X55080320Y-22277174D01*
X55080000Y-22274456D01*
X55080000Y-22037543D01*
X55083427Y-22029270D01*
X55085570Y-22027577D01*
X55519226Y-21761148D01*
X55528069Y-21759738D01*
X55534119Y-21763371D01*
G37*
%TD.AperFunction*%
%TD*%
%TA.AperFunction,Conductor*%
%TO.N,Net-(D101-K)*%
G36*
X54493625Y-21739250D02*
G01*
X55033910Y-22027695D01*
X55039595Y-22034614D01*
X55040100Y-22038016D01*
X55040100Y-22274503D01*
X55036673Y-22282776D01*
X55034586Y-22284434D01*
X54522391Y-22603508D01*
X54513557Y-22604973D01*
X54507147Y-22600983D01*
X54409478Y-22481524D01*
X54169772Y-22188338D01*
X54167189Y-22179765D01*
X54169323Y-22174115D01*
X54269345Y-22034614D01*
X54478609Y-21742753D01*
X54486213Y-21738028D01*
X54493625Y-21739250D01*
G37*
%TD.AperFunction*%
%TD*%
%TA.AperFunction,Conductor*%
%TO.N,Net-(D102-K)*%
G36*
X55473319Y-19528171D02*
G01*
X55813355Y-19913053D01*
X55816265Y-19921522D01*
X55813355Y-19928547D01*
X55473319Y-20313428D01*
X55465273Y-20317359D01*
X55458426Y-20315650D01*
X55024775Y-20049225D01*
X55019520Y-20041974D01*
X55019200Y-20039256D01*
X55019200Y-19802343D01*
X55022627Y-19794070D01*
X55024770Y-19792377D01*
X55458426Y-19525948D01*
X55467269Y-19524538D01*
X55473319Y-19528171D01*
G37*
%TD.AperFunction*%
%TD*%
%TA.AperFunction,Conductor*%
%TO.N,Net-(D102-K)*%
G36*
X54472263Y-19488436D02*
G01*
X54998849Y-19792422D01*
X55004301Y-19799526D01*
X55004700Y-19802555D01*
X55004700Y-20039044D01*
X55001273Y-20047317D01*
X54998849Y-20049177D01*
X54472264Y-20353162D01*
X54463386Y-20354330D01*
X54457122Y-20350138D01*
X54134138Y-19927909D01*
X54131833Y-19919255D01*
X54134138Y-19913691D01*
X54221468Y-19799526D01*
X54457122Y-19491460D01*
X54464870Y-19486972D01*
X54472263Y-19488436D01*
G37*
%TD.AperFunction*%
%TD*%
%TA.AperFunction,Conductor*%
%TO.N,/SWO*%
G36*
X17478096Y-36928090D02*
G01*
X18089837Y-37159341D01*
X18096364Y-37165472D01*
X18097400Y-37170285D01*
X18097400Y-37404114D01*
X18093973Y-37412387D01*
X18089837Y-37415058D01*
X17461055Y-37652751D01*
X17452105Y-37652471D01*
X17446119Y-37646309D01*
X17349706Y-37415058D01*
X17298275Y-37291699D01*
X17298255Y-37282750D01*
X17446119Y-36928089D01*
X17452466Y-36921772D01*
X17461054Y-36921648D01*
X17478096Y-36928090D01*
G37*
%TD.AperFunction*%
%TD*%
%TA.AperFunction,Conductor*%
%TO.N,/SWO*%
G36*
X18542199Y-36927917D02*
G01*
X18548155Y-36934065D01*
X18693522Y-37282696D01*
X18693543Y-37291651D01*
X18693522Y-37291702D01*
X18548155Y-37640334D01*
X18541808Y-37646651D01*
X18533249Y-37646787D01*
X17914993Y-37415046D01*
X17908449Y-37408933D01*
X17907400Y-37404090D01*
X17907400Y-37170309D01*
X17910827Y-37162036D01*
X17914989Y-37159355D01*
X18533251Y-36927612D01*
X18542199Y-36927917D01*
G37*
%TD.AperFunction*%
%TD*%
%TA.AperFunction,Conductor*%
%TO.N,/SWO*%
G36*
X28217216Y-42357424D02*
G01*
X28222997Y-42363491D01*
X28317788Y-42590852D01*
X28370923Y-42718297D01*
X28370944Y-42727251D01*
X28370923Y-42727301D01*
X28223177Y-43081677D01*
X28216830Y-43087995D01*
X28208001Y-43088025D01*
X27582146Y-42835554D01*
X27575756Y-42829281D01*
X27574823Y-42824704D01*
X27574823Y-42590852D01*
X27578250Y-42582579D01*
X27582593Y-42579832D01*
X28208274Y-42356971D01*
X28217216Y-42357424D01*
G37*
%TD.AperFunction*%
%TD*%
%TA.AperFunction,Conductor*%
%TO.N,/SWO*%
G36*
X27501630Y-42510236D02*
G01*
X27687007Y-42579753D01*
X27687008Y-42579753D01*
X27693551Y-42585867D01*
X27694600Y-42590708D01*
X27694600Y-42824491D01*
X27691173Y-42832764D01*
X27687008Y-42835446D01*
X27501634Y-42904962D01*
X27492685Y-42904658D01*
X27489275Y-42902302D01*
X27301934Y-42715893D01*
X27298487Y-42707629D01*
X27301893Y-42699348D01*
X27489277Y-42512896D01*
X27497555Y-42509492D01*
X27501630Y-42510236D01*
G37*
%TD.AperFunction*%
%TD*%
%TA.AperFunction,Conductor*%
%TO.N,/SWCLK*%
G36*
X17542196Y-38248890D02*
G01*
X18153937Y-38480141D01*
X18160464Y-38486272D01*
X18161500Y-38491085D01*
X18161500Y-38724914D01*
X18158073Y-38733187D01*
X18153937Y-38735858D01*
X17525155Y-38973551D01*
X17516205Y-38973271D01*
X17510219Y-38967109D01*
X17413806Y-38735858D01*
X17362375Y-38612499D01*
X17362355Y-38603550D01*
X17510219Y-38248889D01*
X17516566Y-38242572D01*
X17525154Y-38242448D01*
X17542196Y-38248890D01*
G37*
%TD.AperFunction*%
%TD*%
%TA.AperFunction,Conductor*%
%TO.N,/SWCLK*%
G36*
X18548311Y-38204462D02*
G01*
X18548489Y-38204866D01*
X18693522Y-38552697D01*
X18693543Y-38561652D01*
X18693522Y-38561703D01*
X18547871Y-38911015D01*
X18541524Y-38917332D01*
X18533712Y-38917718D01*
X17925845Y-38735500D01*
X17918905Y-38729842D01*
X17917505Y-38724293D01*
X17917505Y-38490482D01*
X17920932Y-38482209D01*
X17924294Y-38479863D01*
X18532785Y-38198747D01*
X18541731Y-38198389D01*
X18548311Y-38204462D01*
G37*
%TD.AperFunction*%
%TD*%
%TA.AperFunction,Conductor*%
%TO.N,/SWCLK*%
G36*
X27653709Y-39823519D02*
G01*
X27660027Y-39829866D01*
X27660151Y-39838455D01*
X27422459Y-40467237D01*
X27416328Y-40473764D01*
X27411515Y-40474800D01*
X27177685Y-40474800D01*
X27169412Y-40471373D01*
X27166741Y-40467237D01*
X26929048Y-39838455D01*
X26929328Y-39829505D01*
X26935489Y-39823519D01*
X27290100Y-39675675D01*
X27299049Y-39675655D01*
X27653709Y-39823519D01*
G37*
%TD.AperFunction*%
%TD*%
%TA.AperFunction,Conductor*%
%TO.N,/SWCLK*%
G36*
X27419765Y-40286027D02*
G01*
X27422447Y-40290192D01*
X27492592Y-40477246D01*
X27492288Y-40486196D01*
X27491610Y-40487472D01*
X27304573Y-40792344D01*
X27297326Y-40797604D01*
X27288482Y-40796199D01*
X27284627Y-40792344D01*
X27097589Y-40487472D01*
X27096184Y-40478628D01*
X27096603Y-40477256D01*
X27166753Y-40290192D01*
X27172867Y-40283649D01*
X27177708Y-40282600D01*
X27411492Y-40282600D01*
X27419765Y-40286027D01*
G37*
%TD.AperFunction*%
%TD*%
%TA.AperFunction,Conductor*%
%TO.N,/SWDIO*%
G36*
X26353709Y-39874319D02*
G01*
X26360027Y-39880666D01*
X26360151Y-39889255D01*
X26122459Y-40518037D01*
X26116328Y-40524564D01*
X26111515Y-40525600D01*
X25877685Y-40525600D01*
X25869412Y-40522173D01*
X25866741Y-40518037D01*
X25629048Y-39889255D01*
X25629328Y-39880305D01*
X25635489Y-39874319D01*
X25990100Y-39726475D01*
X25999049Y-39726455D01*
X26353709Y-39874319D01*
G37*
%TD.AperFunction*%
%TD*%
%TA.AperFunction,Conductor*%
%TO.N,/SWDIO*%
G36*
X26119765Y-40286027D02*
G01*
X26122447Y-40290192D01*
X26192592Y-40477246D01*
X26192288Y-40486196D01*
X26191610Y-40487472D01*
X26004573Y-40792344D01*
X25997326Y-40797604D01*
X25988482Y-40796199D01*
X25984627Y-40792344D01*
X25797589Y-40487472D01*
X25796184Y-40478628D01*
X25796603Y-40477256D01*
X25866753Y-40290192D01*
X25872867Y-40283649D01*
X25877708Y-40282600D01*
X26111492Y-40282600D01*
X26119765Y-40286027D01*
G37*
%TD.AperFunction*%
%TD*%
%TA.AperFunction,Conductor*%
%TO.N,/SWDIO*%
G36*
X17427296Y-39468090D02*
G01*
X18039037Y-39699341D01*
X18045564Y-39705472D01*
X18046600Y-39710285D01*
X18046600Y-39944114D01*
X18043173Y-39952387D01*
X18039037Y-39955058D01*
X17410255Y-40192751D01*
X17401305Y-40192471D01*
X17395319Y-40186309D01*
X17298906Y-39955058D01*
X17247475Y-39831699D01*
X17247455Y-39822750D01*
X17395319Y-39468089D01*
X17401666Y-39461772D01*
X17410254Y-39461648D01*
X17427296Y-39468090D01*
G37*
%TD.AperFunction*%
%TD*%
%TA.AperFunction,Conductor*%
%TO.N,/SWDIO*%
G36*
X18542199Y-39467917D02*
G01*
X18548155Y-39474065D01*
X18693522Y-39822697D01*
X18693543Y-39831652D01*
X18693522Y-39831703D01*
X18548155Y-40180334D01*
X18541808Y-40186651D01*
X18533249Y-40186787D01*
X17914993Y-39955046D01*
X17908449Y-39948933D01*
X17907400Y-39944090D01*
X17907400Y-39710309D01*
X17910827Y-39702036D01*
X17914989Y-39699355D01*
X18533251Y-39467612D01*
X18542199Y-39467917D01*
G37*
%TD.AperFunction*%
%TD*%
%TA.AperFunction,Conductor*%
%TO.N,VBUS*%
G36*
X20388882Y-39574245D02*
G01*
X20395269Y-39580519D01*
X20396200Y-39585093D01*
X20396200Y-40069306D01*
X20392773Y-40077579D01*
X20388881Y-40080155D01*
X20125713Y-40186415D01*
X20116758Y-40186335D01*
X20110534Y-40180070D01*
X19965276Y-39831701D01*
X19965256Y-39822748D01*
X20110534Y-39474328D01*
X20116880Y-39468013D01*
X20125712Y-39467984D01*
X20388882Y-39574245D01*
G37*
%TD.AperFunction*%
%TD*%
%TA.AperFunction,Conductor*%
%TO.N,VBUS*%
G36*
X22896206Y-43236045D02*
G01*
X22896213Y-43236062D01*
X23138026Y-43821144D01*
X23138019Y-43830099D01*
X23134302Y-43834921D01*
X23102607Y-43859058D01*
X23063540Y-43888808D01*
X23056453Y-43891200D01*
X22714347Y-43891200D01*
X22707259Y-43888808D01*
X22636496Y-43834920D01*
X22631992Y-43827183D01*
X22632773Y-43821144D01*
X22874587Y-43236062D01*
X22880914Y-43229725D01*
X22889869Y-43229718D01*
X22896206Y-43236045D01*
G37*
%TD.AperFunction*%
%TD*%
%TA.AperFunction,Conductor*%
%TO.N,/UART_TX*%
G36*
X38021494Y-29142728D02*
G01*
X38027480Y-29148890D01*
X38175323Y-29503497D01*
X38175344Y-29512451D01*
X38175323Y-29512501D01*
X38027480Y-29867109D01*
X38021133Y-29873427D01*
X38012544Y-29873551D01*
X37383763Y-29635858D01*
X37377236Y-29629727D01*
X37376200Y-29624914D01*
X37376200Y-29391085D01*
X37379627Y-29382812D01*
X37383763Y-29380141D01*
X38012545Y-29142448D01*
X38021494Y-29142728D01*
G37*
%TD.AperFunction*%
%TD*%
%TA.AperFunction,Conductor*%
%TO.N,/UART_TX*%
G36*
X37551592Y-29381843D02*
G01*
X37559435Y-29386162D01*
X37561999Y-29393471D01*
X37562000Y-29622528D01*
X37558573Y-29630801D01*
X37551592Y-29634156D01*
X37383778Y-29652802D01*
X37341822Y-29657464D01*
X37341179Y-29657500D01*
X37336094Y-29657500D01*
X37333514Y-29657212D01*
X37226416Y-29633000D01*
X36723978Y-29519411D01*
X36716665Y-29514245D01*
X36715147Y-29505420D01*
X36720314Y-29498106D01*
X36723979Y-29496588D01*
X37335085Y-29358432D01*
X37338953Y-29358217D01*
X37551592Y-29381843D01*
G37*
%TD.AperFunction*%
%TD*%
%TA.AperFunction,Conductor*%
%TO.N,/UART_RX*%
G36*
X35384801Y-27211427D02*
G01*
X35388156Y-27218408D01*
X35411782Y-27431043D01*
X35411566Y-27434915D01*
X35273411Y-28046020D01*
X35268244Y-28053334D01*
X35259419Y-28054852D01*
X35252105Y-28049685D01*
X35250588Y-28046024D01*
X35112787Y-27436480D01*
X35112499Y-27433900D01*
X35112499Y-27428828D01*
X35112535Y-27428182D01*
X35135844Y-27218408D01*
X35140163Y-27210564D01*
X35147472Y-27208000D01*
X35376528Y-27208000D01*
X35384801Y-27211427D01*
G37*
%TD.AperFunction*%
%TD*%
%TA.AperFunction,Conductor*%
%TO.N,/UART_RX*%
G36*
X35625045Y-26486525D02*
G01*
X35628486Y-26494792D01*
X35628486Y-26494834D01*
X35627816Y-26874181D01*
X35624375Y-26882448D01*
X35618359Y-26885643D01*
X35356500Y-26936793D01*
X35347723Y-26935016D01*
X35345984Y-26933583D01*
X35178016Y-26765615D01*
X35174589Y-26757342D01*
X35174804Y-26755109D01*
X35225956Y-26493239D01*
X35230905Y-26485777D01*
X35237417Y-26483783D01*
X35616766Y-26483113D01*
X35625045Y-26486525D01*
G37*
%TD.AperFunction*%
%TD*%
%TA.AperFunction,Conductor*%
%TO.N,Net-(J104-Pin_2)*%
G36*
X7190890Y-26015909D02*
G01*
X8536263Y-26604932D01*
X8542467Y-26611388D01*
X8543270Y-26615649D01*
X8543270Y-26850970D01*
X8539843Y-26859243D01*
X8537063Y-26861300D01*
X7191276Y-27576981D01*
X7182363Y-27577840D01*
X7175640Y-27572481D01*
X6733349Y-26802829D01*
X6732199Y-26793949D01*
X6733350Y-26791170D01*
X7176054Y-26020796D01*
X7183147Y-26015332D01*
X7190890Y-26015909D01*
G37*
%TD.AperFunction*%
%TD*%
%TA.AperFunction,Conductor*%
%TO.N,Net-(J104-Pin_2)*%
G36*
X12100407Y-26354712D02*
G01*
X12439758Y-26725096D01*
X12442820Y-26733511D01*
X12439758Y-26740904D01*
X12100407Y-27111287D01*
X12092291Y-27115072D01*
X12086579Y-27113863D01*
X11577499Y-26861225D01*
X11571612Y-26854478D01*
X11571000Y-26850745D01*
X11571000Y-26615254D01*
X11574427Y-26606981D01*
X11577495Y-26604776D01*
X12086580Y-26352135D01*
X12095513Y-26351528D01*
X12100407Y-26354712D01*
G37*
%TD.AperFunction*%
%TD*%
%TA.AperFunction,Conductor*%
%TO.N,/RGB_LED*%
G36*
X17209395Y-18890843D02*
G01*
X17515403Y-19045525D01*
X17754842Y-19166558D01*
X17760680Y-19173349D01*
X17760006Y-19182278D01*
X17754842Y-19187442D01*
X17209403Y-19463152D01*
X17200474Y-19463826D01*
X17199625Y-19463510D01*
X16819200Y-19304999D01*
X16812881Y-19298654D01*
X16812000Y-19294199D01*
X16812000Y-19059800D01*
X16815427Y-19051527D01*
X16819200Y-19049000D01*
X17199626Y-18890488D01*
X17208580Y-18890470D01*
X17209395Y-18890843D01*
G37*
%TD.AperFunction*%
%TD*%
%TA.AperFunction,Conductor*%
%TO.N,/RGB_LED*%
G36*
X18895294Y-18811728D02*
G01*
X18901280Y-18817890D01*
X19049123Y-19172497D01*
X19049144Y-19181451D01*
X19049123Y-19181501D01*
X18901280Y-19536109D01*
X18894933Y-19542427D01*
X18886344Y-19542551D01*
X18257563Y-19304858D01*
X18251036Y-19298727D01*
X18250000Y-19293914D01*
X18250000Y-19060085D01*
X18253427Y-19051812D01*
X18257563Y-19049141D01*
X18886345Y-18811448D01*
X18895294Y-18811728D01*
G37*
%TD.AperFunction*%
%TD*%
%TA.AperFunction,Conductor*%
%TO.N,/RGB_LED*%
G36*
X18349368Y-18890486D02*
G01*
X18350233Y-18890847D01*
X18729800Y-19049000D01*
X18736119Y-19055345D01*
X18737000Y-19059800D01*
X18737000Y-19294199D01*
X18733573Y-19302472D01*
X18729800Y-19304999D01*
X18349374Y-19463510D01*
X18340419Y-19463529D01*
X18339596Y-19463152D01*
X17794157Y-19187442D01*
X17788319Y-19180651D01*
X17788993Y-19171722D01*
X17794157Y-19166558D01*
X18339597Y-18890846D01*
X18348525Y-18890173D01*
X18349368Y-18890486D01*
G37*
%TD.AperFunction*%
%TD*%
%TA.AperFunction,Conductor*%
%TO.N,/DIP3*%
G36*
X31386435Y-40136427D02*
G01*
X31389416Y-40141501D01*
X31493618Y-40508137D01*
X31492584Y-40517032D01*
X31492408Y-40517337D01*
X31126402Y-41129915D01*
X31119217Y-41135259D01*
X31110357Y-41133958D01*
X31105725Y-41128795D01*
X30826126Y-40519672D01*
X30825789Y-40510723D01*
X30827737Y-40507342D01*
X31133490Y-40137248D01*
X31141402Y-40133053D01*
X31142511Y-40133000D01*
X31378162Y-40133000D01*
X31386435Y-40136427D01*
G37*
%TD.AperFunction*%
%TD*%
%TA.AperFunction,Conductor*%
%TO.N,/DIP3*%
G36*
X31271893Y-36466314D02*
G01*
X31273411Y-36469979D01*
X31411212Y-37079518D01*
X31411500Y-37082098D01*
X31411500Y-37087171D01*
X31411464Y-37087817D01*
X31388156Y-37297592D01*
X31383837Y-37305436D01*
X31376528Y-37308000D01*
X31147472Y-37308000D01*
X31139199Y-37304573D01*
X31135844Y-37297592D01*
X31128672Y-37233047D01*
X31112533Y-37087805D01*
X31112499Y-37087196D01*
X31112499Y-37082085D01*
X31112787Y-37079518D01*
X31250588Y-36469976D01*
X31255754Y-36462665D01*
X31264579Y-36461147D01*
X31271893Y-36466314D01*
G37*
%TD.AperFunction*%
%TD*%
%TA.AperFunction,Conductor*%
%TO.N,/DIP3*%
G36*
X31121001Y-41159767D02*
G01*
X31125044Y-41163810D01*
X31491197Y-41776636D01*
X31492498Y-41785496D01*
X31490868Y-41789156D01*
X31243477Y-42157819D01*
X31236022Y-42162780D01*
X31233762Y-42163000D01*
X30996238Y-42163000D01*
X30987965Y-42159573D01*
X30986523Y-42157819D01*
X30739131Y-41789156D01*
X30737366Y-41780377D01*
X30738802Y-41776636D01*
X31104956Y-41163810D01*
X31112141Y-41158466D01*
X31121001Y-41159767D01*
G37*
%TD.AperFunction*%
%TD*%
%TA.AperFunction,Conductor*%
%TO.N,/DIP3*%
G36*
X37059557Y-46057464D02*
G01*
X37202812Y-46146776D01*
X37439073Y-46294071D01*
X37444280Y-46301356D01*
X37442812Y-46310190D01*
X37439073Y-46313929D01*
X37059560Y-46550533D01*
X37050726Y-46552001D01*
X37048138Y-46551069D01*
X36810468Y-46432234D01*
X36804600Y-46425469D01*
X36804000Y-46421769D01*
X36804000Y-46186231D01*
X36807427Y-46177958D01*
X36810468Y-46175766D01*
X37048140Y-46056929D01*
X37057070Y-46056295D01*
X37059557Y-46057464D01*
G37*
%TD.AperFunction*%
%TD*%
%TA.AperFunction,Conductor*%
%TO.N,/DIP2*%
G36*
X37058178Y-45306092D02*
G01*
X37058524Y-45306256D01*
X37220630Y-45387107D01*
X37434007Y-45493530D01*
X37439881Y-45500289D01*
X37439255Y-45509222D01*
X37434007Y-45514470D01*
X37058559Y-45701726D01*
X37049626Y-45702352D01*
X37049229Y-45702211D01*
X36861592Y-45631847D01*
X36855049Y-45625733D01*
X36854000Y-45620892D01*
X36854000Y-45387107D01*
X36857427Y-45378834D01*
X36861588Y-45376154D01*
X37049231Y-45305788D01*
X37058178Y-45306092D01*
G37*
%TD.AperFunction*%
%TD*%
%TA.AperFunction,Conductor*%
%TO.N,/DIP2*%
G36*
X32512035Y-40136427D02*
G01*
X32513477Y-40138181D01*
X32760868Y-40506843D01*
X32762633Y-40515622D01*
X32761197Y-40519363D01*
X32395044Y-41132189D01*
X32387859Y-41137533D01*
X32378999Y-41136232D01*
X32374956Y-41132189D01*
X32008802Y-40519363D01*
X32007501Y-40510503D01*
X32009129Y-40506845D01*
X32256523Y-40138180D01*
X32263978Y-40133220D01*
X32266238Y-40133000D01*
X32503762Y-40133000D01*
X32512035Y-40136427D01*
G37*
%TD.AperFunction*%
%TD*%
%TA.AperFunction,Conductor*%
%TO.N,/DIP2*%
G36*
X31771893Y-36466313D02*
G01*
X31773411Y-36469978D01*
X31907330Y-37062344D01*
X31907600Y-37065574D01*
X31906999Y-37076356D01*
X31906999Y-37076371D01*
X31906999Y-37076372D01*
X31906999Y-37090518D01*
X31907013Y-37091094D01*
X31907112Y-37095346D01*
X31907131Y-37095749D01*
X31907359Y-37100602D01*
X31907362Y-37100648D01*
X31907363Y-37100661D01*
X31907686Y-37105284D01*
X31907695Y-37105385D01*
X31908413Y-37113082D01*
X31908392Y-37115461D01*
X31888156Y-37297592D01*
X31883837Y-37305436D01*
X31876528Y-37308000D01*
X31647472Y-37308000D01*
X31639199Y-37304573D01*
X31635844Y-37297592D01*
X31625684Y-37206160D01*
X31615525Y-37114725D01*
X31615525Y-37112149D01*
X31616019Y-37107703D01*
X31616488Y-37102072D01*
X31616841Y-37095749D01*
X31616853Y-37095336D01*
X31616999Y-37090062D01*
X31617000Y-37090049D01*
X31617000Y-37076401D01*
X31617000Y-37076385D01*
X31616398Y-37065573D01*
X31616667Y-37062355D01*
X31750588Y-36469975D01*
X31755754Y-36462664D01*
X31764579Y-36461146D01*
X31771893Y-36466313D01*
G37*
%TD.AperFunction*%
%TD*%
%TA.AperFunction,Conductor*%
%TO.N,/DIP2*%
G36*
X32391001Y-41159767D02*
G01*
X32395044Y-41163810D01*
X32761197Y-41776636D01*
X32762498Y-41785496D01*
X32760868Y-41789156D01*
X32513477Y-42157819D01*
X32506022Y-42162780D01*
X32503762Y-42163000D01*
X32266238Y-42163000D01*
X32257965Y-42159573D01*
X32256523Y-42157819D01*
X32009131Y-41789156D01*
X32007366Y-41780377D01*
X32008802Y-41776636D01*
X32374956Y-41163810D01*
X32382141Y-41158466D01*
X32391001Y-41159767D01*
G37*
%TD.AperFunction*%
%TD*%
%TA.AperFunction,Conductor*%
%TO.N,/DIP1*%
G36*
X33782035Y-40136427D02*
G01*
X33783477Y-40138181D01*
X34030868Y-40506843D01*
X34032633Y-40515622D01*
X34031197Y-40519363D01*
X33665044Y-41132189D01*
X33657859Y-41137533D01*
X33648999Y-41136232D01*
X33644956Y-41132189D01*
X33278802Y-40519363D01*
X33277501Y-40510503D01*
X33279129Y-40506845D01*
X33526523Y-40138180D01*
X33533978Y-40133220D01*
X33536238Y-40133000D01*
X33773762Y-40133000D01*
X33782035Y-40136427D01*
G37*
%TD.AperFunction*%
%TD*%
%TA.AperFunction,Conductor*%
%TO.N,/DIP1*%
G36*
X37058178Y-44506092D02*
G01*
X37058524Y-44506256D01*
X37220630Y-44587107D01*
X37434007Y-44693530D01*
X37439881Y-44700289D01*
X37439255Y-44709222D01*
X37434007Y-44714470D01*
X37058559Y-44901726D01*
X37049626Y-44902352D01*
X37049229Y-44902211D01*
X36861592Y-44831847D01*
X36855049Y-44825733D01*
X36854000Y-44820892D01*
X36854000Y-44587107D01*
X36857427Y-44578834D01*
X36861588Y-44576154D01*
X37049231Y-44505788D01*
X37058178Y-44506092D01*
G37*
%TD.AperFunction*%
%TD*%
%TA.AperFunction,Conductor*%
%TO.N,/DIP1*%
G36*
X33661001Y-41159767D02*
G01*
X33665044Y-41163810D01*
X34031197Y-41776636D01*
X34032498Y-41785496D01*
X34030868Y-41789156D01*
X33783477Y-42157819D01*
X33776022Y-42162780D01*
X33773762Y-42163000D01*
X33536238Y-42163000D01*
X33527965Y-42159573D01*
X33526523Y-42157819D01*
X33279131Y-41789156D01*
X33277366Y-41780377D01*
X33278802Y-41776636D01*
X33644956Y-41163810D01*
X33652141Y-41158466D01*
X33661001Y-41159767D01*
G37*
%TD.AperFunction*%
%TD*%
%TA.AperFunction,Conductor*%
%TO.N,/DIP1*%
G36*
X32271645Y-36467411D02*
G01*
X32273186Y-36471181D01*
X32408523Y-37096418D01*
X32408699Y-37100330D01*
X32384270Y-37297737D01*
X32379853Y-37305527D01*
X32372659Y-37308000D01*
X32143658Y-37308000D01*
X32135385Y-37304573D01*
X32132009Y-37297387D01*
X32112522Y-37088598D01*
X32112499Y-37088108D01*
X32112499Y-37082085D01*
X32112785Y-37079523D01*
X32250340Y-36471073D01*
X32255506Y-36463762D01*
X32264331Y-36462244D01*
X32271645Y-36467411D01*
G37*
%TD.AperFunction*%
%TD*%
%TA.AperFunction,Conductor*%
%TO.N,/BOOT0*%
G36*
X33271893Y-36466314D02*
G01*
X33273411Y-36469979D01*
X33411212Y-37079518D01*
X33411500Y-37082098D01*
X33411500Y-37087171D01*
X33411464Y-37087817D01*
X33388156Y-37297592D01*
X33383837Y-37305436D01*
X33376528Y-37308000D01*
X33147472Y-37308000D01*
X33139199Y-37304573D01*
X33135844Y-37297592D01*
X33128672Y-37233047D01*
X33112533Y-37087805D01*
X33112499Y-37087196D01*
X33112499Y-37082085D01*
X33112787Y-37079518D01*
X33250588Y-36469976D01*
X33255754Y-36462665D01*
X33264579Y-36461147D01*
X33271893Y-36466314D01*
G37*
%TD.AperFunction*%
%TD*%
%TA.AperFunction,Conductor*%
%TO.N,/BOOT0*%
G36*
X37059557Y-43657464D02*
G01*
X37202812Y-43746776D01*
X37439073Y-43894071D01*
X37444280Y-43901356D01*
X37442812Y-43910190D01*
X37439073Y-43913929D01*
X37059560Y-44150533D01*
X37050726Y-44152001D01*
X37048138Y-44151069D01*
X36810468Y-44032234D01*
X36804600Y-44025469D01*
X36804000Y-44021769D01*
X36804000Y-43786231D01*
X36807427Y-43777958D01*
X36810468Y-43775766D01*
X37048140Y-43656929D01*
X37057070Y-43656295D01*
X37059557Y-43657464D01*
G37*
%TD.AperFunction*%
%TD*%
%TA.AperFunction,Conductor*%
%TO.N,/BOOT0*%
G36*
X34931001Y-41159767D02*
G01*
X34935044Y-41163810D01*
X35301197Y-41776636D01*
X35302498Y-41785496D01*
X35300868Y-41789156D01*
X35053477Y-42157819D01*
X35046022Y-42162780D01*
X35043762Y-42163000D01*
X34806238Y-42163000D01*
X34797965Y-42159573D01*
X34796523Y-42157819D01*
X34549131Y-41789156D01*
X34547366Y-41780377D01*
X34548802Y-41776636D01*
X34914956Y-41163810D01*
X34922141Y-41158466D01*
X34931001Y-41159767D01*
G37*
%TD.AperFunction*%
%TD*%
%TA.AperFunction,Conductor*%
%TO.N,/BOOT0*%
G36*
X35052035Y-40136427D02*
G01*
X35053477Y-40138181D01*
X35300868Y-40506843D01*
X35302633Y-40515622D01*
X35301197Y-40519363D01*
X34935044Y-41132189D01*
X34927859Y-41137533D01*
X34918999Y-41136232D01*
X34914956Y-41132189D01*
X34548802Y-40519363D01*
X34547501Y-40510503D01*
X34549129Y-40506845D01*
X34796523Y-40138180D01*
X34803978Y-40133220D01*
X34806238Y-40133000D01*
X35043762Y-40133000D01*
X35052035Y-40136427D01*
G37*
%TD.AperFunction*%
%TD*%
%TA.AperFunction,Conductor*%
%TO.N,Net-(D107-K)*%
G36*
X55483719Y-24074771D02*
G01*
X55823755Y-24459652D01*
X55826665Y-24468121D01*
X55823755Y-24475146D01*
X55483719Y-24860028D01*
X55475673Y-24863959D01*
X55468826Y-24862250D01*
X55035175Y-24595825D01*
X55029920Y-24588574D01*
X55029600Y-24585856D01*
X55029600Y-24348943D01*
X55033027Y-24340670D01*
X55035170Y-24338977D01*
X55468826Y-24072548D01*
X55477669Y-24071138D01*
X55483719Y-24074771D01*
G37*
%TD.AperFunction*%
%TD*%
%TA.AperFunction,Conductor*%
%TO.N,Net-(D107-K)*%
G36*
X54482663Y-24035036D02*
G01*
X55009249Y-24339022D01*
X55014701Y-24346126D01*
X55015100Y-24349155D01*
X55015100Y-24585644D01*
X55011673Y-24593917D01*
X55009249Y-24595777D01*
X54482664Y-24899762D01*
X54473786Y-24900930D01*
X54467522Y-24896738D01*
X54144538Y-24474509D01*
X54142233Y-24465855D01*
X54144538Y-24460291D01*
X54231868Y-24346126D01*
X54467522Y-24038060D01*
X54475270Y-24033572D01*
X54482663Y-24035036D01*
G37*
%TD.AperFunction*%
%TD*%
%TA.AperFunction,Conductor*%
%TO.N,/USB_D_N*%
G36*
X21940678Y-45500393D02*
G01*
X21945842Y-45505557D01*
X22221612Y-46051114D01*
X22222286Y-46060043D01*
X22222053Y-46060688D01*
X22071923Y-46440996D01*
X22065697Y-46447433D01*
X22061040Y-46448400D01*
X21809760Y-46448400D01*
X21801487Y-46444973D01*
X21798877Y-46440996D01*
X21648746Y-46060688D01*
X21648896Y-46051735D01*
X21649171Y-46051146D01*
X21924958Y-45505556D01*
X21931749Y-45499719D01*
X21940678Y-45500393D01*
G37*
%TD.AperFunction*%
%TD*%
%TA.AperFunction,Conductor*%
%TO.N,/USB_D_N*%
G36*
X22778139Y-48923127D02*
G01*
X22781566Y-48931400D01*
X22781542Y-48931889D01*
X22781654Y-48963219D01*
X22781647Y-48963527D01*
X22740781Y-49796365D01*
X22736953Y-49804461D01*
X22728522Y-49807478D01*
X22728365Y-49807469D01*
X22549427Y-49796277D01*
X22541384Y-49792341D01*
X22538627Y-49786591D01*
X22424137Y-49123304D01*
X22425059Y-49116381D01*
X22513452Y-48926462D01*
X22520049Y-48920408D01*
X22524059Y-48919700D01*
X22769866Y-48919700D01*
X22778139Y-48923127D01*
G37*
%TD.AperFunction*%
%TD*%
%TA.AperFunction,Conductor*%
%TO.N,/USB_D_P*%
G36*
X23254658Y-48923127D02*
G01*
X23257193Y-48926919D01*
X23335717Y-49116315D01*
X23336342Y-49123281D01*
X23192122Y-49786852D01*
X23187016Y-49794208D01*
X23181153Y-49796058D01*
X23002320Y-49803154D01*
X22993917Y-49800058D01*
X22990165Y-49791927D01*
X22990156Y-49791505D01*
X22987043Y-48931442D01*
X22990440Y-48923157D01*
X22998701Y-48919700D01*
X23246385Y-48919700D01*
X23254658Y-48923127D01*
G37*
%TD.AperFunction*%
%TD*%
%TA.AperFunction,Conductor*%
%TO.N,/USB_D_P*%
G36*
X23840678Y-45500393D02*
G01*
X23845842Y-45505557D01*
X24121612Y-46051114D01*
X24122286Y-46060043D01*
X24122053Y-46060688D01*
X23971923Y-46440996D01*
X23965697Y-46447433D01*
X23961040Y-46448400D01*
X23709760Y-46448400D01*
X23701487Y-46444973D01*
X23698877Y-46440996D01*
X23548746Y-46060688D01*
X23548896Y-46051735D01*
X23549171Y-46051146D01*
X23824958Y-45505556D01*
X23831749Y-45499719D01*
X23840678Y-45500393D01*
G37*
%TD.AperFunction*%
%TD*%
%TA.AperFunction,Conductor*%
%TO.N,/~{OE}*%
G36*
X18726541Y-19873884D02*
G01*
X18734404Y-19878169D01*
X18737000Y-19885518D01*
X18737000Y-20118858D01*
X18733573Y-20127131D01*
X18731944Y-20128488D01*
X18423636Y-20341205D01*
X18414881Y-20343083D01*
X18413255Y-20342662D01*
X17797871Y-20135215D01*
X17791126Y-20129325D01*
X17790521Y-20120391D01*
X17795704Y-20114027D01*
X18283682Y-19828938D01*
X18290819Y-19827407D01*
X18726541Y-19873884D01*
G37*
%TD.AperFunction*%
%TD*%
%TA.AperFunction,Conductor*%
%TO.N,/~{OE}*%
G36*
X30884801Y-27211427D02*
G01*
X30888156Y-27218408D01*
X30911464Y-27428173D01*
X30911500Y-27428819D01*
X30911500Y-27433903D01*
X30911212Y-27436483D01*
X30773411Y-28046020D01*
X30768244Y-28053334D01*
X30759419Y-28054852D01*
X30752105Y-28049685D01*
X30750588Y-28046024D01*
X30647138Y-27588429D01*
X30612787Y-27436480D01*
X30612499Y-27433900D01*
X30612499Y-27428828D01*
X30612535Y-27428182D01*
X30635844Y-27218408D01*
X30640163Y-27210564D01*
X30647472Y-27208000D01*
X30876528Y-27208000D01*
X30884801Y-27211427D01*
G37*
%TD.AperFunction*%
%TD*%
%TA.AperFunction,Conductor*%
%TO.N,/SCL*%
G36*
X12795248Y-5406357D02*
G01*
X12796318Y-5407302D01*
X13380706Y-5990720D01*
X13384140Y-5998989D01*
X13380720Y-6007265D01*
X13380706Y-6007279D01*
X12796322Y-6590693D01*
X12788046Y-6594113D01*
X12779776Y-6590679D01*
X12778827Y-6589605D01*
X12418471Y-6127170D01*
X12416000Y-6119978D01*
X12416000Y-5878021D01*
X12418471Y-5870829D01*
X12778827Y-5408394D01*
X12786615Y-5403975D01*
X12795248Y-5406357D01*
G37*
%TD.AperFunction*%
%TD*%
%TA.AperFunction,Conductor*%
%TO.N,/SCL*%
G36*
X26160188Y-30191427D02*
G01*
X26162859Y-30195563D01*
X26400551Y-30824344D01*
X26400271Y-30833294D01*
X26394109Y-30839280D01*
X26039502Y-30987123D01*
X26030548Y-30987144D01*
X26030498Y-30987123D01*
X25675890Y-30839280D01*
X25669572Y-30832933D01*
X25669448Y-30824345D01*
X25907141Y-30195562D01*
X25913272Y-30189036D01*
X25918085Y-30188000D01*
X26151915Y-30188000D01*
X26160188Y-30191427D01*
G37*
%TD.AperFunction*%
%TD*%
%TA.AperFunction,Conductor*%
%TO.N,/SCL*%
G36*
X26042747Y-29659844D02*
G01*
X26427628Y-29999880D01*
X26431559Y-30007926D01*
X26429850Y-30014773D01*
X26163425Y-30448425D01*
X26156174Y-30453680D01*
X26153456Y-30454000D01*
X25916544Y-30454000D01*
X25908271Y-30450573D01*
X25906575Y-30448425D01*
X25640149Y-30014773D01*
X25638738Y-30005930D01*
X25642369Y-29999881D01*
X26027253Y-29659843D01*
X26035722Y-29656934D01*
X26042747Y-29659844D01*
G37*
%TD.AperFunction*%
%TD*%
%TA.AperFunction,Conductor*%
%TO.N,/SCL*%
G36*
X26403044Y-30839253D02*
G01*
X26409206Y-30845239D01*
X26685747Y-31457928D01*
X26686027Y-31466878D01*
X26683356Y-31471014D01*
X26518014Y-31636356D01*
X26509741Y-31639783D01*
X26504928Y-31638747D01*
X25892239Y-31362206D01*
X25886108Y-31355679D01*
X25886232Y-31347090D01*
X26032437Y-30991802D01*
X26038753Y-30985457D01*
X26394090Y-30839232D01*
X26403044Y-30839253D01*
G37*
%TD.AperFunction*%
%TD*%
%TA.AperFunction,Conductor*%
%TO.N,/SCL*%
G36*
X6719309Y-14054078D02*
G01*
X7675034Y-14476918D01*
X7681213Y-14483400D01*
X7682000Y-14487618D01*
X7682000Y-14722381D01*
X7678573Y-14730654D01*
X7675034Y-14733081D01*
X6719312Y-15155920D01*
X6710360Y-15156133D01*
X6705934Y-15153105D01*
X6213192Y-14612884D01*
X6210148Y-14604462D01*
X6213191Y-14597115D01*
X6705935Y-14056893D01*
X6714041Y-14053091D01*
X6719309Y-14054078D01*
G37*
%TD.AperFunction*%
%TD*%
%TA.AperFunction,Conductor*%
%TO.N,/SCL*%
G36*
X27690477Y-31858786D02*
G01*
X28300021Y-31996588D01*
X28307334Y-32001754D01*
X28308852Y-32010579D01*
X28303685Y-32017893D01*
X28300020Y-32019411D01*
X27690481Y-32157212D01*
X27687901Y-32157500D01*
X27682828Y-32157500D01*
X27682182Y-32157464D01*
X27472408Y-32134156D01*
X27464564Y-32129837D01*
X27462000Y-32122528D01*
X27462000Y-31893471D01*
X27465427Y-31885198D01*
X27472406Y-31881843D01*
X27682196Y-31858533D01*
X27682801Y-31858499D01*
X27687913Y-31858499D01*
X27690477Y-31858786D01*
G37*
%TD.AperFunction*%
%TD*%
%TA.AperFunction,Conductor*%
%TO.N,/SDA*%
G36*
X24636188Y-30191427D02*
G01*
X24638859Y-30195563D01*
X24876551Y-30824344D01*
X24876271Y-30833294D01*
X24870109Y-30839280D01*
X24515502Y-30987123D01*
X24506548Y-30987144D01*
X24506498Y-30987123D01*
X24151890Y-30839280D01*
X24145572Y-30832933D01*
X24145448Y-30824345D01*
X24383141Y-30195562D01*
X24389272Y-30189036D01*
X24394085Y-30188000D01*
X24627915Y-30188000D01*
X24636188Y-30191427D01*
G37*
%TD.AperFunction*%
%TD*%
%TA.AperFunction,Conductor*%
%TO.N,/SDA*%
G36*
X24518747Y-29659844D02*
G01*
X24903628Y-29999880D01*
X24907559Y-30007926D01*
X24905850Y-30014773D01*
X24639425Y-30448425D01*
X24632174Y-30453680D01*
X24629456Y-30454000D01*
X24392544Y-30454000D01*
X24384271Y-30450573D01*
X24382575Y-30448425D01*
X24116149Y-30014773D01*
X24114738Y-30005930D01*
X24118369Y-29999881D01*
X24503253Y-29659843D01*
X24511722Y-29656934D01*
X24518747Y-29659844D01*
G37*
%TD.AperFunction*%
%TD*%
%TA.AperFunction,Conductor*%
%TO.N,/SDA*%
G36*
X27662296Y-32362019D02*
G01*
X27667927Y-32362488D01*
X27674250Y-32362841D01*
X27674272Y-32362841D01*
X27674279Y-32362842D01*
X27677884Y-32362942D01*
X27679938Y-32362999D01*
X27679949Y-32363000D01*
X27679968Y-32363000D01*
X27693597Y-32363000D01*
X27693614Y-32363000D01*
X27704424Y-32362398D01*
X27707645Y-32362667D01*
X28300021Y-32496588D01*
X28307334Y-32501754D01*
X28308852Y-32510579D01*
X28303685Y-32517893D01*
X28300020Y-32519411D01*
X27690481Y-32657212D01*
X27687901Y-32657500D01*
X27682828Y-32657500D01*
X27682182Y-32657464D01*
X27472408Y-32634156D01*
X27464564Y-32629837D01*
X27462000Y-32622528D01*
X27462000Y-32508000D01*
X27462000Y-32393468D01*
X27465426Y-32385198D01*
X27472405Y-32381843D01*
X27655284Y-32361524D01*
X27657841Y-32361524D01*
X27662296Y-32362019D01*
G37*
%TD.AperFunction*%
%TD*%
%TA.AperFunction,Conductor*%
%TO.N,/SDA*%
G36*
X24879044Y-30839253D02*
G01*
X24885206Y-30845239D01*
X25161747Y-31457928D01*
X25162027Y-31466878D01*
X25159356Y-31471014D01*
X24994014Y-31636356D01*
X24985741Y-31639783D01*
X24980928Y-31638747D01*
X24368239Y-31362206D01*
X24362108Y-31355679D01*
X24362232Y-31347090D01*
X24508437Y-30991802D01*
X24514753Y-30985457D01*
X24870090Y-30839232D01*
X24879044Y-30839253D01*
G37*
%TD.AperFunction*%
%TD*%
%TA.AperFunction,Conductor*%
%TO.N,/SDA*%
G36*
X13723259Y-2680179D02*
G01*
X13725003Y-2681082D01*
X14756534Y-3330558D01*
X14761709Y-3337866D01*
X14762000Y-3340459D01*
X14762000Y-3577540D01*
X14758573Y-3585813D01*
X14756534Y-3587441D01*
X13725004Y-4236916D01*
X13716177Y-4238424D01*
X13708869Y-4233249D01*
X13707965Y-4231504D01*
X13440365Y-3587441D01*
X13388864Y-3463488D01*
X13388856Y-3454534D01*
X13388865Y-3454511D01*
X13436252Y-3340459D01*
X13707966Y-2686493D01*
X13714304Y-2680170D01*
X13723259Y-2680179D01*
G37*
%TD.AperFunction*%
%TD*%
%TA.AperFunction,Conductor*%
%TO.N,/SDA*%
G36*
X6719309Y-16054078D02*
G01*
X7675034Y-16476918D01*
X7681213Y-16483400D01*
X7682000Y-16487618D01*
X7682000Y-16722381D01*
X7678573Y-16730654D01*
X7675034Y-16733081D01*
X6719312Y-17155920D01*
X6710360Y-17156133D01*
X6705934Y-17153105D01*
X6213192Y-16612884D01*
X6210148Y-16604462D01*
X6213191Y-16597115D01*
X6705935Y-16056893D01*
X6714041Y-16053091D01*
X6719309Y-16054078D01*
G37*
%TD.AperFunction*%
%TD*%
%TA.AperFunction,Conductor*%
%TO.N,Net-(SW107-B)*%
G36*
X12578691Y-22236563D02*
G01*
X12582382Y-22240526D01*
X12995272Y-22967853D01*
X12996376Y-22976739D01*
X12993982Y-22981241D01*
X12574502Y-23470912D01*
X12566518Y-23474965D01*
X12565617Y-23475000D01*
X12328258Y-23475000D01*
X12319985Y-23471573D01*
X12317776Y-23468499D01*
X12163240Y-23156936D01*
X12076002Y-22981054D01*
X12075397Y-22972121D01*
X12076743Y-22969377D01*
X12562469Y-22239817D01*
X12569905Y-22234831D01*
X12578691Y-22236563D01*
G37*
%TD.AperFunction*%
%TD*%
%TA.AperFunction,Conductor*%
%TO.N,Net-(SW107-B)*%
G36*
X12572729Y-24286427D02*
G01*
X12574425Y-24288575D01*
X12840850Y-24722225D01*
X12842261Y-24731068D01*
X12838628Y-24737118D01*
X12453747Y-25077155D01*
X12445278Y-25080065D01*
X12438253Y-25077155D01*
X12053371Y-24737118D01*
X12049440Y-24729072D01*
X12051149Y-24722225D01*
X12317575Y-24288575D01*
X12324826Y-24283320D01*
X12327544Y-24283000D01*
X12564456Y-24283000D01*
X12572729Y-24286427D01*
G37*
%TD.AperFunction*%
%TD*%
%TA.AperFunction,Conductor*%
%TO.N,Net-(SW107-C)*%
G36*
X14934395Y-17940843D02*
G01*
X15240403Y-18095525D01*
X15479842Y-18216558D01*
X15485680Y-18223349D01*
X15485006Y-18232278D01*
X15479842Y-18237442D01*
X14934403Y-18513152D01*
X14925474Y-18513826D01*
X14924625Y-18513510D01*
X14544200Y-18354999D01*
X14537881Y-18348654D01*
X14537000Y-18344199D01*
X14537000Y-18109800D01*
X14540427Y-18101527D01*
X14544200Y-18099000D01*
X14924626Y-17940488D01*
X14933580Y-17940470D01*
X14934395Y-17940843D01*
G37*
%TD.AperFunction*%
%TD*%
%TA.AperFunction,Conductor*%
%TO.N,/IR_RECV*%
G36*
X32884801Y-27211427D02*
G01*
X32888156Y-27218408D01*
X32911464Y-27428173D01*
X32911500Y-27428819D01*
X32911500Y-27433903D01*
X32911212Y-27436483D01*
X32773411Y-28046020D01*
X32768244Y-28053334D01*
X32759419Y-28054852D01*
X32752105Y-28049685D01*
X32750588Y-28046024D01*
X32647138Y-27588429D01*
X32612787Y-27436480D01*
X32612499Y-27433900D01*
X32612499Y-27428828D01*
X32612535Y-27428182D01*
X32635844Y-27218408D01*
X32640163Y-27210564D01*
X32647472Y-27208000D01*
X32876528Y-27208000D01*
X32884801Y-27211427D01*
G37*
%TD.AperFunction*%
%TD*%
%TA.AperFunction,Conductor*%
%TO.N,/IR_RECV*%
G36*
X55665885Y-6737192D02*
G01*
X56206105Y-7229934D01*
X56209908Y-7238041D01*
X56208920Y-7243312D01*
X55786082Y-8199034D01*
X55779600Y-8205213D01*
X55775382Y-8206000D01*
X55540618Y-8206000D01*
X55532345Y-8202573D01*
X55529918Y-8199034D01*
X55107078Y-7243310D01*
X55106866Y-7234360D01*
X55109892Y-7229936D01*
X55650115Y-6737191D01*
X55658537Y-6734148D01*
X55665885Y-6737192D01*
G37*
%TD.AperFunction*%
%TD*%
M02*
