%TF.GenerationSoftware,KiCad,Pcbnew,7.0.5-0*%
%TF.CreationDate,2023-06-05T19:49:20-04:00*%
%TF.ProjectId,7-segment-display-controller,372d7365-676d-4656-9e74-2d646973706c,B*%
%TF.SameCoordinates,Original*%
%TF.FileFunction,Copper,L1,Top*%
%TF.FilePolarity,Positive*%
%FSLAX46Y46*%
G04 Gerber Fmt 4.6, Leading zero omitted, Abs format (unit mm)*
G04 Created by KiCad (PCBNEW 7.0.5-0) date 2023-06-05 19:49:20*
%MOMM*%
%LPD*%
G01*
G04 APERTURE LIST*
G04 Aperture macros list*
%AMRoundRect*
0 Rectangle with rounded corners*
0 $1 Rounding radius*
0 $2 $3 $4 $5 $6 $7 $8 $9 X,Y pos of 4 corners*
0 Add a 4 corners polygon primitive as box body*
4,1,4,$2,$3,$4,$5,$6,$7,$8,$9,$2,$3,0*
0 Add four circle primitives for the rounded corners*
1,1,$1+$1,$2,$3*
1,1,$1+$1,$4,$5*
1,1,$1+$1,$6,$7*
1,1,$1+$1,$8,$9*
0 Add four rect primitives between the rounded corners*
20,1,$1+$1,$2,$3,$4,$5,0*
20,1,$1+$1,$4,$5,$6,$7,0*
20,1,$1+$1,$6,$7,$8,$9,0*
20,1,$1+$1,$8,$9,$2,$3,0*%
%AMFreePoly0*
4,1,19,0.550000,-0.750000,0.000000,-0.750000,0.000000,-0.744911,-0.071157,-0.744911,-0.207708,-0.704816,-0.327430,-0.627875,-0.420627,-0.520320,-0.479746,-0.390866,-0.500000,-0.250000,-0.500000,0.250000,-0.479746,0.390866,-0.420627,0.520320,-0.327430,0.627875,-0.207708,0.704816,-0.071157,0.744911,0.000000,0.744911,0.000000,0.750000,0.550000,0.750000,0.550000,-0.750000,0.550000,-0.750000,
$1*%
%AMFreePoly1*
4,1,19,0.000000,0.744911,0.071157,0.744911,0.207708,0.704816,0.327430,0.627875,0.420627,0.520320,0.479746,0.390866,0.500000,0.250000,0.500000,-0.250000,0.479746,-0.390866,0.420627,-0.520320,0.327430,-0.627875,0.207708,-0.704816,0.071157,-0.744911,0.000000,-0.744911,0.000000,-0.750000,-0.550000,-0.750000,-0.550000,0.750000,0.000000,0.750000,0.000000,0.744911,0.000000,0.744911,
$1*%
G04 Aperture macros list end*
%TA.AperFunction,SMDPad,CuDef*%
%ADD10RoundRect,0.150000X-0.587500X-0.150000X0.587500X-0.150000X0.587500X0.150000X-0.587500X0.150000X0*%
%TD*%
%TA.AperFunction,SMDPad,CuDef*%
%ADD11RoundRect,0.200000X0.275000X-0.200000X0.275000X0.200000X-0.275000X0.200000X-0.275000X-0.200000X0*%
%TD*%
%TA.AperFunction,SMDPad,CuDef*%
%ADD12RoundRect,0.200000X-0.200000X-0.275000X0.200000X-0.275000X0.200000X0.275000X-0.200000X0.275000X0*%
%TD*%
%TA.AperFunction,ComponentPad*%
%ADD13R,1.700000X1.700000*%
%TD*%
%TA.AperFunction,ComponentPad*%
%ADD14O,1.700000X1.700000*%
%TD*%
%TA.AperFunction,SMDPad,CuDef*%
%ADD15RoundRect,0.225000X-0.250000X0.225000X-0.250000X-0.225000X0.250000X-0.225000X0.250000X0.225000X0*%
%TD*%
%TA.AperFunction,SMDPad,CuDef*%
%ADD16R,1.500000X2.000000*%
%TD*%
%TA.AperFunction,SMDPad,CuDef*%
%ADD17R,3.800000X2.000000*%
%TD*%
%TA.AperFunction,SMDPad,CuDef*%
%ADD18R,1.000000X1.800000*%
%TD*%
%TA.AperFunction,SMDPad,CuDef*%
%ADD19RoundRect,0.218750X0.218750X0.256250X-0.218750X0.256250X-0.218750X-0.256250X0.218750X-0.256250X0*%
%TD*%
%TA.AperFunction,SMDPad,CuDef*%
%ADD20RoundRect,0.225000X-0.225000X-0.250000X0.225000X-0.250000X0.225000X0.250000X-0.225000X0.250000X0*%
%TD*%
%TA.AperFunction,ComponentPad*%
%ADD21C,0.800000*%
%TD*%
%TA.AperFunction,ComponentPad*%
%ADD22C,6.400000*%
%TD*%
%TA.AperFunction,SMDPad,CuDef*%
%ADD23R,0.400000X1.350000*%
%TD*%
%TA.AperFunction,ComponentPad*%
%ADD24O,1.200000X1.900000*%
%TD*%
%TA.AperFunction,SMDPad,CuDef*%
%ADD25R,1.200000X1.900000*%
%TD*%
%TA.AperFunction,ComponentPad*%
%ADD26C,1.450000*%
%TD*%
%TA.AperFunction,SMDPad,CuDef*%
%ADD27R,1.500000X1.900000*%
%TD*%
%TA.AperFunction,ComponentPad*%
%ADD28RoundRect,0.250000X0.350000X0.625000X-0.350000X0.625000X-0.350000X-0.625000X0.350000X-0.625000X0*%
%TD*%
%TA.AperFunction,ComponentPad*%
%ADD29O,1.200000X1.750000*%
%TD*%
%TA.AperFunction,SMDPad,CuDef*%
%ADD30RoundRect,0.225000X0.250000X-0.225000X0.250000X0.225000X-0.250000X0.225000X-0.250000X-0.225000X0*%
%TD*%
%TA.AperFunction,SMDPad,CuDef*%
%ADD31FreePoly0,180.000000*%
%TD*%
%TA.AperFunction,SMDPad,CuDef*%
%ADD32R,1.000000X1.500000*%
%TD*%
%TA.AperFunction,SMDPad,CuDef*%
%ADD33FreePoly1,180.000000*%
%TD*%
%TA.AperFunction,SMDPad,CuDef*%
%ADD34RoundRect,0.150000X0.150000X-0.512500X0.150000X0.512500X-0.150000X0.512500X-0.150000X-0.512500X0*%
%TD*%
%TA.AperFunction,SMDPad,CuDef*%
%ADD35RoundRect,0.150000X-0.150000X0.512500X-0.150000X-0.512500X0.150000X-0.512500X0.150000X0.512500X0*%
%TD*%
%TA.AperFunction,SMDPad,CuDef*%
%ADD36C,0.787000*%
%TD*%
%TA.AperFunction,SMDPad,CuDef*%
%ADD37RoundRect,0.250000X0.650000X-1.000000X0.650000X1.000000X-0.650000X1.000000X-0.650000X-1.000000X0*%
%TD*%
%TA.AperFunction,SMDPad,CuDef*%
%ADD38RoundRect,0.075000X0.700000X0.075000X-0.700000X0.075000X-0.700000X-0.075000X0.700000X-0.075000X0*%
%TD*%
%TA.AperFunction,SMDPad,CuDef*%
%ADD39RoundRect,0.075000X0.075000X0.700000X-0.075000X0.700000X-0.075000X-0.700000X0.075000X-0.700000X0*%
%TD*%
%TA.AperFunction,ComponentPad*%
%ADD40RoundRect,0.250000X-0.725000X0.600000X-0.725000X-0.600000X0.725000X-0.600000X0.725000X0.600000X0*%
%TD*%
%TA.AperFunction,ComponentPad*%
%ADD41O,1.950000X1.700000*%
%TD*%
%TA.AperFunction,SMDPad,CuDef*%
%ADD42R,1.000000X0.750000*%
%TD*%
%TA.AperFunction,ComponentPad*%
%ADD43C,1.500000*%
%TD*%
%TA.AperFunction,SMDPad,CuDef*%
%ADD44RoundRect,0.575000X-1.625000X-0.575000X1.625000X-0.575000X1.625000X0.575000X-1.625000X0.575000X0*%
%TD*%
%TA.AperFunction,SMDPad,CuDef*%
%ADD45RoundRect,0.575000X-1.425000X-0.575000X1.425000X-0.575000X1.425000X0.575000X-1.425000X0.575000X0*%
%TD*%
%TA.AperFunction,SMDPad,CuDef*%
%ADD46RoundRect,0.250000X-1.500000X-0.550000X1.500000X-0.550000X1.500000X0.550000X-1.500000X0.550000X0*%
%TD*%
%TA.AperFunction,SMDPad,CuDef*%
%ADD47R,1.200000X1.400000*%
%TD*%
%TA.AperFunction,SMDPad,CuDef*%
%ADD48RoundRect,0.150000X-0.150000X0.825000X-0.150000X-0.825000X0.150000X-0.825000X0.150000X0.825000X0*%
%TD*%
%TA.AperFunction,ComponentPad*%
%ADD49RoundRect,0.250000X0.625000X-0.350000X0.625000X0.350000X-0.625000X0.350000X-0.625000X-0.350000X0*%
%TD*%
%TA.AperFunction,ComponentPad*%
%ADD50O,1.750000X1.200000*%
%TD*%
%TA.AperFunction,SMDPad,CuDef*%
%ADD51R,0.800000X0.500000*%
%TD*%
%TA.AperFunction,SMDPad,CuDef*%
%ADD52R,0.800000X0.400000*%
%TD*%
%TA.AperFunction,SMDPad,CuDef*%
%ADD53RoundRect,0.250000X-0.450000X0.325000X-0.450000X-0.325000X0.450000X-0.325000X0.450000X0.325000X0*%
%TD*%
%TA.AperFunction,ComponentPad*%
%ADD54RoundRect,0.250000X-0.350000X-0.625000X0.350000X-0.625000X0.350000X0.625000X-0.350000X0.625000X0*%
%TD*%
%TA.AperFunction,SMDPad,CuDef*%
%ADD55RoundRect,0.225000X0.225000X0.250000X-0.225000X0.250000X-0.225000X-0.250000X0.225000X-0.250000X0*%
%TD*%
%TA.AperFunction,SMDPad,CuDef*%
%ADD56R,0.650000X0.400000*%
%TD*%
%TA.AperFunction,SMDPad,CuDef*%
%ADD57R,0.760000X1.270000*%
%TD*%
%TA.AperFunction,SMDPad,CuDef*%
%ADD58RoundRect,0.250000X0.625000X-0.375000X0.625000X0.375000X-0.625000X0.375000X-0.625000X-0.375000X0*%
%TD*%
%TA.AperFunction,ComponentPad*%
%ADD59RoundRect,0.250000X-0.625000X0.350000X-0.625000X-0.350000X0.625000X-0.350000X0.625000X0.350000X0*%
%TD*%
%TA.AperFunction,ViaPad*%
%ADD60C,0.800000*%
%TD*%
%TA.AperFunction,Conductor*%
%ADD61C,0.250000*%
%TD*%
%TA.AperFunction,Conductor*%
%ADD62C,0.500000*%
%TD*%
%TA.AperFunction,Conductor*%
%ADD63C,0.350000*%
%TD*%
%TA.AperFunction,Conductor*%
%ADD64C,1.000000*%
%TD*%
%TA.AperFunction,Conductor*%
%ADD65C,2.000000*%
%TD*%
%TA.AperFunction,Conductor*%
%ADD66C,0.400000*%
%TD*%
%TA.AperFunction,Conductor*%
%ADD67C,0.267200*%
%TD*%
G04 APERTURE END LIST*
D10*
%TO.P,Q101,1,G*%
%TO.N,+3V3*%
X47449500Y-41468000D03*
%TO.P,Q101,2,S*%
%TO.N,/VBAT*%
X47449500Y-43368000D03*
%TO.P,Q101,3,D*%
%TO.N,/BAT+*%
X49324500Y-42418000D03*
%TD*%
D11*
%TO.P,R110,1*%
%TO.N,/SCL*%
X24892000Y-28003000D03*
%TO.P,R110,2*%
%TO.N,+3V3*%
X24892000Y-26353000D03*
%TD*%
D12*
%TO.P,R102,1*%
%TO.N,Net-(D102-K)*%
X55819200Y-19920800D03*
%TO.P,R102,2*%
%TO.N,GND*%
X57469200Y-19920800D03*
%TD*%
D13*
%TO.P,OLED101,1,GND*%
%TO.N,GND*%
X13388000Y-11079000D03*
D14*
%TO.P,OLED101,2,VCC*%
%TO.N,+3V3*%
X13388000Y-8539000D03*
%TO.P,OLED101,3,SCL*%
%TO.N,/SCL*%
X13388000Y-5999000D03*
%TO.P,OLED101,4,SDA*%
%TO.N,/SDA*%
X13388000Y-3459000D03*
%TD*%
D15*
%TO.P,C107,1*%
%TO.N,+3.3VA*%
X42926000Y-25996600D03*
%TO.P,C107,2*%
%TO.N,GND*%
X42926000Y-27546600D03*
%TD*%
D16*
%TO.P,U201,1,GND*%
%TO.N,GND*%
X3045700Y-41402400D03*
%TO.P,U201,2,VO*%
%TO.N,+3V3*%
X5345700Y-41402400D03*
D17*
X5345700Y-35102400D03*
D16*
%TO.P,U201,3,VI*%
%TO.N,/LDO_3V3/5V*%
X7645700Y-41402400D03*
%TD*%
D12*
%TO.P,R101,1*%
%TO.N,Net-(D101-K)*%
X55880000Y-22156000D03*
%TO.P,R101,2*%
%TO.N,GND*%
X57530000Y-22156000D03*
%TD*%
D18*
%TO.P,Y103,1,1*%
%TO.N,/LSE_OUT*%
X42652000Y-35687000D03*
%TO.P,Y103,2,2*%
%TO.N,/LSE_IN*%
X40152000Y-35687000D03*
%TD*%
D19*
%TO.P,D101,1,K*%
%TO.N,Net-(D101-K)*%
X54165100Y-22181400D03*
%TO.P,D101,2,A*%
%TO.N,/LED_HB*%
X52590100Y-22181400D03*
%TD*%
D20*
%TO.P,C109,1*%
%TO.N,Net-(C109-Pad1)*%
X44894200Y-30632400D03*
%TO.P,C109,2*%
%TO.N,GND*%
X46444200Y-30632400D03*
%TD*%
D21*
%TO.P,H104,1,1*%
%TO.N,GND*%
X2807000Y-48768000D03*
X3509944Y-47070944D03*
X3509944Y-50465056D03*
X5207000Y-46368000D03*
D22*
X5207000Y-48768000D03*
D21*
X5207000Y-51168000D03*
X6904056Y-47070944D03*
X6904056Y-50465056D03*
X7607000Y-48768000D03*
%TD*%
D15*
%TO.P,C116,1*%
%TO.N,/VBAT*%
X38557200Y-40931800D03*
%TO.P,C116,2*%
%TO.N,GND*%
X38557200Y-42481800D03*
%TD*%
D23*
%TO.P,J102,1,VBUS*%
%TO.N,VBUS*%
X21890200Y-49794700D03*
%TO.P,J102,2,D-*%
%TO.N,/USB_D_N*%
X22540200Y-49794700D03*
%TO.P,J102,3,D+*%
%TO.N,/USB_D_P*%
X23190200Y-49794700D03*
%TO.P,J102,4,ID*%
%TO.N,unconnected-(J102-ID-Pad4)*%
X23840200Y-49794700D03*
%TO.P,J102,5,GND*%
%TO.N,GND*%
X24490200Y-49794700D03*
D24*
%TO.P,J102,6,Shield*%
X19690200Y-52494700D03*
D25*
X20290200Y-52494700D03*
D26*
X20690200Y-49794700D03*
D27*
X22190200Y-52494700D03*
X24190200Y-52494700D03*
D26*
X25690200Y-49794700D03*
D25*
X26090200Y-52494700D03*
D24*
X26690200Y-52494700D03*
%TD*%
D28*
%TO.P,J106,1,Pin_1*%
%TO.N,+3V3*%
X57658000Y-6731000D03*
D29*
%TO.P,J106,2,Pin_2*%
%TO.N,/IR_RECV*%
X55658000Y-6731000D03*
%TO.P,J106,3,Pin_3*%
%TO.N,GND*%
X53658000Y-6731000D03*
%TD*%
D15*
%TO.P,C201,1*%
%TO.N,GND*%
X9779000Y-39179200D03*
%TO.P,C201,2*%
%TO.N,/LDO_3V3/5V*%
X9779000Y-40729200D03*
%TD*%
D30*
%TO.P,C104,1*%
%TO.N,+3V3*%
X25019000Y-34049000D03*
%TO.P,C104,2*%
%TO.N,GND*%
X25019000Y-32499000D03*
%TD*%
D31*
%TO.P,SW107,1,A*%
%TO.N,/RGB_LED*%
X13873000Y-21717000D03*
D32*
%TO.P,SW107,2,B*%
%TO.N,Net-(SW107-B)*%
X12573000Y-21717000D03*
D33*
%TO.P,SW107,3,C*%
%TO.N,Net-(SW107-C)*%
X11273000Y-21717000D03*
%TD*%
D30*
%TO.P,C112,1*%
%TO.N,GND*%
X40132000Y-39129000D03*
%TO.P,C112,2*%
%TO.N,/LSE_IN*%
X40132000Y-37579000D03*
%TD*%
D15*
%TO.P,C106,1*%
%TO.N,+3.3VA*%
X41198800Y-25996600D03*
%TO.P,C106,2*%
%TO.N,GND*%
X41198800Y-27546600D03*
%TD*%
D20*
%TO.P,C111,1*%
%TO.N,+3V3*%
X36156600Y-20370800D03*
%TO.P,C111,2*%
%TO.N,GND*%
X37706600Y-20370800D03*
%TD*%
D34*
%TO.P,U102,1,I/O1*%
%TO.N,/USB_D_N*%
X21935400Y-45485900D03*
%TO.P,U102,2,GND*%
%TO.N,GND*%
X22885400Y-45485900D03*
%TO.P,U102,3,I/O2*%
%TO.N,/USB_D_P*%
X23835400Y-45485900D03*
%TO.P,U102,4,I/O2*%
%TO.N,/D_P*%
X23835400Y-43210900D03*
%TO.P,U102,5,VBUS*%
%TO.N,VBUS*%
X22885400Y-43210900D03*
%TO.P,U102,6,I/O1*%
%TO.N,/D_N*%
X21935400Y-43210900D03*
%TD*%
D35*
%TO.P,U103,1*%
%TO.N,/~{OE}*%
X14031000Y-16769500D03*
%TO.P,U103,2*%
%TO.N,/RGB_LED*%
X13081000Y-16769500D03*
%TO.P,U103,3,GND*%
%TO.N,GND*%
X12131000Y-16769500D03*
%TO.P,U103,4*%
%TO.N,Net-(SW107-C)*%
X12131000Y-19044500D03*
%TO.P,U103,5,VCC*%
%TO.N,+5V*%
X14031000Y-19044500D03*
%TD*%
D36*
%TO.P,J101,1,Pin_1*%
%TO.N,unconnected-(J101-Pin_1-Pad1)*%
X24892000Y-19812000D03*
%TO.P,J101,2,Pin_2*%
%TO.N,/SWDIO*%
X23622000Y-19812000D03*
%TO.P,J101,3,Pin_3*%
%TO.N,/NRST*%
X24892000Y-18542000D03*
%TO.P,J101,4,Pin_4*%
%TO.N,/SWCLK*%
X23622000Y-18542000D03*
%TO.P,J101,5,Pin_5*%
%TO.N,GND*%
X24892000Y-17272000D03*
%TO.P,J101,6,Pin_6*%
%TO.N,/SWO*%
X23622000Y-17272000D03*
%TD*%
D37*
%TO.P,D106,1,K*%
%TO.N,/VBAT*%
X43942000Y-47339000D03*
%TO.P,D106,2,A*%
%TO.N,+3V3*%
X43942000Y-43339000D03*
%TD*%
D38*
%TO.P,U101,1,VBAT*%
%TO.N,/VBAT*%
X38695000Y-32960000D03*
%TO.P,U101,2,PC13*%
%TO.N,unconnected-(U101-PC13-Pad2)*%
X38695000Y-32460000D03*
%TO.P,U101,3,PC14*%
%TO.N,/LSE_IN*%
X38695000Y-31960000D03*
%TO.P,U101,4,PC15*%
%TO.N,/LSE_OUT*%
X38695000Y-31460000D03*
%TO.P,U101,5,PH0*%
%TO.N,/HSE_IN*%
X38695000Y-30960000D03*
%TO.P,U101,6,PH1*%
%TO.N,/HSE_OUT*%
X38695000Y-30460000D03*
%TO.P,U101,7,NRST*%
%TO.N,/NRST*%
X38695000Y-29960000D03*
%TO.P,U101,8,PC0*%
%TO.N,unconnected-(U101-PC0-Pad8)*%
X38695000Y-29460000D03*
%TO.P,U101,9,PC1*%
%TO.N,unconnected-(U101-PC1-Pad9)*%
X38695000Y-28960000D03*
%TO.P,U101,10,PC2*%
%TO.N,unconnected-(U101-PC2-Pad10)*%
X38695000Y-28460000D03*
%TO.P,U101,11,PC3*%
%TO.N,unconnected-(U101-PC3-Pad11)*%
X38695000Y-27960000D03*
%TO.P,U101,12,VSSA*%
%TO.N,GND*%
X38695000Y-27460000D03*
%TO.P,U101,13,VREF+*%
%TO.N,+3.3VA*%
X38695000Y-26960000D03*
%TO.P,U101,14,PA0*%
%TO.N,unconnected-(U101-PA0-Pad14)*%
X38695000Y-26460000D03*
%TO.P,U101,15,PA1*%
%TO.N,unconnected-(U101-PA1-Pad15)*%
X38695000Y-25960000D03*
%TO.P,U101,16,PA2*%
%TO.N,/UART_TX*%
X38695000Y-25460000D03*
D39*
%TO.P,U101,17,PA3*%
%TO.N,/UART_RX*%
X36770000Y-23535000D03*
%TO.P,U101,18,VSS*%
%TO.N,GND*%
X36270000Y-23535000D03*
%TO.P,U101,19,VDD*%
%TO.N,+3V3*%
X35770000Y-23535000D03*
%TO.P,U101,20,PA4*%
%TO.N,/IR_RECV*%
X35270000Y-23535000D03*
%TO.P,U101,21,PA5*%
%TO.N,/LED_UI*%
X34770000Y-23535000D03*
%TO.P,U101,22,PA6*%
%TO.N,/RGB_LED*%
X34270000Y-23535000D03*
%TO.P,U101,23,PA7*%
%TO.N,/LED_HB*%
X33770000Y-23535000D03*
%TO.P,U101,24,PC4*%
%TO.N,unconnected-(U101-PC4-Pad24)*%
X33270000Y-23535000D03*
%TO.P,U101,25,PC5*%
%TO.N,unconnected-(U101-PC5-Pad25)*%
X32770000Y-23535000D03*
%TO.P,U101,26,PB0*%
%TO.N,unconnected-(U101-PB0-Pad26)*%
X32270000Y-23535000D03*
%TO.P,U101,27,PB1*%
%TO.N,unconnected-(U101-PB1-Pad27)*%
X31770000Y-23535000D03*
%TO.P,U101,28,PB2*%
%TO.N,/~{OE}*%
X31270000Y-23535000D03*
%TO.P,U101,29,PB10*%
%TO.N,unconnected-(U101-PB10-Pad29)*%
X30770000Y-23535000D03*
%TO.P,U101,30,VCAP1*%
%TO.N,Net-(U101-VCAP1)*%
X30270000Y-23535000D03*
%TO.P,U101,31,VSS*%
%TO.N,GND*%
X29770000Y-23535000D03*
%TO.P,U101,32,VDD*%
%TO.N,+3V3*%
X29270000Y-23535000D03*
D38*
%TO.P,U101,33,PB12*%
%TO.N,/~{EEPROM}*%
X27345000Y-25460000D03*
%TO.P,U101,34,PB13*%
%TO.N,unconnected-(U101-PB13-Pad34)*%
X27345000Y-25960000D03*
%TO.P,U101,35,PB14*%
%TO.N,unconnected-(U101-PB14-Pad35)*%
X27345000Y-26460000D03*
%TO.P,U101,36,PB15*%
%TO.N,unconnected-(U101-PB15-Pad36)*%
X27345000Y-26960000D03*
%TO.P,U101,37,PC6*%
%TO.N,unconnected-(U101-PC6-Pad37)*%
X27345000Y-27460000D03*
%TO.P,U101,38,PC7*%
%TO.N,unconnected-(U101-PC7-Pad38)*%
X27345000Y-27960000D03*
%TO.P,U101,39,PC8*%
%TO.N,unconnected-(U101-PC8-Pad39)*%
X27345000Y-28460000D03*
%TO.P,U101,40,PC9*%
%TO.N,unconnected-(U101-PC9-Pad40)*%
X27345000Y-28960000D03*
%TO.P,U101,41,PA8*%
%TO.N,unconnected-(U101-PA8-Pad41)*%
X27345000Y-29460000D03*
%TO.P,U101,42,PA9*%
%TO.N,unconnected-(U101-PA9-Pad42)*%
X27345000Y-29960000D03*
%TO.P,U101,43,PA10*%
%TO.N,unconnected-(U101-PA10-Pad43)*%
X27345000Y-30460000D03*
%TO.P,U101,44,PA11*%
%TO.N,/D_N*%
X27345000Y-30960000D03*
%TO.P,U101,45,PA12*%
%TO.N,/D_P*%
X27345000Y-31460000D03*
%TO.P,U101,46,PA13*%
%TO.N,/SWDIO*%
X27345000Y-31960000D03*
%TO.P,U101,47,VSS*%
%TO.N,GND*%
X27345000Y-32460000D03*
%TO.P,U101,48,VDD*%
%TO.N,+3V3*%
X27345000Y-32960000D03*
D39*
%TO.P,U101,49,PA14*%
%TO.N,/SWCLK*%
X29270000Y-34885000D03*
%TO.P,U101,50,PA15*%
%TO.N,unconnected-(U101-PA15-Pad50)*%
X29770000Y-34885000D03*
%TO.P,U101,51,PC10*%
%TO.N,/DIP3*%
X30270000Y-34885000D03*
%TO.P,U101,52,PC11*%
%TO.N,/DIP2*%
X30770000Y-34885000D03*
%TO.P,U101,53,PC12*%
%TO.N,/DIP1*%
X31270000Y-34885000D03*
%TO.P,U101,54,PD2*%
%TO.N,unconnected-(U101-PD2-Pad54)*%
X31770000Y-34885000D03*
%TO.P,U101,55,PB3*%
%TO.N,/SWO*%
X32270000Y-34885000D03*
%TO.P,U101,56,PB4*%
%TO.N,unconnected-(U101-PB4-Pad56)*%
X32770000Y-34885000D03*
%TO.P,U101,57,PB5*%
%TO.N,unconnected-(U101-PB5-Pad57)*%
X33270000Y-34885000D03*
%TO.P,U101,58,PB6*%
%TO.N,/SCL*%
X33770000Y-34885000D03*
%TO.P,U101,59,PB7*%
%TO.N,/SDA*%
X34270000Y-34885000D03*
%TO.P,U101,60,BOOT0*%
%TO.N,/BOOT0*%
X34770000Y-34885000D03*
%TO.P,U101,61,PB8*%
%TO.N,unconnected-(U101-PB8-Pad61)*%
X35270000Y-34885000D03*
%TO.P,U101,62,PB9*%
%TO.N,unconnected-(U101-PB9-Pad62)*%
X35770000Y-34885000D03*
%TO.P,U101,63,VSS*%
%TO.N,GND*%
X36270000Y-34885000D03*
%TO.P,U101,64,VDD*%
%TO.N,+3V3*%
X36770000Y-34885000D03*
%TD*%
D11*
%TO.P,R103,1*%
%TO.N,/HSE_OUT*%
X43383200Y-32219400D03*
%TO.P,R103,2*%
%TO.N,Net-(C109-Pad1)*%
X43383200Y-30569400D03*
%TD*%
D40*
%TO.P,J104,1,Pin_1*%
%TO.N,GND*%
X6731000Y-24297000D03*
D41*
%TO.P,J104,2,Pin_2*%
%TO.N,Net-(J104-Pin_2)*%
X6731000Y-26797000D03*
%TO.P,J104,3,Pin_3*%
%TO.N,+5V*%
X6731000Y-29297000D03*
%TD*%
D19*
%TO.P,D102,1,K*%
%TO.N,Net-(D102-K)*%
X54129700Y-19920800D03*
%TO.P,D102,2,A*%
%TO.N,+3V3*%
X52554700Y-19920800D03*
%TD*%
D42*
%TO.P,SW106,1,1*%
%TO.N,/NRST*%
X60881000Y-11841000D03*
X66881000Y-11841000D03*
%TO.P,SW106,2,2*%
%TO.N,GND*%
X60881000Y-15591000D03*
X66881000Y-15591000D03*
%TD*%
D43*
%TO.P,BT101,*%
%TO.N,*%
X56602800Y-36322000D03*
X64102800Y-36322000D03*
D44*
%TO.P,BT101,1,+*%
%TO.N,/BAT+*%
X52502800Y-36322000D03*
D45*
%TO.P,BT101,2,-*%
%TO.N,GND*%
X68502800Y-36322000D03*
%TD*%
D46*
%TO.P,C115,1*%
%TO.N,+5V*%
X14318000Y-29718000D03*
%TO.P,C115,2*%
%TO.N,GND*%
X19718000Y-29718000D03*
%TD*%
D11*
%TO.P,R104,1*%
%TO.N,Net-(J104-Pin_2)*%
X12446000Y-26733000D03*
%TO.P,R104,2*%
%TO.N,Net-(SW107-B)*%
X12446000Y-25083000D03*
%TD*%
D21*
%TO.P,H103,1,1*%
%TO.N,GND*%
X2807000Y-5080000D03*
X3509944Y-3382944D03*
X3509944Y-6777056D03*
X5207000Y-2680000D03*
D22*
X5207000Y-5080000D03*
D21*
X5207000Y-7480000D03*
X6904056Y-3382944D03*
X6904056Y-6777056D03*
X7607000Y-5080000D03*
%TD*%
D47*
%TO.P,Y101,1,1*%
%TO.N,/HSE_IN*%
X46671600Y-34755000D03*
%TO.P,Y101,2,2*%
%TO.N,GND*%
X46671600Y-32555000D03*
%TO.P,Y101,3,3*%
%TO.N,Net-(C109-Pad1)*%
X44971600Y-32555000D03*
%TO.P,Y101,4,4*%
%TO.N,GND*%
X44971600Y-34755000D03*
%TD*%
D30*
%TO.P,C117,1*%
%TO.N,Net-(U101-VCAP1)*%
X31115000Y-20968000D03*
%TO.P,C117,2*%
%TO.N,GND*%
X31115000Y-19418000D03*
%TD*%
D48*
%TO.P,U104,1,E0*%
%TO.N,GND*%
X20701000Y-17845000D03*
%TO.P,U104,2,E1*%
X19431000Y-17845000D03*
%TO.P,U104,3,E2*%
X18161000Y-17845000D03*
%TO.P,U104,4,VSS*%
X16891000Y-17845000D03*
%TO.P,U104,5,SDA*%
%TO.N,/SDA*%
X16891000Y-22795000D03*
%TO.P,U104,6,SCL*%
%TO.N,/SCL*%
X18161000Y-22795000D03*
%TO.P,U104,7,~{WC}*%
%TO.N,/~{EEPROM}*%
X19431000Y-22795000D03*
%TO.P,U104,8,VCC*%
%TO.N,+3V3*%
X20701000Y-22795000D03*
%TD*%
D11*
%TO.P,R109,1*%
%TO.N,/SDA*%
X23368000Y-28003000D03*
%TO.P,R109,2*%
%TO.N,+3V3*%
X23368000Y-26353000D03*
%TD*%
D49*
%TO.P,J103,1,Pin_1*%
%TO.N,VBUS*%
X64262000Y-25908000D03*
D50*
%TO.P,J103,2,Pin_2*%
%TO.N,/UART_TX*%
X64262000Y-23908000D03*
%TO.P,J103,3,Pin_3*%
%TO.N,/UART_RX*%
X64262000Y-21908000D03*
%TO.P,J103,4,Pin_4*%
%TO.N,GND*%
X64262000Y-19908000D03*
%TD*%
D20*
%TO.P,C103,1*%
%TO.N,+3V3*%
X28054000Y-20955000D03*
%TO.P,C103,2*%
%TO.N,GND*%
X29604000Y-20955000D03*
%TD*%
D12*
%TO.P,R105,1*%
%TO.N,Net-(D107-K)*%
X55829600Y-24467400D03*
%TO.P,R105,2*%
%TO.N,GND*%
X57479600Y-24467400D03*
%TD*%
D21*
%TO.P,H101,1,1*%
%TO.N,GND*%
X63513000Y-5080000D03*
X64215944Y-3382944D03*
X64215944Y-6777056D03*
X65913000Y-2680000D03*
D22*
X65913000Y-5080000D03*
D21*
X65913000Y-7480000D03*
X67610056Y-3382944D03*
X67610056Y-6777056D03*
X68313000Y-5080000D03*
%TD*%
%TO.P,H102,1,1*%
%TO.N,GND*%
X63513000Y-48768000D03*
X64215944Y-47070944D03*
X64215944Y-50465056D03*
X65913000Y-46368000D03*
D22*
X65913000Y-48768000D03*
D21*
X65913000Y-51168000D03*
X67610056Y-47070944D03*
X67610056Y-50465056D03*
X68313000Y-48768000D03*
%TD*%
D51*
%TO.P,RN101,1,R1.1*%
%TO.N,GND*%
X39254000Y-46716800D03*
D52*
%TO.P,RN101,2,R2.1*%
X39254000Y-45916800D03*
%TO.P,RN101,3,R3.1*%
X39254000Y-45116800D03*
D51*
%TO.P,RN101,4,R4.1*%
X39254000Y-44316800D03*
%TO.P,RN101,5,R4.2*%
%TO.N,/BOOT0*%
X37454000Y-44316800D03*
D52*
%TO.P,RN101,6,R3.2*%
%TO.N,/DIP1*%
X37454000Y-45116800D03*
%TO.P,RN101,7,R2.2*%
%TO.N,/DIP2*%
X37454000Y-45916800D03*
D51*
%TO.P,RN101,8,R1.2*%
%TO.N,/DIP3*%
X37454000Y-46716800D03*
%TD*%
D37*
%TO.P,D103,1,K*%
%TO.N,/LDO_3V3/5V*%
X12319000Y-44545000D03*
%TO.P,D103,2,A*%
%TO.N,+5V*%
X12319000Y-40545000D03*
%TD*%
D53*
%TO.P,FB101,1*%
%TO.N,+3.3VA*%
X44704000Y-25645000D03*
%TO.P,FB101,2*%
%TO.N,+3V3*%
X44704000Y-27695000D03*
%TD*%
D54*
%TO.P,J107,1,Pin_1*%
%TO.N,GND*%
X51455000Y-47608000D03*
D29*
%TO.P,J107,2,Pin_2*%
%TO.N,VBUS*%
X53455000Y-47608000D03*
%TD*%
D55*
%TO.P,C118,1*%
%TO.N,+5V*%
X15507000Y-25273000D03*
%TO.P,C118,2*%
%TO.N,GND*%
X13957000Y-25273000D03*
%TD*%
D56*
%TO.P,D104,1,K*%
%TO.N,/SWO*%
X24953000Y-24399000D03*
%TO.P,D104,2,A*%
%TO.N,GND*%
X24953000Y-23749000D03*
%TO.P,D104,3,K*%
%TO.N,/NRST*%
X24953000Y-23099000D03*
%TO.P,D104,4,K*%
%TO.N,/SWCLK*%
X23053000Y-23099000D03*
%TO.P,D104,5,K*%
%TO.N,unconnected-(D104-K-Pad5)*%
X23053000Y-23749000D03*
%TO.P,D104,6,K*%
%TO.N,/SWDIO*%
X23053000Y-24399000D03*
%TD*%
D19*
%TO.P,D107,1,K*%
%TO.N,Net-(D107-K)*%
X54140100Y-24467400D03*
%TO.P,D107,2,A*%
%TO.N,/LED_UI*%
X52565100Y-24467400D03*
%TD*%
D55*
%TO.P,C105,1*%
%TO.N,+3V3*%
X37249400Y-37795200D03*
%TO.P,C105,2*%
%TO.N,GND*%
X35699400Y-37795200D03*
%TD*%
D15*
%TO.P,C114,1*%
%TO.N,/NRST*%
X59182000Y-12941000D03*
%TO.P,C114,2*%
%TO.N,GND*%
X59182000Y-14491000D03*
%TD*%
D57*
%TO.P,SW101,1*%
%TO.N,+3V3*%
X31115000Y-48768000D03*
%TO.P,SW101,2*%
X32385000Y-48768000D03*
%TO.P,SW101,3*%
X33655000Y-48768000D03*
%TO.P,SW101,4*%
X34925000Y-48768000D03*
%TO.P,SW101,5*%
%TO.N,/BOOT0*%
X34925000Y-41148000D03*
%TO.P,SW101,6*%
%TO.N,/DIP1*%
X33655000Y-41148000D03*
%TO.P,SW101,7*%
%TO.N,/DIP2*%
X32385000Y-41148000D03*
%TO.P,SW101,8*%
%TO.N,/DIP3*%
X31115000Y-41148000D03*
%TD*%
D55*
%TO.P,C202,1*%
%TO.N,GND*%
X10046000Y-33020000D03*
%TO.P,C202,2*%
%TO.N,+3V3*%
X8496000Y-33020000D03*
%TD*%
D30*
%TO.P,C113,1*%
%TO.N,GND*%
X42545000Y-39129000D03*
%TO.P,C113,2*%
%TO.N,/LSE_OUT*%
X42545000Y-37579000D03*
%TD*%
D15*
%TO.P,C101,1*%
%TO.N,/VBAT*%
X40081200Y-40931800D03*
%TO.P,C101,2*%
%TO.N,GND*%
X40081200Y-42481800D03*
%TD*%
D58*
%TO.P,F101,1*%
%TO.N,VBUS*%
X15240000Y-44326000D03*
%TO.P,F101,2*%
%TO.N,+5V*%
X15240000Y-41526000D03*
%TD*%
D59*
%TO.P,J105,1,Pin_1*%
%TO.N,+3V3*%
X6207000Y-12605000D03*
D50*
%TO.P,J105,2,Pin_2*%
%TO.N,/SCL*%
X6207000Y-14605000D03*
%TO.P,J105,3,Pin_3*%
%TO.N,/SDA*%
X6207000Y-16605000D03*
%TO.P,J105,4,Pin_4*%
%TO.N,GND*%
X6207000Y-18605000D03*
%TD*%
D20*
%TO.P,C102,1*%
%TO.N,+3V3*%
X28054000Y-19431000D03*
%TO.P,C102,2*%
%TO.N,GND*%
X29604000Y-19431000D03*
%TD*%
D30*
%TO.P,C108,1*%
%TO.N,/HSE_IN*%
X48425600Y-34963400D03*
%TO.P,C108,2*%
%TO.N,GND*%
X48425600Y-33413400D03*
%TD*%
D60*
%TO.N,GND*%
X49657000Y-35941000D03*
X19685000Y-31115000D03*
X13843000Y-24003000D03*
X58801000Y-24511000D03*
X41275000Y-39116000D03*
X24511000Y-48499900D03*
X38735000Y-38481000D03*
X10033000Y-34163000D03*
X42875200Y-28651200D03*
X35687000Y-38862000D03*
X38354000Y-35052000D03*
X29591000Y-18288000D03*
X40335200Y-46736000D03*
X23876000Y-32639000D03*
X17526000Y-16002000D03*
X37732000Y-19253200D03*
X43611800Y-37236400D03*
X47599600Y-30632400D03*
X31115000Y-18288000D03*
X26919701Y-23245299D03*
X41198800Y-28600400D03*
X41986200Y-30403800D03*
X59182000Y-15621000D03*
X26670000Y-17272000D03*
X64516000Y-38404800D03*
X37338000Y-42164000D03*
X9779000Y-38100000D03*
X49403000Y-29591000D03*
X58801000Y-19964400D03*
X44932600Y-36449000D03*
X2971800Y-43129200D03*
X17272000Y-29718000D03*
X20066000Y-16002000D03*
X1701800Y-43129200D03*
X58808200Y-22156000D03*
X25146000Y-44323000D03*
X12065000Y-15240000D03*
X48425600Y-32258000D03*
%TO.N,+3V3*%
X43942000Y-41148000D03*
X6477000Y-33020000D03*
X23876000Y-34163000D03*
X46126400Y-27686000D03*
X52552600Y-18389600D03*
X28067000Y-18288000D03*
X20701000Y-24511000D03*
X37592000Y-38862000D03*
X22225000Y-26416000D03*
X2413000Y-33020000D03*
X4445000Y-33020000D03*
X36182000Y-19253200D03*
X32893000Y-50292000D03*
%TO.N,/NRST*%
X50038000Y-19177000D03*
X26416000Y-21971000D03*
X36449000Y-27305000D03*
%TO.N,/LED_HB*%
X33274000Y-20193000D03*
X45847000Y-22352000D03*
%TO.N,/SWO*%
X26924000Y-24384000D03*
X22225000Y-17272000D03*
X32258000Y-30861000D03*
%TO.N,/SWCLK*%
X30861000Y-30734000D03*
X21971000Y-22606000D03*
%TO.N,/SWDIO*%
X21971000Y-24384000D03*
X29337000Y-29210000D03*
%TO.N,VBUS*%
X17783000Y-44326000D03*
X18415000Y-45974000D03*
X15367000Y-45974000D03*
X16891000Y-45974000D03*
%TO.N,/VBAT*%
X36897000Y-32960000D03*
X37338000Y-41021000D03*
%TO.N,/LED_UI*%
X34798000Y-25908000D03*
X46228000Y-24384000D03*
%TO.N,/SCL*%
X33147000Y-32258000D03*
X24892000Y-29083000D03*
X18161000Y-24638000D03*
%TO.N,/SDA*%
X34290000Y-33274000D03*
X23368000Y-29210000D03*
X16891000Y-24638000D03*
%TD*%
D61*
%TO.N,/BAT+*%
X51690000Y-41020000D02*
X50292000Y-42418000D01*
X50292000Y-42418000D02*
X49324500Y-42418000D01*
X52502800Y-36322000D02*
X51690000Y-37134800D01*
X51690000Y-37134800D02*
X51690000Y-41020000D01*
%TO.N,GND*%
X10046000Y-33020000D02*
X10046000Y-34150000D01*
D62*
X37732000Y-19253200D02*
X37732000Y-20345400D01*
D61*
X43611800Y-38684200D02*
X43611800Y-37236400D01*
X43249000Y-33470000D02*
X42434804Y-33470000D01*
X12131000Y-15306000D02*
X12065000Y-15240000D01*
D62*
X44971600Y-36410000D02*
X44971600Y-34755000D01*
D61*
X59182000Y-15621000D02*
X60851000Y-15621000D01*
X58757400Y-24467400D02*
X58801000Y-24511000D01*
X43180000Y-39116000D02*
X43611800Y-38684200D01*
D62*
X29591000Y-18288000D02*
X29604000Y-18301000D01*
X24892000Y-17272000D02*
X26670000Y-17272000D01*
X19685000Y-29751000D02*
X19718000Y-29718000D01*
D61*
X12131000Y-16769500D02*
X12131000Y-15306000D01*
X49657000Y-29845000D02*
X49657000Y-35941000D01*
X39776400Y-42177000D02*
X40081200Y-42481800D01*
X44932600Y-36449000D02*
X44450000Y-36449000D01*
X49657000Y-36195000D02*
X49403000Y-36449000D01*
X38557200Y-42481800D02*
X38252400Y-42177000D01*
X42799000Y-29591000D02*
X41986200Y-30403800D01*
D62*
X13843000Y-24003000D02*
X13957000Y-24117000D01*
X13957000Y-24117000D02*
X13957000Y-25273000D01*
D61*
X37338000Y-42164000D02*
X37439000Y-42164000D01*
X37452000Y-42177000D02*
X39776400Y-42177000D01*
X24490200Y-49794700D02*
X24490200Y-48520700D01*
D63*
X23469600Y-44323000D02*
X22885400Y-44907200D01*
D61*
X35699400Y-36563600D02*
X36270000Y-35993000D01*
X37439000Y-42164000D02*
X37452000Y-42177000D01*
X42875200Y-28651200D02*
X42875200Y-27597400D01*
X43053000Y-33909000D02*
X42291000Y-33909000D01*
D62*
X66649600Y-36322000D02*
X68502800Y-36322000D01*
X37732000Y-20345400D02*
X37706600Y-20370800D01*
D61*
X38252400Y-42177000D02*
X37452000Y-42177000D01*
X43561000Y-34417000D02*
X43053000Y-33909000D01*
X10046000Y-34150000D02*
X10033000Y-34163000D01*
D62*
X29604000Y-20955000D02*
X29604000Y-19431000D01*
D61*
X26152695Y-23749000D02*
X24953000Y-23749000D01*
X29770000Y-23535000D02*
X29770000Y-21121000D01*
X43561000Y-37185600D02*
X43561000Y-34417000D01*
D62*
X48425600Y-32258000D02*
X47599600Y-32258000D01*
X40335200Y-46736000D02*
X40316000Y-46716800D01*
X47599600Y-30632400D02*
X46444200Y-30632400D01*
X44932600Y-36449000D02*
X44971600Y-36410000D01*
D61*
X49657000Y-35941000D02*
X49657000Y-36195000D01*
X57479600Y-24467400D02*
X58757400Y-24467400D01*
X42875200Y-27597400D02*
X42926000Y-27546600D01*
X39370000Y-39116000D02*
X41275000Y-39116000D01*
X26656396Y-23245299D02*
X26152695Y-23749000D01*
X59182000Y-14491000D02*
X59182000Y-15621000D01*
X36270000Y-35993000D02*
X36270000Y-34885000D01*
X49403000Y-29591000D02*
X49657000Y-29845000D01*
D62*
X29604000Y-18301000D02*
X29604000Y-19431000D01*
X23876000Y-32639000D02*
X24879000Y-32639000D01*
X64516000Y-38404800D02*
X64566800Y-38404800D01*
D61*
X43942000Y-35941000D02*
X43942000Y-34163000D01*
X44450000Y-36449000D02*
X43942000Y-35941000D01*
X60851000Y-15621000D02*
X60881000Y-15591000D01*
X58757400Y-19920800D02*
X57469200Y-19920800D01*
X36270000Y-23535000D02*
X36270000Y-22251600D01*
X37706600Y-20815000D02*
X37706600Y-20370800D01*
D63*
X25146000Y-44323000D02*
X23469600Y-44323000D01*
D62*
X40316000Y-46716800D02*
X39254000Y-46716800D01*
D61*
X42291000Y-33909000D02*
X41275000Y-32893000D01*
D62*
X24190200Y-52494700D02*
X26750600Y-52494700D01*
X47599600Y-32258000D02*
X47302600Y-32555000D01*
X64566800Y-38404800D02*
X66649600Y-36322000D01*
X19685000Y-31115000D02*
X19685000Y-29751000D01*
D61*
X24490200Y-48520700D02*
X24511000Y-48499900D01*
X58801000Y-19964400D02*
X58757400Y-19920800D01*
X41112200Y-27460000D02*
X41198800Y-27546600D01*
X29770000Y-21121000D02*
X29604000Y-20955000D01*
X25058000Y-32460000D02*
X25019000Y-32499000D01*
D62*
X31115000Y-19418000D02*
X31115000Y-18288000D01*
D61*
X58808200Y-22156000D02*
X57530000Y-22156000D01*
X36270000Y-22251600D02*
X37706600Y-20815000D01*
X26919701Y-23245299D02*
X26656396Y-23245299D01*
X38695000Y-27460000D02*
X41112200Y-27460000D01*
X35699400Y-38849600D02*
X35687000Y-38862000D01*
X38735000Y-38481000D02*
X38354000Y-38100000D01*
D63*
X22885400Y-44907200D02*
X22885400Y-45485900D01*
D61*
X38354000Y-38100000D02*
X38354000Y-35052000D01*
X41217000Y-32835000D02*
X41275000Y-32893000D01*
D62*
X48425600Y-32258000D02*
X48425600Y-33413400D01*
D61*
X43942000Y-34163000D02*
X43249000Y-33470000D01*
D62*
X19718000Y-29718000D02*
X17272000Y-29718000D01*
X24879000Y-32639000D02*
X25019000Y-32499000D01*
D61*
X60881000Y-15591000D02*
X66881000Y-15591000D01*
X49403000Y-36449000D02*
X44932600Y-36449000D01*
X41375902Y-32411098D02*
X41217000Y-32570000D01*
D62*
X35699400Y-37795200D02*
X35699400Y-38849600D01*
X47302600Y-32555000D02*
X46671600Y-32555000D01*
D61*
X35699400Y-37795200D02*
X35699400Y-36563600D01*
X41275000Y-39116000D02*
X43180000Y-39116000D01*
X41217000Y-32570000D02*
X41217000Y-32835000D01*
X9779000Y-39179200D02*
X9779000Y-38100000D01*
D62*
X20950600Y-52494700D02*
X22190200Y-52494700D01*
D61*
X27345000Y-32460000D02*
X25058000Y-32460000D01*
X39254000Y-44316800D02*
X39254000Y-46716800D01*
X38735000Y-38481000D02*
X39370000Y-39116000D01*
X42434804Y-33470000D02*
X41375902Y-32411098D01*
X24490200Y-49794700D02*
X25690200Y-49794700D01*
X41198800Y-27546600D02*
X41198800Y-28600400D01*
X49403000Y-29591000D02*
X42799000Y-29591000D01*
X43611800Y-37236400D02*
X43561000Y-37185600D01*
%TO.N,+3V3*%
X29270000Y-22666000D02*
X28054000Y-21450000D01*
D62*
X37338000Y-37883800D02*
X37249400Y-37795200D01*
D61*
X28054000Y-21450000D02*
X28054000Y-20955000D01*
X29270000Y-23535000D02*
X29270000Y-22666000D01*
X25295000Y-34049000D02*
X25019000Y-34049000D01*
X37249400Y-37795200D02*
X37249400Y-36614400D01*
D62*
X22225000Y-26416000D02*
X22288000Y-26353000D01*
X28054000Y-18301000D02*
X28054000Y-19431000D01*
X47388500Y-41529000D02*
X46736000Y-41529000D01*
X28054000Y-19431000D02*
X28054000Y-20955000D01*
X37338000Y-38608000D02*
X37338000Y-37883800D01*
D61*
X36770000Y-36135000D02*
X36770000Y-34885000D01*
X52552600Y-19918700D02*
X52554700Y-19920800D01*
X25133000Y-33909000D02*
X25273000Y-34049000D01*
X52552600Y-18389600D02*
X52552600Y-19918700D01*
D62*
X46736000Y-41529000D02*
X44926000Y-43339000D01*
X36182000Y-20345400D02*
X36156600Y-20370800D01*
X24905000Y-34163000D02*
X25019000Y-34049000D01*
X28067000Y-18288000D02*
X28054000Y-18301000D01*
X20701000Y-24511000D02*
X20701000Y-22795000D01*
X22288000Y-26353000D02*
X23368000Y-26353000D01*
D61*
X25019000Y-33909000D02*
X25133000Y-33909000D01*
D62*
X47449500Y-41468000D02*
X47388500Y-41529000D01*
X23876000Y-34163000D02*
X24905000Y-34163000D01*
D61*
X36156600Y-21552200D02*
X36156600Y-20370800D01*
D64*
X5384800Y-35077400D02*
X5384800Y-41377400D01*
D61*
X27345000Y-32960000D02*
X26384000Y-32960000D01*
X35770000Y-21938800D02*
X36156600Y-21552200D01*
X35770000Y-23535000D02*
X35770000Y-21938800D01*
X37249400Y-36614400D02*
X36770000Y-36135000D01*
D62*
X44926000Y-43339000D02*
X43942000Y-43339000D01*
X36182000Y-19253200D02*
X36182000Y-20345400D01*
D61*
X26384000Y-32960000D02*
X25295000Y-34049000D01*
D62*
X46117400Y-27695000D02*
X46126400Y-27686000D01*
X44704000Y-27695000D02*
X46117400Y-27695000D01*
X43942000Y-41148000D02*
X43942000Y-43339000D01*
X23368000Y-26353000D02*
X24892000Y-26353000D01*
X37592000Y-38862000D02*
X37338000Y-38608000D01*
%TO.N,+3.3VA*%
X44704000Y-25873600D02*
X43049000Y-25873600D01*
D61*
X40703800Y-25996600D02*
X41198800Y-25996600D01*
X38695000Y-26960000D02*
X39740400Y-26960000D01*
X42926000Y-25996600D02*
X41198800Y-25996600D01*
D62*
X43049000Y-25873600D02*
X42926000Y-25996600D01*
D61*
X39740400Y-26960000D02*
X40703800Y-25996600D01*
%TO.N,/HSE_IN*%
X46671600Y-34755000D02*
X46841600Y-34925000D01*
X48387200Y-34925000D02*
X48425600Y-34963400D01*
X46671600Y-34225600D02*
X46126400Y-33680400D01*
X46671600Y-34755000D02*
X46671600Y-34225600D01*
X46841600Y-34925000D02*
X48387200Y-34925000D01*
X44222796Y-33680400D02*
X43562396Y-33020000D01*
X43562396Y-33020000D02*
X42621200Y-33020000D01*
X40561200Y-30960000D02*
X38695000Y-30960000D01*
X42621200Y-33020000D02*
X40561200Y-30960000D01*
X46126400Y-33680400D02*
X44222796Y-33680400D01*
%TO.N,Net-(C109-Pad1)*%
X44894200Y-30632400D02*
X43446200Y-30632400D01*
X44971600Y-32555000D02*
X44971600Y-30709800D01*
X44971600Y-30709800D02*
X44894200Y-30632400D01*
X43446200Y-30632400D02*
X43383200Y-30569400D01*
%TO.N,/NRST*%
X54610000Y-14605000D02*
X55311895Y-14605000D01*
X50038000Y-19177000D02*
X54610000Y-14605000D01*
X66881000Y-11841000D02*
X60881000Y-11841000D01*
X55311895Y-14605000D02*
X56975895Y-12941000D01*
X26416000Y-21971000D02*
X26416000Y-19304000D01*
X37854315Y-29960000D02*
X38695000Y-29960000D01*
X25654000Y-18542000D02*
X24892000Y-18542000D01*
X36449000Y-28554685D02*
X37854315Y-29960000D01*
X60881000Y-11841000D02*
X60282000Y-11841000D01*
X25669000Y-23099000D02*
X24953000Y-23099000D01*
X26416000Y-21971000D02*
X26416000Y-22352000D01*
X60282000Y-11841000D02*
X59182000Y-12941000D01*
X26416000Y-19304000D02*
X25654000Y-18542000D01*
X36449000Y-27305000D02*
X36449000Y-28554685D01*
X56975895Y-12941000D02*
X59182000Y-12941000D01*
X26416000Y-22352000D02*
X25669000Y-23099000D01*
D62*
%TO.N,+5V*%
X15494000Y-19685000D02*
X14853500Y-19044500D01*
X15494000Y-28542000D02*
X15494000Y-19685000D01*
X14853500Y-19044500D02*
X14031000Y-19044500D01*
D65*
X14318000Y-29718000D02*
X13937000Y-29337000D01*
D62*
X14318000Y-29718000D02*
X15494000Y-28542000D01*
D65*
X13937000Y-29337000D02*
X6771000Y-29337000D01*
X6771000Y-29337000D02*
X6731000Y-29297000D01*
D61*
%TO.N,Net-(D101-K)*%
X54190500Y-22156000D02*
X54165100Y-22181400D01*
X55880000Y-22156000D02*
X54190500Y-22156000D01*
%TO.N,/LED_HB*%
X33274000Y-21209000D02*
X33770000Y-21705000D01*
X52546500Y-22225000D02*
X52590100Y-22181400D01*
X45847000Y-22352000D02*
X45974000Y-22225000D01*
X33770000Y-21705000D02*
X33770000Y-23535000D01*
X33274000Y-20193000D02*
X33274000Y-21209000D01*
X45974000Y-22225000D02*
X52546500Y-22225000D01*
%TO.N,Net-(D102-K)*%
X54129700Y-19920800D02*
X55819200Y-19920800D01*
%TO.N,/SWO*%
X26909000Y-24399000D02*
X24953000Y-24399000D01*
X23622000Y-17272000D02*
X22225000Y-17272000D01*
X32258000Y-30861000D02*
X32258000Y-34873000D01*
X32258000Y-34873000D02*
X32270000Y-34885000D01*
X26924000Y-24384000D02*
X26909000Y-24399000D01*
%TO.N,/SWCLK*%
X29270000Y-32325000D02*
X29270000Y-34885000D01*
X21971000Y-20193000D02*
X21971000Y-22606000D01*
X22464000Y-23099000D02*
X23053000Y-23099000D01*
X23622000Y-18542000D02*
X21971000Y-20193000D01*
X21971000Y-22606000D02*
X22464000Y-23099000D01*
X30861000Y-30734000D02*
X29270000Y-32325000D01*
%TO.N,/SWDIO*%
X23607000Y-24399000D02*
X23053000Y-24399000D01*
X29337000Y-29210000D02*
X29464000Y-29337000D01*
X22606000Y-20828000D02*
X22606000Y-21350000D01*
X29464000Y-29337000D02*
X29464000Y-31115000D01*
X23622000Y-19812000D02*
X22606000Y-20828000D01*
X21986000Y-24399000D02*
X21971000Y-24384000D01*
X22606000Y-21350000D02*
X24003000Y-22747000D01*
X23053000Y-24399000D02*
X21986000Y-24399000D01*
X24003000Y-22747000D02*
X24003000Y-24003000D01*
X29464000Y-31115000D02*
X28619000Y-31960000D01*
X24003000Y-24003000D02*
X23607000Y-24399000D01*
X28619000Y-31960000D02*
X27345000Y-31960000D01*
D63*
%TO.N,VBUS*%
X17786000Y-44323000D02*
X22453600Y-44323000D01*
X22885400Y-43891200D02*
X22885400Y-43210900D01*
D66*
X17783000Y-44707000D02*
X21890200Y-48814200D01*
D63*
X22453600Y-44323000D02*
X22885400Y-43891200D01*
D62*
X17783000Y-44326000D02*
X15240000Y-44326000D01*
D66*
X17783000Y-44326000D02*
X17783000Y-44707000D01*
X21890200Y-48814200D02*
X21890200Y-49794700D01*
D63*
X17783000Y-44326000D02*
X17786000Y-44323000D01*
D67*
%TO.N,/D_P*%
X21952200Y-38256576D02*
X21952200Y-32863424D01*
X26182499Y-31460000D02*
X27345000Y-31460000D01*
X26167699Y-31445200D02*
X26182499Y-31460000D01*
X23835400Y-42217149D02*
X23120600Y-41502349D01*
X23835400Y-43210900D02*
X23835400Y-42217149D01*
X23370424Y-31445200D02*
X26167699Y-31445200D01*
X21952200Y-32863424D02*
X23370424Y-31445200D01*
X23120600Y-41502349D02*
X23120600Y-39424976D01*
X23120600Y-39424976D02*
X21952200Y-38256576D01*
%TO.N,/D_N*%
X21481800Y-38451424D02*
X21481800Y-32668576D01*
X21481800Y-32668576D02*
X23175576Y-30974800D01*
X23175576Y-30974800D02*
X26167699Y-30974800D01*
X21935400Y-42217149D02*
X22650200Y-41502349D01*
X21935400Y-43210900D02*
X21935400Y-42217149D01*
X26167699Y-30974800D02*
X26182499Y-30960000D01*
X22650200Y-41502349D02*
X22650200Y-39619824D01*
X26182499Y-30960000D02*
X27345000Y-30960000D01*
X22650200Y-39619824D02*
X21481800Y-38451424D01*
D61*
%TO.N,/UART_TX*%
X39970400Y-25460000D02*
X42164000Y-23266400D01*
X64141600Y-24028400D02*
X64262000Y-23908000D01*
X62382400Y-24028400D02*
X64141600Y-24028400D01*
X42164000Y-23266400D02*
X61620400Y-23266400D01*
X61620400Y-23266400D02*
X62382400Y-24028400D01*
X38695000Y-25460000D02*
X39970400Y-25460000D01*
%TO.N,/UART_RX*%
X36770000Y-22564400D02*
X37871400Y-21463000D01*
X50927000Y-21463000D02*
X51308000Y-21082000D01*
X37871400Y-21463000D02*
X50927000Y-21463000D01*
X62294000Y-21908000D02*
X64262000Y-21908000D01*
X51308000Y-21082000D02*
X61468000Y-21082000D01*
X36770000Y-23535000D02*
X36770000Y-22564400D01*
X61468000Y-21082000D02*
X62294000Y-21908000D01*
%TO.N,Net-(J104-Pin_2)*%
X12446000Y-26733000D02*
X6795000Y-26733000D01*
X6795000Y-26733000D02*
X6731000Y-26797000D01*
%TO.N,/HSE_OUT*%
X43383200Y-32219400D02*
X42735000Y-32219400D01*
X40975600Y-30460000D02*
X38695000Y-30460000D01*
X42735000Y-32219400D02*
X40975600Y-30460000D01*
%TO.N,/RGB_LED*%
X13873000Y-20731000D02*
X13873000Y-21717000D01*
X34270000Y-18014000D02*
X30226000Y-13970000D01*
X13081000Y-16769500D02*
X13081000Y-19939000D01*
X13081000Y-15113000D02*
X13081000Y-16769500D01*
X14224000Y-13970000D02*
X13081000Y-15113000D01*
X13081000Y-19939000D02*
X13873000Y-20731000D01*
X30226000Y-13970000D02*
X14224000Y-13970000D01*
X34270000Y-23535000D02*
X34270000Y-18014000D01*
%TO.N,/DIP3*%
X30270000Y-38398000D02*
X30270000Y-34885000D01*
X31115000Y-39243000D02*
X30270000Y-38398000D01*
X31115000Y-45212000D02*
X31115000Y-41148000D01*
X37454000Y-46716800D02*
X37434800Y-46736000D01*
X37434800Y-46736000D02*
X32639000Y-46736000D01*
X31115000Y-41148000D02*
X31115000Y-39243000D01*
X32639000Y-46736000D02*
X31115000Y-45212000D01*
%TO.N,/DIP2*%
X32385000Y-41148000D02*
X32385000Y-39243000D01*
X37454000Y-45916800D02*
X37447600Y-45923200D01*
X32385000Y-44704000D02*
X32385000Y-41148000D01*
X30770000Y-37628000D02*
X30770000Y-34885000D01*
X33604200Y-45923200D02*
X32385000Y-44704000D01*
X32385000Y-39243000D02*
X30770000Y-37628000D01*
X37447600Y-45923200D02*
X33604200Y-45923200D01*
%TO.N,/DIP1*%
X31270000Y-36985000D02*
X31270000Y-34885000D01*
X37454000Y-45116800D02*
X37447600Y-45110400D01*
X33655000Y-44069000D02*
X33655000Y-41148000D01*
X37447600Y-45110400D02*
X34696400Y-45110400D01*
X34696400Y-45110400D02*
X33655000Y-44069000D01*
X33655000Y-41148000D02*
X33655000Y-39370000D01*
X33655000Y-39370000D02*
X31270000Y-36985000D01*
%TO.N,/BOOT0*%
X34925000Y-43434000D02*
X34925000Y-41148000D01*
X37454000Y-44316800D02*
X35807800Y-44316800D01*
X35807800Y-44316800D02*
X34925000Y-43434000D01*
X34770000Y-40993000D02*
X34770000Y-34885000D01*
X34925000Y-41148000D02*
X34770000Y-40993000D01*
%TO.N,/LSE_IN*%
X39959604Y-31960000D02*
X38695000Y-31960000D01*
X40152000Y-35687000D02*
X40259000Y-35580000D01*
X40259000Y-35580000D02*
X40259000Y-32259396D01*
X40132000Y-35707000D02*
X40152000Y-35687000D01*
X40132000Y-37579000D02*
X40132000Y-35707000D01*
X40259000Y-32259396D02*
X39959604Y-31960000D01*
%TO.N,/~{EEPROM}*%
X20126000Y-25460000D02*
X19431000Y-24765000D01*
X19431000Y-24765000D02*
X19431000Y-22795000D01*
X27345000Y-25460000D02*
X20126000Y-25460000D01*
D62*
%TO.N,/LDO_3V3/5V*%
X12319000Y-44545000D02*
X12319000Y-44323000D01*
D61*
%TO.N,/VBAT*%
X36897000Y-32960000D02*
X38695000Y-32960000D01*
X42640000Y-47339000D02*
X41529000Y-46228000D01*
X43942000Y-47339000D02*
X42640000Y-47339000D01*
X38468000Y-41021000D02*
X38557200Y-40931800D01*
X41529000Y-41275000D02*
X41185800Y-40931800D01*
X40081200Y-40931800D02*
X38557200Y-40931800D01*
X41529000Y-46228000D02*
X41529000Y-41275000D01*
X41185800Y-40931800D02*
X40081200Y-40931800D01*
X45879000Y-47339000D02*
X43942000Y-47339000D01*
X37338000Y-41021000D02*
X38468000Y-41021000D01*
X47449500Y-45768500D02*
X45879000Y-47339000D01*
X47449500Y-43368000D02*
X47449500Y-45768500D01*
%TO.N,Net-(D107-K)*%
X54140100Y-24467400D02*
X55829600Y-24467400D01*
%TO.N,/LED_UI*%
X46228000Y-24384000D02*
X52481700Y-24384000D01*
X52481700Y-24384000D02*
X52565100Y-24467400D01*
X34798000Y-25908000D02*
X34770000Y-25880000D01*
X34770000Y-25880000D02*
X34770000Y-23535000D01*
D67*
%TO.N,/USB_D_N*%
X21935400Y-45485900D02*
X21935400Y-46479651D01*
X21935400Y-46479651D02*
X22650200Y-47194451D01*
X22650200Y-47194451D02*
X22650200Y-49684700D01*
X22650200Y-49684700D02*
X22540200Y-49794700D01*
%TO.N,/USB_D_P*%
X23120600Y-47194451D02*
X23120600Y-49725100D01*
X23835400Y-45485900D02*
X23835400Y-46479651D01*
X23120600Y-49725100D02*
X23190200Y-49794700D01*
X23835400Y-46479651D02*
X23120600Y-47194451D01*
D61*
%TO.N,/~{OE}*%
X31877000Y-22098000D02*
X32385000Y-21590000D01*
X31270000Y-22694315D02*
X31866315Y-22098000D01*
X31270000Y-23535000D02*
X31270000Y-22694315D01*
X14031000Y-15306000D02*
X14031000Y-16769500D01*
X32385000Y-21590000D02*
X32385000Y-17399000D01*
X29591000Y-14605000D02*
X14732000Y-14605000D01*
X14732000Y-14605000D02*
X14031000Y-15306000D01*
X32385000Y-17399000D02*
X29591000Y-14605000D01*
X31866315Y-22098000D02*
X31877000Y-22098000D01*
%TO.N,/SCL*%
X12162000Y-5999000D02*
X13388000Y-5999000D01*
X10206000Y-10784000D02*
X9324929Y-10784000D01*
X9906000Y-8684000D02*
X9906000Y-8255000D01*
X9324941Y-8984000D02*
X9606000Y-8984000D01*
X33147000Y-33421315D02*
X33147000Y-32258000D01*
X9906000Y-8255000D02*
X12162000Y-5999000D01*
X33770000Y-34885000D02*
X33770000Y-34044315D01*
X9906000Y-9584000D02*
X9324941Y-9584000D01*
X24892000Y-29083000D02*
X24892000Y-28003000D01*
X7747000Y-14605000D02*
X9906000Y-12446000D01*
X9906000Y-12446000D02*
X9906000Y-11684000D01*
X10487071Y-10784000D02*
X10206000Y-10784000D01*
X10487059Y-9584000D02*
X9906000Y-9584000D01*
X10206000Y-11384000D02*
X10487071Y-11384000D01*
X6207000Y-14605000D02*
X7747000Y-14605000D01*
X33770000Y-34044315D02*
X33147000Y-33421315D01*
X9906000Y-10184000D02*
X10487059Y-10184000D01*
X18161000Y-22795000D02*
X18161000Y-24638000D01*
X9324929Y-10184000D02*
X9906000Y-10184000D01*
X9024900Y-9284000D02*
G75*
G03*
X9324941Y-9584000I300000J0D01*
G01*
X9324941Y-8984041D02*
G75*
G03*
X9024941Y-9284000I-41J-299959D01*
G01*
X9606000Y-8984000D02*
G75*
G03*
X9906000Y-8684000I0J300000D01*
G01*
X10487059Y-10183959D02*
G75*
G03*
X10787059Y-9884000I41J299959D01*
G01*
X10787100Y-11084000D02*
G75*
G03*
X10487071Y-10784000I-300000J0D01*
G01*
X10206000Y-11384000D02*
G75*
G03*
X9906000Y-11684000I0J-300000D01*
G01*
X9024900Y-10484000D02*
G75*
G03*
X9324929Y-10784000I300000J0D01*
G01*
X10487071Y-11383971D02*
G75*
G03*
X10787071Y-11084000I29J299971D01*
G01*
X9324929Y-10184029D02*
G75*
G03*
X9024929Y-10484000I-29J-299971D01*
G01*
X10787100Y-9884000D02*
G75*
G03*
X10487059Y-9584000I-300000J0D01*
G01*
%TO.N,/SDA*%
X16891000Y-24638000D02*
X16891000Y-22795000D01*
X34290000Y-33274000D02*
X34290000Y-34865000D01*
X4794000Y-16605000D02*
X3937000Y-15748000D01*
X3937000Y-15748000D02*
X3937000Y-12573000D01*
X34290000Y-34865000D02*
X34270000Y-34885000D01*
X6207000Y-16605000D02*
X4794000Y-16605000D01*
X3937000Y-12573000D02*
X13051000Y-3459000D01*
X23368000Y-29210000D02*
X23368000Y-28003000D01*
X13051000Y-3459000D02*
X13388000Y-3459000D01*
%TO.N,Net-(SW107-B)*%
X12446000Y-21844000D02*
X12446000Y-25083000D01*
X12573000Y-21717000D02*
X12446000Y-21844000D01*
%TO.N,Net-(SW107-C)*%
X11303000Y-21687000D02*
X11273000Y-21717000D01*
X12131000Y-20000000D02*
X11303000Y-20828000D01*
X12131000Y-19044500D02*
X12131000Y-20000000D01*
X11303000Y-20828000D02*
X11303000Y-21687000D01*
%TO.N,/IR_RECV*%
X35270000Y-18197000D02*
X35270000Y-23535000D01*
X50673000Y-16002000D02*
X37465000Y-16002000D01*
X37465000Y-16002000D02*
X35270000Y-18197000D01*
X55658000Y-11017000D02*
X50673000Y-16002000D01*
X55658000Y-6731000D02*
X55658000Y-11017000D01*
%TO.N,/LSE_OUT*%
X42545000Y-37579000D02*
X42545000Y-35794000D01*
X40767000Y-32131000D02*
X40767000Y-33147000D01*
X40096000Y-31460000D02*
X40767000Y-32131000D01*
X38695000Y-31460000D02*
X40096000Y-31460000D01*
X42652000Y-35032000D02*
X42652000Y-35687000D01*
X40767000Y-33147000D02*
X42652000Y-35032000D01*
X42545000Y-35794000D02*
X42652000Y-35687000D01*
%TO.N,Net-(U101-VCAP1)*%
X30270000Y-22562000D02*
X30270000Y-23535000D01*
X31115000Y-20968000D02*
X31115000Y-21717000D01*
X31115000Y-21717000D02*
X30270000Y-22562000D01*
%TD*%
%TA.AperFunction,Conductor*%
%TO.N,GND*%
G36*
X24633474Y-32109441D02*
G01*
X24910856Y-32389000D01*
X25013798Y-32492749D01*
X25017193Y-32501036D01*
X25015711Y-32506689D01*
X24772696Y-32942373D01*
X24765673Y-32947929D01*
X24761442Y-32948328D01*
X24104664Y-32889947D01*
X24096727Y-32885801D01*
X24094000Y-32878293D01*
X24094000Y-32396004D01*
X24097427Y-32387731D01*
X24100168Y-32385694D01*
X24619647Y-32107369D01*
X24628555Y-32106483D01*
X24633474Y-32109441D01*
G37*
%TD.AperFunction*%
%TD*%
%TA.AperFunction,Conductor*%
%TO.N,GND*%
G36*
X36392801Y-22613427D02*
G01*
X36396156Y-22620408D01*
X36416473Y-22803263D01*
X36416474Y-22805844D01*
X36416174Y-22808548D01*
X36415987Y-22810240D01*
X36415979Y-22810309D01*
X36415511Y-22815928D01*
X36415156Y-22822279D01*
X36414999Y-22827936D01*
X36414999Y-22841509D01*
X36415570Y-22852336D01*
X36415613Y-22852746D01*
X36415417Y-22856408D01*
X36281440Y-23482532D01*
X36276358Y-23489905D01*
X36267551Y-23491525D01*
X36260178Y-23486443D01*
X36258559Y-23482536D01*
X36124579Y-22856401D01*
X36124388Y-22852718D01*
X36124429Y-22852333D01*
X36125000Y-22841515D01*
X36125000Y-22827960D01*
X36125000Y-22827941D01*
X36124999Y-22827887D01*
X36124842Y-22822271D01*
X36124841Y-22822250D01*
X36124841Y-22822242D01*
X36124488Y-22815919D01*
X36124019Y-22810288D01*
X36123525Y-22805842D01*
X36123525Y-22803275D01*
X36143844Y-22620408D01*
X36148163Y-22612564D01*
X36155472Y-22610000D01*
X36384528Y-22610000D01*
X36392801Y-22613427D01*
G37*
%TD.AperFunction*%
%TD*%
%TA.AperFunction,Conductor*%
%TO.N,GND*%
G36*
X39832463Y-42035189D02*
G01*
X39834665Y-42038013D01*
X40077117Y-42472688D01*
X40078154Y-42481582D01*
X40073727Y-42487888D01*
X39640201Y-42799436D01*
X39631483Y-42801481D01*
X39624732Y-42797823D01*
X39175132Y-42305350D01*
X39172073Y-42297462D01*
X39172073Y-42063347D01*
X39175500Y-42055074D01*
X39183413Y-42051652D01*
X39824091Y-42032017D01*
X39832463Y-42035189D01*
G37*
%TD.AperFunction*%
%TD*%
%TA.AperFunction,Conductor*%
%TO.N,/SDA*%
G36*
X23375747Y-28008844D02*
G01*
X23760628Y-28348880D01*
X23764559Y-28356926D01*
X23762850Y-28363773D01*
X23496425Y-28797425D01*
X23489174Y-28802680D01*
X23486456Y-28803000D01*
X23249544Y-28803000D01*
X23241271Y-28799573D01*
X23239575Y-28797425D01*
X22973149Y-28363773D01*
X22971738Y-28354930D01*
X22975369Y-28348881D01*
X23360253Y-28008843D01*
X23368722Y-28005934D01*
X23375747Y-28008844D01*
G37*
%TD.AperFunction*%
%TD*%
%TA.AperFunction,Conductor*%
%TO.N,GND*%
G36*
X24991729Y-43957386D02*
G01*
X24996988Y-43963189D01*
X25145123Y-44318498D01*
X25145144Y-44327452D01*
X25145123Y-44327502D01*
X24996988Y-44682810D01*
X24990641Y-44689128D01*
X24982820Y-44689512D01*
X24354331Y-44500505D01*
X24347395Y-44494841D01*
X24346000Y-44489301D01*
X24346000Y-44156698D01*
X24349427Y-44148425D01*
X24354328Y-44145495D01*
X24982821Y-43956487D01*
X24991729Y-43957386D01*
G37*
%TD.AperFunction*%
%TD*%
%TA.AperFunction,Conductor*%
%TO.N,GND*%
G36*
X26648538Y-32310757D02*
G01*
X27292533Y-32448559D01*
X27299905Y-32453640D01*
X27301525Y-32462447D01*
X27296443Y-32469820D01*
X27292532Y-32471440D01*
X26648542Y-32609241D01*
X26646094Y-32609500D01*
X26640828Y-32609500D01*
X26640182Y-32609464D01*
X26430408Y-32586156D01*
X26422564Y-32581837D01*
X26420000Y-32574528D01*
X26420000Y-32345471D01*
X26423427Y-32337198D01*
X26430406Y-32333843D01*
X26640196Y-32310533D01*
X26640801Y-32310499D01*
X26646107Y-32310499D01*
X26648538Y-32310757D01*
G37*
%TD.AperFunction*%
%TD*%
%TA.AperFunction,Conductor*%
%TO.N,Net-(D102-K)*%
G36*
X54472263Y-19488436D02*
G01*
X54998849Y-19792422D01*
X55004301Y-19799526D01*
X55004700Y-19802555D01*
X55004700Y-20039044D01*
X55001273Y-20047317D01*
X54998849Y-20049177D01*
X54472264Y-20353162D01*
X54463386Y-20354330D01*
X54457122Y-20350138D01*
X54134138Y-19927909D01*
X54131833Y-19919255D01*
X54134138Y-19913691D01*
X54221468Y-19799526D01*
X54457122Y-19491460D01*
X54464870Y-19486972D01*
X54472263Y-19488436D01*
G37*
%TD.AperFunction*%
%TD*%
%TA.AperFunction,Conductor*%
%TO.N,GND*%
G36*
X19933563Y-30318427D02*
G01*
X19936790Y-30324544D01*
X20082408Y-31101179D01*
X20080564Y-31109942D01*
X20073064Y-31114835D01*
X20070937Y-31115035D01*
X19685000Y-31115999D01*
X19299062Y-31115035D01*
X19290797Y-31111587D01*
X19287391Y-31103306D01*
X19287591Y-31101179D01*
X19433210Y-30324544D01*
X19438103Y-30317044D01*
X19444710Y-30315000D01*
X19925290Y-30315000D01*
X19933563Y-30318427D01*
G37*
%TD.AperFunction*%
%TD*%
%TA.AperFunction,Conductor*%
%TO.N,/UART_TX*%
G36*
X39609592Y-25333843D02*
G01*
X39617435Y-25338162D01*
X39619999Y-25345471D01*
X39620000Y-25574528D01*
X39616573Y-25582801D01*
X39609592Y-25586156D01*
X39441778Y-25604802D01*
X39399822Y-25609464D01*
X39399179Y-25609500D01*
X39393901Y-25609500D01*
X39391453Y-25609241D01*
X39267890Y-25582801D01*
X38747466Y-25471440D01*
X38740094Y-25466359D01*
X38738474Y-25457552D01*
X38743556Y-25450179D01*
X38747466Y-25448559D01*
X39393150Y-25310395D01*
X39396882Y-25310209D01*
X39609592Y-25333843D01*
G37*
%TD.AperFunction*%
%TD*%
%TA.AperFunction,Conductor*%
%TO.N,/USB_D_N*%
G36*
X22778139Y-48923127D02*
G01*
X22781566Y-48931400D01*
X22781542Y-48931889D01*
X22781654Y-48963219D01*
X22781647Y-48963527D01*
X22740781Y-49796365D01*
X22736953Y-49804461D01*
X22728522Y-49807478D01*
X22728365Y-49807469D01*
X22549427Y-49796277D01*
X22541384Y-49792341D01*
X22538627Y-49786591D01*
X22424137Y-49123304D01*
X22425059Y-49116381D01*
X22513452Y-48926462D01*
X22520049Y-48920408D01*
X22524059Y-48919700D01*
X22769866Y-48919700D01*
X22778139Y-48923127D01*
G37*
%TD.AperFunction*%
%TD*%
%TA.AperFunction,Conductor*%
%TO.N,/HSE_OUT*%
G36*
X39399812Y-30310534D02*
G01*
X39609593Y-30333843D01*
X39617436Y-30338162D01*
X39620000Y-30345471D01*
X39620000Y-30574528D01*
X39616573Y-30582801D01*
X39609592Y-30586156D01*
X39441778Y-30604802D01*
X39399822Y-30609464D01*
X39399179Y-30609500D01*
X39393901Y-30609500D01*
X39391453Y-30609241D01*
X39267890Y-30582801D01*
X38747466Y-30471440D01*
X38740094Y-30466359D01*
X38738474Y-30457552D01*
X38743556Y-30450179D01*
X38747466Y-30448559D01*
X39391457Y-30310758D01*
X39393906Y-30310499D01*
X39399171Y-30310499D01*
X39399812Y-30310534D01*
G37*
%TD.AperFunction*%
%TD*%
%TA.AperFunction,Conductor*%
%TO.N,/SWO*%
G36*
X22405696Y-16912890D02*
G01*
X23017437Y-17144141D01*
X23023964Y-17150272D01*
X23025000Y-17155085D01*
X23025000Y-17388914D01*
X23021573Y-17397187D01*
X23017437Y-17399858D01*
X22388655Y-17637551D01*
X22379705Y-17637271D01*
X22373719Y-17631109D01*
X22277306Y-17399858D01*
X22225875Y-17276499D01*
X22225855Y-17267550D01*
X22373719Y-16912889D01*
X22380066Y-16906572D01*
X22388654Y-16906448D01*
X22405696Y-16912890D01*
G37*
%TD.AperFunction*%
%TD*%
%TA.AperFunction,Conductor*%
%TO.N,GND*%
G36*
X38713109Y-35200719D02*
G01*
X38719427Y-35207066D01*
X38719551Y-35215655D01*
X38481859Y-35844437D01*
X38475728Y-35850964D01*
X38470915Y-35852000D01*
X38237085Y-35852000D01*
X38228812Y-35848573D01*
X38226141Y-35844437D01*
X37988448Y-35215655D01*
X37988728Y-35206705D01*
X37994889Y-35200719D01*
X38349500Y-35052875D01*
X38358449Y-35052855D01*
X38713109Y-35200719D01*
G37*
%TD.AperFunction*%
%TD*%
%TA.AperFunction,Conductor*%
%TO.N,GND*%
G36*
X29612434Y-20960568D02*
G01*
X30030919Y-21286467D01*
X30035341Y-21294254D01*
X30035105Y-21298438D01*
X29897159Y-21871040D01*
X29891889Y-21878281D01*
X29885784Y-21880000D01*
X29650521Y-21880000D01*
X29642248Y-21876573D01*
X29641490Y-21875738D01*
X29226930Y-21372360D01*
X29224315Y-21363795D01*
X29227412Y-21356934D01*
X29596700Y-20961810D01*
X29604852Y-20958107D01*
X29612434Y-20960568D01*
G37*
%TD.AperFunction*%
%TD*%
%TA.AperFunction,Conductor*%
%TO.N,+3V3*%
G36*
X36431291Y-19449227D02*
G01*
X36434321Y-19454478D01*
X36587470Y-20027206D01*
X36586297Y-20036083D01*
X36583356Y-20039459D01*
X36163789Y-20366201D01*
X36155156Y-20368581D01*
X36149411Y-20366201D01*
X35974076Y-20229658D01*
X35730378Y-20039875D01*
X35725957Y-20032090D01*
X35726537Y-20026749D01*
X35929241Y-19453599D01*
X35935231Y-19446942D01*
X35940272Y-19445800D01*
X36423018Y-19445800D01*
X36431291Y-19449227D01*
G37*
%TD.AperFunction*%
%TD*%
%TA.AperFunction,Conductor*%
%TO.N,GND*%
G36*
X21152039Y-15386685D02*
G01*
X21197794Y-15439489D01*
X21209000Y-15491000D01*
X21209000Y-18926000D01*
X21189315Y-18993039D01*
X21136511Y-19038794D01*
X21085000Y-19050000D01*
X16380000Y-19050000D01*
X16312961Y-19030315D01*
X16267206Y-18977511D01*
X16256000Y-18926000D01*
X16256000Y-15491000D01*
X16275685Y-15423961D01*
X16328489Y-15378206D01*
X16380000Y-15367000D01*
X21085000Y-15367000D01*
X21152039Y-15386685D01*
G37*
%TD.AperFunction*%
%TD*%
%TA.AperFunction,Conductor*%
%TO.N,/VBAT*%
G36*
X39751095Y-40506630D02*
G01*
X40076601Y-40924611D01*
X40078981Y-40933244D01*
X40076601Y-40938989D01*
X39751095Y-41356969D01*
X39743308Y-41361391D01*
X39736443Y-41360149D01*
X39162479Y-41060082D01*
X39156735Y-41053212D01*
X39156200Y-41049713D01*
X39156200Y-40813886D01*
X39159627Y-40805613D01*
X39162477Y-40803518D01*
X39736444Y-40503449D01*
X39745363Y-40502654D01*
X39751095Y-40506630D01*
G37*
%TD.AperFunction*%
%TD*%
%TA.AperFunction,Conductor*%
%TO.N,/IR_RECV*%
G36*
X35392801Y-22613427D02*
G01*
X35396156Y-22620408D01*
X35416473Y-22803263D01*
X35416474Y-22805844D01*
X35415979Y-22810309D01*
X35415511Y-22815928D01*
X35415156Y-22822279D01*
X35414999Y-22827936D01*
X35414999Y-22841509D01*
X35415570Y-22852336D01*
X35415613Y-22852746D01*
X35415417Y-22856408D01*
X35281440Y-23482532D01*
X35276358Y-23489905D01*
X35267551Y-23491525D01*
X35260178Y-23486443D01*
X35258559Y-23482536D01*
X35120758Y-22838542D01*
X35120499Y-22836094D01*
X35120499Y-22830828D01*
X35120535Y-22830182D01*
X35123240Y-22805844D01*
X35143844Y-22620408D01*
X35148163Y-22612564D01*
X35155472Y-22610000D01*
X35384528Y-22610000D01*
X35392801Y-22613427D01*
G37*
%TD.AperFunction*%
%TD*%
%TA.AperFunction,Conductor*%
%TO.N,/SWDIO*%
G36*
X22731596Y-24201311D02*
G01*
X22732872Y-24201989D01*
X23037744Y-24389027D01*
X23043004Y-24396274D01*
X23041599Y-24405118D01*
X23037744Y-24408973D01*
X22732872Y-24596010D01*
X22724028Y-24597415D01*
X22722646Y-24596992D01*
X22535592Y-24526847D01*
X22529049Y-24520734D01*
X22528000Y-24515892D01*
X22528000Y-24282107D01*
X22531427Y-24273834D01*
X22535588Y-24271154D01*
X22722647Y-24201007D01*
X22731596Y-24201311D01*
G37*
%TD.AperFunction*%
%TD*%
%TA.AperFunction,Conductor*%
%TO.N,+5V*%
G36*
X11303000Y-31750000D02*
G01*
X5204000Y-31750000D01*
X5136961Y-31730315D01*
X5091206Y-31677511D01*
X5080000Y-31626000D01*
X5080000Y-28318000D01*
X5099685Y-28250961D01*
X5152489Y-28205206D01*
X5204000Y-28194000D01*
X11303000Y-28194000D01*
X11303000Y-31750000D01*
G37*
%TD.AperFunction*%
%TD*%
%TA.AperFunction,Conductor*%
%TO.N,Net-(D101-K)*%
G36*
X55534119Y-21763371D02*
G01*
X55874155Y-22148253D01*
X55877065Y-22156722D01*
X55874155Y-22163747D01*
X55534119Y-22548628D01*
X55526073Y-22552559D01*
X55519226Y-22550850D01*
X55085575Y-22284425D01*
X55080320Y-22277174D01*
X55080000Y-22274456D01*
X55080000Y-22037543D01*
X55083427Y-22029270D01*
X55085570Y-22027577D01*
X55519226Y-21761148D01*
X55528069Y-21759738D01*
X55534119Y-21763371D01*
G37*
%TD.AperFunction*%
%TD*%
%TA.AperFunction,Conductor*%
%TO.N,/NRST*%
G36*
X26541188Y-21174427D02*
G01*
X26543859Y-21178563D01*
X26781551Y-21807344D01*
X26781271Y-21816294D01*
X26775109Y-21822280D01*
X26420502Y-21970123D01*
X26411548Y-21970144D01*
X26411498Y-21970123D01*
X26056890Y-21822280D01*
X26050572Y-21815933D01*
X26050448Y-21807345D01*
X26288141Y-21178562D01*
X26294272Y-21172036D01*
X26299085Y-21171000D01*
X26532915Y-21171000D01*
X26541188Y-21174427D01*
G37*
%TD.AperFunction*%
%TD*%
%TA.AperFunction,Conductor*%
%TO.N,GND*%
G36*
X39399812Y-27310534D02*
G01*
X39609593Y-27333843D01*
X39617436Y-27338162D01*
X39620000Y-27345471D01*
X39620000Y-27574528D01*
X39616573Y-27582801D01*
X39609592Y-27586156D01*
X39441778Y-27604802D01*
X39399822Y-27609464D01*
X39399179Y-27609500D01*
X39393901Y-27609500D01*
X39391453Y-27609241D01*
X38747467Y-27471440D01*
X38740094Y-27466358D01*
X38738474Y-27457551D01*
X38743556Y-27450178D01*
X38747461Y-27448560D01*
X39391458Y-27310757D01*
X39393904Y-27310499D01*
X39399171Y-27310499D01*
X39399812Y-27310534D01*
G37*
%TD.AperFunction*%
%TD*%
%TA.AperFunction,Conductor*%
%TO.N,/BAT+*%
G36*
X52508403Y-36331444D02*
G01*
X52509360Y-36332909D01*
X53131996Y-37463131D01*
X53132986Y-37472031D01*
X53128807Y-37478108D01*
X52248294Y-38144213D01*
X51819531Y-38468573D01*
X51818132Y-38469631D01*
X51811073Y-38472000D01*
X51571821Y-38472000D01*
X51563548Y-38468573D01*
X51561639Y-38466064D01*
X51003877Y-37480864D01*
X51002784Y-37471976D01*
X51006948Y-37465809D01*
X52492002Y-36329263D01*
X52500654Y-36326957D01*
X52508403Y-36331444D01*
G37*
%TD.AperFunction*%
%TD*%
%TA.AperFunction,Conductor*%
%TO.N,GND*%
G36*
X59188834Y-14494919D02*
G01*
X59623503Y-14807770D01*
X59628216Y-14815384D01*
X59626863Y-14823007D01*
X59310356Y-15385041D01*
X59303310Y-15390568D01*
X59300161Y-15391000D01*
X59063839Y-15391000D01*
X59055566Y-15387573D01*
X59053644Y-15385041D01*
X58737135Y-14823007D01*
X58736062Y-14814117D01*
X58740493Y-14807772D01*
X59175166Y-14494918D01*
X59183881Y-14492867D01*
X59188834Y-14494919D01*
G37*
%TD.AperFunction*%
%TD*%
%TA.AperFunction,Conductor*%
%TO.N,GND*%
G36*
X49790976Y-29590969D02*
G01*
X49799239Y-29594417D01*
X49802645Y-29602698D01*
X49802640Y-29603019D01*
X49782339Y-30281765D01*
X49778666Y-30289932D01*
X49770644Y-30293115D01*
X49536908Y-30293115D01*
X49528635Y-30289688D01*
X49528561Y-30289614D01*
X49520851Y-30281765D01*
X49128267Y-29882099D01*
X49124915Y-29873797D01*
X49128326Y-29865644D01*
X49399559Y-29593452D01*
X49407824Y-29590012D01*
X49790976Y-29590969D01*
G37*
%TD.AperFunction*%
%TD*%
%TA.AperFunction,Conductor*%
%TO.N,GND*%
G36*
X35706587Y-37799797D02*
G01*
X36025257Y-38047964D01*
X36125887Y-38126331D01*
X36130309Y-38134118D01*
X36129872Y-38139032D01*
X35951956Y-38711970D01*
X35946229Y-38718854D01*
X35940782Y-38720200D01*
X35458018Y-38720200D01*
X35449745Y-38716773D01*
X35446844Y-38711970D01*
X35268927Y-38139032D01*
X35269747Y-38130115D01*
X35272910Y-38126332D01*
X35692211Y-37799797D01*
X35700844Y-37797418D01*
X35706587Y-37799797D01*
G37*
%TD.AperFunction*%
%TD*%
%TA.AperFunction,Conductor*%
%TO.N,GND*%
G36*
X57829973Y-19525949D02*
G01*
X58263624Y-19792374D01*
X58268879Y-19799625D01*
X58269199Y-19802343D01*
X58269199Y-20039256D01*
X58265772Y-20047529D01*
X58263624Y-20049225D01*
X57829973Y-20315650D01*
X57821130Y-20317061D01*
X57815080Y-20313428D01*
X57475044Y-19928547D01*
X57472134Y-19920078D01*
X57475044Y-19913053D01*
X57815081Y-19528170D01*
X57823126Y-19524240D01*
X57829973Y-19525949D01*
G37*
%TD.AperFunction*%
%TD*%
%TA.AperFunction,Conductor*%
%TO.N,+3.3VA*%
G36*
X42595895Y-25571430D02*
G01*
X42921401Y-25989411D01*
X42923781Y-25998044D01*
X42921401Y-26003789D01*
X42595895Y-26421769D01*
X42588108Y-26426191D01*
X42581243Y-26424949D01*
X42007279Y-26124882D01*
X42001535Y-26118012D01*
X42001000Y-26114513D01*
X42001000Y-25878686D01*
X42004427Y-25870413D01*
X42007277Y-25868318D01*
X42581244Y-25568249D01*
X42590163Y-25567454D01*
X42595895Y-25571430D01*
G37*
%TD.AperFunction*%
%TD*%
%TA.AperFunction,Conductor*%
%TO.N,/SDA*%
G36*
X17016188Y-23841427D02*
G01*
X17018859Y-23845563D01*
X17256551Y-24474344D01*
X17256271Y-24483294D01*
X17250109Y-24489280D01*
X16895501Y-24637123D01*
X16886548Y-24637143D01*
X16725555Y-24570023D01*
X16531890Y-24489280D01*
X16525572Y-24482933D01*
X16525448Y-24474345D01*
X16763141Y-23845562D01*
X16769272Y-23839036D01*
X16774085Y-23838000D01*
X17007915Y-23838000D01*
X17016188Y-23841427D01*
G37*
%TD.AperFunction*%
%TD*%
%TA.AperFunction,Conductor*%
%TO.N,GND*%
G36*
X47594542Y-30236835D02*
G01*
X47599435Y-30244335D01*
X47599635Y-30246462D01*
X47600600Y-30632429D01*
X47599635Y-31018337D01*
X47596187Y-31026602D01*
X47587906Y-31030008D01*
X47585779Y-31029808D01*
X46809144Y-30884189D01*
X46801644Y-30879296D01*
X46799600Y-30872689D01*
X46799600Y-30392110D01*
X46803027Y-30383837D01*
X46809142Y-30380610D01*
X47585780Y-30234991D01*
X47594542Y-30236835D01*
G37*
%TD.AperFunction*%
%TD*%
%TA.AperFunction,Conductor*%
%TO.N,/DIP3*%
G36*
X37059644Y-46481871D02*
G01*
X37288799Y-46618040D01*
X37438476Y-46706981D01*
X37443837Y-46714153D01*
X37442557Y-46723016D01*
X37438689Y-46726968D01*
X37059154Y-46963586D01*
X37050320Y-46965054D01*
X37048406Y-46964432D01*
X36986810Y-46938365D01*
X36811140Y-46864021D01*
X36804857Y-46857641D01*
X36804000Y-46853246D01*
X36804000Y-46618040D01*
X36807427Y-46609767D01*
X36810218Y-46607704D01*
X37048195Y-46481593D01*
X37057108Y-46480748D01*
X37059644Y-46481871D01*
G37*
%TD.AperFunction*%
%TD*%
%TA.AperFunction,Conductor*%
%TO.N,GND*%
G36*
X25417190Y-49135854D02*
G01*
X25417920Y-49137312D01*
X25689333Y-49790209D01*
X25689344Y-49799164D01*
X25689333Y-49799191D01*
X25417920Y-50452087D01*
X25411580Y-50458411D01*
X25402625Y-50458400D01*
X25401167Y-50457670D01*
X25391713Y-50452087D01*
X24495951Y-49923096D01*
X24490569Y-49915939D01*
X24490200Y-49913022D01*
X24490200Y-49676377D01*
X24493627Y-49668104D01*
X24495946Y-49666306D01*
X25401169Y-49131728D01*
X25410033Y-49130472D01*
X25417190Y-49135854D01*
G37*
%TD.AperFunction*%
%TD*%
%TA.AperFunction,Conductor*%
%TO.N,GND*%
G36*
X48675545Y-32516827D02*
G01*
X48678327Y-32521269D01*
X48872745Y-33082277D01*
X48872216Y-33091216D01*
X48868525Y-33095604D01*
X48432435Y-33409480D01*
X48423718Y-33411532D01*
X48418765Y-33409480D01*
X47982674Y-33095604D01*
X47977961Y-33087990D01*
X47978454Y-33082277D01*
X48172873Y-32521269D01*
X48178820Y-32514574D01*
X48183928Y-32513400D01*
X48667272Y-32513400D01*
X48675545Y-32516827D01*
G37*
%TD.AperFunction*%
%TD*%
%TA.AperFunction,Conductor*%
%TO.N,/SCL*%
G36*
X25017188Y-28286427D02*
G01*
X25019859Y-28290563D01*
X25257551Y-28919344D01*
X25257271Y-28928294D01*
X25251109Y-28934280D01*
X24896502Y-29082123D01*
X24887548Y-29082144D01*
X24887498Y-29082123D01*
X24532890Y-28934280D01*
X24526572Y-28927933D01*
X24526448Y-28919345D01*
X24764141Y-28290562D01*
X24770272Y-28284036D01*
X24775085Y-28283000D01*
X25008915Y-28283000D01*
X25017188Y-28286427D01*
G37*
%TD.AperFunction*%
%TD*%
%TA.AperFunction,Conductor*%
%TO.N,/LED_HB*%
G36*
X45860853Y-21954646D02*
G01*
X46612232Y-22098184D01*
X46619716Y-22103102D01*
X46621737Y-22109676D01*
X46621738Y-22343362D01*
X46618311Y-22351635D01*
X46616040Y-22353405D01*
X46011673Y-22714618D01*
X46002814Y-22715921D01*
X45995628Y-22710577D01*
X45994872Y-22709077D01*
X45985149Y-22685757D01*
X45846905Y-22354171D01*
X45846005Y-22349648D01*
X45846964Y-21966108D01*
X45850412Y-21957845D01*
X45858693Y-21954439D01*
X45860853Y-21954646D01*
G37*
%TD.AperFunction*%
%TD*%
%TA.AperFunction,Conductor*%
%TO.N,+5V*%
G36*
X16199039Y-28213685D02*
G01*
X16244794Y-28266489D01*
X16256000Y-28318000D01*
X16256000Y-41916139D01*
X16236315Y-41983178D01*
X16183511Y-42028933D01*
X16135178Y-42040098D01*
X11430178Y-42160739D01*
X11362656Y-42142780D01*
X11315563Y-42091166D01*
X11303000Y-42036780D01*
X11303000Y-31750000D01*
X11303000Y-28194000D01*
X16132000Y-28194000D01*
X16199039Y-28213685D01*
G37*
%TD.AperFunction*%
%TD*%
%TA.AperFunction,Conductor*%
%TO.N,Net-(D107-K)*%
G36*
X55483719Y-24074771D02*
G01*
X55823755Y-24459652D01*
X55826665Y-24468121D01*
X55823755Y-24475146D01*
X55483719Y-24860028D01*
X55475673Y-24863959D01*
X55468826Y-24862250D01*
X55035175Y-24595825D01*
X55029920Y-24588574D01*
X55029600Y-24585856D01*
X55029600Y-24348943D01*
X55033027Y-24340670D01*
X55035170Y-24338977D01*
X55468826Y-24072548D01*
X55477669Y-24071138D01*
X55483719Y-24074771D01*
G37*
%TD.AperFunction*%
%TD*%
%TA.AperFunction,Conductor*%
%TO.N,GND*%
G36*
X23889817Y-32241590D02*
G01*
X24666457Y-32387210D01*
X24673956Y-32392103D01*
X24676000Y-32398710D01*
X24676000Y-32879289D01*
X24672573Y-32887562D01*
X24666456Y-32890789D01*
X23889820Y-33036408D01*
X23881057Y-33034564D01*
X23876164Y-33027064D01*
X23875964Y-33024946D01*
X23875000Y-32639000D01*
X23875964Y-32253059D01*
X23879412Y-32244797D01*
X23887693Y-32241391D01*
X23889817Y-32241590D01*
G37*
%TD.AperFunction*%
%TD*%
%TA.AperFunction,Conductor*%
%TO.N,GND*%
G36*
X14206655Y-24351427D02*
G01*
X14209556Y-24356230D01*
X14387472Y-24929167D01*
X14386652Y-24938084D01*
X14383487Y-24941868D01*
X13964189Y-25268401D01*
X13955556Y-25270781D01*
X13949811Y-25268401D01*
X13530512Y-24941868D01*
X13526090Y-24934081D01*
X13526527Y-24929167D01*
X13704444Y-24356230D01*
X13710171Y-24349346D01*
X13715618Y-24348000D01*
X14198382Y-24348000D01*
X14206655Y-24351427D01*
G37*
%TD.AperFunction*%
%TD*%
%TA.AperFunction,Conductor*%
%TO.N,/SDA*%
G36*
X12612623Y-3137815D02*
G01*
X13266437Y-3407802D01*
X13381466Y-3455303D01*
X13387805Y-3461628D01*
X13388700Y-3466127D01*
X13388008Y-4299331D01*
X13384574Y-4307601D01*
X13378503Y-4310813D01*
X12145410Y-4546290D01*
X12136641Y-4544476D01*
X12134942Y-4543071D01*
X11968598Y-4376727D01*
X11965171Y-4368454D01*
X11966480Y-4363076D01*
X12597768Y-3143251D01*
X12604614Y-3137480D01*
X12612623Y-3137815D01*
G37*
%TD.AperFunction*%
%TD*%
%TA.AperFunction,Conductor*%
%TO.N,GND*%
G36*
X12256473Y-15810427D02*
G01*
X12259000Y-15814200D01*
X12417510Y-16194625D01*
X12417529Y-16203580D01*
X12417152Y-16204403D01*
X12141442Y-16749842D01*
X12134651Y-16755680D01*
X12125722Y-16755006D01*
X12120558Y-16749842D01*
X11844847Y-16204403D01*
X11844173Y-16195474D01*
X11844483Y-16194639D01*
X12003000Y-15814199D01*
X12009345Y-15807881D01*
X12013800Y-15807000D01*
X12248200Y-15807000D01*
X12256473Y-15810427D01*
G37*
%TD.AperFunction*%
%TD*%
%TA.AperFunction,Conductor*%
%TO.N,GND*%
G36*
X64931760Y-37699293D02*
G01*
X65271641Y-38039174D01*
X65275068Y-38047447D01*
X65272735Y-38054458D01*
X64806913Y-38676859D01*
X64799212Y-38681429D01*
X64790535Y-38679215D01*
X64789294Y-38678142D01*
X64516964Y-38407169D01*
X64514396Y-38403327D01*
X64367947Y-38047447D01*
X64366731Y-38044491D01*
X64366752Y-38035539D01*
X64371464Y-38030048D01*
X64917403Y-37697572D01*
X64926250Y-37696197D01*
X64931760Y-37699293D01*
G37*
%TD.AperFunction*%
%TD*%
%TA.AperFunction,Conductor*%
%TO.N,GND*%
G36*
X24697230Y-49597336D02*
G01*
X24882607Y-49666852D01*
X24882608Y-49666853D01*
X24889151Y-49672967D01*
X24890200Y-49677808D01*
X24890200Y-49911591D01*
X24886773Y-49919864D01*
X24882608Y-49922546D01*
X24697234Y-49992062D01*
X24688285Y-49991758D01*
X24684875Y-49989402D01*
X24497534Y-49802993D01*
X24494087Y-49794729D01*
X24497493Y-49786448D01*
X24684877Y-49599996D01*
X24693155Y-49596592D01*
X24697230Y-49597336D01*
G37*
%TD.AperFunction*%
%TD*%
%TA.AperFunction,Conductor*%
%TO.N,GND*%
G36*
X24615365Y-48923127D02*
G01*
X24618047Y-48927292D01*
X24688824Y-49116031D01*
X24689088Y-49123458D01*
X24501419Y-49757779D01*
X24495786Y-49764740D01*
X24486881Y-49765679D01*
X24479920Y-49760046D01*
X24478981Y-49757779D01*
X24438319Y-49620342D01*
X24291311Y-49123455D01*
X24291574Y-49116033D01*
X24362353Y-48927292D01*
X24368467Y-48920749D01*
X24373308Y-48919700D01*
X24607092Y-48919700D01*
X24615365Y-48923127D01*
G37*
%TD.AperFunction*%
%TD*%
%TA.AperFunction,Conductor*%
%TO.N,GND*%
G36*
X10053187Y-33024597D02*
G01*
X10471169Y-33350104D01*
X10475591Y-33357891D01*
X10474349Y-33364756D01*
X10174283Y-33938721D01*
X10167413Y-33944465D01*
X10163914Y-33945000D01*
X9928086Y-33945000D01*
X9919813Y-33941573D01*
X9917717Y-33938721D01*
X9617650Y-33364756D01*
X9616854Y-33355836D01*
X9620828Y-33350106D01*
X10038811Y-33024597D01*
X10047444Y-33022218D01*
X10053187Y-33024597D01*
G37*
%TD.AperFunction*%
%TD*%
%TA.AperFunction,Conductor*%
%TO.N,/HSE_IN*%
G36*
X39609593Y-30833843D02*
G01*
X39617436Y-30838162D01*
X39620000Y-30845471D01*
X39619999Y-31074528D01*
X39616572Y-31082801D01*
X39609591Y-31086156D01*
X39426737Y-31106473D01*
X39424154Y-31106474D01*
X39419657Y-31105974D01*
X39419648Y-31105973D01*
X39413916Y-31105498D01*
X39413918Y-31105498D01*
X39411221Y-31105351D01*
X39407595Y-31105153D01*
X39407603Y-31105153D01*
X39407587Y-31105152D01*
X39407577Y-31105152D01*
X39401974Y-31104999D01*
X39388504Y-31104999D01*
X39387605Y-31105046D01*
X39377707Y-31105566D01*
X39377251Y-31105614D01*
X39373591Y-31105418D01*
X38747467Y-30971440D01*
X38740094Y-30966358D01*
X38738474Y-30957551D01*
X38743556Y-30950178D01*
X38747461Y-30948560D01*
X39373599Y-30814579D01*
X39377279Y-30814388D01*
X39377666Y-30814429D01*
X39388484Y-30815000D01*
X39388485Y-30815000D01*
X39402074Y-30815000D01*
X39402076Y-30814999D01*
X39405578Y-30814901D01*
X39407768Y-30814840D01*
X39407774Y-30814839D01*
X39407797Y-30814839D01*
X39414117Y-30814485D01*
X39419721Y-30814018D01*
X39424158Y-30813525D01*
X39426725Y-30813525D01*
X39609593Y-30833843D01*
G37*
%TD.AperFunction*%
%TD*%
%TA.AperFunction,Conductor*%
%TO.N,GND*%
G36*
X21448478Y-51752968D02*
G01*
X21448560Y-51753049D01*
X22182909Y-52486421D01*
X22186341Y-52494692D01*
X22182920Y-52502968D01*
X22182909Y-52502979D01*
X21448560Y-53236350D01*
X21440284Y-53239771D01*
X21432013Y-53236339D01*
X21432002Y-53236328D01*
X21241528Y-53041808D01*
X20953940Y-52748110D01*
X20950600Y-52739924D01*
X20950600Y-52249475D01*
X20953940Y-52241289D01*
X21431934Y-51753140D01*
X21440169Y-51749629D01*
X21448478Y-51752968D01*
G37*
%TD.AperFunction*%
%TD*%
%TA.AperFunction,Conductor*%
%TO.N,/UART_RX*%
G36*
X63763065Y-21359894D02*
G01*
X64255807Y-21900115D01*
X64258851Y-21908537D01*
X64255807Y-21915885D01*
X63763065Y-22456105D01*
X63754958Y-22459908D01*
X63749687Y-22458920D01*
X62793966Y-22036081D01*
X62787787Y-22029599D01*
X62787000Y-22025381D01*
X62787000Y-21790618D01*
X62790427Y-21782345D01*
X62793966Y-21779918D01*
X63749689Y-21357078D01*
X63758639Y-21356866D01*
X63763065Y-21359894D01*
G37*
%TD.AperFunction*%
%TD*%
%TA.AperFunction,Conductor*%
%TO.N,/NRST*%
G36*
X66387620Y-11470955D02*
G01*
X66869485Y-11831633D01*
X66874055Y-11839334D01*
X66871841Y-11848011D01*
X66869485Y-11850367D01*
X66387620Y-12211044D01*
X66378943Y-12213258D01*
X66374119Y-12211412D01*
X66011210Y-11969473D01*
X66006227Y-11962033D01*
X66006000Y-11959738D01*
X66006000Y-11722261D01*
X66009427Y-11713988D01*
X66011205Y-11712529D01*
X66374119Y-11470586D01*
X66382904Y-11468849D01*
X66387620Y-11470955D01*
G37*
%TD.AperFunction*%
%TD*%
%TA.AperFunction,Conductor*%
%TO.N,/SWO*%
G36*
X23469799Y-16912717D02*
G01*
X23475755Y-16918865D01*
X23621122Y-17267496D01*
X23621143Y-17276451D01*
X23621122Y-17276502D01*
X23475755Y-17625134D01*
X23469408Y-17631451D01*
X23460849Y-17631587D01*
X22842593Y-17399846D01*
X22836049Y-17393733D01*
X22835000Y-17388890D01*
X22835000Y-17155109D01*
X22838427Y-17146836D01*
X22842589Y-17144155D01*
X23460851Y-16912412D01*
X23469799Y-16912717D01*
G37*
%TD.AperFunction*%
%TD*%
%TA.AperFunction,Conductor*%
%TO.N,Net-(J104-Pin_2)*%
G36*
X12100407Y-26354712D02*
G01*
X12439758Y-26725096D01*
X12442820Y-26733511D01*
X12439758Y-26740904D01*
X12100407Y-27111287D01*
X12092291Y-27115072D01*
X12086579Y-27113863D01*
X11577499Y-26861225D01*
X11571612Y-26854478D01*
X11571000Y-26850745D01*
X11571000Y-26615254D01*
X11574427Y-26606981D01*
X11577495Y-26604776D01*
X12086580Y-26352135D01*
X12095513Y-26351528D01*
X12100407Y-26354712D01*
G37*
%TD.AperFunction*%
%TD*%
%TA.AperFunction,Conductor*%
%TO.N,/LSE_IN*%
G36*
X40258434Y-36682427D02*
G01*
X40260356Y-36684959D01*
X40576863Y-37246991D01*
X40577936Y-37255881D01*
X40573503Y-37262228D01*
X40138835Y-37575080D01*
X40130118Y-37577132D01*
X40125165Y-37575080D01*
X39690496Y-37262228D01*
X39685783Y-37254614D01*
X39687135Y-37246993D01*
X40003644Y-36684958D01*
X40010690Y-36679432D01*
X40013839Y-36679000D01*
X40250161Y-36679000D01*
X40258434Y-36682427D01*
G37*
%TD.AperFunction*%
%TD*%
%TA.AperFunction,Conductor*%
%TO.N,+3V3*%
G36*
X45256977Y-27142095D02*
G01*
X45971826Y-27441990D01*
X45978130Y-27448351D01*
X45979000Y-27452779D01*
X45979000Y-27937220D01*
X45975573Y-27945493D01*
X45971826Y-27948009D01*
X45256981Y-28247903D01*
X45248027Y-28247944D01*
X45244113Y-28245318D01*
X44711064Y-27703201D01*
X44707708Y-27694901D01*
X44711064Y-27686798D01*
X45244114Y-27144680D01*
X45252356Y-27141185D01*
X45256977Y-27142095D01*
G37*
%TD.AperFunction*%
%TD*%
%TA.AperFunction,Conductor*%
%TO.N,/SCL*%
G36*
X18286188Y-23841427D02*
G01*
X18288859Y-23845563D01*
X18526551Y-24474344D01*
X18526271Y-24483294D01*
X18520109Y-24489280D01*
X18165502Y-24637123D01*
X18156548Y-24637144D01*
X18156498Y-24637123D01*
X17801890Y-24489280D01*
X17795572Y-24482933D01*
X17795448Y-24474345D01*
X18033141Y-23845562D01*
X18039272Y-23839036D01*
X18044085Y-23838000D01*
X18277915Y-23838000D01*
X18286188Y-23841427D01*
G37*
%TD.AperFunction*%
%TD*%
%TA.AperFunction,Conductor*%
%TO.N,/SCL*%
G36*
X33506109Y-32406719D02*
G01*
X33512427Y-32413066D01*
X33512551Y-32421655D01*
X33274859Y-33050437D01*
X33268728Y-33056964D01*
X33263915Y-33058000D01*
X33030085Y-33058000D01*
X33021812Y-33054573D01*
X33019141Y-33050437D01*
X32781448Y-32421655D01*
X32781728Y-32412705D01*
X32787889Y-32406719D01*
X33142500Y-32258875D01*
X33151449Y-32258855D01*
X33506109Y-32406719D01*
G37*
%TD.AperFunction*%
%TD*%
%TA.AperFunction,Conductor*%
%TO.N,/NRST*%
G36*
X36808109Y-27453719D02*
G01*
X36814427Y-27460066D01*
X36814551Y-27468655D01*
X36576859Y-28097437D01*
X36570728Y-28103964D01*
X36565915Y-28105000D01*
X36332085Y-28105000D01*
X36323812Y-28101573D01*
X36321141Y-28097437D01*
X36083448Y-27468655D01*
X36083728Y-27459705D01*
X36089889Y-27453719D01*
X36444500Y-27305875D01*
X36453449Y-27305855D01*
X36808109Y-27453719D01*
G37*
%TD.AperFunction*%
%TD*%
%TA.AperFunction,Conductor*%
%TO.N,+3V3*%
G36*
X20949563Y-23714427D02*
G01*
X20952790Y-23720544D01*
X21098408Y-24497179D01*
X21096564Y-24505942D01*
X21089064Y-24510835D01*
X21086937Y-24511035D01*
X20701000Y-24511999D01*
X20315062Y-24511035D01*
X20306797Y-24507587D01*
X20303391Y-24499306D01*
X20303591Y-24497179D01*
X20449210Y-23720544D01*
X20454103Y-23713044D01*
X20460710Y-23711000D01*
X20941290Y-23711000D01*
X20949563Y-23714427D01*
G37*
%TD.AperFunction*%
%TD*%
%TA.AperFunction,Conductor*%
%TO.N,GND*%
G36*
X35825587Y-36873627D02*
G01*
X35827683Y-36876479D01*
X36127749Y-37450443D01*
X36128545Y-37459363D01*
X36124569Y-37465095D01*
X35706589Y-37790601D01*
X35697956Y-37792981D01*
X35692211Y-37790601D01*
X35274230Y-37465095D01*
X35269808Y-37457308D01*
X35271049Y-37450445D01*
X35571117Y-36876478D01*
X35577987Y-36870735D01*
X35581486Y-36870200D01*
X35817314Y-36870200D01*
X35825587Y-36873627D01*
G37*
%TD.AperFunction*%
%TD*%
%TA.AperFunction,Conductor*%
%TO.N,GND*%
G36*
X41205634Y-27550519D02*
G01*
X41640302Y-27863370D01*
X41645015Y-27870984D01*
X41643662Y-27878607D01*
X41327156Y-28440641D01*
X41320110Y-28446168D01*
X41316961Y-28446600D01*
X41080639Y-28446600D01*
X41072366Y-28443173D01*
X41070444Y-28440641D01*
X40753936Y-27878607D01*
X40752863Y-27869717D01*
X40757294Y-27863372D01*
X41191966Y-27550518D01*
X41200681Y-27548467D01*
X41205634Y-27550519D01*
G37*
%TD.AperFunction*%
%TD*%
%TA.AperFunction,Conductor*%
%TO.N,GND*%
G36*
X39262256Y-44324090D02*
G01*
X39262289Y-44324123D01*
X39498061Y-44560837D01*
X39501471Y-44569117D01*
X39500236Y-44574326D01*
X39382234Y-44810332D01*
X39375469Y-44816200D01*
X39371769Y-44816800D01*
X39136231Y-44816800D01*
X39127958Y-44813373D01*
X39125766Y-44810332D01*
X39007763Y-44574326D01*
X39007128Y-44565394D01*
X39009935Y-44560840D01*
X39245710Y-44324122D01*
X39253976Y-44320680D01*
X39262256Y-44324090D01*
G37*
%TD.AperFunction*%
%TD*%
%TA.AperFunction,Conductor*%
%TO.N,GND*%
G36*
X46775322Y-30185254D02*
G01*
X47336332Y-30379673D01*
X47343026Y-30385619D01*
X47344200Y-30390727D01*
X47344200Y-30874072D01*
X47340773Y-30882345D01*
X47336331Y-30885127D01*
X46775322Y-31079545D01*
X46766383Y-31079016D01*
X46761995Y-31075325D01*
X46448119Y-30639234D01*
X46446067Y-30630517D01*
X46448117Y-30625567D01*
X46761995Y-30189473D01*
X46769609Y-30184761D01*
X46775322Y-30185254D01*
G37*
%TD.AperFunction*%
%TD*%
%TA.AperFunction,Conductor*%
%TO.N,+3V3*%
G36*
X28069171Y-18287905D02*
G01*
X28427651Y-18437362D01*
X28433968Y-18443708D01*
X28434608Y-18450518D01*
X28326471Y-18976181D01*
X28306000Y-19075695D01*
X28305922Y-19076072D01*
X28300898Y-19083484D01*
X28294462Y-19085414D01*
X27813861Y-19085414D01*
X27805588Y-19081987D01*
X27802330Y-19075695D01*
X27693751Y-18443708D01*
X27669344Y-18301644D01*
X27671320Y-18292912D01*
X27678894Y-18288134D01*
X27680841Y-18287965D01*
X28064648Y-18287005D01*
X28069171Y-18287905D01*
G37*
%TD.AperFunction*%
%TD*%
%TA.AperFunction,Conductor*%
%TO.N,+3V3*%
G36*
X37590102Y-38163312D02*
G01*
X37591485Y-38164979D01*
X37869369Y-38571157D01*
X37871213Y-38579920D01*
X37868001Y-38586022D01*
X37595441Y-38859546D01*
X37587174Y-38862987D01*
X37587124Y-38862987D01*
X37202069Y-38862025D01*
X37193804Y-38858577D01*
X37190524Y-38852040D01*
X37089986Y-38173299D01*
X37092165Y-38164613D01*
X37099847Y-38160011D01*
X37101561Y-38159885D01*
X37581829Y-38159885D01*
X37590102Y-38163312D01*
G37*
%TD.AperFunction*%
%TD*%
%TA.AperFunction,Conductor*%
%TO.N,GND*%
G36*
X43000388Y-27854627D02*
G01*
X43003059Y-27858763D01*
X43240751Y-28487544D01*
X43240471Y-28496494D01*
X43234309Y-28502480D01*
X42879702Y-28650323D01*
X42870748Y-28650344D01*
X42870698Y-28650323D01*
X42516090Y-28502480D01*
X42509772Y-28496133D01*
X42509648Y-28487545D01*
X42747341Y-27858762D01*
X42753472Y-27852236D01*
X42758285Y-27851200D01*
X42992115Y-27851200D01*
X43000388Y-27854627D01*
G37*
%TD.AperFunction*%
%TD*%
%TA.AperFunction,Conductor*%
%TO.N,+3V3*%
G36*
X44841721Y-42455815D02*
G01*
X44845047Y-42462584D01*
X44925952Y-43088630D01*
X44926000Y-43089381D01*
X44926000Y-43588618D01*
X44925952Y-43589369D01*
X44845047Y-44215415D01*
X44840588Y-44223180D01*
X44831943Y-44225519D01*
X44825174Y-44222193D01*
X44818388Y-44215415D01*
X43949286Y-43347277D01*
X43945856Y-43339006D01*
X43949278Y-43330731D01*
X43949287Y-43330722D01*
X44190896Y-43089381D01*
X44825176Y-42455805D01*
X44833449Y-42452384D01*
X44841721Y-42455815D01*
G37*
%TD.AperFunction*%
%TD*%
%TA.AperFunction,Conductor*%
%TO.N,Net-(U101-VCAP1)*%
G36*
X30392801Y-22613427D02*
G01*
X30396156Y-22620408D01*
X30419464Y-22830174D01*
X30419500Y-22830820D01*
X30419500Y-22836098D01*
X30419241Y-22838546D01*
X30281440Y-23482532D01*
X30276358Y-23489905D01*
X30267551Y-23491525D01*
X30260178Y-23486443D01*
X30258559Y-23482536D01*
X30124579Y-22856401D01*
X30124388Y-22852718D01*
X30124429Y-22852333D01*
X30125000Y-22841515D01*
X30125000Y-22827960D01*
X30125000Y-22827941D01*
X30124999Y-22827928D01*
X30124842Y-22822271D01*
X30124841Y-22822264D01*
X30124841Y-22822242D01*
X30124488Y-22815919D01*
X30124019Y-22810288D01*
X30123525Y-22805842D01*
X30123525Y-22803275D01*
X30143844Y-22620408D01*
X30148163Y-22612564D01*
X30155472Y-22610000D01*
X30384528Y-22610000D01*
X30392801Y-22613427D01*
G37*
%TD.AperFunction*%
%TD*%
%TA.AperFunction,Conductor*%
%TO.N,+3V3*%
G36*
X23889817Y-33765590D02*
G01*
X24666457Y-33911210D01*
X24673956Y-33916103D01*
X24676000Y-33922710D01*
X24676000Y-34403289D01*
X24672573Y-34411562D01*
X24666456Y-34414789D01*
X23889820Y-34560408D01*
X23881057Y-34558564D01*
X23876164Y-34551064D01*
X23875964Y-34548946D01*
X23875000Y-34163000D01*
X23875964Y-33777059D01*
X23879412Y-33768797D01*
X23887693Y-33765391D01*
X23889817Y-33765590D01*
G37*
%TD.AperFunction*%
%TD*%
%TA.AperFunction,Conductor*%
%TO.N,/VBAT*%
G36*
X37077696Y-32600890D02*
G01*
X37689437Y-32832141D01*
X37695964Y-32838272D01*
X37697000Y-32843085D01*
X37697000Y-33076914D01*
X37693573Y-33085187D01*
X37689437Y-33087858D01*
X37060655Y-33325551D01*
X37051705Y-33325271D01*
X37045719Y-33319109D01*
X36949306Y-33087858D01*
X36897875Y-32964499D01*
X36897855Y-32955550D01*
X37045719Y-32600889D01*
X37052066Y-32594572D01*
X37060654Y-32594448D01*
X37077696Y-32600890D01*
G37*
%TD.AperFunction*%
%TD*%
%TA.AperFunction,Conductor*%
%TO.N,/SWCLK*%
G36*
X23268883Y-18395705D02*
G01*
X23618195Y-18539436D01*
X23624542Y-18545753D01*
X23624563Y-18545804D01*
X23768293Y-18895113D01*
X23768272Y-18904068D01*
X23762316Y-18910216D01*
X23161276Y-19183524D01*
X23152326Y-19183829D01*
X23148160Y-19181146D01*
X22982853Y-19015839D01*
X22979426Y-19007566D01*
X22980474Y-19002726D01*
X23253783Y-18401682D01*
X23260327Y-18395570D01*
X23268883Y-18395705D01*
G37*
%TD.AperFunction*%
%TD*%
%TA.AperFunction,Conductor*%
%TO.N,/SCL*%
G36*
X24899747Y-28008844D02*
G01*
X25284628Y-28348880D01*
X25288559Y-28356926D01*
X25286850Y-28363773D01*
X25020425Y-28797425D01*
X25013174Y-28802680D01*
X25010456Y-28803000D01*
X24773544Y-28803000D01*
X24765271Y-28799573D01*
X24763575Y-28797425D01*
X24497149Y-28363773D01*
X24495738Y-28354930D01*
X24499369Y-28348881D01*
X24884253Y-28008843D01*
X24892722Y-28005934D01*
X24899747Y-28008844D01*
G37*
%TD.AperFunction*%
%TD*%
%TA.AperFunction,Conductor*%
%TO.N,Net-(SW107-C)*%
G36*
X12136278Y-19058993D02*
G01*
X12141442Y-19064157D01*
X12417131Y-19609555D01*
X12417805Y-19618484D01*
X12417460Y-19619402D01*
X12259025Y-19992869D01*
X12252639Y-19999147D01*
X12248254Y-20000000D01*
X12013746Y-20000000D01*
X12005473Y-19996573D01*
X12002975Y-19992869D01*
X11844539Y-19619402D01*
X11844463Y-19610448D01*
X11844862Y-19609566D01*
X12120558Y-19064156D01*
X12127349Y-19058319D01*
X12136278Y-19058993D01*
G37*
%TD.AperFunction*%
%TD*%
%TA.AperFunction,Conductor*%
%TO.N,GND*%
G36*
X58653494Y-21790728D02*
G01*
X58659480Y-21796890D01*
X58807323Y-22151498D01*
X58807344Y-22160452D01*
X58807323Y-22160502D01*
X58659480Y-22515109D01*
X58653133Y-22521427D01*
X58644544Y-22521551D01*
X58015763Y-22283858D01*
X58009236Y-22277727D01*
X58008200Y-22272914D01*
X58008200Y-22039085D01*
X58011627Y-22030812D01*
X58015763Y-22028141D01*
X58644545Y-21790448D01*
X58653494Y-21790728D01*
G37*
%TD.AperFunction*%
%TD*%
%TA.AperFunction,Conductor*%
%TO.N,/SWCLK*%
G36*
X30501909Y-30585232D02*
G01*
X30644763Y-30644018D01*
X30857195Y-30731436D01*
X30863542Y-30737754D01*
X30863563Y-30737804D01*
X31009767Y-31093090D01*
X31009746Y-31102044D01*
X31003760Y-31108206D01*
X30391071Y-31384747D01*
X30382121Y-31385027D01*
X30377985Y-31382356D01*
X30212643Y-31217014D01*
X30209216Y-31208741D01*
X30210252Y-31203928D01*
X30256238Y-31102044D01*
X30486794Y-30591238D01*
X30493320Y-30585108D01*
X30501909Y-30585232D01*
G37*
%TD.AperFunction*%
%TD*%
%TA.AperFunction,Conductor*%
%TO.N,/RGB_LED*%
G36*
X13206473Y-15810427D02*
G01*
X13209000Y-15814200D01*
X13367510Y-16194625D01*
X13367529Y-16203580D01*
X13367152Y-16204403D01*
X13091442Y-16749842D01*
X13084651Y-16755680D01*
X13075722Y-16755006D01*
X13070558Y-16749842D01*
X12794847Y-16204403D01*
X12794173Y-16195474D01*
X12794483Y-16194639D01*
X12953000Y-15814199D01*
X12959345Y-15807881D01*
X12963800Y-15807000D01*
X13198200Y-15807000D01*
X13206473Y-15810427D01*
G37*
%TD.AperFunction*%
%TD*%
%TA.AperFunction,Conductor*%
%TO.N,/DIP3*%
G36*
X31242035Y-40136427D02*
G01*
X31243477Y-40138181D01*
X31490868Y-40506843D01*
X31492633Y-40515622D01*
X31491197Y-40519363D01*
X31125044Y-41132189D01*
X31117859Y-41137533D01*
X31108999Y-41136232D01*
X31104956Y-41132189D01*
X30738802Y-40519363D01*
X30737501Y-40510503D01*
X30739129Y-40506845D01*
X30986523Y-40138180D01*
X30993978Y-40133220D01*
X30996238Y-40133000D01*
X31233762Y-40133000D01*
X31242035Y-40136427D01*
G37*
%TD.AperFunction*%
%TD*%
%TA.AperFunction,Conductor*%
%TO.N,/HSE_IN*%
G36*
X47279296Y-34241348D02*
G01*
X47867928Y-34796537D01*
X47871595Y-34804705D01*
X47871600Y-34805047D01*
X47871600Y-35043703D01*
X47868173Y-35051976D01*
X47866345Y-35053468D01*
X47280149Y-35440407D01*
X47271357Y-35442104D01*
X47264876Y-35438320D01*
X46678289Y-34763841D01*
X46675446Y-34755352D01*
X46679439Y-34747338D01*
X47263606Y-34241017D01*
X47272101Y-34238189D01*
X47279296Y-34241348D01*
G37*
%TD.AperFunction*%
%TD*%
%TA.AperFunction,Conductor*%
%TO.N,+3V3*%
G36*
X47441234Y-41466283D02*
G01*
X47449071Y-41470613D01*
X47451504Y-41476229D01*
X47492287Y-41757155D01*
X47490084Y-41765835D01*
X47483143Y-41770280D01*
X46682859Y-41940585D01*
X46674054Y-41938955D01*
X46672151Y-41937414D01*
X46334335Y-41599598D01*
X46330908Y-41591325D01*
X46334335Y-41583052D01*
X46337163Y-41580970D01*
X46708821Y-41385928D01*
X46715565Y-41384662D01*
X47441234Y-41466283D01*
G37*
%TD.AperFunction*%
%TD*%
%TA.AperFunction,Conductor*%
%TO.N,/NRST*%
G36*
X60393250Y-11475169D02*
G01*
X60603537Y-11632569D01*
X60869485Y-11831633D01*
X60874055Y-11839334D01*
X60871841Y-11848011D01*
X60869485Y-11850367D01*
X60393253Y-12206828D01*
X60384576Y-12209042D01*
X60376875Y-12204472D01*
X60375365Y-12201772D01*
X60282822Y-11968075D01*
X60282000Y-11963767D01*
X60282000Y-11718232D01*
X60282822Y-11713924D01*
X60375365Y-11480228D01*
X60381596Y-11473800D01*
X60390550Y-11473660D01*
X60393250Y-11475169D01*
G37*
%TD.AperFunction*%
%TD*%
%TA.AperFunction,Conductor*%
%TO.N,+3V3*%
G36*
X23018528Y-25971229D02*
G01*
X23021203Y-25973397D01*
X23137874Y-26100738D01*
X23361758Y-26345096D01*
X23364820Y-26353511D01*
X23361758Y-26360904D01*
X23021206Y-26732599D01*
X23013090Y-26736384D01*
X23009662Y-26736025D01*
X22501783Y-26605261D01*
X22494625Y-26599880D01*
X22493000Y-26593931D01*
X22493000Y-26112068D01*
X22496427Y-26103795D01*
X22501780Y-26100739D01*
X23009664Y-25969974D01*
X23018528Y-25971229D01*
G37*
%TD.AperFunction*%
%TD*%
%TA.AperFunction,Conductor*%
%TO.N,+3V3*%
G36*
X24650338Y-33648266D02*
G01*
X25014253Y-34042770D01*
X25017343Y-34051175D01*
X25015871Y-34056402D01*
X24772852Y-34492093D01*
X24765829Y-34497649D01*
X24761155Y-34498000D01*
X24104221Y-34414302D01*
X24096448Y-34409857D01*
X24094000Y-34402696D01*
X24094000Y-33920278D01*
X24097427Y-33912005D01*
X24100526Y-33909784D01*
X24636570Y-33645703D01*
X24645503Y-33645121D01*
X24650338Y-33648266D01*
G37*
%TD.AperFunction*%
%TD*%
%TA.AperFunction,Conductor*%
%TO.N,+3V3*%
G36*
X36779820Y-34933556D02*
G01*
X36781440Y-34937467D01*
X36919603Y-35583146D01*
X36919790Y-35586886D01*
X36896156Y-35799592D01*
X36891837Y-35807436D01*
X36884528Y-35810000D01*
X36655472Y-35810000D01*
X36647199Y-35806573D01*
X36643844Y-35799592D01*
X36623525Y-35616729D01*
X36623525Y-35614149D01*
X36624019Y-35609703D01*
X36624488Y-35604072D01*
X36624841Y-35597749D01*
X36624842Y-35597705D01*
X36624844Y-35597667D01*
X36624999Y-35592062D01*
X36625000Y-35592049D01*
X36625000Y-35578488D01*
X36624998Y-35578442D01*
X36624429Y-35567669D01*
X36624387Y-35567274D01*
X36624579Y-35563598D01*
X36758559Y-34937464D01*
X36763640Y-34930094D01*
X36772447Y-34928474D01*
X36779820Y-34933556D01*
G37*
%TD.AperFunction*%
%TD*%
%TA.AperFunction,Conductor*%
%TO.N,/SDA*%
G36*
X23493188Y-28413427D02*
G01*
X23495859Y-28417563D01*
X23733551Y-29046344D01*
X23733271Y-29055294D01*
X23727109Y-29061280D01*
X23372502Y-29209123D01*
X23363548Y-29209144D01*
X23363498Y-29209123D01*
X23008890Y-29061280D01*
X23002572Y-29054933D01*
X23002448Y-29046345D01*
X23240141Y-28417562D01*
X23246272Y-28411036D01*
X23251085Y-28410000D01*
X23484915Y-28410000D01*
X23493188Y-28413427D01*
G37*
%TD.AperFunction*%
%TD*%
%TA.AperFunction,Conductor*%
%TO.N,/SWDIO*%
G36*
X23268883Y-19665705D02*
G01*
X23618195Y-19809436D01*
X23624542Y-19815753D01*
X23624563Y-19815804D01*
X23768293Y-20165113D01*
X23768272Y-20174068D01*
X23762316Y-20180216D01*
X23161276Y-20453524D01*
X23152326Y-20453829D01*
X23148160Y-20451146D01*
X22982853Y-20285839D01*
X22979426Y-20277566D01*
X22980474Y-20272726D01*
X23253783Y-19671682D01*
X23260327Y-19665570D01*
X23268883Y-19665705D01*
G37*
%TD.AperFunction*%
%TD*%
%TA.AperFunction,Conductor*%
%TO.N,/~{OE}*%
G36*
X14156473Y-15810427D02*
G01*
X14159000Y-15814200D01*
X14317510Y-16194625D01*
X14317529Y-16203580D01*
X14317152Y-16204403D01*
X14041442Y-16749842D01*
X14034651Y-16755680D01*
X14025722Y-16755006D01*
X14020558Y-16749842D01*
X13744847Y-16204403D01*
X13744173Y-16195474D01*
X13744483Y-16194639D01*
X13903000Y-15814199D01*
X13909345Y-15807881D01*
X13913800Y-15807000D01*
X14148200Y-15807000D01*
X14156473Y-15810427D01*
G37*
%TD.AperFunction*%
%TD*%
%TA.AperFunction,Conductor*%
%TO.N,+3.3VA*%
G36*
X44061185Y-25182294D02*
G01*
X44372627Y-25406125D01*
X44695091Y-25637878D01*
X44699809Y-25645489D01*
X44697764Y-25654207D01*
X44697469Y-25654600D01*
X44258048Y-26214838D01*
X44250246Y-26219232D01*
X44247484Y-26219238D01*
X43439342Y-26124808D01*
X43431523Y-26120444D01*
X43429000Y-26113187D01*
X43429000Y-25629624D01*
X43432427Y-25621351D01*
X43433901Y-25620102D01*
X44047563Y-25182270D01*
X44056287Y-25180255D01*
X44061185Y-25182294D01*
G37*
%TD.AperFunction*%
%TD*%
%TA.AperFunction,Conductor*%
%TO.N,/DIP1*%
G36*
X33661001Y-41159767D02*
G01*
X33665044Y-41163810D01*
X34031197Y-41776636D01*
X34032498Y-41785496D01*
X34030868Y-41789156D01*
X33783477Y-42157819D01*
X33776022Y-42162780D01*
X33773762Y-42163000D01*
X33536238Y-42163000D01*
X33527965Y-42159573D01*
X33526523Y-42157819D01*
X33279131Y-41789156D01*
X33277366Y-41780377D01*
X33278802Y-41776636D01*
X33644956Y-41163810D01*
X33652141Y-41158466D01*
X33661001Y-41159767D01*
G37*
%TD.AperFunction*%
%TD*%
%TA.AperFunction,Conductor*%
%TO.N,GND*%
G36*
X29892801Y-22613427D02*
G01*
X29896156Y-22620408D01*
X29918458Y-22821125D01*
X29919464Y-22830174D01*
X29919500Y-22830820D01*
X29919500Y-22836098D01*
X29919241Y-22838546D01*
X29781440Y-23482532D01*
X29776358Y-23489905D01*
X29767551Y-23491525D01*
X29760178Y-23486443D01*
X29758559Y-23482536D01*
X29624579Y-22856401D01*
X29624388Y-22852718D01*
X29624429Y-22852333D01*
X29625000Y-22841515D01*
X29625000Y-22828705D01*
X29624723Y-22821161D01*
X29624043Y-22811923D01*
X29623447Y-22806533D01*
X29623447Y-22803968D01*
X29643844Y-22620408D01*
X29648163Y-22612564D01*
X29655472Y-22610000D01*
X29884528Y-22610000D01*
X29892801Y-22613427D01*
G37*
%TD.AperFunction*%
%TD*%
%TA.AperFunction,Conductor*%
%TO.N,/SWO*%
G36*
X26769157Y-24018856D02*
G01*
X26775376Y-24025120D01*
X26923123Y-24379498D01*
X26923144Y-24388452D01*
X26923123Y-24388502D01*
X26775198Y-24743305D01*
X26768851Y-24749623D01*
X26760470Y-24749824D01*
X26134755Y-24526770D01*
X26128113Y-24520764D01*
X26126984Y-24515749D01*
X26126984Y-24281899D01*
X26130411Y-24273626D01*
X26134310Y-24271047D01*
X26760204Y-24018770D01*
X26769157Y-24018856D01*
G37*
%TD.AperFunction*%
%TD*%
%TA.AperFunction,Conductor*%
%TO.N,GND*%
G36*
X19726169Y-29725375D02*
G01*
X19726179Y-29725385D01*
X20491469Y-30509957D01*
X20494793Y-30518273D01*
X20491597Y-30526164D01*
X19938462Y-31111337D01*
X19930288Y-31114995D01*
X19929959Y-31115000D01*
X19440218Y-31115000D01*
X19431945Y-31111573D01*
X19431513Y-31111117D01*
X18906361Y-30526342D01*
X18903383Y-30517897D01*
X18906884Y-30510162D01*
X19709625Y-29725189D01*
X19717935Y-29721856D01*
X19726169Y-29725375D01*
G37*
%TD.AperFunction*%
%TD*%
%TA.AperFunction,Conductor*%
%TO.N,/USB_D_P*%
G36*
X23254658Y-48923127D02*
G01*
X23257193Y-48926919D01*
X23335717Y-49116315D01*
X23336342Y-49123281D01*
X23192122Y-49786852D01*
X23187016Y-49794208D01*
X23181153Y-49796058D01*
X23002320Y-49803154D01*
X22993917Y-49800058D01*
X22990165Y-49791927D01*
X22990156Y-49791505D01*
X22987043Y-48931442D01*
X22990440Y-48923157D01*
X22998701Y-48919700D01*
X23246385Y-48919700D01*
X23254658Y-48923127D01*
G37*
%TD.AperFunction*%
%TD*%
%TA.AperFunction,Conductor*%
%TO.N,/VBAT*%
G36*
X43050418Y-46448179D02*
G01*
X43053300Y-46450287D01*
X43934712Y-47330722D01*
X43938143Y-47338994D01*
X43934721Y-47347269D01*
X43934712Y-47347278D01*
X43053300Y-48227712D01*
X43045025Y-48231134D01*
X43036753Y-48227703D01*
X43034645Y-48224821D01*
X42641314Y-47466533D01*
X42640000Y-47461146D01*
X42640000Y-47216853D01*
X42641314Y-47211466D01*
X43034646Y-46453176D01*
X43041496Y-46447412D01*
X43050418Y-46448179D01*
G37*
%TD.AperFunction*%
%TD*%
%TA.AperFunction,Conductor*%
%TO.N,/VBAT*%
G36*
X44850224Y-46446082D02*
G01*
X45737934Y-47210499D01*
X45741967Y-47218494D01*
X45741999Y-47219365D01*
X45741999Y-47458634D01*
X45738572Y-47466907D01*
X45737934Y-47467500D01*
X44850224Y-48231917D01*
X44841718Y-48234719D01*
X44834320Y-48231329D01*
X43949287Y-47347278D01*
X43945856Y-47339006D01*
X43949278Y-47330731D01*
X43949287Y-47330722D01*
X44066139Y-47214000D01*
X44834322Y-46446668D01*
X44842595Y-46443248D01*
X44850224Y-46446082D01*
G37*
%TD.AperFunction*%
%TD*%
%TA.AperFunction,Conductor*%
%TO.N,Net-(SW107-B)*%
G36*
X12572729Y-24286427D02*
G01*
X12574425Y-24288575D01*
X12840850Y-24722225D01*
X12842261Y-24731068D01*
X12838628Y-24737118D01*
X12453747Y-25077155D01*
X12445278Y-25080065D01*
X12438253Y-25077155D01*
X12053371Y-24737118D01*
X12049440Y-24729072D01*
X12051149Y-24722225D01*
X12317575Y-24288575D01*
X12324826Y-24283320D01*
X12327544Y-24283000D01*
X12564456Y-24283000D01*
X12572729Y-24286427D01*
G37*
%TD.AperFunction*%
%TD*%
%TA.AperFunction,Conductor*%
%TO.N,GND*%
G36*
X49661109Y-35943712D02*
G01*
X49806362Y-36089693D01*
X49930026Y-36213977D01*
X49933432Y-36222258D01*
X49929984Y-36230523D01*
X49928436Y-36231818D01*
X49499428Y-36531765D01*
X49490684Y-36533697D01*
X49484451Y-36530449D01*
X49317395Y-36363393D01*
X49314077Y-36356712D01*
X49258821Y-35954265D01*
X49261090Y-35945605D01*
X49268821Y-35941085D01*
X49270385Y-35940976D01*
X49652832Y-35940301D01*
X49661109Y-35943712D01*
G37*
%TD.AperFunction*%
%TD*%
%TA.AperFunction,Conductor*%
%TO.N,/~{EEPROM}*%
G36*
X19441433Y-22826384D02*
G01*
X19442122Y-22828046D01*
X19718234Y-23673277D01*
X19717912Y-23681410D01*
X19559000Y-24062800D01*
X19552655Y-24069119D01*
X19548200Y-24070000D01*
X19313800Y-24070000D01*
X19305527Y-24066573D01*
X19303000Y-24062800D01*
X19144086Y-23681408D01*
X19143765Y-23673279D01*
X19419878Y-22828045D01*
X19425705Y-22821246D01*
X19434633Y-22820557D01*
X19441433Y-22826384D01*
G37*
%TD.AperFunction*%
%TD*%
%TA.AperFunction,Conductor*%
%TO.N,+3V3*%
G36*
X52678772Y-19011727D02*
G01*
X52680878Y-19014599D01*
X52971137Y-19572361D01*
X52971916Y-19581282D01*
X52968123Y-19586853D01*
X52562064Y-19915833D01*
X52553479Y-19918378D01*
X52547335Y-19915833D01*
X52141231Y-19586817D01*
X52136961Y-19578947D01*
X52138187Y-19572386D01*
X52424337Y-19014659D01*
X52431163Y-19008863D01*
X52434747Y-19008300D01*
X52670499Y-19008300D01*
X52678772Y-19011727D01*
G37*
%TD.AperFunction*%
%TD*%
%TA.AperFunction,Conductor*%
%TO.N,/VBAT*%
G36*
X40425955Y-40503449D02*
G01*
X40999921Y-40803517D01*
X41005665Y-40810387D01*
X41006200Y-40813886D01*
X41006200Y-41049713D01*
X41002773Y-41057986D01*
X40999921Y-41060082D01*
X40425956Y-41360149D01*
X40417036Y-41360945D01*
X40411304Y-41356969D01*
X40085797Y-40938988D01*
X40083418Y-40930356D01*
X40085797Y-40924612D01*
X40411306Y-40506628D01*
X40419091Y-40502208D01*
X40425955Y-40503449D01*
G37*
%TD.AperFunction*%
%TD*%
%TA.AperFunction,Conductor*%
%TO.N,GND*%
G36*
X49248294Y-29225728D02*
G01*
X49254280Y-29231890D01*
X49402123Y-29586498D01*
X49402144Y-29595452D01*
X49402123Y-29595502D01*
X49254280Y-29950109D01*
X49247933Y-29956427D01*
X49239344Y-29956551D01*
X48610562Y-29718858D01*
X48604035Y-29712727D01*
X48603000Y-29707918D01*
X48603000Y-29474082D01*
X48606426Y-29465812D01*
X48610560Y-29463141D01*
X49239345Y-29225448D01*
X49248294Y-29225728D01*
G37*
%TD.AperFunction*%
%TD*%
%TA.AperFunction,Conductor*%
%TO.N,/LSE_IN*%
G36*
X40385270Y-34290427D02*
G01*
X40387309Y-34293173D01*
X40648985Y-34781375D01*
X40649873Y-34790285D01*
X40648903Y-34792579D01*
X40162981Y-35668211D01*
X40155971Y-35673782D01*
X40147074Y-35672764D01*
X40142204Y-35667599D01*
X39722603Y-34793760D01*
X39722111Y-34784818D01*
X39724141Y-34781230D01*
X40130491Y-34291230D01*
X40138410Y-34287051D01*
X40139497Y-34287000D01*
X40376997Y-34287000D01*
X40385270Y-34290427D01*
G37*
%TD.AperFunction*%
%TD*%
%TA.AperFunction,Conductor*%
%TO.N,GND*%
G36*
X42469214Y-29755443D02*
G01*
X42634556Y-29920785D01*
X42637983Y-29929058D01*
X42636947Y-29933871D01*
X42360406Y-30546560D01*
X42353879Y-30552691D01*
X42345290Y-30552567D01*
X41990004Y-30406363D01*
X41983657Y-30400045D01*
X41983636Y-30399995D01*
X41837432Y-30044709D01*
X41837453Y-30035755D01*
X41843437Y-30029594D01*
X42456128Y-29753051D01*
X42465078Y-29752772D01*
X42469214Y-29755443D01*
G37*
%TD.AperFunction*%
%TD*%
%TA.AperFunction,Conductor*%
%TO.N,GND*%
G36*
X24905757Y-16881008D02*
G01*
X25669399Y-17020249D01*
X25676923Y-17025104D01*
X25679000Y-17031759D01*
X25679000Y-17512240D01*
X25675573Y-17520513D01*
X25669399Y-17523750D01*
X24905763Y-17662990D01*
X24897009Y-17661103D01*
X24892154Y-17653579D01*
X24891964Y-17651510D01*
X24891639Y-17523750D01*
X24891000Y-17272000D01*
X24891964Y-16892487D01*
X24895412Y-16884225D01*
X24903694Y-16880819D01*
X24905757Y-16881008D01*
G37*
%TD.AperFunction*%
%TD*%
%TA.AperFunction,Conductor*%
%TO.N,+3V3*%
G36*
X28060565Y-20965165D02*
G01*
X28063683Y-20968283D01*
X28355211Y-21398281D01*
X28357017Y-21407052D01*
X28352093Y-21414531D01*
X28347816Y-21416321D01*
X28180133Y-21449774D01*
X28177844Y-21450000D01*
X27930156Y-21450000D01*
X27927867Y-21449774D01*
X27760183Y-21416321D01*
X27752740Y-21411342D01*
X27750998Y-21402558D01*
X27752786Y-21398284D01*
X28044317Y-20968281D01*
X28051794Y-20963359D01*
X28060565Y-20965165D01*
G37*
%TD.AperFunction*%
%TD*%
%TA.AperFunction,Conductor*%
%TO.N,+3V3*%
G36*
X28061187Y-19435597D02*
G01*
X28379857Y-19683764D01*
X28480487Y-19762131D01*
X28484909Y-19769918D01*
X28484472Y-19774832D01*
X28306556Y-20347770D01*
X28300829Y-20354654D01*
X28295382Y-20356000D01*
X27812618Y-20356000D01*
X27804345Y-20352573D01*
X27801444Y-20347770D01*
X27623527Y-19774832D01*
X27624347Y-19765915D01*
X27627510Y-19762132D01*
X28046811Y-19435597D01*
X28055444Y-19433218D01*
X28061187Y-19435597D01*
G37*
%TD.AperFunction*%
%TD*%
%TA.AperFunction,Conductor*%
%TO.N,/NRST*%
G36*
X25646553Y-18414094D02*
G01*
X25653014Y-18420294D01*
X25654000Y-18424994D01*
X25654000Y-18659005D01*
X25650573Y-18667278D01*
X25646553Y-18669905D01*
X25053237Y-18901391D01*
X25044284Y-18901205D01*
X25038186Y-18894995D01*
X24892876Y-18546501D01*
X24892856Y-18537548D01*
X25038187Y-18189002D01*
X25044532Y-18182688D01*
X25053235Y-18182608D01*
X25646553Y-18414094D01*
G37*
%TD.AperFunction*%
%TD*%
%TA.AperFunction,Conductor*%
%TO.N,/DIP1*%
G36*
X37058302Y-44918946D02*
G01*
X37058383Y-44918986D01*
X37433781Y-45106217D01*
X37439655Y-45112976D01*
X37439029Y-45121909D01*
X37433691Y-45127201D01*
X37058583Y-45310303D01*
X37049645Y-45310853D01*
X37049241Y-45310705D01*
X36861490Y-45238288D01*
X36855004Y-45232114D01*
X36854000Y-45227372D01*
X36854000Y-44993755D01*
X36857427Y-44985482D01*
X36861900Y-44982690D01*
X37049366Y-44918389D01*
X37058302Y-44918946D01*
G37*
%TD.AperFunction*%
%TD*%
%TA.AperFunction,Conductor*%
%TO.N,GND*%
G36*
X24869790Y-48648486D02*
G01*
X24876108Y-48654833D01*
X24876103Y-48663749D01*
X24618187Y-49288527D01*
X24611862Y-49294867D01*
X24607372Y-49295763D01*
X24373516Y-49295763D01*
X24365243Y-49292336D01*
X24362466Y-49287909D01*
X24145069Y-48663375D01*
X24145586Y-48654437D01*
X24151614Y-48648734D01*
X24506500Y-48500775D01*
X24515449Y-48500755D01*
X24869790Y-48648486D01*
G37*
%TD.AperFunction*%
%TD*%
%TA.AperFunction,Conductor*%
%TO.N,/LED_UI*%
G36*
X52268065Y-24017248D02*
G01*
X52560984Y-24459673D01*
X52562693Y-24468463D01*
X52559749Y-24474149D01*
X52193675Y-24863232D01*
X52185510Y-24866910D01*
X52178264Y-24864671D01*
X51694910Y-24512504D01*
X51690242Y-24504863D01*
X51690100Y-24503048D01*
X51690100Y-24266658D01*
X51693527Y-24258385D01*
X51697115Y-24255937D01*
X52253629Y-24012983D01*
X52262581Y-24012815D01*
X52268065Y-24017248D01*
G37*
%TD.AperFunction*%
%TD*%
%TA.AperFunction,Conductor*%
%TO.N,/LED_HB*%
G36*
X33633109Y-20341719D02*
G01*
X33639427Y-20348066D01*
X33639551Y-20356655D01*
X33401859Y-20985437D01*
X33395728Y-20991964D01*
X33390915Y-20993000D01*
X33157085Y-20993000D01*
X33148812Y-20989573D01*
X33146141Y-20985437D01*
X32908448Y-20356655D01*
X32908728Y-20347705D01*
X32914889Y-20341719D01*
X33269500Y-20193875D01*
X33278449Y-20193855D01*
X33633109Y-20341719D01*
G37*
%TD.AperFunction*%
%TD*%
%TA.AperFunction,Conductor*%
%TO.N,GND*%
G36*
X10171045Y-33369013D02*
G01*
X10173783Y-33373329D01*
X10398788Y-33999453D01*
X10398361Y-34008398D01*
X10392279Y-34014209D01*
X10037502Y-34162123D01*
X10028548Y-34162144D01*
X10028498Y-34162123D01*
X9674089Y-34014363D01*
X9667771Y-34008016D01*
X9667727Y-33999221D01*
X9918059Y-33372943D01*
X9924311Y-33366533D01*
X9928923Y-33365586D01*
X10162772Y-33365586D01*
X10171045Y-33369013D01*
G37*
%TD.AperFunction*%
%TD*%
%TA.AperFunction,Conductor*%
%TO.N,/SWDIO*%
G36*
X23383347Y-24201005D02*
G01*
X23570407Y-24271153D01*
X23570408Y-24271153D01*
X23576951Y-24277267D01*
X23578000Y-24282108D01*
X23578000Y-24515892D01*
X23574573Y-24524165D01*
X23570408Y-24526847D01*
X23383353Y-24596992D01*
X23374403Y-24596688D01*
X23373127Y-24596010D01*
X23242534Y-24515892D01*
X23068254Y-24408971D01*
X23062995Y-24401726D01*
X23064400Y-24392882D01*
X23068253Y-24389028D01*
X23373128Y-24201988D01*
X23381971Y-24200584D01*
X23383347Y-24201005D01*
G37*
%TD.AperFunction*%
%TD*%
%TA.AperFunction,Conductor*%
%TO.N,/SCL*%
G36*
X33893468Y-34047742D02*
G01*
X33896715Y-34053968D01*
X33919320Y-34181172D01*
X33919500Y-34183219D01*
X33919500Y-34186097D01*
X33919241Y-34188545D01*
X33781440Y-34832532D01*
X33776358Y-34839905D01*
X33767551Y-34841525D01*
X33760178Y-34836443D01*
X33758559Y-34832536D01*
X33620758Y-34188542D01*
X33620499Y-34186094D01*
X33620499Y-34183225D01*
X33620679Y-34181178D01*
X33643285Y-34053968D01*
X33648107Y-34046422D01*
X33654805Y-34044315D01*
X33885195Y-34044315D01*
X33893468Y-34047742D01*
G37*
%TD.AperFunction*%
%TD*%
%TA.AperFunction,Conductor*%
%TO.N,/HSE_IN*%
G36*
X46222613Y-33596688D02*
G01*
X46980505Y-34049643D01*
X46985849Y-34056829D01*
X46985162Y-34064511D01*
X46674676Y-34750471D01*
X46668143Y-34756595D01*
X46666712Y-34757031D01*
X46085563Y-34894589D01*
X46076723Y-34893160D01*
X46071483Y-34885899D01*
X46071173Y-34883552D01*
X46067409Y-34757031D01*
X46038162Y-33773836D01*
X46041342Y-33765466D01*
X46041553Y-33765247D01*
X46208342Y-33598458D01*
X46216614Y-33595032D01*
X46222613Y-33596688D01*
G37*
%TD.AperFunction*%
%TD*%
%TA.AperFunction,Conductor*%
%TO.N,/D_N*%
G36*
X26648538Y-30810757D02*
G01*
X27292533Y-30948559D01*
X27299905Y-30953640D01*
X27301525Y-30962447D01*
X27296443Y-30969820D01*
X27292532Y-30971440D01*
X26666418Y-31105415D01*
X26662760Y-31105611D01*
X26662395Y-31105573D01*
X26655661Y-31105217D01*
X26651540Y-31104999D01*
X26636448Y-31104999D01*
X26636444Y-31104999D01*
X26632695Y-31105067D01*
X26628629Y-31105216D01*
X26628620Y-31105216D01*
X26628606Y-31105217D01*
X26626521Y-31105330D01*
X26624864Y-31105421D01*
X26604374Y-31106914D01*
X26602673Y-31106914D01*
X26430849Y-31094390D01*
X26422847Y-31090371D01*
X26420000Y-31082721D01*
X26420000Y-30837278D01*
X26423427Y-30829005D01*
X26430848Y-30825609D01*
X26637967Y-30810512D01*
X26638323Y-30810499D01*
X26646107Y-30810499D01*
X26648538Y-30810757D01*
G37*
%TD.AperFunction*%
%TD*%
%TA.AperFunction,Conductor*%
%TO.N,Net-(J104-Pin_2)*%
G36*
X7190890Y-26015909D02*
G01*
X8536263Y-26604932D01*
X8542467Y-26611388D01*
X8543270Y-26615649D01*
X8543270Y-26850970D01*
X8539843Y-26859243D01*
X8537063Y-26861300D01*
X7191276Y-27576981D01*
X7182363Y-27577840D01*
X7175640Y-27572481D01*
X6733349Y-26802829D01*
X6732199Y-26793949D01*
X6733350Y-26791170D01*
X7176054Y-26020796D01*
X7183147Y-26015332D01*
X7190890Y-26015909D01*
G37*
%TD.AperFunction*%
%TD*%
%TA.AperFunction,Conductor*%
%TO.N,GND*%
G36*
X39103044Y-38332253D02*
G01*
X39109206Y-38338239D01*
X39385747Y-38950928D01*
X39386027Y-38959878D01*
X39383356Y-38964014D01*
X39218014Y-39129356D01*
X39209741Y-39132783D01*
X39204928Y-39131747D01*
X38592239Y-38855206D01*
X38586108Y-38848679D01*
X38586232Y-38840090D01*
X38732437Y-38484802D01*
X38738753Y-38478457D01*
X39094090Y-38332232D01*
X39103044Y-38332253D01*
G37*
%TD.AperFunction*%
%TD*%
%TA.AperFunction,Conductor*%
%TO.N,/UART_RX*%
G36*
X36892801Y-22613427D02*
G01*
X36896156Y-22620408D01*
X36919790Y-22833113D01*
X36919603Y-22836853D01*
X36781440Y-23482532D01*
X36776358Y-23489905D01*
X36767551Y-23491525D01*
X36760178Y-23486443D01*
X36758559Y-23482536D01*
X36620758Y-22838542D01*
X36620499Y-22836094D01*
X36620499Y-22830828D01*
X36620535Y-22830182D01*
X36643844Y-22620408D01*
X36648163Y-22612564D01*
X36655472Y-22610000D01*
X36884528Y-22610000D01*
X36892801Y-22613427D01*
G37*
%TD.AperFunction*%
%TD*%
%TA.AperFunction,Conductor*%
%TO.N,/BOOT0*%
G36*
X34779820Y-34933556D02*
G01*
X34781440Y-34937467D01*
X34919241Y-35581456D01*
X34919500Y-35583904D01*
X34919500Y-35589171D01*
X34919464Y-35589817D01*
X34896156Y-35799592D01*
X34891837Y-35807436D01*
X34884528Y-35810000D01*
X34655472Y-35810000D01*
X34647199Y-35806573D01*
X34643844Y-35799592D01*
X34636672Y-35735047D01*
X34620533Y-35589805D01*
X34620499Y-35589196D01*
X34620499Y-35583890D01*
X34620758Y-35581456D01*
X34758559Y-34937464D01*
X34763640Y-34930094D01*
X34772447Y-34928474D01*
X34779820Y-34933556D01*
G37*
%TD.AperFunction*%
%TD*%
%TA.AperFunction,Conductor*%
%TO.N,/VBAT*%
G36*
X38901955Y-40503449D02*
G01*
X39475921Y-40803517D01*
X39481665Y-40810387D01*
X39482200Y-40813886D01*
X39482200Y-41049713D01*
X39478773Y-41057986D01*
X39475921Y-41060082D01*
X38901956Y-41360149D01*
X38893036Y-41360945D01*
X38887304Y-41356969D01*
X38561797Y-40938988D01*
X38559418Y-40930356D01*
X38561797Y-40924612D01*
X38887306Y-40506628D01*
X38895091Y-40502208D01*
X38901955Y-40503449D01*
G37*
%TD.AperFunction*%
%TD*%
%TA.AperFunction,Conductor*%
%TO.N,/LSE_OUT*%
G36*
X42671434Y-36682427D02*
G01*
X42673356Y-36684959D01*
X42989862Y-37246991D01*
X42990935Y-37255881D01*
X42986502Y-37262228D01*
X42551834Y-37575080D01*
X42543117Y-37577132D01*
X42538164Y-37575080D01*
X42103496Y-37262228D01*
X42098783Y-37254614D01*
X42100135Y-37246993D01*
X42416644Y-36684958D01*
X42423690Y-36679432D01*
X42426839Y-36679000D01*
X42663161Y-36679000D01*
X42671434Y-36682427D01*
G37*
%TD.AperFunction*%
%TD*%
%TA.AperFunction,Conductor*%
%TO.N,+3V3*%
G36*
X24542528Y-25971229D02*
G01*
X24545203Y-25973397D01*
X24885758Y-26345096D01*
X24888820Y-26353510D01*
X24885758Y-26360903D01*
X24545206Y-26732599D01*
X24537090Y-26736384D01*
X24533662Y-26736025D01*
X24025783Y-26605261D01*
X24018625Y-26599880D01*
X24017000Y-26593931D01*
X24017000Y-26112068D01*
X24020427Y-26103795D01*
X24025780Y-26100739D01*
X24533664Y-25969974D01*
X24542528Y-25971229D01*
G37*
%TD.AperFunction*%
%TD*%
%TA.AperFunction,Conductor*%
%TO.N,/LED_UI*%
G36*
X34779820Y-23583556D02*
G01*
X34781440Y-23587467D01*
X34919241Y-24231456D01*
X34919500Y-24233904D01*
X34919500Y-24239171D01*
X34919464Y-24239817D01*
X34896156Y-24449592D01*
X34891837Y-24457436D01*
X34884528Y-24460000D01*
X34655472Y-24460000D01*
X34647199Y-24456573D01*
X34643844Y-24449592D01*
X34636672Y-24385048D01*
X34620533Y-24239805D01*
X34620499Y-24239196D01*
X34620499Y-24233890D01*
X34620758Y-24231456D01*
X34758559Y-23587464D01*
X34763640Y-23580094D01*
X34772447Y-23578474D01*
X34779820Y-23583556D01*
G37*
%TD.AperFunction*%
%TD*%
%TA.AperFunction,Conductor*%
%TO.N,GND*%
G36*
X35947818Y-38067894D02*
G01*
X35951075Y-38074178D01*
X36084644Y-38848345D01*
X36082673Y-38857080D01*
X36075103Y-38861864D01*
X36073143Y-38862034D01*
X35689355Y-38862994D01*
X35684824Y-38862093D01*
X35514883Y-38791241D01*
X35326340Y-38712634D01*
X35320022Y-38706287D01*
X35319380Y-38699490D01*
X35447484Y-38073820D01*
X35452501Y-38066403D01*
X35458947Y-38064467D01*
X35939545Y-38064467D01*
X35947818Y-38067894D01*
G37*
%TD.AperFunction*%
%TD*%
%TA.AperFunction,Conductor*%
%TO.N,/SWDIO*%
G36*
X28049812Y-31810534D02*
G01*
X28259593Y-31833843D01*
X28267436Y-31838162D01*
X28270000Y-31845471D01*
X28270000Y-32074528D01*
X28266573Y-32082801D01*
X28259592Y-32086156D01*
X28119747Y-32101694D01*
X28049821Y-32109464D01*
X28049180Y-32109500D01*
X28043901Y-32109500D01*
X28041453Y-32109241D01*
X27397467Y-31971440D01*
X27390094Y-31966358D01*
X27388474Y-31957551D01*
X27393556Y-31950178D01*
X27397461Y-31948560D01*
X28041458Y-31810757D01*
X28043904Y-31810499D01*
X28049171Y-31810499D01*
X28049812Y-31810534D01*
G37*
%TD.AperFunction*%
%TD*%
%TA.AperFunction,Conductor*%
%TO.N,Net-(D101-K)*%
G36*
X54493625Y-21739250D02*
G01*
X55033910Y-22027695D01*
X55039595Y-22034614D01*
X55040100Y-22038016D01*
X55040100Y-22274503D01*
X55036673Y-22282776D01*
X55034586Y-22284434D01*
X54522391Y-22603508D01*
X54513557Y-22604973D01*
X54507147Y-22600983D01*
X54409478Y-22481524D01*
X54169772Y-22188338D01*
X54167189Y-22179765D01*
X54169323Y-22174115D01*
X54269345Y-22034614D01*
X54478609Y-21742753D01*
X54486213Y-21738028D01*
X54493625Y-21739250D01*
G37*
%TD.AperFunction*%
%TD*%
%TA.AperFunction,Conductor*%
%TO.N,/NRST*%
G36*
X59811545Y-12145924D02*
G01*
X59977168Y-12311547D01*
X59980595Y-12319820D01*
X59979702Y-12324302D01*
X59661190Y-13092293D01*
X59654856Y-13098622D01*
X59646639Y-13098896D01*
X59186338Y-12943411D01*
X59179596Y-12937516D01*
X59179264Y-12936783D01*
X58999983Y-12501629D01*
X59000000Y-12492674D01*
X59006154Y-12486434D01*
X59391129Y-12319820D01*
X59798625Y-12143458D01*
X59807579Y-12143318D01*
X59811545Y-12145924D01*
G37*
%TD.AperFunction*%
%TD*%
%TA.AperFunction,Conductor*%
%TO.N,GND*%
G36*
X43686802Y-36449932D02*
G01*
X43689143Y-36453282D01*
X43976232Y-37072287D01*
X43976604Y-37081234D01*
X43970541Y-37087824D01*
X43970120Y-37088009D01*
X43616302Y-37235523D01*
X43607348Y-37235544D01*
X43607298Y-37235523D01*
X43252021Y-37087401D01*
X43245703Y-37081054D01*
X43245330Y-37073196D01*
X43433477Y-36454799D01*
X43439163Y-36447882D01*
X43444670Y-36446505D01*
X43678529Y-36446505D01*
X43686802Y-36449932D01*
G37*
%TD.AperFunction*%
%TD*%
%TA.AperFunction,Conductor*%
%TO.N,/USB_D_N*%
G36*
X21940678Y-45500393D02*
G01*
X21945842Y-45505557D01*
X22221612Y-46051114D01*
X22222286Y-46060043D01*
X22222053Y-46060688D01*
X22071923Y-46440996D01*
X22065697Y-46447433D01*
X22061040Y-46448400D01*
X21809760Y-46448400D01*
X21801487Y-46444973D01*
X21798877Y-46440996D01*
X21648746Y-46060688D01*
X21648896Y-46051735D01*
X21649171Y-46051146D01*
X21924958Y-45505556D01*
X21931749Y-45499719D01*
X21940678Y-45500393D01*
G37*
%TD.AperFunction*%
%TD*%
%TA.AperFunction,Conductor*%
%TO.N,GND*%
G36*
X43970909Y-37385119D02*
G01*
X43977227Y-37391466D01*
X43977351Y-37400055D01*
X43739659Y-38028837D01*
X43733528Y-38035364D01*
X43728715Y-38036400D01*
X43494885Y-38036400D01*
X43486612Y-38032973D01*
X43483941Y-38028837D01*
X43246248Y-37400055D01*
X43246528Y-37391105D01*
X43252689Y-37385119D01*
X43607300Y-37237275D01*
X43616249Y-37237255D01*
X43970909Y-37385119D01*
G37*
%TD.AperFunction*%
%TD*%
%TA.AperFunction,Conductor*%
%TO.N,Net-(C109-Pad1)*%
G36*
X45099213Y-31258427D02*
G01*
X45100113Y-31259438D01*
X45565620Y-31847447D01*
X45568069Y-31856060D01*
X45565336Y-31862317D01*
X44980489Y-32545614D01*
X44972506Y-32549671D01*
X44963992Y-32546895D01*
X44962711Y-32545614D01*
X44377863Y-31862317D01*
X44375087Y-31853803D01*
X44377579Y-31847447D01*
X44843087Y-31259438D01*
X44850909Y-31255078D01*
X44852260Y-31255000D01*
X45090940Y-31255000D01*
X45099213Y-31258427D01*
G37*
%TD.AperFunction*%
%TD*%
%TA.AperFunction,Conductor*%
%TO.N,GND*%
G36*
X61387881Y-15220587D02*
G01*
X61750790Y-15462527D01*
X61755773Y-15469966D01*
X61756000Y-15472261D01*
X61756000Y-15709738D01*
X61752573Y-15718011D01*
X61750790Y-15719473D01*
X61387880Y-15961412D01*
X61379095Y-15963150D01*
X61374379Y-15961044D01*
X60892514Y-15600367D01*
X60887944Y-15592666D01*
X60890158Y-15583989D01*
X60892514Y-15581633D01*
X61041701Y-15469966D01*
X61374380Y-15220954D01*
X61383056Y-15218741D01*
X61387881Y-15220587D01*
G37*
%TD.AperFunction*%
%TD*%
%TA.AperFunction,Conductor*%
%TO.N,+3V3*%
G36*
X28303655Y-20033427D02*
G01*
X28306556Y-20038230D01*
X28484472Y-20611167D01*
X28483652Y-20620084D01*
X28480487Y-20623868D01*
X28061189Y-20950401D01*
X28052556Y-20952781D01*
X28046811Y-20950401D01*
X27627512Y-20623868D01*
X27623090Y-20616081D01*
X27623527Y-20611167D01*
X27801444Y-20038230D01*
X27807171Y-20031346D01*
X27812618Y-20030000D01*
X28295382Y-20030000D01*
X28303655Y-20033427D01*
G37*
%TD.AperFunction*%
%TD*%
%TA.AperFunction,Conductor*%
%TO.N,/D_P*%
G36*
X26648538Y-31310757D02*
G01*
X27292533Y-31448559D01*
X27299905Y-31453640D01*
X27301525Y-31462447D01*
X27296443Y-31469820D01*
X27292532Y-31471440D01*
X26648542Y-31609241D01*
X26646094Y-31609500D01*
X26638365Y-31609500D01*
X26637940Y-31609485D01*
X26430849Y-31594390D01*
X26422847Y-31590371D01*
X26420000Y-31582721D01*
X26420000Y-31337278D01*
X26423427Y-31329005D01*
X26430848Y-31325609D01*
X26637967Y-31310512D01*
X26638323Y-31310499D01*
X26646107Y-31310499D01*
X26648538Y-31310757D01*
G37*
%TD.AperFunction*%
%TD*%
%TA.AperFunction,Conductor*%
%TO.N,+3V3*%
G36*
X29393177Y-22669427D02*
G01*
X29396478Y-22675988D01*
X29419374Y-22830768D01*
X29419500Y-22832480D01*
X29419500Y-22836098D01*
X29419241Y-22838546D01*
X29281440Y-23482532D01*
X29276358Y-23489905D01*
X29267551Y-23491525D01*
X29260178Y-23486443D01*
X29258559Y-23482536D01*
X29120441Y-22837065D01*
X29120309Y-22832910D01*
X29143522Y-22675986D01*
X29148123Y-22668305D01*
X29155096Y-22666000D01*
X29384904Y-22666000D01*
X29393177Y-22669427D01*
G37*
%TD.AperFunction*%
%TD*%
%TA.AperFunction,Conductor*%
%TO.N,/IR_RECV*%
G36*
X55665885Y-6737192D02*
G01*
X56206105Y-7229934D01*
X56209908Y-7238041D01*
X56208920Y-7243312D01*
X55786082Y-8199034D01*
X55779600Y-8205213D01*
X55775382Y-8206000D01*
X55540618Y-8206000D01*
X55532345Y-8202573D01*
X55529918Y-8199034D01*
X55107078Y-7243310D01*
X55106866Y-7234360D01*
X55109892Y-7229936D01*
X55650115Y-6737191D01*
X55658537Y-6734148D01*
X55665885Y-6737192D01*
G37*
%TD.AperFunction*%
%TD*%
%TA.AperFunction,Conductor*%
%TO.N,/SCL*%
G36*
X6719309Y-14054078D02*
G01*
X7675034Y-14476918D01*
X7681213Y-14483400D01*
X7682000Y-14487618D01*
X7682000Y-14722381D01*
X7678573Y-14730654D01*
X7675034Y-14733081D01*
X6719312Y-15155920D01*
X6710360Y-15156133D01*
X6705934Y-15153105D01*
X6213192Y-14612884D01*
X6210148Y-14604462D01*
X6213191Y-14597115D01*
X6705935Y-14056893D01*
X6714041Y-14053091D01*
X6719309Y-14054078D01*
G37*
%TD.AperFunction*%
%TD*%
%TA.AperFunction,Conductor*%
%TO.N,GND*%
G36*
X41455696Y-38756890D02*
G01*
X42067436Y-38988141D01*
X42073963Y-38994272D01*
X42074999Y-38999085D01*
X42074999Y-39232914D01*
X42071572Y-39241187D01*
X42067436Y-39243858D01*
X41438655Y-39481551D01*
X41429705Y-39481271D01*
X41423719Y-39475109D01*
X41327306Y-39243858D01*
X41275875Y-39120499D01*
X41275855Y-39111550D01*
X41423719Y-38756889D01*
X41430066Y-38750572D01*
X41438654Y-38750448D01*
X41455696Y-38756890D01*
G37*
%TD.AperFunction*%
%TD*%
%TA.AperFunction,Conductor*%
%TO.N,GND*%
G36*
X45113296Y-36089890D02*
G01*
X45725037Y-36321141D01*
X45731564Y-36327272D01*
X45732600Y-36332085D01*
X45732600Y-36565914D01*
X45729173Y-36574187D01*
X45725037Y-36576858D01*
X45096255Y-36814551D01*
X45087305Y-36814271D01*
X45081319Y-36808109D01*
X44984906Y-36576858D01*
X44933475Y-36453499D01*
X44933455Y-36444550D01*
X45081319Y-36089889D01*
X45087666Y-36083572D01*
X45096254Y-36083448D01*
X45113296Y-36089890D01*
G37*
%TD.AperFunction*%
%TD*%
%TA.AperFunction,Conductor*%
%TO.N,/BAT+*%
G36*
X49974375Y-42131939D02*
G01*
X50285591Y-42289750D01*
X50291420Y-42296548D01*
X50292000Y-42300185D01*
X50292000Y-42535814D01*
X50288573Y-42544087D01*
X50285591Y-42546249D01*
X49974375Y-42704060D01*
X49965447Y-42704745D01*
X49964311Y-42704307D01*
X49347408Y-42428682D01*
X49341253Y-42422179D01*
X49341499Y-42413227D01*
X49347408Y-42407318D01*
X49964313Y-42131691D01*
X49973263Y-42131446D01*
X49974375Y-42131939D01*
G37*
%TD.AperFunction*%
%TD*%
%TA.AperFunction,Conductor*%
%TO.N,+3V3*%
G36*
X25726514Y-33446397D02*
G01*
X25728163Y-33447768D01*
X25894029Y-33613634D01*
X25897456Y-33621907D01*
X25895700Y-33628071D01*
X25498919Y-34268142D01*
X25491648Y-34273369D01*
X25483925Y-34272532D01*
X25200869Y-34137077D01*
X25022993Y-34051956D01*
X25017010Y-34045294D01*
X25016830Y-34044739D01*
X24889237Y-33611439D01*
X24890188Y-33602537D01*
X24897156Y-33596912D01*
X24898305Y-33596636D01*
X25717756Y-33444537D01*
X25726514Y-33446397D01*
G37*
%TD.AperFunction*%
%TD*%
%TA.AperFunction,Conductor*%
%TO.N,/DIP3*%
G36*
X31121001Y-41159767D02*
G01*
X31125044Y-41163810D01*
X31491197Y-41776636D01*
X31492498Y-41785496D01*
X31490868Y-41789156D01*
X31243477Y-42157819D01*
X31236022Y-42162780D01*
X31233762Y-42163000D01*
X30996238Y-42163000D01*
X30987965Y-42159573D01*
X30986523Y-42157819D01*
X30739131Y-41789156D01*
X30737366Y-41780377D01*
X30738802Y-41776636D01*
X31104956Y-41163810D01*
X31112141Y-41158466D01*
X31121001Y-41159767D01*
G37*
%TD.AperFunction*%
%TD*%
%TA.AperFunction,Conductor*%
%TO.N,/HSE_IN*%
G36*
X48095181Y-34537827D02*
G01*
X48421001Y-34956211D01*
X48423381Y-34964844D01*
X48421001Y-34970589D01*
X48095805Y-35388171D01*
X48088018Y-35392593D01*
X48080644Y-35391068D01*
X47506370Y-35053392D01*
X47500975Y-35046244D01*
X47500600Y-35043306D01*
X47500600Y-34807512D01*
X47504027Y-34799239D01*
X47507428Y-34796875D01*
X48081082Y-34534376D01*
X48090031Y-34534051D01*
X48095181Y-34537827D01*
G37*
%TD.AperFunction*%
%TD*%
%TA.AperFunction,Conductor*%
%TO.N,/LED_HB*%
G36*
X33892801Y-22613427D02*
G01*
X33896156Y-22620408D01*
X33919464Y-22830174D01*
X33919500Y-22830820D01*
X33919500Y-22836098D01*
X33919241Y-22838546D01*
X33781440Y-23482532D01*
X33776358Y-23489905D01*
X33767551Y-23491525D01*
X33760178Y-23486443D01*
X33758559Y-23482536D01*
X33620758Y-22838542D01*
X33620499Y-22836094D01*
X33620499Y-22830828D01*
X33620535Y-22830182D01*
X33643844Y-22620408D01*
X33648163Y-22612564D01*
X33655472Y-22610000D01*
X33884528Y-22610000D01*
X33892801Y-22613427D01*
G37*
%TD.AperFunction*%
%TD*%
%TA.AperFunction,Conductor*%
%TO.N,/SWO*%
G36*
X25283347Y-24201005D02*
G01*
X25470407Y-24271153D01*
X25470408Y-24271153D01*
X25476951Y-24277267D01*
X25478000Y-24282108D01*
X25478000Y-24515892D01*
X25474573Y-24524165D01*
X25470408Y-24526847D01*
X25283353Y-24596992D01*
X25274403Y-24596688D01*
X25273127Y-24596010D01*
X25142534Y-24515892D01*
X24968254Y-24408971D01*
X24962995Y-24401726D01*
X24964400Y-24392882D01*
X24968253Y-24389028D01*
X25273128Y-24201988D01*
X25281971Y-24200584D01*
X25283347Y-24201005D01*
G37*
%TD.AperFunction*%
%TD*%
%TA.AperFunction,Conductor*%
%TO.N,+3.3VA*%
G36*
X40755518Y-25695388D02*
G01*
X41185516Y-25986916D01*
X41190440Y-25994395D01*
X41188634Y-26003166D01*
X41185516Y-26006284D01*
X40755518Y-26297811D01*
X40746747Y-26299617D01*
X40739268Y-26294693D01*
X40737478Y-26290416D01*
X40704026Y-26122732D01*
X40703800Y-26120443D01*
X40703800Y-25872756D01*
X40704026Y-25870467D01*
X40737478Y-25702783D01*
X40742457Y-25695340D01*
X40751241Y-25693598D01*
X40755518Y-25695388D01*
G37*
%TD.AperFunction*%
%TD*%
%TA.AperFunction,Conductor*%
%TO.N,GND*%
G36*
X40330357Y-46340268D02*
G01*
X40335079Y-46347876D01*
X40335234Y-46349744D01*
X40336194Y-46733644D01*
X40335293Y-46738175D01*
X40185874Y-47096563D01*
X40179527Y-47102881D01*
X40172607Y-47103498D01*
X39548251Y-46968791D01*
X39540887Y-46963696D01*
X39539019Y-46957354D01*
X39539019Y-46476734D01*
X39542446Y-46468461D01*
X39548820Y-46465189D01*
X40321637Y-46338228D01*
X40330357Y-46340268D01*
G37*
%TD.AperFunction*%
%TD*%
%TA.AperFunction,Conductor*%
%TO.N,GND*%
G36*
X60387737Y-15237752D02*
G01*
X60757588Y-15502083D01*
X60868986Y-15581699D01*
X60873724Y-15589298D01*
X60871702Y-15598021D01*
X60869194Y-15600585D01*
X60387224Y-15961340D01*
X60378547Y-15963554D01*
X60374293Y-15962065D01*
X60011780Y-15749390D01*
X60006378Y-15742247D01*
X60006000Y-15739298D01*
X60006000Y-15502083D01*
X60009427Y-15493810D01*
X60010975Y-15492509D01*
X60374219Y-15237693D01*
X60382958Y-15235748D01*
X60387737Y-15237752D01*
G37*
%TD.AperFunction*%
%TD*%
%TA.AperFunction,Conductor*%
%TO.N,+3V3*%
G36*
X37256664Y-37798252D02*
G01*
X37259316Y-37799731D01*
X37691971Y-38041056D01*
X37697526Y-38048078D01*
X37697748Y-38053545D01*
X37589866Y-38598572D01*
X37584898Y-38606022D01*
X37578389Y-38608000D01*
X37094841Y-38608000D01*
X37086568Y-38604573D01*
X37084645Y-38602038D01*
X36841355Y-38169757D01*
X36840284Y-38160867D01*
X36843770Y-38155282D01*
X37243187Y-37799730D01*
X37251644Y-37796790D01*
X37256664Y-37798252D01*
G37*
%TD.AperFunction*%
%TD*%
%TA.AperFunction,Conductor*%
%TO.N,/SWDIO*%
G36*
X22760690Y-24271047D02*
G01*
X22767082Y-24277319D01*
X22768016Y-24281899D01*
X22768016Y-24515749D01*
X22764589Y-24524022D01*
X22760245Y-24526770D01*
X22134529Y-24749824D01*
X22125585Y-24749374D01*
X22119801Y-24743305D01*
X22029523Y-24526770D01*
X21971875Y-24388499D01*
X21971855Y-24379550D01*
X22119624Y-24025118D01*
X22125970Y-24018802D01*
X22134796Y-24018770D01*
X22760690Y-24271047D01*
G37*
%TD.AperFunction*%
%TD*%
%TA.AperFunction,Conductor*%
%TO.N,/SDA*%
G36*
X16901433Y-22826384D02*
G01*
X16902122Y-22828046D01*
X17178234Y-23673277D01*
X17177912Y-23681410D01*
X17019000Y-24062800D01*
X17012655Y-24069119D01*
X17008200Y-24070000D01*
X16773800Y-24070000D01*
X16765527Y-24066573D01*
X16763000Y-24062800D01*
X16604086Y-23681408D01*
X16603765Y-23673279D01*
X16879878Y-22828045D01*
X16885705Y-22821246D01*
X16894633Y-22820557D01*
X16901433Y-22826384D01*
G37*
%TD.AperFunction*%
%TD*%
%TA.AperFunction,Conductor*%
%TO.N,GND*%
G36*
X59307188Y-14824427D02*
G01*
X59309859Y-14828563D01*
X59547551Y-15457344D01*
X59547271Y-15466294D01*
X59541109Y-15472280D01*
X59186502Y-15620123D01*
X59177548Y-15620144D01*
X59177498Y-15620123D01*
X58822890Y-15472280D01*
X58816572Y-15465933D01*
X58816448Y-15457345D01*
X59054141Y-14828562D01*
X59060272Y-14822036D01*
X59065085Y-14821000D01*
X59298915Y-14821000D01*
X59307188Y-14824427D01*
G37*
%TD.AperFunction*%
%TD*%
%TA.AperFunction,Conductor*%
%TO.N,GND*%
G36*
X58646649Y-24145442D02*
G01*
X58652041Y-24151316D01*
X58731836Y-24342709D01*
X58800123Y-24506497D01*
X58800144Y-24515451D01*
X58800123Y-24515501D01*
X58652562Y-24869433D01*
X58646215Y-24875751D01*
X58637261Y-24875730D01*
X58636949Y-24875595D01*
X58016559Y-24595508D01*
X58010428Y-24588980D01*
X58009673Y-24584844D01*
X58009673Y-24350982D01*
X58013100Y-24342709D01*
X58017856Y-24339823D01*
X58637730Y-24144658D01*
X58646649Y-24145442D01*
G37*
%TD.AperFunction*%
%TD*%
%TA.AperFunction,Conductor*%
%TO.N,+3V3*%
G36*
X8960039Y-32404685D02*
G01*
X9005794Y-32457489D01*
X9017000Y-32509000D01*
X9017000Y-37585596D01*
X9000387Y-37647596D01*
X8951821Y-37731714D01*
X8893327Y-37911740D01*
X8893326Y-37911744D01*
X8873540Y-38100000D01*
X8885841Y-38217041D01*
X8873273Y-38285768D01*
X8825541Y-38336792D01*
X8762521Y-38354000D01*
X759000Y-38354000D01*
X691961Y-38334315D01*
X646206Y-38281511D01*
X635000Y-38230000D01*
X635000Y-32509000D01*
X654685Y-32441961D01*
X707489Y-32396206D01*
X759000Y-32385000D01*
X8893000Y-32385000D01*
X8960039Y-32404685D01*
G37*
%TD.AperFunction*%
%TD*%
%TA.AperFunction,Conductor*%
%TO.N,/SWDIO*%
G36*
X29722890Y-29209964D02*
G01*
X29731154Y-29213412D01*
X29734560Y-29221693D01*
X29734352Y-29223859D01*
X29590816Y-29975233D01*
X29585898Y-29982717D01*
X29579324Y-29984738D01*
X29345637Y-29984738D01*
X29337364Y-29981311D01*
X29335594Y-29979040D01*
X28974381Y-29374673D01*
X28973078Y-29365814D01*
X28978422Y-29358628D01*
X28979917Y-29357874D01*
X29334829Y-29209904D01*
X29339350Y-29209005D01*
X29722890Y-29209964D01*
G37*
%TD.AperFunction*%
%TD*%
%TA.AperFunction,Conductor*%
%TO.N,+3V3*%
G36*
X26620296Y-32814019D02*
G01*
X26625927Y-32814488D01*
X26632250Y-32814841D01*
X26632272Y-32814841D01*
X26632279Y-32814842D01*
X26635884Y-32814942D01*
X26637938Y-32814999D01*
X26637949Y-32815000D01*
X26637968Y-32815000D01*
X26651510Y-32815000D01*
X26651511Y-32815000D01*
X26662329Y-32814429D01*
X26662715Y-32814388D01*
X26666402Y-32814579D01*
X27292533Y-32948559D01*
X27299905Y-32953640D01*
X27301525Y-32962447D01*
X27296443Y-32969820D01*
X27292532Y-32971440D01*
X26646853Y-33109603D01*
X26643113Y-33109790D01*
X26430408Y-33086156D01*
X26422564Y-33081837D01*
X26420000Y-33074528D01*
X26420000Y-32845471D01*
X26423427Y-32837198D01*
X26430406Y-32833843D01*
X26613284Y-32813524D01*
X26615841Y-32813524D01*
X26620296Y-32814019D01*
G37*
%TD.AperFunction*%
%TD*%
%TA.AperFunction,Conductor*%
%TO.N,/D_N*%
G36*
X22069313Y-42251827D02*
G01*
X22071923Y-42255804D01*
X22222053Y-42636111D01*
X22221903Y-42645064D01*
X22221612Y-42645685D01*
X21945842Y-43191242D01*
X21939051Y-43197080D01*
X21930122Y-43196406D01*
X21924958Y-43191242D01*
X21847378Y-43037767D01*
X21649186Y-42645683D01*
X21648513Y-42636756D01*
X21648737Y-42636134D01*
X21798877Y-42255803D01*
X21805103Y-42249367D01*
X21809760Y-42248400D01*
X22061040Y-42248400D01*
X22069313Y-42251827D01*
G37*
%TD.AperFunction*%
%TD*%
%TA.AperFunction,Conductor*%
%TO.N,/DIP2*%
G36*
X32512035Y-40136427D02*
G01*
X32513477Y-40138181D01*
X32760868Y-40506843D01*
X32762633Y-40515622D01*
X32761197Y-40519363D01*
X32395044Y-41132189D01*
X32387859Y-41137533D01*
X32378999Y-41136232D01*
X32374956Y-41132189D01*
X32008802Y-40519363D01*
X32007501Y-40510503D01*
X32009129Y-40506845D01*
X32256523Y-40138180D01*
X32263978Y-40133220D01*
X32266238Y-40133000D01*
X32503762Y-40133000D01*
X32512035Y-40136427D01*
G37*
%TD.AperFunction*%
%TD*%
%TA.AperFunction,Conductor*%
%TO.N,GND*%
G36*
X42932769Y-27551139D02*
G01*
X43318463Y-27866766D01*
X43348719Y-27891525D01*
X43352951Y-27899417D01*
X43351118Y-27906958D01*
X43003661Y-28441278D01*
X42996278Y-28446346D01*
X42993852Y-28446600D01*
X42757569Y-28446600D01*
X42749296Y-28443173D01*
X42747017Y-28439954D01*
X42644361Y-28225635D01*
X42472466Y-27866764D01*
X42471984Y-27857825D01*
X42476427Y-27852046D01*
X42918772Y-27550526D01*
X42927536Y-27548699D01*
X42932769Y-27551139D01*
G37*
%TD.AperFunction*%
%TD*%
%TA.AperFunction,Conductor*%
%TO.N,Net-(U101-VCAP1)*%
G36*
X31123017Y-20974547D02*
G01*
X31516342Y-21344797D01*
X31520018Y-21352963D01*
X31517555Y-21360504D01*
X31243513Y-21712488D01*
X31235727Y-21716910D01*
X31234281Y-21717000D01*
X30995719Y-21717000D01*
X30987446Y-21713573D01*
X30986487Y-21712488D01*
X30712443Y-21360502D01*
X30710066Y-21351870D01*
X30713656Y-21344798D01*
X31106981Y-20974547D01*
X31115353Y-20971372D01*
X31123017Y-20974547D01*
G37*
%TD.AperFunction*%
%TD*%
%TA.AperFunction,Conductor*%
%TO.N,/LED_HB*%
G36*
X52237078Y-21769119D02*
G01*
X52585244Y-22174580D01*
X52588033Y-22183089D01*
X52586019Y-22188815D01*
X52286171Y-22626466D01*
X52278668Y-22631354D01*
X52271253Y-22630301D01*
X51721534Y-22353242D01*
X51715689Y-22346458D01*
X51715100Y-22342794D01*
X51715100Y-22106310D01*
X51718527Y-22098037D01*
X51720371Y-22096535D01*
X52221776Y-21766963D01*
X52230570Y-21765283D01*
X52237078Y-21769119D01*
G37*
%TD.AperFunction*%
%TD*%
%TA.AperFunction,Conductor*%
%TO.N,GND*%
G36*
X18128160Y-28939882D02*
G01*
X19697512Y-29707490D01*
X19703438Y-29714203D01*
X19702881Y-29723141D01*
X19697512Y-29728510D01*
X18128160Y-30496117D01*
X18119222Y-30496674D01*
X18116822Y-30495531D01*
X17277503Y-29971436D01*
X17272301Y-29964148D01*
X17272000Y-29961512D01*
X17272000Y-29474487D01*
X17275427Y-29466214D01*
X17277498Y-29464566D01*
X18116823Y-28940467D01*
X18125655Y-28938993D01*
X18128160Y-28939882D01*
G37*
%TD.AperFunction*%
%TD*%
%TA.AperFunction,Conductor*%
%TO.N,GND*%
G36*
X26645159Y-22970825D02*
G01*
X26646166Y-22971718D01*
X26647232Y-22972778D01*
X26916951Y-23241152D01*
X26920399Y-23249417D01*
X26920399Y-23249467D01*
X26919718Y-23635232D01*
X26916277Y-23643499D01*
X26909743Y-23646783D01*
X26353755Y-23729676D01*
X26345067Y-23727507D01*
X26343757Y-23726377D01*
X26178497Y-23561117D01*
X26175070Y-23552844D01*
X26177577Y-23545606D01*
X26628728Y-22972777D01*
X26636539Y-22968399D01*
X26645159Y-22970825D01*
G37*
%TD.AperFunction*%
%TD*%
%TA.AperFunction,Conductor*%
%TO.N,GND*%
G36*
X40863588Y-27117052D02*
G01*
X40867984Y-27120517D01*
X41193237Y-27538173D01*
X41195617Y-27546806D01*
X41192004Y-27553901D01*
X40796488Y-27924342D01*
X40788107Y-27927497D01*
X40781977Y-27925523D01*
X40278987Y-27588475D01*
X40274022Y-27581022D01*
X40273800Y-27578755D01*
X40273800Y-27343101D01*
X40277227Y-27334828D01*
X40281381Y-27332151D01*
X40854639Y-27116754D01*
X40863588Y-27117052D01*
G37*
%TD.AperFunction*%
%TD*%
%TA.AperFunction,Conductor*%
%TO.N,GND*%
G36*
X9905434Y-38282627D02*
G01*
X9907356Y-38285159D01*
X10223863Y-38847191D01*
X10224936Y-38856081D01*
X10220503Y-38862428D01*
X9785835Y-39175280D01*
X9777118Y-39177332D01*
X9772165Y-39175280D01*
X9337496Y-38862428D01*
X9332783Y-38854814D01*
X9334135Y-38847193D01*
X9650644Y-38285158D01*
X9657690Y-38279632D01*
X9660839Y-38279200D01*
X9897161Y-38279200D01*
X9905434Y-38282627D01*
G37*
%TD.AperFunction*%
%TD*%
%TA.AperFunction,Conductor*%
%TO.N,/SDA*%
G36*
X5708216Y-16057059D02*
G01*
X6200807Y-16597114D01*
X6203851Y-16605536D01*
X6200807Y-16612884D01*
X5708216Y-17152940D01*
X5700109Y-17156743D01*
X5694573Y-17155633D01*
X4800701Y-16733167D01*
X4794685Y-16726534D01*
X4794000Y-16722589D01*
X4794000Y-16487410D01*
X4797427Y-16479137D01*
X4800696Y-16476834D01*
X5694574Y-16054365D01*
X5703517Y-16053929D01*
X5708216Y-16057059D01*
G37*
%TD.AperFunction*%
%TD*%
%TA.AperFunction,Conductor*%
%TO.N,/LSE_IN*%
G36*
X40157543Y-35700122D02*
G01*
X40162158Y-35704787D01*
X40635589Y-36580343D01*
X40636509Y-36589250D01*
X40634592Y-36593013D01*
X40260512Y-37082405D01*
X40252766Y-37086897D01*
X40251217Y-37087000D01*
X40013042Y-37087000D01*
X40004769Y-37083573D01*
X40003502Y-37082073D01*
X39656265Y-36593007D01*
X39654270Y-36584278D01*
X39655575Y-36580557D01*
X40141574Y-35704787D01*
X40141636Y-35704674D01*
X40148646Y-35699104D01*
X40157543Y-35700122D01*
G37*
%TD.AperFunction*%
%TD*%
%TA.AperFunction,Conductor*%
%TO.N,GND*%
G36*
X29977153Y-18287965D02*
G01*
X29985418Y-18291413D01*
X29988824Y-18299694D01*
X29988655Y-18301646D01*
X29855670Y-19075695D01*
X29850892Y-19083269D01*
X29844139Y-19085414D01*
X29363538Y-19085414D01*
X29355265Y-19081987D01*
X29352078Y-19076072D01*
X29352000Y-19075695D01*
X29223390Y-18450518D01*
X29225081Y-18441724D01*
X29230346Y-18437363D01*
X29588829Y-18287904D01*
X29593350Y-18287005D01*
X29977153Y-18287965D01*
G37*
%TD.AperFunction*%
%TD*%
%TA.AperFunction,Conductor*%
%TO.N,+3V3*%
G36*
X44193640Y-41192427D02*
G01*
X44195406Y-41194692D01*
X44818788Y-42236341D01*
X44820096Y-42245200D01*
X44817870Y-42249676D01*
X43951121Y-43328645D01*
X43943269Y-43332949D01*
X43934673Y-43330439D01*
X43932879Y-43328645D01*
X43066129Y-42249676D01*
X43063619Y-42241080D01*
X43065209Y-42236344D01*
X43688593Y-41194692D01*
X43695782Y-41189353D01*
X43698633Y-41189000D01*
X44185367Y-41189000D01*
X44193640Y-41192427D01*
G37*
%TD.AperFunction*%
%TD*%
%TA.AperFunction,Conductor*%
%TO.N,GND*%
G36*
X25283347Y-23551005D02*
G01*
X25470407Y-23621153D01*
X25470408Y-23621153D01*
X25476951Y-23627267D01*
X25478000Y-23632108D01*
X25478000Y-23865892D01*
X25474573Y-23874165D01*
X25470408Y-23876847D01*
X25283353Y-23946992D01*
X25274403Y-23946688D01*
X25273127Y-23946010D01*
X25142534Y-23865892D01*
X24968254Y-23758971D01*
X24962995Y-23751726D01*
X24964400Y-23742882D01*
X24968253Y-23739028D01*
X25273128Y-23551988D01*
X25281971Y-23550584D01*
X25283347Y-23551005D01*
G37*
%TD.AperFunction*%
%TD*%
%TA.AperFunction,Conductor*%
%TO.N,+3.3VA*%
G36*
X41543555Y-25568249D02*
G01*
X42117521Y-25868317D01*
X42123265Y-25875187D01*
X42123800Y-25878686D01*
X42123800Y-26114513D01*
X42120373Y-26122786D01*
X42117521Y-26124882D01*
X41543556Y-26424949D01*
X41534636Y-26425745D01*
X41528904Y-26421769D01*
X41203397Y-26003788D01*
X41201018Y-25995156D01*
X41203397Y-25989412D01*
X41528906Y-25571428D01*
X41536691Y-25567008D01*
X41543555Y-25568249D01*
G37*
%TD.AperFunction*%
%TD*%
%TA.AperFunction,Conductor*%
%TO.N,GND*%
G36*
X38308463Y-42035189D02*
G01*
X38310665Y-42038013D01*
X38553117Y-42472688D01*
X38554154Y-42481582D01*
X38549727Y-42487888D01*
X38116201Y-42799436D01*
X38107483Y-42801481D01*
X38100732Y-42797823D01*
X37651130Y-42305349D01*
X37648073Y-42297464D01*
X37648073Y-42063346D01*
X37651500Y-42055074D01*
X37659413Y-42051652D01*
X38300091Y-42032017D01*
X38308463Y-42035189D01*
G37*
%TD.AperFunction*%
%TD*%
%TA.AperFunction,Conductor*%
%TO.N,GND*%
G36*
X14230777Y-24002969D02*
G01*
X14239041Y-24006417D01*
X14242447Y-24014698D01*
X14242434Y-24015210D01*
X14207517Y-24769165D01*
X14203712Y-24777271D01*
X14195830Y-24780324D01*
X13715115Y-24780324D01*
X13706842Y-24776897D01*
X13704157Y-24772724D01*
X13630388Y-24575553D01*
X13477398Y-24166630D01*
X13477708Y-24157683D01*
X13483853Y-24151734D01*
X13840829Y-24002904D01*
X13845350Y-24002005D01*
X14230777Y-24002969D01*
G37*
%TD.AperFunction*%
%TD*%
%TA.AperFunction,Conductor*%
%TO.N,+3.3VA*%
G36*
X43840627Y-25622416D02*
G01*
X43848458Y-25626759D01*
X43851000Y-25634041D01*
X43851000Y-26116416D01*
X43847573Y-26124689D01*
X43844593Y-26126850D01*
X43314160Y-26395942D01*
X43305232Y-26396629D01*
X43300366Y-26393547D01*
X42930899Y-26002838D01*
X42927705Y-25994472D01*
X42929180Y-25989104D01*
X43172202Y-25553407D01*
X43179224Y-25547853D01*
X43183742Y-25547483D01*
X43840627Y-25622416D01*
G37*
%TD.AperFunction*%
%TD*%
%TA.AperFunction,Conductor*%
%TO.N,GND*%
G36*
X47270434Y-31972696D02*
G01*
X47273808Y-31979930D01*
X47302577Y-32304737D01*
X47302600Y-32305254D01*
X47302600Y-32804745D01*
X47302577Y-32805262D01*
X47273808Y-33130069D01*
X47269665Y-33138008D01*
X47261122Y-33140691D01*
X47253888Y-33137317D01*
X46921279Y-32805262D01*
X46678892Y-32563278D01*
X46675459Y-32555010D01*
X46678878Y-32546735D01*
X47253888Y-31972681D01*
X47262164Y-31969262D01*
X47270434Y-31972696D01*
G37*
%TD.AperFunction*%
%TD*%
%TA.AperFunction,Conductor*%
%TO.N,+3V3*%
G36*
X45972712Y-27320064D02*
G01*
X45977014Y-27325292D01*
X46126493Y-27683824D01*
X46127394Y-27688355D01*
X46126434Y-28072086D01*
X46122986Y-28080351D01*
X46114705Y-28083757D01*
X46112699Y-28083579D01*
X45337855Y-27946707D01*
X45330304Y-27941893D01*
X45328190Y-27935185D01*
X45328190Y-27454598D01*
X45331617Y-27446325D01*
X45337603Y-27443124D01*
X45963930Y-27318320D01*
X45972712Y-27320064D01*
G37*
%TD.AperFunction*%
%TD*%
%TA.AperFunction,Conductor*%
%TO.N,/SDA*%
G36*
X34411830Y-33963427D02*
G01*
X34415254Y-33971440D01*
X34419499Y-34162468D01*
X34419500Y-34162559D01*
X34419500Y-34186098D01*
X34419241Y-34188546D01*
X34282439Y-34827867D01*
X34277357Y-34835240D01*
X34268550Y-34836860D01*
X34261177Y-34831778D01*
X34259483Y-34827489D01*
X34136409Y-34142759D01*
X34136372Y-34138851D01*
X34163423Y-33969850D01*
X34168114Y-33962223D01*
X34174976Y-33960000D01*
X34403557Y-33960000D01*
X34411830Y-33963427D01*
G37*
%TD.AperFunction*%
%TD*%
%TA.AperFunction,Conductor*%
%TO.N,+3V3*%
G36*
X20711600Y-22823320D02*
G01*
X20711997Y-22824278D01*
X21000067Y-23617431D01*
X21000698Y-23622717D01*
X20952156Y-24059592D01*
X20947837Y-24067436D01*
X20940528Y-24070000D01*
X20461472Y-24070000D01*
X20453199Y-24066573D01*
X20449844Y-24059592D01*
X20433662Y-23913966D01*
X20401301Y-23622713D01*
X20401931Y-23617435D01*
X20690003Y-22824277D01*
X20696048Y-22817672D01*
X20704994Y-22817275D01*
X20711600Y-22823320D01*
G37*
%TD.AperFunction*%
%TD*%
%TA.AperFunction,Conductor*%
%TO.N,GND*%
G36*
X29611188Y-19435598D02*
G01*
X30030487Y-19762131D01*
X30034909Y-19769918D01*
X30034472Y-19774832D01*
X29856556Y-20347770D01*
X29850829Y-20354654D01*
X29845382Y-20356000D01*
X29362618Y-20356000D01*
X29354345Y-20352573D01*
X29351444Y-20347770D01*
X29173527Y-19774832D01*
X29174347Y-19765915D01*
X29177510Y-19762132D01*
X29596812Y-19435597D01*
X29605443Y-19433218D01*
X29611188Y-19435598D01*
G37*
%TD.AperFunction*%
%TD*%
%TA.AperFunction,Conductor*%
%TO.N,GND*%
G36*
X29853655Y-20033427D02*
G01*
X29856556Y-20038230D01*
X30034472Y-20611167D01*
X30033652Y-20620084D01*
X30030487Y-20623868D01*
X29611189Y-20950401D01*
X29602556Y-20952781D01*
X29596811Y-20950401D01*
X29177512Y-20623868D01*
X29173090Y-20616081D01*
X29173527Y-20611167D01*
X29351444Y-20038230D01*
X29357171Y-20031346D01*
X29362618Y-20030000D01*
X29845382Y-20030000D01*
X29853655Y-20033427D01*
G37*
%TD.AperFunction*%
%TD*%
%TA.AperFunction,Conductor*%
%TO.N,/BOOT0*%
G36*
X34931001Y-41159767D02*
G01*
X34935044Y-41163810D01*
X35301197Y-41776636D01*
X35302498Y-41785496D01*
X35300868Y-41789156D01*
X35053477Y-42157819D01*
X35046022Y-42162780D01*
X35043762Y-42163000D01*
X34806238Y-42163000D01*
X34797965Y-42159573D01*
X34796523Y-42157819D01*
X34549131Y-41789156D01*
X34547366Y-41780377D01*
X34548802Y-41776636D01*
X34914956Y-41163810D01*
X34922141Y-41158466D01*
X34931001Y-41159767D01*
G37*
%TD.AperFunction*%
%TD*%
%TA.AperFunction,Conductor*%
%TO.N,/NRST*%
G36*
X25283347Y-22901005D02*
G01*
X25470407Y-22971153D01*
X25470408Y-22971153D01*
X25476951Y-22977267D01*
X25478000Y-22982108D01*
X25478000Y-23215892D01*
X25474573Y-23224165D01*
X25470408Y-23226847D01*
X25283353Y-23296992D01*
X25274403Y-23296688D01*
X25273127Y-23296010D01*
X25142534Y-23215892D01*
X24968254Y-23108971D01*
X24962995Y-23101726D01*
X24964400Y-23092882D01*
X24968253Y-23089028D01*
X25273128Y-22901988D01*
X25281971Y-22900584D01*
X25283347Y-22901005D01*
G37*
%TD.AperFunction*%
%TD*%
%TA.AperFunction,Conductor*%
%TO.N,GND*%
G36*
X31500939Y-18287964D02*
G01*
X31509202Y-18291412D01*
X31512608Y-18299693D01*
X31512408Y-18301820D01*
X31366790Y-19078456D01*
X31361897Y-19085956D01*
X31355290Y-19088000D01*
X30874710Y-19088000D01*
X30866437Y-19084573D01*
X30863210Y-19078456D01*
X30717591Y-18301820D01*
X30719435Y-18293057D01*
X30726935Y-18288164D01*
X30729052Y-18287964D01*
X31115000Y-18287000D01*
X31500939Y-18287964D01*
G37*
%TD.AperFunction*%
%TD*%
%TA.AperFunction,Conductor*%
%TO.N,/LED_UI*%
G36*
X46408696Y-24024890D02*
G01*
X47020437Y-24256141D01*
X47026964Y-24262272D01*
X47028000Y-24267085D01*
X47028000Y-24500914D01*
X47024573Y-24509187D01*
X47020437Y-24511858D01*
X46391655Y-24749551D01*
X46382705Y-24749271D01*
X46376719Y-24743109D01*
X46280306Y-24511858D01*
X46228875Y-24388499D01*
X46228855Y-24379550D01*
X46376719Y-24024889D01*
X46383066Y-24018572D01*
X46391654Y-24018448D01*
X46408696Y-24024890D01*
G37*
%TD.AperFunction*%
%TD*%
%TA.AperFunction,Conductor*%
%TO.N,+3V3*%
G36*
X35892801Y-22613427D02*
G01*
X35896156Y-22620408D01*
X35919464Y-22830174D01*
X35919500Y-22830820D01*
X35919500Y-22836098D01*
X35919241Y-22838546D01*
X35781440Y-23482532D01*
X35776358Y-23489905D01*
X35767551Y-23491525D01*
X35760178Y-23486443D01*
X35758559Y-23482536D01*
X35620758Y-22838542D01*
X35620499Y-22836094D01*
X35620499Y-22830828D01*
X35620535Y-22830182D01*
X35643844Y-22620408D01*
X35648163Y-22612564D01*
X35655472Y-22610000D01*
X35884528Y-22610000D01*
X35892801Y-22613427D01*
G37*
%TD.AperFunction*%
%TD*%
%TA.AperFunction,Conductor*%
%TO.N,/DIP1*%
G36*
X33782035Y-40136427D02*
G01*
X33783477Y-40138181D01*
X34030868Y-40506843D01*
X34032633Y-40515622D01*
X34031197Y-40519363D01*
X33665044Y-41132189D01*
X33657859Y-41137533D01*
X33648999Y-41136232D01*
X33644956Y-41132189D01*
X33278802Y-40519363D01*
X33277501Y-40510503D01*
X33279129Y-40506845D01*
X33526523Y-40138180D01*
X33533978Y-40133220D01*
X33536238Y-40133000D01*
X33773762Y-40133000D01*
X33782035Y-40136427D01*
G37*
%TD.AperFunction*%
%TD*%
%TA.AperFunction,Conductor*%
%TO.N,/USB_D_P*%
G36*
X23840678Y-45500393D02*
G01*
X23845842Y-45505557D01*
X24121612Y-46051114D01*
X24122286Y-46060043D01*
X24122053Y-46060688D01*
X23971923Y-46440996D01*
X23965697Y-46447433D01*
X23961040Y-46448400D01*
X23709760Y-46448400D01*
X23701487Y-46444973D01*
X23698877Y-46440996D01*
X23548746Y-46060688D01*
X23548896Y-46051735D01*
X23549171Y-46051146D01*
X23824958Y-45505556D01*
X23831749Y-45499719D01*
X23840678Y-45500393D01*
G37*
%TD.AperFunction*%
%TD*%
%TA.AperFunction,Conductor*%
%TO.N,/DIP2*%
G36*
X37058193Y-45723113D02*
G01*
X37058577Y-45723292D01*
X37433691Y-45906398D01*
X37439623Y-45913106D01*
X37439073Y-45922044D01*
X37433781Y-45927382D01*
X37058383Y-46114613D01*
X37049450Y-46115239D01*
X37049365Y-46115210D01*
X36861904Y-46050911D01*
X36855190Y-46044985D01*
X36854000Y-46039844D01*
X36854000Y-45806227D01*
X36857427Y-45797954D01*
X36861490Y-45795311D01*
X37049242Y-45722893D01*
X37058193Y-45723113D01*
G37*
%TD.AperFunction*%
%TD*%
%TA.AperFunction,Conductor*%
%TO.N,GND*%
G36*
X29853655Y-18509427D02*
G01*
X29856556Y-18514230D01*
X30034472Y-19087167D01*
X30033652Y-19096084D01*
X30030487Y-19099868D01*
X29611189Y-19426401D01*
X29602556Y-19428781D01*
X29596811Y-19426401D01*
X29177512Y-19099868D01*
X29173090Y-19092081D01*
X29173527Y-19087167D01*
X29351444Y-18514230D01*
X29357171Y-18507346D01*
X29362618Y-18506000D01*
X29845382Y-18506000D01*
X29853655Y-18509427D01*
G37*
%TD.AperFunction*%
%TD*%
%TA.AperFunction,Conductor*%
%TO.N,/BOOT0*%
G36*
X37059557Y-44070264D02*
G01*
X37202812Y-44159576D01*
X37439073Y-44306871D01*
X37444280Y-44314156D01*
X37442812Y-44322990D01*
X37439073Y-44326729D01*
X37059560Y-44563333D01*
X37050726Y-44564801D01*
X37048138Y-44563869D01*
X36810468Y-44445034D01*
X36804600Y-44438269D01*
X36804000Y-44434569D01*
X36804000Y-44199031D01*
X36807427Y-44190758D01*
X36810468Y-44188566D01*
X37048140Y-44069729D01*
X37057070Y-44069095D01*
X37059557Y-44070264D01*
G37*
%TD.AperFunction*%
%TD*%
%TA.AperFunction,Conductor*%
%TO.N,GND*%
G36*
X37609703Y-41841866D02*
G01*
X38128057Y-42049059D01*
X38134467Y-42055311D01*
X38135414Y-42059923D01*
X38135414Y-42293771D01*
X38131987Y-42302044D01*
X38127671Y-42304782D01*
X37501546Y-42529788D01*
X37492601Y-42529361D01*
X37486790Y-42523279D01*
X37486495Y-42522572D01*
X37338875Y-42168499D01*
X37338855Y-42159550D01*
X37486636Y-41805088D01*
X37492983Y-41798771D01*
X37501778Y-41798727D01*
X37609703Y-41841866D01*
G37*
%TD.AperFunction*%
%TD*%
%TA.AperFunction,Conductor*%
%TO.N,/SDA*%
G36*
X34649109Y-33422719D02*
G01*
X34655427Y-33429066D01*
X34655551Y-33437655D01*
X34417859Y-34066437D01*
X34411728Y-34072964D01*
X34406915Y-34074000D01*
X34173085Y-34074000D01*
X34164812Y-34070573D01*
X34162141Y-34066437D01*
X33924448Y-33437655D01*
X33924728Y-33428705D01*
X33930889Y-33422719D01*
X34285500Y-33274875D01*
X34294449Y-33274855D01*
X34649109Y-33422719D01*
G37*
%TD.AperFunction*%
%TD*%
%TA.AperFunction,Conductor*%
%TO.N,GND*%
G36*
X39380042Y-46220227D02*
G01*
X39382234Y-46223268D01*
X39500236Y-46459273D01*
X39500871Y-46468205D01*
X39498061Y-46472762D01*
X39262289Y-46709476D01*
X39254022Y-46712919D01*
X39245742Y-46709509D01*
X39245709Y-46709476D01*
X39009938Y-46472762D01*
X39006528Y-46464482D01*
X39007762Y-46459274D01*
X39125766Y-46223268D01*
X39132531Y-46217400D01*
X39136231Y-46216800D01*
X39371769Y-46216800D01*
X39380042Y-46220227D01*
G37*
%TD.AperFunction*%
%TD*%
%TA.AperFunction,Conductor*%
%TO.N,/UART_TX*%
G36*
X63763749Y-23360644D02*
G01*
X64255807Y-23900115D01*
X64258851Y-23908537D01*
X64255807Y-23915885D01*
X63762481Y-24456746D01*
X63754374Y-24460549D01*
X63750207Y-24459983D01*
X62819019Y-24156034D01*
X62812217Y-24150210D01*
X62810949Y-24144912D01*
X62810949Y-23910134D01*
X62814376Y-23901861D01*
X62816773Y-23900017D01*
X63749229Y-23358411D01*
X63758104Y-23357220D01*
X63763749Y-23360644D01*
G37*
%TD.AperFunction*%
%TD*%
%TA.AperFunction,Conductor*%
%TO.N,/VBAT*%
G36*
X38154912Y-40554080D02*
G01*
X38550404Y-40924498D01*
X38554100Y-40932654D01*
X38551637Y-40940226D01*
X38226363Y-41357909D01*
X38218576Y-41362331D01*
X38213059Y-41361688D01*
X37639827Y-41148832D01*
X37633264Y-41142740D01*
X37632200Y-41137864D01*
X37632200Y-40902218D01*
X37635627Y-40893945D01*
X37637353Y-40892521D01*
X38138652Y-40554080D01*
X38140367Y-40552921D01*
X38149142Y-40551133D01*
X38154912Y-40554080D01*
G37*
%TD.AperFunction*%
%TD*%
%TA.AperFunction,Conductor*%
%TO.N,/SWO*%
G36*
X32617109Y-31009719D02*
G01*
X32623427Y-31016066D01*
X32623551Y-31024655D01*
X32385859Y-31653437D01*
X32379728Y-31659964D01*
X32374915Y-31661000D01*
X32141085Y-31661000D01*
X32132812Y-31657573D01*
X32130141Y-31653437D01*
X31892448Y-31024655D01*
X31892728Y-31015705D01*
X31898889Y-31009719D01*
X32253500Y-30861875D01*
X32262449Y-30861855D01*
X32617109Y-31009719D01*
G37*
%TD.AperFunction*%
%TD*%
%TA.AperFunction,Conductor*%
%TO.N,+3V3*%
G36*
X35118039Y-48537685D02*
G01*
X35163794Y-48590489D01*
X35175000Y-48642000D01*
X35175000Y-49903000D01*
X35352828Y-49903000D01*
X35352844Y-49902999D01*
X35420087Y-49895769D01*
X35420374Y-49898445D01*
X35477247Y-49901491D01*
X35533921Y-49942355D01*
X35559506Y-50007372D01*
X35560000Y-50018430D01*
X35560000Y-51311000D01*
X35540315Y-51378039D01*
X35487511Y-51423794D01*
X35436000Y-51435000D01*
X30604000Y-51435000D01*
X30536961Y-51415315D01*
X30491206Y-51362511D01*
X30480000Y-51311000D01*
X30480000Y-50018430D01*
X30499685Y-49951391D01*
X30552489Y-49905636D01*
X30619894Y-49895944D01*
X30619913Y-49895769D01*
X30620598Y-49895842D01*
X30621647Y-49895692D01*
X30624852Y-49896300D01*
X30687155Y-49902999D01*
X30687172Y-49903000D01*
X30865000Y-49903000D01*
X30865000Y-49018000D01*
X31365000Y-49018000D01*
X31365000Y-49903000D01*
X31542828Y-49903000D01*
X31542844Y-49902999D01*
X31602372Y-49896598D01*
X31602376Y-49896597D01*
X31706666Y-49857699D01*
X31776357Y-49852715D01*
X31793334Y-49857699D01*
X31897623Y-49896597D01*
X31897627Y-49896598D01*
X31957155Y-49902999D01*
X31957172Y-49903000D01*
X32135000Y-49903000D01*
X32135000Y-49018000D01*
X32635000Y-49018000D01*
X32635000Y-49903000D01*
X32812828Y-49903000D01*
X32812844Y-49902999D01*
X32872372Y-49896598D01*
X32872376Y-49896597D01*
X32976666Y-49857699D01*
X33046357Y-49852715D01*
X33063334Y-49857699D01*
X33167623Y-49896597D01*
X33167627Y-49896598D01*
X33227155Y-49902999D01*
X33227172Y-49903000D01*
X33405000Y-49903000D01*
X33405000Y-49018000D01*
X33905000Y-49018000D01*
X33905000Y-49903000D01*
X34082828Y-49903000D01*
X34082844Y-49902999D01*
X34142372Y-49896598D01*
X34142376Y-49896597D01*
X34246666Y-49857699D01*
X34316357Y-49852715D01*
X34333334Y-49857699D01*
X34437623Y-49896597D01*
X34437627Y-49896598D01*
X34497155Y-49902999D01*
X34497172Y-49903000D01*
X34675000Y-49903000D01*
X34675000Y-49018000D01*
X33905000Y-49018000D01*
X33405000Y-49018000D01*
X32635000Y-49018000D01*
X32135000Y-49018000D01*
X31365000Y-49018000D01*
X30865000Y-49018000D01*
X30865000Y-48642000D01*
X30884685Y-48574961D01*
X30937489Y-48529206D01*
X30989000Y-48518000D01*
X35051000Y-48518000D01*
X35118039Y-48537685D01*
G37*
%TD.AperFunction*%
%TD*%
%TA.AperFunction,Conductor*%
%TO.N,/SWCLK*%
G36*
X29392801Y-33963427D02*
G01*
X29396156Y-33970408D01*
X29419464Y-34180174D01*
X29419500Y-34180820D01*
X29419500Y-34186098D01*
X29419241Y-34188546D01*
X29281440Y-34832532D01*
X29276358Y-34839905D01*
X29267551Y-34841525D01*
X29260178Y-34836443D01*
X29258559Y-34832536D01*
X29120395Y-34186849D01*
X29120209Y-34183117D01*
X29143844Y-33970408D01*
X29148163Y-33962564D01*
X29155472Y-33960000D01*
X29384528Y-33960000D01*
X29392801Y-33963427D01*
G37*
%TD.AperFunction*%
%TD*%
%TA.AperFunction,Conductor*%
%TO.N,GND*%
G36*
X45219698Y-35660185D02*
G01*
X45223012Y-35666835D01*
X45330738Y-36435710D01*
X45328492Y-36444378D01*
X45320774Y-36448920D01*
X45319180Y-36449033D01*
X44934955Y-36449994D01*
X44930424Y-36449093D01*
X44843324Y-36412779D01*
X44572320Y-36299792D01*
X44566002Y-36293445D01*
X44565466Y-36286178D01*
X44719396Y-35665640D01*
X44724714Y-35658436D01*
X44730752Y-35656758D01*
X45211425Y-35656758D01*
X45219698Y-35660185D01*
G37*
%TD.AperFunction*%
%TD*%
%TA.AperFunction,Conductor*%
%TO.N,/NRST*%
G36*
X37998538Y-29810757D02*
G01*
X38642533Y-29948559D01*
X38649905Y-29953640D01*
X38651525Y-29962447D01*
X38646443Y-29969820D01*
X38642532Y-29971440D01*
X37998542Y-30109241D01*
X37996094Y-30109500D01*
X37993225Y-30109500D01*
X37991178Y-30109320D01*
X37863968Y-30086715D01*
X37856422Y-30081893D01*
X37854315Y-30075195D01*
X37854315Y-29844804D01*
X37857742Y-29836531D01*
X37863966Y-29833284D01*
X37991184Y-29810677D01*
X37993208Y-29810499D01*
X37996107Y-29810499D01*
X37998538Y-29810757D01*
G37*
%TD.AperFunction*%
%TD*%
%TA.AperFunction,Conductor*%
%TO.N,Net-(D107-K)*%
G36*
X54482663Y-24035036D02*
G01*
X55009249Y-24339022D01*
X55014701Y-24346126D01*
X55015100Y-24349155D01*
X55015100Y-24585644D01*
X55011673Y-24593917D01*
X55009249Y-24595777D01*
X54482664Y-24899762D01*
X54473786Y-24900930D01*
X54467522Y-24896738D01*
X54144538Y-24474509D01*
X54142233Y-24465855D01*
X54144538Y-24460291D01*
X54231868Y-24346126D01*
X54467522Y-24038060D01*
X54475270Y-24033572D01*
X54482663Y-24035036D01*
G37*
%TD.AperFunction*%
%TD*%
%TA.AperFunction,Conductor*%
%TO.N,GND*%
G36*
X26155608Y-51901471D02*
G01*
X26684120Y-52486860D01*
X26687121Y-52495297D01*
X26684120Y-52502541D01*
X26155608Y-53087929D01*
X26147521Y-53091773D01*
X26141438Y-53090422D01*
X25496414Y-52747998D01*
X25490713Y-52741092D01*
X25490200Y-52737664D01*
X25490200Y-52251735D01*
X25493627Y-52243462D01*
X25496414Y-52241401D01*
X26141439Y-51898976D01*
X26150352Y-51898124D01*
X26155608Y-51901471D01*
G37*
%TD.AperFunction*%
%TD*%
%TA.AperFunction,Conductor*%
%TO.N,GND*%
G36*
X12424980Y-15389082D02*
G01*
X12431298Y-15395429D01*
X12431740Y-15403054D01*
X12258402Y-16018345D01*
X12252860Y-16025379D01*
X12247140Y-16026872D01*
X12013297Y-16026872D01*
X12005024Y-16023445D01*
X12002790Y-16020320D01*
X11700917Y-15404235D01*
X11700355Y-15395298D01*
X11706276Y-15388580D01*
X11706885Y-15388304D01*
X12060500Y-15240875D01*
X12069449Y-15240855D01*
X12424980Y-15389082D01*
G37*
%TD.AperFunction*%
%TD*%
%TA.AperFunction,Conductor*%
%TO.N,/D_P*%
G36*
X23969313Y-42251827D02*
G01*
X23971923Y-42255804D01*
X24122053Y-42636111D01*
X24121903Y-42645064D01*
X24121612Y-42645685D01*
X23845842Y-43191242D01*
X23839051Y-43197080D01*
X23830122Y-43196406D01*
X23824958Y-43191242D01*
X23747378Y-43037767D01*
X23549186Y-42645683D01*
X23548513Y-42636756D01*
X23548737Y-42636134D01*
X23698877Y-42255803D01*
X23705103Y-42249367D01*
X23709760Y-42248400D01*
X23961040Y-42248400D01*
X23969313Y-42251827D01*
G37*
%TD.AperFunction*%
%TD*%
%TA.AperFunction,Conductor*%
%TO.N,/NRST*%
G36*
X58851895Y-12515830D02*
G01*
X59177401Y-12933811D01*
X59179781Y-12942444D01*
X59177401Y-12948189D01*
X58851895Y-13366169D01*
X58844108Y-13370591D01*
X58837243Y-13369349D01*
X58263279Y-13069282D01*
X58257535Y-13062412D01*
X58257000Y-13058913D01*
X58257000Y-12823086D01*
X58260427Y-12814813D01*
X58263277Y-12812718D01*
X58837244Y-12512649D01*
X58846163Y-12511854D01*
X58851895Y-12515830D01*
G37*
%TD.AperFunction*%
%TD*%
%TA.AperFunction,Conductor*%
%TO.N,/DIP2*%
G36*
X30779820Y-34933556D02*
G01*
X30781440Y-34937467D01*
X30915414Y-35563572D01*
X30915610Y-35567234D01*
X30915578Y-35567540D01*
X30915576Y-35567563D01*
X30914999Y-35578442D01*
X30914999Y-35578446D01*
X30914999Y-35592088D01*
X30915156Y-35597709D01*
X30915157Y-35597752D01*
X30915158Y-35597785D01*
X30915159Y-35597790D01*
X30915510Y-35604076D01*
X30915979Y-35609697D01*
X30915980Y-35609703D01*
X30916474Y-35614152D01*
X30916473Y-35616734D01*
X30896156Y-35799592D01*
X30891837Y-35807436D01*
X30884528Y-35810000D01*
X30655472Y-35810000D01*
X30647199Y-35806573D01*
X30643844Y-35799592D01*
X30636672Y-35735048D01*
X30620533Y-35589805D01*
X30620499Y-35589196D01*
X30620499Y-35583890D01*
X30620756Y-35581463D01*
X30758559Y-34937464D01*
X30763640Y-34930094D01*
X30772447Y-34928474D01*
X30779820Y-34933556D01*
G37*
%TD.AperFunction*%
%TD*%
%TA.AperFunction,Conductor*%
%TO.N,Net-(C109-Pad1)*%
G36*
X43757932Y-30199701D02*
G01*
X44252630Y-30503974D01*
X44257881Y-30511227D01*
X44258200Y-30513940D01*
X44258200Y-30749298D01*
X44254773Y-30757571D01*
X44250617Y-30760250D01*
X43742139Y-30951393D01*
X43733189Y-30951096D01*
X43729395Y-30948345D01*
X43389696Y-30577581D01*
X43386634Y-30569166D01*
X43389973Y-30561482D01*
X43743458Y-30201469D01*
X43751697Y-30197968D01*
X43757932Y-30199701D01*
G37*
%TD.AperFunction*%
%TD*%
%TA.AperFunction,Conductor*%
%TO.N,GND*%
G36*
X31364945Y-18521427D02*
G01*
X31367727Y-18525869D01*
X31562145Y-19086877D01*
X31561616Y-19095816D01*
X31557925Y-19100204D01*
X31121835Y-19414080D01*
X31113118Y-19416132D01*
X31108165Y-19414080D01*
X30672074Y-19100204D01*
X30667361Y-19092590D01*
X30667854Y-19086877D01*
X30862273Y-18525869D01*
X30868220Y-18519174D01*
X30873328Y-18518000D01*
X31356672Y-18518000D01*
X31364945Y-18521427D01*
G37*
%TD.AperFunction*%
%TD*%
%TA.AperFunction,Conductor*%
%TO.N,GND*%
G36*
X49782188Y-35144427D02*
G01*
X49784859Y-35148563D01*
X50022551Y-35777344D01*
X50022271Y-35786294D01*
X50016109Y-35792280D01*
X49661502Y-35940123D01*
X49652548Y-35940144D01*
X49652498Y-35940123D01*
X49297890Y-35792280D01*
X49291572Y-35785933D01*
X49291448Y-35777345D01*
X49529141Y-35148562D01*
X49535272Y-35142036D01*
X49540085Y-35141000D01*
X49773915Y-35141000D01*
X49782188Y-35144427D01*
G37*
%TD.AperFunction*%
%TD*%
%TA.AperFunction,Conductor*%
%TO.N,VBUS*%
G36*
X22896206Y-43236045D02*
G01*
X22896213Y-43236062D01*
X23138026Y-43821144D01*
X23138019Y-43830099D01*
X23134302Y-43834921D01*
X23102607Y-43859058D01*
X23063540Y-43888808D01*
X23056453Y-43891200D01*
X22714347Y-43891200D01*
X22707259Y-43888808D01*
X22636496Y-43834920D01*
X22631992Y-43827183D01*
X22632773Y-43821144D01*
X22874587Y-43236062D01*
X22880914Y-43229725D01*
X22889869Y-43229718D01*
X22896206Y-43236045D01*
G37*
%TD.AperFunction*%
%TD*%
%TA.AperFunction,Conductor*%
%TO.N,/SWCLK*%
G36*
X22731596Y-22901311D02*
G01*
X22732872Y-22901989D01*
X23037744Y-23089027D01*
X23043004Y-23096274D01*
X23041599Y-23105118D01*
X23037744Y-23108973D01*
X22732872Y-23296010D01*
X22724028Y-23297415D01*
X22722646Y-23296992D01*
X22535592Y-23226847D01*
X22529049Y-23220734D01*
X22528000Y-23215892D01*
X22528000Y-22982107D01*
X22531427Y-22973834D01*
X22535588Y-22971154D01*
X22722647Y-22901007D01*
X22731596Y-22901311D01*
G37*
%TD.AperFunction*%
%TD*%
%TA.AperFunction,Conductor*%
%TO.N,GND*%
G36*
X48811539Y-32257964D02*
G01*
X48819802Y-32261412D01*
X48823208Y-32269693D01*
X48823008Y-32271820D01*
X48677390Y-33048456D01*
X48672497Y-33055956D01*
X48665890Y-33058000D01*
X48185310Y-33058000D01*
X48177037Y-33054573D01*
X48173810Y-33048456D01*
X48028191Y-32271820D01*
X48030035Y-32263057D01*
X48037535Y-32258164D01*
X48039652Y-32257964D01*
X48425600Y-32257000D01*
X48811539Y-32257964D01*
G37*
%TD.AperFunction*%
%TD*%
%TA.AperFunction,Conductor*%
%TO.N,+5V*%
G36*
X14336917Y-18745486D02*
G01*
X14621224Y-18792870D01*
X14628821Y-18797611D01*
X14631000Y-18804411D01*
X14631000Y-19284588D01*
X14627573Y-19292861D01*
X14621223Y-19296129D01*
X14336926Y-19343512D01*
X14328203Y-19341492D01*
X14326744Y-19340258D01*
X14270888Y-19284588D01*
X14038313Y-19052785D01*
X14034873Y-19044519D01*
X14038285Y-19036241D01*
X14326745Y-18748740D01*
X14335022Y-18745328D01*
X14336917Y-18745486D01*
G37*
%TD.AperFunction*%
%TD*%
%TA.AperFunction,Conductor*%
%TO.N,GND*%
G36*
X59362696Y-15261890D02*
G01*
X59974437Y-15493141D01*
X59980964Y-15499272D01*
X59982000Y-15504085D01*
X59982000Y-15737914D01*
X59978573Y-15746187D01*
X59974437Y-15748858D01*
X59345655Y-15986551D01*
X59336705Y-15986271D01*
X59330719Y-15980109D01*
X59234306Y-15748858D01*
X59182875Y-15625499D01*
X59182855Y-15616550D01*
X59330719Y-15261889D01*
X59337066Y-15255572D01*
X59345654Y-15255448D01*
X59362696Y-15261890D01*
G37*
%TD.AperFunction*%
%TD*%
%TA.AperFunction,Conductor*%
%TO.N,+3.3VA*%
G36*
X39399812Y-26810534D02*
G01*
X39609593Y-26833843D01*
X39617436Y-26838162D01*
X39620000Y-26845471D01*
X39619999Y-27074528D01*
X39616572Y-27082801D01*
X39609591Y-27086156D01*
X39426737Y-27106473D01*
X39424154Y-27106474D01*
X39419657Y-27105974D01*
X39419648Y-27105973D01*
X39413916Y-27105498D01*
X39413918Y-27105498D01*
X39411221Y-27105351D01*
X39407595Y-27105153D01*
X39407603Y-27105153D01*
X39407587Y-27105152D01*
X39407577Y-27105152D01*
X39401974Y-27104999D01*
X39388504Y-27104999D01*
X39387605Y-27105046D01*
X39377707Y-27105566D01*
X39377251Y-27105614D01*
X39373591Y-27105418D01*
X38747467Y-26971440D01*
X38740094Y-26966358D01*
X38738474Y-26957551D01*
X38743556Y-26950178D01*
X38747461Y-26948560D01*
X39391458Y-26810757D01*
X39393904Y-26810499D01*
X39399171Y-26810499D01*
X39399812Y-26810534D01*
G37*
%TD.AperFunction*%
%TD*%
%TA.AperFunction,Conductor*%
%TO.N,/DIP2*%
G36*
X32391001Y-41159767D02*
G01*
X32395044Y-41163810D01*
X32761197Y-41776636D01*
X32762498Y-41785496D01*
X32760868Y-41789156D01*
X32513477Y-42157819D01*
X32506022Y-42162780D01*
X32503762Y-42163000D01*
X32266238Y-42163000D01*
X32257965Y-42159573D01*
X32256523Y-42157819D01*
X32009131Y-41789156D01*
X32007366Y-41780377D01*
X32008802Y-41776636D01*
X32374956Y-41163810D01*
X32382141Y-41158466D01*
X32391001Y-41159767D01*
G37*
%TD.AperFunction*%
%TD*%
%TA.AperFunction,Conductor*%
%TO.N,+3V3*%
G36*
X5884209Y-39655827D02*
G01*
X5887199Y-39660933D01*
X6094136Y-40396839D01*
X6093077Y-40405731D01*
X6092236Y-40407022D01*
X5355204Y-41390714D01*
X5347501Y-41395280D01*
X5338825Y-41393061D01*
X5336378Y-41390579D01*
X4621494Y-40407390D01*
X4619400Y-40398683D01*
X4619930Y-40396598D01*
X4882032Y-39660176D01*
X4888035Y-39653532D01*
X4893055Y-39652400D01*
X5875936Y-39652400D01*
X5884209Y-39655827D01*
G37*
%TD.AperFunction*%
%TD*%
%TA.AperFunction,Conductor*%
%TO.N,+3V3*%
G36*
X36163787Y-20375397D02*
G01*
X36581769Y-20700904D01*
X36586191Y-20708691D01*
X36584949Y-20715556D01*
X36284883Y-21289521D01*
X36278013Y-21295265D01*
X36274514Y-21295800D01*
X36038686Y-21295800D01*
X36030413Y-21292373D01*
X36028317Y-21289521D01*
X35728250Y-20715556D01*
X35727454Y-20706636D01*
X35731428Y-20700906D01*
X36149411Y-20375397D01*
X36158044Y-20373018D01*
X36163787Y-20375397D01*
G37*
%TD.AperFunction*%
%TD*%
%TA.AperFunction,Conductor*%
%TO.N,GND*%
G36*
X3930839Y-40354885D02*
G01*
X3976594Y-40407689D01*
X3987800Y-40459200D01*
X3987800Y-43894200D01*
X3968115Y-43961239D01*
X3915311Y-44006994D01*
X3863800Y-44018200D01*
X809800Y-44018200D01*
X742761Y-43998515D01*
X697006Y-43945711D01*
X685800Y-43894200D01*
X685800Y-40459200D01*
X705485Y-40392161D01*
X758289Y-40346406D01*
X809800Y-40335200D01*
X3863800Y-40335200D01*
X3930839Y-40354885D01*
G37*
%TD.AperFunction*%
%TD*%
%TA.AperFunction,Conductor*%
%TO.N,/NRST*%
G36*
X50521014Y-18528643D02*
G01*
X50686356Y-18693985D01*
X50689783Y-18702258D01*
X50688747Y-18707071D01*
X50412206Y-19319760D01*
X50405679Y-19325891D01*
X50397090Y-19325767D01*
X50041804Y-19179563D01*
X50035457Y-19173245D01*
X50035436Y-19173195D01*
X49889232Y-18817909D01*
X49889253Y-18808955D01*
X49895237Y-18802794D01*
X50507928Y-18526251D01*
X50516878Y-18525972D01*
X50521014Y-18528643D01*
G37*
%TD.AperFunction*%
%TD*%
%TA.AperFunction,Conductor*%
%TO.N,/LED_UI*%
G36*
X34895532Y-25116997D02*
G01*
X34898027Y-25120694D01*
X35162944Y-25744085D01*
X35163026Y-25753039D01*
X35156752Y-25759429D01*
X35156678Y-25759460D01*
X34802502Y-25907123D01*
X34793548Y-25907144D01*
X34793498Y-25907123D01*
X34438522Y-25759127D01*
X34432204Y-25752780D01*
X34431939Y-25744587D01*
X34642313Y-25121526D01*
X34648206Y-25114785D01*
X34653398Y-25113570D01*
X34887259Y-25113570D01*
X34895532Y-25116997D01*
G37*
%TD.AperFunction*%
%TD*%
%TA.AperFunction,Conductor*%
%TO.N,GND*%
G36*
X44979207Y-34763104D02*
G01*
X44980488Y-34764385D01*
X45566191Y-35448681D01*
X45568967Y-35457195D01*
X45567408Y-35462184D01*
X45224986Y-36049195D01*
X45217858Y-36054615D01*
X45214880Y-36055000D01*
X44728320Y-36055000D01*
X44720047Y-36051573D01*
X44718214Y-36049195D01*
X44375791Y-35462184D01*
X44374582Y-35453311D01*
X44377007Y-35448682D01*
X44962712Y-34764383D01*
X44970693Y-34760328D01*
X44979207Y-34763104D01*
G37*
%TD.AperFunction*%
%TD*%
%TA.AperFunction,Conductor*%
%TO.N,/LSE_OUT*%
G36*
X39399812Y-31310534D02*
G01*
X39609593Y-31333843D01*
X39617436Y-31338162D01*
X39620000Y-31345471D01*
X39619999Y-31574528D01*
X39616572Y-31582801D01*
X39609591Y-31586156D01*
X39426737Y-31606473D01*
X39424154Y-31606474D01*
X39419657Y-31605974D01*
X39419648Y-31605973D01*
X39413916Y-31605498D01*
X39413918Y-31605498D01*
X39411221Y-31605351D01*
X39407595Y-31605153D01*
X39407603Y-31605153D01*
X39407587Y-31605152D01*
X39407577Y-31605152D01*
X39401974Y-31604999D01*
X39388504Y-31604999D01*
X39387605Y-31605046D01*
X39377707Y-31605566D01*
X39377251Y-31605614D01*
X39373591Y-31605418D01*
X38747467Y-31471440D01*
X38740094Y-31466358D01*
X38738474Y-31457551D01*
X38743556Y-31450178D01*
X38747461Y-31448560D01*
X39391458Y-31310757D01*
X39393904Y-31310499D01*
X39399171Y-31310499D01*
X39399812Y-31310534D01*
G37*
%TD.AperFunction*%
%TD*%
%TA.AperFunction,Conductor*%
%TO.N,GND*%
G36*
X48420542Y-31862435D02*
G01*
X48425435Y-31869935D01*
X48425635Y-31872062D01*
X48426600Y-32258029D01*
X48425635Y-32643937D01*
X48422187Y-32652202D01*
X48413906Y-32655608D01*
X48411779Y-32655408D01*
X47635144Y-32509789D01*
X47627644Y-32504896D01*
X47625600Y-32498289D01*
X47625600Y-32017710D01*
X47629027Y-32009437D01*
X47635142Y-32006210D01*
X48411780Y-31860591D01*
X48420542Y-31862435D01*
G37*
%TD.AperFunction*%
%TD*%
%TA.AperFunction,Conductor*%
%TO.N,GND*%
G36*
X37609703Y-41841866D02*
G01*
X38128057Y-42049059D01*
X38134467Y-42055311D01*
X38135414Y-42059923D01*
X38135414Y-42293771D01*
X38131987Y-42302044D01*
X38127671Y-42304782D01*
X37501546Y-42529788D01*
X37492601Y-42529361D01*
X37486790Y-42523279D01*
X37486495Y-42522572D01*
X37338875Y-42168499D01*
X37338855Y-42159550D01*
X37486636Y-41805088D01*
X37492983Y-41798771D01*
X37501778Y-41798727D01*
X37609703Y-41841866D01*
G37*
%TD.AperFunction*%
%TD*%
%TA.AperFunction,Conductor*%
%TO.N,GND*%
G36*
X57890773Y-21761149D02*
G01*
X58324424Y-22027574D01*
X58329679Y-22034825D01*
X58329999Y-22037543D01*
X58329999Y-22274456D01*
X58326572Y-22282729D01*
X58324424Y-22284425D01*
X57890773Y-22550850D01*
X57881930Y-22552261D01*
X57875880Y-22548628D01*
X57535844Y-22163747D01*
X57532934Y-22155278D01*
X57535844Y-22148253D01*
X57875881Y-21763370D01*
X57883926Y-21759440D01*
X57890773Y-21761149D01*
G37*
%TD.AperFunction*%
%TD*%
%TA.AperFunction,Conductor*%
%TO.N,GND*%
G36*
X41323988Y-27803827D02*
G01*
X41326659Y-27807963D01*
X41564351Y-28436744D01*
X41564071Y-28445694D01*
X41557909Y-28451680D01*
X41203302Y-28599523D01*
X41194348Y-28599544D01*
X41194298Y-28599523D01*
X40839690Y-28451680D01*
X40833372Y-28445333D01*
X40833248Y-28436745D01*
X41070941Y-27807962D01*
X41077072Y-27801436D01*
X41081885Y-27800400D01*
X41315715Y-27800400D01*
X41323988Y-27803827D01*
G37*
%TD.AperFunction*%
%TD*%
%TA.AperFunction,Conductor*%
%TO.N,GND*%
G36*
X38117939Y-19253164D02*
G01*
X38126202Y-19256612D01*
X38129608Y-19264893D01*
X38129408Y-19267020D01*
X37983790Y-20043656D01*
X37978897Y-20051156D01*
X37972290Y-20053200D01*
X37491710Y-20053200D01*
X37483437Y-20049773D01*
X37480210Y-20043656D01*
X37334591Y-19267020D01*
X37336435Y-19258257D01*
X37343935Y-19253364D01*
X37346052Y-19253164D01*
X37732000Y-19252200D01*
X38117939Y-19253164D01*
G37*
%TD.AperFunction*%
%TD*%
%TA.AperFunction,Conductor*%
%TO.N,Net-(C109-Pad1)*%
G36*
X44577428Y-30190896D02*
G01*
X44890280Y-30625565D01*
X44892332Y-30634282D01*
X44890280Y-30639235D01*
X44577428Y-31073903D01*
X44569814Y-31078616D01*
X44562191Y-31077263D01*
X44000159Y-30760755D01*
X43994632Y-30753709D01*
X43994200Y-30750560D01*
X43994200Y-30514239D01*
X43997627Y-30505966D01*
X44000159Y-30504044D01*
X44562193Y-30187535D01*
X44571081Y-30186463D01*
X44577428Y-30190896D01*
G37*
%TD.AperFunction*%
%TD*%
%TA.AperFunction,Conductor*%
%TO.N,/VBAT*%
G36*
X47457758Y-43375285D02*
G01*
X47677382Y-43595642D01*
X47743144Y-43661623D01*
X47746557Y-43669901D01*
X47744963Y-43675777D01*
X47577886Y-43962195D01*
X47570758Y-43967615D01*
X47567780Y-43968000D01*
X47331220Y-43968000D01*
X47322947Y-43964573D01*
X47321114Y-43962195D01*
X47270990Y-43876269D01*
X47154035Y-43675775D01*
X47152827Y-43666904D01*
X47155853Y-43661624D01*
X47441214Y-43375313D01*
X47449481Y-43371873D01*
X47457758Y-43375285D01*
G37*
%TD.AperFunction*%
%TD*%
%TA.AperFunction,Conductor*%
%TO.N,GND*%
G36*
X37713190Y-20379561D02*
G01*
X37989438Y-20824153D01*
X37990893Y-20832989D01*
X37986600Y-20839627D01*
X37454126Y-21246174D01*
X37445471Y-21248471D01*
X37438753Y-21245148D01*
X37272507Y-21078902D01*
X37269084Y-21070955D01*
X37256796Y-20627894D01*
X37259993Y-20619531D01*
X37262798Y-20617352D01*
X37697567Y-20375510D01*
X37706460Y-20374484D01*
X37713190Y-20379561D01*
G37*
%TD.AperFunction*%
%TD*%
%TA.AperFunction,Conductor*%
%TO.N,/BOOT0*%
G36*
X34897801Y-40136427D02*
G01*
X34898505Y-40137197D01*
X35047742Y-40315884D01*
X35207666Y-40507368D01*
X35210339Y-40515915D01*
X35209348Y-40519686D01*
X34934220Y-41128593D01*
X34927691Y-41134721D01*
X34918740Y-41134437D01*
X34913514Y-41129776D01*
X34891106Y-41092272D01*
X34547521Y-40517220D01*
X34546221Y-40508362D01*
X34546231Y-40508319D01*
X34642704Y-40141722D01*
X34648125Y-40134594D01*
X34654020Y-40133000D01*
X34889528Y-40133000D01*
X34897801Y-40136427D01*
G37*
%TD.AperFunction*%
%TD*%
%TA.AperFunction,Conductor*%
%TO.N,/~{EEPROM}*%
G36*
X26646849Y-25310395D02*
G01*
X27292533Y-25448559D01*
X27299905Y-25453640D01*
X27301525Y-25462447D01*
X27296443Y-25469820D01*
X27292532Y-25471440D01*
X26648542Y-25609241D01*
X26646094Y-25609500D01*
X26640828Y-25609500D01*
X26640182Y-25609464D01*
X26430408Y-25586156D01*
X26422564Y-25581837D01*
X26420000Y-25574528D01*
X26420000Y-25345471D01*
X26423427Y-25337198D01*
X26430406Y-25333843D01*
X26643117Y-25310209D01*
X26646849Y-25310395D01*
G37*
%TD.AperFunction*%
%TD*%
%TA.AperFunction,Conductor*%
%TO.N,/DIP1*%
G36*
X31279820Y-34933556D02*
G01*
X31281440Y-34937467D01*
X31419241Y-35581456D01*
X31419500Y-35583904D01*
X31419500Y-35589171D01*
X31419464Y-35589817D01*
X31396156Y-35799592D01*
X31391837Y-35807436D01*
X31384528Y-35810000D01*
X31155472Y-35810000D01*
X31147199Y-35806573D01*
X31143844Y-35799592D01*
X31136672Y-35735048D01*
X31120533Y-35589805D01*
X31120499Y-35589196D01*
X31120499Y-35583890D01*
X31120758Y-35581456D01*
X31258559Y-34937464D01*
X31263640Y-34930094D01*
X31272447Y-34928474D01*
X31279820Y-34933556D01*
G37*
%TD.AperFunction*%
%TD*%
%TA.AperFunction,Conductor*%
%TO.N,/LDO_3V3/5V*%
G36*
X10738039Y-40405685D02*
G01*
X10783794Y-40458489D01*
X10795000Y-40510000D01*
X10795000Y-42799000D01*
X13211000Y-42799000D01*
X13278039Y-42818685D01*
X13323794Y-42871489D01*
X13335000Y-42923000D01*
X13335000Y-46104000D01*
X13315315Y-46171039D01*
X13262511Y-46216794D01*
X13211000Y-46228000D01*
X10157000Y-46228000D01*
X10089961Y-46208315D01*
X10044206Y-46155511D01*
X10033000Y-46104000D01*
X10033000Y-44196000D01*
X6982000Y-44196000D01*
X6914961Y-44176315D01*
X6869206Y-44123511D01*
X6858000Y-44072000D01*
X6858000Y-40510000D01*
X6877685Y-40442961D01*
X6930489Y-40397206D01*
X6982000Y-40386000D01*
X10671000Y-40386000D01*
X10738039Y-40405685D01*
G37*
%TD.AperFunction*%
%TD*%
%TA.AperFunction,Conductor*%
%TO.N,GND*%
G36*
X37981291Y-19449227D02*
G01*
X37984321Y-19454478D01*
X38137470Y-20027206D01*
X38136297Y-20036083D01*
X38133356Y-20039459D01*
X37713788Y-20366201D01*
X37705155Y-20368581D01*
X37699410Y-20366201D01*
X37280378Y-20039875D01*
X37275957Y-20032090D01*
X37276537Y-20026749D01*
X37479241Y-19453599D01*
X37485231Y-19446942D01*
X37490272Y-19445800D01*
X37973018Y-19445800D01*
X37981291Y-19449227D01*
G37*
%TD.AperFunction*%
%TD*%
%TA.AperFunction,Conductor*%
%TO.N,+3V3*%
G36*
X37375587Y-36873627D02*
G01*
X37377683Y-36876479D01*
X37677749Y-37450443D01*
X37678545Y-37459363D01*
X37674569Y-37465095D01*
X37256589Y-37790601D01*
X37247956Y-37792981D01*
X37242211Y-37790601D01*
X36824230Y-37465095D01*
X36819808Y-37457308D01*
X36821049Y-37450445D01*
X37121117Y-36876478D01*
X37127987Y-36870735D01*
X37131486Y-36870200D01*
X37367314Y-36870200D01*
X37375587Y-36873627D01*
G37*
%TD.AperFunction*%
%TD*%
%TA.AperFunction,Conductor*%
%TO.N,GND*%
G36*
X66387619Y-15220954D02*
G01*
X66869485Y-15581632D01*
X66874055Y-15589333D01*
X66871841Y-15598010D01*
X66869485Y-15600366D01*
X66387620Y-15961044D01*
X66378943Y-15963258D01*
X66374119Y-15961412D01*
X66011210Y-15719473D01*
X66006227Y-15712033D01*
X66006000Y-15709738D01*
X66006000Y-15472261D01*
X66009427Y-15463988D01*
X66011205Y-15462529D01*
X66374119Y-15220586D01*
X66382904Y-15218849D01*
X66387619Y-15220954D01*
G37*
%TD.AperFunction*%
%TD*%
%TA.AperFunction,Conductor*%
%TO.N,+3V3*%
G36*
X44327939Y-41147964D02*
G01*
X44336202Y-41151412D01*
X44339608Y-41159693D01*
X44339408Y-41161820D01*
X44193790Y-41938456D01*
X44188897Y-41945956D01*
X44182290Y-41948000D01*
X43701710Y-41948000D01*
X43693437Y-41944573D01*
X43690210Y-41938456D01*
X43544591Y-41161820D01*
X43546435Y-41153057D01*
X43553935Y-41148164D01*
X43556052Y-41147964D01*
X43942000Y-41147000D01*
X44327939Y-41147964D01*
G37*
%TD.AperFunction*%
%TD*%
%TA.AperFunction,Conductor*%
%TO.N,GND*%
G36*
X38448664Y-38013018D02*
G01*
X38874529Y-38108414D01*
X38881852Y-38113565D01*
X38883388Y-38122387D01*
X38882791Y-38124282D01*
X38737563Y-38477195D01*
X38731245Y-38483542D01*
X38731195Y-38483563D01*
X38378282Y-38628791D01*
X38369328Y-38628770D01*
X38363010Y-38622423D01*
X38362415Y-38620537D01*
X38267019Y-38194667D01*
X38268555Y-38185847D01*
X38270158Y-38183844D01*
X38437840Y-38016162D01*
X38446112Y-38012736D01*
X38448664Y-38013018D01*
G37*
%TD.AperFunction*%
%TD*%
%TA.AperFunction,Conductor*%
%TO.N,/VBAT*%
G36*
X37998538Y-32810757D02*
G01*
X38642533Y-32948559D01*
X38649905Y-32953640D01*
X38651525Y-32962447D01*
X38646443Y-32969820D01*
X38642532Y-32971440D01*
X37996853Y-33109603D01*
X37993113Y-33109790D01*
X37780408Y-33086156D01*
X37772564Y-33081837D01*
X37770000Y-33074528D01*
X37770000Y-32845471D01*
X37773427Y-32837198D01*
X37780406Y-32833843D01*
X37990196Y-32810533D01*
X37990801Y-32810499D01*
X37996107Y-32810499D01*
X37998538Y-32810757D01*
G37*
%TD.AperFunction*%
%TD*%
%TA.AperFunction,Conductor*%
%TO.N,/SCL*%
G36*
X12794188Y-5405176D02*
G01*
X13380706Y-5990720D01*
X13384140Y-5998989D01*
X13380720Y-6007265D01*
X13380706Y-6007279D01*
X12794188Y-6592823D01*
X12785912Y-6596243D01*
X12778832Y-6593850D01*
X12166610Y-6127511D01*
X12162106Y-6119772D01*
X12162000Y-6118204D01*
X12162000Y-5879795D01*
X12165427Y-5871522D01*
X12166605Y-5870491D01*
X12778832Y-5404148D01*
X12787490Y-5401862D01*
X12794188Y-5405176D01*
G37*
%TD.AperFunction*%
%TD*%
%TA.AperFunction,Conductor*%
%TO.N,/SWCLK*%
G36*
X22096188Y-21809427D02*
G01*
X22098859Y-21813563D01*
X22336551Y-22442344D01*
X22336271Y-22451294D01*
X22330109Y-22457280D01*
X21975502Y-22605123D01*
X21966548Y-22605144D01*
X21966498Y-22605123D01*
X21611890Y-22457280D01*
X21605572Y-22450933D01*
X21605448Y-22442345D01*
X21843141Y-21813562D01*
X21849272Y-21807036D01*
X21854085Y-21806000D01*
X22087915Y-21806000D01*
X22096188Y-21809427D01*
G37*
%TD.AperFunction*%
%TD*%
%TA.AperFunction,Conductor*%
%TO.N,GND*%
G36*
X24948175Y-51750017D02*
G01*
X25193779Y-51913753D01*
X25684990Y-52241227D01*
X25689973Y-52248666D01*
X25690200Y-52250961D01*
X25690200Y-52738438D01*
X25686773Y-52746711D01*
X25684990Y-52748173D01*
X24948175Y-53239382D01*
X24939390Y-53241120D01*
X24933417Y-53237926D01*
X24197490Y-52502979D01*
X24194058Y-52494708D01*
X24197479Y-52486432D01*
X24197490Y-52486421D01*
X24443012Y-52241226D01*
X24933418Y-51751472D01*
X24941693Y-51748052D01*
X24948175Y-51750017D01*
G37*
%TD.AperFunction*%
%TD*%
%TA.AperFunction,Conductor*%
%TO.N,/SWO*%
G36*
X32381139Y-33963427D02*
G01*
X32384446Y-33970030D01*
X32410202Y-34148657D01*
X32410114Y-34152522D01*
X32280842Y-34829242D01*
X32275924Y-34836726D01*
X32267155Y-34838539D01*
X32259671Y-34833621D01*
X32257909Y-34829495D01*
X32120758Y-34188542D01*
X32120499Y-34186094D01*
X32120499Y-34176540D01*
X32120509Y-34176203D01*
X32132363Y-33971025D01*
X32136262Y-33962963D01*
X32144044Y-33960000D01*
X32372866Y-33960000D01*
X32381139Y-33963427D01*
G37*
%TD.AperFunction*%
%TD*%
%TA.AperFunction,Conductor*%
%TO.N,GND*%
G36*
X44657117Y-36173491D02*
G01*
X44925282Y-36440712D01*
X44928723Y-36448979D01*
X44925311Y-36457259D01*
X44925282Y-36457288D01*
X44657117Y-36724508D01*
X44648837Y-36727920D01*
X44641604Y-36725400D01*
X44545923Y-36649796D01*
X44454444Y-36577511D01*
X44450079Y-36569695D01*
X44450000Y-36568350D01*
X44450000Y-36329663D01*
X44453426Y-36321393D01*
X44454428Y-36320500D01*
X44641604Y-36172598D01*
X44650220Y-36170159D01*
X44657117Y-36173491D01*
G37*
%TD.AperFunction*%
%TD*%
%TA.AperFunction,Conductor*%
%TO.N,GND*%
G36*
X10138109Y-38248719D02*
G01*
X10144427Y-38255066D01*
X10144551Y-38263655D01*
X9906859Y-38892437D01*
X9900728Y-38898964D01*
X9895915Y-38900000D01*
X9662085Y-38900000D01*
X9653812Y-38896573D01*
X9651141Y-38892437D01*
X9413448Y-38263655D01*
X9413728Y-38254705D01*
X9419889Y-38248719D01*
X9774500Y-38100875D01*
X9783449Y-38100855D01*
X10138109Y-38248719D01*
G37*
%TD.AperFunction*%
%TD*%
%TA.AperFunction,Conductor*%
%TO.N,/LSE_IN*%
G36*
X39399812Y-31810534D02*
G01*
X39609593Y-31833843D01*
X39617436Y-31838162D01*
X39620000Y-31845471D01*
X39620000Y-32074528D01*
X39616573Y-32082801D01*
X39609592Y-32086156D01*
X39441778Y-32104802D01*
X39399822Y-32109464D01*
X39399179Y-32109500D01*
X39393901Y-32109500D01*
X39391453Y-32109241D01*
X38747467Y-31971440D01*
X38740094Y-31966358D01*
X38738474Y-31957551D01*
X38743556Y-31950178D01*
X38747461Y-31948560D01*
X39391458Y-31810757D01*
X39393904Y-31810499D01*
X39399171Y-31810499D01*
X39399812Y-31810534D01*
G37*
%TD.AperFunction*%
%TD*%
%TA.AperFunction,Conductor*%
%TO.N,/HSE_OUT*%
G36*
X42974696Y-31884455D02*
G01*
X43373128Y-32210344D01*
X43377362Y-32218234D01*
X43374776Y-32226808D01*
X43373127Y-32228456D01*
X42974695Y-32554344D01*
X42966122Y-32556930D01*
X42959303Y-32553840D01*
X42738715Y-32347868D01*
X42735007Y-32339717D01*
X42735000Y-32339316D01*
X42735000Y-32099483D01*
X42738427Y-32091210D01*
X42738715Y-32090931D01*
X42959304Y-31884958D01*
X42967689Y-31881818D01*
X42974696Y-31884455D01*
G37*
%TD.AperFunction*%
%TD*%
%TA.AperFunction,Conductor*%
%TO.N,/VBAT*%
G36*
X37518696Y-40661890D02*
G01*
X38130437Y-40893141D01*
X38136964Y-40899272D01*
X38138000Y-40904085D01*
X38138000Y-41137914D01*
X38134573Y-41146187D01*
X38130437Y-41148858D01*
X37501655Y-41386551D01*
X37492705Y-41386271D01*
X37486719Y-41380109D01*
X37390306Y-41148858D01*
X37338875Y-41025499D01*
X37338855Y-41016550D01*
X37486719Y-40661889D01*
X37493066Y-40655572D01*
X37501654Y-40655448D01*
X37518696Y-40661890D01*
G37*
%TD.AperFunction*%
%TD*%
%TA.AperFunction,Conductor*%
%TO.N,GND*%
G36*
X58646649Y-19598842D02*
G01*
X58652041Y-19604716D01*
X58800123Y-19959898D01*
X58800144Y-19968852D01*
X58800123Y-19968902D01*
X58652562Y-20322833D01*
X58646215Y-20329151D01*
X58637261Y-20329130D01*
X58636949Y-20328995D01*
X58016559Y-20048908D01*
X58010428Y-20042380D01*
X58009673Y-20038244D01*
X58009673Y-19804382D01*
X58013100Y-19796109D01*
X58017856Y-19793223D01*
X58637730Y-19598058D01*
X58646649Y-19598842D01*
G37*
%TD.AperFunction*%
%TD*%
%TA.AperFunction,Conductor*%
%TO.N,GND*%
G36*
X17285817Y-29320590D02*
G01*
X18062457Y-29466210D01*
X18069956Y-29471103D01*
X18072000Y-29477710D01*
X18072000Y-29958289D01*
X18068573Y-29966562D01*
X18062456Y-29969789D01*
X17285820Y-30115408D01*
X17277057Y-30113564D01*
X17272164Y-30106064D01*
X17271964Y-30103946D01*
X17271000Y-29718000D01*
X17271964Y-29332059D01*
X17275412Y-29323797D01*
X17283693Y-29320391D01*
X17285817Y-29320590D01*
G37*
%TD.AperFunction*%
%TD*%
%TA.AperFunction,Conductor*%
%TO.N,/RGB_LED*%
G36*
X34392801Y-22613427D02*
G01*
X34396156Y-22620408D01*
X34419464Y-22830174D01*
X34419500Y-22830820D01*
X34419500Y-22836098D01*
X34419241Y-22838546D01*
X34281440Y-23482532D01*
X34276358Y-23489905D01*
X34267551Y-23491525D01*
X34260178Y-23486443D01*
X34258559Y-23482536D01*
X34124579Y-22856401D01*
X34124388Y-22852718D01*
X34124429Y-22852333D01*
X34125000Y-22841515D01*
X34125000Y-22827960D01*
X34125000Y-22827941D01*
X34124999Y-22827928D01*
X34124842Y-22822271D01*
X34124841Y-22822250D01*
X34124841Y-22822242D01*
X34124488Y-22815919D01*
X34124019Y-22810288D01*
X34123525Y-22805842D01*
X34123525Y-22803275D01*
X34143844Y-22620408D01*
X34148163Y-22612564D01*
X34155472Y-22610000D01*
X34384528Y-22610000D01*
X34392801Y-22613427D01*
G37*
%TD.AperFunction*%
%TD*%
%TA.AperFunction,Conductor*%
%TO.N,/RGB_LED*%
G36*
X13086278Y-16783993D02*
G01*
X13091442Y-16789157D01*
X13367152Y-17334596D01*
X13367826Y-17343525D01*
X13367510Y-17344374D01*
X13209000Y-17724800D01*
X13202655Y-17731119D01*
X13198200Y-17732000D01*
X12963800Y-17732000D01*
X12955527Y-17728573D01*
X12953000Y-17724800D01*
X12794489Y-17344374D01*
X12794470Y-17335419D01*
X12794838Y-17334614D01*
X13070558Y-16789156D01*
X13077349Y-16783319D01*
X13086278Y-16783993D01*
G37*
%TD.AperFunction*%
%TD*%
%TA.AperFunction,Conductor*%
%TO.N,Net-(SW107-B)*%
G36*
X12578691Y-21728563D02*
G01*
X12582382Y-21732526D01*
X12995272Y-22459853D01*
X12996376Y-22468739D01*
X12993982Y-22473241D01*
X12574502Y-22962912D01*
X12566518Y-22966965D01*
X12565617Y-22967000D01*
X12328258Y-22967000D01*
X12319985Y-22963573D01*
X12317776Y-22960499D01*
X12163240Y-22648936D01*
X12076002Y-22473054D01*
X12075397Y-22464121D01*
X12076743Y-22461377D01*
X12562469Y-21731817D01*
X12569905Y-21726831D01*
X12578691Y-21728563D01*
G37*
%TD.AperFunction*%
%TD*%
%TA.AperFunction,Conductor*%
%TO.N,Net-(C109-Pad1)*%
G36*
X44901654Y-30637205D02*
G01*
X45320184Y-30963139D01*
X45324606Y-30970926D01*
X45323890Y-30976634D01*
X45099510Y-31549964D01*
X45093304Y-31556419D01*
X45088615Y-31557400D01*
X44852930Y-31557400D01*
X44844657Y-31553973D01*
X44843137Y-31552103D01*
X44477851Y-30993421D01*
X44476192Y-30984621D01*
X44480132Y-30978048D01*
X44886955Y-30637464D01*
X44895498Y-30634782D01*
X44901654Y-30637205D01*
G37*
%TD.AperFunction*%
%TD*%
%TA.AperFunction,Conductor*%
%TO.N,GND*%
G36*
X57840373Y-24072549D02*
G01*
X57843990Y-24074771D01*
X58274026Y-24338975D01*
X58279280Y-24346225D01*
X58279600Y-24348943D01*
X58279600Y-24585856D01*
X58276173Y-24594129D01*
X58274025Y-24595825D01*
X57840373Y-24862250D01*
X57831530Y-24863661D01*
X57825480Y-24860028D01*
X57485444Y-24475147D01*
X57482534Y-24466678D01*
X57485444Y-24459653D01*
X57825481Y-24074770D01*
X57833526Y-24070840D01*
X57840373Y-24072549D01*
G37*
%TD.AperFunction*%
%TD*%
%TA.AperFunction,Conductor*%
%TO.N,/NRST*%
G36*
X26420109Y-21973712D02*
G01*
X26420146Y-21973749D01*
X26690544Y-22245502D01*
X26693950Y-22253783D01*
X26690502Y-22262048D01*
X26690456Y-22262094D01*
X26213970Y-22730939D01*
X26205669Y-22734299D01*
X26197491Y-22730872D01*
X26032242Y-22565623D01*
X26028818Y-22557606D01*
X26016260Y-21982932D01*
X26019505Y-21974588D01*
X26027701Y-21970981D01*
X26027850Y-21970979D01*
X26411832Y-21970301D01*
X26420109Y-21973712D01*
G37*
%TD.AperFunction*%
%TD*%
%TA.AperFunction,Conductor*%
%TO.N,/SCL*%
G36*
X18171433Y-22826384D02*
G01*
X18172122Y-22828046D01*
X18448234Y-23673277D01*
X18447912Y-23681410D01*
X18289000Y-24062800D01*
X18282655Y-24069119D01*
X18278200Y-24070000D01*
X18043800Y-24070000D01*
X18035527Y-24066573D01*
X18033000Y-24062800D01*
X17874086Y-23681408D01*
X17873765Y-23673279D01*
X18149878Y-22828045D01*
X18155705Y-22821246D01*
X18164633Y-22820557D01*
X18171433Y-22826384D01*
G37*
%TD.AperFunction*%
%TD*%
%TA.AperFunction,Conductor*%
%TO.N,+3V3*%
G36*
X23726331Y-25969973D02*
G01*
X24234218Y-26100738D01*
X24241375Y-26106119D01*
X24243000Y-26112068D01*
X24243000Y-26593931D01*
X24239573Y-26602204D01*
X24234217Y-26605261D01*
X23726337Y-26736025D01*
X23717471Y-26734770D01*
X23714795Y-26732601D01*
X23374240Y-26360902D01*
X23371179Y-26352489D01*
X23374240Y-26345097D01*
X23714795Y-25973398D01*
X23722909Y-25969615D01*
X23726331Y-25969973D01*
G37*
%TD.AperFunction*%
%TD*%
%TA.AperFunction,Conductor*%
%TO.N,+3V3*%
G36*
X36567939Y-19253164D02*
G01*
X36576202Y-19256612D01*
X36579608Y-19264893D01*
X36579408Y-19267020D01*
X36433790Y-20043656D01*
X36428897Y-20051156D01*
X36422290Y-20053200D01*
X35941710Y-20053200D01*
X35933437Y-20049773D01*
X35930210Y-20043656D01*
X35784591Y-19267020D01*
X35786435Y-19258257D01*
X35793935Y-19253364D01*
X35796052Y-19253164D01*
X36182000Y-19252200D01*
X36567939Y-19253164D01*
G37*
%TD.AperFunction*%
%TD*%
%TA.AperFunction,Conductor*%
%TO.N,/LSE_OUT*%
G36*
X42656925Y-35701235D02*
G01*
X42661795Y-35706400D01*
X43081396Y-36580239D01*
X43081888Y-36589181D01*
X43079855Y-36592773D01*
X42673509Y-37082769D01*
X42665590Y-37086949D01*
X42664503Y-37087000D01*
X42427003Y-37087000D01*
X42418730Y-37083573D01*
X42416691Y-37080827D01*
X42155014Y-36592624D01*
X42154126Y-36583714D01*
X42155094Y-36581424D01*
X42641019Y-35705786D01*
X42648028Y-35700217D01*
X42656925Y-35701235D01*
G37*
%TD.AperFunction*%
%TD*%
%TA.AperFunction,Conductor*%
%TO.N,/SWCLK*%
G36*
X22338385Y-22457524D02*
G01*
X22344703Y-22463871D01*
X22344821Y-22464168D01*
X22549699Y-23003535D01*
X22549433Y-23012486D01*
X22547034Y-23015963D01*
X22380963Y-23182034D01*
X22372690Y-23185461D01*
X22368535Y-23184699D01*
X21829168Y-22979821D01*
X21822651Y-22973679D01*
X21822385Y-22964728D01*
X21822503Y-22964431D01*
X21968437Y-22609802D01*
X21974753Y-22603457D01*
X22329432Y-22457503D01*
X22338385Y-22457524D01*
G37*
%TD.AperFunction*%
%TD*%
%TA.AperFunction,Conductor*%
%TO.N,/~{OE}*%
G36*
X31393468Y-22697742D02*
G01*
X31396715Y-22703968D01*
X31419320Y-22831172D01*
X31419500Y-22833219D01*
X31419500Y-22836097D01*
X31419241Y-22838545D01*
X31281440Y-23482532D01*
X31276358Y-23489905D01*
X31267551Y-23491525D01*
X31260178Y-23486443D01*
X31258559Y-23482536D01*
X31120758Y-22838542D01*
X31120499Y-22836094D01*
X31120499Y-22833225D01*
X31120679Y-22831178D01*
X31143285Y-22703968D01*
X31148107Y-22696422D01*
X31154805Y-22694315D01*
X31385195Y-22694315D01*
X31393468Y-22697742D01*
G37*
%TD.AperFunction*%
%TD*%
%TA.AperFunction,Conductor*%
%TO.N,GND*%
G36*
X26664942Y-16876435D02*
G01*
X26669835Y-16883935D01*
X26670035Y-16886062D01*
X26671000Y-17272029D01*
X26670035Y-17657937D01*
X26666587Y-17666202D01*
X26658306Y-17669608D01*
X26656179Y-17669408D01*
X25879544Y-17523789D01*
X25872044Y-17518896D01*
X25870000Y-17512289D01*
X25870000Y-17031710D01*
X25873427Y-17023437D01*
X25879542Y-17020210D01*
X26656180Y-16874591D01*
X26664942Y-16876435D01*
G37*
%TD.AperFunction*%
%TD*%
%TA.AperFunction,Conductor*%
%TO.N,+3V3*%
G36*
X52911709Y-18538319D02*
G01*
X52918027Y-18544666D01*
X52918151Y-18553255D01*
X52680459Y-19182037D01*
X52674328Y-19188564D01*
X52669515Y-19189600D01*
X52435685Y-19189600D01*
X52427412Y-19186173D01*
X52424741Y-19182037D01*
X52187048Y-18553255D01*
X52187328Y-18544305D01*
X52193489Y-18538319D01*
X52548100Y-18390475D01*
X52557049Y-18390455D01*
X52911709Y-18538319D01*
G37*
%TD.AperFunction*%
%TD*%
%TA.AperFunction,Conductor*%
%TO.N,Net-(D102-K)*%
G36*
X55473319Y-19528171D02*
G01*
X55813355Y-19913053D01*
X55816265Y-19921522D01*
X55813355Y-19928547D01*
X55473319Y-20313428D01*
X55465273Y-20317359D01*
X55458426Y-20315650D01*
X55024775Y-20049225D01*
X55019520Y-20041974D01*
X55019200Y-20039256D01*
X55019200Y-19802343D01*
X55022627Y-19794070D01*
X55024770Y-19792377D01*
X55458426Y-19525948D01*
X55467269Y-19524538D01*
X55473319Y-19528171D01*
G37*
%TD.AperFunction*%
%TD*%
%TA.AperFunction,Conductor*%
%TO.N,GND*%
G36*
X36279820Y-34933556D02*
G01*
X36281440Y-34937467D01*
X36419241Y-35581456D01*
X36419500Y-35583904D01*
X36419500Y-35589171D01*
X36419464Y-35589817D01*
X36396156Y-35799592D01*
X36391837Y-35807436D01*
X36384528Y-35810000D01*
X36155472Y-35810000D01*
X36147199Y-35806573D01*
X36143844Y-35799592D01*
X36136672Y-35735047D01*
X36120533Y-35589805D01*
X36120499Y-35589196D01*
X36120499Y-35583890D01*
X36120758Y-35581456D01*
X36258559Y-34937464D01*
X36263640Y-34930094D01*
X36272447Y-34928474D01*
X36279820Y-34933556D01*
G37*
%TD.AperFunction*%
%TD*%
%TA.AperFunction,Conductor*%
%TO.N,+3V3*%
G36*
X22237934Y-26017429D02*
G01*
X23002053Y-26101849D01*
X23009900Y-26106163D01*
X23012468Y-26113478D01*
X23012469Y-26594191D01*
X23009042Y-26602464D01*
X23004004Y-26605435D01*
X22388093Y-26782668D01*
X22379195Y-26781662D01*
X22374060Y-26775927D01*
X22224905Y-26418171D01*
X22224005Y-26413648D01*
X22224967Y-26029028D01*
X22228415Y-26020765D01*
X22236696Y-26017359D01*
X22237934Y-26017429D01*
G37*
%TD.AperFunction*%
%TD*%
%TA.AperFunction,Conductor*%
%TO.N,+3V3*%
G36*
X28303655Y-18509427D02*
G01*
X28306556Y-18514230D01*
X28484472Y-19087167D01*
X28483652Y-19096084D01*
X28480487Y-19099868D01*
X28061189Y-19426401D01*
X28052556Y-19428781D01*
X28046811Y-19426401D01*
X27627512Y-19099868D01*
X27623090Y-19092081D01*
X27623527Y-19087167D01*
X27801444Y-18514230D01*
X27807171Y-18507346D01*
X27812618Y-18506000D01*
X28295382Y-18506000D01*
X28303655Y-18509427D01*
G37*
%TD.AperFunction*%
%TD*%
%TA.AperFunction,Conductor*%
%TO.N,/DIP3*%
G36*
X30279820Y-34933556D02*
G01*
X30281440Y-34937467D01*
X30415417Y-35563584D01*
X30415612Y-35567255D01*
X30415570Y-35567651D01*
X30414999Y-35578471D01*
X30414999Y-35592088D01*
X30415156Y-35597709D01*
X30415157Y-35597752D01*
X30415158Y-35597785D01*
X30415159Y-35597790D01*
X30415510Y-35604076D01*
X30415979Y-35609697D01*
X30416250Y-35612132D01*
X30416474Y-35614152D01*
X30416473Y-35616734D01*
X30396156Y-35799592D01*
X30391837Y-35807436D01*
X30384528Y-35810000D01*
X30155472Y-35810000D01*
X30147199Y-35806573D01*
X30143844Y-35799592D01*
X30136672Y-35735048D01*
X30120533Y-35589805D01*
X30120499Y-35589196D01*
X30120499Y-35583890D01*
X30120756Y-35581463D01*
X30258559Y-34937464D01*
X30263640Y-34930094D01*
X30272447Y-34928474D01*
X30279820Y-34933556D01*
G37*
%TD.AperFunction*%
%TD*%
%TA.AperFunction,Conductor*%
%TO.N,GND*%
G36*
X41120294Y-38750728D02*
G01*
X41126280Y-38756890D01*
X41274123Y-39111498D01*
X41274144Y-39120452D01*
X41274123Y-39120502D01*
X41126280Y-39475109D01*
X41119933Y-39481427D01*
X41111344Y-39481551D01*
X40482563Y-39243858D01*
X40476036Y-39237727D01*
X40475000Y-39232914D01*
X40475000Y-38999085D01*
X40478427Y-38990812D01*
X40482563Y-38988141D01*
X41111345Y-38750448D01*
X41120294Y-38750728D01*
G37*
%TD.AperFunction*%
%TD*%
%TA.AperFunction,Conductor*%
%TO.N,GND*%
G36*
X25363511Y-32069965D02*
G01*
X25937159Y-32331877D01*
X25943262Y-32338429D01*
X25944000Y-32342519D01*
X25944000Y-32578312D01*
X25940573Y-32586585D01*
X25938238Y-32588393D01*
X25363958Y-32926657D01*
X25355090Y-32927903D01*
X25348790Y-32923766D01*
X25023597Y-32506188D01*
X25021218Y-32497556D01*
X25023597Y-32491812D01*
X25349425Y-32073418D01*
X25357210Y-32068998D01*
X25363511Y-32069965D01*
G37*
%TD.AperFunction*%
%TD*%
%TA.AperFunction,Conductor*%
%TO.N,/NRST*%
G36*
X61387881Y-11470587D02*
G01*
X61750790Y-11712527D01*
X61755773Y-11719966D01*
X61756000Y-11722261D01*
X61756000Y-11959738D01*
X61752573Y-11968011D01*
X61750790Y-11969473D01*
X61387880Y-12211412D01*
X61379095Y-12213150D01*
X61374379Y-12211044D01*
X60892514Y-11850367D01*
X60887944Y-11842666D01*
X60890158Y-11833989D01*
X60892514Y-11831633D01*
X61041701Y-11719966D01*
X61374380Y-11470954D01*
X61383056Y-11468741D01*
X61387881Y-11470587D01*
G37*
%TD.AperFunction*%
%TD*%
%TA.AperFunction,Conductor*%
%TO.N,VBUS*%
G36*
X19628039Y-43707685D02*
G01*
X19673794Y-43760489D01*
X19685000Y-43812000D01*
X19685000Y-46612000D01*
X19665315Y-46679039D01*
X19612511Y-46724794D01*
X19561000Y-46736000D01*
X14475000Y-46736000D01*
X14407961Y-46716315D01*
X14362206Y-46663511D01*
X14351000Y-46612000D01*
X14351000Y-43812000D01*
X14370685Y-43744961D01*
X14423489Y-43699206D01*
X14475000Y-43688000D01*
X19561000Y-43688000D01*
X19628039Y-43707685D01*
G37*
%TD.AperFunction*%
%TD*%
M02*
