%TF.GenerationSoftware,KiCad,Pcbnew,7.0.2-0*%
%TF.CreationDate,2023-05-15T19:37:27-04:00*%
%TF.ProjectId,7-segment-display-controller,372d7365-676d-4656-9e74-2d646973706c,A*%
%TF.SameCoordinates,Original*%
%TF.FileFunction,Paste,Top*%
%TF.FilePolarity,Positive*%
%FSLAX46Y46*%
G04 Gerber Fmt 4.6, Leading zero omitted, Abs format (unit mm)*
G04 Created by KiCad (PCBNEW 7.0.2-0) date 2023-05-15 19:37:27*
%MOMM*%
%LPD*%
G01*
G04 APERTURE LIST*
G04 Aperture macros list*
%AMRoundRect*
0 Rectangle with rounded corners*
0 $1 Rounding radius*
0 $2 $3 $4 $5 $6 $7 $8 $9 X,Y pos of 4 corners*
0 Add a 4 corners polygon primitive as box body*
4,1,4,$2,$3,$4,$5,$6,$7,$8,$9,$2,$3,0*
0 Add four circle primitives for the rounded corners*
1,1,$1+$1,$2,$3*
1,1,$1+$1,$4,$5*
1,1,$1+$1,$6,$7*
1,1,$1+$1,$8,$9*
0 Add four rect primitives between the rounded corners*
20,1,$1+$1,$2,$3,$4,$5,0*
20,1,$1+$1,$4,$5,$6,$7,0*
20,1,$1+$1,$6,$7,$8,$9,0*
20,1,$1+$1,$8,$9,$2,$3,0*%
G04 Aperture macros list end*
%ADD10R,1.000000X1.200000*%
%ADD11R,1.000000X0.800000*%
%ADD12RoundRect,0.200000X-0.200000X-0.275000X0.200000X-0.275000X0.200000X0.275000X-0.200000X0.275000X0*%
%ADD13RoundRect,0.225000X0.225000X0.250000X-0.225000X0.250000X-0.225000X-0.250000X0.225000X-0.250000X0*%
%ADD14RoundRect,0.150000X-0.587500X-0.150000X0.587500X-0.150000X0.587500X0.150000X-0.587500X0.150000X0*%
%ADD15RoundRect,0.225000X-0.225000X-0.250000X0.225000X-0.250000X0.225000X0.250000X-0.225000X0.250000X0*%
%ADD16R,2.000000X1.500000*%
%ADD17R,2.000000X3.800000*%
%ADD18RoundRect,0.218750X0.218750X0.256250X-0.218750X0.256250X-0.218750X-0.256250X0.218750X-0.256250X0*%
%ADD19RoundRect,0.225000X-0.250000X0.225000X-0.250000X-0.225000X0.250000X-0.225000X0.250000X0.225000X0*%
%ADD20R,1.500000X1.900000*%
%ADD21R,0.400000X1.350000*%
%ADD22RoundRect,0.250000X0.650000X-1.000000X0.650000X1.000000X-0.650000X1.000000X-0.650000X-1.000000X0*%
%ADD23RoundRect,0.575000X-1.425000X-0.575000X1.425000X-0.575000X1.425000X0.575000X-1.425000X0.575000X0*%
%ADD24RoundRect,0.575000X-1.625000X-0.575000X1.625000X-0.575000X1.625000X0.575000X-1.625000X0.575000X0*%
%ADD25RoundRect,0.250000X-1.500000X-0.550000X1.500000X-0.550000X1.500000X0.550000X-1.500000X0.550000X0*%
%ADD26RoundRect,0.200000X0.275000X-0.200000X0.275000X0.200000X-0.275000X0.200000X-0.275000X-0.200000X0*%
%ADD27R,1.200000X1.400000*%
%ADD28RoundRect,0.225000X0.250000X-0.225000X0.250000X0.225000X-0.250000X0.225000X-0.250000X-0.225000X0*%
%ADD29R,0.800000X0.500000*%
%ADD30R,0.800000X0.400000*%
%ADD31RoundRect,0.250000X-0.650000X1.000000X-0.650000X-1.000000X0.650000X-1.000000X0.650000X1.000000X0*%
%ADD32RoundRect,0.147500X-0.172500X0.147500X-0.172500X-0.147500X0.172500X-0.147500X0.172500X0.147500X0*%
%ADD33R,0.400000X0.650000*%
%ADD34R,0.760000X1.270000*%
%ADD35RoundRect,0.075000X0.075000X0.662500X-0.075000X0.662500X-0.075000X-0.662500X0.075000X-0.662500X0*%
%ADD36RoundRect,0.075000X0.662500X0.075000X-0.662500X0.075000X-0.662500X-0.075000X0.662500X-0.075000X0*%
%ADD37RoundRect,0.250000X0.625000X-0.375000X0.625000X0.375000X-0.625000X0.375000X-0.625000X-0.375000X0*%
G04 APERTURE END LIST*
D10*
%TO.C,D105*%
X24999800Y-45962000D03*
D11*
X24999800Y-44262000D03*
X22599800Y-44262000D03*
X22599800Y-46162000D03*
%TD*%
D12*
%TO.C,R103*%
X41276000Y-30607000D03*
X42926000Y-30607000D03*
%TD*%
D13*
%TO.C,C113*%
X18832000Y-2032000D03*
X17282000Y-2032000D03*
%TD*%
D14*
%TO.C,Q101*%
X48181500Y-40132000D03*
X46306500Y-41082000D03*
X46306500Y-39182000D03*
%TD*%
D12*
%TO.C,R102*%
X57469200Y-19920800D03*
X55819200Y-19920800D03*
%TD*%
D15*
%TO.C,C107*%
X42812000Y-27482800D03*
X41262000Y-27482800D03*
%TD*%
D16*
%TO.C,U201*%
X8484000Y-36753500D03*
D17*
X2184000Y-39053500D03*
D16*
X8484000Y-39053500D03*
X8484000Y-41353500D03*
%TD*%
D12*
%TO.C,R101*%
X57530000Y-22156000D03*
X55880000Y-22156000D03*
%TD*%
D18*
%TO.C,D101*%
X52590100Y-22181400D03*
X54165100Y-22181400D03*
%TD*%
D19*
%TO.C,C109*%
X44856400Y-33922000D03*
X44856400Y-32372000D03*
%TD*%
%TO.C,C116*%
X38481000Y-40907000D03*
X38481000Y-39357000D03*
%TD*%
D20*
%TO.C,J102*%
X25130000Y-52545500D03*
X23130000Y-52545500D03*
D21*
X25430000Y-49845500D03*
X24780000Y-49845500D03*
X24130000Y-49845500D03*
X23480000Y-49845500D03*
X22830000Y-49845500D03*
%TD*%
D13*
%TO.C,C111*%
X26937000Y-2032000D03*
X25387000Y-2032000D03*
%TD*%
D15*
%TO.C,C201*%
X12713000Y-34544000D03*
X11163000Y-34544000D03*
%TD*%
%TO.C,C104*%
X27572000Y-36830000D03*
X26022000Y-36830000D03*
%TD*%
%TO.C,C106*%
X42812000Y-29032200D03*
X41262000Y-29032200D03*
%TD*%
D22*
%TO.C,D106*%
X42799000Y-39148000D03*
X42799000Y-43148000D03*
%TD*%
D18*
%TO.C,D102*%
X52554700Y-19920800D03*
X54129700Y-19920800D03*
%TD*%
D23*
%TO.C,BT101*%
X67690000Y-36322000D03*
D24*
X51690000Y-36322000D03*
%TD*%
D25*
%TO.C,C115*%
X19591000Y-29718000D03*
X14191000Y-29718000D03*
%TD*%
D26*
%TO.C,R104*%
X11303000Y-25464000D03*
X11303000Y-27114000D03*
%TD*%
D27*
%TO.C,Y101*%
X43166400Y-32555000D03*
X43166400Y-34755000D03*
X41466400Y-34755000D03*
X41466400Y-32555000D03*
%TD*%
D28*
%TO.C,C103*%
X28403104Y-22885873D03*
X28403104Y-24435873D03*
%TD*%
D12*
%TO.C,R105*%
X57479600Y-24467400D03*
X55829600Y-24467400D03*
%TD*%
D13*
%TO.C,C112*%
X43701000Y-2032000D03*
X42151000Y-2032000D03*
%TD*%
D29*
%TO.C,RN101*%
X37454000Y-46304000D03*
D30*
X37454000Y-45504000D03*
X37454000Y-44704000D03*
D29*
X37454000Y-43904000D03*
X39254000Y-43904000D03*
D30*
X39254000Y-44704000D03*
X39254000Y-45504000D03*
D29*
X39254000Y-46304000D03*
%TD*%
D31*
%TO.C,D103*%
X12700000Y-41053500D03*
X12700000Y-37053500D03*
%TD*%
D32*
%TO.C,L101*%
X39954200Y-28196400D03*
X39954200Y-27226400D03*
%TD*%
D33*
%TO.C,D104*%
X25893000Y-40452000D03*
X26543000Y-40452000D03*
X27193000Y-40452000D03*
X27193000Y-42352000D03*
X26543000Y-42352000D03*
X25893000Y-42352000D03*
%TD*%
D18*
%TO.C,D107*%
X52565100Y-24467400D03*
X54140100Y-24467400D03*
%TD*%
D19*
%TO.C,C105*%
X36830000Y-39560800D03*
X36830000Y-38010800D03*
%TD*%
D13*
%TO.C,C114*%
X52083000Y-2032000D03*
X50533000Y-2032000D03*
%TD*%
D34*
%TO.C,SW101*%
X31115000Y-41148000D03*
X32385000Y-41148000D03*
X33655000Y-41148000D03*
X34925000Y-41148000D03*
X34925000Y-48768000D03*
X33655000Y-48768000D03*
X32385000Y-48768000D03*
X31115000Y-48768000D03*
%TD*%
D13*
%TO.C,C202*%
X5829000Y-34544000D03*
X7379000Y-34544000D03*
%TD*%
D35*
%TO.C,U101*%
X35262000Y-36420500D03*
X34762000Y-36420500D03*
X34262000Y-36420500D03*
X33762000Y-36420500D03*
X33262000Y-36420500D03*
X32762000Y-36420500D03*
X32262000Y-36420500D03*
X31762000Y-36420500D03*
X31262000Y-36420500D03*
X30762000Y-36420500D03*
X30262000Y-36420500D03*
X29762000Y-36420500D03*
D36*
X28349500Y-35008000D03*
X28349500Y-34508000D03*
X28349500Y-34008000D03*
X28349500Y-33508000D03*
X28349500Y-33008000D03*
X28349500Y-32508000D03*
X28349500Y-32008000D03*
X28349500Y-31508000D03*
X28349500Y-31008000D03*
X28349500Y-30508000D03*
X28349500Y-30008000D03*
X28349500Y-29508000D03*
D35*
X29762000Y-28095500D03*
X30262000Y-28095500D03*
X30762000Y-28095500D03*
X31262000Y-28095500D03*
X31762000Y-28095500D03*
X32262000Y-28095500D03*
X32762000Y-28095500D03*
X33262000Y-28095500D03*
X33762000Y-28095500D03*
X34262000Y-28095500D03*
X34762000Y-28095500D03*
X35262000Y-28095500D03*
D36*
X36674500Y-29508000D03*
X36674500Y-30008000D03*
X36674500Y-30508000D03*
X36674500Y-31008000D03*
X36674500Y-31508000D03*
X36674500Y-32008000D03*
X36674500Y-32508000D03*
X36674500Y-33008000D03*
X36674500Y-33508000D03*
X36674500Y-34008000D03*
X36674500Y-34508000D03*
X36674500Y-35008000D03*
%TD*%
D19*
%TO.C,C101*%
X40005000Y-42177000D03*
X40005000Y-40627000D03*
%TD*%
D37*
%TO.C,F101*%
X15748000Y-41526000D03*
X15748000Y-44326000D03*
%TD*%
D13*
%TO.C,C110*%
X35319000Y-2032000D03*
X33769000Y-2032000D03*
%TD*%
D28*
%TO.C,C102*%
X26752104Y-22885873D03*
X26752104Y-24435873D03*
%TD*%
D15*
%TO.C,C108*%
X43091400Y-36576000D03*
X41541400Y-36576000D03*
%TD*%
M02*
