%TF.GenerationSoftware,KiCad,Pcbnew,7.0.5-0*%
%TF.CreationDate,2023-06-02T13:54:40-04:00*%
%TF.ProjectId,7-segment-display-controller,372d7365-676d-4656-9e74-2d646973706c,B*%
%TF.SameCoordinates,Original*%
%TF.FileFunction,Copper,L2,Inr*%
%TF.FilePolarity,Positive*%
%FSLAX46Y46*%
G04 Gerber Fmt 4.6, Leading zero omitted, Abs format (unit mm)*
G04 Created by KiCad (PCBNEW 7.0.5-0) date 2023-06-02 13:54:40*
%MOMM*%
%LPD*%
G01*
G04 APERTURE LIST*
G04 Aperture macros list*
%AMRoundRect*
0 Rectangle with rounded corners*
0 $1 Rounding radius*
0 $2 $3 $4 $5 $6 $7 $8 $9 X,Y pos of 4 corners*
0 Add a 4 corners polygon primitive as box body*
4,1,4,$2,$3,$4,$5,$6,$7,$8,$9,$2,$3,0*
0 Add four circle primitives for the rounded corners*
1,1,$1+$1,$2,$3*
1,1,$1+$1,$4,$5*
1,1,$1+$1,$6,$7*
1,1,$1+$1,$8,$9*
0 Add four rect primitives between the rounded corners*
20,1,$1+$1,$2,$3,$4,$5,0*
20,1,$1+$1,$4,$5,$6,$7,0*
20,1,$1+$1,$6,$7,$8,$9,0*
20,1,$1+$1,$8,$9,$2,$3,0*%
G04 Aperture macros list end*
%TA.AperFunction,ComponentPad*%
%ADD10C,0.800000*%
%TD*%
%TA.AperFunction,ComponentPad*%
%ADD11C,6.400000*%
%TD*%
%TA.AperFunction,ComponentPad*%
%ADD12R,1.700000X1.700000*%
%TD*%
%TA.AperFunction,ComponentPad*%
%ADD13O,1.700000X1.700000*%
%TD*%
%TA.AperFunction,ComponentPad*%
%ADD14O,1.200000X1.900000*%
%TD*%
%TA.AperFunction,ComponentPad*%
%ADD15C,1.450000*%
%TD*%
%TA.AperFunction,ComponentPad*%
%ADD16RoundRect,0.250000X0.350000X0.625000X-0.350000X0.625000X-0.350000X-0.625000X0.350000X-0.625000X0*%
%TD*%
%TA.AperFunction,ComponentPad*%
%ADD17O,1.200000X1.750000*%
%TD*%
%TA.AperFunction,ComponentPad*%
%ADD18RoundRect,0.250000X-0.725000X0.600000X-0.725000X-0.600000X0.725000X-0.600000X0.725000X0.600000X0*%
%TD*%
%TA.AperFunction,ComponentPad*%
%ADD19O,1.950000X1.700000*%
%TD*%
%TA.AperFunction,ComponentPad*%
%ADD20C,1.500000*%
%TD*%
%TA.AperFunction,ComponentPad*%
%ADD21RoundRect,0.250000X0.625000X-0.350000X0.625000X0.350000X-0.625000X0.350000X-0.625000X-0.350000X0*%
%TD*%
%TA.AperFunction,ComponentPad*%
%ADD22O,1.750000X1.200000*%
%TD*%
%TA.AperFunction,ComponentPad*%
%ADD23RoundRect,0.250000X-0.600000X-0.750000X0.600000X-0.750000X0.600000X0.750000X-0.600000X0.750000X0*%
%TD*%
%TA.AperFunction,ComponentPad*%
%ADD24O,1.700000X2.000000*%
%TD*%
%TA.AperFunction,ComponentPad*%
%ADD25RoundRect,0.250000X-0.625000X0.350000X-0.625000X-0.350000X0.625000X-0.350000X0.625000X0.350000X0*%
%TD*%
%TA.AperFunction,ViaPad*%
%ADD26C,0.800000*%
%TD*%
G04 APERTURE END LIST*
D10*
%TO.N,GND*%
%TO.C,H104*%
X5207000Y-46368000D03*
X6904056Y-50465056D03*
X6904056Y-47070944D03*
X7607000Y-48768000D03*
D11*
X5207000Y-48768000D03*
D10*
X5207000Y-51168000D03*
X3509944Y-47070944D03*
X3509944Y-50465056D03*
X2807000Y-48768000D03*
%TD*%
%TO.N,GND*%
%TO.C,H103*%
X5207000Y-2680000D03*
X6904056Y-6777056D03*
X6904056Y-3382944D03*
X7607000Y-5080000D03*
D11*
X5207000Y-5080000D03*
D10*
X5207000Y-7480000D03*
X3509944Y-3382944D03*
X3509944Y-6777056D03*
X2807000Y-5080000D03*
%TD*%
%TO.N,GND*%
%TO.C,H102*%
X65913000Y-46368000D03*
X67610056Y-50465056D03*
X67610056Y-47070944D03*
X68313000Y-48768000D03*
D11*
X65913000Y-48768000D03*
D10*
X65913000Y-51168000D03*
X64215944Y-47070944D03*
X64215944Y-50465056D03*
X63513000Y-48768000D03*
%TD*%
%TO.N,GND*%
%TO.C,H101*%
X65913000Y-2680000D03*
X67610056Y-6777056D03*
X67610056Y-3382944D03*
X68313000Y-5080000D03*
D11*
X65913000Y-5080000D03*
D10*
X65913000Y-7480000D03*
X64215944Y-3382944D03*
X64215944Y-6777056D03*
X63513000Y-5080000D03*
%TD*%
D12*
%TO.N,GND*%
%TO.C,OLED101*%
X13388000Y-11079000D03*
D13*
%TO.N,+3V3*%
X13388000Y-8539000D03*
%TO.N,/SCL*%
X13388000Y-5999000D03*
%TO.N,/SDA*%
X13388000Y-3459000D03*
%TD*%
D14*
%TO.N,GND*%
%TO.C,J102*%
X19690200Y-52494700D03*
D15*
X20690200Y-49794700D03*
X25690200Y-49794700D03*
D14*
X26690200Y-52494700D03*
%TD*%
D16*
%TO.N,+3V3*%
%TO.C,J106*%
X57658000Y-6731000D03*
D17*
%TO.N,/IR_RECV*%
X55658000Y-6731000D03*
%TO.N,GND*%
X53658000Y-6731000D03*
%TD*%
D18*
%TO.N,GND*%
%TO.C,J104*%
X6731000Y-24297000D03*
D19*
%TO.N,Net-(J104-Pin_2)*%
X6731000Y-26797000D03*
%TO.N,+5V*%
X6731000Y-29297000D03*
%TD*%
D20*
%TO.N,*%
%TO.C,BT101*%
X55790000Y-36322000D03*
X63290000Y-36322000D03*
%TD*%
D21*
%TO.N,VBUS*%
%TO.C,J103*%
X64516000Y-26035000D03*
D22*
%TO.N,/UART_TX*%
X64516000Y-24035000D03*
%TO.N,/UART_RX*%
X64516000Y-22035000D03*
%TO.N,GND*%
X64516000Y-20035000D03*
%TD*%
D23*
%TO.N,GND*%
%TO.C,J107*%
X50947000Y-47481000D03*
D24*
%TO.N,VBUS*%
X53447000Y-47481000D03*
%TD*%
D25*
%TO.N,+3V3*%
%TO.C,J105*%
X6207000Y-12605000D03*
D22*
%TO.N,/SCL*%
X6207000Y-14605000D03*
%TO.N,/SDA*%
X6207000Y-16605000D03*
%TO.N,GND*%
X6207000Y-18605000D03*
%TD*%
D26*
%TO.N,+3V3*%
X45339000Y-24511000D03*
%TO.N,GND*%
X43815000Y-38989000D03*
X44704000Y-36322000D03*
X42926000Y-37592000D03*
X48197000Y-32258000D03*
X18669000Y-21717000D03*
X30149800Y-34508000D03*
X58801000Y-24511000D03*
X34874200Y-31496000D03*
X24511000Y-48499900D03*
X35737800Y-39560800D03*
X29718000Y-25273000D03*
X10033000Y-34163000D03*
X28448000Y-38100000D03*
X27355800Y-44043600D03*
X25628600Y-24434800D03*
X40309800Y-46304000D03*
X22352000Y-29337000D03*
X21209000Y-37312600D03*
X34192699Y-38307499D03*
X47371000Y-30632400D03*
X59182000Y-15621000D03*
X43967400Y-29032200D03*
X67741800Y-38811200D03*
X38481000Y-42291000D03*
X9779000Y-38100000D03*
X58801000Y-19964400D03*
X2971800Y-43129200D03*
X44118900Y-27191000D03*
X1701800Y-43129200D03*
X58808200Y-22156000D03*
X25146000Y-44323000D03*
X19050000Y-18161000D03*
%TO.N,+3V3*%
X43942000Y-41148000D03*
X6477000Y-33020000D03*
X35426122Y-38044557D03*
X25019000Y-36322000D03*
X26797000Y-35052000D03*
X52552600Y-18389600D03*
X25628600Y-25971800D03*
X24511000Y-26924000D03*
X2413000Y-33020000D03*
X4445000Y-33020000D03*
X32893000Y-50292000D03*
%TO.N,/NRST*%
X59182000Y-11811000D03*
X33832800Y-32867600D03*
X25019000Y-42557100D03*
X21209000Y-38557200D03*
%TO.N,/SWO*%
X17297400Y-37287200D03*
X28371800Y-42722800D03*
%TO.N,/SWCLK*%
X27294600Y-39674800D03*
X17361500Y-38608000D03*
%TO.N,/SWDIO*%
X25994600Y-39725600D03*
X17246600Y-39827200D03*
%TO.N,VBUS*%
X17783000Y-44326000D03*
X18415000Y-45974000D03*
X15367000Y-45974000D03*
X16891000Y-45974000D03*
%TO.N,/UART_TX*%
X38176200Y-29508000D03*
%TO.N,/UART_RX*%
X35627800Y-26483800D03*
%TO.N,/RGB_LED*%
X19050000Y-19177000D03*
X32131000Y-30480000D03*
%TO.N,/SCL*%
X26035000Y-30988000D03*
%TO.N,/SDA*%
X24511000Y-30988000D03*
%TD*%
%TA.AperFunction,Conductor*%
%TO.N,GND*%
G36*
X7063420Y-50270867D02*
G01*
X7001601Y-50229561D01*
X6928680Y-50215056D01*
X6879432Y-50215056D01*
X6806511Y-50229561D01*
X6723816Y-50284816D01*
X6668561Y-50367511D01*
X6649158Y-50465056D01*
X6668561Y-50562601D01*
X6709867Y-50624420D01*
X6151180Y-50065733D01*
X6341870Y-49902870D01*
X6504733Y-49712180D01*
X7063420Y-50270867D01*
G37*
%TD.AperFunction*%
%TA.AperFunction,Conductor*%
G36*
X4072130Y-49902870D02*
G01*
X4262819Y-50065733D01*
X3704135Y-50624416D01*
X3745439Y-50562601D01*
X3764842Y-50465056D01*
X3745439Y-50367511D01*
X3690184Y-50284816D01*
X3607489Y-50229561D01*
X3534568Y-50215056D01*
X3485320Y-50215056D01*
X3412399Y-50229561D01*
X3350577Y-50270868D01*
X3909266Y-49712180D01*
X4072130Y-49902870D01*
G37*
%TD.AperFunction*%
%TA.AperFunction,Conductor*%
G36*
X4262818Y-47470267D02*
G01*
X4072130Y-47633130D01*
X3909266Y-47823818D01*
X3350582Y-47265134D01*
X3412399Y-47306439D01*
X3485320Y-47320944D01*
X3534568Y-47320944D01*
X3607489Y-47306439D01*
X3690184Y-47251184D01*
X3745439Y-47168489D01*
X3764842Y-47070944D01*
X3745439Y-46973399D01*
X3704135Y-46911583D01*
X4262818Y-47470267D01*
G37*
%TD.AperFunction*%
%TA.AperFunction,Conductor*%
G36*
X6668561Y-46973399D02*
G01*
X6649158Y-47070944D01*
X6668561Y-47168489D01*
X6723816Y-47251184D01*
X6806511Y-47306439D01*
X6879432Y-47320944D01*
X6928680Y-47320944D01*
X7001601Y-47306439D01*
X7063415Y-47265135D01*
X6504732Y-47823818D01*
X6341870Y-47633130D01*
X6151179Y-47470266D01*
X6709869Y-46911576D01*
X6668561Y-46973399D01*
G37*
%TD.AperFunction*%
%TA.AperFunction,Conductor*%
G36*
X67769420Y-50270867D02*
G01*
X67707601Y-50229561D01*
X67634680Y-50215056D01*
X67585432Y-50215056D01*
X67512511Y-50229561D01*
X67429816Y-50284816D01*
X67374561Y-50367511D01*
X67355158Y-50465056D01*
X67374561Y-50562601D01*
X67415867Y-50624420D01*
X66857180Y-50065733D01*
X67047870Y-49902870D01*
X67210733Y-49712180D01*
X67769420Y-50270867D01*
G37*
%TD.AperFunction*%
%TA.AperFunction,Conductor*%
G36*
X64778130Y-49902870D02*
G01*
X64968819Y-50065733D01*
X64410135Y-50624416D01*
X64451439Y-50562601D01*
X64470842Y-50465056D01*
X64451439Y-50367511D01*
X64396184Y-50284816D01*
X64313489Y-50229561D01*
X64240568Y-50215056D01*
X64191320Y-50215056D01*
X64118399Y-50229561D01*
X64056576Y-50270869D01*
X64615266Y-49712179D01*
X64778130Y-49902870D01*
G37*
%TD.AperFunction*%
%TA.AperFunction,Conductor*%
G36*
X64968819Y-47470266D02*
G01*
X64778130Y-47633130D01*
X64615266Y-47823818D01*
X64056582Y-47265134D01*
X64118399Y-47306439D01*
X64191320Y-47320944D01*
X64240568Y-47320944D01*
X64313489Y-47306439D01*
X64396184Y-47251184D01*
X64451439Y-47168489D01*
X64470842Y-47070944D01*
X64451439Y-46973399D01*
X64410133Y-46911581D01*
X64968819Y-47470266D01*
G37*
%TD.AperFunction*%
%TA.AperFunction,Conductor*%
G36*
X67374561Y-46973399D02*
G01*
X67355158Y-47070944D01*
X67374561Y-47168489D01*
X67429816Y-47251184D01*
X67512511Y-47306439D01*
X67585432Y-47320944D01*
X67634680Y-47320944D01*
X67707601Y-47306439D01*
X67769415Y-47265135D01*
X67210732Y-47823818D01*
X67047870Y-47633130D01*
X66857180Y-47470266D01*
X67415867Y-46911578D01*
X67374561Y-46973399D01*
G37*
%TD.AperFunction*%
%TA.AperFunction,Conductor*%
G36*
X7063420Y-6582867D02*
G01*
X7001601Y-6541561D01*
X6928680Y-6527056D01*
X6879432Y-6527056D01*
X6806511Y-6541561D01*
X6723816Y-6596816D01*
X6668561Y-6679511D01*
X6649158Y-6777056D01*
X6668561Y-6874601D01*
X6709867Y-6936420D01*
X6151180Y-6377733D01*
X6341870Y-6214870D01*
X6504733Y-6024180D01*
X7063420Y-6582867D01*
G37*
%TD.AperFunction*%
%TA.AperFunction,Conductor*%
G36*
X4072130Y-6214870D02*
G01*
X4262819Y-6377733D01*
X3704135Y-6936416D01*
X3745439Y-6874601D01*
X3764842Y-6777056D01*
X3745439Y-6679511D01*
X3690184Y-6596816D01*
X3607489Y-6541561D01*
X3534568Y-6527056D01*
X3485320Y-6527056D01*
X3412399Y-6541561D01*
X3350577Y-6582868D01*
X3909266Y-6024180D01*
X4072130Y-6214870D01*
G37*
%TD.AperFunction*%
%TA.AperFunction,Conductor*%
G36*
X4262819Y-3782266D02*
G01*
X4072130Y-3945130D01*
X3909266Y-4135818D01*
X3350582Y-3577134D01*
X3412399Y-3618439D01*
X3485320Y-3632944D01*
X3534568Y-3632944D01*
X3607489Y-3618439D01*
X3690184Y-3563184D01*
X3745439Y-3480489D01*
X3764842Y-3382944D01*
X3745439Y-3285399D01*
X3704133Y-3223581D01*
X4262819Y-3782266D01*
G37*
%TD.AperFunction*%
%TA.AperFunction,Conductor*%
G36*
X6668561Y-3285399D02*
G01*
X6649158Y-3382944D01*
X6668561Y-3480489D01*
X6723816Y-3563184D01*
X6806511Y-3618439D01*
X6879432Y-3632944D01*
X6928680Y-3632944D01*
X7001601Y-3618439D01*
X7063414Y-3577136D01*
X6504732Y-4135818D01*
X6341870Y-3945130D01*
X6151180Y-3782266D01*
X6709867Y-3223578D01*
X6668561Y-3285399D01*
G37*
%TD.AperFunction*%
%TA.AperFunction,Conductor*%
G36*
X67769420Y-6582867D02*
G01*
X67707601Y-6541561D01*
X67634680Y-6527056D01*
X67585432Y-6527056D01*
X67512511Y-6541561D01*
X67429816Y-6596816D01*
X67374561Y-6679511D01*
X67355158Y-6777056D01*
X67374561Y-6874601D01*
X67415867Y-6936420D01*
X66857180Y-6377733D01*
X67047870Y-6214870D01*
X67210733Y-6024180D01*
X67769420Y-6582867D01*
G37*
%TD.AperFunction*%
%TA.AperFunction,Conductor*%
G36*
X64778130Y-6214870D02*
G01*
X64968819Y-6377733D01*
X64410135Y-6936416D01*
X64451439Y-6874601D01*
X64470842Y-6777056D01*
X64451439Y-6679511D01*
X64396184Y-6596816D01*
X64313489Y-6541561D01*
X64240568Y-6527056D01*
X64191320Y-6527056D01*
X64118399Y-6541561D01*
X64056577Y-6582868D01*
X64615266Y-6024180D01*
X64778130Y-6214870D01*
G37*
%TD.AperFunction*%
%TA.AperFunction,Conductor*%
G36*
X64968819Y-3782266D02*
G01*
X64778130Y-3945130D01*
X64615266Y-4135818D01*
X64056582Y-3577134D01*
X64118399Y-3618439D01*
X64191320Y-3632944D01*
X64240568Y-3632944D01*
X64313489Y-3618439D01*
X64396184Y-3563184D01*
X64451439Y-3480489D01*
X64470842Y-3382944D01*
X64451439Y-3285399D01*
X64410133Y-3223581D01*
X64968819Y-3782266D01*
G37*
%TD.AperFunction*%
%TA.AperFunction,Conductor*%
G36*
X67374561Y-3285399D02*
G01*
X67355158Y-3382944D01*
X67374561Y-3480489D01*
X67429816Y-3563184D01*
X67512511Y-3618439D01*
X67585432Y-3632944D01*
X67634680Y-3632944D01*
X67707601Y-3618439D01*
X67769415Y-3577135D01*
X67210732Y-4135818D01*
X67047870Y-3945130D01*
X66857180Y-3782266D01*
X67415867Y-3223578D01*
X67374561Y-3285399D01*
G37*
%TD.AperFunction*%
%TA.AperFunction,Conductor*%
G36*
X69118019Y-88633D02*
G01*
X69156149Y-91131D01*
X69199793Y-93992D01*
X69381459Y-106985D01*
X69389102Y-108015D01*
X69505451Y-131158D01*
X69649666Y-162531D01*
X69656383Y-164395D01*
X69774618Y-204531D01*
X69776224Y-205103D01*
X69907740Y-254156D01*
X69913483Y-256635D01*
X70027830Y-313024D01*
X70030042Y-314173D01*
X70150913Y-380173D01*
X70155641Y-383037D01*
X70262649Y-454537D01*
X70265358Y-456454D01*
X70374652Y-538271D01*
X70378345Y-541265D01*
X70475502Y-626469D01*
X70478448Y-629228D01*
X70574769Y-725549D01*
X70577526Y-728492D01*
X70662729Y-825648D01*
X70665732Y-829353D01*
X70717564Y-898592D01*
X70747543Y-938639D01*
X70749461Y-941349D01*
X70820961Y-1048357D01*
X70823828Y-1053091D01*
X70889802Y-1173912D01*
X70890992Y-1176204D01*
X70947356Y-1290499D01*
X70949842Y-1296258D01*
X70998878Y-1427727D01*
X70999497Y-1429465D01*
X71039597Y-1547596D01*
X71041472Y-1554352D01*
X71072848Y-1698590D01*
X71095980Y-1814880D01*
X71097015Y-1822560D01*
X71110021Y-2004413D01*
X71115367Y-2085966D01*
X71115500Y-2090023D01*
X71115500Y-52085976D01*
X71115367Y-52090033D01*
X71110021Y-52171585D01*
X71097015Y-52353438D01*
X71095980Y-52361118D01*
X71072848Y-52477408D01*
X71041472Y-52621646D01*
X71039597Y-52628402D01*
X70999497Y-52746533D01*
X70998878Y-52748271D01*
X70949842Y-52879740D01*
X70947356Y-52885499D01*
X70890992Y-52999794D01*
X70889802Y-53002086D01*
X70823828Y-53122907D01*
X70820961Y-53127641D01*
X70749461Y-53234649D01*
X70747543Y-53237359D01*
X70665744Y-53346631D01*
X70662723Y-53350357D01*
X70577529Y-53447502D01*
X70574755Y-53450464D01*
X70478464Y-53546755D01*
X70475502Y-53549529D01*
X70378357Y-53634723D01*
X70374631Y-53637744D01*
X70265359Y-53719543D01*
X70262649Y-53721461D01*
X70155641Y-53792961D01*
X70150907Y-53795828D01*
X70030086Y-53861802D01*
X70027794Y-53862992D01*
X69913499Y-53919356D01*
X69907740Y-53921842D01*
X69776271Y-53970878D01*
X69774533Y-53971497D01*
X69656402Y-54011597D01*
X69649646Y-54013472D01*
X69505408Y-54044848D01*
X69389118Y-54067980D01*
X69381438Y-54069015D01*
X69199585Y-54082021D01*
X69143608Y-54085690D01*
X69118025Y-54087367D01*
X69113976Y-54087500D01*
X27186822Y-54087500D01*
X27119783Y-54067815D01*
X27074028Y-54015011D01*
X27064084Y-53945853D01*
X27093109Y-53882297D01*
X27135311Y-53850705D01*
X27242707Y-53801659D01*
X27413819Y-53679810D01*
X27413825Y-53679804D01*
X27558792Y-53527767D01*
X27672366Y-53351042D01*
X27750444Y-53156014D01*
X27790200Y-52949737D01*
X27790200Y-52744700D01*
X26990200Y-52744700D01*
X26990200Y-52244700D01*
X27790199Y-52244700D01*
X27790200Y-52092301D01*
X27775234Y-51935577D01*
X27775233Y-51935573D01*
X27716050Y-51734013D01*
X27619786Y-51547285D01*
X27489931Y-51382162D01*
X27489928Y-51382159D01*
X27331169Y-51244594D01*
X27331158Y-51244585D01*
X27149239Y-51139555D01*
X27149232Y-51139552D01*
X26950716Y-51070844D01*
X26940199Y-51069332D01*
X26940199Y-51978588D01*
X26915743Y-51939090D01*
X26826238Y-51871499D01*
X26718360Y-51840805D01*
X26606679Y-51851154D01*
X26506278Y-51901148D01*
X26440200Y-51973630D01*
X26440200Y-51073440D01*
X26405021Y-51081975D01*
X26335230Y-51078650D01*
X26278316Y-51038121D01*
X26252348Y-50973257D01*
X26265572Y-50904650D01*
X26304663Y-50859896D01*
X26361820Y-50819873D01*
X25756452Y-50214504D01*
X25823169Y-50203938D01*
X25943123Y-50142818D01*
X26038318Y-50047623D01*
X26099438Y-49927669D01*
X26110004Y-49860951D01*
X26715373Y-50466319D01*
X26755135Y-50409535D01*
X26809942Y-50292000D01*
X31987540Y-50292000D01*
X32007326Y-50480256D01*
X32007327Y-50480259D01*
X32065818Y-50660277D01*
X32065821Y-50660284D01*
X32160467Y-50824216D01*
X32244911Y-50918000D01*
X32287129Y-50964888D01*
X32440265Y-51076148D01*
X32440270Y-51076151D01*
X32613192Y-51153142D01*
X32613197Y-51153144D01*
X32798354Y-51192500D01*
X32798355Y-51192500D01*
X32987644Y-51192500D01*
X32987646Y-51192500D01*
X33172803Y-51153144D01*
X33345730Y-51076151D01*
X33498871Y-50964888D01*
X33625533Y-50824216D01*
X33720179Y-50660284D01*
X33778674Y-50480256D01*
X33798460Y-50292000D01*
X33778674Y-50103744D01*
X33720179Y-49923716D01*
X33625533Y-49759784D01*
X33498871Y-49619112D01*
X33498870Y-49619111D01*
X33345734Y-49507851D01*
X33345729Y-49507848D01*
X33172807Y-49430857D01*
X33172802Y-49430855D01*
X33027001Y-49399865D01*
X32987646Y-49391500D01*
X32798354Y-49391500D01*
X32765897Y-49398398D01*
X32613197Y-49430855D01*
X32613192Y-49430857D01*
X32440270Y-49507848D01*
X32440265Y-49507851D01*
X32287129Y-49619111D01*
X32160466Y-49759785D01*
X32065821Y-49923715D01*
X32065818Y-49923722D01*
X32019450Y-50066430D01*
X32007326Y-50103744D01*
X31987540Y-50292000D01*
X26809942Y-50292000D01*
X26845717Y-50215281D01*
X26845722Y-50215267D01*
X26901195Y-50008237D01*
X26901197Y-50008227D01*
X26919879Y-49794700D01*
X26919879Y-49794699D01*
X26901197Y-49581172D01*
X26901195Y-49581162D01*
X26845722Y-49374132D01*
X26845718Y-49374123D01*
X26755133Y-49179862D01*
X26715373Y-49123078D01*
X26110004Y-49728447D01*
X26099438Y-49661731D01*
X26038318Y-49541777D01*
X25943123Y-49446582D01*
X25823169Y-49385462D01*
X25756451Y-49374895D01*
X26361820Y-48769525D01*
X26305039Y-48729767D01*
X26110776Y-48639181D01*
X26110767Y-48639177D01*
X25903737Y-48583704D01*
X25903727Y-48583702D01*
X25690201Y-48565021D01*
X25690199Y-48565021D01*
X25476672Y-48583702D01*
X25476662Y-48583704D01*
X25269632Y-48639177D01*
X25269623Y-48639181D01*
X25075358Y-48729768D01*
X25018578Y-48769524D01*
X25623948Y-49374894D01*
X25557231Y-49385462D01*
X25437277Y-49446582D01*
X25342082Y-49541777D01*
X25280962Y-49661731D01*
X25270395Y-49728449D01*
X24665024Y-49123078D01*
X24625268Y-49179858D01*
X24534681Y-49374123D01*
X24534677Y-49374132D01*
X24479204Y-49581162D01*
X24479202Y-49581172D01*
X24460521Y-49794699D01*
X24460521Y-49794700D01*
X24479202Y-50008227D01*
X24479204Y-50008237D01*
X24534677Y-50215267D01*
X24534681Y-50215276D01*
X24625267Y-50409539D01*
X24665025Y-50466320D01*
X25270395Y-49860950D01*
X25280962Y-49927669D01*
X25342082Y-50047623D01*
X25437277Y-50142818D01*
X25557231Y-50203938D01*
X25623947Y-50214504D01*
X25018578Y-50819873D01*
X25075360Y-50859633D01*
X25269623Y-50950218D01*
X25269632Y-50950222D01*
X25476662Y-51005695D01*
X25476672Y-51005697D01*
X25690199Y-51024379D01*
X25690201Y-51024379D01*
X25903727Y-51005697D01*
X25903734Y-51005696D01*
X26024843Y-50973245D01*
X26094693Y-50974908D01*
X26152556Y-51014070D01*
X26180060Y-51078299D01*
X26168474Y-51147201D01*
X26128865Y-51194027D01*
X25966576Y-51309593D01*
X25966574Y-51309595D01*
X25821607Y-51461632D01*
X25708033Y-51638357D01*
X25629955Y-51833385D01*
X25590200Y-52039662D01*
X25590200Y-52244700D01*
X26390200Y-52244700D01*
X26390200Y-52744700D01*
X25590200Y-52744700D01*
X25590200Y-52897098D01*
X25605165Y-53053822D01*
X25605166Y-53053826D01*
X25664349Y-53255386D01*
X25760613Y-53442114D01*
X25890468Y-53607237D01*
X25890471Y-53607240D01*
X26049230Y-53744805D01*
X26049241Y-53744814D01*
X26231162Y-53849845D01*
X26233046Y-53850706D01*
X26233831Y-53851387D01*
X26236281Y-53852801D01*
X26236008Y-53853273D01*
X26285849Y-53896462D01*
X26305533Y-53963502D01*
X26285848Y-54030541D01*
X26233043Y-54076295D01*
X26181533Y-54087500D01*
X20186822Y-54087500D01*
X20119783Y-54067815D01*
X20074028Y-54015011D01*
X20064084Y-53945853D01*
X20093109Y-53882297D01*
X20135311Y-53850705D01*
X20242707Y-53801659D01*
X20413819Y-53679810D01*
X20413825Y-53679804D01*
X20558792Y-53527767D01*
X20672366Y-53351042D01*
X20750444Y-53156014D01*
X20790200Y-52949737D01*
X20790200Y-52744700D01*
X19990200Y-52744700D01*
X19990200Y-52244700D01*
X20790200Y-52244700D01*
X20790200Y-52092301D01*
X20775234Y-51935577D01*
X20775233Y-51935573D01*
X20716050Y-51734013D01*
X20619786Y-51547285D01*
X20489931Y-51382162D01*
X20489928Y-51382159D01*
X20331169Y-51244594D01*
X20331158Y-51244585D01*
X20248728Y-51196995D01*
X20200512Y-51146428D01*
X20187289Y-51077821D01*
X20213257Y-51012956D01*
X20270171Y-50972428D01*
X20339962Y-50969103D01*
X20342821Y-50969833D01*
X20476662Y-51005695D01*
X20476672Y-51005697D01*
X20690199Y-51024379D01*
X20690201Y-51024379D01*
X20903727Y-51005697D01*
X20903737Y-51005695D01*
X21110767Y-50950222D01*
X21110781Y-50950217D01*
X21305035Y-50859635D01*
X21361820Y-50819873D01*
X20756452Y-50214504D01*
X20823169Y-50203938D01*
X20943123Y-50142818D01*
X21038318Y-50047623D01*
X21099438Y-49927669D01*
X21110004Y-49860951D01*
X21715373Y-50466319D01*
X21755135Y-50409535D01*
X21845717Y-50215281D01*
X21845722Y-50215267D01*
X21901195Y-50008237D01*
X21901197Y-50008227D01*
X21919879Y-49794700D01*
X21919879Y-49794699D01*
X21901197Y-49581172D01*
X21901195Y-49581162D01*
X21845722Y-49374132D01*
X21845718Y-49374123D01*
X21755133Y-49179862D01*
X21715373Y-49123078D01*
X21110004Y-49728447D01*
X21099438Y-49661731D01*
X21038318Y-49541777D01*
X20943123Y-49446582D01*
X20823169Y-49385462D01*
X20756451Y-49374895D01*
X21361820Y-48769525D01*
X21305039Y-48729767D01*
X21110776Y-48639181D01*
X21110767Y-48639177D01*
X20903737Y-48583704D01*
X20903727Y-48583702D01*
X20690201Y-48565021D01*
X20690199Y-48565021D01*
X20476672Y-48583702D01*
X20476662Y-48583704D01*
X20269632Y-48639177D01*
X20269623Y-48639181D01*
X20075358Y-48729768D01*
X20018578Y-48769524D01*
X20623948Y-49374894D01*
X20557231Y-49385462D01*
X20437277Y-49446582D01*
X20342082Y-49541777D01*
X20280962Y-49661731D01*
X20270395Y-49728449D01*
X19665024Y-49123078D01*
X19625268Y-49179858D01*
X19534681Y-49374123D01*
X19534677Y-49374132D01*
X19479204Y-49581162D01*
X19479202Y-49581172D01*
X19460521Y-49794699D01*
X19460521Y-49794700D01*
X19479202Y-50008227D01*
X19479204Y-50008237D01*
X19534677Y-50215267D01*
X19534681Y-50215276D01*
X19625267Y-50409539D01*
X19665025Y-50466320D01*
X20270395Y-49860950D01*
X20280962Y-49927669D01*
X20342082Y-50047623D01*
X20437277Y-50142818D01*
X20557231Y-50203938D01*
X20623947Y-50214504D01*
X20018578Y-50819873D01*
X20066728Y-50853588D01*
X20110353Y-50908165D01*
X20117545Y-50977664D01*
X20086023Y-51040018D01*
X20025793Y-51075432D01*
X19955978Y-51072661D01*
X19955050Y-51072344D01*
X19950719Y-51070845D01*
X19950715Y-51070844D01*
X19940200Y-51069332D01*
X19940200Y-51978589D01*
X19915743Y-51939090D01*
X19826238Y-51871499D01*
X19718360Y-51840805D01*
X19606679Y-51851154D01*
X19506278Y-51901148D01*
X19440200Y-51973630D01*
X19440200Y-51073440D01*
X19440199Y-51073440D01*
X19328794Y-51100468D01*
X19328782Y-51100472D01*
X19137697Y-51187737D01*
X19137696Y-51187738D01*
X18966580Y-51309589D01*
X18966574Y-51309595D01*
X18821607Y-51461632D01*
X18708033Y-51638357D01*
X18629955Y-51833385D01*
X18590200Y-52039662D01*
X18590200Y-52244700D01*
X19390200Y-52244700D01*
X19390200Y-52744700D01*
X18590200Y-52744700D01*
X18590200Y-52897098D01*
X18605165Y-53053822D01*
X18605166Y-53053826D01*
X18664349Y-53255386D01*
X18760613Y-53442114D01*
X18890468Y-53607237D01*
X18890471Y-53607240D01*
X19049230Y-53744805D01*
X19049241Y-53744814D01*
X19231162Y-53849845D01*
X19233046Y-53850706D01*
X19233831Y-53851387D01*
X19236281Y-53852801D01*
X19236008Y-53853273D01*
X19285849Y-53896462D01*
X19305533Y-53963502D01*
X19285848Y-54030541D01*
X19233043Y-54076295D01*
X19181533Y-54087500D01*
X2118024Y-54087500D01*
X2113974Y-54087367D01*
X2083355Y-54085360D01*
X2032413Y-54082021D01*
X1850560Y-54069015D01*
X1842880Y-54067980D01*
X1726590Y-54044848D01*
X1582352Y-54013472D01*
X1575596Y-54011597D01*
X1457465Y-53971497D01*
X1455727Y-53970878D01*
X1324258Y-53921842D01*
X1318499Y-53919356D01*
X1204204Y-53862992D01*
X1201912Y-53861802D01*
X1186292Y-53853273D01*
X1162890Y-53840494D01*
X1081091Y-53795828D01*
X1076357Y-53792961D01*
X969349Y-53721461D01*
X966639Y-53719543D01*
X913553Y-53679804D01*
X857353Y-53637732D01*
X853648Y-53634729D01*
X756492Y-53549526D01*
X753549Y-53546769D01*
X657228Y-53450448D01*
X654469Y-53447502D01*
X569876Y-53351042D01*
X569265Y-53350345D01*
X566271Y-53346652D01*
X484454Y-53237358D01*
X482537Y-53234649D01*
X411037Y-53127641D01*
X408170Y-53122907D01*
X342173Y-53002042D01*
X341024Y-52999830D01*
X284635Y-52885483D01*
X282156Y-52879740D01*
X233103Y-52748224D01*
X232531Y-52746618D01*
X192395Y-52628383D01*
X190531Y-52621666D01*
X159150Y-52477408D01*
X136015Y-52361102D01*
X134985Y-52353459D01*
X121992Y-52171793D01*
X118394Y-52116898D01*
X116633Y-52090018D01*
X116500Y-52085963D01*
X116500Y-48768000D01*
X1501922Y-48768000D01*
X1522219Y-49155287D01*
X1582886Y-49538323D01*
X1582887Y-49538330D01*
X1683262Y-49912936D01*
X1822244Y-50274994D01*
X1998310Y-50620543D01*
X2209531Y-50945793D01*
X2418095Y-51203350D01*
X2418096Y-51203350D01*
X3315756Y-50305689D01*
X3274449Y-50367511D01*
X3255046Y-50465056D01*
X3274449Y-50562601D01*
X3329704Y-50645296D01*
X3412399Y-50700551D01*
X3485320Y-50715056D01*
X3534568Y-50715056D01*
X3607489Y-50700551D01*
X3669304Y-50659247D01*
X2771648Y-51556903D01*
X2771649Y-51556904D01*
X3029206Y-51765468D01*
X3354456Y-51976689D01*
X3700005Y-52152755D01*
X4062063Y-52291737D01*
X4436669Y-52392112D01*
X4436676Y-52392113D01*
X4819712Y-52452780D01*
X5206999Y-52473078D01*
X5207001Y-52473078D01*
X5594287Y-52452780D01*
X5977323Y-52392113D01*
X5977330Y-52392112D01*
X6351936Y-52291737D01*
X6713994Y-52152755D01*
X7059543Y-51976689D01*
X7384783Y-51765476D01*
X7384785Y-51765475D01*
X7642349Y-51556902D01*
X6744691Y-50659244D01*
X6806511Y-50700551D01*
X6879432Y-50715056D01*
X6928680Y-50715056D01*
X7001601Y-50700551D01*
X7084296Y-50645296D01*
X7139551Y-50562601D01*
X7158954Y-50465056D01*
X7139551Y-50367511D01*
X7098244Y-50305691D01*
X7995902Y-51203349D01*
X8204475Y-50945785D01*
X8204476Y-50945783D01*
X8415689Y-50620543D01*
X8591755Y-50274994D01*
X8730737Y-49912936D01*
X8831112Y-49538330D01*
X8831113Y-49538323D01*
X8891780Y-49155287D01*
X8912078Y-48768000D01*
X8912078Y-48767999D01*
X8891780Y-48380712D01*
X8831113Y-47997676D01*
X8831112Y-47997669D01*
X8730737Y-47623063D01*
X8591755Y-47261005D01*
X8576467Y-47231000D01*
X49597000Y-47231000D01*
X50513314Y-47231000D01*
X50487507Y-47271156D01*
X50447000Y-47409111D01*
X50447000Y-47552889D01*
X50487507Y-47690844D01*
X50513314Y-47731000D01*
X49597001Y-47731000D01*
X49597001Y-48280986D01*
X49607494Y-48383697D01*
X49662641Y-48550119D01*
X49662643Y-48550124D01*
X49754684Y-48699345D01*
X49878654Y-48823315D01*
X50027875Y-48915356D01*
X50027880Y-48915358D01*
X50194302Y-48970505D01*
X50194309Y-48970506D01*
X50297019Y-48980999D01*
X50696999Y-48980999D01*
X50697000Y-48980998D01*
X50697000Y-47916501D01*
X50804685Y-47965680D01*
X50911237Y-47981000D01*
X50982763Y-47981000D01*
X51089315Y-47965680D01*
X51197000Y-47916501D01*
X51197000Y-48980999D01*
X51596972Y-48980999D01*
X51596986Y-48980998D01*
X51699697Y-48970505D01*
X51866119Y-48915358D01*
X51866124Y-48915356D01*
X52015345Y-48823315D01*
X52139315Y-48699345D01*
X52234815Y-48544516D01*
X52286763Y-48497792D01*
X52355726Y-48486569D01*
X52419808Y-48514413D01*
X52428034Y-48521930D01*
X52575599Y-48669495D01*
X52575602Y-48669497D01*
X52575603Y-48669498D01*
X52769165Y-48805032D01*
X52769167Y-48805033D01*
X52769170Y-48805035D01*
X52983337Y-48904903D01*
X52983343Y-48904904D01*
X52983344Y-48904905D01*
X53022356Y-48915358D01*
X53211592Y-48966063D01*
X53399918Y-48982539D01*
X53446999Y-48986659D01*
X53447000Y-48986659D01*
X53447001Y-48986659D01*
X53486234Y-48983226D01*
X53682408Y-48966063D01*
X53910663Y-48904903D01*
X54124829Y-48805035D01*
X54177721Y-48768000D01*
X62207922Y-48768000D01*
X62228219Y-49155287D01*
X62288886Y-49538323D01*
X62288887Y-49538330D01*
X62389262Y-49912936D01*
X62528244Y-50274994D01*
X62704310Y-50620543D01*
X62915531Y-50945793D01*
X63124095Y-51203350D01*
X63124096Y-51203350D01*
X64021757Y-50305688D01*
X63980449Y-50367511D01*
X63961046Y-50465056D01*
X63980449Y-50562601D01*
X64035704Y-50645296D01*
X64118399Y-50700551D01*
X64191320Y-50715056D01*
X64240568Y-50715056D01*
X64313489Y-50700551D01*
X64375304Y-50659247D01*
X63477648Y-51556903D01*
X63477649Y-51556904D01*
X63735206Y-51765468D01*
X64060456Y-51976689D01*
X64406005Y-52152755D01*
X64768063Y-52291737D01*
X65142669Y-52392112D01*
X65142676Y-52392113D01*
X65525712Y-52452780D01*
X65912999Y-52473078D01*
X65913001Y-52473078D01*
X66300287Y-52452780D01*
X66683323Y-52392113D01*
X66683330Y-52392112D01*
X67057936Y-52291737D01*
X67419994Y-52152755D01*
X67765543Y-51976689D01*
X68090783Y-51765476D01*
X68090785Y-51765475D01*
X68348349Y-51556902D01*
X67450691Y-50659244D01*
X67512511Y-50700551D01*
X67585432Y-50715056D01*
X67634680Y-50715056D01*
X67707601Y-50700551D01*
X67790296Y-50645296D01*
X67845551Y-50562601D01*
X67864954Y-50465056D01*
X67845551Y-50367511D01*
X67804244Y-50305691D01*
X68701902Y-51203349D01*
X68910475Y-50945785D01*
X68910476Y-50945783D01*
X69121689Y-50620543D01*
X69297755Y-50274994D01*
X69436737Y-49912936D01*
X69537112Y-49538330D01*
X69537113Y-49538323D01*
X69597780Y-49155287D01*
X69618078Y-48768000D01*
X69618078Y-48767999D01*
X69597780Y-48380712D01*
X69537113Y-47997676D01*
X69537112Y-47997669D01*
X69436737Y-47623063D01*
X69297755Y-47261005D01*
X69121689Y-46915456D01*
X68910468Y-46590206D01*
X68701904Y-46332649D01*
X68701903Y-46332648D01*
X67804247Y-47230303D01*
X67845551Y-47168489D01*
X67864954Y-47070944D01*
X67845551Y-46973399D01*
X67790296Y-46890704D01*
X67707601Y-46835449D01*
X67634680Y-46820944D01*
X67585432Y-46820944D01*
X67512511Y-46835449D01*
X67450690Y-46876755D01*
X68348350Y-45979096D01*
X68348350Y-45979095D01*
X68090793Y-45770531D01*
X67765543Y-45559310D01*
X67419994Y-45383244D01*
X67057936Y-45244262D01*
X66683330Y-45143887D01*
X66683323Y-45143886D01*
X66300287Y-45083219D01*
X65913001Y-45062922D01*
X65912999Y-45062922D01*
X65525712Y-45083219D01*
X65142676Y-45143886D01*
X65142669Y-45143887D01*
X64768063Y-45244262D01*
X64406005Y-45383244D01*
X64060456Y-45559310D01*
X63735206Y-45770531D01*
X63477648Y-45979095D01*
X63477648Y-45979096D01*
X64375306Y-46876754D01*
X64313489Y-46835449D01*
X64240568Y-46820944D01*
X64191320Y-46820944D01*
X64118399Y-46835449D01*
X64035704Y-46890704D01*
X63980449Y-46973399D01*
X63961046Y-47070944D01*
X63980449Y-47168489D01*
X64021753Y-47230305D01*
X63124096Y-46332648D01*
X63124095Y-46332648D01*
X62915531Y-46590206D01*
X62704310Y-46915456D01*
X62528244Y-47261005D01*
X62389262Y-47623063D01*
X62288887Y-47997669D01*
X62288886Y-47997676D01*
X62228219Y-48380712D01*
X62207922Y-48767999D01*
X62207922Y-48768000D01*
X54177721Y-48768000D01*
X54318401Y-48669495D01*
X54485495Y-48502401D01*
X54621035Y-48308829D01*
X54720903Y-48094663D01*
X54782063Y-47866408D01*
X54797500Y-47689966D01*
X54797500Y-47272034D01*
X54782063Y-47095592D01*
X54720903Y-46867337D01*
X54621035Y-46653171D01*
X54596409Y-46618000D01*
X54485494Y-46459597D01*
X54318402Y-46292506D01*
X54318395Y-46292501D01*
X54124834Y-46156967D01*
X54124830Y-46156965D01*
X54085626Y-46138684D01*
X53910663Y-46057097D01*
X53910659Y-46057096D01*
X53910655Y-46057094D01*
X53682413Y-45995938D01*
X53682403Y-45995936D01*
X53447001Y-45975341D01*
X53446999Y-45975341D01*
X53211596Y-45995936D01*
X53211586Y-45995938D01*
X52983344Y-46057094D01*
X52983335Y-46057098D01*
X52769171Y-46156964D01*
X52769169Y-46156965D01*
X52575597Y-46292505D01*
X52428035Y-46440068D01*
X52366712Y-46473553D01*
X52297020Y-46468569D01*
X52241087Y-46426697D01*
X52234815Y-46417484D01*
X52139315Y-46262654D01*
X52015345Y-46138684D01*
X51866124Y-46046643D01*
X51866119Y-46046641D01*
X51699697Y-45991494D01*
X51699690Y-45991493D01*
X51596986Y-45981000D01*
X51197000Y-45981000D01*
X51197000Y-47045498D01*
X51089315Y-46996320D01*
X50982763Y-46981000D01*
X50911237Y-46981000D01*
X50804685Y-46996320D01*
X50697000Y-47045498D01*
X50697000Y-45981000D01*
X50297028Y-45981000D01*
X50297012Y-45981001D01*
X50194302Y-45991494D01*
X50027880Y-46046641D01*
X50027875Y-46046643D01*
X49878654Y-46138684D01*
X49754684Y-46262654D01*
X49662643Y-46411875D01*
X49662641Y-46411880D01*
X49607494Y-46578302D01*
X49607493Y-46578309D01*
X49597000Y-46681013D01*
X49597000Y-47231000D01*
X8576467Y-47231000D01*
X8415689Y-46915456D01*
X8204468Y-46590206D01*
X7995904Y-46332649D01*
X7995903Y-46332648D01*
X7098247Y-47230303D01*
X7139551Y-47168489D01*
X7158954Y-47070944D01*
X7139551Y-46973399D01*
X7084296Y-46890704D01*
X7001601Y-46835449D01*
X6928680Y-46820944D01*
X6879432Y-46820944D01*
X6806511Y-46835449D01*
X6744688Y-46876757D01*
X7642350Y-45979096D01*
X7642350Y-45979095D01*
X7636058Y-45974000D01*
X14461540Y-45974000D01*
X14481326Y-46162256D01*
X14481327Y-46162259D01*
X14539818Y-46342277D01*
X14539821Y-46342284D01*
X14634467Y-46506216D01*
X14672306Y-46548240D01*
X14761129Y-46646888D01*
X14914265Y-46758148D01*
X14914270Y-46758151D01*
X15087192Y-46835142D01*
X15087197Y-46835144D01*
X15272354Y-46874500D01*
X15272355Y-46874500D01*
X15461644Y-46874500D01*
X15461646Y-46874500D01*
X15646803Y-46835144D01*
X15819730Y-46758151D01*
X15972871Y-46646888D01*
X16036850Y-46575831D01*
X16096337Y-46539183D01*
X16166194Y-46540514D01*
X16221150Y-46575832D01*
X16285129Y-46646888D01*
X16438265Y-46758148D01*
X16438270Y-46758151D01*
X16611192Y-46835142D01*
X16611197Y-46835144D01*
X16796354Y-46874500D01*
X16796355Y-46874500D01*
X16985644Y-46874500D01*
X16985646Y-46874500D01*
X17170803Y-46835144D01*
X17343730Y-46758151D01*
X17496871Y-46646888D01*
X17560850Y-46575831D01*
X17620337Y-46539183D01*
X17690194Y-46540514D01*
X17745150Y-46575832D01*
X17809129Y-46646888D01*
X17962265Y-46758148D01*
X17962270Y-46758151D01*
X18135192Y-46835142D01*
X18135197Y-46835144D01*
X18320354Y-46874500D01*
X18320355Y-46874500D01*
X18509644Y-46874500D01*
X18509646Y-46874500D01*
X18694803Y-46835144D01*
X18867730Y-46758151D01*
X19020871Y-46646888D01*
X19147533Y-46506216D01*
X19242179Y-46342284D01*
X19300674Y-46162256D01*
X19320460Y-45974000D01*
X19300674Y-45785744D01*
X19242179Y-45605716D01*
X19147533Y-45441784D01*
X19020871Y-45301112D01*
X19020870Y-45301111D01*
X18867734Y-45189851D01*
X18867729Y-45189848D01*
X18694807Y-45112857D01*
X18694802Y-45112855D01*
X18561964Y-45084620D01*
X18500482Y-45051428D01*
X18466706Y-44990265D01*
X18471358Y-44920550D01*
X18495594Y-44880359D01*
X18515533Y-44858216D01*
X18610179Y-44694284D01*
X18668674Y-44514256D01*
X18688460Y-44326000D01*
X18668674Y-44137744D01*
X18610179Y-43957716D01*
X18515533Y-43793784D01*
X18388871Y-43653112D01*
X18388870Y-43653111D01*
X18235734Y-43541851D01*
X18235729Y-43541848D01*
X18062807Y-43464857D01*
X18062802Y-43464855D01*
X17917001Y-43433865D01*
X17877646Y-43425500D01*
X17688354Y-43425500D01*
X17655897Y-43432398D01*
X17503197Y-43464855D01*
X17503192Y-43464857D01*
X17330270Y-43541848D01*
X17330265Y-43541851D01*
X17177129Y-43653111D01*
X17050466Y-43793785D01*
X16955821Y-43957715D01*
X16955818Y-43957722D01*
X16897327Y-44137740D01*
X16897326Y-44137744D01*
X16877540Y-44326000D01*
X16897326Y-44514256D01*
X16897327Y-44514259D01*
X16955818Y-44694277D01*
X16955821Y-44694284D01*
X17050467Y-44858216D01*
X17057270Y-44865771D01*
X17057952Y-44866529D01*
X17088181Y-44929520D01*
X17079555Y-44998856D01*
X17034813Y-45052521D01*
X16968161Y-45073478D01*
X16965801Y-45073500D01*
X16796354Y-45073500D01*
X16763897Y-45080398D01*
X16611197Y-45112855D01*
X16611192Y-45112857D01*
X16438270Y-45189848D01*
X16438265Y-45189851D01*
X16285129Y-45301111D01*
X16285128Y-45301112D01*
X16221149Y-45372168D01*
X16161663Y-45408816D01*
X16091806Y-45407485D01*
X16036851Y-45372168D01*
X15972871Y-45301112D01*
X15972870Y-45301111D01*
X15819734Y-45189851D01*
X15819729Y-45189848D01*
X15646807Y-45112857D01*
X15646802Y-45112855D01*
X15501001Y-45081865D01*
X15461646Y-45073500D01*
X15272354Y-45073500D01*
X15239897Y-45080398D01*
X15087197Y-45112855D01*
X15087192Y-45112857D01*
X14914270Y-45189848D01*
X14914265Y-45189851D01*
X14761129Y-45301111D01*
X14634466Y-45441785D01*
X14539821Y-45605715D01*
X14539818Y-45605722D01*
X14486269Y-45770531D01*
X14481326Y-45785744D01*
X14461540Y-45974000D01*
X7636058Y-45974000D01*
X7384793Y-45770531D01*
X7059543Y-45559310D01*
X6713994Y-45383244D01*
X6351936Y-45244262D01*
X5977330Y-45143887D01*
X5977323Y-45143886D01*
X5594287Y-45083219D01*
X5207001Y-45062922D01*
X5206999Y-45062922D01*
X4819712Y-45083219D01*
X4436676Y-45143886D01*
X4436669Y-45143887D01*
X4062063Y-45244262D01*
X3700005Y-45383244D01*
X3354456Y-45559310D01*
X3029206Y-45770531D01*
X2771648Y-45979095D01*
X2771648Y-45979096D01*
X3669304Y-46876752D01*
X3607489Y-46835449D01*
X3534568Y-46820944D01*
X3485320Y-46820944D01*
X3412399Y-46835449D01*
X3329704Y-46890704D01*
X3274449Y-46973399D01*
X3255046Y-47070944D01*
X3274449Y-47168489D01*
X3315753Y-47230305D01*
X2418096Y-46332648D01*
X2418095Y-46332648D01*
X2209531Y-46590206D01*
X1998310Y-46915456D01*
X1822244Y-47261005D01*
X1683262Y-47623063D01*
X1582887Y-47997669D01*
X1582886Y-47997676D01*
X1522219Y-48380712D01*
X1501922Y-48767999D01*
X1501922Y-48768000D01*
X116500Y-48768000D01*
X116500Y-42557100D01*
X24113540Y-42557100D01*
X24133326Y-42745356D01*
X24133327Y-42745359D01*
X24191818Y-42925377D01*
X24191821Y-42925384D01*
X24286467Y-43089316D01*
X24413128Y-43229988D01*
X24413129Y-43229988D01*
X24566265Y-43341248D01*
X24566270Y-43341251D01*
X24739192Y-43418242D01*
X24739197Y-43418244D01*
X24924354Y-43457600D01*
X24924355Y-43457600D01*
X25113644Y-43457600D01*
X25113646Y-43457600D01*
X25298803Y-43418244D01*
X25471730Y-43341251D01*
X25624871Y-43229988D01*
X25751533Y-43089316D01*
X25846179Y-42925384D01*
X25904674Y-42745356D01*
X25907045Y-42722800D01*
X27466340Y-42722800D01*
X27486126Y-42911056D01*
X27486127Y-42911059D01*
X27544618Y-43091077D01*
X27544621Y-43091084D01*
X27639267Y-43255016D01*
X27716911Y-43341248D01*
X27765929Y-43395688D01*
X27919065Y-43506948D01*
X27919070Y-43506951D01*
X28091992Y-43583942D01*
X28091997Y-43583944D01*
X28277154Y-43623300D01*
X28277155Y-43623300D01*
X28466444Y-43623300D01*
X28466446Y-43623300D01*
X28651603Y-43583944D01*
X28824530Y-43506951D01*
X28977671Y-43395688D01*
X29104333Y-43255016D01*
X29198979Y-43091084D01*
X29257474Y-42911056D01*
X29277260Y-42722800D01*
X29257474Y-42534544D01*
X29198979Y-42354516D01*
X29104333Y-42190584D01*
X28977671Y-42049912D01*
X28975728Y-42048500D01*
X28824534Y-41938651D01*
X28824529Y-41938648D01*
X28651607Y-41861657D01*
X28651602Y-41861655D01*
X28505801Y-41830665D01*
X28466446Y-41822300D01*
X28277154Y-41822300D01*
X28244697Y-41829198D01*
X28091997Y-41861655D01*
X28091992Y-41861657D01*
X27919070Y-41938648D01*
X27919065Y-41938651D01*
X27765929Y-42049911D01*
X27639266Y-42190585D01*
X27544621Y-42354515D01*
X27544618Y-42354522D01*
X27486127Y-42534540D01*
X27486126Y-42534544D01*
X27466340Y-42722800D01*
X25907045Y-42722800D01*
X25924460Y-42557100D01*
X25904674Y-42368844D01*
X25846754Y-42190585D01*
X25846181Y-42188822D01*
X25846180Y-42188821D01*
X25846179Y-42188816D01*
X25751533Y-42024884D01*
X25624871Y-41884212D01*
X25593827Y-41861657D01*
X25471734Y-41772951D01*
X25471729Y-41772948D01*
X25298807Y-41695957D01*
X25298802Y-41695955D01*
X25153000Y-41664965D01*
X25113646Y-41656600D01*
X24924354Y-41656600D01*
X24891897Y-41663498D01*
X24739197Y-41695955D01*
X24739192Y-41695957D01*
X24566270Y-41772948D01*
X24566265Y-41772951D01*
X24413129Y-41884211D01*
X24286466Y-42024885D01*
X24191821Y-42188815D01*
X24191818Y-42188822D01*
X24133327Y-42368840D01*
X24133326Y-42368844D01*
X24113540Y-42557100D01*
X116500Y-42557100D01*
X116500Y-41140871D01*
X18579592Y-41140871D01*
X18594887Y-41227618D01*
X18609874Y-41312612D01*
X18678947Y-41472739D01*
X18783085Y-41612622D01*
X18783086Y-41612623D01*
X18783088Y-41612625D01*
X18854518Y-41672561D01*
X18916675Y-41724717D01*
X19072516Y-41802983D01*
X19242205Y-41843200D01*
X19242207Y-41843200D01*
X19372848Y-41843200D01*
X19372855Y-41843200D01*
X19502611Y-41828034D01*
X19666484Y-41768389D01*
X19812184Y-41672560D01*
X19931858Y-41545713D01*
X20019053Y-41394687D01*
X20069068Y-41227623D01*
X20073706Y-41148000D01*
X43036540Y-41148000D01*
X43056326Y-41336256D01*
X43056327Y-41336259D01*
X43114818Y-41516277D01*
X43114821Y-41516284D01*
X43209467Y-41680216D01*
X43320007Y-41802983D01*
X43336129Y-41820888D01*
X43489265Y-41932148D01*
X43489270Y-41932151D01*
X43662192Y-42009142D01*
X43662197Y-42009144D01*
X43847354Y-42048500D01*
X43847355Y-42048500D01*
X44036644Y-42048500D01*
X44036646Y-42048500D01*
X44221803Y-42009144D01*
X44394730Y-41932151D01*
X44547871Y-41820888D01*
X44674533Y-41680216D01*
X44769179Y-41516284D01*
X44827674Y-41336256D01*
X44847460Y-41148000D01*
X44827674Y-40959744D01*
X44769179Y-40779716D01*
X44674533Y-40615784D01*
X44547871Y-40475112D01*
X44540399Y-40469683D01*
X44394734Y-40363851D01*
X44394729Y-40363848D01*
X44221807Y-40286857D01*
X44221802Y-40286855D01*
X44076000Y-40255865D01*
X44036646Y-40247500D01*
X43847354Y-40247500D01*
X43814897Y-40254398D01*
X43662197Y-40286855D01*
X43662192Y-40286857D01*
X43489270Y-40363848D01*
X43489265Y-40363851D01*
X43336129Y-40475111D01*
X43209466Y-40615785D01*
X43114821Y-40779715D01*
X43114818Y-40779722D01*
X43056327Y-40959740D01*
X43056326Y-40959744D01*
X43036540Y-41148000D01*
X20073706Y-41148000D01*
X20079208Y-41053529D01*
X20048926Y-40881788D01*
X19979853Y-40721661D01*
X19875715Y-40581778D01*
X19875712Y-40581776D01*
X19875711Y-40581774D01*
X19742125Y-40469683D01*
X19742123Y-40469682D01*
X19586287Y-40391418D01*
X19586285Y-40391417D01*
X19586284Y-40391417D01*
X19416595Y-40351200D01*
X19285945Y-40351200D01*
X19185023Y-40362995D01*
X19156187Y-40366366D01*
X19156185Y-40366367D01*
X18992317Y-40426010D01*
X18992313Y-40426012D01*
X18846618Y-40521837D01*
X18846617Y-40521838D01*
X18726943Y-40648685D01*
X18726939Y-40648690D01*
X18639747Y-40799711D01*
X18589733Y-40966773D01*
X18589731Y-40966781D01*
X18579592Y-41140870D01*
X18579592Y-41140871D01*
X116500Y-41140871D01*
X116500Y-39827200D01*
X16341140Y-39827200D01*
X16360926Y-40015456D01*
X16360927Y-40015459D01*
X16419418Y-40195477D01*
X16419421Y-40195484D01*
X16514067Y-40359416D01*
X16640728Y-40500088D01*
X16640729Y-40500088D01*
X16793865Y-40611348D01*
X16793870Y-40611351D01*
X16966792Y-40688342D01*
X16966797Y-40688344D01*
X17151954Y-40727700D01*
X17151955Y-40727700D01*
X17341244Y-40727700D01*
X17341246Y-40727700D01*
X17526403Y-40688344D01*
X17699330Y-40611351D01*
X17852471Y-40500088D01*
X17979133Y-40359416D01*
X18073779Y-40195484D01*
X18132274Y-40015456D01*
X18152060Y-39827200D01*
X18141382Y-39725600D01*
X25089140Y-39725600D01*
X25108926Y-39913856D01*
X25108927Y-39913859D01*
X25167418Y-40093877D01*
X25167421Y-40093884D01*
X25262067Y-40257816D01*
X25357539Y-40363848D01*
X25388729Y-40398488D01*
X25541865Y-40509748D01*
X25541870Y-40509751D01*
X25714792Y-40586742D01*
X25714797Y-40586744D01*
X25899954Y-40626100D01*
X25899955Y-40626100D01*
X26089244Y-40626100D01*
X26089246Y-40626100D01*
X26274403Y-40586744D01*
X26447330Y-40509751D01*
X26600471Y-40398488D01*
X26600470Y-40398488D01*
X26605729Y-40394668D01*
X26607331Y-40396873D01*
X26659466Y-40371847D01*
X26728802Y-40380465D01*
X26752344Y-40393907D01*
X26841865Y-40458948D01*
X26841870Y-40458951D01*
X27014792Y-40535942D01*
X27014797Y-40535944D01*
X27199954Y-40575300D01*
X27199955Y-40575300D01*
X27389244Y-40575300D01*
X27389246Y-40575300D01*
X27574403Y-40535944D01*
X27747330Y-40458951D01*
X27900471Y-40347688D01*
X28027133Y-40207016D01*
X28121779Y-40043084D01*
X28180274Y-39863056D01*
X28200060Y-39674800D01*
X28180274Y-39486544D01*
X28121779Y-39306516D01*
X28027133Y-39142584D01*
X27900471Y-39001912D01*
X27900470Y-39001911D01*
X27747334Y-38890651D01*
X27747329Y-38890648D01*
X27574407Y-38813657D01*
X27574402Y-38813655D01*
X27428601Y-38782665D01*
X27389246Y-38774300D01*
X27199954Y-38774300D01*
X27167497Y-38781198D01*
X27014797Y-38813655D01*
X27014792Y-38813657D01*
X26841870Y-38890648D01*
X26841865Y-38890651D01*
X26683471Y-39005731D01*
X26681876Y-39003536D01*
X26629661Y-39028563D01*
X26560330Y-39019905D01*
X26536855Y-39006492D01*
X26447334Y-38941451D01*
X26447329Y-38941448D01*
X26274407Y-38864457D01*
X26274402Y-38864455D01*
X26106206Y-38828705D01*
X26089246Y-38825100D01*
X25899954Y-38825100D01*
X25882994Y-38828705D01*
X25714797Y-38864455D01*
X25714792Y-38864457D01*
X25541870Y-38941448D01*
X25541865Y-38941451D01*
X25388729Y-39052711D01*
X25262066Y-39193385D01*
X25167421Y-39357315D01*
X25167418Y-39357322D01*
X25125433Y-39486540D01*
X25108926Y-39537344D01*
X25089140Y-39725600D01*
X18141382Y-39725600D01*
X18132274Y-39638944D01*
X18073779Y-39458916D01*
X18014623Y-39356455D01*
X17998151Y-39288557D01*
X18021004Y-39222530D01*
X18029855Y-39211492D01*
X18094033Y-39140216D01*
X18188679Y-38976284D01*
X18247174Y-38796256D01*
X18266960Y-38608000D01*
X18261621Y-38557200D01*
X20303540Y-38557200D01*
X20323326Y-38745456D01*
X20323327Y-38745459D01*
X20381818Y-38925477D01*
X20381821Y-38925484D01*
X20476467Y-39089416D01*
X20586378Y-39211484D01*
X20603129Y-39230088D01*
X20756265Y-39341348D01*
X20756270Y-39341351D01*
X20929192Y-39418342D01*
X20929197Y-39418344D01*
X21114354Y-39457700D01*
X21114355Y-39457700D01*
X21303644Y-39457700D01*
X21303646Y-39457700D01*
X21488803Y-39418344D01*
X21661730Y-39341351D01*
X21814871Y-39230088D01*
X21941533Y-39089416D01*
X22036179Y-38925484D01*
X22094674Y-38745456D01*
X22114460Y-38557200D01*
X22094674Y-38368944D01*
X22036179Y-38188916D01*
X21952833Y-38044557D01*
X34520662Y-38044557D01*
X34540448Y-38232813D01*
X34540449Y-38232816D01*
X34598940Y-38412834D01*
X34598943Y-38412841D01*
X34693589Y-38576773D01*
X34820250Y-38717445D01*
X34820251Y-38717445D01*
X34973387Y-38828705D01*
X34973392Y-38828708D01*
X35146314Y-38905699D01*
X35146319Y-38905701D01*
X35331476Y-38945057D01*
X35331477Y-38945057D01*
X35520766Y-38945057D01*
X35520768Y-38945057D01*
X35705925Y-38905701D01*
X35878852Y-38828708D01*
X36031993Y-38717445D01*
X36158655Y-38576773D01*
X36253301Y-38412841D01*
X36311796Y-38232813D01*
X36331582Y-38044557D01*
X36311796Y-37856301D01*
X36253301Y-37676273D01*
X36158655Y-37512341D01*
X36031993Y-37371669D01*
X36031992Y-37371668D01*
X35878856Y-37260408D01*
X35878851Y-37260405D01*
X35705929Y-37183414D01*
X35705924Y-37183412D01*
X35560122Y-37152422D01*
X35520768Y-37144057D01*
X35331476Y-37144057D01*
X35299019Y-37150955D01*
X35146319Y-37183412D01*
X35146314Y-37183414D01*
X34973392Y-37260405D01*
X34973387Y-37260408D01*
X34820251Y-37371668D01*
X34693588Y-37512342D01*
X34598943Y-37676272D01*
X34598940Y-37676279D01*
X34549310Y-37829026D01*
X34540448Y-37856301D01*
X34520662Y-38044557D01*
X21952833Y-38044557D01*
X21941533Y-38024984D01*
X21814871Y-37884312D01*
X21814870Y-37884311D01*
X21661734Y-37773051D01*
X21661729Y-37773048D01*
X21488807Y-37696057D01*
X21488802Y-37696055D01*
X21343001Y-37665065D01*
X21303646Y-37656700D01*
X21114354Y-37656700D01*
X21081897Y-37663598D01*
X20929197Y-37696055D01*
X20929192Y-37696057D01*
X20756270Y-37773048D01*
X20756265Y-37773051D01*
X20603129Y-37884311D01*
X20476466Y-38024985D01*
X20381821Y-38188915D01*
X20381818Y-38188922D01*
X20323327Y-38368940D01*
X20323326Y-38368944D01*
X20303540Y-38557200D01*
X18261621Y-38557200D01*
X18247174Y-38419744D01*
X18188679Y-38239716D01*
X18094033Y-38075784D01*
X18021273Y-37994976D01*
X17991043Y-37931985D01*
X17999668Y-37862649D01*
X18021273Y-37829033D01*
X18029933Y-37819416D01*
X18124579Y-37655484D01*
X18183074Y-37475456D01*
X18202860Y-37287200D01*
X18183074Y-37098944D01*
X18126723Y-36925517D01*
X18124729Y-36855677D01*
X18160809Y-36795844D01*
X18223510Y-36765016D01*
X18244655Y-36763200D01*
X18357848Y-36763200D01*
X18357855Y-36763200D01*
X18487611Y-36748034D01*
X18651484Y-36688389D01*
X18797184Y-36592560D01*
X18916858Y-36465713D01*
X19004053Y-36314687D01*
X19054068Y-36147623D01*
X19059121Y-36060871D01*
X19594592Y-36060871D01*
X19609887Y-36147618D01*
X19624874Y-36232612D01*
X19693947Y-36392739D01*
X19798085Y-36532622D01*
X19798086Y-36532623D01*
X19798088Y-36532625D01*
X19869518Y-36592561D01*
X19931675Y-36644717D01*
X20087516Y-36722983D01*
X20257205Y-36763200D01*
X20257207Y-36763200D01*
X20387848Y-36763200D01*
X20387855Y-36763200D01*
X20517611Y-36748034D01*
X20681484Y-36688389D01*
X20827184Y-36592560D01*
X20946858Y-36465713D01*
X21029831Y-36322000D01*
X24113540Y-36322000D01*
X24133326Y-36510256D01*
X24133327Y-36510259D01*
X24191818Y-36690277D01*
X24191821Y-36690284D01*
X24286467Y-36854216D01*
X24344729Y-36918922D01*
X24413129Y-36994888D01*
X24566265Y-37106148D01*
X24566270Y-37106151D01*
X24739192Y-37183142D01*
X24739197Y-37183144D01*
X24924354Y-37222500D01*
X24924355Y-37222500D01*
X25113644Y-37222500D01*
X25113646Y-37222500D01*
X25298803Y-37183144D01*
X25471730Y-37106151D01*
X25624871Y-36994888D01*
X25751533Y-36854216D01*
X25846179Y-36690284D01*
X25904674Y-36510256D01*
X25924460Y-36322002D01*
X54534723Y-36322002D01*
X54540912Y-36392739D01*
X54550562Y-36503051D01*
X54553793Y-36539975D01*
X54553793Y-36539979D01*
X54610422Y-36751322D01*
X54610424Y-36751326D01*
X54610425Y-36751330D01*
X54656661Y-36850484D01*
X54702897Y-36949638D01*
X54702898Y-36949639D01*
X54828402Y-37128877D01*
X54983123Y-37283598D01*
X55162361Y-37409102D01*
X55360670Y-37501575D01*
X55572023Y-37558207D01*
X55754926Y-37574208D01*
X55789998Y-37577277D01*
X55790000Y-37577277D01*
X55790002Y-37577277D01*
X55818254Y-37574805D01*
X56007977Y-37558207D01*
X56219330Y-37501575D01*
X56417639Y-37409102D01*
X56596877Y-37283598D01*
X56751598Y-37128877D01*
X56877102Y-36949639D01*
X56969575Y-36751330D01*
X57026207Y-36539977D01*
X57045277Y-36322002D01*
X62034723Y-36322002D01*
X62040912Y-36392739D01*
X62050562Y-36503051D01*
X62053793Y-36539975D01*
X62053793Y-36539979D01*
X62110422Y-36751322D01*
X62110424Y-36751326D01*
X62110425Y-36751330D01*
X62156661Y-36850484D01*
X62202897Y-36949638D01*
X62202898Y-36949639D01*
X62328402Y-37128877D01*
X62483123Y-37283598D01*
X62662361Y-37409102D01*
X62860670Y-37501575D01*
X63072023Y-37558207D01*
X63254926Y-37574208D01*
X63289998Y-37577277D01*
X63290000Y-37577277D01*
X63290002Y-37577277D01*
X63318254Y-37574805D01*
X63507977Y-37558207D01*
X63719330Y-37501575D01*
X63917639Y-37409102D01*
X64096877Y-37283598D01*
X64251598Y-37128877D01*
X64377102Y-36949639D01*
X64469575Y-36751330D01*
X64526207Y-36539977D01*
X64545277Y-36322000D01*
X64544637Y-36314688D01*
X64541569Y-36279618D01*
X64526207Y-36104023D01*
X64475061Y-35913144D01*
X64469577Y-35892677D01*
X64469576Y-35892676D01*
X64469575Y-35892670D01*
X64377102Y-35694362D01*
X64377100Y-35694359D01*
X64377099Y-35694357D01*
X64251599Y-35515124D01*
X64178312Y-35441837D01*
X64096877Y-35360402D01*
X63958978Y-35263844D01*
X63917638Y-35234897D01*
X63818484Y-35188661D01*
X63719330Y-35142425D01*
X63719326Y-35142424D01*
X63719322Y-35142422D01*
X63507977Y-35085793D01*
X63290002Y-35066723D01*
X63289998Y-35066723D01*
X63144681Y-35079436D01*
X63072023Y-35085793D01*
X63072020Y-35085793D01*
X62860677Y-35142422D01*
X62860668Y-35142426D01*
X62662361Y-35234898D01*
X62662357Y-35234900D01*
X62483121Y-35360402D01*
X62328402Y-35515121D01*
X62202900Y-35694357D01*
X62202898Y-35694361D01*
X62110426Y-35892668D01*
X62110422Y-35892677D01*
X62053793Y-36104020D01*
X62053793Y-36104024D01*
X62034723Y-36321997D01*
X62034723Y-36322002D01*
X57045277Y-36322002D01*
X57045277Y-36322000D01*
X57044637Y-36314688D01*
X57041569Y-36279618D01*
X57026207Y-36104023D01*
X56975061Y-35913144D01*
X56969577Y-35892677D01*
X56969576Y-35892676D01*
X56969575Y-35892670D01*
X56877102Y-35694362D01*
X56877100Y-35694359D01*
X56877099Y-35694357D01*
X56751599Y-35515124D01*
X56678312Y-35441837D01*
X56596877Y-35360402D01*
X56458978Y-35263844D01*
X56417638Y-35234897D01*
X56318484Y-35188661D01*
X56219330Y-35142425D01*
X56219326Y-35142424D01*
X56219322Y-35142422D01*
X56007977Y-35085793D01*
X55790002Y-35066723D01*
X55789998Y-35066723D01*
X55644682Y-35079436D01*
X55572023Y-35085793D01*
X55572020Y-35085793D01*
X55360677Y-35142422D01*
X55360668Y-35142426D01*
X55162361Y-35234898D01*
X55162357Y-35234900D01*
X54983121Y-35360402D01*
X54828402Y-35515121D01*
X54702900Y-35694357D01*
X54702898Y-35694361D01*
X54610426Y-35892668D01*
X54610422Y-35892677D01*
X54553793Y-36104020D01*
X54553793Y-36104024D01*
X54534723Y-36321997D01*
X54534723Y-36322002D01*
X25924460Y-36322002D01*
X25924460Y-36322000D01*
X25904674Y-36133744D01*
X25846179Y-35953716D01*
X25751533Y-35789784D01*
X25624871Y-35649112D01*
X25614616Y-35641661D01*
X25471734Y-35537851D01*
X25471729Y-35537848D01*
X25298807Y-35460857D01*
X25298802Y-35460855D01*
X25153001Y-35429865D01*
X25113646Y-35421500D01*
X24924354Y-35421500D01*
X24891897Y-35428398D01*
X24739197Y-35460855D01*
X24739192Y-35460857D01*
X24566270Y-35537848D01*
X24566265Y-35537851D01*
X24413129Y-35649111D01*
X24286466Y-35789785D01*
X24191821Y-35953715D01*
X24191818Y-35953722D01*
X24133327Y-36133740D01*
X24133326Y-36133744D01*
X24113540Y-36322000D01*
X21029831Y-36322000D01*
X21034053Y-36314687D01*
X21084068Y-36147623D01*
X21094208Y-35973529D01*
X21063926Y-35801788D01*
X20994853Y-35641661D01*
X20890715Y-35501778D01*
X20890712Y-35501776D01*
X20890711Y-35501774D01*
X20757125Y-35389683D01*
X20757123Y-35389682D01*
X20601287Y-35311418D01*
X20601285Y-35311417D01*
X20601284Y-35311417D01*
X20431595Y-35271200D01*
X20300945Y-35271200D01*
X20200023Y-35282995D01*
X20171187Y-35286366D01*
X20171185Y-35286367D01*
X20007317Y-35346010D01*
X20007313Y-35346012D01*
X19861618Y-35441837D01*
X19861617Y-35441838D01*
X19741943Y-35568685D01*
X19741939Y-35568690D01*
X19654747Y-35719711D01*
X19604733Y-35886773D01*
X19604731Y-35886781D01*
X19594592Y-36060870D01*
X19594592Y-36060871D01*
X19059121Y-36060871D01*
X19064208Y-35973529D01*
X19033926Y-35801788D01*
X18964853Y-35641661D01*
X18860715Y-35501778D01*
X18860712Y-35501776D01*
X18860711Y-35501774D01*
X18727125Y-35389683D01*
X18727123Y-35389682D01*
X18571287Y-35311418D01*
X18571285Y-35311417D01*
X18571284Y-35311417D01*
X18401595Y-35271200D01*
X18270945Y-35271200D01*
X18170023Y-35282995D01*
X18141187Y-35286366D01*
X18141185Y-35286367D01*
X17977317Y-35346010D01*
X17977313Y-35346012D01*
X17831618Y-35441837D01*
X17831617Y-35441838D01*
X17711943Y-35568685D01*
X17711939Y-35568690D01*
X17624747Y-35719711D01*
X17574733Y-35886773D01*
X17574731Y-35886781D01*
X17564592Y-36060870D01*
X17564592Y-36060871D01*
X17594873Y-36232612D01*
X17596945Y-36239530D01*
X17594815Y-36240167D01*
X17601983Y-36298786D01*
X17571621Y-36361714D01*
X17512058Y-36398238D01*
X17453866Y-36399840D01*
X17443084Y-36397548D01*
X17392046Y-36386700D01*
X17202754Y-36386700D01*
X17170297Y-36393598D01*
X17017597Y-36426055D01*
X17017592Y-36426057D01*
X16844670Y-36503048D01*
X16844665Y-36503051D01*
X16691529Y-36614311D01*
X16564866Y-36754985D01*
X16470221Y-36918915D01*
X16470218Y-36918922D01*
X16411727Y-37098940D01*
X16411726Y-37098944D01*
X16402848Y-37183413D01*
X16392319Y-37283598D01*
X16391940Y-37287200D01*
X16411726Y-37475456D01*
X16411727Y-37475459D01*
X16470218Y-37655477D01*
X16470221Y-37655484D01*
X16482223Y-37676273D01*
X16564867Y-37819416D01*
X16637625Y-37900222D01*
X16667856Y-37963213D01*
X16659231Y-38032548D01*
X16637630Y-38066162D01*
X16628966Y-38075785D01*
X16534321Y-38239715D01*
X16534318Y-38239722D01*
X16492333Y-38368940D01*
X16475826Y-38419744D01*
X16456040Y-38608000D01*
X16475826Y-38796256D01*
X16475827Y-38796259D01*
X16534318Y-38976277D01*
X16534321Y-38976284D01*
X16593475Y-39078742D01*
X16609948Y-39146643D01*
X16587095Y-39212669D01*
X16578238Y-39223714D01*
X16514066Y-39294984D01*
X16419421Y-39458915D01*
X16419418Y-39458922D01*
X16360927Y-39638940D01*
X16360926Y-39638944D01*
X16341140Y-39827200D01*
X116500Y-39827200D01*
X116500Y-35052000D01*
X25891540Y-35052000D01*
X25911326Y-35240256D01*
X25911327Y-35240259D01*
X25969818Y-35420277D01*
X25969821Y-35420284D01*
X26064467Y-35584216D01*
X26116191Y-35641661D01*
X26191129Y-35724888D01*
X26344265Y-35836148D01*
X26344270Y-35836151D01*
X26517192Y-35913142D01*
X26517197Y-35913144D01*
X26702354Y-35952500D01*
X26702355Y-35952500D01*
X26891644Y-35952500D01*
X26891646Y-35952500D01*
X27076803Y-35913144D01*
X27249730Y-35836151D01*
X27402871Y-35724888D01*
X27529533Y-35584216D01*
X27624179Y-35420284D01*
X27682674Y-35240256D01*
X27702460Y-35052000D01*
X27682674Y-34863744D01*
X27624179Y-34683716D01*
X27529533Y-34519784D01*
X27402871Y-34379112D01*
X27402870Y-34379111D01*
X27249734Y-34267851D01*
X27249729Y-34267848D01*
X27076807Y-34190857D01*
X27076802Y-34190855D01*
X26931000Y-34159865D01*
X26891646Y-34151500D01*
X26702354Y-34151500D01*
X26669897Y-34158398D01*
X26517197Y-34190855D01*
X26517192Y-34190857D01*
X26344270Y-34267848D01*
X26344265Y-34267851D01*
X26191129Y-34379111D01*
X26064466Y-34519785D01*
X25969821Y-34683715D01*
X25969818Y-34683722D01*
X25911327Y-34863740D01*
X25911326Y-34863744D01*
X25891540Y-35052000D01*
X116500Y-35052000D01*
X116500Y-33020000D01*
X1507540Y-33020000D01*
X1527326Y-33208256D01*
X1527327Y-33208259D01*
X1585818Y-33388277D01*
X1585821Y-33388284D01*
X1680467Y-33552216D01*
X1770089Y-33651751D01*
X1807129Y-33692888D01*
X1960265Y-33804148D01*
X1960270Y-33804151D01*
X2133192Y-33881142D01*
X2133197Y-33881144D01*
X2318354Y-33920500D01*
X2318355Y-33920500D01*
X2507644Y-33920500D01*
X2507646Y-33920500D01*
X2692803Y-33881144D01*
X2865730Y-33804151D01*
X3018871Y-33692888D01*
X3145533Y-33552216D01*
X3240179Y-33388284D01*
X3298674Y-33208256D01*
X3305680Y-33141595D01*
X3332261Y-33076986D01*
X3389558Y-33037001D01*
X3459377Y-33034340D01*
X3519551Y-33069848D01*
X3550976Y-33132252D01*
X3552320Y-33141598D01*
X3559326Y-33208256D01*
X3559327Y-33208259D01*
X3617818Y-33388277D01*
X3617821Y-33388284D01*
X3712467Y-33552216D01*
X3802089Y-33651751D01*
X3839129Y-33692888D01*
X3992265Y-33804148D01*
X3992270Y-33804151D01*
X4165192Y-33881142D01*
X4165197Y-33881144D01*
X4350354Y-33920500D01*
X4350355Y-33920500D01*
X4539644Y-33920500D01*
X4539646Y-33920500D01*
X4724803Y-33881144D01*
X4897730Y-33804151D01*
X5050871Y-33692888D01*
X5177533Y-33552216D01*
X5272179Y-33388284D01*
X5330674Y-33208256D01*
X5337680Y-33141595D01*
X5364261Y-33076986D01*
X5421558Y-33037001D01*
X5491377Y-33034340D01*
X5551551Y-33069848D01*
X5582976Y-33132252D01*
X5584320Y-33141598D01*
X5591326Y-33208256D01*
X5591327Y-33208259D01*
X5649818Y-33388277D01*
X5649821Y-33388284D01*
X5744467Y-33552216D01*
X5834089Y-33651751D01*
X5871129Y-33692888D01*
X6024265Y-33804148D01*
X6024270Y-33804151D01*
X6197192Y-33881142D01*
X6197197Y-33881144D01*
X6382354Y-33920500D01*
X6382355Y-33920500D01*
X6571644Y-33920500D01*
X6571646Y-33920500D01*
X6756803Y-33881144D01*
X6929730Y-33804151D01*
X7082871Y-33692888D01*
X7209533Y-33552216D01*
X7304179Y-33388284D01*
X7362674Y-33208256D01*
X7382460Y-33020000D01*
X7366443Y-32867600D01*
X32927340Y-32867600D01*
X32947126Y-33055856D01*
X32947127Y-33055859D01*
X33005618Y-33235877D01*
X33005621Y-33235884D01*
X33100267Y-33399816D01*
X33226928Y-33540487D01*
X33226929Y-33540488D01*
X33380065Y-33651748D01*
X33380070Y-33651751D01*
X33552992Y-33728742D01*
X33552997Y-33728744D01*
X33738154Y-33768100D01*
X33738155Y-33768100D01*
X33927444Y-33768100D01*
X33927446Y-33768100D01*
X34112603Y-33728744D01*
X34285530Y-33651751D01*
X34438671Y-33540488D01*
X34565333Y-33399816D01*
X34659979Y-33235884D01*
X34718474Y-33055856D01*
X34738260Y-32867600D01*
X34718474Y-32679344D01*
X34659979Y-32499316D01*
X34565333Y-32335384D01*
X34438671Y-32194712D01*
X34389321Y-32158857D01*
X34285534Y-32083451D01*
X34285529Y-32083448D01*
X34112607Y-32006457D01*
X34112602Y-32006455D01*
X33966800Y-31975465D01*
X33927446Y-31967100D01*
X33738154Y-31967100D01*
X33705697Y-31973998D01*
X33552997Y-32006455D01*
X33552992Y-32006457D01*
X33380070Y-32083448D01*
X33380065Y-32083451D01*
X33226929Y-32194711D01*
X33100266Y-32335385D01*
X33005621Y-32499315D01*
X33005618Y-32499322D01*
X32956103Y-32651715D01*
X32947126Y-32679344D01*
X32927340Y-32867600D01*
X7366443Y-32867600D01*
X7362674Y-32831744D01*
X7304179Y-32651716D01*
X7209533Y-32487784D01*
X7082871Y-32347112D01*
X7082870Y-32347111D01*
X6929734Y-32235851D01*
X6929729Y-32235848D01*
X6756807Y-32158857D01*
X6756802Y-32158855D01*
X6611000Y-32127865D01*
X6571646Y-32119500D01*
X6382354Y-32119500D01*
X6349897Y-32126398D01*
X6197197Y-32158855D01*
X6197192Y-32158857D01*
X6024270Y-32235848D01*
X6024265Y-32235851D01*
X5871129Y-32347111D01*
X5744466Y-32487785D01*
X5649821Y-32651715D01*
X5649818Y-32651722D01*
X5591327Y-32831740D01*
X5591326Y-32831744D01*
X5586402Y-32878591D01*
X5584320Y-32898401D01*
X5557734Y-32963015D01*
X5500436Y-33002999D01*
X5430617Y-33005658D01*
X5370444Y-32970148D01*
X5339022Y-32907743D01*
X5337683Y-32898435D01*
X5330674Y-32831744D01*
X5272179Y-32651716D01*
X5177533Y-32487784D01*
X5050871Y-32347112D01*
X5050870Y-32347111D01*
X4897734Y-32235851D01*
X4897729Y-32235848D01*
X4724807Y-32158857D01*
X4724802Y-32158855D01*
X4579000Y-32127865D01*
X4539646Y-32119500D01*
X4350354Y-32119500D01*
X4317897Y-32126398D01*
X4165197Y-32158855D01*
X4165192Y-32158857D01*
X3992270Y-32235848D01*
X3992265Y-32235851D01*
X3839129Y-32347111D01*
X3712466Y-32487785D01*
X3617821Y-32651715D01*
X3617818Y-32651722D01*
X3559327Y-32831740D01*
X3559326Y-32831744D01*
X3554402Y-32878591D01*
X3552320Y-32898401D01*
X3525734Y-32963015D01*
X3468436Y-33002999D01*
X3398617Y-33005658D01*
X3338444Y-32970148D01*
X3307022Y-32907743D01*
X3305683Y-32898435D01*
X3298674Y-32831744D01*
X3240179Y-32651716D01*
X3145533Y-32487784D01*
X3018871Y-32347112D01*
X3018870Y-32347111D01*
X2865734Y-32235851D01*
X2865729Y-32235848D01*
X2692807Y-32158857D01*
X2692802Y-32158855D01*
X2547000Y-32127865D01*
X2507646Y-32119500D01*
X2318354Y-32119500D01*
X2285897Y-32126398D01*
X2133197Y-32158855D01*
X2133192Y-32158857D01*
X1960270Y-32235848D01*
X1960265Y-32235851D01*
X1807129Y-32347111D01*
X1680466Y-32487785D01*
X1585821Y-32651715D01*
X1585818Y-32651722D01*
X1527327Y-32831740D01*
X1527326Y-32831744D01*
X1507540Y-33020000D01*
X116500Y-33020000D01*
X116500Y-30988000D01*
X23605540Y-30988000D01*
X23625326Y-31176256D01*
X23625327Y-31176259D01*
X23683818Y-31356277D01*
X23683821Y-31356284D01*
X23778467Y-31520216D01*
X23841150Y-31589832D01*
X23905129Y-31660888D01*
X24058265Y-31772148D01*
X24058270Y-31772151D01*
X24231192Y-31849142D01*
X24231197Y-31849144D01*
X24416354Y-31888500D01*
X24416355Y-31888500D01*
X24605644Y-31888500D01*
X24605646Y-31888500D01*
X24790803Y-31849144D01*
X24963730Y-31772151D01*
X25116871Y-31660888D01*
X25180850Y-31589831D01*
X25240337Y-31553183D01*
X25310194Y-31554514D01*
X25365150Y-31589832D01*
X25429129Y-31660888D01*
X25582265Y-31772148D01*
X25582270Y-31772151D01*
X25755192Y-31849142D01*
X25755197Y-31849144D01*
X25940354Y-31888500D01*
X25940355Y-31888500D01*
X26129644Y-31888500D01*
X26129646Y-31888500D01*
X26314803Y-31849144D01*
X26487730Y-31772151D01*
X26640871Y-31660888D01*
X26767533Y-31520216D01*
X26862179Y-31356284D01*
X26920674Y-31176256D01*
X26940460Y-30988000D01*
X26920674Y-30799744D01*
X26862179Y-30619716D01*
X26781514Y-30480000D01*
X31225540Y-30480000D01*
X31245326Y-30668256D01*
X31245327Y-30668259D01*
X31303818Y-30848277D01*
X31303821Y-30848284D01*
X31398467Y-31012216D01*
X31525128Y-31152888D01*
X31525129Y-31152888D01*
X31678265Y-31264148D01*
X31678270Y-31264151D01*
X31851192Y-31341142D01*
X31851197Y-31341144D01*
X32036354Y-31380500D01*
X32036355Y-31380500D01*
X32225644Y-31380500D01*
X32225646Y-31380500D01*
X32410803Y-31341144D01*
X32583730Y-31264151D01*
X32736871Y-31152888D01*
X32863533Y-31012216D01*
X32958179Y-30848284D01*
X33016674Y-30668256D01*
X33036460Y-30480000D01*
X33016674Y-30291744D01*
X32958179Y-30111716D01*
X32863533Y-29947784D01*
X32736871Y-29807112D01*
X32672941Y-29760664D01*
X32583734Y-29695851D01*
X32583729Y-29695848D01*
X32410807Y-29618857D01*
X32410802Y-29618855D01*
X32265001Y-29587865D01*
X32225646Y-29579500D01*
X32036354Y-29579500D01*
X32003897Y-29586398D01*
X31851197Y-29618855D01*
X31851192Y-29618857D01*
X31678270Y-29695848D01*
X31678265Y-29695851D01*
X31525129Y-29807111D01*
X31398466Y-29947785D01*
X31303821Y-30111715D01*
X31303818Y-30111722D01*
X31273884Y-30203851D01*
X31245326Y-30291744D01*
X31225540Y-30480000D01*
X26781514Y-30480000D01*
X26767533Y-30455784D01*
X26640871Y-30315112D01*
X26608708Y-30291744D01*
X26487734Y-30203851D01*
X26487729Y-30203848D01*
X26314807Y-30126857D01*
X26314802Y-30126855D01*
X26169000Y-30095865D01*
X26129646Y-30087500D01*
X25940354Y-30087500D01*
X25907897Y-30094398D01*
X25755197Y-30126855D01*
X25755192Y-30126857D01*
X25582270Y-30203848D01*
X25582265Y-30203851D01*
X25429129Y-30315111D01*
X25429128Y-30315112D01*
X25365149Y-30386168D01*
X25305663Y-30422816D01*
X25235806Y-30421485D01*
X25180851Y-30386168D01*
X25116871Y-30315112D01*
X25116870Y-30315111D01*
X24963734Y-30203851D01*
X24963729Y-30203848D01*
X24790807Y-30126857D01*
X24790802Y-30126855D01*
X24645001Y-30095865D01*
X24605646Y-30087500D01*
X24416354Y-30087500D01*
X24383897Y-30094398D01*
X24231197Y-30126855D01*
X24231192Y-30126857D01*
X24058270Y-30203848D01*
X24058265Y-30203851D01*
X23905129Y-30315111D01*
X23778466Y-30455785D01*
X23683821Y-30619715D01*
X23683818Y-30619722D01*
X23625327Y-30799740D01*
X23625326Y-30799744D01*
X23605540Y-30988000D01*
X116500Y-30988000D01*
X116500Y-29297000D01*
X5250341Y-29297000D01*
X5270936Y-29532403D01*
X5270938Y-29532413D01*
X5332094Y-29760655D01*
X5332096Y-29760659D01*
X5332097Y-29760663D01*
X5353757Y-29807112D01*
X5431964Y-29974828D01*
X5431965Y-29974830D01*
X5567505Y-30168402D01*
X5734597Y-30335494D01*
X5928169Y-30471034D01*
X5928171Y-30471035D01*
X6142337Y-30570903D01*
X6370592Y-30632063D01*
X6547032Y-30647499D01*
X6547033Y-30647500D01*
X6547034Y-30647500D01*
X6914967Y-30647500D01*
X6914967Y-30647499D01*
X7091408Y-30632063D01*
X7319663Y-30570903D01*
X7533829Y-30471035D01*
X7727401Y-30335495D01*
X7894495Y-30168401D01*
X8030035Y-29974830D01*
X8129903Y-29760663D01*
X8191063Y-29532408D01*
X8193198Y-29508000D01*
X37270740Y-29508000D01*
X37290526Y-29696256D01*
X37290527Y-29696259D01*
X37349018Y-29876277D01*
X37349021Y-29876284D01*
X37443667Y-30040216D01*
X37521679Y-30126857D01*
X37570329Y-30180888D01*
X37723465Y-30292148D01*
X37723470Y-30292151D01*
X37896392Y-30369142D01*
X37896397Y-30369144D01*
X38081554Y-30408500D01*
X38081555Y-30408500D01*
X38270844Y-30408500D01*
X38270846Y-30408500D01*
X38456003Y-30369144D01*
X38628930Y-30292151D01*
X38782071Y-30180888D01*
X38908733Y-30040216D01*
X39003379Y-29876284D01*
X39061874Y-29696256D01*
X39081660Y-29508000D01*
X39061874Y-29319744D01*
X39003379Y-29139716D01*
X38908733Y-28975784D01*
X38782071Y-28835112D01*
X38779628Y-28833337D01*
X38628934Y-28723851D01*
X38628929Y-28723848D01*
X38456007Y-28646857D01*
X38456002Y-28646855D01*
X38310200Y-28615865D01*
X38270846Y-28607500D01*
X38081554Y-28607500D01*
X38049097Y-28614398D01*
X37896397Y-28646855D01*
X37896392Y-28646857D01*
X37723470Y-28723848D01*
X37723465Y-28723851D01*
X37570329Y-28835111D01*
X37443666Y-28975785D01*
X37349021Y-29139715D01*
X37349018Y-29139722D01*
X37297916Y-29296999D01*
X37290526Y-29319744D01*
X37270740Y-29508000D01*
X8193198Y-29508000D01*
X8211659Y-29297000D01*
X8191063Y-29061592D01*
X8129903Y-28833337D01*
X8030035Y-28619171D01*
X8030034Y-28619169D01*
X7894494Y-28425597D01*
X7727403Y-28258506D01*
X7671187Y-28219144D01*
X7570401Y-28148573D01*
X7526778Y-28093999D01*
X7519584Y-28024500D01*
X7551106Y-27962145D01*
X7570398Y-27945428D01*
X7727401Y-27835495D01*
X7894495Y-27668401D01*
X8030035Y-27474830D01*
X8129903Y-27260663D01*
X8191063Y-27032408D01*
X8200548Y-26924000D01*
X23605540Y-26924000D01*
X23625326Y-27112256D01*
X23625327Y-27112259D01*
X23683818Y-27292277D01*
X23683821Y-27292284D01*
X23778467Y-27456216D01*
X23795231Y-27474834D01*
X23905129Y-27596888D01*
X24058265Y-27708148D01*
X24058270Y-27708151D01*
X24231192Y-27785142D01*
X24231197Y-27785144D01*
X24416354Y-27824500D01*
X24416355Y-27824500D01*
X24605644Y-27824500D01*
X24605646Y-27824500D01*
X24790803Y-27785144D01*
X24963730Y-27708151D01*
X25116871Y-27596888D01*
X25243533Y-27456216D01*
X25338179Y-27292284D01*
X25396674Y-27112256D01*
X25410223Y-26983336D01*
X25436808Y-26918724D01*
X25494105Y-26878739D01*
X25533544Y-26872300D01*
X25723244Y-26872300D01*
X25723246Y-26872300D01*
X25908403Y-26832944D01*
X26081330Y-26755951D01*
X26234471Y-26644688D01*
X26361133Y-26504016D01*
X26372805Y-26483800D01*
X34722340Y-26483800D01*
X34742126Y-26672056D01*
X34742127Y-26672059D01*
X34800618Y-26852077D01*
X34800621Y-26852084D01*
X34895267Y-27016016D01*
X35002850Y-27135499D01*
X35021929Y-27156688D01*
X35175065Y-27267948D01*
X35175070Y-27267951D01*
X35347992Y-27344942D01*
X35347997Y-27344944D01*
X35533154Y-27384300D01*
X35533155Y-27384300D01*
X35722444Y-27384300D01*
X35722446Y-27384300D01*
X35907603Y-27344944D01*
X36080530Y-27267951D01*
X36233671Y-27156688D01*
X36360333Y-27016016D01*
X36454979Y-26852084D01*
X36513474Y-26672056D01*
X36533260Y-26483800D01*
X36513474Y-26295544D01*
X36454979Y-26115516D01*
X36360333Y-25951584D01*
X36233671Y-25810912D01*
X36233670Y-25810911D01*
X36080534Y-25699651D01*
X36080529Y-25699648D01*
X35907607Y-25622657D01*
X35907602Y-25622655D01*
X35759081Y-25591087D01*
X35722446Y-25583300D01*
X35533154Y-25583300D01*
X35500697Y-25590198D01*
X35347997Y-25622655D01*
X35347992Y-25622657D01*
X35175070Y-25699648D01*
X35175065Y-25699651D01*
X35021929Y-25810911D01*
X34895266Y-25951585D01*
X34800621Y-26115515D01*
X34800618Y-26115522D01*
X34742127Y-26295540D01*
X34742126Y-26295544D01*
X34722340Y-26483800D01*
X26372805Y-26483800D01*
X26455779Y-26340084D01*
X26514274Y-26160056D01*
X26534060Y-25971800D01*
X26514274Y-25783544D01*
X26455779Y-25603516D01*
X26361133Y-25439584D01*
X26234471Y-25298912D01*
X26234470Y-25298911D01*
X26081334Y-25187651D01*
X26081329Y-25187648D01*
X25908407Y-25110657D01*
X25908402Y-25110655D01*
X25762600Y-25079665D01*
X25723246Y-25071300D01*
X25533954Y-25071300D01*
X25501497Y-25078198D01*
X25348797Y-25110655D01*
X25348792Y-25110657D01*
X25175870Y-25187648D01*
X25175865Y-25187651D01*
X25022729Y-25298911D01*
X24896066Y-25439585D01*
X24801421Y-25603515D01*
X24801418Y-25603522D01*
X24747389Y-25769808D01*
X24742926Y-25783544D01*
X24740050Y-25810911D01*
X24729377Y-25912462D01*
X24702792Y-25977076D01*
X24645495Y-26017061D01*
X24606056Y-26023500D01*
X24605646Y-26023500D01*
X24416354Y-26023500D01*
X24383897Y-26030398D01*
X24231197Y-26062855D01*
X24231192Y-26062857D01*
X24058270Y-26139848D01*
X24058265Y-26139851D01*
X23905129Y-26251111D01*
X23778466Y-26391785D01*
X23683821Y-26555715D01*
X23683818Y-26555722D01*
X23635531Y-26704336D01*
X23625326Y-26735744D01*
X23612933Y-26853656D01*
X23606095Y-26918724D01*
X23605540Y-26924000D01*
X8200548Y-26924000D01*
X8211659Y-26797000D01*
X8191063Y-26561592D01*
X8129903Y-26333337D01*
X8030035Y-26119171D01*
X8030034Y-26119169D01*
X7894494Y-25925597D01*
X7746932Y-25778035D01*
X7713447Y-25716712D01*
X7718431Y-25647020D01*
X7760303Y-25591087D01*
X7769516Y-25584815D01*
X7924345Y-25489315D01*
X8048315Y-25365345D01*
X8140356Y-25216124D01*
X8140358Y-25216119D01*
X8195505Y-25049697D01*
X8195506Y-25049690D01*
X8205999Y-24946986D01*
X8206000Y-24946973D01*
X8206000Y-24547000D01*
X7134969Y-24547000D01*
X7158105Y-24511000D01*
X44433540Y-24511000D01*
X44453326Y-24699256D01*
X44453327Y-24699259D01*
X44511818Y-24879277D01*
X44511821Y-24879284D01*
X44606467Y-25043216D01*
X44733129Y-25183888D01*
X44886265Y-25295148D01*
X44886270Y-25295151D01*
X45059192Y-25372142D01*
X45059197Y-25372144D01*
X45244354Y-25411500D01*
X45244355Y-25411500D01*
X45433644Y-25411500D01*
X45433646Y-25411500D01*
X45618803Y-25372144D01*
X45791730Y-25295151D01*
X45944871Y-25183888D01*
X46071533Y-25043216D01*
X46166179Y-24879284D01*
X46224674Y-24699256D01*
X46244460Y-24511000D01*
X46224674Y-24322744D01*
X46166179Y-24142716D01*
X46073621Y-23982401D01*
X63136746Y-23982401D01*
X63146745Y-24192327D01*
X63196296Y-24396578D01*
X63196298Y-24396582D01*
X63283598Y-24587743D01*
X63283601Y-24587748D01*
X63283602Y-24587750D01*
X63283604Y-24587753D01*
X63346627Y-24676256D01*
X63405515Y-24758953D01*
X63508082Y-24856750D01*
X63543017Y-24917259D01*
X63539692Y-24987049D01*
X63499164Y-25043963D01*
X63487610Y-25052031D01*
X63422344Y-25092287D01*
X63298289Y-25216342D01*
X63206187Y-25365663D01*
X63206185Y-25365666D01*
X63206186Y-25365666D01*
X63151001Y-25532203D01*
X63151001Y-25532204D01*
X63151000Y-25532204D01*
X63140500Y-25634983D01*
X63140500Y-26435001D01*
X63140501Y-26435019D01*
X63151000Y-26537796D01*
X63151001Y-26537799D01*
X63158887Y-26561596D01*
X63206186Y-26704334D01*
X63298288Y-26853656D01*
X63422344Y-26977712D01*
X63571666Y-27069814D01*
X63738203Y-27124999D01*
X63840991Y-27135500D01*
X65191008Y-27135499D01*
X65293797Y-27124999D01*
X65460334Y-27069814D01*
X65609656Y-26977712D01*
X65733712Y-26853656D01*
X65825814Y-26704334D01*
X65880999Y-26537797D01*
X65891500Y-26435009D01*
X65891499Y-25634992D01*
X65890270Y-25622965D01*
X65880999Y-25532203D01*
X65880998Y-25532200D01*
X65857715Y-25461937D01*
X65825814Y-25365666D01*
X65733712Y-25216344D01*
X65609656Y-25092288D01*
X65546258Y-25053184D01*
X65499535Y-25001237D01*
X65488312Y-24932274D01*
X65516156Y-24868192D01*
X65534697Y-24850181D01*
X65553886Y-24835092D01*
X65691519Y-24676256D01*
X65796604Y-24494244D01*
X65865344Y-24295633D01*
X65895254Y-24087602D01*
X65885254Y-23877670D01*
X65835704Y-23673424D01*
X65835701Y-23673417D01*
X65748401Y-23482256D01*
X65748398Y-23482251D01*
X65748397Y-23482250D01*
X65748396Y-23482247D01*
X65626486Y-23311048D01*
X65626484Y-23311046D01*
X65626479Y-23311040D01*
X65474379Y-23166014D01*
X65433057Y-23139458D01*
X65387302Y-23086654D01*
X65377359Y-23017496D01*
X65406384Y-22953940D01*
X65423445Y-22937673D01*
X65553883Y-22835094D01*
X65553886Y-22835092D01*
X65691519Y-22676256D01*
X65796604Y-22494244D01*
X65865344Y-22295633D01*
X65895254Y-22087602D01*
X65885254Y-21877670D01*
X65835704Y-21673424D01*
X65835701Y-21673417D01*
X65748401Y-21482256D01*
X65748398Y-21482251D01*
X65748397Y-21482250D01*
X65748396Y-21482247D01*
X65626486Y-21311048D01*
X65626484Y-21311046D01*
X65626479Y-21311040D01*
X65474379Y-21166014D01*
X65432612Y-21139172D01*
X65386857Y-21086368D01*
X65376914Y-21017210D01*
X65405939Y-20953654D01*
X65423000Y-20937386D01*
X65553542Y-20834726D01*
X65691105Y-20675969D01*
X65691114Y-20675958D01*
X65796144Y-20494039D01*
X65796147Y-20494032D01*
X65864855Y-20295517D01*
X65864855Y-20295515D01*
X65866368Y-20285000D01*
X64795560Y-20285000D01*
X64834278Y-20242941D01*
X64884551Y-20128330D01*
X64894886Y-20003605D01*
X64864163Y-19882281D01*
X64800606Y-19785000D01*
X65862257Y-19785000D01*
X65835229Y-19673590D01*
X65747959Y-19482492D01*
X65626110Y-19311380D01*
X65626104Y-19311374D01*
X65474067Y-19166407D01*
X65297342Y-19052833D01*
X65102314Y-18974755D01*
X64896038Y-18935000D01*
X64766000Y-18935000D01*
X64766000Y-19754382D01*
X64696948Y-19700637D01*
X64578576Y-19660000D01*
X64484927Y-19660000D01*
X64392554Y-19675414D01*
X64282486Y-19734981D01*
X64266000Y-19752889D01*
X64266000Y-18935000D01*
X64188602Y-18935000D01*
X64031877Y-18949965D01*
X64031873Y-18949966D01*
X63830313Y-19009149D01*
X63643585Y-19105413D01*
X63478462Y-19235268D01*
X63478459Y-19235271D01*
X63340894Y-19394030D01*
X63340885Y-19394041D01*
X63235855Y-19575960D01*
X63235852Y-19575967D01*
X63167144Y-19774482D01*
X63167144Y-19774484D01*
X63165632Y-19785000D01*
X64236440Y-19785000D01*
X64197722Y-19827059D01*
X64147449Y-19941670D01*
X64137114Y-20066395D01*
X64167837Y-20187719D01*
X64231394Y-20285000D01*
X63169742Y-20285000D01*
X63196770Y-20396409D01*
X63284040Y-20587507D01*
X63405889Y-20758619D01*
X63405895Y-20758625D01*
X63557932Y-20903592D01*
X63599357Y-20930214D01*
X63645112Y-20983018D01*
X63655056Y-21052177D01*
X63626031Y-21115732D01*
X63608970Y-21132000D01*
X63478116Y-21234905D01*
X63478112Y-21234909D01*
X63340478Y-21393746D01*
X63235398Y-21575750D01*
X63166656Y-21774365D01*
X63166656Y-21774367D01*
X63151804Y-21877670D01*
X63136746Y-21982401D01*
X63146745Y-22192327D01*
X63196296Y-22396578D01*
X63196298Y-22396582D01*
X63283598Y-22587743D01*
X63283601Y-22587748D01*
X63283602Y-22587750D01*
X63283604Y-22587753D01*
X63346627Y-22676256D01*
X63405515Y-22758953D01*
X63405520Y-22758959D01*
X63557619Y-22903984D01*
X63598941Y-22930540D01*
X63644696Y-22983344D01*
X63654640Y-23052503D01*
X63625615Y-23116059D01*
X63608555Y-23132326D01*
X63478112Y-23234909D01*
X63340478Y-23393746D01*
X63235398Y-23575750D01*
X63166656Y-23774365D01*
X63166656Y-23774367D01*
X63137266Y-23978785D01*
X63136746Y-23982401D01*
X46073621Y-23982401D01*
X46071533Y-23978784D01*
X45944871Y-23838112D01*
X45857135Y-23774368D01*
X45791734Y-23726851D01*
X45791729Y-23726848D01*
X45618807Y-23649857D01*
X45618802Y-23649855D01*
X45473000Y-23618865D01*
X45433646Y-23610500D01*
X45244354Y-23610500D01*
X45211897Y-23617398D01*
X45059197Y-23649855D01*
X45059192Y-23649857D01*
X44886270Y-23726848D01*
X44886265Y-23726851D01*
X44733129Y-23838111D01*
X44606466Y-23978785D01*
X44511821Y-24142715D01*
X44511818Y-24142722D01*
X44453327Y-24322740D01*
X44453326Y-24322744D01*
X44433540Y-24511000D01*
X7158105Y-24511000D01*
X7167519Y-24496351D01*
X7206000Y-24365295D01*
X7206000Y-24228705D01*
X7167519Y-24097649D01*
X7134969Y-24047000D01*
X8205999Y-24047000D01*
X8205999Y-23647028D01*
X8205998Y-23647013D01*
X8195505Y-23544302D01*
X8140358Y-23377880D01*
X8140356Y-23377875D01*
X8048315Y-23228654D01*
X7924345Y-23104684D01*
X7775124Y-23012643D01*
X7775119Y-23012641D01*
X7608697Y-22957494D01*
X7608690Y-22957493D01*
X7505986Y-22947000D01*
X6981000Y-22947000D01*
X6981000Y-23888981D01*
X6866199Y-23836554D01*
X6764975Y-23822000D01*
X6697025Y-23822000D01*
X6595801Y-23836554D01*
X6480999Y-23888981D01*
X6481000Y-22947000D01*
X5956028Y-22947000D01*
X5956012Y-22947001D01*
X5853302Y-22957494D01*
X5686880Y-23012641D01*
X5686875Y-23012643D01*
X5537654Y-23104684D01*
X5413684Y-23228654D01*
X5321643Y-23377875D01*
X5321641Y-23377880D01*
X5266494Y-23544302D01*
X5266493Y-23544309D01*
X5256000Y-23647013D01*
X5256000Y-24047000D01*
X6327031Y-24047000D01*
X6294481Y-24097649D01*
X6256000Y-24228705D01*
X6256000Y-24365295D01*
X6294481Y-24496351D01*
X6327031Y-24547000D01*
X5256001Y-24547000D01*
X5256001Y-24946986D01*
X5266494Y-25049697D01*
X5321641Y-25216119D01*
X5321643Y-25216124D01*
X5413684Y-25365345D01*
X5537654Y-25489315D01*
X5692484Y-25584815D01*
X5739208Y-25636763D01*
X5750431Y-25705726D01*
X5722587Y-25769808D01*
X5715069Y-25778035D01*
X5567501Y-25925603D01*
X5567501Y-25925604D01*
X5431967Y-26119165D01*
X5431965Y-26119169D01*
X5332098Y-26333335D01*
X5332094Y-26333344D01*
X5270938Y-26561586D01*
X5270936Y-26561596D01*
X5250341Y-26796999D01*
X5250341Y-26797000D01*
X5270936Y-27032403D01*
X5270938Y-27032413D01*
X5332094Y-27260655D01*
X5332096Y-27260659D01*
X5332097Y-27260663D01*
X5371397Y-27344942D01*
X5431964Y-27474828D01*
X5431965Y-27474830D01*
X5567505Y-27668402D01*
X5734597Y-27835494D01*
X5891595Y-27945425D01*
X5935220Y-28000002D01*
X5942414Y-28069500D01*
X5910891Y-28131855D01*
X5891595Y-28148575D01*
X5734597Y-28258505D01*
X5567506Y-28425597D01*
X5567501Y-28425604D01*
X5431967Y-28619165D01*
X5431965Y-28619169D01*
X5332098Y-28833335D01*
X5332094Y-28833344D01*
X5270938Y-29061586D01*
X5270936Y-29061596D01*
X5250341Y-29296999D01*
X5250341Y-29297000D01*
X116500Y-29297000D01*
X116500Y-16552401D01*
X4827746Y-16552401D01*
X4837745Y-16762327D01*
X4887296Y-16966578D01*
X4887298Y-16966582D01*
X4974598Y-17157743D01*
X4974601Y-17157748D01*
X4974602Y-17157750D01*
X4974604Y-17157753D01*
X5037627Y-17246256D01*
X5096515Y-17328953D01*
X5096520Y-17328959D01*
X5248619Y-17473984D01*
X5290386Y-17500826D01*
X5336141Y-17553630D01*
X5346085Y-17622789D01*
X5317060Y-17686345D01*
X5299999Y-17702612D01*
X5169462Y-17805268D01*
X5169459Y-17805271D01*
X5031894Y-17964030D01*
X5031885Y-17964041D01*
X4926855Y-18145960D01*
X4926852Y-18145967D01*
X4858144Y-18344482D01*
X4858144Y-18344484D01*
X4856632Y-18355000D01*
X5927440Y-18355000D01*
X5888722Y-18397059D01*
X5838449Y-18511670D01*
X5828114Y-18636395D01*
X5858837Y-18757719D01*
X5922394Y-18855000D01*
X4860742Y-18855000D01*
X4887770Y-18966409D01*
X4975040Y-19157507D01*
X5096889Y-19328619D01*
X5096895Y-19328625D01*
X5248932Y-19473592D01*
X5425657Y-19587166D01*
X5620685Y-19665244D01*
X5826962Y-19705000D01*
X5957000Y-19705000D01*
X5957000Y-18885617D01*
X6026052Y-18939363D01*
X6144424Y-18980000D01*
X6238073Y-18980000D01*
X6330446Y-18964586D01*
X6440514Y-18905019D01*
X6457000Y-18887110D01*
X6457000Y-19705000D01*
X6534398Y-19705000D01*
X6691122Y-19690034D01*
X6691126Y-19690033D01*
X6892686Y-19630850D01*
X7079414Y-19534586D01*
X7244537Y-19404731D01*
X7244540Y-19404728D01*
X7382105Y-19245969D01*
X7382114Y-19245958D01*
X7421927Y-19177000D01*
X18144540Y-19177000D01*
X18164326Y-19365256D01*
X18164327Y-19365259D01*
X18222818Y-19545277D01*
X18222821Y-19545284D01*
X18317467Y-19709216D01*
X18423574Y-19827059D01*
X18444129Y-19849888D01*
X18597265Y-19961148D01*
X18597270Y-19961151D01*
X18770192Y-20038142D01*
X18770197Y-20038144D01*
X18955354Y-20077500D01*
X18955355Y-20077500D01*
X19144644Y-20077500D01*
X19144646Y-20077500D01*
X19329803Y-20038144D01*
X19502730Y-19961151D01*
X19655871Y-19849888D01*
X19782533Y-19709216D01*
X19877179Y-19545284D01*
X19935674Y-19365256D01*
X19955460Y-19177000D01*
X19935674Y-18988744D01*
X19877179Y-18808716D01*
X19782533Y-18644784D01*
X19655871Y-18504112D01*
X19655870Y-18504111D01*
X19502734Y-18392851D01*
X19502729Y-18392848D01*
X19495434Y-18389600D01*
X51647140Y-18389600D01*
X51666926Y-18577856D01*
X51666927Y-18577859D01*
X51725418Y-18757877D01*
X51725421Y-18757884D01*
X51820067Y-18921816D01*
X51938036Y-19052833D01*
X51946729Y-19062488D01*
X52099865Y-19173748D01*
X52099870Y-19173751D01*
X52272792Y-19250742D01*
X52272797Y-19250744D01*
X52457954Y-19290100D01*
X52457955Y-19290100D01*
X52647244Y-19290100D01*
X52647246Y-19290100D01*
X52832403Y-19250744D01*
X53005330Y-19173751D01*
X53158471Y-19062488D01*
X53285133Y-18921816D01*
X53379779Y-18757884D01*
X53438274Y-18577856D01*
X53458060Y-18389600D01*
X53438274Y-18201344D01*
X53379779Y-18021316D01*
X53285133Y-17857384D01*
X53158471Y-17716712D01*
X53158470Y-17716711D01*
X53005334Y-17605451D01*
X53005329Y-17605448D01*
X52832407Y-17528457D01*
X52832402Y-17528455D01*
X52686600Y-17497465D01*
X52647246Y-17489100D01*
X52457954Y-17489100D01*
X52425497Y-17495998D01*
X52272797Y-17528455D01*
X52272792Y-17528457D01*
X52099870Y-17605448D01*
X52099865Y-17605451D01*
X51946729Y-17716711D01*
X51820066Y-17857385D01*
X51725421Y-18021315D01*
X51725418Y-18021322D01*
X51684921Y-18145960D01*
X51666926Y-18201344D01*
X51647140Y-18389600D01*
X19495434Y-18389600D01*
X19329807Y-18315857D01*
X19329802Y-18315855D01*
X19184000Y-18284865D01*
X19144646Y-18276500D01*
X18955354Y-18276500D01*
X18922897Y-18283398D01*
X18770197Y-18315855D01*
X18770192Y-18315857D01*
X18597270Y-18392848D01*
X18597265Y-18392851D01*
X18444129Y-18504111D01*
X18317466Y-18644785D01*
X18222821Y-18808715D01*
X18222818Y-18808722D01*
X18172175Y-18964586D01*
X18164326Y-18988744D01*
X18144540Y-19177000D01*
X7421927Y-19177000D01*
X7487144Y-19064039D01*
X7487147Y-19064032D01*
X7555855Y-18865517D01*
X7555855Y-18865515D01*
X7557368Y-18855000D01*
X6486560Y-18855000D01*
X6525278Y-18812941D01*
X6575551Y-18698330D01*
X6585886Y-18573605D01*
X6555163Y-18452281D01*
X6491606Y-18355000D01*
X7553257Y-18355000D01*
X7526229Y-18243590D01*
X7438959Y-18052492D01*
X7317110Y-17881380D01*
X7317104Y-17881374D01*
X7165067Y-17736408D01*
X7123641Y-17709784D01*
X7077887Y-17656979D01*
X7067944Y-17587821D01*
X7096970Y-17524265D01*
X7114030Y-17507999D01*
X7244883Y-17405094D01*
X7244886Y-17405092D01*
X7382519Y-17246256D01*
X7487604Y-17064244D01*
X7556344Y-16865633D01*
X7586254Y-16657602D01*
X7576254Y-16447670D01*
X7526704Y-16243424D01*
X7526701Y-16243417D01*
X7439401Y-16052256D01*
X7439398Y-16052251D01*
X7439397Y-16052250D01*
X7439396Y-16052247D01*
X7317486Y-15881048D01*
X7317484Y-15881046D01*
X7317479Y-15881040D01*
X7165379Y-15736014D01*
X7124057Y-15709458D01*
X7078302Y-15656654D01*
X7068359Y-15587496D01*
X7097384Y-15523940D01*
X7114445Y-15507673D01*
X7244883Y-15405094D01*
X7244886Y-15405092D01*
X7382519Y-15246256D01*
X7487604Y-15064244D01*
X7556344Y-14865633D01*
X7586254Y-14657602D01*
X7576254Y-14447670D01*
X7526704Y-14243424D01*
X7526701Y-14243417D01*
X7439401Y-14052256D01*
X7439398Y-14052251D01*
X7439397Y-14052250D01*
X7439396Y-14052247D01*
X7317486Y-13881048D01*
X7237627Y-13804903D01*
X7214917Y-13783249D01*
X7179982Y-13722740D01*
X7183307Y-13652950D01*
X7223835Y-13596036D01*
X7235384Y-13587971D01*
X7300656Y-13547712D01*
X7424712Y-13423656D01*
X7516814Y-13274334D01*
X7571999Y-13107797D01*
X7582500Y-13005009D01*
X7582499Y-12204992D01*
X7579035Y-12171086D01*
X7571999Y-12102203D01*
X7571998Y-12102200D01*
X7550187Y-12036379D01*
X7516814Y-11935666D01*
X7424712Y-11786344D01*
X7300656Y-11662288D01*
X7151334Y-11570186D01*
X6984797Y-11515001D01*
X6984795Y-11515000D01*
X6882010Y-11504500D01*
X5531998Y-11504500D01*
X5531981Y-11504501D01*
X5429203Y-11515000D01*
X5429200Y-11515001D01*
X5262668Y-11570185D01*
X5262663Y-11570187D01*
X5113342Y-11662289D01*
X4989289Y-11786342D01*
X4897187Y-11935663D01*
X4897185Y-11935668D01*
X4883541Y-11976844D01*
X4842001Y-12102203D01*
X4842001Y-12102204D01*
X4842000Y-12102204D01*
X4831500Y-12204983D01*
X4831500Y-13005001D01*
X4831501Y-13005019D01*
X4842000Y-13107796D01*
X4842001Y-13107799D01*
X4897185Y-13274331D01*
X4897187Y-13274336D01*
X4989289Y-13423657D01*
X5113344Y-13547712D01*
X5176739Y-13586814D01*
X5223464Y-13638762D01*
X5234687Y-13707724D01*
X5206844Y-13771806D01*
X5188296Y-13789822D01*
X5169118Y-13804903D01*
X5169112Y-13804909D01*
X5031478Y-13963746D01*
X4926398Y-14145750D01*
X4857656Y-14344365D01*
X4857656Y-14344367D01*
X4842804Y-14447670D01*
X4827746Y-14552401D01*
X4837745Y-14762327D01*
X4887296Y-14966578D01*
X4887298Y-14966582D01*
X4974598Y-15157743D01*
X4974601Y-15157748D01*
X4974602Y-15157750D01*
X4974604Y-15157753D01*
X5037627Y-15246256D01*
X5096515Y-15328953D01*
X5096520Y-15328959D01*
X5248619Y-15473984D01*
X5289941Y-15500540D01*
X5335696Y-15553344D01*
X5345640Y-15622503D01*
X5316615Y-15686059D01*
X5299555Y-15702326D01*
X5169112Y-15804909D01*
X5031478Y-15963746D01*
X4926398Y-16145750D01*
X4857656Y-16344365D01*
X4857656Y-16344367D01*
X4842804Y-16447670D01*
X4827746Y-16552401D01*
X116500Y-16552401D01*
X116500Y-5080000D01*
X1501922Y-5080000D01*
X1522219Y-5467287D01*
X1582886Y-5850323D01*
X1582887Y-5850330D01*
X1683262Y-6224936D01*
X1822244Y-6586994D01*
X1998310Y-6932543D01*
X2209531Y-7257793D01*
X2418095Y-7515350D01*
X2418096Y-7515350D01*
X3315756Y-6617689D01*
X3274449Y-6679511D01*
X3255046Y-6777056D01*
X3274449Y-6874601D01*
X3329704Y-6957296D01*
X3412399Y-7012551D01*
X3485320Y-7027056D01*
X3534568Y-7027056D01*
X3607489Y-7012551D01*
X3669304Y-6971247D01*
X2771648Y-7868903D01*
X2771649Y-7868904D01*
X3029206Y-8077468D01*
X3354456Y-8288689D01*
X3700005Y-8464755D01*
X4062063Y-8603737D01*
X4436669Y-8704112D01*
X4436676Y-8704113D01*
X4819712Y-8764780D01*
X5206999Y-8785078D01*
X5207001Y-8785078D01*
X5594287Y-8764780D01*
X5977323Y-8704113D01*
X5977330Y-8704112D01*
X6351936Y-8603737D01*
X6520580Y-8539000D01*
X12032341Y-8539000D01*
X12052936Y-8774403D01*
X12052938Y-8774413D01*
X12114094Y-9002655D01*
X12114096Y-9002659D01*
X12114097Y-9002663D01*
X12213965Y-9216829D01*
X12213965Y-9216830D01*
X12213967Y-9216834D01*
X12322281Y-9371521D01*
X12349501Y-9410396D01*
X12349506Y-9410402D01*
X12471818Y-9532714D01*
X12505303Y-9594037D01*
X12500319Y-9663729D01*
X12458447Y-9719662D01*
X12427471Y-9736577D01*
X12295912Y-9785646D01*
X12295906Y-9785649D01*
X12180812Y-9871809D01*
X12180809Y-9871812D01*
X12094649Y-9986906D01*
X12094645Y-9986913D01*
X12044403Y-10121620D01*
X12044401Y-10121627D01*
X12038000Y-10181155D01*
X12038000Y-10829000D01*
X12954314Y-10829000D01*
X12928507Y-10869156D01*
X12888000Y-11007111D01*
X12888000Y-11150889D01*
X12928507Y-11288844D01*
X12954314Y-11329000D01*
X12038000Y-11329000D01*
X12038000Y-11976844D01*
X12044401Y-12036372D01*
X12044403Y-12036379D01*
X12094645Y-12171086D01*
X12094649Y-12171093D01*
X12180809Y-12286187D01*
X12180812Y-12286190D01*
X12295906Y-12372350D01*
X12295913Y-12372354D01*
X12430620Y-12422596D01*
X12430627Y-12422598D01*
X12490155Y-12428999D01*
X12490172Y-12429000D01*
X13138000Y-12429000D01*
X13138000Y-11514501D01*
X13245685Y-11563680D01*
X13352237Y-11579000D01*
X13423763Y-11579000D01*
X13530315Y-11563680D01*
X13638000Y-11514501D01*
X13638000Y-12429000D01*
X14285828Y-12429000D01*
X14285844Y-12428999D01*
X14345372Y-12422598D01*
X14345379Y-12422596D01*
X14480086Y-12372354D01*
X14480093Y-12372350D01*
X14595187Y-12286190D01*
X14595190Y-12286187D01*
X14681350Y-12171093D01*
X14681354Y-12171086D01*
X14731596Y-12036379D01*
X14731598Y-12036372D01*
X14737999Y-11976844D01*
X14738000Y-11976827D01*
X14738000Y-11811000D01*
X58276540Y-11811000D01*
X58296326Y-11999256D01*
X58296327Y-11999259D01*
X58354818Y-12179277D01*
X58354821Y-12179284D01*
X58449467Y-12343216D01*
X58576129Y-12483888D01*
X58729265Y-12595148D01*
X58729270Y-12595151D01*
X58902192Y-12672142D01*
X58902197Y-12672144D01*
X59087354Y-12711500D01*
X59087355Y-12711500D01*
X59276644Y-12711500D01*
X59276646Y-12711500D01*
X59461803Y-12672144D01*
X59634730Y-12595151D01*
X59787871Y-12483888D01*
X59914533Y-12343216D01*
X60009179Y-12179284D01*
X60067674Y-11999256D01*
X60087460Y-11811000D01*
X60067674Y-11622744D01*
X60009179Y-11442716D01*
X59914533Y-11278784D01*
X59787871Y-11138112D01*
X59787870Y-11138111D01*
X59634734Y-11026851D01*
X59634729Y-11026848D01*
X59461807Y-10949857D01*
X59461802Y-10949855D01*
X59316000Y-10918865D01*
X59276646Y-10910500D01*
X59087354Y-10910500D01*
X59054897Y-10917398D01*
X58902197Y-10949855D01*
X58902192Y-10949857D01*
X58729270Y-11026848D01*
X58729265Y-11026851D01*
X58576129Y-11138111D01*
X58449466Y-11278785D01*
X58354821Y-11442715D01*
X58354818Y-11442722D01*
X58310539Y-11579000D01*
X58296326Y-11622744D01*
X58276540Y-11811000D01*
X14738000Y-11811000D01*
X14738000Y-11329000D01*
X13821686Y-11329000D01*
X13847493Y-11288844D01*
X13888000Y-11150889D01*
X13888000Y-11007111D01*
X13847493Y-10869156D01*
X13821686Y-10829000D01*
X14738000Y-10829000D01*
X14738000Y-10181172D01*
X14737999Y-10181155D01*
X14731598Y-10121627D01*
X14731596Y-10121620D01*
X14681354Y-9986913D01*
X14681350Y-9986906D01*
X14595190Y-9871812D01*
X14595187Y-9871809D01*
X14480093Y-9785649D01*
X14480088Y-9785646D01*
X14348528Y-9736577D01*
X14292595Y-9694705D01*
X14268178Y-9629241D01*
X14283030Y-9560968D01*
X14304175Y-9532720D01*
X14426495Y-9410401D01*
X14562035Y-9216830D01*
X14661903Y-9002663D01*
X14723063Y-8774408D01*
X14743659Y-8539000D01*
X14723063Y-8303592D01*
X14670253Y-8106499D01*
X14661905Y-8075344D01*
X14661904Y-8075343D01*
X14661903Y-8075337D01*
X14562035Y-7861171D01*
X14548252Y-7841486D01*
X14426494Y-7667597D01*
X14259402Y-7500506D01*
X14259401Y-7500505D01*
X14124447Y-7406009D01*
X14073841Y-7370574D01*
X14030216Y-7315997D01*
X14023024Y-7246498D01*
X14054546Y-7184144D01*
X14073836Y-7167428D01*
X14229548Y-7058398D01*
X52558000Y-7058398D01*
X52572965Y-7215122D01*
X52572966Y-7215126D01*
X52632149Y-7416686D01*
X52728413Y-7603414D01*
X52858268Y-7768537D01*
X52858271Y-7768540D01*
X53017030Y-7906105D01*
X53017041Y-7906114D01*
X53198960Y-8011144D01*
X53198967Y-8011147D01*
X53397487Y-8079856D01*
X53408000Y-8081367D01*
X53408000Y-7011617D01*
X53477052Y-7065363D01*
X53595424Y-7106000D01*
X53689073Y-7106000D01*
X53781446Y-7090586D01*
X53891514Y-7031019D01*
X53907999Y-7013110D01*
X53908000Y-8077257D01*
X54019409Y-8050229D01*
X54210507Y-7962959D01*
X54381619Y-7841110D01*
X54381625Y-7841104D01*
X54526594Y-7689065D01*
X54553214Y-7647643D01*
X54606017Y-7601887D01*
X54675175Y-7591943D01*
X54738731Y-7620967D01*
X54755000Y-7638029D01*
X54857905Y-7768883D01*
X54857909Y-7768887D01*
X55016746Y-7906521D01*
X55198750Y-8011601D01*
X55198752Y-8011601D01*
X55198756Y-8011604D01*
X55397367Y-8080344D01*
X55605398Y-8110254D01*
X55815330Y-8100254D01*
X56019576Y-8050704D01*
X56106200Y-8011144D01*
X56210743Y-7963401D01*
X56210746Y-7963399D01*
X56210753Y-7963396D01*
X56381952Y-7841486D01*
X56479751Y-7738916D01*
X56540258Y-7703983D01*
X56610049Y-7707307D01*
X56666963Y-7747835D01*
X56675030Y-7759388D01*
X56715288Y-7824656D01*
X56839344Y-7948712D01*
X56988666Y-8040814D01*
X57155203Y-8095999D01*
X57257991Y-8106500D01*
X58058008Y-8106499D01*
X58058016Y-8106498D01*
X58058019Y-8106498D01*
X58119143Y-8100254D01*
X58160797Y-8095999D01*
X58327334Y-8040814D01*
X58476656Y-7948712D01*
X58600712Y-7824656D01*
X58692814Y-7675334D01*
X58747999Y-7508797D01*
X58758500Y-7406009D01*
X58758499Y-6055992D01*
X58747999Y-5953203D01*
X58692814Y-5786666D01*
X58600712Y-5637344D01*
X58476656Y-5513288D01*
X58375431Y-5450852D01*
X58327336Y-5421187D01*
X58327331Y-5421185D01*
X58297488Y-5411296D01*
X58160797Y-5366001D01*
X58160795Y-5366000D01*
X58058010Y-5355500D01*
X57257998Y-5355500D01*
X57257980Y-5355501D01*
X57155203Y-5366000D01*
X57155200Y-5366001D01*
X56988668Y-5421185D01*
X56988663Y-5421187D01*
X56839342Y-5513289D01*
X56715288Y-5637343D01*
X56715285Y-5637347D01*
X56676184Y-5700740D01*
X56624236Y-5747465D01*
X56555274Y-5758686D01*
X56491192Y-5730843D01*
X56473175Y-5712294D01*
X56458092Y-5693114D01*
X56458090Y-5693112D01*
X56299253Y-5555478D01*
X56117249Y-5450398D01*
X56117245Y-5450396D01*
X56117244Y-5450396D01*
X55918633Y-5381656D01*
X55710602Y-5351746D01*
X55710598Y-5351746D01*
X55500672Y-5361745D01*
X55296421Y-5411296D01*
X55296417Y-5411298D01*
X55105256Y-5498598D01*
X55105251Y-5498601D01*
X54934046Y-5620515D01*
X54934040Y-5620520D01*
X54789016Y-5772618D01*
X54762172Y-5814388D01*
X54709367Y-5860142D01*
X54640208Y-5870085D01*
X54576653Y-5841059D01*
X54560387Y-5823999D01*
X54457731Y-5693462D01*
X54457728Y-5693459D01*
X54298969Y-5555894D01*
X54298958Y-5555885D01*
X54117039Y-5450855D01*
X54117032Y-5450852D01*
X53918516Y-5382144D01*
X53907999Y-5380632D01*
X53907999Y-6450382D01*
X53838948Y-6396637D01*
X53720576Y-6356000D01*
X53626927Y-6356000D01*
X53534554Y-6371414D01*
X53424486Y-6430981D01*
X53407999Y-6448890D01*
X53407999Y-5384741D01*
X53407998Y-5384740D01*
X53296594Y-5411768D01*
X53296582Y-5411772D01*
X53105497Y-5499037D01*
X53105496Y-5499038D01*
X52934380Y-5620889D01*
X52934374Y-5620895D01*
X52789407Y-5772932D01*
X52675833Y-5949657D01*
X52597755Y-6144685D01*
X52558000Y-6350962D01*
X52558000Y-6481000D01*
X53378440Y-6481000D01*
X53339722Y-6523059D01*
X53289449Y-6637670D01*
X53279114Y-6762395D01*
X53309837Y-6883719D01*
X53373394Y-6981000D01*
X52558000Y-6981000D01*
X52558000Y-7058398D01*
X14229548Y-7058398D01*
X14259401Y-7037495D01*
X14426495Y-6870401D01*
X14562035Y-6676830D01*
X14661903Y-6462663D01*
X14723063Y-6234408D01*
X14743659Y-5999000D01*
X14723063Y-5763592D01*
X14661903Y-5535337D01*
X14562035Y-5321171D01*
X14461468Y-5177545D01*
X14426494Y-5127597D01*
X14378897Y-5080000D01*
X62207922Y-5080000D01*
X62228219Y-5467287D01*
X62288886Y-5850323D01*
X62288887Y-5850330D01*
X62389262Y-6224936D01*
X62528244Y-6586994D01*
X62704310Y-6932543D01*
X62915531Y-7257793D01*
X63124095Y-7515350D01*
X63124096Y-7515350D01*
X64021756Y-6617689D01*
X63980449Y-6679511D01*
X63961046Y-6777056D01*
X63980449Y-6874601D01*
X64035704Y-6957296D01*
X64118399Y-7012551D01*
X64191320Y-7027056D01*
X64240568Y-7027056D01*
X64313489Y-7012551D01*
X64375304Y-6971247D01*
X63477648Y-7868903D01*
X63477649Y-7868904D01*
X63735206Y-8077468D01*
X64060456Y-8288689D01*
X64406005Y-8464755D01*
X64768063Y-8603737D01*
X65142669Y-8704112D01*
X65142676Y-8704113D01*
X65525712Y-8764780D01*
X65912999Y-8785078D01*
X65913001Y-8785078D01*
X66300287Y-8764780D01*
X66683323Y-8704113D01*
X66683330Y-8704112D01*
X67057936Y-8603737D01*
X67419994Y-8464755D01*
X67765543Y-8288689D01*
X68090783Y-8077476D01*
X68090785Y-8077475D01*
X68348349Y-7868902D01*
X67450691Y-6971244D01*
X67512511Y-7012551D01*
X67585432Y-7027056D01*
X67634680Y-7027056D01*
X67707601Y-7012551D01*
X67790296Y-6957296D01*
X67845551Y-6874601D01*
X67864954Y-6777056D01*
X67845551Y-6679511D01*
X67804244Y-6617691D01*
X68701902Y-7515349D01*
X68910475Y-7257785D01*
X68910476Y-7257783D01*
X69121689Y-6932543D01*
X69297755Y-6586994D01*
X69436737Y-6224936D01*
X69537112Y-5850330D01*
X69537113Y-5850323D01*
X69597780Y-5467287D01*
X69618078Y-5080000D01*
X69618078Y-5079999D01*
X69597780Y-4692712D01*
X69537113Y-4309676D01*
X69537112Y-4309669D01*
X69436737Y-3935063D01*
X69297755Y-3573005D01*
X69121689Y-3227456D01*
X68910468Y-2902206D01*
X68701904Y-2644649D01*
X68701903Y-2644648D01*
X67804247Y-3542303D01*
X67845551Y-3480489D01*
X67864954Y-3382944D01*
X67845551Y-3285399D01*
X67790296Y-3202704D01*
X67707601Y-3147449D01*
X67634680Y-3132944D01*
X67585432Y-3132944D01*
X67512511Y-3147449D01*
X67450690Y-3188755D01*
X68348350Y-2291096D01*
X68348350Y-2291095D01*
X68090793Y-2082531D01*
X67765543Y-1871310D01*
X67419994Y-1695244D01*
X67057936Y-1556262D01*
X66683330Y-1455887D01*
X66683323Y-1455886D01*
X66300287Y-1395219D01*
X65913001Y-1374922D01*
X65912999Y-1374922D01*
X65525712Y-1395219D01*
X65142676Y-1455886D01*
X65142669Y-1455887D01*
X64768063Y-1556262D01*
X64406005Y-1695244D01*
X64060456Y-1871310D01*
X63735206Y-2082531D01*
X63477648Y-2291095D01*
X63477648Y-2291096D01*
X64375306Y-3188754D01*
X64313489Y-3147449D01*
X64240568Y-3132944D01*
X64191320Y-3132944D01*
X64118399Y-3147449D01*
X64035704Y-3202704D01*
X63980449Y-3285399D01*
X63961046Y-3382944D01*
X63980449Y-3480489D01*
X64021753Y-3542305D01*
X63124096Y-2644648D01*
X63124095Y-2644648D01*
X62915531Y-2902206D01*
X62704310Y-3227456D01*
X62528244Y-3573005D01*
X62389262Y-3935063D01*
X62288887Y-4309669D01*
X62288886Y-4309676D01*
X62228219Y-4692712D01*
X62207922Y-5079999D01*
X62207922Y-5080000D01*
X14378897Y-5080000D01*
X14259402Y-4960506D01*
X14259401Y-4960505D01*
X14073842Y-4830575D01*
X14073841Y-4830574D01*
X14030216Y-4775997D01*
X14023024Y-4706498D01*
X14054546Y-4644144D01*
X14073836Y-4627428D01*
X14259401Y-4497495D01*
X14426495Y-4330401D01*
X14562035Y-4136830D01*
X14661903Y-3922663D01*
X14723063Y-3694408D01*
X14743659Y-3459000D01*
X14723063Y-3223592D01*
X14661903Y-2995337D01*
X14562035Y-2781171D01*
X14426495Y-2587599D01*
X14426494Y-2587597D01*
X14259402Y-2420506D01*
X14259395Y-2420501D01*
X14065834Y-2284967D01*
X14065830Y-2284965D01*
X14065828Y-2284964D01*
X13851663Y-2185097D01*
X13851659Y-2185096D01*
X13851655Y-2185094D01*
X13623413Y-2123938D01*
X13623403Y-2123936D01*
X13388001Y-2103341D01*
X13387999Y-2103341D01*
X13152596Y-2123936D01*
X13152586Y-2123938D01*
X12924344Y-2185094D01*
X12924335Y-2185098D01*
X12710171Y-2284964D01*
X12710169Y-2284965D01*
X12516597Y-2420505D01*
X12349505Y-2587597D01*
X12213965Y-2781169D01*
X12213964Y-2781171D01*
X12114098Y-2995335D01*
X12114094Y-2995344D01*
X12052938Y-3223586D01*
X12052936Y-3223596D01*
X12032341Y-3458999D01*
X12032341Y-3459000D01*
X12052936Y-3694403D01*
X12052938Y-3694413D01*
X12114094Y-3922655D01*
X12114096Y-3922659D01*
X12114097Y-3922663D01*
X12124574Y-3945130D01*
X12213965Y-4136830D01*
X12213967Y-4136834D01*
X12349501Y-4330395D01*
X12349506Y-4330402D01*
X12516597Y-4497493D01*
X12516603Y-4497498D01*
X12702158Y-4627425D01*
X12745783Y-4682002D01*
X12752977Y-4751500D01*
X12721454Y-4813855D01*
X12702158Y-4830575D01*
X12516597Y-4960505D01*
X12349505Y-5127597D01*
X12213965Y-5321169D01*
X12213964Y-5321171D01*
X12114098Y-5535335D01*
X12114094Y-5535344D01*
X12052938Y-5763586D01*
X12052936Y-5763596D01*
X12032341Y-5998999D01*
X12032341Y-5999000D01*
X12052936Y-6234403D01*
X12052938Y-6234413D01*
X12114094Y-6462655D01*
X12114096Y-6462659D01*
X12114097Y-6462663D01*
X12144124Y-6527056D01*
X12213965Y-6676830D01*
X12213967Y-6676834D01*
X12349501Y-6870395D01*
X12349506Y-6870402D01*
X12516597Y-7037493D01*
X12516603Y-7037498D01*
X12702158Y-7167425D01*
X12745783Y-7222002D01*
X12752977Y-7291500D01*
X12721454Y-7353855D01*
X12702158Y-7370575D01*
X12516597Y-7500505D01*
X12349505Y-7667597D01*
X12213965Y-7861169D01*
X12213964Y-7861171D01*
X12114098Y-8075335D01*
X12114094Y-8075344D01*
X12052938Y-8303586D01*
X12052936Y-8303596D01*
X12032341Y-8538999D01*
X12032341Y-8539000D01*
X6520580Y-8539000D01*
X6713994Y-8464755D01*
X7059543Y-8288689D01*
X7384783Y-8077476D01*
X7384785Y-8077475D01*
X7642349Y-7868902D01*
X6744691Y-6971244D01*
X6806511Y-7012551D01*
X6879432Y-7027056D01*
X6928680Y-7027056D01*
X7001601Y-7012551D01*
X7084296Y-6957296D01*
X7139551Y-6874601D01*
X7158954Y-6777056D01*
X7139551Y-6679511D01*
X7098244Y-6617691D01*
X7995902Y-7515349D01*
X8204475Y-7257785D01*
X8204476Y-7257783D01*
X8415689Y-6932543D01*
X8591755Y-6586994D01*
X8730737Y-6224936D01*
X8831112Y-5850330D01*
X8831113Y-5850323D01*
X8891780Y-5467287D01*
X8912078Y-5080000D01*
X8912078Y-5079999D01*
X8891780Y-4692712D01*
X8831113Y-4309676D01*
X8831112Y-4309669D01*
X8730737Y-3935063D01*
X8591755Y-3573005D01*
X8415689Y-3227456D01*
X8204468Y-2902206D01*
X7995904Y-2644649D01*
X7995903Y-2644648D01*
X7098248Y-3542302D01*
X7139551Y-3480489D01*
X7158954Y-3382944D01*
X7139551Y-3285399D01*
X7084296Y-3202704D01*
X7001601Y-3147449D01*
X6928680Y-3132944D01*
X6879432Y-3132944D01*
X6806511Y-3147449D01*
X6744690Y-3188755D01*
X7642350Y-2291096D01*
X7642350Y-2291095D01*
X7384793Y-2082531D01*
X7059543Y-1871310D01*
X6713994Y-1695244D01*
X6351936Y-1556262D01*
X5977330Y-1455887D01*
X5977323Y-1455886D01*
X5594287Y-1395219D01*
X5207001Y-1374922D01*
X5206999Y-1374922D01*
X4819712Y-1395219D01*
X4436676Y-1455886D01*
X4436669Y-1455887D01*
X4062063Y-1556262D01*
X3700005Y-1695244D01*
X3354456Y-1871310D01*
X3029206Y-2082531D01*
X2771648Y-2291095D01*
X2771648Y-2291096D01*
X3669306Y-3188754D01*
X3607489Y-3147449D01*
X3534568Y-3132944D01*
X3485320Y-3132944D01*
X3412399Y-3147449D01*
X3329704Y-3202704D01*
X3274449Y-3285399D01*
X3255046Y-3382944D01*
X3274449Y-3480489D01*
X3315753Y-3542305D01*
X2418096Y-2644648D01*
X2418095Y-2644648D01*
X2209531Y-2902206D01*
X1998310Y-3227456D01*
X1822244Y-3573005D01*
X1683262Y-3935063D01*
X1582887Y-4309669D01*
X1582886Y-4309676D01*
X1522219Y-4692712D01*
X1501922Y-5079999D01*
X1501922Y-5080000D01*
X116500Y-5080000D01*
X116500Y-2090036D01*
X116633Y-2085980D01*
X121989Y-2004265D01*
X123541Y-1982561D01*
X134986Y-1822538D01*
X136015Y-1814901D01*
X159155Y-1698567D01*
X190533Y-1554323D01*
X192392Y-1547625D01*
X232547Y-1429335D01*
X233087Y-1427817D01*
X282162Y-1296242D01*
X284628Y-1290530D01*
X341044Y-1176129D01*
X342152Y-1173996D01*
X408184Y-1053066D01*
X411029Y-1048368D01*
X482563Y-941311D01*
X484428Y-938676D01*
X566291Y-829321D01*
X569244Y-825678D01*
X654503Y-728459D01*
X657198Y-725581D01*
X753581Y-629198D01*
X756459Y-626503D01*
X853678Y-541244D01*
X857321Y-538291D01*
X966676Y-456428D01*
X969311Y-454563D01*
X1076368Y-383029D01*
X1081066Y-380184D01*
X1201996Y-314152D01*
X1204129Y-313044D01*
X1318530Y-256628D01*
X1324242Y-254162D01*
X1455817Y-205087D01*
X1457335Y-204547D01*
X1575625Y-164392D01*
X1582323Y-162533D01*
X1726567Y-131155D01*
X1842901Y-108015D01*
X1850536Y-106986D01*
X2032290Y-93986D01*
X2062237Y-92023D01*
X2113981Y-88633D01*
X2118036Y-88500D01*
X69113964Y-88500D01*
X69118019Y-88633D01*
G37*
%TD.AperFunction*%
%TD*%
M02*
