%TF.GenerationSoftware,KiCad,Pcbnew,7.0.2-0*%
%TF.CreationDate,2023-05-15T19:37:27-04:00*%
%TF.ProjectId,7-segment-display-controller,372d7365-676d-4656-9e74-2d646973706c,A*%
%TF.SameCoordinates,Original*%
%TF.FileFunction,Other,Comment*%
%FSLAX46Y46*%
G04 Gerber Fmt 4.6, Leading zero omitted, Abs format (unit mm)*
G04 Created by KiCad (PCBNEW 7.0.2-0) date 2023-05-15 19:37:27*
%MOMM*%
%LPD*%
G01*
G04 APERTURE LIST*
%ADD10C,0.150000*%
%ADD11C,0.050000*%
%ADD12C,0.080000*%
G04 APERTURE END LIST*
D10*
X30949334Y5599380D02*
X31616000Y5599380D01*
X31616000Y5599380D02*
X31187429Y4599380D01*
X32520762Y4599380D02*
X31949334Y4599380D01*
X32235048Y4599380D02*
X32235048Y5599380D01*
X32235048Y5599380D02*
X32139810Y5456523D01*
X32139810Y5456523D02*
X32044572Y5361285D01*
X32044572Y5361285D02*
X31949334Y5313666D01*
X32949334Y4694619D02*
X32996953Y4646999D01*
X32996953Y4646999D02*
X32949334Y4599380D01*
X32949334Y4599380D02*
X32901715Y4646999D01*
X32901715Y4646999D02*
X32949334Y4694619D01*
X32949334Y4694619D02*
X32949334Y4599380D01*
X33616000Y5599380D02*
X33711238Y5599380D01*
X33711238Y5599380D02*
X33806476Y5551761D01*
X33806476Y5551761D02*
X33854095Y5504142D01*
X33854095Y5504142D02*
X33901714Y5408904D01*
X33901714Y5408904D02*
X33949333Y5218428D01*
X33949333Y5218428D02*
X33949333Y4980333D01*
X33949333Y4980333D02*
X33901714Y4789857D01*
X33901714Y4789857D02*
X33854095Y4694619D01*
X33854095Y4694619D02*
X33806476Y4646999D01*
X33806476Y4646999D02*
X33711238Y4599380D01*
X33711238Y4599380D02*
X33616000Y4599380D01*
X33616000Y4599380D02*
X33520762Y4646999D01*
X33520762Y4646999D02*
X33473143Y4694619D01*
X33473143Y4694619D02*
X33425524Y4789857D01*
X33425524Y4789857D02*
X33377905Y4980333D01*
X33377905Y4980333D02*
X33377905Y5218428D01*
X33377905Y5218428D02*
X33425524Y5408904D01*
X33425524Y5408904D02*
X33473143Y5504142D01*
X33473143Y5504142D02*
X33520762Y5551761D01*
X33520762Y5551761D02*
X33616000Y5599380D01*
X34568381Y5599380D02*
X34663619Y5599380D01*
X34663619Y5599380D02*
X34758857Y5551761D01*
X34758857Y5551761D02*
X34806476Y5504142D01*
X34806476Y5504142D02*
X34854095Y5408904D01*
X34854095Y5408904D02*
X34901714Y5218428D01*
X34901714Y5218428D02*
X34901714Y4980333D01*
X34901714Y4980333D02*
X34854095Y4789857D01*
X34854095Y4789857D02*
X34806476Y4694619D01*
X34806476Y4694619D02*
X34758857Y4646999D01*
X34758857Y4646999D02*
X34663619Y4599380D01*
X34663619Y4599380D02*
X34568381Y4599380D01*
X34568381Y4599380D02*
X34473143Y4646999D01*
X34473143Y4646999D02*
X34425524Y4694619D01*
X34425524Y4694619D02*
X34377905Y4789857D01*
X34377905Y4789857D02*
X34330286Y4980333D01*
X34330286Y4980333D02*
X34330286Y5218428D01*
X34330286Y5218428D02*
X34377905Y5408904D01*
X34377905Y5408904D02*
X34425524Y5504142D01*
X34425524Y5504142D02*
X34473143Y5551761D01*
X34473143Y5551761D02*
X34568381Y5599380D01*
X35520762Y5599380D02*
X35616000Y5599380D01*
X35616000Y5599380D02*
X35711238Y5551761D01*
X35711238Y5551761D02*
X35758857Y5504142D01*
X35758857Y5504142D02*
X35806476Y5408904D01*
X35806476Y5408904D02*
X35854095Y5218428D01*
X35854095Y5218428D02*
X35854095Y4980333D01*
X35854095Y4980333D02*
X35806476Y4789857D01*
X35806476Y4789857D02*
X35758857Y4694619D01*
X35758857Y4694619D02*
X35711238Y4646999D01*
X35711238Y4646999D02*
X35616000Y4599380D01*
X35616000Y4599380D02*
X35520762Y4599380D01*
X35520762Y4599380D02*
X35425524Y4646999D01*
X35425524Y4646999D02*
X35377905Y4694619D01*
X35377905Y4694619D02*
X35330286Y4789857D01*
X35330286Y4789857D02*
X35282667Y4980333D01*
X35282667Y4980333D02*
X35282667Y5218428D01*
X35282667Y5218428D02*
X35330286Y5408904D01*
X35330286Y5408904D02*
X35377905Y5504142D01*
X35377905Y5504142D02*
X35425524Y5551761D01*
X35425524Y5551761D02*
X35520762Y5599380D01*
X36473143Y5599380D02*
X36568381Y5599380D01*
X36568381Y5599380D02*
X36663619Y5551761D01*
X36663619Y5551761D02*
X36711238Y5504142D01*
X36711238Y5504142D02*
X36758857Y5408904D01*
X36758857Y5408904D02*
X36806476Y5218428D01*
X36806476Y5218428D02*
X36806476Y4980333D01*
X36806476Y4980333D02*
X36758857Y4789857D01*
X36758857Y4789857D02*
X36711238Y4694619D01*
X36711238Y4694619D02*
X36663619Y4646999D01*
X36663619Y4646999D02*
X36568381Y4599380D01*
X36568381Y4599380D02*
X36473143Y4599380D01*
X36473143Y4599380D02*
X36377905Y4646999D01*
X36377905Y4646999D02*
X36330286Y4694619D01*
X36330286Y4694619D02*
X36282667Y4789857D01*
X36282667Y4789857D02*
X36235048Y4980333D01*
X36235048Y4980333D02*
X36235048Y5218428D01*
X36235048Y5218428D02*
X36282667Y5408904D01*
X36282667Y5408904D02*
X36330286Y5504142D01*
X36330286Y5504142D02*
X36377905Y5551761D01*
X36377905Y5551761D02*
X36473143Y5599380D01*
X37996953Y4599380D02*
X37996953Y5266047D01*
X37996953Y5170809D02*
X38044572Y5218428D01*
X38044572Y5218428D02*
X38139810Y5266047D01*
X38139810Y5266047D02*
X38282667Y5266047D01*
X38282667Y5266047D02*
X38377905Y5218428D01*
X38377905Y5218428D02*
X38425524Y5123190D01*
X38425524Y5123190D02*
X38425524Y4599380D01*
X38425524Y5123190D02*
X38473143Y5218428D01*
X38473143Y5218428D02*
X38568381Y5266047D01*
X38568381Y5266047D02*
X38711238Y5266047D01*
X38711238Y5266047D02*
X38806477Y5218428D01*
X38806477Y5218428D02*
X38854096Y5123190D01*
X38854096Y5123190D02*
X38854096Y4599380D01*
X39330286Y4599380D02*
X39330286Y5266047D01*
X39330286Y5170809D02*
X39377905Y5218428D01*
X39377905Y5218428D02*
X39473143Y5266047D01*
X39473143Y5266047D02*
X39616000Y5266047D01*
X39616000Y5266047D02*
X39711238Y5218428D01*
X39711238Y5218428D02*
X39758857Y5123190D01*
X39758857Y5123190D02*
X39758857Y4599380D01*
X39758857Y5123190D02*
X39806476Y5218428D01*
X39806476Y5218428D02*
X39901714Y5266047D01*
X39901714Y5266047D02*
X40044571Y5266047D01*
X40044571Y5266047D02*
X40139810Y5218428D01*
X40139810Y5218428D02*
X40187429Y5123190D01*
X40187429Y5123190D02*
X40187429Y4599380D01*
X71116000Y-1588000D02*
X71116000Y4498419D01*
X116000Y-1588000D02*
X116000Y4498419D01*
X71116000Y3911999D02*
X116000Y3911999D01*
X71116000Y3911999D02*
X116000Y3911999D01*
X71116000Y3911999D02*
X69989496Y3325578D01*
X71116000Y3911999D02*
X69989496Y4498420D01*
X116000Y3911999D02*
X1242504Y4498420D01*
X116000Y3911999D02*
X1242504Y3325578D01*
X-3571381Y-31183237D02*
X-3571381Y-31659427D01*
X-3571381Y-31659427D02*
X-3095191Y-31707046D01*
X-3095191Y-31707046D02*
X-3142810Y-31659427D01*
X-3142810Y-31659427D02*
X-3190429Y-31564189D01*
X-3190429Y-31564189D02*
X-3190429Y-31326094D01*
X-3190429Y-31326094D02*
X-3142810Y-31230856D01*
X-3142810Y-31230856D02*
X-3095191Y-31183237D01*
X-3095191Y-31183237D02*
X-2999953Y-31135618D01*
X-2999953Y-31135618D02*
X-2761858Y-31135618D01*
X-2761858Y-31135618D02*
X-2666620Y-31183237D01*
X-2666620Y-31183237D02*
X-2619000Y-31230856D01*
X-2619000Y-31230856D02*
X-2571381Y-31326094D01*
X-2571381Y-31326094D02*
X-2571381Y-31564189D01*
X-2571381Y-31564189D02*
X-2619000Y-31659427D01*
X-2619000Y-31659427D02*
X-2666620Y-31707046D01*
X-3238048Y-30278475D02*
X-2571381Y-30278475D01*
X-3619000Y-30516570D02*
X-2904715Y-30754665D01*
X-2904715Y-30754665D02*
X-2904715Y-30135618D01*
X-2666620Y-29754665D02*
X-2619000Y-29707046D01*
X-2619000Y-29707046D02*
X-2571381Y-29754665D01*
X-2571381Y-29754665D02*
X-2619000Y-29802284D01*
X-2619000Y-29802284D02*
X-2666620Y-29754665D01*
X-2666620Y-29754665D02*
X-2571381Y-29754665D01*
X-3571381Y-29087999D02*
X-3571381Y-28992761D01*
X-3571381Y-28992761D02*
X-3523762Y-28897523D01*
X-3523762Y-28897523D02*
X-3476143Y-28849904D01*
X-3476143Y-28849904D02*
X-3380905Y-28802285D01*
X-3380905Y-28802285D02*
X-3190429Y-28754666D01*
X-3190429Y-28754666D02*
X-2952334Y-28754666D01*
X-2952334Y-28754666D02*
X-2761858Y-28802285D01*
X-2761858Y-28802285D02*
X-2666620Y-28849904D01*
X-2666620Y-28849904D02*
X-2619000Y-28897523D01*
X-2619000Y-28897523D02*
X-2571381Y-28992761D01*
X-2571381Y-28992761D02*
X-2571381Y-29087999D01*
X-2571381Y-29087999D02*
X-2619000Y-29183237D01*
X-2619000Y-29183237D02*
X-2666620Y-29230856D01*
X-2666620Y-29230856D02*
X-2761858Y-29278475D01*
X-2761858Y-29278475D02*
X-2952334Y-29326094D01*
X-2952334Y-29326094D02*
X-3190429Y-29326094D01*
X-3190429Y-29326094D02*
X-3380905Y-29278475D01*
X-3380905Y-29278475D02*
X-3476143Y-29230856D01*
X-3476143Y-29230856D02*
X-3523762Y-29183237D01*
X-3523762Y-29183237D02*
X-3571381Y-29087999D01*
X-3571381Y-28135618D02*
X-3571381Y-28040380D01*
X-3571381Y-28040380D02*
X-3523762Y-27945142D01*
X-3523762Y-27945142D02*
X-3476143Y-27897523D01*
X-3476143Y-27897523D02*
X-3380905Y-27849904D01*
X-3380905Y-27849904D02*
X-3190429Y-27802285D01*
X-3190429Y-27802285D02*
X-2952334Y-27802285D01*
X-2952334Y-27802285D02*
X-2761858Y-27849904D01*
X-2761858Y-27849904D02*
X-2666620Y-27897523D01*
X-2666620Y-27897523D02*
X-2619000Y-27945142D01*
X-2619000Y-27945142D02*
X-2571381Y-28040380D01*
X-2571381Y-28040380D02*
X-2571381Y-28135618D01*
X-2571381Y-28135618D02*
X-2619000Y-28230856D01*
X-2619000Y-28230856D02*
X-2666620Y-28278475D01*
X-2666620Y-28278475D02*
X-2761858Y-28326094D01*
X-2761858Y-28326094D02*
X-2952334Y-28373713D01*
X-2952334Y-28373713D02*
X-3190429Y-28373713D01*
X-3190429Y-28373713D02*
X-3380905Y-28326094D01*
X-3380905Y-28326094D02*
X-3476143Y-28278475D01*
X-3476143Y-28278475D02*
X-3523762Y-28230856D01*
X-3523762Y-28230856D02*
X-3571381Y-28135618D01*
X-3571381Y-27183237D02*
X-3571381Y-27087999D01*
X-3571381Y-27087999D02*
X-3523762Y-26992761D01*
X-3523762Y-26992761D02*
X-3476143Y-26945142D01*
X-3476143Y-26945142D02*
X-3380905Y-26897523D01*
X-3380905Y-26897523D02*
X-3190429Y-26849904D01*
X-3190429Y-26849904D02*
X-2952334Y-26849904D01*
X-2952334Y-26849904D02*
X-2761858Y-26897523D01*
X-2761858Y-26897523D02*
X-2666620Y-26945142D01*
X-2666620Y-26945142D02*
X-2619000Y-26992761D01*
X-2619000Y-26992761D02*
X-2571381Y-27087999D01*
X-2571381Y-27087999D02*
X-2571381Y-27183237D01*
X-2571381Y-27183237D02*
X-2619000Y-27278475D01*
X-2619000Y-27278475D02*
X-2666620Y-27326094D01*
X-2666620Y-27326094D02*
X-2761858Y-27373713D01*
X-2761858Y-27373713D02*
X-2952334Y-27421332D01*
X-2952334Y-27421332D02*
X-3190429Y-27421332D01*
X-3190429Y-27421332D02*
X-3380905Y-27373713D01*
X-3380905Y-27373713D02*
X-3476143Y-27326094D01*
X-3476143Y-27326094D02*
X-3523762Y-27278475D01*
X-3523762Y-27278475D02*
X-3571381Y-27183237D01*
X-3571381Y-26230856D02*
X-3571381Y-26135618D01*
X-3571381Y-26135618D02*
X-3523762Y-26040380D01*
X-3523762Y-26040380D02*
X-3476143Y-25992761D01*
X-3476143Y-25992761D02*
X-3380905Y-25945142D01*
X-3380905Y-25945142D02*
X-3190429Y-25897523D01*
X-3190429Y-25897523D02*
X-2952334Y-25897523D01*
X-2952334Y-25897523D02*
X-2761858Y-25945142D01*
X-2761858Y-25945142D02*
X-2666620Y-25992761D01*
X-2666620Y-25992761D02*
X-2619000Y-26040380D01*
X-2619000Y-26040380D02*
X-2571381Y-26135618D01*
X-2571381Y-26135618D02*
X-2571381Y-26230856D01*
X-2571381Y-26230856D02*
X-2619000Y-26326094D01*
X-2619000Y-26326094D02*
X-2666620Y-26373713D01*
X-2666620Y-26373713D02*
X-2761858Y-26421332D01*
X-2761858Y-26421332D02*
X-2952334Y-26468951D01*
X-2952334Y-26468951D02*
X-3190429Y-26468951D01*
X-3190429Y-26468951D02*
X-3380905Y-26421332D01*
X-3380905Y-26421332D02*
X-3476143Y-26373713D01*
X-3476143Y-26373713D02*
X-3523762Y-26326094D01*
X-3523762Y-26326094D02*
X-3571381Y-26230856D01*
X-2571381Y-24707046D02*
X-3238048Y-24707046D01*
X-3142810Y-24707046D02*
X-3190429Y-24659427D01*
X-3190429Y-24659427D02*
X-3238048Y-24564189D01*
X-3238048Y-24564189D02*
X-3238048Y-24421332D01*
X-3238048Y-24421332D02*
X-3190429Y-24326094D01*
X-3190429Y-24326094D02*
X-3095191Y-24278475D01*
X-3095191Y-24278475D02*
X-2571381Y-24278475D01*
X-3095191Y-24278475D02*
X-3190429Y-24230856D01*
X-3190429Y-24230856D02*
X-3238048Y-24135618D01*
X-3238048Y-24135618D02*
X-3238048Y-23992761D01*
X-3238048Y-23992761D02*
X-3190429Y-23897522D01*
X-3190429Y-23897522D02*
X-3095191Y-23849903D01*
X-3095191Y-23849903D02*
X-2571381Y-23849903D01*
X-2571381Y-23373713D02*
X-3238048Y-23373713D01*
X-3142810Y-23373713D02*
X-3190429Y-23326094D01*
X-3190429Y-23326094D02*
X-3238048Y-23230856D01*
X-3238048Y-23230856D02*
X-3238048Y-23087999D01*
X-3238048Y-23087999D02*
X-3190429Y-22992761D01*
X-3190429Y-22992761D02*
X-3095191Y-22945142D01*
X-3095191Y-22945142D02*
X-2571381Y-22945142D01*
X-3095191Y-22945142D02*
X-3190429Y-22897523D01*
X-3190429Y-22897523D02*
X-3238048Y-22802285D01*
X-3238048Y-22802285D02*
X-3238048Y-22659428D01*
X-3238048Y-22659428D02*
X-3190429Y-22564189D01*
X-3190429Y-22564189D02*
X-3095191Y-22516570D01*
X-3095191Y-22516570D02*
X-2571381Y-22516570D01*
X5615999Y-88000D02*
X-2470420Y-88000D01*
X5615999Y-54088000D02*
X-2470420Y-54088000D01*
X-1884000Y-88000D02*
X-1884000Y-54088000D01*
X-1884000Y-88000D02*
X-1884000Y-54088000D01*
X-1884000Y-88000D02*
X-1297579Y-1214504D01*
X-1884000Y-88000D02*
X-2470421Y-1214504D01*
X-1884000Y-54088000D02*
X-2470421Y-52961496D01*
X-1884000Y-54088000D02*
X-1297579Y-52961496D01*
D11*
%TO.C,J101*%
X20636585Y-34596172D02*
X20436585Y-34596172D01*
X20336585Y-34596172D02*
X20350871Y-34610458D01*
X20350871Y-34610458D02*
X20365157Y-34596172D01*
X20365157Y-34596172D02*
X20350871Y-34581886D01*
X20350871Y-34581886D02*
X20336585Y-34596172D01*
X20336585Y-34596172D02*
X20365157Y-34596172D01*
X20436585Y-34453315D02*
X20636585Y-34453315D01*
X20465157Y-34453315D02*
X20450871Y-34439029D01*
X20450871Y-34439029D02*
X20436585Y-34410458D01*
X20436585Y-34410458D02*
X20436585Y-34367601D01*
X20436585Y-34367601D02*
X20450871Y-34339029D01*
X20450871Y-34339029D02*
X20479442Y-34324744D01*
X20479442Y-34324744D02*
X20636585Y-34324744D01*
X20636585Y-33953315D02*
X20336585Y-33953315D01*
X20522300Y-33924744D02*
X20636585Y-33839029D01*
X20436585Y-33839029D02*
X20550871Y-33953315D01*
X20622300Y-33596172D02*
X20636585Y-33624744D01*
X20636585Y-33624744D02*
X20636585Y-33681887D01*
X20636585Y-33681887D02*
X20622300Y-33710458D01*
X20622300Y-33710458D02*
X20593728Y-33724744D01*
X20593728Y-33724744D02*
X20479442Y-33724744D01*
X20479442Y-33724744D02*
X20450871Y-33710458D01*
X20450871Y-33710458D02*
X20436585Y-33681887D01*
X20436585Y-33681887D02*
X20436585Y-33624744D01*
X20436585Y-33624744D02*
X20450871Y-33596172D01*
X20450871Y-33596172D02*
X20479442Y-33581887D01*
X20479442Y-33581887D02*
X20508014Y-33581887D01*
X20508014Y-33581887D02*
X20536585Y-33724744D01*
X20622300Y-33339029D02*
X20636585Y-33367601D01*
X20636585Y-33367601D02*
X20636585Y-33424744D01*
X20636585Y-33424744D02*
X20622300Y-33453315D01*
X20622300Y-33453315D02*
X20593728Y-33467601D01*
X20593728Y-33467601D02*
X20479442Y-33467601D01*
X20479442Y-33467601D02*
X20450871Y-33453315D01*
X20450871Y-33453315D02*
X20436585Y-33424744D01*
X20436585Y-33424744D02*
X20436585Y-33367601D01*
X20436585Y-33367601D02*
X20450871Y-33339029D01*
X20450871Y-33339029D02*
X20479442Y-33324744D01*
X20479442Y-33324744D02*
X20508014Y-33324744D01*
X20508014Y-33324744D02*
X20536585Y-33467601D01*
X20436585Y-33196172D02*
X20736585Y-33196172D01*
X20450871Y-33196172D02*
X20436585Y-33167601D01*
X20436585Y-33167601D02*
X20436585Y-33110458D01*
X20436585Y-33110458D02*
X20450871Y-33081886D01*
X20450871Y-33081886D02*
X20465157Y-33067601D01*
X20465157Y-33067601D02*
X20493728Y-33053315D01*
X20493728Y-33053315D02*
X20579442Y-33053315D01*
X20579442Y-33053315D02*
X20608014Y-33067601D01*
X20608014Y-33067601D02*
X20622300Y-33081886D01*
X20622300Y-33081886D02*
X20636585Y-33110458D01*
X20636585Y-33110458D02*
X20636585Y-33167601D01*
X20636585Y-33167601D02*
X20622300Y-33196172D01*
X20636585Y-32881886D02*
X20622300Y-32910457D01*
X20622300Y-32910457D02*
X20608014Y-32924743D01*
X20608014Y-32924743D02*
X20579442Y-32939029D01*
X20579442Y-32939029D02*
X20493728Y-32939029D01*
X20493728Y-32939029D02*
X20465157Y-32924743D01*
X20465157Y-32924743D02*
X20450871Y-32910457D01*
X20450871Y-32910457D02*
X20436585Y-32881886D01*
X20436585Y-32881886D02*
X20436585Y-32839029D01*
X20436585Y-32839029D02*
X20450871Y-32810457D01*
X20450871Y-32810457D02*
X20465157Y-32796172D01*
X20465157Y-32796172D02*
X20493728Y-32781886D01*
X20493728Y-32781886D02*
X20579442Y-32781886D01*
X20579442Y-32781886D02*
X20608014Y-32796172D01*
X20608014Y-32796172D02*
X20622300Y-32810457D01*
X20622300Y-32810457D02*
X20636585Y-32839029D01*
X20636585Y-32839029D02*
X20636585Y-32881886D01*
X20436585Y-32524743D02*
X20636585Y-32524743D01*
X20436585Y-32653314D02*
X20593728Y-32653314D01*
X20593728Y-32653314D02*
X20622300Y-32639028D01*
X20622300Y-32639028D02*
X20636585Y-32610457D01*
X20636585Y-32610457D02*
X20636585Y-32567600D01*
X20636585Y-32567600D02*
X20622300Y-32539028D01*
X20622300Y-32539028D02*
X20608014Y-32524743D01*
X20436585Y-32424742D02*
X20436585Y-32310456D01*
X20336585Y-32381885D02*
X20593728Y-32381885D01*
X20593728Y-32381885D02*
X20622300Y-32367599D01*
X20622300Y-32367599D02*
X20636585Y-32339028D01*
X20636585Y-32339028D02*
X20636585Y-32310456D01*
X20636585Y-31853314D02*
X20479442Y-31853314D01*
X20479442Y-31853314D02*
X20450871Y-31867599D01*
X20450871Y-31867599D02*
X20436585Y-31896171D01*
X20436585Y-31896171D02*
X20436585Y-31953314D01*
X20436585Y-31953314D02*
X20450871Y-31981885D01*
X20622300Y-31853314D02*
X20636585Y-31881885D01*
X20636585Y-31881885D02*
X20636585Y-31953314D01*
X20636585Y-31953314D02*
X20622300Y-31981885D01*
X20622300Y-31981885D02*
X20593728Y-31996171D01*
X20593728Y-31996171D02*
X20565157Y-31996171D01*
X20565157Y-31996171D02*
X20536585Y-31981885D01*
X20536585Y-31981885D02*
X20522300Y-31953314D01*
X20522300Y-31953314D02*
X20522300Y-31881885D01*
X20522300Y-31881885D02*
X20508014Y-31853314D01*
X20636585Y-31710456D02*
X20436585Y-31710456D01*
X20493728Y-31710456D02*
X20465157Y-31696170D01*
X20465157Y-31696170D02*
X20450871Y-31681885D01*
X20450871Y-31681885D02*
X20436585Y-31653313D01*
X20436585Y-31653313D02*
X20436585Y-31624742D01*
X20622300Y-31410456D02*
X20636585Y-31439028D01*
X20636585Y-31439028D02*
X20636585Y-31496171D01*
X20636585Y-31496171D02*
X20622300Y-31524742D01*
X20622300Y-31524742D02*
X20593728Y-31539028D01*
X20593728Y-31539028D02*
X20479442Y-31539028D01*
X20479442Y-31539028D02*
X20450871Y-31524742D01*
X20450871Y-31524742D02*
X20436585Y-31496171D01*
X20436585Y-31496171D02*
X20436585Y-31439028D01*
X20436585Y-31439028D02*
X20450871Y-31410456D01*
X20450871Y-31410456D02*
X20479442Y-31396171D01*
X20479442Y-31396171D02*
X20508014Y-31396171D01*
X20508014Y-31396171D02*
X20536585Y-31539028D01*
X20636585Y-31139028D02*
X20479442Y-31139028D01*
X20479442Y-31139028D02*
X20450871Y-31153313D01*
X20450871Y-31153313D02*
X20436585Y-31181885D01*
X20436585Y-31181885D02*
X20436585Y-31239028D01*
X20436585Y-31239028D02*
X20450871Y-31267599D01*
X20622300Y-31139028D02*
X20636585Y-31167599D01*
X20636585Y-31167599D02*
X20636585Y-31239028D01*
X20636585Y-31239028D02*
X20622300Y-31267599D01*
X20622300Y-31267599D02*
X20593728Y-31281885D01*
X20593728Y-31281885D02*
X20565157Y-31281885D01*
X20565157Y-31281885D02*
X20536585Y-31267599D01*
X20536585Y-31267599D02*
X20522300Y-31239028D01*
X20522300Y-31239028D02*
X20522300Y-31167599D01*
X20522300Y-31167599D02*
X20508014Y-31139028D01*
D12*
X20094109Y-40130219D02*
X19594109Y-40130219D01*
X20094109Y-39844505D02*
X19808395Y-40058790D01*
X19594109Y-39844505D02*
X19879823Y-40130219D01*
X19832204Y-39630219D02*
X19832204Y-39463552D01*
X20094109Y-39392124D02*
X20094109Y-39630219D01*
X20094109Y-39630219D02*
X19594109Y-39630219D01*
X19594109Y-39630219D02*
X19594109Y-39392124D01*
X19832204Y-39177838D02*
X19832204Y-39011171D01*
X20094109Y-38939743D02*
X20094109Y-39177838D01*
X20094109Y-39177838D02*
X19594109Y-39177838D01*
X19594109Y-39177838D02*
X19594109Y-38939743D01*
X20094109Y-38725457D02*
X19594109Y-38725457D01*
X19594109Y-38725457D02*
X19594109Y-38534981D01*
X19594109Y-38534981D02*
X19617919Y-38487362D01*
X19617919Y-38487362D02*
X19641728Y-38463552D01*
X19641728Y-38463552D02*
X19689347Y-38439743D01*
X19689347Y-38439743D02*
X19760776Y-38439743D01*
X19760776Y-38439743D02*
X19808395Y-38463552D01*
X19808395Y-38463552D02*
X19832204Y-38487362D01*
X19832204Y-38487362D02*
X19856014Y-38534981D01*
X19856014Y-38534981D02*
X19856014Y-38725457D01*
X19594109Y-38130219D02*
X19594109Y-38034981D01*
X19594109Y-38034981D02*
X19617919Y-37987362D01*
X19617919Y-37987362D02*
X19665538Y-37939743D01*
X19665538Y-37939743D02*
X19760776Y-37915933D01*
X19760776Y-37915933D02*
X19927442Y-37915933D01*
X19927442Y-37915933D02*
X20022680Y-37939743D01*
X20022680Y-37939743D02*
X20070300Y-37987362D01*
X20070300Y-37987362D02*
X20094109Y-38034981D01*
X20094109Y-38034981D02*
X20094109Y-38130219D01*
X20094109Y-38130219D02*
X20070300Y-38177838D01*
X20070300Y-38177838D02*
X20022680Y-38225457D01*
X20022680Y-38225457D02*
X19927442Y-38249266D01*
X19927442Y-38249266D02*
X19760776Y-38249266D01*
X19760776Y-38249266D02*
X19665538Y-38225457D01*
X19665538Y-38225457D02*
X19617919Y-38177838D01*
X19617919Y-38177838D02*
X19594109Y-38130219D01*
X19594109Y-37701647D02*
X19998871Y-37701647D01*
X19998871Y-37701647D02*
X20046490Y-37677837D01*
X20046490Y-37677837D02*
X20070300Y-37654028D01*
X20070300Y-37654028D02*
X20094109Y-37606409D01*
X20094109Y-37606409D02*
X20094109Y-37511171D01*
X20094109Y-37511171D02*
X20070300Y-37463552D01*
X20070300Y-37463552D02*
X20046490Y-37439742D01*
X20046490Y-37439742D02*
X19998871Y-37415933D01*
X19998871Y-37415933D02*
X19594109Y-37415933D01*
X19594109Y-37249265D02*
X19594109Y-36963551D01*
X20094109Y-37106408D02*
X19594109Y-37106408D01*
D11*
X20001585Y-34789028D02*
X19701585Y-34789028D01*
X19701585Y-34789028D02*
X20001585Y-34617599D01*
X20001585Y-34617599D02*
X19701585Y-34617599D01*
X20001585Y-34431885D02*
X19987300Y-34460456D01*
X19987300Y-34460456D02*
X19973014Y-34474742D01*
X19973014Y-34474742D02*
X19944442Y-34489028D01*
X19944442Y-34489028D02*
X19858728Y-34489028D01*
X19858728Y-34489028D02*
X19830157Y-34474742D01*
X19830157Y-34474742D02*
X19815871Y-34460456D01*
X19815871Y-34460456D02*
X19801585Y-34431885D01*
X19801585Y-34431885D02*
X19801585Y-34389028D01*
X19801585Y-34389028D02*
X19815871Y-34360456D01*
X19815871Y-34360456D02*
X19830157Y-34346171D01*
X19830157Y-34346171D02*
X19858728Y-34331885D01*
X19858728Y-34331885D02*
X19944442Y-34331885D01*
X19944442Y-34331885D02*
X19973014Y-34346171D01*
X19973014Y-34346171D02*
X19987300Y-34360456D01*
X19987300Y-34360456D02*
X20001585Y-34389028D01*
X20001585Y-34389028D02*
X20001585Y-34431885D01*
X19801585Y-34017599D02*
X19801585Y-33903313D01*
X19701585Y-33974742D02*
X19958728Y-33974742D01*
X19958728Y-33974742D02*
X19987300Y-33960456D01*
X19987300Y-33960456D02*
X20001585Y-33931885D01*
X20001585Y-33931885D02*
X20001585Y-33903313D01*
X20001585Y-33803313D02*
X19801585Y-33803313D01*
X19858728Y-33803313D02*
X19830157Y-33789027D01*
X19830157Y-33789027D02*
X19815871Y-33774742D01*
X19815871Y-33774742D02*
X19801585Y-33746170D01*
X19801585Y-33746170D02*
X19801585Y-33717599D01*
X20001585Y-33489028D02*
X19844442Y-33489028D01*
X19844442Y-33489028D02*
X19815871Y-33503313D01*
X19815871Y-33503313D02*
X19801585Y-33531885D01*
X19801585Y-33531885D02*
X19801585Y-33589028D01*
X19801585Y-33589028D02*
X19815871Y-33617599D01*
X19987300Y-33489028D02*
X20001585Y-33517599D01*
X20001585Y-33517599D02*
X20001585Y-33589028D01*
X20001585Y-33589028D02*
X19987300Y-33617599D01*
X19987300Y-33617599D02*
X19958728Y-33631885D01*
X19958728Y-33631885D02*
X19930157Y-33631885D01*
X19930157Y-33631885D02*
X19901585Y-33617599D01*
X19901585Y-33617599D02*
X19887300Y-33589028D01*
X19887300Y-33589028D02*
X19887300Y-33517599D01*
X19887300Y-33517599D02*
X19873014Y-33489028D01*
X19987300Y-33217599D02*
X20001585Y-33246170D01*
X20001585Y-33246170D02*
X20001585Y-33303313D01*
X20001585Y-33303313D02*
X19987300Y-33331884D01*
X19987300Y-33331884D02*
X19973014Y-33346170D01*
X19973014Y-33346170D02*
X19944442Y-33360456D01*
X19944442Y-33360456D02*
X19858728Y-33360456D01*
X19858728Y-33360456D02*
X19830157Y-33346170D01*
X19830157Y-33346170D02*
X19815871Y-33331884D01*
X19815871Y-33331884D02*
X19801585Y-33303313D01*
X19801585Y-33303313D02*
X19801585Y-33246170D01*
X19801585Y-33246170D02*
X19815871Y-33217599D01*
X20001585Y-33089027D02*
X19701585Y-33089027D01*
X19887300Y-33060456D02*
X20001585Y-32974741D01*
X19801585Y-32974741D02*
X19915871Y-33089027D01*
X19987300Y-32860456D02*
X20001585Y-32831884D01*
X20001585Y-32831884D02*
X20001585Y-32774741D01*
X20001585Y-32774741D02*
X19987300Y-32746170D01*
X19987300Y-32746170D02*
X19958728Y-32731884D01*
X19958728Y-32731884D02*
X19944442Y-32731884D01*
X19944442Y-32731884D02*
X19915871Y-32746170D01*
X19915871Y-32746170D02*
X19901585Y-32774741D01*
X19901585Y-32774741D02*
X19901585Y-32817599D01*
X19901585Y-32817599D02*
X19887300Y-32846170D01*
X19887300Y-32846170D02*
X19858728Y-32860456D01*
X19858728Y-32860456D02*
X19844442Y-32860456D01*
X19844442Y-32860456D02*
X19815871Y-32846170D01*
X19815871Y-32846170D02*
X19801585Y-32817599D01*
X19801585Y-32817599D02*
X19801585Y-32774741D01*
X19801585Y-32774741D02*
X19815871Y-32746170D01*
X20001585Y-32331885D02*
X19987300Y-32360456D01*
X19987300Y-32360456D02*
X19973014Y-32374742D01*
X19973014Y-32374742D02*
X19944442Y-32389028D01*
X19944442Y-32389028D02*
X19858728Y-32389028D01*
X19858728Y-32389028D02*
X19830157Y-32374742D01*
X19830157Y-32374742D02*
X19815871Y-32360456D01*
X19815871Y-32360456D02*
X19801585Y-32331885D01*
X19801585Y-32331885D02*
X19801585Y-32289028D01*
X19801585Y-32289028D02*
X19815871Y-32260456D01*
X19815871Y-32260456D02*
X19830157Y-32246171D01*
X19830157Y-32246171D02*
X19858728Y-32231885D01*
X19858728Y-32231885D02*
X19944442Y-32231885D01*
X19944442Y-32231885D02*
X19973014Y-32246171D01*
X19973014Y-32246171D02*
X19987300Y-32260456D01*
X19987300Y-32260456D02*
X20001585Y-32289028D01*
X20001585Y-32289028D02*
X20001585Y-32331885D01*
X20001585Y-32103313D02*
X19801585Y-32103313D01*
X19858728Y-32103313D02*
X19830157Y-32089027D01*
X19830157Y-32089027D02*
X19815871Y-32074742D01*
X19815871Y-32074742D02*
X19801585Y-32046170D01*
X19801585Y-32046170D02*
X19801585Y-32017599D01*
X19801585Y-31717599D02*
X20001585Y-31646171D01*
X20001585Y-31646171D02*
X19801585Y-31574742D01*
X20001585Y-31460457D02*
X19801585Y-31460457D01*
X19701585Y-31460457D02*
X19715871Y-31474743D01*
X19715871Y-31474743D02*
X19730157Y-31460457D01*
X19730157Y-31460457D02*
X19715871Y-31446171D01*
X19715871Y-31446171D02*
X19701585Y-31460457D01*
X19701585Y-31460457D02*
X19730157Y-31460457D01*
X20001585Y-31189029D02*
X19844442Y-31189029D01*
X19844442Y-31189029D02*
X19815871Y-31203314D01*
X19815871Y-31203314D02*
X19801585Y-31231886D01*
X19801585Y-31231886D02*
X19801585Y-31289029D01*
X19801585Y-31289029D02*
X19815871Y-31317600D01*
X19987300Y-31189029D02*
X20001585Y-31217600D01*
X20001585Y-31217600D02*
X20001585Y-31289029D01*
X20001585Y-31289029D02*
X19987300Y-31317600D01*
X19987300Y-31317600D02*
X19958728Y-31331886D01*
X19958728Y-31331886D02*
X19930157Y-31331886D01*
X19930157Y-31331886D02*
X19901585Y-31317600D01*
X19901585Y-31317600D02*
X19887300Y-31289029D01*
X19887300Y-31289029D02*
X19887300Y-31217600D01*
X19887300Y-31217600D02*
X19873014Y-31189029D01*
X19987300Y-31060457D02*
X20001585Y-31031885D01*
X20001585Y-31031885D02*
X20001585Y-30974742D01*
X20001585Y-30974742D02*
X19987300Y-30946171D01*
X19987300Y-30946171D02*
X19958728Y-30931885D01*
X19958728Y-30931885D02*
X19944442Y-30931885D01*
X19944442Y-30931885D02*
X19915871Y-30946171D01*
X19915871Y-30946171D02*
X19901585Y-30974742D01*
X19901585Y-30974742D02*
X19901585Y-31017600D01*
X19901585Y-31017600D02*
X19887300Y-31046171D01*
X19887300Y-31046171D02*
X19858728Y-31060457D01*
X19858728Y-31060457D02*
X19844442Y-31060457D01*
X19844442Y-31060457D02*
X19815871Y-31046171D01*
X19815871Y-31046171D02*
X19801585Y-31017600D01*
X19801585Y-31017600D02*
X19801585Y-30974742D01*
X19801585Y-30974742D02*
X19815871Y-30946171D01*
D10*
%TO.C,H104*%
X9338000Y-48768000D02*
G75*
G03*
X9338000Y-48768000I-3750000J0D01*
G01*
%TO.C,H103*%
X9338000Y-5588000D02*
G75*
G03*
X9338000Y-5588000I-3750000J0D01*
G01*
%TO.C,H101*%
X68774000Y-5588000D02*
G75*
G03*
X68774000Y-5588000I-3750000J0D01*
G01*
%TO.C,H102*%
X68774000Y-48768000D02*
G75*
G03*
X68774000Y-48768000I-3750000J0D01*
G01*
%TD*%
M02*
