M48
; DRILL file {KiCad 7.0.2-0} date 2023 May 15, Monday 19:37:27
; FORMAT={-:-/ absolute / inch / decimal}
; #@! TF.CreationDate,2023-05-15T19:37:27-04:00
; #@! TF.GenerationSoftware,Kicad,Pcbnew,7.0.2-0
; #@! TF.FileFunction,Plated,1,4,PTH
FMAT,2
INCH
; #@! TA.AperFunction,Plated,PTH,ViaDrill
T1C0.0157
; #@! TA.AperFunction,Plated,PTH,ComponentDrill
T2C0.0236
; #@! TA.AperFunction,Plated,PTH,ComponentDrill
T3C0.0335
; #@! TA.AperFunction,Plated,PTH,ComponentDrill
T4C0.0374
; #@! TA.AperFunction,Plated,PTH,ComponentDrill
T5C0.0433
; #@! TA.AperFunction,Plated,PTH,ComponentDrill
T6C0.0472
; #@! TA.AperFunction,Plated,PTH,ComponentDrill
T7C0.1693
%
G90
G05
T1
X0.065Y-1.365
X0.115Y-1.365
X0.165Y-1.365
X0.33Y-1.705
X0.36Y-1.36
X0.38Y-1.705
X0.62Y-0.08
X0.69Y-1.47
X0.69Y-1.52
X0.7Y-1.595
X0.81Y-1.82
X0.883Y-1.469
X0.89Y-1.511
X0.9Y-1.17
X0.945Y-0.08
X0.9753Y-1.665
X0.9932Y-0.9615
X1.005Y-1.535
X1.01Y-1.87
X1.0375Y-1.3925
X1.045Y-1.73
X1.07Y-1.81
X1.07Y-1.87
X1.0825Y-1.5475
X1.105Y-1.505
X1.1275Y-1.6525
X1.17Y-0.9
X1.187Y-1.3586
X1.274Y-0.08
X1.3Y-1.975
X1.332Y-1.294
X1.3462Y-1.5082
X1.369Y-1.219
X1.3947Y-1.4978
X1.395Y-1.555
X1.4027Y-1.0427
X1.515Y-1.665
X1.52Y-1.11
X1.5207Y-1.1617
X1.574Y-1.282
X1.59Y-1.515
X1.605Y-0.08
X1.61Y-1.825
X1.76Y-1.06
X1.76Y-1.16
X1.766Y-1.39
X1.766Y-1.441
X1.93Y-0.08
X2.069Y-0.724
X2.315Y-0.786
X2.315Y-0.965
X2.3153Y-0.8723
X2.692Y-1.528
T3
X0.8516Y-1.9624
X1.0484Y-1.9624
T4
X0.21Y-0.97
X0.21Y-1.0684
X0.21Y-1.1669
X2.565Y-0.6466
X2.565Y-0.745
X2.565Y-0.8434
X2.565Y-0.9419
T5
X0.6178Y-0.172
X0.6178Y-0.428
X0.795Y-0.172
X0.795Y-0.428
X0.9428Y-0.172
X0.9428Y-0.428
X1.12Y-0.172
X1.12Y-0.428
X1.2714Y-0.172
X1.2714Y-0.428
X1.4486Y-0.172
X1.4486Y-0.428
X1.6014Y-0.172
X1.6014Y-0.428
X1.7786Y-0.172
X1.7786Y-0.428
X1.9314Y-0.172
X1.9314Y-0.428
X2.1086Y-0.172
X2.1086Y-0.428
T6
X2.1965Y-1.43
X2.4917Y-1.43
T7
X0.22Y-0.22
X0.22Y-1.92
X2.56Y-0.22
X2.56Y-1.92
T2
G00X0.8122Y-2.0825
M15
G01X0.8122Y-2.0549
M16
G05
G00X1.0878Y-2.0549
M15
G01X1.0878Y-2.0825
M16
G05
T0
M30
