%TF.GenerationSoftware,KiCad,Pcbnew,7.0.2-0*%
%TF.CreationDate,2023-05-23T14:33:50-04:00*%
%TF.ProjectId,7-segment-display-controller,372d7365-676d-4656-9e74-2d646973706c,A*%
%TF.SameCoordinates,Original*%
%TF.FileFunction,Soldermask,Bot*%
%TF.FilePolarity,Negative*%
%FSLAX46Y46*%
G04 Gerber Fmt 4.6, Leading zero omitted, Abs format (unit mm)*
G04 Created by KiCad (PCBNEW 7.0.2-0) date 2023-05-23 14:33:50*
%MOMM*%
%LPD*%
G01*
G04 APERTURE LIST*
G04 Aperture macros list*
%AMRoundRect*
0 Rectangle with rounded corners*
0 $1 Rounding radius*
0 $2 $3 $4 $5 $6 $7 $8 $9 X,Y pos of 4 corners*
0 Add a 4 corners polygon primitive as box body*
4,1,4,$2,$3,$4,$5,$6,$7,$8,$9,$2,$3,0*
0 Add four circle primitives for the rounded corners*
1,1,$1+$1,$2,$3*
1,1,$1+$1,$4,$5*
1,1,$1+$1,$6,$7*
1,1,$1+$1,$8,$9*
0 Add four rect primitives between the rounded corners*
20,1,$1+$1,$2,$3,$4,$5,0*
20,1,$1+$1,$4,$5,$6,$7,0*
20,1,$1+$1,$6,$7,$8,$9,0*
20,1,$1+$1,$8,$9,$2,$3,0*%
G04 Aperture macros list end*
%ADD10RoundRect,0.250000X-0.600000X-0.750000X0.600000X-0.750000X0.600000X0.750000X-0.600000X0.750000X0*%
%ADD11O,1.700000X2.000000*%
%ADD12O,1.700000X1.700000*%
%ADD13R,1.700000X1.700000*%
%ADD14RoundRect,0.250000X0.350000X0.625000X-0.350000X0.625000X-0.350000X-0.625000X0.350000X-0.625000X0*%
%ADD15O,1.200000X1.750000*%
%ADD16C,0.900000*%
%ADD17C,8.600000*%
%ADD18O,1.200000X1.900000*%
%ADD19C,1.450000*%
%ADD20C,0.991000*%
%ADD21O,1.950000X1.700000*%
%ADD22RoundRect,0.250000X-0.725000X0.600000X-0.725000X-0.600000X0.725000X-0.600000X0.725000X0.600000X0*%
%ADD23O,1.750000X1.200000*%
%ADD24RoundRect,0.250000X0.625000X-0.350000X0.625000X0.350000X-0.625000X0.350000X-0.625000X-0.350000X0*%
%ADD25RoundRect,0.250000X-0.625000X0.350000X-0.625000X-0.350000X0.625000X-0.350000X0.625000X0.350000X0*%
G04 APERTURE END LIST*
D10*
%TO.C,J107*%
X50947000Y-47481000D03*
D11*
X53447000Y-47481000D03*
%TD*%
D12*
%TO.C,OLED101*%
X13388000Y-3459000D03*
X13388000Y-5999000D03*
X13388000Y-8539000D03*
D13*
X13388000Y-11079000D03*
%TD*%
D14*
%TO.C,J106*%
X57658000Y-6731000D03*
D15*
X55658000Y-6731000D03*
X53658000Y-6731000D03*
%TD*%
D16*
%TO.C,H104*%
X8432000Y-48768000D03*
X5207000Y-45543000D03*
X2926581Y-46487581D03*
X1982000Y-48768000D03*
X7487419Y-51048419D03*
X7487419Y-46487581D03*
X2926581Y-51048419D03*
X5207000Y-51993000D03*
D17*
X5207000Y-48768000D03*
%TD*%
D16*
%TO.C,H103*%
X8432000Y-5080000D03*
X5207000Y-1855000D03*
X2926581Y-2799581D03*
X1982000Y-5080000D03*
X7487419Y-7360419D03*
X7487419Y-2799581D03*
X2926581Y-7360419D03*
X5207000Y-8305000D03*
D17*
X5207000Y-5080000D03*
%TD*%
D16*
%TO.C,H102*%
X69138000Y-48768000D03*
X65913000Y-45543000D03*
X63632581Y-46487581D03*
X62688000Y-48768000D03*
X68193419Y-51048419D03*
X68193419Y-46487581D03*
X63632581Y-51048419D03*
X65913000Y-51993000D03*
D17*
X65913000Y-48768000D03*
%TD*%
D16*
%TO.C,H101*%
X69138000Y-5080000D03*
X65913000Y-1855000D03*
X63632581Y-2799581D03*
X62688000Y-5080000D03*
X68193419Y-7360419D03*
X68193419Y-2799581D03*
X63632581Y-7360419D03*
X65913000Y-8305000D03*
D17*
X65913000Y-5080000D03*
%TD*%
D18*
%TO.C,J102*%
X26690200Y-52494700D03*
D19*
X25690200Y-49794700D03*
X20690200Y-49794700D03*
D18*
X19690200Y-52494700D03*
%TD*%
D20*
%TO.C,J101*%
X20344400Y-36017200D03*
X18314400Y-36017200D03*
X19329400Y-41097200D03*
%TD*%
D21*
%TO.C,J104*%
X6731000Y-29297000D03*
X6731000Y-26797000D03*
D22*
X6731000Y-24297000D03*
%TD*%
D23*
%TO.C,J103*%
X64516000Y-20035000D03*
X64516000Y-22035000D03*
X64516000Y-24035000D03*
D24*
X64516000Y-26035000D03*
%TD*%
D25*
%TO.C,J105*%
X6207000Y-12605000D03*
D23*
X6207000Y-14605000D03*
X6207000Y-16605000D03*
X6207000Y-18605000D03*
%TD*%
M02*
