M48
; DRILL file {KiCad 7.0.5-0} date 2023 June 05, Monday 21:18:08
; FORMAT={-:-/ absolute / inch / decimal}
; #@! TF.CreationDate,2023-06-05T21:18:08-04:00
; #@! TF.GenerationSoftware,Kicad,Pcbnew,7.0.5-0
; #@! TF.FileFunction,Plated,1,4,PTH
FMAT,2
INCH
; #@! TA.AperFunction,Plated,PTH,ViaDrill
T1C0.0157
; #@! TA.AperFunction,Plated,PTH,ComponentDrill
T2C0.0197
; #@! TA.AperFunction,Plated,PTH,ComponentDrill
T3C0.0236
; #@! TA.AperFunction,Plated,PTH,ComponentDrill
T4C0.0295
; #@! TA.AperFunction,Plated,PTH,ComponentDrill
T5C0.0335
; #@! TA.AperFunction,Plated,PTH,ComponentDrill
T6C0.0374
; #@! TA.AperFunction,Plated,PTH,ComponentDrill
T7C0.0394
; #@! TA.AperFunction,Plated,PTH,ComponentDrill
T8C0.0472
; #@! TA.AperFunction,Plated,PTH,ComponentDrill
T9C0.1260
%
G90
G05
T1
X0.067Y-1.698
X0.095Y-1.3
X0.117Y-1.698
X0.175Y-1.3
X0.255Y-1.3
X0.385Y-1.5
X0.395Y-1.345
X0.475Y-0.6
X0.545Y-0.945
X0.605Y-1.81
X0.665Y-0.97
X0.665Y-1.81
X0.68Y-1.17
X0.69Y-0.63
X0.7001Y-1.7451
X0.715Y-0.97
X0.725Y-1.81
X0.775Y-1.225
X0.79Y-0.63
X0.815Y-0.965
X0.865Y-0.89
X0.865Y-0.96
X0.875Y-0.68
X0.875Y-1.04
X0.92Y-1.15
X0.94Y-1.285
X0.94Y-1.345
X0.965Y-1.9094
X0.98Y-1.145
X0.99Y-1.745
X1.04Y-0.865
X1.05Y-0.68
X1.0598Y-0.9152
X1.06Y-0.96
X1.105Y-0.72
X1.155Y-1.15
X1.165Y-0.72
X1.215Y-1.21
X1.225Y-0.72
X1.27Y-1.215
X1.295Y-1.98
X1.305Y-1.27
X1.31Y-0.795
X1.35Y-1.31
X1.37Y-1.02
X1.405Y-1.53
X1.4245Y-0.758
X1.435Y-1.075
X1.4526Y-1.2976
X1.47Y-1.615
X1.47Y-1.66
X1.48Y-1.53
X1.4855Y-0.758
X1.51Y-1.38
X1.525Y-1.515
X1.588Y-1.84
X1.622Y-1.126
X1.625Y-1.54
X1.653Y-1.197
X1.688Y-1.128
X1.717Y-1.466
X1.73Y-1.62
X1.769Y-1.435
X1.805Y-0.88
X1.816Y-1.09
X1.82Y-0.96
X1.874Y-1.206
X1.9065Y-1.27
X1.945Y-1.165
X1.955Y-1.415
X1.97Y-0.755
X2.069Y-0.724
X2.315Y-0.786
X2.315Y-0.965
X2.3153Y-0.8723
X2.33Y-0.615
X2.54Y-1.512
T2
X0.1105Y-0.2
X0.1105Y-1.92
X0.1382Y-0.1332
X0.1382Y-0.2668
X0.1382Y-1.8532
X0.1382Y-1.9868
X0.205Y-0.1055
X0.205Y-0.2945
X0.205Y-1.8255
X0.205Y-2.0145
X0.2718Y-0.1332
X0.2718Y-0.2668
X0.2718Y-1.8532
X0.2718Y-1.9868
X0.2995Y-0.2
X0.2995Y-1.92
X2.5005Y-0.2
X2.5005Y-1.92
X2.5282Y-0.1332
X2.5282Y-0.2668
X2.5282Y-1.8532
X2.5282Y-1.9868
X2.595Y-0.1055
X2.595Y-0.2945
X2.595Y-1.8255
X2.595Y-2.0145
X2.6618Y-0.1332
X2.6618Y-0.2668
X2.6618Y-1.8532
X2.6618Y-1.9868
X2.6895Y-0.2
X2.6895Y-1.92
T4
X0.2444Y-0.4963
X0.2444Y-0.575
X0.2444Y-0.6537
X0.2444Y-0.7325
X2.0258Y-1.8743
X2.1045Y-1.8743
X2.1125Y-0.265
X2.1913Y-0.265
X2.27Y-0.265
X2.53Y-0.7838
X2.53Y-0.8625
X2.53Y-0.9413
X2.53Y-1.02
T5
X0.8146Y-1.9604
X1.0114Y-1.9604
T6
X0.265Y-0.9566
X0.265Y-1.055
X0.265Y-1.1534
T7
X0.5271Y-0.1362
X0.5271Y-0.2362
X0.5271Y-0.3362
X0.5271Y-0.4362
T8
X2.2285Y-1.43
X2.5237Y-1.43
T9
X0.205Y-0.2
X0.205Y-1.92
X2.595Y-0.2
X2.595Y-1.92
T3
G00X0.7752Y-2.0805
M15
G01X0.7752Y-2.0529
M16
G05
G00X1.0508Y-2.0529
M15
G01X1.0508Y-2.0805
M16
G05
T0
M30
