%TF.GenerationSoftware,KiCad,Pcbnew,7.0.5-0*%
%TF.CreationDate,2023-06-05T19:49:20-04:00*%
%TF.ProjectId,7-segment-display-controller,372d7365-676d-4656-9e74-2d646973706c,B*%
%TF.SameCoordinates,Original*%
%TF.FileFunction,Copper,L4,Bot*%
%TF.FilePolarity,Positive*%
%FSLAX46Y46*%
G04 Gerber Fmt 4.6, Leading zero omitted, Abs format (unit mm)*
G04 Created by KiCad (PCBNEW 7.0.5-0) date 2023-06-05 19:49:20*
%MOMM*%
%LPD*%
G01*
G04 APERTURE LIST*
G04 Aperture macros list*
%AMRoundRect*
0 Rectangle with rounded corners*
0 $1 Rounding radius*
0 $2 $3 $4 $5 $6 $7 $8 $9 X,Y pos of 4 corners*
0 Add a 4 corners polygon primitive as box body*
4,1,4,$2,$3,$4,$5,$6,$7,$8,$9,$2,$3,0*
0 Add four circle primitives for the rounded corners*
1,1,$1+$1,$2,$3*
1,1,$1+$1,$4,$5*
1,1,$1+$1,$6,$7*
1,1,$1+$1,$8,$9*
0 Add four rect primitives between the rounded corners*
20,1,$1+$1,$2,$3,$4,$5,0*
20,1,$1+$1,$4,$5,$6,$7,0*
20,1,$1+$1,$6,$7,$8,$9,0*
20,1,$1+$1,$8,$9,$2,$3,0*%
G04 Aperture macros list end*
%TA.AperFunction,ComponentPad*%
%ADD10R,1.700000X1.700000*%
%TD*%
%TA.AperFunction,ComponentPad*%
%ADD11O,1.700000X1.700000*%
%TD*%
%TA.AperFunction,ComponentPad*%
%ADD12C,0.800000*%
%TD*%
%TA.AperFunction,ComponentPad*%
%ADD13C,6.400000*%
%TD*%
%TA.AperFunction,ComponentPad*%
%ADD14O,1.200000X1.900000*%
%TD*%
%TA.AperFunction,ComponentPad*%
%ADD15C,1.450000*%
%TD*%
%TA.AperFunction,ComponentPad*%
%ADD16RoundRect,0.250000X0.350000X0.625000X-0.350000X0.625000X-0.350000X-0.625000X0.350000X-0.625000X0*%
%TD*%
%TA.AperFunction,ComponentPad*%
%ADD17O,1.200000X1.750000*%
%TD*%
%TA.AperFunction,ComponentPad*%
%ADD18RoundRect,0.250000X-0.725000X0.600000X-0.725000X-0.600000X0.725000X-0.600000X0.725000X0.600000X0*%
%TD*%
%TA.AperFunction,ComponentPad*%
%ADD19O,1.950000X1.700000*%
%TD*%
%TA.AperFunction,ComponentPad*%
%ADD20C,1.500000*%
%TD*%
%TA.AperFunction,ComponentPad*%
%ADD21RoundRect,0.250000X0.625000X-0.350000X0.625000X0.350000X-0.625000X0.350000X-0.625000X-0.350000X0*%
%TD*%
%TA.AperFunction,ComponentPad*%
%ADD22O,1.750000X1.200000*%
%TD*%
%TA.AperFunction,ComponentPad*%
%ADD23RoundRect,0.250000X-0.350000X-0.625000X0.350000X-0.625000X0.350000X0.625000X-0.350000X0.625000X0*%
%TD*%
%TA.AperFunction,ComponentPad*%
%ADD24RoundRect,0.250000X-0.625000X0.350000X-0.625000X-0.350000X0.625000X-0.350000X0.625000X0.350000X0*%
%TD*%
%TA.AperFunction,ViaPad*%
%ADD25C,0.800000*%
%TD*%
%TA.AperFunction,Conductor*%
%ADD26C,0.250000*%
%TD*%
%TA.AperFunction,Conductor*%
%ADD27C,1.000000*%
%TD*%
%TA.AperFunction,Conductor*%
%ADD28C,0.500000*%
%TD*%
G04 APERTURE END LIST*
D10*
%TO.P,OLED101,1,GND*%
%TO.N,GND*%
X13388000Y-11079000D03*
D11*
%TO.P,OLED101,2,VCC*%
%TO.N,+3V3*%
X13388000Y-8539000D03*
%TO.P,OLED101,3,SCL*%
%TO.N,/SCL*%
X13388000Y-5999000D03*
%TO.P,OLED101,4,SDA*%
%TO.N,/SDA*%
X13388000Y-3459000D03*
%TD*%
D12*
%TO.P,H104,1,1*%
%TO.N,GND*%
X2807000Y-48768000D03*
X3509944Y-47070944D03*
X3509944Y-50465056D03*
X5207000Y-46368000D03*
D13*
X5207000Y-48768000D03*
D12*
X5207000Y-51168000D03*
X6904056Y-47070944D03*
X6904056Y-50465056D03*
X7607000Y-48768000D03*
%TD*%
D14*
%TO.P,J102,6,Shield*%
%TO.N,GND*%
X19690200Y-52494700D03*
D15*
X20690200Y-49794700D03*
X25690200Y-49794700D03*
D14*
X26690200Y-52494700D03*
%TD*%
D16*
%TO.P,J106,1,Pin_1*%
%TO.N,+3V3*%
X57658000Y-6731000D03*
D17*
%TO.P,J106,2,Pin_2*%
%TO.N,/IR_RECV*%
X55658000Y-6731000D03*
%TO.P,J106,3,Pin_3*%
%TO.N,GND*%
X53658000Y-6731000D03*
%TD*%
D18*
%TO.P,J104,1,Pin_1*%
%TO.N,GND*%
X6731000Y-24297000D03*
D19*
%TO.P,J104,2,Pin_2*%
%TO.N,Net-(J104-Pin_2)*%
X6731000Y-26797000D03*
%TO.P,J104,3,Pin_3*%
%TO.N,+5V*%
X6731000Y-29297000D03*
%TD*%
D20*
%TO.P,BT101,*%
%TO.N,*%
X56602800Y-36322000D03*
X64102800Y-36322000D03*
%TD*%
D12*
%TO.P,H103,1,1*%
%TO.N,GND*%
X2807000Y-5080000D03*
X3509944Y-3382944D03*
X3509944Y-6777056D03*
X5207000Y-2680000D03*
D13*
X5207000Y-5080000D03*
D12*
X5207000Y-7480000D03*
X6904056Y-3382944D03*
X6904056Y-6777056D03*
X7607000Y-5080000D03*
%TD*%
D21*
%TO.P,J103,1,Pin_1*%
%TO.N,VBUS*%
X64262000Y-25908000D03*
D22*
%TO.P,J103,2,Pin_2*%
%TO.N,/UART_TX*%
X64262000Y-23908000D03*
%TO.P,J103,3,Pin_3*%
%TO.N,/UART_RX*%
X64262000Y-21908000D03*
%TO.P,J103,4,Pin_4*%
%TO.N,GND*%
X64262000Y-19908000D03*
%TD*%
D12*
%TO.P,H101,1,1*%
%TO.N,GND*%
X63513000Y-5080000D03*
X64215944Y-3382944D03*
X64215944Y-6777056D03*
X65913000Y-2680000D03*
D13*
X65913000Y-5080000D03*
D12*
X65913000Y-7480000D03*
X67610056Y-3382944D03*
X67610056Y-6777056D03*
X68313000Y-5080000D03*
%TD*%
%TO.P,H102,1,1*%
%TO.N,GND*%
X63513000Y-48768000D03*
X64215944Y-47070944D03*
X64215944Y-50465056D03*
X65913000Y-46368000D03*
D13*
X65913000Y-48768000D03*
D12*
X65913000Y-51168000D03*
X67610056Y-47070944D03*
X67610056Y-50465056D03*
X68313000Y-48768000D03*
%TD*%
D23*
%TO.P,J107,1,Pin_1*%
%TO.N,GND*%
X51455000Y-47608000D03*
D17*
%TO.P,J107,2,Pin_2*%
%TO.N,VBUS*%
X53455000Y-47608000D03*
%TD*%
D24*
%TO.P,J105,1,Pin_1*%
%TO.N,+3V3*%
X6207000Y-12605000D03*
D22*
%TO.P,J105,2,Pin_2*%
%TO.N,/SCL*%
X6207000Y-14605000D03*
%TO.P,J105,3,Pin_3*%
%TO.N,/SDA*%
X6207000Y-16605000D03*
%TO.P,J105,4,Pin_4*%
%TO.N,GND*%
X6207000Y-18605000D03*
%TD*%
D25*
%TO.N,GND*%
X49657000Y-35941000D03*
X19685000Y-31115000D03*
X13843000Y-24003000D03*
X58801000Y-24511000D03*
X41275000Y-39116000D03*
X24511000Y-48499900D03*
X38735000Y-38481000D03*
X10033000Y-34163000D03*
X42875200Y-28651200D03*
X35687000Y-38862000D03*
X38354000Y-35052000D03*
X29591000Y-18288000D03*
X40335200Y-46736000D03*
X23876000Y-32639000D03*
X17526000Y-16002000D03*
X37732000Y-19253200D03*
X43611800Y-37236400D03*
X47599600Y-30632400D03*
X31115000Y-18288000D03*
X26919701Y-23245299D03*
X41198800Y-28600400D03*
X41986200Y-30403800D03*
X59182000Y-15621000D03*
X26670000Y-17272000D03*
X64516000Y-38404800D03*
X37338000Y-42164000D03*
X9779000Y-38100000D03*
X49403000Y-29591000D03*
X58801000Y-19964400D03*
X44932600Y-36449000D03*
X2971800Y-43129200D03*
X17272000Y-29718000D03*
X20066000Y-16002000D03*
X1701800Y-43129200D03*
X58808200Y-22156000D03*
X25146000Y-44323000D03*
X12065000Y-15240000D03*
X48425600Y-32258000D03*
%TO.N,+3V3*%
X43942000Y-41148000D03*
X6477000Y-33020000D03*
X23876000Y-34163000D03*
X46126400Y-27686000D03*
X52552600Y-18389600D03*
X28067000Y-18288000D03*
X20701000Y-24511000D03*
X37592000Y-38862000D03*
X22225000Y-26416000D03*
X2413000Y-33020000D03*
X4445000Y-33020000D03*
X36182000Y-19253200D03*
X32893000Y-50292000D03*
%TO.N,/NRST*%
X50038000Y-19177000D03*
X26416000Y-21971000D03*
X36449000Y-27305000D03*
%TO.N,/LED_HB*%
X33274000Y-20193000D03*
X45847000Y-22352000D03*
%TO.N,/SWO*%
X26924000Y-24384000D03*
X22225000Y-17272000D03*
X32258000Y-30861000D03*
%TO.N,/SWCLK*%
X30861000Y-30734000D03*
X21971000Y-22606000D03*
%TO.N,/SWDIO*%
X21971000Y-24384000D03*
X29337000Y-29210000D03*
%TO.N,VBUS*%
X17783000Y-44326000D03*
X18415000Y-45974000D03*
X15367000Y-45974000D03*
X16891000Y-45974000D03*
%TO.N,/VBAT*%
X36897000Y-32960000D03*
X37338000Y-41021000D03*
%TO.N,/LED_UI*%
X34798000Y-25908000D03*
X46228000Y-24384000D03*
%TO.N,/SCL*%
X33147000Y-32258000D03*
X24892000Y-29083000D03*
X18161000Y-24638000D03*
%TO.N,/SDA*%
X34290000Y-33274000D03*
X23368000Y-29210000D03*
X16891000Y-24638000D03*
%TD*%
D26*
%TO.N,/NRST*%
X36449000Y-27305000D02*
X36957000Y-26797000D01*
X26670000Y-21971000D02*
X26416000Y-21971000D01*
X36449000Y-27305000D02*
X32004000Y-27305000D01*
X50038000Y-22225000D02*
X50038000Y-19177000D01*
X45466000Y-26797000D02*
X50038000Y-22225000D01*
X36957000Y-26797000D02*
X45466000Y-26797000D01*
X32004000Y-27305000D02*
X26670000Y-21971000D01*
%TO.N,/LED_HB*%
X33274000Y-20193000D02*
X43688000Y-20193000D01*
X43688000Y-20193000D02*
X45847000Y-22352000D01*
%TO.N,/SWO*%
X25691000Y-23282653D02*
X25691000Y-20357000D01*
X25691000Y-20357000D02*
X22606000Y-17272000D01*
X27305000Y-24384000D02*
X32258000Y-29337000D01*
X26792347Y-24384000D02*
X25691000Y-23282653D01*
X26924000Y-24384000D02*
X26792347Y-24384000D01*
X32258000Y-29337000D02*
X32258000Y-30861000D01*
X26924000Y-24384000D02*
X27305000Y-24384000D01*
X22606000Y-17272000D02*
X22225000Y-17272000D01*
%TO.N,/SWCLK*%
X23758305Y-22606000D02*
X30861000Y-29708695D01*
X21971000Y-22606000D02*
X23758305Y-22606000D01*
X30861000Y-29708695D02*
X30861000Y-30734000D01*
%TO.N,/SWDIO*%
X29210000Y-29210000D02*
X25019000Y-25019000D01*
X22606000Y-25019000D02*
X21971000Y-24384000D01*
X25019000Y-25019000D02*
X22606000Y-25019000D01*
X29337000Y-29210000D02*
X29210000Y-29210000D01*
D27*
%TO.N,VBUS*%
X19685000Y-47244000D02*
X35242500Y-47244000D01*
X52197000Y-50292000D02*
X53447000Y-49042000D01*
X35242500Y-47244000D02*
X38290500Y-50292000D01*
D28*
X59817000Y-36322000D02*
X59817000Y-33020000D01*
D27*
X18415000Y-45974000D02*
X19685000Y-47244000D01*
X38290500Y-50292000D02*
X52197000Y-50292000D01*
X53447000Y-49042000D02*
X53447000Y-47481000D01*
D28*
X53447000Y-42692000D02*
X59817000Y-36322000D01*
X59817000Y-33020000D02*
X64262000Y-28575000D01*
X64262000Y-28575000D02*
X64262000Y-25908000D01*
X53447000Y-47481000D02*
X53447000Y-42692000D01*
D26*
%TO.N,/VBAT*%
X36576000Y-39370000D02*
X36576000Y-33281000D01*
X36576000Y-33281000D02*
X36897000Y-32960000D01*
X37338000Y-40132000D02*
X36576000Y-39370000D01*
X37338000Y-41021000D02*
X37338000Y-40132000D01*
%TO.N,/LED_UI*%
X46228000Y-24384000D02*
X44704000Y-25908000D01*
X44704000Y-25908000D02*
X34798000Y-25908000D01*
%TO.N,/SCL*%
X27686000Y-29083000D02*
X24892000Y-29083000D01*
X18161000Y-23241000D02*
X18161000Y-24638000D01*
X24892000Y-29083000D02*
X24294000Y-28485000D01*
X18224500Y-24638000D02*
X18161000Y-24638000D01*
X28536850Y-29933850D02*
X27686000Y-29083000D01*
X28607559Y-30004560D02*
X28536850Y-29933850D01*
X29385378Y-30075271D02*
X29314667Y-30004560D01*
X9525000Y-14605000D02*
X18161000Y-23241000D01*
X6207000Y-14605000D02*
X9525000Y-14605000D01*
X33147000Y-32258000D02*
X30861000Y-32258000D01*
X22071500Y-28485000D02*
X18224500Y-24638000D01*
X24294000Y-28485000D02*
X22071500Y-28485000D01*
X29385379Y-30075272D02*
X29385378Y-30075271D01*
X28925759Y-30888444D02*
X29385378Y-30428825D01*
X29420735Y-31241999D02*
X29420734Y-31241999D01*
X28925759Y-30888445D02*
X28925759Y-30888444D01*
X29420734Y-31241999D02*
X29350024Y-31312710D01*
X30861000Y-32258000D02*
X29845000Y-31242000D01*
X28925761Y-31312709D02*
G75*
G03*
X29350023Y-31312709I212131J212131D01*
G01*
X29845033Y-31241967D02*
G75*
G03*
X29420735Y-31241999I-212133J-212133D01*
G01*
X28607559Y-30004560D02*
G75*
G03*
X28961113Y-30004560I176777J176778D01*
G01*
X29314667Y-30004560D02*
G75*
G03*
X28961113Y-30004560I-176777J-176778D01*
G01*
X29385330Y-30428777D02*
G75*
G03*
X29385379Y-30075272I-176730J176777D01*
G01*
X28925782Y-30888468D02*
G75*
G03*
X28925760Y-31312710I212118J-212132D01*
G01*
%TO.N,/SDA*%
X12385540Y-22155662D02*
X12613467Y-21927732D01*
X12613467Y-21927732D02*
X12825599Y-21715600D01*
X13037735Y-22351999D02*
X13037734Y-22351999D01*
X23368000Y-29210000D02*
X24384000Y-30226000D01*
X30226000Y-33274000D02*
X34290000Y-33274000D01*
X12825602Y-21715602D02*
X13265645Y-21275558D01*
X27178000Y-30226000D02*
X30226000Y-33274000D01*
X23368000Y-29210000D02*
X21336000Y-29210000D01*
X21336000Y-29210000D02*
X16891000Y-24765000D01*
X13265645Y-20851294D02*
X13265644Y-20851293D01*
X16891000Y-24765000D02*
X16891000Y-24638000D01*
X7715000Y-16605000D02*
X6207000Y-16605000D01*
X12189205Y-21079205D02*
X7715000Y-16605000D01*
X13037734Y-22351999D02*
X12809806Y-22579928D01*
X12189204Y-21079204D02*
X12189205Y-21079205D01*
X12825599Y-21715600D02*
X12825602Y-21715602D01*
X24384000Y-30226000D02*
X27178000Y-30226000D01*
X12841380Y-20851293D02*
X12613468Y-21079204D01*
X15748000Y-24638000D02*
X13462000Y-22352000D01*
X16891000Y-24638000D02*
X15748000Y-24638000D01*
X12385542Y-22579928D02*
X12385540Y-22579926D01*
X12189205Y-21079203D02*
G75*
G03*
X12613467Y-21079203I212131J212131D01*
G01*
X13462033Y-22351967D02*
G75*
G03*
X13037735Y-22351999I-212133J-212133D01*
G01*
X12385543Y-22579927D02*
G75*
G03*
X12809805Y-22579927I212131J212131D01*
G01*
X13265618Y-21275531D02*
G75*
G03*
X13265644Y-20851295I-212118J212131D01*
G01*
X13265643Y-20851294D02*
G75*
G03*
X12841381Y-20851294I-212131J-212131D01*
G01*
X12385546Y-22155668D02*
G75*
G03*
X12385540Y-22579926I212154J-212132D01*
G01*
%TD*%
%TA.AperFunction,Conductor*%
%TO.N,VBUS*%
G36*
X19628039Y-43707685D02*
G01*
X19673794Y-43760489D01*
X19685000Y-43812000D01*
X19685000Y-46612000D01*
X19665315Y-46679039D01*
X19612511Y-46724794D01*
X19561000Y-46736000D01*
X14475000Y-46736000D01*
X14407961Y-46716315D01*
X14362206Y-46663511D01*
X14351000Y-46612000D01*
X14351000Y-43812000D01*
X14370685Y-43744961D01*
X14423489Y-43699206D01*
X14475000Y-43688000D01*
X19561000Y-43688000D01*
X19628039Y-43707685D01*
G37*
%TD.AperFunction*%
%TD*%
%TA.AperFunction,Conductor*%
%TO.N,/SDA*%
G36*
X6719309Y-16054078D02*
G01*
X7675034Y-16476918D01*
X7681213Y-16483400D01*
X7682000Y-16487618D01*
X7682000Y-16722381D01*
X7678573Y-16730654D01*
X7675034Y-16733081D01*
X6719312Y-17155920D01*
X6710360Y-17156133D01*
X6705934Y-17153105D01*
X6213192Y-16612884D01*
X6210148Y-16604462D01*
X6213191Y-16597115D01*
X6705935Y-16056893D01*
X6714041Y-16053091D01*
X6719309Y-16054078D01*
G37*
%TD.AperFunction*%
%TD*%
%TA.AperFunction,Conductor*%
%TO.N,/LED_HB*%
G36*
X45377071Y-21701252D02*
G01*
X45989760Y-21977793D01*
X45995891Y-21984320D01*
X45995767Y-21992909D01*
X45849563Y-22348195D01*
X45843245Y-22354542D01*
X45843195Y-22354563D01*
X45487909Y-22500767D01*
X45478955Y-22500746D01*
X45472793Y-22494760D01*
X45408676Y-22352707D01*
X45246279Y-21992909D01*
X45196252Y-21882071D01*
X45195972Y-21873121D01*
X45198641Y-21868987D01*
X45363986Y-21703642D01*
X45372258Y-21700216D01*
X45377071Y-21701252D01*
G37*
%TD.AperFunction*%
%TD*%
%TA.AperFunction,Conductor*%
%TO.N,VBUS*%
G36*
X64270264Y-25915278D02*
G01*
X64855633Y-26501622D01*
X64859053Y-26509898D01*
X64857459Y-26515783D01*
X64515386Y-27102195D01*
X64508258Y-27107615D01*
X64505280Y-27108000D01*
X64018720Y-27108000D01*
X64010447Y-27104573D01*
X64008614Y-27102195D01*
X63666540Y-26515783D01*
X63665331Y-26506910D01*
X63668364Y-26501625D01*
X64253721Y-25915292D01*
X64261990Y-25911859D01*
X64270264Y-25915278D01*
G37*
%TD.AperFunction*%
%TD*%
%TA.AperFunction,Conductor*%
%TO.N,/SCL*%
G36*
X6719309Y-14054078D02*
G01*
X7675034Y-14476918D01*
X7681213Y-14483400D01*
X7682000Y-14487618D01*
X7682000Y-14722381D01*
X7678573Y-14730654D01*
X7675034Y-14733081D01*
X6719312Y-15155920D01*
X6710360Y-15156133D01*
X6705934Y-15153105D01*
X6213192Y-14612884D01*
X6210148Y-14604462D01*
X6213191Y-14597115D01*
X6705935Y-14056893D01*
X6714041Y-14053091D01*
X6719309Y-14054078D01*
G37*
%TD.AperFunction*%
%TD*%
%TA.AperFunction,Conductor*%
%TO.N,/LED_UI*%
G36*
X45868909Y-24235232D02*
G01*
X46011763Y-24294018D01*
X46224195Y-24381436D01*
X46230542Y-24387754D01*
X46230563Y-24387804D01*
X46376767Y-24743090D01*
X46376746Y-24752044D01*
X46370760Y-24758206D01*
X45758071Y-25034747D01*
X45749121Y-25035027D01*
X45744985Y-25032356D01*
X45579643Y-24867014D01*
X45576216Y-24858741D01*
X45577252Y-24853928D01*
X45623238Y-24752044D01*
X45853794Y-24241238D01*
X45860320Y-24235108D01*
X45868909Y-24235232D01*
G37*
%TD.AperFunction*%
%TD*%
%TA.AperFunction,Conductor*%
%TO.N,/SWDIO*%
G36*
X28815553Y-28634112D02*
G01*
X29477785Y-28836689D01*
X29484694Y-28842386D01*
X29485551Y-28851299D01*
X29485183Y-28852329D01*
X29339563Y-29206195D01*
X29333245Y-29212542D01*
X29333195Y-29212563D01*
X28976719Y-29359257D01*
X28967765Y-29359236D01*
X28962257Y-29354494D01*
X28657754Y-28851299D01*
X28636803Y-28816678D01*
X28635453Y-28807827D01*
X28638539Y-28802351D01*
X28803863Y-28637027D01*
X28812135Y-28633601D01*
X28815553Y-28634112D01*
G37*
%TD.AperFunction*%
%TD*%
%TA.AperFunction,Conductor*%
%TO.N,/SDA*%
G36*
X34135294Y-32908728D02*
G01*
X34141280Y-32914890D01*
X34289123Y-33269498D01*
X34289144Y-33278452D01*
X34289123Y-33278502D01*
X34141280Y-33633109D01*
X34134933Y-33639427D01*
X34126344Y-33639551D01*
X33497563Y-33401858D01*
X33491036Y-33395727D01*
X33490000Y-33390914D01*
X33490000Y-33157085D01*
X33493427Y-33148812D01*
X33497563Y-33146141D01*
X34126345Y-32908448D01*
X34135294Y-32908728D01*
G37*
%TD.AperFunction*%
%TD*%
%TA.AperFunction,Conductor*%
%TO.N,/SDA*%
G36*
X16736294Y-24272728D02*
G01*
X16742280Y-24278890D01*
X16890123Y-24633498D01*
X16890144Y-24642452D01*
X16890123Y-24642502D01*
X16742280Y-24997109D01*
X16735933Y-25003427D01*
X16727344Y-25003551D01*
X16098563Y-24765858D01*
X16092036Y-24759727D01*
X16091000Y-24754914D01*
X16091000Y-24521085D01*
X16094427Y-24512812D01*
X16098563Y-24510141D01*
X16727345Y-24272448D01*
X16736294Y-24272728D01*
G37*
%TD.AperFunction*%
%TD*%
%TA.AperFunction,Conductor*%
%TO.N,/SWO*%
G36*
X32383188Y-30064427D02*
G01*
X32385859Y-30068563D01*
X32623551Y-30697344D01*
X32623271Y-30706294D01*
X32617109Y-30712280D01*
X32262502Y-30860123D01*
X32253548Y-30860144D01*
X32253498Y-30860123D01*
X31898890Y-30712280D01*
X31892572Y-30705933D01*
X31892448Y-30697345D01*
X32130141Y-30068562D01*
X32136272Y-30062036D01*
X32141085Y-30061000D01*
X32374915Y-30061000D01*
X32383188Y-30064427D01*
G37*
%TD.AperFunction*%
%TD*%
%TA.AperFunction,Conductor*%
%TO.N,/VBAT*%
G36*
X37463188Y-40224427D02*
G01*
X37465859Y-40228563D01*
X37703551Y-40857344D01*
X37703271Y-40866294D01*
X37697109Y-40872280D01*
X37342502Y-41020123D01*
X37333548Y-41020144D01*
X37333498Y-41020123D01*
X36978890Y-40872280D01*
X36972572Y-40865933D01*
X36972448Y-40857345D01*
X37210141Y-40228562D01*
X37216272Y-40222036D01*
X37221085Y-40221000D01*
X37454915Y-40221000D01*
X37463188Y-40224427D01*
G37*
%TD.AperFunction*%
%TD*%
%TA.AperFunction,Conductor*%
%TO.N,/SWCLK*%
G36*
X22151696Y-22246890D02*
G01*
X22763437Y-22478141D01*
X22769964Y-22484272D01*
X22771000Y-22489085D01*
X22771000Y-22722914D01*
X22767573Y-22731187D01*
X22763437Y-22733858D01*
X22134655Y-22971551D01*
X22125705Y-22971271D01*
X22119719Y-22965109D01*
X22023306Y-22733858D01*
X21971875Y-22610499D01*
X21971855Y-22601550D01*
X22119719Y-22246889D01*
X22126066Y-22240572D01*
X22134654Y-22240448D01*
X22151696Y-22246890D01*
G37*
%TD.AperFunction*%
%TD*%
%TA.AperFunction,Conductor*%
%TO.N,/SWO*%
G36*
X22516048Y-16997497D02*
G01*
X22516094Y-16997543D01*
X22984939Y-17474029D01*
X22988299Y-17482330D01*
X22984872Y-17490508D01*
X22819623Y-17655757D01*
X22811606Y-17659181D01*
X22236934Y-17671739D01*
X22228588Y-17668494D01*
X22224981Y-17660298D01*
X22224979Y-17660148D01*
X22224301Y-17276166D01*
X22227711Y-17267891D01*
X22499504Y-16997454D01*
X22507783Y-16994049D01*
X22516048Y-16997497D01*
G37*
%TD.AperFunction*%
%TD*%
%TA.AperFunction,Conductor*%
%TO.N,/SWO*%
G36*
X27215048Y-24109497D02*
G01*
X27215094Y-24109543D01*
X27683939Y-24586029D01*
X27687299Y-24594330D01*
X27683872Y-24602508D01*
X27518623Y-24767757D01*
X27510606Y-24771181D01*
X26935934Y-24783739D01*
X26927588Y-24780494D01*
X26923981Y-24772298D01*
X26923979Y-24772148D01*
X26923301Y-24388166D01*
X26926711Y-24379891D01*
X27198504Y-24109454D01*
X27206783Y-24106049D01*
X27215048Y-24109497D01*
G37*
%TD.AperFunction*%
%TD*%
%TA.AperFunction,Conductor*%
%TO.N,/SWDIO*%
G36*
X22339044Y-24235253D02*
G01*
X22345206Y-24241239D01*
X22621747Y-24853928D01*
X22622027Y-24862878D01*
X22619356Y-24867014D01*
X22454014Y-25032356D01*
X22445741Y-25035783D01*
X22440928Y-25034747D01*
X21828239Y-24758206D01*
X21822108Y-24751679D01*
X21822232Y-24743090D01*
X21968437Y-24387802D01*
X21974753Y-24381457D01*
X22330090Y-24235232D01*
X22339044Y-24235253D01*
G37*
%TD.AperFunction*%
%TD*%
%TA.AperFunction,Conductor*%
%TO.N,/VBAT*%
G36*
X36894245Y-32962725D02*
G01*
X36897686Y-32970992D01*
X36897686Y-32971034D01*
X36897019Y-33348783D01*
X36893578Y-33357050D01*
X36885791Y-33360452D01*
X36669509Y-33369181D01*
X36661104Y-33366091D01*
X36660764Y-33365764D01*
X36491235Y-33196235D01*
X36487808Y-33187962D01*
X36487817Y-33187527D01*
X36496547Y-32971206D01*
X36500304Y-32963080D01*
X36508215Y-32959980D01*
X36885966Y-32959313D01*
X36894245Y-32962725D01*
G37*
%TD.AperFunction*%
%TD*%
%TA.AperFunction,Conductor*%
%TO.N,/LED_UI*%
G36*
X34978696Y-25548890D02*
G01*
X35590437Y-25780141D01*
X35596964Y-25786272D01*
X35598000Y-25791085D01*
X35598000Y-26024914D01*
X35594573Y-26033187D01*
X35590437Y-26035858D01*
X34961655Y-26273551D01*
X34952705Y-26273271D01*
X34946719Y-26267109D01*
X34850306Y-26035858D01*
X34798875Y-25912499D01*
X34798855Y-25903550D01*
X34946719Y-25548889D01*
X34953066Y-25542572D01*
X34961654Y-25542448D01*
X34978696Y-25548890D01*
G37*
%TD.AperFunction*%
%TD*%
%TA.AperFunction,Conductor*%
%TO.N,/NRST*%
G36*
X36294294Y-26939728D02*
G01*
X36300280Y-26945890D01*
X36448123Y-27300497D01*
X36448144Y-27309451D01*
X36448123Y-27309501D01*
X36300280Y-27664109D01*
X36293933Y-27670427D01*
X36285344Y-27670551D01*
X35656563Y-27432858D01*
X35650036Y-27426727D01*
X35649000Y-27421914D01*
X35649000Y-27188085D01*
X35652427Y-27179812D01*
X35656563Y-27177141D01*
X36285345Y-26939448D01*
X36294294Y-26939728D01*
G37*
%TD.AperFunction*%
%TD*%
%TA.AperFunction,Conductor*%
%TO.N,/SDA*%
G36*
X23736044Y-29061253D02*
G01*
X23742206Y-29067239D01*
X24018747Y-29679928D01*
X24019027Y-29688878D01*
X24016356Y-29693014D01*
X23851014Y-29858356D01*
X23842741Y-29861783D01*
X23837928Y-29860747D01*
X23225239Y-29584206D01*
X23219108Y-29577679D01*
X23219232Y-29569090D01*
X23365437Y-29213802D01*
X23371753Y-29207457D01*
X23727090Y-29061232D01*
X23736044Y-29061253D01*
G37*
%TD.AperFunction*%
%TD*%
%TA.AperFunction,Conductor*%
%TO.N,VBUS*%
G36*
X53459937Y-47609342D02*
G01*
X54046038Y-47887403D01*
X54052044Y-47894046D01*
X54052673Y-47899051D01*
X53947982Y-49031377D01*
X53943808Y-49039300D01*
X53936332Y-49042000D01*
X52957808Y-49042000D01*
X52949535Y-49038573D01*
X52946145Y-49031226D01*
X52855646Y-47891141D01*
X52858407Y-47882622D01*
X52862417Y-47879588D01*
X53450034Y-47609283D01*
X53458981Y-47608940D01*
X53459937Y-47609342D01*
G37*
%TD.AperFunction*%
%TD*%
%TA.AperFunction,Conductor*%
%TO.N,/SCL*%
G36*
X18529636Y-24489009D02*
G01*
X18535500Y-24494383D01*
X18836521Y-25069612D01*
X18837321Y-25078531D01*
X18834428Y-25083310D01*
X18669062Y-25248676D01*
X18660789Y-25252103D01*
X18656673Y-25251355D01*
X18019223Y-25011797D01*
X18012684Y-25005679D01*
X18012387Y-24996729D01*
X18012519Y-24996393D01*
X18158437Y-24641802D01*
X18164753Y-24635457D01*
X18520683Y-24488988D01*
X18529636Y-24489009D01*
G37*
%TD.AperFunction*%
%TD*%
%TA.AperFunction,Conductor*%
%TO.N,VBUS*%
G36*
X53696752Y-46138018D02*
G01*
X53699615Y-46142701D01*
X54007018Y-47096227D01*
X54006295Y-47105153D01*
X54003767Y-47108461D01*
X53462885Y-47601807D01*
X53454463Y-47604851D01*
X53447115Y-47601807D01*
X52906140Y-47108377D01*
X52902337Y-47100270D01*
X52902837Y-47096311D01*
X53194468Y-46142869D01*
X53200165Y-46135960D01*
X53205656Y-46134591D01*
X53688479Y-46134591D01*
X53696752Y-46138018D01*
G37*
%TD.AperFunction*%
%TD*%
%TA.AperFunction,Conductor*%
%TO.N,/SCL*%
G36*
X18286188Y-23841427D02*
G01*
X18288859Y-23845563D01*
X18526551Y-24474344D01*
X18526271Y-24483294D01*
X18520109Y-24489280D01*
X18165502Y-24637123D01*
X18156548Y-24637144D01*
X18156498Y-24637123D01*
X17801890Y-24489280D01*
X17795572Y-24482933D01*
X17795448Y-24474345D01*
X18033141Y-23845562D01*
X18039272Y-23839036D01*
X18044085Y-23838000D01*
X18277915Y-23838000D01*
X18286188Y-23841427D01*
G37*
%TD.AperFunction*%
%TD*%
%TA.AperFunction,Conductor*%
%TO.N,/SWCLK*%
G36*
X30986188Y-29937427D02*
G01*
X30988859Y-29941563D01*
X31226551Y-30570344D01*
X31226271Y-30579294D01*
X31220109Y-30585280D01*
X30865502Y-30733123D01*
X30856548Y-30733144D01*
X30856498Y-30733123D01*
X30501890Y-30585280D01*
X30495572Y-30578933D01*
X30495448Y-30570345D01*
X30733141Y-29941562D01*
X30739272Y-29935036D01*
X30744085Y-29934000D01*
X30977915Y-29934000D01*
X30986188Y-29937427D01*
G37*
%TD.AperFunction*%
%TD*%
%TA.AperFunction,Conductor*%
%TO.N,/SCL*%
G36*
X24422071Y-28432252D02*
G01*
X25034760Y-28708793D01*
X25040891Y-28715320D01*
X25040767Y-28723909D01*
X24894563Y-29079195D01*
X24888245Y-29085542D01*
X24888195Y-29085563D01*
X24532909Y-29231767D01*
X24523955Y-29231746D01*
X24517793Y-29225760D01*
X24453676Y-29083707D01*
X24291279Y-28723909D01*
X24241252Y-28613071D01*
X24240972Y-28604121D01*
X24243641Y-28599987D01*
X24408986Y-28434642D01*
X24417258Y-28431216D01*
X24422071Y-28432252D01*
G37*
%TD.AperFunction*%
%TD*%
%TA.AperFunction,Conductor*%
%TO.N,/NRST*%
G36*
X36870418Y-26711582D02*
G01*
X36874046Y-26714047D01*
X37039952Y-26879953D01*
X37043379Y-26888226D01*
X37042557Y-26892535D01*
X36822918Y-27447050D01*
X36816685Y-27453479D01*
X36807731Y-27453619D01*
X36807588Y-27453561D01*
X36452804Y-27307563D01*
X36446457Y-27301245D01*
X36446436Y-27301195D01*
X36300438Y-26946411D01*
X36300459Y-26937457D01*
X36306806Y-26931139D01*
X36306815Y-26931135D01*
X36861466Y-26711442D01*
X36870418Y-26711582D01*
G37*
%TD.AperFunction*%
%TD*%
%TA.AperFunction,Conductor*%
%TO.N,/SDA*%
G36*
X17257624Y-24489837D02*
G01*
X17263942Y-24496184D01*
X17264310Y-24497214D01*
X17466886Y-25159442D01*
X17466029Y-25168355D01*
X17463971Y-25171137D01*
X17298650Y-25336458D01*
X17290377Y-25339885D01*
X17284320Y-25338195D01*
X16746505Y-25012742D01*
X16741201Y-25005527D01*
X16741741Y-24998281D01*
X16888437Y-24641802D01*
X16894753Y-24635457D01*
X17248671Y-24489816D01*
X17257624Y-24489837D01*
G37*
%TD.AperFunction*%
%TD*%
%TA.AperFunction,Conductor*%
%TO.N,/LED_HB*%
G36*
X33454696Y-19833890D02*
G01*
X34066437Y-20065141D01*
X34072964Y-20071272D01*
X34074000Y-20076085D01*
X34074000Y-20309914D01*
X34070573Y-20318187D01*
X34066437Y-20320858D01*
X33437655Y-20558551D01*
X33428705Y-20558271D01*
X33422719Y-20552109D01*
X33326306Y-20320858D01*
X33274875Y-20197499D01*
X33274855Y-20188550D01*
X33422719Y-19833889D01*
X33429066Y-19827572D01*
X33437654Y-19827448D01*
X33454696Y-19833890D01*
G37*
%TD.AperFunction*%
%TD*%
%TA.AperFunction,Conductor*%
%TO.N,/SCL*%
G36*
X32992294Y-31892728D02*
G01*
X32998280Y-31898890D01*
X33146123Y-32253498D01*
X33146144Y-32262452D01*
X33146123Y-32262502D01*
X32998280Y-32617109D01*
X32991933Y-32623427D01*
X32983344Y-32623551D01*
X32354563Y-32385858D01*
X32348036Y-32379727D01*
X32347000Y-32374914D01*
X32347000Y-32141085D01*
X32350427Y-32132812D01*
X32354563Y-32130141D01*
X32983345Y-31892448D01*
X32992294Y-31892728D01*
G37*
%TD.AperFunction*%
%TD*%
%TA.AperFunction,Conductor*%
%TO.N,/NRST*%
G36*
X50397109Y-19325719D02*
G01*
X50403427Y-19332066D01*
X50403551Y-19340655D01*
X50165859Y-19969437D01*
X50159728Y-19975964D01*
X50154915Y-19977000D01*
X49921085Y-19977000D01*
X49912812Y-19973573D01*
X49910141Y-19969437D01*
X49672448Y-19340655D01*
X49672728Y-19331705D01*
X49678889Y-19325719D01*
X50033500Y-19177875D01*
X50042449Y-19177855D01*
X50397109Y-19325719D01*
G37*
%TD.AperFunction*%
%TD*%
%TA.AperFunction,Conductor*%
%TO.N,/NRST*%
G36*
X26706000Y-21697540D02*
G01*
X26706950Y-21698620D01*
X27156694Y-22279082D01*
X27159052Y-22287720D01*
X27155718Y-22294520D01*
X26990470Y-22459768D01*
X26982197Y-22463195D01*
X26980314Y-22463042D01*
X26425799Y-22372598D01*
X26418185Y-22367884D01*
X26415982Y-22361072D01*
X26415852Y-22287231D01*
X26415301Y-21975166D01*
X26418711Y-21966891D01*
X26689456Y-21697497D01*
X26697735Y-21694092D01*
X26706000Y-21697540D01*
G37*
%TD.AperFunction*%
%TD*%
%TA.AperFunction,Conductor*%
%TO.N,/SWO*%
G36*
X26400661Y-23810860D02*
G01*
X27064714Y-24010728D01*
X27071648Y-24016393D01*
X27072545Y-24025303D01*
X27072161Y-24026383D01*
X26926563Y-24380195D01*
X26920245Y-24386542D01*
X26920195Y-24386563D01*
X26563674Y-24533276D01*
X26554720Y-24533255D01*
X26549242Y-24528561D01*
X26221999Y-23993482D01*
X26220607Y-23984639D01*
X26223706Y-23979109D01*
X26389024Y-23813791D01*
X26397296Y-23810365D01*
X26400661Y-23810860D01*
G37*
%TD.AperFunction*%
%TD*%
%TA.AperFunction,Conductor*%
%TO.N,/SDA*%
G36*
X23213294Y-28844728D02*
G01*
X23219280Y-28850890D01*
X23367123Y-29205498D01*
X23367144Y-29214452D01*
X23367123Y-29214502D01*
X23219280Y-29569109D01*
X23212933Y-29575427D01*
X23204344Y-29575551D01*
X22575563Y-29337858D01*
X22569036Y-29331727D01*
X22568000Y-29326914D01*
X22568000Y-29093085D01*
X22571427Y-29084812D01*
X22575563Y-29082141D01*
X23204345Y-28844448D01*
X23213294Y-28844728D01*
G37*
%TD.AperFunction*%
%TD*%
%TA.AperFunction,Conductor*%
%TO.N,/SCL*%
G36*
X25072696Y-28723890D02*
G01*
X25684437Y-28955141D01*
X25690964Y-28961272D01*
X25692000Y-28966085D01*
X25692000Y-29199914D01*
X25688573Y-29208187D01*
X25684437Y-29210858D01*
X25055655Y-29448551D01*
X25046705Y-29448271D01*
X25040719Y-29442109D01*
X24944306Y-29210858D01*
X24892875Y-29087499D01*
X24892855Y-29078550D01*
X25040719Y-28723889D01*
X25047066Y-28717572D01*
X25055654Y-28717448D01*
X25072696Y-28723890D01*
G37*
%TD.AperFunction*%
%TD*%
M02*
